<svg id="Grupo_236371" data-name="Grupo 236371" xmlns="http://www.w3.org/2000/svg" xmlns:xlink="http://www.w3.org/1999/xlink" width="474.918" height="447.505" viewBox="0 0 474.918 447.505">
  <defs>
    <clipPath id="clip-path">
      <rect id="Rectángulo_294905" data-name="Rectángulo 294905" width="474.918" height="447.505" fill="none"/>
    </clipPath>
    <clipPath id="clip-path-4">
      <rect id="Rectángulo_294907" data-name="Rectángulo 294907" width="7.167" height="23.566" transform="translate(19.832 71.015)" fill="none"/>
    </clipPath>
    <clipPath id="clip-path-5">
      <rect id="Rectángulo_294908" data-name="Rectángulo 294908" width="4.472" height="2.862" transform="translate(28.802 67.541)" fill="none"/>
    </clipPath>
    <clipPath id="clip-path-7">
      <rect id="Rectángulo_294922" data-name="Rectángulo 294922" width="21.051" height="21.991" transform="translate(390.192 156.384)" fill="none"/>
    </clipPath>
    <clipPath id="clip-path-8">
      <rect id="Rectángulo_294923" data-name="Rectángulo 294923" width="7.112" height="19.319" transform="translate(339.997 152.1)" fill="none"/>
    </clipPath>
    <clipPath id="clip-path-9">
      <rect id="Rectángulo_294924" data-name="Rectángulo 294924" width="17.877" height="26.466" transform="translate(371.704 189.832)" fill="none"/>
    </clipPath>
    <clipPath id="clip-path-10">
      <rect id="Rectángulo_294926" data-name="Rectángulo 294926" width="91.158" height="61.679" transform="translate(76.356 184.181)" fill="none"/>
    </clipPath>
    <clipPath id="clip-path-11">
      <rect id="Rectángulo_294927" data-name="Rectángulo 294927" width="3.824" height="17.562" transform="translate(77.297 175.4)" fill="none"/>
    </clipPath>
  </defs>
  <g id="Grupo_236372" data-name="Grupo 236372">
    <rect id="Rectángulo_294887" data-name="Rectángulo 294887" width="17.226" height="39.702" transform="translate(28.54 368.144)" fill="#ebebeb"/>
    <rect id="Rectángulo_294888" data-name="Rectángulo 294888" width="17.226" height="39.702" transform="translate(86.995 368.144)" fill="#ebebeb"/>
    <rect id="Rectángulo_294889" data-name="Rectángulo 294889" width="17.226" height="75.841" transform="translate(57.767 332.005)" fill="#f5f5f5"/>
    <rect id="Rectángulo_294890" data-name="Rectángulo 294890" width="17.226" height="75.841" transform="translate(116.222 332.005)" fill="#f5f5f5"/>
    <rect id="Rectángulo_294891" data-name="Rectángulo 294891" width="17.226" height="73.67" transform="translate(145.45 334.176)" fill="#ebebeb"/>
    <rect id="Rectángulo_294892" data-name="Rectángulo 294892" width="17.226" height="73.67" transform="translate(203.904 334.176)" fill="#ebebeb"/>
    <rect id="Rectángulo_294893" data-name="Rectángulo 294893" width="17.226" height="73.67" transform="translate(262.36 334.176)" fill="#ebebeb"/>
    <rect id="Rectángulo_294894" data-name="Rectángulo 294894" width="17.226" height="112.331" transform="translate(174.677 295.515)" fill="#f5f5f5"/>
    <rect id="Rectángulo_294895" data-name="Rectángulo 294895" width="17.226" height="101.339" transform="translate(233.132 306.507)" fill="#f5f5f5"/>
    <rect id="Rectángulo_294896" data-name="Rectángulo 294896" width="17.226" height="73.67" transform="translate(348.702 334.176)" fill="#ebebeb"/>
    <rect id="Rectángulo_294897" data-name="Rectángulo 294897" width="17.226" height="59.532" transform="translate(319.474 348.314)" fill="#f5f5f5"/>
    <rect id="Rectángulo_294898" data-name="Rectángulo 294898" width="17.226" height="112.986" transform="translate(409.833 294.86)" fill="#ebebeb"/>
    <rect id="Rectángulo_294899" data-name="Rectángulo 294899" width="17.226" height="59.532" transform="translate(380.605 348.314)" fill="#f5f5f5"/>
    <rect id="Rectángulo_294900" data-name="Rectángulo 294900" width="17.226" height="59.532" transform="translate(439.093 348.314)" fill="#f5f5f5"/>
    <rect id="Rectángulo_294901" data-name="Rectángulo 294901" width="17.226" height="85.814" transform="translate(291.587 322.032)" fill="#ebebeb"/>
    <g id="Grupo_236336" data-name="Grupo 236336">
      <g id="Grupo_236335" data-name="Grupo 236335" clip-path="url(#clip-path)">
        <path id="Trazado_260316" data-name="Trazado 260316" d="M186.3,295.515a4.43,4.43,0,1,1-4.43-4.43,4.43,4.43,0,0,1,4.43,4.43" fill="#e0e0e0"/>
        <path id="Trazado_260317" data-name="Trazado 260317" d="M181.873,303.562a8.048,8.048,0,1,1,8.047-8.047,8.057,8.057,0,0,1-8.047,8.047m0-15.446a7.4,7.4,0,1,0,7.4,7.4,7.407,7.407,0,0,0-7.4-7.4" fill="#e0e0e0"/>
        <path id="Trazado_260318" data-name="Trazado 260318" d="M185.408,284.219l-.228-8.722,2.178.035-4.068-4.971-4.067,5.017,2.255.014.224,8.605Z" fill="#ebebeb"/>
        <path id="Trazado_260319" data-name="Trazado 260319" d="M42.057,350a4.43,4.43,0,1,1-4.43-4.43,4.43,4.43,0,0,1,4.43,4.43" fill="#e0e0e0"/>
        <path id="Trazado_260320" data-name="Trazado 260320" d="M37.627,358.216a8.048,8.048,0,1,1,8.048-8.047,8.056,8.056,0,0,1-8.048,8.047m0-15.446a7.4,7.4,0,1,0,7.4,7.4,7.407,7.407,0,0,0-7.4-7.4" fill="#e0e0e0"/>
        <path id="Trazado_260321" data-name="Trazado 260321" d="M34.951,322.527l.237,9.069-2.265-.036,4.23,5.169,4.23-5.217-2.345-.014L38.8,322.55Z" fill="#ebebeb"/>
        <path id="Trazado_260322" data-name="Trazado 260322" d="M269.409,303.563l.237,9.069-2.265-.036,4.23,5.169,4.23-5.217-2.345-.014-.234-8.948Z" fill="#ebebeb"/>
        <path id="Trazado_260323" data-name="Trazado 260323" d="M322.769,383.911l-51.888-48.673c-32.873-15.872-83.632-39.266-89.551-38.936-6.63.391-132.461,50.013-180.387,69.1L0,363.035c7.051-2.809,172.783-68.783,181.181-69.277.057,0,.118-.005.182-.005,9.208,0,82.428,35.231,90.8,39.275l.316.218,50.705,47.563c9.62-5.077,64.763-34.171,65.7-34.587.326-.144,1.2-.5,77.031-.494v2.549c-29.087-.021-72.809.065-76.132.344-2.878,1.459-44.26,23.281-66.215,34.867Z" fill="#e0e0e0"/>
        <path id="Trazado_260324" data-name="Trazado 260324" d="M276.041,333.088a4.43,4.43,0,1,1-4.43-4.43,4.429,4.429,0,0,1,4.43,4.43" fill="#e0e0e0"/>
        <path id="Trazado_260325" data-name="Trazado 260325" d="M271.611,341.3a8.048,8.048,0,1,1,8.047-8.047,8.057,8.057,0,0,1-8.047,8.047m0-15.446a7.4,7.4,0,1,0,7.4,7.4,7.408,7.408,0,0,0-7.4-7.4" fill="#e0e0e0"/>
        <path id="Trazado_260326" data-name="Trazado 260326" d="M393.834,346.3a4.43,4.43,0,1,1-4.43-4.43,4.43,4.43,0,0,1,4.43,4.43" fill="#e0e0e0"/>
        <path id="Trazado_260327" data-name="Trazado 260327" d="M389.4,354.515a8.048,8.048,0,1,1,8.048-8.047,8.056,8.056,0,0,1-8.048,8.047m0-15.446a7.4,7.4,0,1,0,7.4,7.4,7.408,7.408,0,0,0-7.4-7.4" fill="#e0e0e0"/>
        <path id="Trazado_260328" data-name="Trazado 260328" d="M387.017,319.974l.237,9.069-2.265-.036,4.23,5.169,4.23-5.217-2.345-.014L390.87,320Z" fill="#ebebeb"/>
        <path id="Trazado_260329" data-name="Trazado 260329" d="M394.892,236.414a38.773,38.773,0,1,1,39.391,38.321,38.915,38.915,0,0,1-39.391-38.321m57.3-.925a18.54,18.54,0,1,0-18.239,18.921A18.6,18.6,0,0,0,452.2,235.489" fill="#f5f5f5"/>
        <path id="Trazado_260330" data-name="Trazado 260330" d="M394.893,236.414a38.913,38.913,0,0,1,38.145-39.572l.325,20.324a18.625,18.625,0,0,0,.6,37.244l.325,20.324a38.9,38.9,0,0,1-39.39-38.32" fill="#e0e0e0"/>
        <path id="Trazado_260331" data-name="Trazado 260331" d="M429.557,193.716c25.009-.4,44.959,19.006,45.361,44.13l-23.669.381c-.192-12.012-9.333-19.576-21.29-19.383Z" fill="#ebebeb"/>
        <rect id="Rectángulo_294902" data-name="Rectángulo 294902" width="17.464" height="54.544" transform="translate(93.898 9.075)" fill="#ebebeb"/>
        <rect id="Rectángulo_294903" data-name="Rectángulo 294903" width="17.464" height="42.085" transform="translate(119.973 21.534)" fill="#ebebeb"/>
        <rect id="Rectángulo_294904" data-name="Rectángulo 294904" width="17.464" height="24.992" transform="translate(144.113 38.627)" fill="#ebebeb"/>
        <path id="Trazado_260332" data-name="Trazado 260332" d="M311.654,42.117V11.539a30.578,30.578,0,1,1-30.569,31.285Z" fill="#ebebeb"/>
        <path id="Trazado_260333" data-name="Trazado 260333" d="M305.972,30.566l-30.578.691a32.256,32.256,0,0,1,8.664-22.016A31.434,31.434,0,0,1,305.5,0Z" fill="#f5f5f5"/>
        <path id="Trazado_260334" data-name="Trazado 260334" d="M37.008,211.956l21.4-16.966a27.313,27.313,0,1,1-32.256-8.1Z" fill="#f5f5f5"/>
        <path id="Trazado_260335" data-name="Trazado 260335" d="M31.2,184.112l7.527,19.8L54.66,190.38s-8.437-8.69-23.457-6.268" fill="#e0e0e0"/>
      </g>
    </g>
    <g id="Grupo_236338" data-name="Grupo 236338">
      <g id="Grupo_236337" data-name="Grupo 236337" clip-path="url(#clip-path)">
        <path id="Trazado_260336" data-name="Trazado 260336" d="M446.478,432.832c0,.144-94.064.26-210.07.26-116.047,0-210.091-.116-210.091-.26s94.044-.26,210.091-.26c116.006,0,210.07.116,210.07.26" fill="#263238"/>
      </g>
    </g>
    <g id="Grupo_236346" data-name="Grupo 236346">
      <g id="Grupo_236345" data-name="Grupo 236345" clip-path="url(#clip-path)">
        <path id="Trazado_260337" data-name="Trazado 260337" d="M54.331,75.773a18.9,18.9,0,1,0-17.86,26.458l1.908,4.37,15.182-6.629s-.979-2.492-1.9-4.7a18.9,18.9,0,0,0,2.671-19.5" fill="#a3314f"/>
        <path id="Trazado_260338" data-name="Trazado 260338" d="M48.039,102.3s-.03-.074-.076-.221-.116-.375-.2-.656c-.173-.578-.429-1.43-.729-2.536s-.65-2.465-.955-4.066a27.968,27.968,0,0,1-.533-5.507,17.957,17.957,0,0,1,.293-3.214,3.481,3.481,0,0,1,.719-1.581,1.95,1.95,0,0,1,1.669-.664,1.286,1.286,0,0,1,.847.446,1.321,1.321,0,0,1,.316.921,2.683,2.683,0,0,1-.835,1.737,5.168,5.168,0,0,1-3.712,1.317,5.234,5.234,0,0,1-3.708-1.822,3.97,3.97,0,0,1-.975-1.954,1.7,1.7,0,0,1,1.049-1.891,1.221,1.221,0,0,1,1.148.226,1.713,1.713,0,0,1,.606,1.008,3.7,3.7,0,0,1-.467,2.253,5.639,5.639,0,0,1-3.526,2.934,4.913,4.913,0,0,1-4.44-1.035,2.858,2.858,0,0,1-1.033-2.047,1.446,1.446,0,0,1,.425-1.1,1.418,1.418,0,0,1,1.11-.368,1.886,1.886,0,0,1,1.063.441,2.951,2.951,0,0,1,.7.882,5.438,5.438,0,0,1,.6,2.1A5.628,5.628,0,0,1,36.22,91.87a5.728,5.728,0,0,1-3.369,2.058,3,3,0,0,1-1.92-.146,1.464,1.464,0,0,1-.825-1.627,1.231,1.231,0,0,1,.612-.72,1.79,1.79,0,0,1,.9-.2,2.742,2.742,0,0,1,1.579.726c.846.749,1.594,1.51,2.328,2.227,2.91,2.887,5.149,5.334,6.677,7.04.764.854,1.347,1.526,1.74,1.982l.444.524c.1.119.145.184.145.184s-.058-.055-.163-.168-.263-.291-.461-.508c-.412-.454-1.007-1.111-1.772-1.953-1.548-1.687-3.8-4.116-6.725-6.984-.734-.709-1.5-1.476-2.327-2.206a2.563,2.563,0,0,0-1.472-.677A1.132,1.132,0,0,0,31.02,93.6a2.806,2.806,0,0,0,1.792.124,5.535,5.535,0,0,0,3.241-1.991,5.414,5.414,0,0,0,1.12-3.819,5.242,5.242,0,0,0-.578-2.007,2.054,2.054,0,0,0-1.583-1.2,1.187,1.187,0,0,0-.934.306,1.212,1.212,0,0,0-.353.929,2.629,2.629,0,0,0,.957,1.878,4.686,4.686,0,0,0,4.228.982,5.407,5.407,0,0,0,3.378-2.814,3.479,3.479,0,0,0,.448-2.1,1.483,1.483,0,0,0-.522-.873.99.99,0,0,0-.938-.189,1.321,1.321,0,0,0-.739.654,1.63,1.63,0,0,0-.156.991,3.75,3.75,0,0,0,.92,1.838,5.028,5.028,0,0,0,3.55,1.754,4.974,4.974,0,0,0,3.558-1.249,2.494,2.494,0,0,0,.78-1.6,1.115,1.115,0,0,0-.989-1.171,1.764,1.764,0,0,0-1.5.6,3.306,3.306,0,0,0-.684,1.5,17.831,17.831,0,0,0-.3,3.177,28.2,28.2,0,0,0,.5,5.482c.292,1.6.629,2.958.915,4.066s.527,1.954.687,2.546c.077.284.136.5.179.662s.054.228.054.228" fill="#263238"/>
        <path id="Trazado_260339" data-name="Trazado 260339" d="M53.619,103.294l-13.036,5.691a1.067,1.067,0,0,1-.854-1.956l13.036-5.692a1.068,1.068,0,0,1,.854,1.957" fill="#263238"/>
        <path id="Trazado_260340" data-name="Trazado 260340" d="M53.992,104.148l-13.036,5.691a1.068,1.068,0,1,0,.855,1.957l1.43-.625,3.476,2.785a1.374,1.374,0,0,0,1.407.186l4.658-2.034a1.371,1.371,0,0,0,.819-1.172l.273-4.407.972-.425a1.067,1.067,0,1,0-.854-1.956" fill="#263238"/>
        <g id="Grupo_236341" data-name="Grupo 236341" opacity="0.2">
          <g id="Grupo_236340" data-name="Grupo 236340">
            <g id="Grupo_236339" data-name="Grupo 236339" clip-path="url(#clip-path-4)">
              <path id="Trazado_260341" data-name="Trazado 260341" d="M21.061,77.158a13.883,13.883,0,0,1,2.462-3.82A10.027,10.027,0,0,1,25.854,71.4c.626-.354,1.027-.454,1.119-.33.212.282-.9,1.322-2.151,3.276a15.545,15.545,0,0,0-.385,16.824c1.162,2.009,2.223,3.1,2,3.37-.1.12-.494,0-1.1-.38a10.059,10.059,0,0,1-2.24-2.046,13.891,13.891,0,0,1-2.285-3.93,14.725,14.725,0,0,1-.974-5.537" fill="#fff"/>
            </g>
          </g>
        </g>
        <g id="Grupo_236344" data-name="Grupo 236344" opacity="0.2">
          <g id="Grupo_236343" data-name="Grupo 236343">
            <g id="Grupo_236342" data-name="Grupo 236342" clip-path="url(#clip-path-5)">
              <path id="Trazado_260342" data-name="Trazado 260342" d="M31.465,70c-1.1.469-2.2.592-2.569.06a.979.979,0,0,1,.187-1.076,3.793,3.793,0,0,1,3.281-1.413c.5.072.835.294.91.6" fill="#fff"/>
            </g>
          </g>
        </g>
        <path id="Trazado_260343" data-name="Trazado 260343" d="M53.494,111.351c0,.039-.4.032-1.016.115a7.92,7.92,0,0,0-4.348,2.05,10.215,10.215,0,0,1-.735.71,2.948,2.948,0,0,1,.62-.827,6.923,6.923,0,0,1,4.446-2.1,2.891,2.891,0,0,1,1.033.048" fill="#455a64"/>
        <path id="Trazado_260344" data-name="Trazado 260344" d="M53.921,106.561c.026.059-2.31,1.135-5.217,2.4s-5.284,2.251-5.31,2.192,2.31-1.135,5.217-2.4,5.284-2.251,5.31-2.192" fill="#455a64"/>
        <path id="Trazado_260345" data-name="Trazado 260345" d="M53.78,108.464a8.062,8.062,0,0,1-1.227.691c-.772.4-1.852.922-3.059,1.47s-2.314,1.014-3.122,1.333a8.07,8.07,0,0,1-1.328.468,9.025,9.025,0,0,1,1.264-.619l3.09-1.393,3.084-1.407a9.046,9.046,0,0,1,1.3-.543" fill="#455a64"/>
      </g>
    </g>
    <g id="Grupo_236348" data-name="Grupo 236348">
      <g id="Grupo_236347" data-name="Grupo 236347" clip-path="url(#clip-path)">
        <path id="Trazado_260346" data-name="Trazado 260346" d="M277.252,277.856H200.638a5.307,5.307,0,0,1-5.307-5.307v-46.91a5.307,5.307,0,0,1,5.307-5.307h76.614a5.307,5.307,0,0,1,5.307,5.307v46.91a5.307,5.307,0,0,1-5.307,5.307" fill="#fff"/>
        <path id="Trazado_260347" data-name="Trazado 260347" d="M277.252,277.856c0-.016.247-.01.718-.078a5.082,5.082,0,0,0,1.969-.714,5.277,5.277,0,0,0,2.169-2.56c.554-1.256.317-2.873.359-4.639-.017-7.107-.043-17.368-.074-30.044q-.008-4.758-.016-9.956,0-1.3,0-2.622a16.112,16.112,0,0,0-.106-2.629,5.143,5.143,0,0,0-3.346-3.8,7.463,7.463,0,0,0-2.723-.282l-2.867,0-5.871.006-12.254.01-54.563.018a5.078,5.078,0,0,0-4.964,4.005,8.071,8.071,0,0,0-.115,1.732v1.783q0,1.78,0,3.548,0,7.071,0,13.922c-.005,9.127-.01,17.931-.014,26.318a5.775,5.775,0,0,0,.536,2.942,5.083,5.083,0,0,0,1.993,2.132,5.2,5.2,0,0,0,2.808.7l3,0,11.56.011,20.748.029,30.043.075,8.168.044,2.124.023c.479.008.724.024.724.024s-.245.016-.724.024l-2.124.023-8.168.044-30.043.075-20.748.029-11.56.011-3,0a5.626,5.626,0,0,1-3.021-.751,5.5,5.5,0,0,1-2.163-2.306,6.218,6.218,0,0,1-.585-3.133c-.005-8.387-.009-17.191-.014-26.318q0-6.846,0-13.922V226.3a8.407,8.407,0,0,1,.125-1.83,5.542,5.542,0,0,1,5.422-4.376l54.563.018,12.254.01,5.871.006,2.867,0a7.821,7.821,0,0,1,2.851.309,5.523,5.523,0,0,1,3.586,4.1,16,16,0,0,1,.107,2.7q0,1.325,0,2.622-.009,5.193-.015,9.956c-.032,12.676-.057,22.937-.075,30.044q-.006,1.331-.011,2.511a5.572,5.572,0,0,1-.4,2.18,5.361,5.361,0,0,1-2.249,2.59,4.963,4.963,0,0,1-2.012.679,4.068,4.068,0,0,1-.724.031" fill="#263238"/>
        <rect id="Rectángulo_294910" data-name="Rectángulo 294910" width="3.347" height="13.32" transform="translate(234.425 253.734)" fill="#a3314f"/>
        <rect id="Rectángulo_294911" data-name="Rectángulo 294911" width="3.347" height="15.25" transform="translate(206.468 251.804)" fill="#a3314f"/>
        <rect id="Rectángulo_294912" data-name="Rectángulo 294912" width="3.347" height="18.429" transform="translate(213.457 248.625)" fill="#a3314f"/>
        <rect id="Rectángulo_294913" data-name="Rectángulo 294913" width="3.347" height="17.418" transform="translate(220.446 249.636)" fill="#a3314f"/>
        <rect id="Rectángulo_294914" data-name="Rectángulo 294914" width="3.347" height="23.311" transform="translate(227.436 243.744)" fill="#a3314f"/>
        <rect id="Rectángulo_294915" data-name="Rectángulo 294915" width="3.347" height="23.197" transform="translate(241.414 243.857)" fill="#a3314f"/>
        <rect id="Rectángulo_294916" data-name="Rectángulo 294916" width="3.347" height="15.578" transform="translate(248.404 251.476)" fill="#a3314f"/>
        <rect id="Rectángulo_294917" data-name="Rectángulo 294917" width="3.347" height="22.175" transform="translate(255.393 244.879)" fill="#a3314f"/>
        <rect id="Rectángulo_294918" data-name="Rectángulo 294918" width="3.347" height="27.17" transform="translate(262.382 239.884)" fill="#a3314f"/>
        <rect id="Rectángulo_294919" data-name="Rectángulo 294919" width="3.347" height="22.289" transform="translate(269.372 244.765)" fill="#a3314f"/>
        <path id="Trazado_260348" data-name="Trazado 260348" d="M231.287,231.633c0,.144-5.942.26-13.271.26s-13.272-.116-13.272-.26,5.941-.26,13.272-.26,13.271.116,13.271.26" fill="#263238"/>
      </g>
    </g>
    <g id="Grupo_236350" data-name="Grupo 236350">
      <g id="Grupo_236375" data-name="Grupo 236375">
        <path id="Trazado_260349" data-name="Trazado 260349" d="M417.235,52.713h41.894a3.832,3.832,0,0,1,3.832,3.832V98.439a3.832,3.832,0,0,1-3.832,3.832H430.145l-11.658,9.6v-9.6h-1.252a3.832,3.832,0,0,1-3.832-3.832V56.545a3.832,3.832,0,0,1,3.832-3.832" fill="#fff"/>
        <path id="Trazado_260350" data-name="Trazado 260350" d="M413.4,68.36h49.558V57.4a4.684,4.684,0,0,0-4.683-4.684H418.05A4.647,4.647,0,0,0,413.4,57.36Z" fill="#a3314f"/>
        <path id="Trazado_260351" data-name="Trazado 260351" d="M434.9,74.71V91.557H431V77.839h-3.369V74.71Z" fill="#263238"/>
        <path id="Trazado_260352" data-name="Trazado 260352" d="M451.028,74.71v2.527l-6.258,14.32h-4.235l6.04-13.67h-5.583v2.744h-3.466V74.71Z" fill="#263238"/>
        <path id="Trazado_260353" data-name="Trazado 260353" d="M431.261,61.59c0,.088,3.4.159,7.605.159s7.605-.071,7.605-.159-3.4-.159-7.605-.159-7.605.071-7.605.159" fill="#263238"/>
        <path id="Trazado_260354" data-name="Trazado 260354" d="M417.235,52.713s-.087,0-.259,0a3.256,3.256,0,0,0-.757.115,3.807,3.807,0,0,0-2.332,1.767,3.933,3.933,0,0,0-.539,2.107q0,1.2-.01,2.615c-.005,1.886-.011,4.05-.018,6.471-.01,4.845-.021,10.715-.033,17.428,0,3.357-.009,6.925-.014,10.681q0,1.408,0,2.852,0,.722,0,1.452a4.41,4.41,0,0,0,.2,1.49,3.965,3.965,0,0,0,3.471,2.7c.528.03,1.025.009,1.543.016l-.141-.141c0,3.027,0,6.271-.007,9.6v.313l.242-.2,11.662-9.594-.1.035,22.457,0h5.268l1.308,0a3.993,3.993,0,0,0,3.364-1.93,4.006,4.006,0,0,0,.492-1.24,6.361,6.361,0,0,0,.085-1.31q0-1.281,0-2.552,0-2.541,0-5.041c0-6.663-.007-13.09-.01-19.213q0-4.591-.006-8.947,0-2.175,0-4.286a14.3,14.3,0,0,0-.076-2.114,3.982,3.982,0,0,0-2.668-3.016,6.068,6.068,0,0,0-2.009-.192l-3.866.005-7.268.01-21.933.05-5.963.03-1.551.016c-.349.005-.528.016-.528.016s.179.011.528.016l1.551.016,5.963.03,21.933.05,7.268.01,3.866.005a5.821,5.821,0,0,1,1.929.184,3.714,3.714,0,0,1,1.615,1.061,3.675,3.675,0,0,1,.871,1.759,14.436,14.436,0,0,1,.066,2.064q0,2.11,0,4.286,0,4.352-.007,8.947c0,6.123-.006,12.55-.009,19.213q0,2.5,0,5.041v2.552a6.068,6.068,0,0,1-.078,1.245,3.714,3.714,0,0,1-.454,1.142,3.632,3.632,0,0,1-1.877,1.55,7.1,7.1,0,0,1-2.525.229H452.6l-22.457,0h-.056l-.043.035-11.653,9.605.242.114c0-3.329-.005-6.573-.007-9.6v-.139h-.141c-.509-.006-1.035.014-1.523-.013a3.688,3.688,0,0,1-3.234-2.511,4.12,4.12,0,0,1-.193-1.4q0-.73,0-1.452,0-1.443,0-2.852c0-3.756-.009-7.324-.013-10.681-.013-6.713-.024-12.583-.033-17.428-.007-2.421-.013-4.585-.019-6.471.052-1.866-.245-3.553.5-4.677a3.779,3.779,0,0,1,2.267-1.768,5.471,5.471,0,0,1,1-.161" fill="#263238"/>
        <path id="Trazado_260355" data-name="Trazado 260355" d="M430.787,59.049h.107a1.559,1.559,0,0,0,1.559-1.559V49.415a1.559,1.559,0,0,0-1.559-1.559h-.107a1.559,1.559,0,0,0-1.559,1.559V57.49a1.559,1.559,0,0,0,1.559,1.559" fill="#e0e0e0"/>
        <path id="Trazado_260356" data-name="Trazado 260356" d="M430.787,59.049a1.982,1.982,0,0,1-.916-.377,1.505,1.505,0,0,1-.539-.98c-.022-.445.008-1,.008-1.584.01-1.2.021-2.606.034-4.158,0-.784.006-1.6.009-2.454a1.414,1.414,0,0,1,1.51-1.482,1.416,1.416,0,0,1,1.06.485,1.479,1.479,0,0,1,.345,1.1c0,.85.006,1.671.009,2.455.013,1.552.024,2.957.034,4.158q.006.441.011.844a4.108,4.108,0,0,1-.019.732,1.531,1.531,0,0,1-.605.943,2.069,2.069,0,0,1-.941.315.7.7,0,0,0,.269.024,1.544,1.544,0,0,0,.741-.237,1.636,1.636,0,0,0,.71-1.008,4.063,4.063,0,0,0,.047-.769c0-.269.007-.55.011-.844.01-1.2.022-2.606.034-4.158,0-.784.006-1.6.01-2.455a1.8,1.8,0,0,0-.417-1.31,1.728,1.728,0,0,0-1.3-.6,1.722,1.722,0,0,0-1.82,1.8c0,.85.006,1.67.009,2.454.012,1.552.024,2.957.034,4.158.015.6,0,1.115.041,1.608a1.616,1.616,0,0,0,.638,1.054,1.5,1.5,0,0,0,.722.286.59.59,0,0,0,.27-.007" fill="#263238"/>
        <path id="Trazado_260357" data-name="Trazado 260357" d="M445.916,59.049h.107a1.559,1.559,0,0,0,1.559-1.559V49.415a1.559,1.559,0,0,0-1.559-1.559h-.107a1.559,1.559,0,0,0-1.559,1.559V57.49a1.559,1.559,0,0,0,1.559,1.559" fill="#e0e0e0"/>
        <path id="Trazado_260358" data-name="Trazado 260358" d="M445.916,59.049a1.982,1.982,0,0,1-.916-.377,1.5,1.5,0,0,1-.539-.98c-.023-.445.008-1,.008-1.584.01-1.2.021-2.606.034-4.158,0-.784.006-1.6.009-2.454a1.414,1.414,0,0,1,1.51-1.482,1.416,1.416,0,0,1,1.06.485,1.479,1.479,0,0,1,.345,1.1c0,.85.006,1.671.009,2.455.012,1.552.024,2.957.034,4.158,0,.294.007.575.011.844a4.108,4.108,0,0,1-.019.732,1.531,1.531,0,0,1-.605.943,2.069,2.069,0,0,1-.941.315.694.694,0,0,0,.269.024,1.544,1.544,0,0,0,.741-.237,1.639,1.639,0,0,0,.71-1.008,4.066,4.066,0,0,0,.047-.769q0-.4.011-.844c.01-1.2.021-2.606.034-4.158,0-.784.006-1.6.009-2.455a1.793,1.793,0,0,0-.417-1.31,1.725,1.725,0,0,0-1.3-.6,1.724,1.724,0,0,0-1.821,1.8c0,.85.007,1.67.01,2.454.012,1.552.024,2.957.034,4.158.015.6,0,1.115.04,1.608a1.617,1.617,0,0,0,.639,1.054,1.5,1.5,0,0,0,.722.286.6.6,0,0,0,.27-.007" fill="#263238"/>
      </g>
    </g>
    <g id="Grupo_236361" data-name="Grupo 236361">
      <g id="Grupo_236373" data-name="Grupo 236373">
        <path id="Trazado_260359" data-name="Trazado 260359" d="M333.092,185.745l3.6,4.5V182.5h11.33s1.259,17.719.99,21.5a30.646,30.646,0,0,1-1.387,5.779,6.651,6.651,0,0,1-10.983,2.75,38.269,38.269,0,0,1-3.547-3.943c-5.036-6.475-13.4-22.246-13.4-22.246l8.726-5.271Z" fill="#ffbe9d"/>
        <path id="Trazado_260360" data-name="Trazado 260360" d="M332.376,184.914a12.917,12.917,0,0,0,1.48,1.977c.955,1.184,2.28,2.817,3.794,4.583s2.943,3.32,4.053,4.374a8.177,8.177,0,0,0,1.925,1.56,18.9,18.9,0,0,0-1.656-1.824c-1.031-1.112-2.406-2.7-3.918-4.457-3-3.542-5.549-6.332-5.678-6.213" fill="#eb996e"/>
        <path id="Trazado_260361" data-name="Trazado 260361" d="M394.069,84.642l.511,41.159c.087,7-1.215,17.3-12.288,16.931-9.582-1.043-12.124-10.115-12.2-16.646-.035-3.1-.071-5.682-.1-6,0,0-10.489-.855-11.375-11.216-.428-5.007-.469-15.391-.4-24.787a19.368,19.368,0,0,1,17.964-19.159l1-.073c10.835-.158,17.022,8.956,16.88,19.792" fill="#ffbe9d"/>
        <path id="Trazado_260362" data-name="Trazado 260362" d="M370,120.085a25.119,25.119,0,0,0,13.211-4.978s-2.741,7.815-13.157,7.637Z" fill="#eb996e"/>
        <path id="Trazado_260363" data-name="Trazado 260363" d="M375.938,88.328c.205.211,1.4-.754,3.137-.8,1.734-.073,3.033.8,3.215.582.089-.1-.125-.483-.691-.881a4.349,4.349,0,0,0-2.58-.731,4.18,4.18,0,0,0-2.491.906c-.522.435-.692.829-.59.923" fill="#263238"/>
        <path id="Trazado_260364" data-name="Trazado 260364" d="M374.987,92.518a1.4,1.4,0,0,0,1.454,1.315,1.344,1.344,0,0,0,1.352-1.369,1.405,1.405,0,0,0-1.453-1.315,1.343,1.343,0,0,0-1.353,1.369" fill="#263238"/>
        <path id="Trazado_260365" data-name="Trazado 260365" d="M371.589,100.4a10.576,10.576,0,0,0-2.622-.278c-.41-.012-.8-.065-.89-.338a2.08,2.08,0,0,1,.183-1.225q.467-1.52.978-3.187c1.349-4.534,2.293-8.25,2.11-8.3s-1.425,3.58-2.774,8.113c-.323,1.118-.632,2.183-.925,3.2a2.363,2.363,0,0,0-.094,1.612,1.021,1.021,0,0,0,.712.546,2.733,2.733,0,0,0,.7.046,10.391,10.391,0,0,0,2.624-.188" fill="#263238"/>
        <path id="Trazado_260366" data-name="Trazado 260366" d="M376.676,80.942c.168.385,1.557.1,3.221.181,1.666.05,3.032.452,3.225.082.085-.177-.174-.532-.739-.875a5.255,5.255,0,0,0-2.436-.686,5.2,5.2,0,0,0-2.475.486c-.587.3-.869.629-.8.812" fill="#263238"/>
        <path id="Trazado_260367" data-name="Trazado 260367" d="M360.19,83.542c.182.314,1.537-.035,3.178-.085,1.642-.08,3,.159,3.177-.169.076-.156-.194-.437-.766-.687a5.746,5.746,0,0,0-2.428-.4,5.9,5.9,0,0,0-2.414.6c-.565.294-.827.6-.747.747" fill="#263238"/>
        <path id="Trazado_260368" data-name="Trazado 260368" d="M393.783,92.383c.17-.09,6.971-2.628,7.262,4.478s-6.9,5.933-6.924,5.73-.338-10.208-.338-10.208" fill="#ffbe9d"/>
        <path id="Trazado_260369" data-name="Trazado 260369" d="M396.182,99.809c.03-.024.127.082.34.169a1.24,1.24,0,0,0,.927-.019,3.066,3.066,0,0,0,1.3-2.806,4.082,4.082,0,0,0-.419-1.758,1.43,1.43,0,0,0-.97-.913.632.632,0,0,0-.717.37c-.087.2-.036.342-.073.356-.019.019-.157-.113-.112-.409a.787.787,0,0,1,.261-.456.933.933,0,0,1,.677-.209,1.74,1.74,0,0,1,1.339,1.049,4.2,4.2,0,0,1,.51,1.962c.013,1.435-.665,2.805-1.68,3.144a1.329,1.329,0,0,1-1.14-.142c-.227-.167-.271-.324-.247-.338" fill="#eb996e"/>
        <path id="Trazado_260370" data-name="Trazado 260370" d="M373.266,105.324c-.078-.179,1.315-.6,2.293-1.9a7.956,7.956,0,0,0,.984-1.856c.207-.516.364-.84.441-.816s.054.372-.06.933a5.259,5.259,0,0,1-.914,2.079,4.251,4.251,0,0,1-1.816,1.389c-.542.22-.909.234-.928.173" fill="#263238"/>
        <path id="Trazado_260371" data-name="Trazado 260371" d="M344.465,74.782a1.681,1.681,0,0,1,.788-.98,5.167,5.167,0,0,1,2.649-.43A14.964,14.964,0,0,0,355.694,71a34.911,34.911,0,0,1,3.626-4.395c3.141-3.238,5.725-5.442,8.4-6.518a24.064,24.064,0,0,1,12.845-1.01c3.605.946,6.842,3.871,7.343,7.564,2.022-1.709,5.058-1.695,7.52-.7l.061-.027c2.743.978,4.3,3.875,5.11,6.671s1.154,5.787,2.635,8.294c.31.524.677,1.152.407,1.7a1.157,1.157,0,0,1-1.211.528,3.4,3.4,0,0,1-1.276-.578q.459,1.1.917,2.2a6.483,6.483,0,0,1-2.983-.2,63.568,63.568,0,0,1-1.95,7.374,4.229,4.229,0,0,0-2.9.714c-.96.864-1.39,2.489-2.986,1.872-.812-.314-1.553-2.018-1.825-2.846a40.435,40.435,0,0,1-1.751-17.117,13.021,13.021,0,0,0-4.014-2.9l.123.111c-2.9-1.006-6.171-2-8.919-.636-2.13,1.055-3.383,3.266-4.977,5.031a16.268,16.268,0,0,1-11.594,5.355c-.153,2.918.092,7.041-.061,9.959l-2.455-4.674,0,.024c-.2-.342-.367-.687-.527-1.033l-.055-.105v-.013a18.242,18.242,0,0,0-.821-1.66l-.028.025a1.822,1.822,0,0,1-2.663-2.437,4.112,4.112,0,0,1,.881-.886,2.881,2.881,0,0,1-2.747.712,2.262,2.262,0,0,1-1.6-2.237,1.925,1.925,0,0,1,1.147-1.544,6.489,6.489,0,0,1-3.7-.814c-.73-.416-1.446-1.1-1.2-2.019" fill="#263238"/>
        <path id="Trazado_260372" data-name="Trazado 260372" d="M384.644,67.835a9.029,9.029,0,0,1,1.04.951,7.441,7.441,0,0,1,1.591,3.441,13.044,13.044,0,0,1,.264,2.634c.005.955-.072,1.977-.145,3.054a27.257,27.257,0,0,0-.078,3.4,12,12,0,0,0,.234,1.793,3.731,3.731,0,0,0,.731,1.739,1.565,1.565,0,0,0,1.463.492,2.328,2.328,0,0,0,1.316-.744,5.374,5.374,0,0,0,1-2.635l-.218.026a8.7,8.7,0,0,0,1.261,2.171,3.087,3.087,0,0,0,2.016,1.1,1.988,1.988,0,0,0,1.069-.187,1.721,1.721,0,0,0,.726-.715,1.78,1.78,0,0,0,.22-.919,1.283,1.283,0,0,0-.333-.806l-.11.1a6.682,6.682,0,0,0,2.227,1.671,6.181,6.181,0,0,0,.69.268,1.23,1.23,0,0,0,.247.061,1.234,1.234,0,0,0-.234-.1c-.154-.063-.383-.155-.669-.3a6.9,6.9,0,0,1-2.149-1.7l-.11.1a1.328,1.328,0,0,1,.069,1.54,1.546,1.546,0,0,1-.656.632,1.794,1.794,0,0,1-.969.158,2.889,2.889,0,0,1-1.871-1.043,8.561,8.561,0,0,1-1.215-2.125l-.149-.332-.068.359a5.2,5.2,0,0,1-.951,2.518,2.1,2.1,0,0,1-1.178.665,1.319,1.319,0,0,1-1.243-.417,3.535,3.535,0,0,1-.676-1.627,11.954,11.954,0,0,1-.232-1.756,27.744,27.744,0,0,1,.064-3.371c.067-1.076.136-2.1.123-3.07a12.918,12.918,0,0,0-.3-2.668,7.338,7.338,0,0,0-1.688-3.468,4.224,4.224,0,0,0-1.11-.888" fill="#455a64"/>
        <path id="Trazado_260373" data-name="Trazado 260373" d="M352.581,77.919s.026.027.083.071l.259.189a3.537,3.537,0,0,0,.439.281,5.4,5.4,0,0,0,.631.332,9.179,9.179,0,0,0,4.436.8,11.74,11.74,0,0,0,6.255-2.31,20.336,20.336,0,0,0,5.374-6.194c.754-1.255,1.368-2.541,2.046-3.73A13.716,13.716,0,0,1,374.42,64.2a7.075,7.075,0,0,1,2.986-1.812,5.06,5.06,0,0,1,1.575-.182,5.6,5.6,0,0,1,1.442.277,6,6,0,0,1,3.33,2.818,7.129,7.129,0,0,1,.535,1.554.34.34,0,0,0-.008-.108c-.013-.086-.029-.19-.049-.317a5.21,5.21,0,0,0-.393-1.171,5.9,5.9,0,0,0-1.161-1.573,6.066,6.066,0,0,0-2.2-1.365,5.713,5.713,0,0,0-1.487-.3,5.215,5.215,0,0,0-1.639.174,7.246,7.246,0,0,0-3.088,1.846,13.86,13.86,0,0,0-2.367,3.2c-.685,1.2-1.3,2.48-2.047,3.723a20.363,20.363,0,0,1-5.3,6.138,11.675,11.675,0,0,1-6.135,2.319,9.317,9.317,0,0,1-4.386-.713,14.911,14.911,0,0,1-1.451-.787" fill="#455a64"/>
        <path id="Trazado_260374" data-name="Trazado 260374" d="M351.638,73.365a1.617,1.617,0,0,0,.372.259,8,8,0,0,0,1.1.559,10.735,10.735,0,0,0,1.743.572,11.252,11.252,0,0,0,4.472.143,10.686,10.686,0,0,0,1.776-.459,8.036,8.036,0,0,0,1.134-.488,1.612,1.612,0,0,0,.387-.234c-.02-.041-.593.253-1.575.559a12.143,12.143,0,0,1-1.757.4,12.11,12.11,0,0,1-4.388-.141,12.236,12.236,0,0,1-1.728-.513c-.961-.368-1.513-.7-1.536-.659" fill="#455a64"/>
        <path id="Trazado_260375" data-name="Trazado 260375" d="M360.112,88.328c.206.211,1.4-.754,3.139-.8,1.733-.072,3.031.8,3.214.58.09-.1-.125-.481-.691-.879a4.349,4.349,0,0,0-2.58-.731,4.18,4.18,0,0,0-2.491.906c-.522.435-.692.829-.591.923" fill="#263238"/>
        <path id="Trazado_260376" data-name="Trazado 260376" d="M360.478,92.518a1.405,1.405,0,0,0,1.454,1.315,1.343,1.343,0,0,0,1.351-1.369,1.4,1.4,0,0,0-1.452-1.315,1.343,1.343,0,0,0-1.353,1.369" fill="#263238"/>
        <path id="Trazado_260377" data-name="Trazado 260377" d="M414.554,397.838l2.15,25.878,7.6,19.977a2.661,2.661,0,0,1-4.108,3.056c-4.342-3.361-19.993-15.714-20.168-17.324-.226-2.084-4.215-27.529-4.215-27.529Z" fill="#455a64"/>
        <path id="Trazado_260378" data-name="Trazado 260378" d="M422.594,447.185,399.6,426.477l.225,1.917c.155,1.049.172,1.618.862,2.274a223.5,223.5,0,0,0,19.266,16.52c.7.547,1.8.279,2.641,0" fill="#263238"/>
        <path id="Trazado_260379" data-name="Trazado 260379" d="M404.125,418.408a1.611,1.611,0,0,1,.66,2.044,1.546,1.546,0,0,1-2.02.672,1.7,1.7,0,0,1-.688-2.168,1.6,1.6,0,0,1,2.179-.466" fill="#fff"/>
        <path id="Trazado_260380" data-name="Trazado 260380" d="M415.495,436.529c.154.056.592-1.358,2.051-2.249a8.11,8.11,0,0,1,2.913-.884c.015-.066-.333-.232-.946-.253a4.243,4.243,0,0,0-3.84,2.423c-.244.563-.244.949-.178.963" fill="#263238"/>
        <path id="Trazado_260381" data-name="Trazado 260381" d="M417.7,439.792c.135.1.874-.829,2.169-1.353a21.543,21.543,0,0,1,2.487-.593,2.946,2.946,0,0,0-2.707.067c-1.472.606-2.091,1.824-1.949,1.879" fill="#263238"/>
        <path id="Trazado_260382" data-name="Trazado 260382" d="M411.6,432.461a26.344,26.344,0,0,1,3.207-2.314,26.613,26.613,0,0,1,3.735-1.3,7.276,7.276,0,0,0-6.942,3.614" fill="#263238"/>
        <path id="Trazado_260383" data-name="Trazado 260383" d="M410.289,424.649c.086.148,1.449-.6,3.3-.864,1.846-.29,3.367.026,3.406-.14a6.6,6.6,0,0,0-6.7,1" fill="#263238"/>
        <path id="Trazado_260384" data-name="Trazado 260384" d="M409.466,417.069a8.448,8.448,0,0,1,6.924-.494c.036-.059-.28-.353-.912-.634a5.8,5.8,0,0,0-5.2.371c-.585.368-.857.7-.812.757" fill="#263238"/>
        <path id="Trazado_260385" data-name="Trazado 260385" d="M412.676,414.64a2.229,2.229,0,0,0-.068-.98,6.828,6.828,0,0,0-1.048-2.476,3.03,3.03,0,0,0-1.443-1.3,1.071,1.071,0,0,0-1.173.364,1.737,1.737,0,0,0-.285,1.209,3.762,3.762,0,0,0,3.645,3.113,4.365,4.365,0,0,0,4.02-2.722,1.511,1.511,0,0,0-.062-1.259,1.049,1.049,0,0,0-1.15-.437,3.721,3.721,0,0,0-1.607,1.065,7.614,7.614,0,0,0-1.55,2.193,2.33,2.33,0,0,0-.3.935,12.11,12.11,0,0,1,2.129-2.835,3.469,3.469,0,0,1,1.424-.894.559.559,0,0,1,.628.234,1.037,1.037,0,0,1-.008.83A3.893,3.893,0,0,1,412.314,414a3.264,3.264,0,0,1-3.132-2.6,1.258,1.258,0,0,1,.163-.853.579.579,0,0,1,.644-.21,2.736,2.736,0,0,1,1.242,1.078,10.1,10.1,0,0,1,1.445,3.223" fill="#263238"/>
        <path id="Trazado_260386" data-name="Trazado 260386" d="M353.271,399.173l.958,21.914s-21.953,8.334-22.17,12.4l42.557-.332-.092-34.206Z" fill="#455a64"/>
        <path id="Trazado_260387" data-name="Trazado 260387" d="M367.374,419.141a1.737,1.737,0,0,1,1.217,1.974,1.671,1.671,0,0,1-1.946,1.224,1.834,1.834,0,0,1-1.278-2.1,1.735,1.735,0,0,1,2.166-1.048" fill="#e0e0e0"/>
        <path id="Trazado_260388" data-name="Trazado 260388" d="M374.616,433.157l-.144-3.448-40.749,1.607s-1.889.84-1.664,2.172Z" fill="#263238"/>
        <path id="Trazado_260389" data-name="Trazado 260389" d="M353.538,420.877c.008.208,1.048.294,2.076.954,1.045.634,1.579,1.53,1.77,1.446.191-.042-.129-1.282-1.387-2.06s-2.506-.53-2.459-.34" fill="#263238"/>
        <path id="Trazado_260390" data-name="Trazado 260390" d="M349.089,422.758c-.046.2.857.548,1.57,1.421.738.853.923,1.8,1.13,1.791.2.031.33-1.187-.577-2.256s-2.12-1.154-2.123-.956" fill="#263238"/>
        <path id="Trazado_260391" data-name="Trazado 260391" d="M346.6,428.12c.189.043.47-1-.072-2.132s-1.518-1.579-1.605-1.4c-.116.172.52.778.951,1.715.453.927.519,1.8.726,1.822" fill="#263238"/>
        <path id="Trazado_260392" data-name="Trazado 260392" d="M353.874,415.858c.089.189,1.04-.105,2.215-.035,1.177.047,2.094.434,2.2.255.12-.151-.779-.913-2.164-.977s-2.354.6-2.251.757" fill="#263238"/>
        <path id="Trazado_260393" data-name="Trazado 260393" d="M345.863,241.827c.024,1.269,4.943,176.4,4.943,176.4h26.306l5.329-149.814s6.223,78.331,6.223,80.023,5.49,70.634,5.49,70.634l24.389-1.99-1.6-157.732-2.98-23.125Z" fill="#263238"/>
        <path id="Trazado_260394" data-name="Trazado 260394" d="M385.178,262.872a4.818,4.818,0,0,1-1.068.449c-.7.256-1.714.608-2.97,1.032l-.24.081-.017-.247c-.146-2.107-.312-4.925-.466-8.012-.167-3.348-.29-6.379-.352-8.575-.032-1.1-.048-1.986-.047-2.6a3.405,3.405,0,0,1,.053-.957,3.426,3.426,0,0,1,.149.948c.062.612.134,1.5.213,2.594.156,2.191.337,5.22.5,8.567.154,3.088.271,5.907.335,8.018l-.256-.166c1.271-.381,2.306-.681,3.025-.878a4.89,4.89,0,0,1,1.137-.253" fill="#455a64"/>
        <path id="Trazado_260395" data-name="Trazado 260395" d="M383.181,244.659c-.017-.023.085-.14.349-.229a1.611,1.611,0,0,1,1.162.1,1.45,1.45,0,0,1,.88,1.439,1.764,1.764,0,0,1-1.4,1.55,1.922,1.922,0,0,1-1.939-.878,1.566,1.566,0,0,1,.021-1.663,1.752,1.752,0,0,1,.87-.728c.259-.091.414-.076.419-.048.039.074-.593.2-.962.938a1.243,1.243,0,0,0,.063,1.265,1.475,1.475,0,0,0,1.426.629,1.339,1.339,0,0,0,1.025-1.108,1.091,1.091,0,0,0-.581-1.09,2.064,2.064,0,0,0-1.333-.178" fill="#455a64"/>
        <path id="Trazado_260396" data-name="Trazado 260396" d="M395.256,246.456c-.143.014-.342-.745-.445-1.695s-.071-1.733.073-1.747.342.745.445,1.7.07,1.732-.073,1.746" fill="#455a64"/>
        <path id="Trazado_260397" data-name="Trazado 260397" d="M397.08,246.28c-.144,0-.264-.808-.27-1.806s.108-1.808.252-1.809.264.808.269,1.806-.107,1.808-.251,1.809" fill="#455a64"/>
        <path id="Trazado_260398" data-name="Trazado 260398" d="M365.371,247.488a8.388,8.388,0,0,1-.476-4.12,4.382,4.382,0,0,1,.5,2.033,4.339,4.339,0,0,1-.021,2.087" fill="#455a64"/>
        <path id="Trazado_260399" data-name="Trazado 260399" d="M367.582,247.656a4.486,4.486,0,0,1-.185-4.3,76.071,76.071,0,0,0,.185,4.3" fill="#455a64"/>
        <path id="Trazado_260400" data-name="Trazado 260400" d="M359.262,245.316a2.473,2.473,0,0,1-.088.772,15.038,15.038,0,0,1-.529,2.053,21.747,21.747,0,0,1-3.257,6.241,22.81,22.81,0,0,1-5.138,4.972,16.587,16.587,0,0,1-1.868,1.147,2.868,2.868,0,0,1-.739.332c-.042-.068.954-.629,2.4-1.729a25.824,25.824,0,0,0,4.958-4.98,24.75,24.75,0,0,0,3.325-6.082c.619-1.663.85-2.742.931-2.726" fill="#455a64"/>
        <path id="Trazado_260401" data-name="Trazado 260401" d="M416.139,257.118a2.553,2.553,0,0,1-.8.125,12.481,12.481,0,0,1-2.2-.041,14.44,14.44,0,0,1-6.738-2.492,13.42,13.42,0,0,1-4.49-5.387,10.835,10.835,0,0,1-.689-1.988,2.221,2.221,0,0,1-.109-.761c.083-.021.307,1.053,1.1,2.618a14.236,14.236,0,0,0,4.467,5.16,15.239,15.239,0,0,0,6.5,2.538c1.807.259,2.953.146,2.957.228" fill="#455a64"/>
        <path id="Trazado_260402" data-name="Trazado 260402" d="M373.284,345.806c-.033.119-4.393-.884-9.737-2.239s-9.65-2.55-9.617-2.669,4.392.884,9.738,2.239,9.649,2.55,9.616,2.669" fill="#455a64"/>
        <path id="Trazado_260403" data-name="Trazado 260403" d="M415.668,339.432c.063.107-3.732,2.216-8.474,4.708s-8.638,4.427-8.7,4.32,3.731-2.216,8.475-4.709,8.637-4.426,8.7-4.319" fill="#455a64"/>
        <path id="Trazado_260404" data-name="Trazado 260404" d="M358.941,131.3l11.949-4.686,22.011-1.246,10.346,3.934-14.177,7.872-12.224-.448Z" fill="#ffbe9d"/>
        <path id="Trazado_260405" data-name="Trazado 260405" d="M344.847,243.743c1.081.186,73.2,3.249,73.2,3.249l-2.533-64.846-.208-12.732-4.1-38.571s-10.78-3.706-16.28-5.476c0,0-5.789,6.033-16.795,5.87-10.761-.159-13.009-2.585-13.009-2.585l-15.044,5.767s-10.7,3.836-12.538,8.569c-1.792,4.608-5.075,30.921-5.075,30.921h15.594l-.295,46.483Z" fill="#a3314f"/>
        <g id="Grupo_236353" data-name="Grupo 236353" opacity="0.2">
          <g id="Grupo_236352" data-name="Grupo 236352">
            <g id="Grupo_236351" data-name="Grupo 236351" clip-path="url(#clip-path-7)">
              <path id="Trazado_260406" data-name="Trazado 260406" d="M390.192,157.2l2.236,16.348,10.818,4.831,8-6.815V156.385Z"/>
            </g>
          </g>
        </g>
        <path id="Trazado_260407" data-name="Trazado 260407" d="M410.96,161.834c0,.136-4.5.246-10.041.246s-10.042-.11-10.042-.246,4.495-.246,10.042-.246,10.041.11,10.041.246" fill="#263238"/>
        <path id="Trazado_260408" data-name="Trazado 260408" d="M339.988,149.744a2.026,2.026,0,0,1,.115.43c.074.323.17.737.288,1.253a41.257,41.257,0,0,0,1.436,4.6c.718,1.936,1.733,4.208,2.974,6.761,1.174,2.6,2.236,5.594,3.346,8.837l.012.033v.038c-.026,3.884-.055,8.136-.085,12.578-.1,9.916-.2,18.891-.268,25.443-.057,3.219-.1,5.84-.135,7.708-.026.876-.046,1.573-.061,2.1a4.127,4.127,0,0,1-.053.729,4.3,4.3,0,0,1-.041-.732c-.007-.523-.016-1.221-.027-2.1,0-1.868-.008-4.491-.014-7.711.034-6.552.08-15.525.131-25.44.041-4.441.079-8.692.114-12.575l.011.07c-1.089-3.236-2.132-6.24-3.266-8.82a72.647,72.647,0,0,1-2.892-6.824,35.4,35.4,0,0,1-1.322-4.662c-.107-.553-.184-.98-.22-1.27a2.11,2.11,0,0,1-.043-.444" fill="#263238"/>
        <path id="Trazado_260409" data-name="Trazado 260409" d="M416.448,142.157a8.2,8.2,0,0,1-.014,1.384c-.036.974-.083,2.24-.14,3.765-.129,3.261-.3,7.611-.491,12.42-.217,4.81-.414,9.16-.562,12.421-.088,1.524-.16,2.79-.216,3.763a7.7,7.7,0,0,1-.143,1.377,7.818,7.818,0,0,1-.039-1.384c.017-.975.04-2.242.067-3.768.08-3.182.224-7.576.426-12.428s.422-9.242.628-12.418c.1-1.589.2-2.874.289-3.76a7.489,7.489,0,0,1,.2-1.372" fill="#263238"/>
        <g id="Grupo_236356" data-name="Grupo 236356" opacity="0.3">
          <g id="Grupo_236355" data-name="Grupo 236355">
            <g id="Grupo_236354" data-name="Grupo 236354" clip-path="url(#clip-path-8)">
              <path id="Trazado_260410" data-name="Trazado 260410" d="M340.028,152.1a27.1,27.1,0,0,0,7.081,19.319c-1.467-6.69-5.13-12.917-7.081-19.319"/>
            </g>
          </g>
        </g>
        <g id="Grupo_236359" data-name="Grupo 236359" opacity="0.3">
          <g id="Grupo_236358" data-name="Grupo 236358">
            <g id="Grupo_236357" data-name="Grupo 236357" clip-path="url(#clip-path-9)">
              <path id="Trazado_260411" data-name="Trazado 260411" d="M371.7,216.3a13.5,13.5,0,0,0,8.655-4.816,40.923,40.923,0,0,0,5.813-8.417,33.189,33.189,0,0,0,3.409-13.233c-4.2,11.26-10.362,20.173-17.877,26.466"/>
            </g>
          </g>
        </g>
        <path id="Trazado_260412" data-name="Trazado 260412" d="M390.909,184.92a1.392,1.392,0,0,1-.06.415c-.071.322-.157.708-.259,1.171-.111.51-.268,1.127-.486,1.835s-.434,1.523-.758,2.4a55.773,55.773,0,0,1-2.489,6.056,63.878,63.878,0,0,1-3.967,6.97A62.634,62.634,0,0,1,378,210.124a52.547,52.547,0,0,1-4.649,4.613c-.686.632-1.358,1.144-1.937,1.6s-1.088.845-1.522,1.135l-.991.676a1.426,1.426,0,0,1-.363.209c-.009-.013.1-.112.309-.286l.936-.745c.415-.311.912-.706,1.466-1.192s1.213-1.005,1.881-1.648a58.206,58.206,0,0,0,4.546-4.652,67.322,67.322,0,0,0,4.826-6.332,68.935,68.935,0,0,0,3.97-6.9,62.246,62.246,0,0,0,2.564-5.978c.342-.863.586-1.665.819-2.364s.424-1.305.561-1.805c.136-.454.249-.832.344-1.146a1.443,1.443,0,0,1,.151-.393" fill="#263238"/>
        <path id="Trazado_260413" data-name="Trazado 260413" d="M388.825,164.625a3.5,3.5,0,0,1-.084.662c-.084.475-.194,1.1-.332,1.883-.139.819-.332,1.817-.625,2.96s-.559,2.463-1.007,3.881q-.316,1.069-.661,2.237c-.234.777-.535,1.566-.816,2.393-.542,1.663-1.269,3.384-2,5.207a86.608,86.608,0,0,1-13.308,21.745c-1.288,1.485-2.49,2.915-3.725,4.155-.609.627-1.175,1.254-1.76,1.816l-1.691,1.606c-1.059,1.044-2.107,1.889-3,2.662s-1.685,1.407-2.351,1.9l-1.526,1.152a3.545,3.545,0,0,1-.551.376,3.653,3.653,0,0,1,.494-.451l1.469-1.219c.647-.518,1.429-1.162,2.3-1.96s1.9-1.649,2.94-2.7l1.664-1.621c.576-.567,1.133-1.2,1.733-1.827,1.217-1.246,2.4-2.68,3.676-4.164a89.733,89.733,0,0,0,13.243-21.64c.742-1.809,1.48-3.517,2.035-5.167.288-.821.6-1.6.839-2.374l.686-2.22c.467-1.406.763-2.713,1.071-3.849s.534-2.123.7-2.935c.173-.774.312-1.393.417-1.863a3.635,3.635,0,0,1,.177-.645" fill="#263238"/>
        <path id="Trazado_260414" data-name="Trazado 260414" d="M331.842,144.453c4.445,6.756,22.444,34.125,27.766,42.219a1.25,1.25,0,0,1-1.2,1.926l-31.976-4.023a1.253,1.253,0,0,1-.854-.5l-30.542-41.713a1.251,1.251,0,0,1,1.1-1.987l32.9,2.433a3.681,3.681,0,0,1,2.807,1.648" fill="#e0e0e0"/>
        <path id="Trazado_260415" data-name="Trazado 260415" d="M331.842,144.453a2.2,2.2,0,0,0-.255-.383,3.58,3.58,0,0,0-1.034-.872,4.5,4.5,0,0,0-2.131-.517l-2.975-.245-18.966-1.488-6.285-.482-3.344-.255c-.295-.017-.544-.055-.882-.055a1.427,1.427,0,0,0-.92.382,1.467,1.467,0,0,0-.242,1.878l8.89,12.194L324.091,182.5c.465.627.878,1.216,1.381,1.867a1.521,1.521,0,0,0,.568.385,2.48,2.48,0,0,0,.62.122l1.128.142,4.474.562,8.747,1.1,16.536,2.065c.343.037.628.091,1.015.113a1.47,1.47,0,0,0,1.06-.441,1.516,1.516,0,0,0,.438-1.051,1.757,1.757,0,0,0-.385-1.025q-1.07-1.62-2.108-3.195l-4.033-6.108-7.247-10.959c-4.432-6.675-8.024-12.084-10.524-15.847-1.24-1.848-2.209-3.29-2.883-4.294l-.761-1.109a2.889,2.889,0,0,0-.275-.368,2.863,2.863,0,0,0,.229.4l.717,1.138c.654,1.017,1.6,2.478,2.8,4.349,2.466,3.785,6.009,9.226,10.383,15.94l7.191,10.995q1.943,2.963,4.011,6.123l2.1,3.2a1.265,1.265,0,0,1,.3.76,1.032,1.032,0,0,1-.3.71.981.981,0,0,1-.711.295c-.271-.015-.64-.076-.957-.112l-16.532-2.1-8.746-1.1-4.473-.564-1.128-.142a2.079,2.079,0,0,1-.5-.091.98.98,0,0,1-.369-.25q-.668-.908-1.341-1.82L304.094,154.32l-8.916-12.144a1.028,1.028,0,0,1,.167-1.319.991.991,0,0,1,.644-.27c.237,0,.559.034.832.049l3.344.24,6.288.448,18.979,1.319,2.979.2a4.452,4.452,0,0,1,2.09.453,4.218,4.218,0,0,1,1.341,1.161" fill="#263238"/>
        <path id="Trazado_260416" data-name="Trazado 260416" d="M295.033,142.359a3.688,3.688,0,0,0,.67.1l1.941.2,7.226.641,24.572,2.006-.195-.113c1.538,2.285,3.125,4.658,4.718,7.109,6.484,9.967,12.148,19.129,16.426,25.648,2.127,3.267,3.9,5.881,5.126,7.68l1.443,2.054a5.422,5.422,0,0,0,.533.7,5.46,5.46,0,0,0-.444-.756l-1.359-2.11-4.982-7.768c-4.2-6.567-9.807-15.758-16.3-25.736-1.594-2.453-3.187-4.826-4.732-7.111l-.071-.1-.125-.009L304.9,142.957l-7.238-.485-1.947-.108a3.675,3.675,0,0,0-.678-.005" fill="#263238"/>
        <path id="Trazado_260417" data-name="Trazado 260417" d="M314.858,148.324h0l-.013,0Z" fill="#fff"/>
        <path id="Trazado_260418" data-name="Trazado 260418" d="M314.066,148.8a.646.646,0,0,1,.791-.477,1.721,1.721,0,0,1,.858.482.856.856,0,0,1,.156,1.1c-.32.4-.976.249-1.361-.082a1.117,1.117,0,0,1-.444-1.019" fill="#fff"/>
        <path id="Trazado_260419" data-name="Trazado 260419" d="M329,172.462s1.262-3.008-1.941-3.4a110.922,110.922,0,0,0-11.61,0s-4.6.486-3.627,3.785c0,0-2.717,2.426-1.261,5.047s2.038,1.844,2.038,1.844-.388,3.2,2.038,3.687c0,0,2.63,3.106,5.052,2.912s12.708-5.144,13.387-6.114,1.65-1.523,1.068-2.6c0,0,1.261-2.84-1.456-3.272,0,0-.194-2.372-3.688-1.887" fill="#ffbe9d"/>
        <path id="Trazado_260420" data-name="Trazado 260420" d="M314.41,173.549a8.744,8.744,0,0,0,2.164.155c1.335.028,3.18.03,5.217,0a30.959,30.959,0,0,0,5.24-.312c1.382-.32,1.923-1.131,1.858-1.148a5.5,5.5,0,0,1-1.936.779,51.632,51.632,0,0,1-5.171.148c-2.036.031-3.88.089-5.214.158a8.763,8.763,0,0,0-2.158.221" fill="#eb996e"/>
        <path id="Trazado_260421" data-name="Trazado 260421" d="M316.7,178.4a1.616,1.616,0,0,0,.7.24,7.434,7.434,0,0,0,2,.124,14.125,14.125,0,0,0,2.918-.529c1.075-.3,2.217-.71,3.423-1.08a15.337,15.337,0,0,1,3.445-.71,5.29,5.29,0,0,0,2.934-.593,1.681,1.681,0,0,0,.7-1,1.382,1.382,0,0,0-.122-.909c-.253-.462-.6-.489-.588-.463-.027.042.248.139.4.548a1.254,1.254,0,0,1-.6,1.512,5.272,5.272,0,0,1-2.749.415,14.272,14.272,0,0,0-3.573.691l-3.4,1.117a16.285,16.285,0,0,1-2.815.626,18.36,18.36,0,0,1-2.664.011" fill="#eb996e"/>
        <path id="Trazado_260422" data-name="Trazado 260422" d="M320.142,182.5a8.616,8.616,0,0,0,2.161-.418c1.315-.332,3.117-.847,5.084-1.49s3.725-1.3,4.982-1.806a8.554,8.554,0,0,0,1.989-.94c-.055-.141-3.215.959-7.137,2.239s-7.118,2.269-7.079,2.415" fill="#eb996e"/>
        <path id="Trazado_260423" data-name="Trazado 260423" d="M319.318,186.311a4.725,4.725,0,0,0,1.793-.207,21.371,21.371,0,0,0,4.1-1.442c1.542-.7,2.888-1.418,3.863-1.935a6.4,6.4,0,0,0,1.535-.929c-.068-.159-2.585.949-5.618,2.379-3.028,1.452-5.69,1.995-5.67,2.134" fill="#eb996e"/>
        <path id="Trazado_260424" data-name="Trazado 260424" d="M421.558,157.373s-6.538,26.194-14.707,35.862c-7.911,9.363-20.31,5.059-24.6-7.055S370.3,146.4,370.3,146.4l9.4-7.183,16.231,31.457,7.315-21.444Z" fill="#ffbe9d"/>
        <path id="Trazado_260425" data-name="Trazado 260425" d="M370.741,147.121l-6.889-9.985a17.949,17.949,0,0,1-2.935-.91c-.781-.457-1.549-4.423-1.533-5.2s-1.336-2.584-.788-3.093,2.394-.548,2.294-1.292c-.021-.159-1.369-1.813-.3-3.028a5.711,5.711,0,0,1,1.943-.825l-.112-3.81s2.058-4.5,4.161-2.87c0,0,7.929,6.091,8.728,7.064s3.849,13.657,4.39,16.037" fill="#ffbe9d"/>
        <path id="Trazado_260426" data-name="Trazado 260426" d="M379.7,139.212a3.553,3.553,0,0,0-.106-.673c-.1-.481-.239-1.115-.408-1.907-.371-1.653-.926-4.044-1.677-6.99-.38-1.472-.8-3.084-1.327-4.8-.14-.429-.275-.864-.458-1.306a2.942,2.942,0,0,0-.935-1.149c-.722-.636-1.482-1.259-2.266-1.9-1.569-1.27-3.235-2.58-4.972-3.931a5.829,5.829,0,0,0-1.451-.957,1.986,1.986,0,0,0-1.788.425,8.165,8.165,0,0,0-2.113,2.854l-.024.047,0,.061c.011.369.022.767.034,1.166.026.891.052,1.775.078,2.644l.185-.243a9.175,9.175,0,0,0-1.4.47,2.05,2.05,0,0,0-.677.441,1.933,1.933,0,0,0-.384.7,2.365,2.365,0,0,0,.121,1.516,4.532,4.532,0,0,0,.311.655l.175.3.036.063c-.009-.011,0-.04-.007-.014a.11.11,0,0,1-.011.065c-.02.086-.206.2-.392.277s-.4.143-.615.208-.431.128-.651.215a1.283,1.283,0,0,0-.661.465,1.091,1.091,0,0,0-.018.811,5.081,5.081,0,0,0,.233.64c.172.4.364.785.505,1.163a1.584,1.584,0,0,1,.12.535,5.622,5.622,0,0,0,.062.65c.06.416.137.821.22,1.22a16.241,16.241,0,0,0,.647,2.3,2.9,2.9,0,0,0,.605,1.061,3.525,3.525,0,0,0,1.074.472c.7.217,1.378.387,2.04.541l-.11-.075c2.126,3.023,3.863,5.491,5.1,7.252l1.415,1.963a5.013,5.013,0,0,0,.524.665,5.088,5.088,0,0,0-.436-.726l-1.333-2.02c-1.206-1.782-2.9-4.283-4.968-7.343l-.039-.058-.071-.018c-.65-.159-1.326-.337-2-.556a3.4,3.4,0,0,1-.928-.4,2.7,2.7,0,0,1-.484-.9,16.137,16.137,0,0,1-.61-2.243c-.078-.392-.15-.79-.205-1.192a5.014,5.014,0,0,1-.054-.59,2.077,2.077,0,0,0-.143-.689c-.154-.415-.345-.8-.508-1.188a4.661,4.661,0,0,1-.209-.58.7.7,0,0,1-.02-.469,1.023,1.023,0,0,1,.423-.253c.193-.075.4-.135.618-.2s.435-.129.661-.222a1.105,1.105,0,0,0,.65-.535.57.57,0,0,0,.046-.267.377.377,0,0,0-.044-.178l-.048-.086-.171-.294a4.167,4.167,0,0,1-.279-.59,1.9,1.9,0,0,1-.1-1.212,1.417,1.417,0,0,1,.286-.522,1.66,1.66,0,0,1,.51-.316,8.862,8.862,0,0,1,1.315-.44l.191-.05-.006-.194c-.025-.869-.051-1.753-.076-2.644-.012-.4-.024-.8-.035-1.166l-.022.109a7.782,7.782,0,0,1,1.96-2.67,1.505,1.505,0,0,1,1.357-.352,5.7,5.7,0,0,1,1.3.874c1.74,1.343,3.411,2.644,4.983,3.9.786.629,1.55,1.246,2.265,1.866a2.54,2.54,0,0,1,.837.994c.175.412.315.845.457,1.265.54,1.7.978,3.3,1.378,4.768.761,2.9,1.381,5.258,1.825,6.947.2.783.37,1.41.495,1.885a3.659,3.659,0,0,0,.2.651" fill="#eb996e"/>
        <path id="Trazado_260427" data-name="Trazado 260427" d="M362.532,122.791c0,.084.8.02,2.055.141a14.7,14.7,0,0,1,2.168.5,9.947,9.947,0,0,0,2.8.024,5.292,5.292,0,0,1,4.417,1.433,5.7,5.7,0,0,1,1.066,1.7,2.616,2.616,0,0,0-.813-1.932,5.141,5.141,0,0,0-1.9-1.331,5.768,5.768,0,0,0-2.807-.353,10.743,10.743,0,0,1-2.682.022,11.962,11.962,0,0,0-2.23-.4,5.47,5.47,0,0,0-2.082.2" fill="#eb996e"/>
        <path id="Trazado_260428" data-name="Trazado 260428" d="M365.338,122.583c.117.06.437-.4.4-1.062s-.411-1.081-.52-1.007.006.5.032,1.036-.036.979.092,1.033" fill="#eb996e"/>
        <path id="Trazado_260429" data-name="Trazado 260429" d="M360.644,126.788a17.29,17.29,0,0,0,5.972-.468,5.93,5.93,0,0,1,2.2-.278,2.385,2.385,0,0,1,1.422.938,13.992,13.992,0,0,1,.784,1.515,2.664,2.664,0,0,0-.5-1.712A2.63,2.63,0,0,0,368.9,125.6a5.761,5.761,0,0,0-2.388.241c-3.2.7-5.873.8-5.869.946" fill="#eb996e"/>
        <path id="Trazado_260430" data-name="Trazado 260430" d="M359.591,130.392a3.209,3.209,0,0,0,1.468.007c.9-.1,2.112-.411,3.433-.67a7.759,7.759,0,0,1,1.848-.185,2.223,2.223,0,0,1,1.331.481,2.124,2.124,0,0,1,.649,1.165c.028.005.1-.133.082-.4a1.673,1.673,0,0,0-.495-1.013,2.43,2.43,0,0,0-1.528-.677,7.013,7.013,0,0,0-1.977.153c-1.359.267-2.535.626-3.4.81a7.023,7.023,0,0,0-1.409.333" fill="#eb996e"/>
        <path id="Trazado_260431" data-name="Trazado 260431" d="M361.953,133.25c-.083.062.589.767,1.826.764l-.244-.211c.025.217.048.425.073.638a6.949,6.949,0,0,0,.565,2.517,6.936,6.936,0,0,0-.08-2.573c-.029-.212-.058-.418-.088-.633l-.031-.224-.213.013a8.416,8.416,0,0,1-1.808-.291" fill="#eb996e"/>
        <path id="Trazado_260432" data-name="Trazado 260432" d="M411.21,130.843s13.391,3.245,13.363,21c-.028,17.689-4.044,26.53-4.044,26.53L395.844,164.94l5.508-13.829Z" fill="#a3314f"/>
        <path id="Trazado_260433" data-name="Trazado 260433" d="M420.529,178.375a2.432,2.432,0,0,1-.513-.224l-1.432-.727-5.262-2.773-17.6-9.483-.2-.108.081-.21c.423-1.106.87-2.276,1.324-3.461,1.577-4.1,3.079-8,4.449-11.558.688-1.771,1.342-3.457,1.956-5.038a30.439,30.439,0,0,1,1.954-4.31,13.362,13.362,0,0,1,4.455-5.155,5.4,5.4,0,0,1,1.735-.7,3.254,3.254,0,0,1,.482-.063c.11-.005.166,0,.167,0a6.626,6.626,0,0,0-2.277.925,13.634,13.634,0,0,0-4.239,5.16,31.216,31.216,0,0,0-1.872,4.284c-.6,1.586-1.239,3.277-1.911,5.055l-4.411,11.571c-.455,1.186-.9,2.355-1.328,3.461l-.118-.318,17.52,9.633,5.186,2.912,1.388.807a2.377,2.377,0,0,1,.467.31" fill="#263238"/>
      </g>
    </g>
    <g id="Grupo_236369" data-name="Grupo 236369">
      <g id="Grupo_236374" data-name="Grupo 236374">
        <path id="Trazado_260434" data-name="Trazado 260434" d="M93.17,380.65,69.985,401.856l26.236,28.98c2.615-2.675-5.4-22.7-5.4-22.7l14.484-14.008Z" fill="#455a64"/>
        <path id="Trazado_260435" data-name="Trazado 260435" d="M83.965,398.038a1.6,1.6,0,0,0-2.092.4,1.536,1.536,0,0,0,.383,2.077,1.685,1.685,0,0,0,2.213-.44,1.592,1.592,0,0,0-.638-2.116" fill="#fff"/>
        <path id="Trazado_260436" data-name="Trazado 260436" d="M69.986,401.856l2.421-2.24,24.166,28.83s.6,1.8-.45,2.473Z" fill="#263238"/>
        <path id="Trazado_260437" data-name="Trazado 260437" d="M91.394,408.472c-.146.123-.85-.526-1.936-.81-1.078-.313-2.016-.117-2.078-.3-.09-.155.947-.71,2.255-.343s1.917,1.364,1.759,1.451" fill="#fff"/>
        <path id="Trazado_260438" data-name="Trazado 260438" d="M92.889,412.65c-.108.157-.9-.238-1.937-.177-1.035.031-1.792.495-1.914.349-.142-.113.532-.953,1.818-1.005s2.165.708,2.033.833" fill="#fff"/>
        <path id="Trazado_260439" data-name="Trazado 260439" d="M90.814,417.67c-.18-.124.239-.9,1.486-1.276,1.1-.347,2.012.044,1.948.21-.044.186-.849.132-1.751.424-.908.27-1.542.77-1.683.642" fill="#fff"/>
        <path id="Trazado_260440" data-name="Trazado 260440" d="M94.579,405.125c-.183.057-.575-.769-1.354-1.519-.763-.767-1.6-1.146-1.54-1.33.028-.174,1.1-.041,2.006.856s1.062,1.962.888,1.993" fill="#fff"/>
        <path id="Trazado_260441" data-name="Trazado 260441" d="M97.392,401.322c-.057.055-.651-.426-1.307-1.458a8.848,8.848,0,0,1-.908-1.941,9.155,9.155,0,0,1-.312-1.234,2.388,2.388,0,0,1-.055-.747.831.831,0,0,1,.694-.746,1.046,1.046,0,0,1,.885.327,2.56,2.56,0,0,1,.417.612,6.925,6.925,0,0,1,.841,3.316,3.274,3.274,0,0,1-.406,1.921c-.1-.022.042-.751-.064-1.9a7.812,7.812,0,0,0-.442-1.955,7.324,7.324,0,0,0-.5-1.065c-.2-.381-.431-.644-.639-.6-.078.019-.1.034-.134.179a1.944,1.944,0,0,0,.043.548,10.313,10.313,0,0,0,.256,1.164,10.844,10.844,0,0,0,.732,1.89,13.484,13.484,0,0,1,.9,1.688" fill="#fff"/>
        <path id="Trazado_260442" data-name="Trazado 260442" d="M97.022,401.321c-.067-.03.186-.77,1.055-1.652A6.31,6.31,0,0,1,101.061,398a1.616,1.616,0,0,1,1.571.262.911.911,0,0,1,.144.972,2.629,2.629,0,0,1-.4.631,4.336,4.336,0,0,1-.977.886,4.5,4.5,0,0,1-2.06.738,2.526,2.526,0,0,1-1.93-.379,16.2,16.2,0,0,0,1.862-.086,4.5,4.5,0,0,0,1.779-.776,4,4,0,0,0,.815-.786c.267-.324.411-.664.275-.751a1.12,1.12,0,0,0-.935-.077,6.425,6.425,0,0,0-1.112.352,7.038,7.038,0,0,0-1.7,1.03c-.887.731-1.28,1.362-1.371,1.3" fill="#fff"/>
        <path id="Trazado_260443" data-name="Trazado 260443" d="M87.572,401.087l.294,31.419,39.092-.166c-.245-3.733-20.5-11.145-20.5-11.145l.637-20.138Z" fill="#455a64"/>
        <path id="Trazado_260444" data-name="Trazado 260444" d="M94.363,419.553a1.6,1.6,0,0,0-1.1,1.827,1.535,1.535,0,0,0,1.8,1.1,1.683,1.683,0,0,0,1.15-1.94,1.591,1.591,0,0,0-2-.939" fill="#fff"/>
        <path id="Trazado_260445" data-name="Trazado 260445" d="M87.864,432.572l-.047-3.364,37.6,1.274s1.739.762,1.539,1.987Z" fill="#263238"/>
        <path id="Trazado_260446" data-name="Trazado 260446" d="M107.091,420.993c-.006.191-.96.282-1.9.9-.953.594-1.434,1.423-1.61,1.348-.176-.037.1-1.179,1.251-1.907s2.295-.515,2.255-.34" fill="#fff"/>
        <path id="Trazado_260447" data-name="Trazado 260447" d="M111.2,422.672c.044.185-.781.513-1.426,1.323-.668.791-.828,1.665-1.018,1.657-.18.031-.317-1.086.5-2.078s1.935-1.084,1.94-.9" fill="#fff"/>
        <path id="Trazado_260448" data-name="Trazado 260448" d="M113.548,427.569c-.173.041-.443-.911.043-1.959s1.377-1.467,1.458-1.308c.108.156-.469.72-.854,1.586-.406.856-.458,1.661-.647,1.681" fill="#fff"/>
        <path id="Trazado_260449" data-name="Trazado 260449" d="M106.727,416.388c-.079.174-.956-.085-2.035-.007-1.08.056-1.918.421-2.018.258-.111-.138.706-.847,1.977-.922s2.169.521,2.076.671" fill="#fff"/>
        <path id="Trazado_260450" data-name="Trazado 260450" d="M89.538,221.862s-5.478,5.866-8.168,11.487-6.827,17.6-6.827,17.6-5.15,18.289-4,26.91,8.854,67.58,8.854,67.58-1.515,46.742,5.076,67.537l1.217,5.516,22.038-3.913,4.882-115.7,13.447-76.5Z" fill="#263238"/>
        <path id="Trazado_260451" data-name="Trazado 260451" d="M117.685,226.792c-.093.033-.062-.72-.848-1.269a1.627,1.627,0,0,0-1.51-.153,1.566,1.566,0,0,0,.05,2.925,1.63,1.63,0,0,0,1.5-.206c.766-.575.71-1.326.8-1.3.031,0,.086.16.052.465a1.8,1.8,0,0,1-.622,1.128,1.975,1.975,0,0,1-1.9.374,2.036,2.036,0,0,1-.067-3.848,1.98,1.98,0,0,1,1.909.308,1.8,1.8,0,0,1,.661,1.107c.045.3,0,.467-.036.466" fill="#455a64"/>
        <path id="Trazado_260452" data-name="Trazado 260452" d="M143.265,237.766s8.083,73.35,9.245,85.945-44.56,79.773-44.56,79.773L88.659,380.691l29.434-54.714-9.912-54.5,13.05-49.172,20.289.242Z" fill="#263238"/>
        <path id="Trazado_260453" data-name="Trazado 260453" d="M81.1,395.312a15.25,15.25,0,0,0,.157,1.6c.135,1.051.394,2.6.759,4.593.733,3.992,1.922,9.781,3.518,17.013l.033.15.153-.026,22.046-3.864.167-.029.007-.17c.612-15.126,1.345-33.205,2.131-52.592.813-20.861,1.567-40.2,2.186-56.073v.018l3.974-30.667c.462-3.664.823-6.541,1.073-8.525q.172-1.449.266-2.24c.057-.507.071-.77.071-.77s-.056.258-.133.762q-.114.787-.326,2.232c-.275,1.98-.675,4.852-1.184,8.51-1,7.372-2.424,17.906-4.148,30.645l0,.009v.01c-.644,15.868-1.428,35.209-2.275,56.069-.757,19.389-1.463,37.469-2.054,52.6l.174-.2-22.029,3.961.186.123c-1.638-7.219-2.875-13-3.661-16.975-.392-1.989-.678-3.528-.842-4.573-.09-.522-.141-.92-.177-1.188s-.069-.4-.069-.4" fill="#455a64"/>
        <path id="Trazado_260454" data-name="Trazado 260454" d="M114.476,251.691a7.693,7.693,0,0,1,1.206.06,5.539,5.539,0,0,0,3.1-.529,2.874,2.874,0,0,0,1.247-1.669,11.651,11.651,0,0,0,.379-2.525c.157-1.829.313-3.842.453-5.957.283-4.23.438-8.065.534-10.842.047-1.3.087-2.4.119-3.29a5.4,5.4,0,0,1,.1-1.207,5.4,5.4,0,0,1,.1,1.208c.028.778.048,1.9.046,3.3,0,2.783-.1,6.63-.382,10.87-.141,2.119-.312,4.136-.5,5.967a11.509,11.509,0,0,1-.448,2.617,3.233,3.233,0,0,1-1.469,1.849,4.118,4.118,0,0,1-1.872.489,8.03,8.03,0,0,1-1.435-.076,4.192,4.192,0,0,1-1.187-.261" fill="#455a64"/>
        <path id="Trazado_260455" data-name="Trazado 260455" d="M142.379,237.82a7.745,7.745,0,0,1-2.106-1.115,21.856,21.856,0,0,1-7.528-8.575,7.743,7.743,0,0,1-.833-2.233,39.247,39.247,0,0,0,4.419,6.678,39.266,39.266,0,0,0,6.048,5.245" fill="#455a64"/>
        <path id="Trazado_260456" data-name="Trazado 260456" d="M72.992,155.751l8.783,31.9,3.883,16.97c0,14.622-3.883,21.284-3.883,21.284l59.788-2.983s.981-40.459,0-48.112l-7.282-26.49-18.961-4.654-23.67.453Z" fill="#a3314f"/>
        <path id="Trazado_260457" data-name="Trazado 260457" d="M155.131,200.6a3.8,3.8,0,0,1-.224-1.575,10.824,10.824,0,0,1,2.619-7.1,3.8,3.8,0,0,1,1.193-1.052,14.346,14.346,0,0,0-3.588,9.725" fill="#263238"/>
        <path id="Trazado_260458" data-name="Trazado 260458" d="M173.329,179.606,157.8,188.883l-8.809-22.571a105.032,105.032,0,0,0-5.09-9.678c-5.158-9.053-11.708-8.578-11.708-8.578l-7.9,11.731,8.387,17.969s5.1,33.327,15,35.912c15.107,3.946,25.65-34.062,25.65-34.062" fill="#a3314f"/>
        <g id="Grupo_236364" data-name="Grupo 236364" opacity="0.3">
          <g id="Grupo_236363" data-name="Grupo 236363">
            <g id="Grupo_236362" data-name="Grupo 236362" clip-path="url(#clip-path-10)">
              <path id="Trazado_260459" data-name="Trazado 260459" d="M76.356,245.86c7.036-.279,14.347-3.271,20.4-6.867s11.542-8.054,17.251-12.176c13.676-9.874,40.821-31.516,53.5-42.636l-3.676.828L78.46,240.263Z"/>
            </g>
          </g>
        </g>
        <path id="Trazado_260460" data-name="Trazado 260460" d="M141.749,213.956a2.388,2.388,0,0,1-.048-.589c-.009-.443-.021-1-.034-1.69-.007-1.537-.018-3.642-.03-6.212.026-5.308.062-12.522.1-20.494.009-2,.075-3.953-.052-5.822a33.967,33.967,0,0,0-.735-5.345,27.849,27.849,0,0,0-3.672-8.326c-1.338-2.253-2.4-4.1-3.037-5.428-.318-.663-.543-1.188-.683-1.55a2.645,2.645,0,0,1-.183-.562,2.436,2.436,0,0,1,.28.52c.17.347.423.855.767,1.5.685,1.293,1.791,3.1,3.171,5.331a27.42,27.42,0,0,1,3.825,8.407,33.794,33.794,0,0,1,.776,5.421c.135,1.9.073,3.862.063,5.859-.1,7.971-.186,15.184-.253,20.492-.056,2.57-.1,4.674-.136,6.211-.026.687-.047,1.246-.062,1.689a2.7,2.7,0,0,1-.058.588" fill="#263238"/>
        <path id="Trazado_260461" data-name="Trazado 260461" d="M135.971,120.847a3.994,3.994,0,0,1-3.753-1.676,4.763,4.763,0,0,0,2.883-.159c.873-.445,1.367-1.73.683-2.432-.534-.547-1.414-.452-2.176-.508a4.71,4.71,0,0,1-4-3.073c-.645-1.854-.055-3.876.177-5.826a16.045,16.045,0,0,0-6.717-14.81L110.852,85.3c-4.429,5.669-5.81,13.308-4.891,20.443s3.945,13.841,7.583,20.047a23.831,23.831,0,0,0,3.684,5.07,9.439,9.439,0,0,0,5.489,2.816,5.664,5.664,0,0,0-.9-5.111,12.318,12.318,0,0,0,9.081-3.253l-2.617-2.007a9.558,9.558,0,0,0,7.694-2.462" fill="#263238"/>
        <path id="Trazado_260462" data-name="Trazado 260462" d="M88.94,100.928a11.443,11.443,0,0,1,8.3-10.778l15.31-4.375c6.644-.91,11.328,7.162,11.956,13.838.7,7.418,1.219,15.252.509,20.825-1.428,11.205-9.931,12.887-9.931,12.887,0-.016.144,5.081.232,8.338l-.145,24.877-22.593-24.4L88.9,101.065c-.01-.191.024.118.035-.137" fill="#ae7461"/>
        <path id="Trazado_260463" data-name="Trazado 260463" d="M122.573,108.135a1.431,1.431,0,0,1-1.335,1.486,1.369,1.369,0,0,1-1.513-1.245,1.43,1.43,0,0,1,1.333-1.485,1.369,1.369,0,0,1,1.515,1.244" fill="#263238"/>
        <path id="Trazado_260464" data-name="Trazado 260464" d="M122.96,104.031c-.172.192-1.28-.576-2.818-.525-1.538.029-2.643.856-2.816.672-.085-.081.086-.423.566-.8a3.928,3.928,0,0,1,2.247-.769,3.768,3.768,0,0,1,2.25.651c.485.348.656.681.571.767" fill="#263238"/>
        <path id="Trazado_260465" data-name="Trazado 260465" d="M109.1,108.153a1.431,1.431,0,0,1-1.335,1.485,1.368,1.368,0,0,1-1.513-1.244,1.432,1.432,0,0,1,1.333-1.486,1.369,1.369,0,0,1,1.515,1.245" fill="#263238"/>
        <path id="Trazado_260466" data-name="Trazado 260466" d="M108.344,104.448c-.172.192-1.281-.576-2.819-.525-1.538.029-2.643.856-2.816.672-.084-.08.084-.423.567-.8a3.932,3.932,0,0,1,2.247-.769,3.772,3.772,0,0,1,2.25.651c.483.348.655.681.571.767" fill="#263238"/>
        <path id="Trazado_260467" data-name="Trazado 260467" d="M113.5,116.4a10.3,10.3,0,0,1,2.486-.527c.391-.052.761-.142.819-.412a2.006,2.006,0,0,0-.3-1.157q-.6-1.409-1.254-2.956c-1.745-4.211-3.021-7.678-2.851-7.747s1.722,3.289,3.467,7.5q.631,1.559,1.206,2.977a2.268,2.268,0,0,1,.251,1.536.986.986,0,0,1-.628.6,2.714,2.714,0,0,1-.665.112,9.839,9.839,0,0,1-2.533.081" fill="#263238"/>
        <path id="Trazado_260468" data-name="Trazado 260468" d="M100.184,129.78s3.848,7.556,14.976,6.169l-.071-2.623a28.114,28.114,0,0,1-14.9-3.546" fill="#6f4439"/>
        <path id="Trazado_260469" data-name="Trazado 260469" d="M107.7,99.484c-.139.423-1.681.272-3.48.545-1.805.237-3.244.81-3.5.443-.113-.177.129-.578.705-1a6.122,6.122,0,0,1,5.314-.753c.671.247,1.015.565.956.766" fill="#263238"/>
        <path id="Trazado_260470" data-name="Trazado 260470" d="M122.324,99.337c-.26.358-1.331.029-2.607.051-1.276-.023-2.347.307-2.606-.051-.115-.174.045-.53.506-.875a3.777,3.777,0,0,1,4.2,0c.461.345.62.7.506.875" fill="#263238"/>
        <path id="Trazado_260471" data-name="Trazado 260471" d="M107.728,119.4a2.008,2.008,0,0,1,2.031-1.584,2.1,2.1,0,0,1,1.647,1.1,2.576,2.576,0,0,1,.149,2.006l-.028.145a2.287,2.287,0,0,1-2.558.621,2.138,2.138,0,0,1-1.241-2.29" fill="#6f4439"/>
        <path id="Trazado_260472" data-name="Trazado 260472" d="M112.644,121.072c0-.234-1.559-.115-2.766-1.358s-1.166-2.912-1.385-2.907c-.1-.014-.273.393-.237,1.094a3.878,3.878,0,0,0,1.068,2.432,3.379,3.379,0,0,0,2.312,1.04c.654.008,1.026-.195,1.008-.3" fill="#263238"/>
        <path id="Trazado_260473" data-name="Trazado 260473" d="M94.086,83.164a15.534,15.534,0,0,1,8.977-6.15c3.63-.634,5.818-.012,8.206,2.168a9.037,9.037,0,0,0,3.6,2.131c1.741.339,3.2.052,5.275,1.114,2.837,1.452,4.081,5.246,5.4,8.149,1.634,3.608,3.962,6.928,5.027,10.743s.5,8.5-2.715,10.815c.614-3.256,1.12-6.878-.668-9.667-1.364-2.127-3.793-3.305-5.542-5.129-2.11-2.2-2.386-5.143-4.6-7.242C112,85.3,103.109,93.735,94.086,83.164" fill="#263238"/>
        <path id="Trazado_260474" data-name="Trazado 260474" d="M126.151,98.412a32.583,32.583,0,0,0-4.976-9.012,17.522,17.522,0,0,0-23.3-2.986l-.88.074a14.783,14.783,0,0,0,11.494,5.538c2.622-.012,5.467-.685,7.716.663,2.162,1.3,2.981,4.018,4.76,5.8,1.211,1.215,2.836,1.962,4.012,3.212a13.138,13.138,0,0,1,2.482,4.813c.783-2.681-.248-5.523-1.312-8.1" fill="#263238"/>
        <path id="Trazado_260475" data-name="Trazado 260475" d="M102.689,88.593,95.54,82.306c-5.572-.29-9.148,4.976-11.061,9.041-1.422,3.022-1.864,6.4-2.935,9.567-1.1,3.248-2.857,6.25-3.858,9.53s-1.138,7.092.836,9.895l1.248-2.292a13.848,13.848,0,0,0,3.749,8.558q.24-1.194.479-2.389a13.45,13.45,0,0,0,5.379,5.795l3.349,8.951c4.946-15.065-7.788-16.207,9.963-50.369" fill="#263238"/>
        <path id="Trazado_260476" data-name="Trazado 260476" d="M101.665,89.9a32.414,32.414,0,0,1-1.679,5.983,11.5,11.5,0,0,1-3.679,4.924c-2.445,1.774-5.6,2.139-8.533,2.845s-6.066,2.063-7.276,4.831A69.314,69.314,0,0,1,83,96.5c1.31-4.314,3.2-8.711,6.8-11.432a12.453,12.453,0,0,1,11.737-1.751" fill="#263238"/>
        <path id="Trazado_260477" data-name="Trazado 260477" d="M94.062,109.605c-.149-.374-7.087-2.656-6.969,4.645.114,7.093,7.228,5.493,7.237,5.289s-.268-9.934-.268-9.934" fill="#ae7461"/>
        <path id="Trazado_260478" data-name="Trazado 260478" d="M92.09,116.894c-.032-.022-.122.089-.329.188a1.227,1.227,0,0,1-.923.037,3.055,3.055,0,0,1-1.467-2.715,4.073,4.073,0,0,1,.312-1.776,1.425,1.425,0,0,1,.911-.966.628.628,0,0,1,.735.325c.1.2.057.338.1.35.02.017.15-.122.087-.413a.785.785,0,0,0-.288-.44.928.928,0,0,0-.686-.167,1.738,1.738,0,0,0-1.27,1.124,4.208,4.208,0,0,0-.39,1.985c.073,1.428.83,2.752,1.861,3.029a1.323,1.323,0,0,0,1.126-.21c.216-.179.251-.339.226-.351" fill="#6f4439"/>
        <path id="Trazado_260479" data-name="Trazado 260479" d="M91.32,118.171a1.4,1.4,0,1,0,.334.1" fill="#fff"/>
        <path id="Trazado_260480" data-name="Trazado 260480" d="M91.654,118.266a1.918,1.918,0,0,1,.665.934,1.2,1.2,0,0,1-.246,1.121,1.24,1.24,0,0,1-2.2-.632,1.2,1.2,0,0,1,.387-1.08,1.915,1.915,0,0,1,1.06-.439c0-.017-.111-.07-.335-.068a1.445,1.445,0,0,0-.875.334,1.419,1.419,0,0,0-.532,1.3,1.524,1.524,0,0,0,2.724.783,1.42,1.42,0,0,0,.236-1.38,1.451,1.451,0,0,0-.564-.749c-.189-.12-.314-.136-.32-.119" fill="#263238"/>
        <path id="Trazado_260481" data-name="Trazado 260481" d="M102.124,90.371a20.753,20.753,0,0,0-2.772-4.578,20.7,20.7,0,0,0-4.163-3.366,3.954,3.954,0,0,1,1.5.6,11.506,11.506,0,0,1,5.047,5.782,3.945,3.945,0,0,1,.392,1.563" fill="#455a64"/>
        <path id="Trazado_260482" data-name="Trazado 260482" d="M280.447,112.568a5.513,5.513,0,0,1,.211.863c.107.572.324,1.406.474,2.5a59.356,59.356,0,0,1,.742,9.338,63.769,63.769,0,0,1-1.434,13.82A57.931,57.931,0,0,1,278.192,147a51.665,51.665,0,0,1-8.567,15.37,61.794,61.794,0,0,1-5.641,5.986,57.04,57.04,0,0,1-11.33,8.044A45.1,45.1,0,0,1,244,179.977c-1.052.348-1.9.493-2.467.635a5.787,5.787,0,0,1-.872.168,5.626,5.626,0,0,1,.847-.27c.554-.174,1.394-.351,2.432-.727a48.276,48.276,0,0,0,8.542-3.709A58.192,58.192,0,0,0,263.659,168a62.523,62.523,0,0,0,5.57-5.954,51.881,51.881,0,0,0,8.484-15.222,58.715,58.715,0,0,0,2.258-7.835,66.9,66.9,0,0,0,.96-23.027c-.118-1.1-.3-1.935-.376-2.513a5.59,5.59,0,0,1-.108-.882" fill="#263238"/>
        <path id="Trazado_260483" data-name="Trazado 260483" d="M285.67,101.937a63.644,63.644,0,0,0-113.156,4.424,63.9,63.9,0,0,0,2.248,58.164,63.252,63.252,0,0,0,38.37,30.045,63.972,63.972,0,0,0,17.181,2.364,63.732,63.732,0,0,0,55.357-95m-39.981-24.26a57.286,57.286,0,0,1,34.75,27.212,57.864,57.864,0,0,1,2.035,52.679,57.636,57.636,0,1,1-52.346-82.031,57.972,57.972,0,0,1,15.561,2.14" fill="#263238"/>
        <path id="Trazado_260484" data-name="Trazado 260484" d="M181.3,153.3a2.085,2.085,0,0,1-.255-.469l-.64-1.388a20.564,20.564,0,0,1-.906-2.244c-.309-.891-.717-1.89-1.006-3.045q-.242-.862-.5-1.8c-.169-.627-.28-1.295-.43-1.978-.324-1.363-.5-2.85-.715-4.408a51,51,0,0,1,1.781-20.273c.487-1.5.916-2.93,1.473-4.216.267-.647.492-1.285.769-1.873l.808-1.683c.486-1.086,1.062-2,1.522-2.823a20.5,20.5,0,0,1,1.283-2.051l.872-1.255a1.994,1.994,0,0,1,.333-.417,2.063,2.063,0,0,1-.246.476c-.21.349-.471.78-.788,1.305a23.962,23.962,0,0,0-1.2,2.086c-.433.832-.982,1.75-1.443,2.839l-.772,1.684c-.265.587-.479,1.224-.735,1.868-.535,1.282-.945,2.708-1.414,4.195a52.6,52.6,0,0,0-1.765,20.086c.2,1.545.358,3.021.661,4.376.14.679.24,1.343.4,1.968s.317,1.219.466,1.792c.265,1.153.645,2.153.927,3.048a23.959,23.959,0,0,0,.819,2.264c.22.572.4,1.042.548,1.422a2.108,2.108,0,0,1,.159.512" fill="#263238"/>
        <path id="Trazado_260485" data-name="Trazado 260485" d="M190.029,164.186c-.063.123-1.082-.3-2.068-1.218s-1.5-1.892-1.38-1.965.794.721,1.733,1.582,1.789,1.471,1.715,1.6" fill="#263238"/>
        <path id="Trazado_260486" data-name="Trazado 260486" d="M172.46,101.442a62.744,62.744,0,1,1,2.216,57.341,62.426,62.426,0,0,1-2.216-57.341m109.96,51.207a58.519,58.519,0,1,0-24.291,26.292,58.536,58.536,0,0,0,24.291-26.292" fill="#455a64"/>
        <path id="Trazado_260487" data-name="Trazado 260487" d="M229.442,191.733a64.051,64.051,0,0,1-17.208-2.366A63.356,63.356,0,0,1,173.8,159.275a64,64,0,0,1-2.253-58.254,63.741,63.741,0,1,1,57.89,90.712m-.192-125.6a61.954,61.954,0,1,0,16.668,2.292,62.093,62.093,0,0,0-16.668-2.292m.187,121.4a59.823,59.823,0,0,1-16.075-2.211,59.569,59.569,0,1,1,67.862-86.661,59.77,59.77,0,0,1,2.1,54.413,59.6,59.6,0,0,1-53.89,34.459m-.181-117.191a57.747,57.747,0,1,0,15.535,2.137,57.825,57.825,0,0,0-15.535-2.137" fill="#455a64"/>
        <path id="Trazado_260488" data-name="Trazado 260488" d="M54.118,246.046l-1.129-1.79c-2.417-3.832.326-9.906,3-11.593l118.437-74.749c.6-.376,1.517.012,2.057.866l7.933,12.57a1.631,1.631,0,0,1-.1,2.23L66.559,247.9c-2.673,1.687-10.023,1.981-12.441-1.851" fill="#455a64"/>
        <path id="Trazado_260489" data-name="Trazado 260489" d="M164.464,186.587l3.592-3.8s-.422-8.663,1.057-10.776l.771-1.277s-.769-4.213,1.5-5.187c.641-1.592,1.466-2.24,2.592-1.354,0,0-.634-3.17,2.324-3.592s3.8,12.995,3.8,12.995,1.479,6.022-1.9,6.022c0,0-1.9,2.113-4.015,2.324,0,0-.634,3.592-3.592,3.381Z" fill="#ae7461"/>
        <path id="Trazado_260490" data-name="Trazado 260490" d="M173.736,180.377c.019-.016.177.109.338.429a2.427,2.427,0,0,1,.17,1.486,3.338,3.338,0,0,1-1.11,1.925,6.882,6.882,0,0,1-2.359,1.29,16.839,16.839,0,0,1-4.707.934,5.8,5.8,0,0,1-1.984-.1,30.594,30.594,0,0,0,6.535-1.271,6.96,6.96,0,0,0,2.23-1.174,3.146,3.146,0,0,0,1.071-1.667,3,3,0,0,0-.184-1.847" fill="#6f4439"/>
        <path id="Trazado_260491" data-name="Trazado 260491" d="M176.365,175.609c-.144,0-.151-2.7-.8-5.933-.629-3.242-1.646-5.739-1.512-5.793a5.591,5.591,0,0,1,.784,1.592,24.667,24.667,0,0,1,1.648,8.364,5.6,5.6,0,0,1-.121,1.77" fill="#6f4439"/>
        <path id="Trazado_260492" data-name="Trazado 260492" d="M173.814,177.085c-.139.01-.394-2.623-1.07-5.8s-1.494-5.694-1.363-5.741a28.421,28.421,0,0,1,2.433,11.542" fill="#6f4439"/>
        <path id="Trazado_260493" data-name="Trazado 260493" d="M178.538,176.981c.107-.068.55.762.261,1.809s-1.079,1.544-1.138,1.431c-.089-.1.456-.664.685-1.553.251-.883.064-1.643.192-1.687" fill="#6f4439"/>
        <path id="Trazado_260494" data-name="Trazado 260494" d="M170.274,177.582a18.118,18.118,0,0,1-.271-3.291,18.174,18.174,0,0,1-.136-3.3,13.786,13.786,0,0,1,.407,6.591" fill="#6f4439"/>
        <path id="Trazado_260495" data-name="Trazado 260495" d="M91.281,208.83a10.858,10.858,0,0,1,3.474-3.178c2.358-1.394,7.072-1.942,7.961-3.528s2.34.038,1.557,2.073c-.5,1.3-3.908,4.308-3.908,4.308s3.1,1.409,5.485.56,10.364-1.7,10.978-.492c.695,1.364-1.359,1.4-2.3,1.726-.714.248-6.2,1.819-6.2,1.819s10.068,1.5,11.24,2.2c1.276.769-.35,1.722-.985,1.631-.4-.057-2.395,1.16-3.817,2.068a4.62,4.62,0,0,1-3.255.661l-2.332-.393,6.928,2.038s1.016,1.341-.79,1.611c-.805.121-22.783-.724-24.461-.932-2.9-.359-7.577-.49-7.577-.49l3.6-13.114Z" fill="#ae7461"/>
        <path id="Trazado_260496" data-name="Trazado 260496" d="M118.744,216.109a15.6,15.6,0,0,1-5.022.57,15.575,15.575,0,0,1-5.016-.619c.021-.137,2.254.142,5.018.149s5-.237,5.02-.1" fill="#6f4439"/>
        <path id="Trazado_260497" data-name="Trazado 260497" d="M73.912,202.143l10.066-20.751-8.893-26.945a18.077,18.077,0,0,0-6.689,5.814c-3.172,4.3-6.6,13.442-6.6,13.442S50.827,198.8,49.023,202.55s-4.717,10.683,0,14.568,36.288,4.015,36.288,4.015l3.348-13.959Z" fill="#a3314f"/>
        <path id="Trazado_260498" data-name="Trazado 260498" d="M75.1,168.54c.137-.044,2.488,6.972,5.251,15.668s4.892,15.783,4.755,15.826-2.488-6.97-5.251-15.669S74.96,168.583,75.1,168.54" fill="#263238"/>
        <path id="Trazado_260499" data-name="Trazado 260499" d="M88.659,207.174a5.36,5.36,0,0,1-1.171-.256l-3.135-.879c-2.643-.754-6.281-1.848-10.331-2.906s-7.777-1.845-10.5-1.759a13.536,13.536,0,0,0-4.3.849,4.028,4.028,0,0,1,1.064-.56,10.168,10.168,0,0,1,3.218-.657c2.8-.182,6.585.573,10.647,1.623s7.69,2.213,10.307,3.057c1.31.422,2.362.783,3.088,1.038a5.289,5.289,0,0,1,1.111.45" fill="#263238"/>
        <g id="Grupo_236367" data-name="Grupo 236367" opacity="0.3">
          <g id="Grupo_236366" data-name="Grupo 236366">
            <g id="Grupo_236365" data-name="Grupo 236365" clip-path="url(#clip-path-11)">
              <path id="Trazado_260500" data-name="Trazado 260500" d="M77.384,175.4a103.937,103.937,0,0,0,.9,17.562l2.833-5.679c-.462-2.908-2.566-8.749-3.582-11.512"/>
            </g>
          </g>
        </g>
        <rect id="Rectángulo_294928" data-name="Rectángulo 294928" width="13.071" height="47.108" transform="translate(240.657 109.261)" fill="#a3314f"/>
        <rect id="Rectángulo_294929" data-name="Rectángulo 294929" width="13.071" height="21.386" transform="translate(199.706 134.983)" fill="#a3314f"/>
        <rect id="Rectángulo_294930" data-name="Rectángulo 294930" width="13.071" height="33.014" transform="translate(219.905 123.355)" fill="#a3314f"/>
        <path id="Trazado_260501" data-name="Trazado 260501" d="M248.9,91.695a2.363,2.363,0,0,1-.314.415l-.97,1.146c-.9,1.029-2.142,2.456-3.689,4.228L231.1,111.934l-.143.161-.181-.119-8.021-5.239.341-.049-.306.361-16.962,19.9-.112.131-.137-.1-6.378-4.736-1.718-1.309a4.2,4.2,0,0,1-.579-.485,3.949,3.949,0,0,1,.64.4c.448.309,1.038.718,1.776,1.23l6.476,4.6-.249.03,16.846-20,.306-.361.149-.176.192.127,8.01,5.255-.324.043,12.957-14.327c1.591-1.732,2.873-3.126,3.8-4.131.425-.448.766-.808,1.032-1.09a2.36,2.36,0,0,1,.379-.357" fill="#263238"/>
        <path id="Trazado_260502" data-name="Trazado 260502" d="M249.31,101.64a17.476,17.476,0,0,1-.182-3.006c-.047-1.859-.077-4.433-.078-7.29l.3.257-.26.043c-2.877.475-5.487.876-7.38,1.141a18.469,18.469,0,0,1-3.082.322,18.263,18.263,0,0,1,3.022-.686c1.878-.358,4.478-.816,7.356-1.291l.259-.043.3-.05v.307c0,2.857-.031,5.431-.078,7.29a17.475,17.475,0,0,1-.182,3.006" fill="#263238"/>
      </g>
    </g>
  </g>
</svg>
