<svg xmlns="http://www.w3.org/2000/svg" xmlns:xlink="http://www.w3.org/1999/xlink" width="150" height="151" viewBox="0 0 150 151"><defs><filter id="a" x="0" y="0" width="150" height="151" filterUnits="userSpaceOnUse"><feOffset dy="6" input="SourceAlpha"/><feGaussianBlur stdDeviation="5" result="b"/><feFlood flood-opacity="0.329"/><feComposite operator="in" in2="b"/><feComposite in="SourceGraphic"/></filter></defs><g transform="translate(-201.167 -3996.063)"><g transform="matrix(1, 0, 0, 1, 201.17, 3996.06)" filter="url(#a)"><ellipse cx="60" cy="60.5" rx="60" ry="60.5" transform="translate(15 9)" fill="#ffb500"/></g><g transform="translate(241.333 4012.578)"><g transform="translate(0 24.086)"><path d="M8.633,101.625A1.028,1.028,0,0,1,7.1,101.3,28.828,28.828,0,0,1,.134,85.235,1.7,1.7,0,0,0,0,84.86V71.471c.14-.342.262-.692.423-1.023A4.484,4.484,0,0,1,2.578,68.32q7.57-3.645,15.136-7.3A5.058,5.058,0,0,1,22.329,61q7.626,3.672,15.246,7.357a4.092,4.092,0,0,1,2.5,3.8c.028,4.167.219,8.353-.107,12.5a28.013,28.013,0,0,1-11.73,21c-1.75,1.307-3.573,2.52-5.383,3.744a4.8,4.8,0,0,1-5.668-.044q-3.233-2.253-6.43-4.556c-.674-.484-.715-.789-.36-1.567a1.092,1.092,0,0,1,1.433,0q3.111,2.244,6.26,4.435a8.34,8.34,0,0,0,1.108.557,2.834,2.834,0,0,0,2.682-.451c1.731-1.194,3.488-2.353,5.178-3.6C33.289,99.553,37.113,93.4,37.926,85.7c.475-4.5.208-9.078.235-13.621a2.169,2.169,0,0,0-1.354-1.984q-7.71-3.739-15.436-7.446a2.661,2.661,0,0,0-2.076-.169,6.089,6.089,0,0,0-.708.241q-7.522,3.615-15.042,7.237a2.679,2.679,0,0,0-1.657,2.651c.018,3.22-.078,6.443.036,9.659a36.478,36.478,0,0,0,.706,6.185A25.528,25.528,0,0,0,8.464,99.968c.619.718.639.965.17,1.658" transform="translate(0 -54.315)" fill="#020304"/><path d="M28.4,118.2a8.309,8.309,0,0,1-1.108-.557q-3.145-2.2-6.26-4.435a1.092,1.092,0,0,0-1.433,0l-1.761-1.6c.469-.693.45-.94-.17-1.658a25.527,25.527,0,0,1-5.832-11.517,36.48,36.48,0,0,1-.706-6.185c-.114-3.216-.018-6.439-.036-9.659a2.679,2.679,0,0,1,1.657-2.651Q20.279,76.33,27.794,72.7a6.067,6.067,0,0,1,.708-.241c.351.138.714.253,1.052.417q6.474,3.131,12.942,6.273a3.463,3.463,0,0,1,2.078,3.378c0,3.242.053,6.485-.023,9.725a32.258,32.258,0,0,1-.495,5.178,27.367,27.367,0,0,1-11.862,18.081c-1.276.879-2.529,1.791-3.793,2.688m-3.72-35.883L22.45,83.484c-.661-.556-.965-.567-1.654-.012a13.509,13.509,0,0,0-5.237,10.1A13.713,13.713,0,1,0,25.585,81.054c-.762.212-.953.478-.9,1.262" transform="translate(-9.207 -64.296)" fill="#d2e1f1"/><path d="M246.054,194.828c-.547-.007-1.094-.008-1.64-.021-.69-.017-1.11-.372-1.124-.936-.015-.583.421-.947,1.146-.958.188,0,.376,0,.446,0l1.577-3.811c-.2-.192-.543-.5-.858-.831a.941.941,0,0,1-.033-1.4.927.927,0,0,1,1.353.05c.333.316.628.674.94,1.013l0-.232c1.131-.411,2.266-.81,3.386-1.25a.647.647,0,0,0,.3-.493c.028-1.094,0-2.189.021-3.283a.924.924,0,0,1,1.2-.991.967.967,0,0,1,.693,1.071c0,1.01.017,2.021-.007,3.03-.01.436.081.605.571.745,1.055.3,2.059.779,3.254,1.251.236-.248.612-.665,1.013-1.056a.951.951,0,1,1,1.352,1.317c-.38.393-.785.761-1.091,1.056l1.6,3.81c1,0,2.167,0,3.339,0,.793,0,1.237.342,1.237.938s-.462.954-1.237.957c-1.156,0-2.312,0-3.352,0l-1.584,3.8c.285.269.712.644,1.107,1.05a.961.961,0,0,1,.068,1.4.925.925,0,0,1-1.4-.065c-.4-.4-.777-.824-1.049-1.116l-3.818,1.605c0,.846,0,1.871,0,2.9,0,.232.012.464-.007.694a.956.956,0,0,1-.945.981.93.93,0,0,1-.936-.981c-.025-.8-.009-1.6-.01-2.4,0-.441,0-.881,0-1.206l-3.779-1.57c-.742.746-1.566,1.617-2.445,2.427a1.427,1.427,0,0,1-.987.382.917.917,0,0,1-.431-1.608c.694-.733,1.419-1.438,2.139-2.146a6,6,0,0,1,.56-.434,1.067,1.067,0,0,1,.127-1.594,1.153,1.153,0,0,1,1.429.452,5.147,5.147,0,0,0,3.9,2.011,11.111,11.111,0,0,0,1.181-.012,5.578,5.578,0,0,0-1.008-11.1l-1.492.229c1.934.785,2.822,1.9,2.679,3.444a3.048,3.048,0,0,1-2.69,2.82,2.548,2.548,0,0,1-2.275-.688,13.693,13.693,0,0,1-1.324-1.958,12.659,12.659,0,0,0-.208,1.417,1.206,1.206,0,0,1-.891,1.284m4.311-4.279a1.179,1.179,0,1,0,1.192,1.139,1.188,1.188,0,0,0-1.192-1.139" transform="translate(-202.237 -155.058)" fill="#040303"/><path d="M290.444,80.647l-.92-2.222c-.33,0-.727.017-1.122,0-.681-.035-1.067-.423-1.038-1.011.028-.562.4-.866,1.085-.879.376-.007.752,0,1.119,0,.129-.406.221-.773.364-1.118s.339-.672.587-1.151c-.492-.45-1.029-.915-1.536-1.411-.529-.517-.559-1.072-.124-1.487a.982.982,0,0,1,1.447.142c.5.506.983,1.036,1.416,1.5l2.248-.953c0-.616-.006-1.308,0-2,.008-.776.376-1.211.99-1.19.587.02.9.427.9,1.2,0,.672,0,1.345,0,1.992l2.279.948c.439-.463.931-1.005,1.449-1.522a.949.949,0,1,1,1.333,1.33c-.511.525-1.043,1.029-1.515,1.492l.941,2.236c.651,0,1.38-.008,2.108,0,.655.009,1.057.352,1.078.9a.967.967,0,0,1-1.065.993c-.714.022-1.428,0-2.131,0l-.911,2.161c.788.905.909,1.376.447,1.834s-.922.35-1.818-.451l-2.194.908c0,.772,0,1.611,0,2.45,0,.854-.321,1.3-.927,1.312-.622.009-.967-.471-.969-1.351,0-.819,0-1.637,0-2.416l-2.26-.941c-.408.435-.884.964-1.384,1.469-.515.521-1.079.562-1.491.141s-.364-.951.172-1.489c.488-.49.989-.968,1.438-1.405m.974-3.238a3.513,3.513,0,1,0,3.532-3.464,3.528,3.528,0,0,0-3.532,3.464" transform="translate(-238.873 -61.301)" fill="#040303"/><path d="M220.567,35.346l-1.429-.6c-.762.594-1.209.656-1.634.217s-.355-.879.238-1.6l-.6-1.447c-.489,0-1.008.011-1.527,0a.9.9,0,0,1-.99-.908.941.941,0,0,1,.942-.978,1.694,1.694,0,0,1,.441,0c.789.129,1.322-.046,1.561-.938.111-.411.122-.634-.194-.9a6.9,6.9,0,0,1-.715-.713.94.94,0,0,1-.038-1.357.914.914,0,0,1,1.351.008c.382.359.718.765,1.058,1.133l1.535-.637c0-.479-.012-1,0-1.522a.951.951,0,0,1,.9-1.016.979.979,0,0,1,.984,1.014c.024.5,0,1.008,0,1.529l1.5.63c.317-.337.66-.732,1.035-1.093a.923.923,0,0,1,1.395-.039.935.935,0,0,1-.045,1.355c-.182.2-.38.394-.58.58-.183.17-.379.325-.536.458l.6,1.444c1.485.232,1.786.415,1.748,1.079-.036.635-.359.806-1.746.908-.08.221-.156.457-.251.685s-.212.456-.387.829c.338.3.735.608,1.088.963a.941.941,0,0,1,.077,1.442.959.959,0,0,1-1.4-.1c-.185-.171-.365-.35-.535-.536-.156-.17-.3-.354-.436-.52-.482.186-.9.318-1.283.512a.591.591,0,0,0-.225.438c-.027.525,0,1.052-.015,1.578a.99.99,0,0,1-1,1.068.973.973,0,0,1-.894-1.088c-.01-.628,0-1.257,0-1.88m3.442-4.338A2.493,2.493,0,0,0,221.5,28.48a2.519,2.519,0,0,0-2.512,2.479,2.562,2.562,0,0,0,2.527,2.545,2.532,2.532,0,0,0,2.5-2.5" transform="translate(-178.411 -24.086)" fill="#040303"/><path d="M259.673,227.51a1.207,1.207,0,0,0,.891-1.285,12.654,12.654,0,0,1,.208-1.417,13.715,13.715,0,0,0,1.323,1.958,2.548,2.548,0,0,0,2.275.688,3.047,3.047,0,0,0,2.69-2.819c.143-1.549-.746-2.66-2.679-3.445l1.492-.229c.093.081.183.167.281.242a6.281,6.281,0,0,1,2.639,4.438c-.735.651-.738,1.124-.013,1.761a5.426,5.426,0,0,1-1.441,3.343,12.286,12.286,0,0,1-1.639,1.329,5.147,5.147,0,0,1-3.9-2.011,1.153,1.153,0,0,0-1.429-.452l-.7-2.1m7.4,1.829a.954.954,0,0,0-.968-.949.924.924,0,0,0-.909.932.941.941,0,0,0,.892.955.965.965,0,0,0,.985-.938" transform="translate(-215.856 -187.74)" fill="#a3314f"/><path d="M221.611,334.544c-1.122-.118-1.5-.374-1.509-.992s.393-.889,1.467-.988c.208-1.17.449-1.524,1.037-1.517s.835.37.979,1.483c1.2.217,1.514.437,1.5,1.039s-.352.823-1.489.982c-.178,1.153-.435,1.523-1.039,1.494s-.883-.459-.945-1.5" transform="translate(-182.962 -279.251)" fill="#050505"/><path d="M172.132,32.059c.043-1.063.292-1.46.918-1.491.668-.033.934.344,1.033,1.464,1.207.195,1.538.435,1.494,1.085-.04.608-.4.829-1.465.907-.208,1.22-.44,1.542-1.08,1.5-.613-.04-.845-.413-.911-1.464-1.2-.2-1.544-.444-1.5-1.083.041-.6.4-.828,1.511-.917" transform="translate(-141.828 -29.473)" fill="#030303"/><path d="M253.107,320.745a.973.973,0,0,1,.946.916.953.953,0,0,1-.958.962.914.914,0,0,1-.927-.973.923.923,0,0,1,.939-.905" transform="translate(-209.616 -270.687)" fill="#070707"/><path d="M113.752,117.516c1.264-.9,2.517-1.809,3.793-2.688a27.367,27.367,0,0,0,11.862-18.081,32.235,32.235,0,0,0,.495-5.178c.076-3.24.02-6.483.023-9.725a3.463,3.463,0,0,0-2.078-3.378q-6.473-3.133-12.942-6.273c-.339-.164-.7-.279-1.052-.417a2.661,2.661,0,0,1,2.076.168q7.724,3.71,15.436,7.446a2.169,2.169,0,0,1,1.354,1.984c-.027,4.543.24,9.122-.235,13.621-.813,7.7-4.638,13.854-10.872,18.465-1.69,1.25-3.447,2.409-5.178,3.6a2.834,2.834,0,0,1-2.682.451" transform="translate(-94.557 -63.614)" fill="#727997"/><path d="M53.683,132.041l2.232-1.169a1.056,1.056,0,0,0,1.406.563,10.464,10.464,0,0,1,4.718-.292c.195.119.4.229.583.36a21.259,21.259,0,0,1,2.848,2.04,12.491,12.491,0,0,1,3.908,10.685,12.087,12.087,0,0,1-3.6,7.557,29.968,29.968,0,0,1-3.74,2.717,19.749,19.749,0,0,1-3.628-.074c-4.867-.983-8.129-3.9-9.342-8.716-1.227-4.866.269-8.993,4.157-12.2a1.13,1.13,0,0,0,.458-1.468m3.955,13.626c0,.666-.01,1.272,0,1.878a10.787,10.787,0,0,0,.086,1.7,2.82,2.82,0,0,0,5.586-.457c.025-1.023,0-2.048,0-3.116.994,0,1.916,0,2.838,0a2.849,2.849,0,1,0-.017-5.683c-.92-.005-1.84,0-2.816,0,0-.369,0-.679,0-.989a18.658,18.658,0,0,0-.073-2.645,2.756,2.756,0,0,0-3.011-2.21,2.818,2.818,0,0,0-2.59,2.772c-.035,1-.007,2.009-.007,3.072-1.013,0-1.975-.01-2.937,0a2.841,2.841,0,1,0,.008,5.68c.945.01,1.891,0,2.927,0" transform="translate(-40.44 -112.853)" fill="#dee4f0"/><path d="M52.776,122.431a10.464,10.464,0,0,0-4.718.292,1.056,1.056,0,0,1-1.406-.563c-.049-.783.141-1.049.9-1.261a13.719,13.719,0,1,1-10.026,12.518,13.509,13.509,0,0,1,5.237-10.1c.689-.555.993-.544,1.654.012a1.13,1.13,0,0,1-.458,1.468c-3.888,3.21-5.384,7.337-4.157,12.2,1.214,4.815,4.475,7.733,9.342,8.716a19.749,19.749,0,0,0,3.628.074,2.772,2.772,0,0,0,.438-.022c4.733-.982,7.988-3.73,9.335-8.371a11.3,11.3,0,0,0-3.418-12.056,10.622,10.622,0,0,0-6.355-2.91" transform="translate(-31.177 -104.141)" fill="#020304"/><path d="M295.391,232.025a12.276,12.276,0,0,0,1.639-1.329,5.425,5.425,0,0,0,1.441-3.343.952.952,0,0,0,1.235-.417.787.787,0,0,0-.186-1.115,3.006,3.006,0,0,0-1.036-.23,6.281,6.281,0,0,0-2.639-4.438c-.1-.075-.187-.161-.281-.242a5.578,5.578,0,0,1,1.008,11.1,11.022,11.022,0,0,1-1.182.012" transform="translate(-245.547 -187.691)" fill="#a3314f"/><path d="M279.588,234.413a1.179,1.179,0,1,1-1.143,1.186,1.192,1.192,0,0,1,1.143-1.186" transform="translate(-231.46 -198.922)" fill="#d5edf0"/><path d="M311.4,102.481a3.513,3.513,0,1,1,3.486,3.568,3.541,3.541,0,0,1-3.486-3.568m5.057-.965a.949.949,0,0,0-.939-.978.985.985,0,0,0-.947.92.944.944,0,0,0,.889.958.915.915,0,0,0,1-.9" transform="translate(-258.853 -86.373)" fill="#a3314f"/><path d="M245.472,52.657a2.532,2.532,0,0,1-2.5,2.5,2.563,2.563,0,0,1-2.527-2.545,2.519,2.519,0,0,1,2.512-2.479,2.493,2.493,0,0,1,2.513,2.528m-1.555-.02a.989.989,0,0,0-.976-.954.943.943,0,0,0-.9.944.9.9,0,0,0,.893.934.941.941,0,0,0,.985-.924" transform="translate(-199.873 -45.734)" fill="#a3314f"/><path d="M294.308,265.931a.965.965,0,0,1-.985.938.941.941,0,0,1-.892-.955.924.924,0,0,1,.909-.932.954.954,0,0,1,.968.949" transform="translate(-243.086 -224.333)" fill="#080303"/><path d="M310.993,248.7a3.006,3.006,0,0,1,1.036.23.787.787,0,0,1,.186,1.115.952.952,0,0,1-1.235.417c-.725-.638-.722-1.11.013-1.761" transform="translate(-258.055 -210.795)" fill="#080203"/><path d="M73.141,161.7c-1.036,0-1.982.009-2.927,0a2.841,2.841,0,1,1-.008-5.68c.962-.012,1.924,0,2.937,0,0-1.063-.028-2.069.007-3.072a2.818,2.818,0,0,1,2.59-2.772,2.756,2.756,0,0,1,3.011,2.21,18.658,18.658,0,0,1,.073,2.645c.005.31,0,.62,0,.989.977,0,1.9,0,2.817,0a2.849,2.849,0,1,1,.017,5.683c-.922,0-1.844,0-2.838,0,0,1.068.02,2.092-.005,3.116a2.82,2.82,0,0,1-5.586.457,10.786,10.786,0,0,1-.086-1.7c-.013-.605,0-1.211,0-1.878m1.894-6.943c0,.5.008,1.01,0,1.515a1.524,1.524,0,0,1-1.666,1.637c-1.01.011-2.019,0-3.029.005-.728.006-1.157.381-1.142.97.015.57.424.914,1.125.919,1.01.008,2.019,0,3.029,0a1.522,1.522,0,0,1,1.682,1.677c.01,1.01-.005,2.02.005,3.029.008.737.372,1.145.979,1.131.587-.013.905-.394.911-1.118.007-.989-.006-1.977,0-2.966a1.573,1.573,0,0,1,1.752-1.754c.989-.005,1.977,0,2.966,0,.721-.005,1.17-.389,1.155-.966-.014-.543-.464-.918-1.14-.924-.989-.009-1.977,0-2.966,0a1.58,1.58,0,0,1-1.767-1.745c-.011-1.01,0-2.02-.005-3.029-.007-.674-.332-1.05-.894-1.072-.585-.023-.973.375-.994,1.052-.017.547,0,1.094,0,1.641" transform="translate(-55.943 -128.888)" fill="#030202"/><path d="M128,132.48a10.622,10.622,0,0,1,6.355,2.91,11.3,11.3,0,0,1,3.418,12.056c-1.346,4.641-4.6,7.389-9.335,8.371a2.772,2.772,0,0,1-.438.022,29.966,29.966,0,0,0,3.74-2.717,12.087,12.087,0,0,0,3.6-7.557,12.491,12.491,0,0,0-3.908-10.685,21.244,21.244,0,0,0-2.848-2.04c-.187-.131-.388-.241-.583-.36" transform="translate(-106.399 -114.189)" fill="#f3f9ff"/><path d="M332.076,109.013a.915.915,0,0,1-1,.9.944.944,0,0,1-.889-.958.985.985,0,0,1,.947-.92.949.949,0,0,1,.939.978" transform="translate(-274.474 -93.869)" fill="#090304"/><path d="M251.765,60.289a.941.941,0,0,1-.985.924.9.9,0,0,1-.893-.934.943.943,0,0,1,.9-.944.989.989,0,0,1,.976.954" transform="translate(-207.722 -53.387)" fill="#080203"/><path d="M84.384,164.127c0-.547-.013-1.094,0-1.641.021-.677.409-1.076.994-1.052.562.022.887.4.894,1.072.01,1.01-.006,2.019.005,3.029a1.58,1.58,0,0,0,1.767,1.745c.989.006,1.977-.005,2.966,0,.676.006,1.126.381,1.14.924.015.577-.435.961-1.155.966-.989.007-1.977,0-2.966,0a1.573,1.573,0,0,0-1.752,1.754c-.01.989,0,1.977,0,2.966-.006.724-.324,1.105-.911,1.118-.607.013-.971-.394-.979-1.131-.01-1.01.005-2.02-.005-3.029a1.522,1.522,0,0,0-1.682-1.677c-1.01-.009-2.019,0-3.029,0-.7-.006-1.11-.349-1.125-.919-.016-.59.414-.964,1.142-.97,1.01-.009,2.02.006,3.029-.005a1.524,1.524,0,0,0,1.666-1.637c.01-.5,0-1.01,0-1.515" transform="translate(-65.291 -138.256)" fill="#a3314f"/></g></g></g></svg>