<svg xmlns="http://www.w3.org/2000/svg" xmlns:xlink="http://www.w3.org/1999/xlink" width="108.82" height="108.82" viewBox="0 0 108.82 108.82"><defs><filter id="a" x="0" y="0" width="108.82" height="108.82" filterUnits="userSpaceOnUse"><feOffset dy="6" input="SourceAlpha"/><feGaussianBlur stdDeviation="4.5" result="b"/><feFlood flood-opacity="0.161"/><feComposite operator="in" in2="b"/><feComposite in="SourceGraphic"/></filter><clipPath id="c"><rect width="50" height="50" fill="none"/></clipPath></defs><g transform="translate(-169.68 -898.283)"><g transform="matrix(1, 0, 0, 1, 169.68, 898.28)" filter="url(#a)"><g transform="translate(13.5 7.5)" fill="#fff"><path d="M 40.91015625 71.8203125 C 23.86623573303223 71.8203125 9.999996185302734 57.95407485961914 9.999996185302734 40.91015625 C 9.999996185302734 23.86623573303223 23.86623573303223 9.999996185302734 40.91015625 9.999996185302734 C 57.95407485961914 9.999996185302734 71.8203125 23.86623573303223 71.8203125 40.91015625 C 71.8203125 57.95407485961914 57.95407485961914 71.8203125 40.91015625 71.8203125 Z" stroke="none"/><path d="M 40.91015625 20 C 29.3802490234375 20 20 29.3802490234375 20 40.91015625 C 20 52.4400634765625 29.3802490234375 61.8203125 40.91015625 61.8203125 C 52.4400634765625 61.8203125 61.8203125 52.4400634765625 61.8203125 40.91015625 C 61.8203125 29.3802490234375 52.4400634765625 20 40.91015625 20 M 40.91015625 0 C 63.50421905517578 0 81.8203125 18.31609344482422 81.8203125 40.91015625 C 81.8203125 63.50421905517578 63.50421905517578 81.8203125 40.91015625 81.8203125 C 18.31609344482422 81.8203125 0 63.50421905517578 0 40.91015625 C 0 18.31609344482422 18.31609344482422 0 40.91015625 0 Z" stroke="none" fill="#fff"/></g></g><circle cx="34" cy="34" r="34" transform="translate(190.333 913)" fill="#ced371"/><g transform="translate(199.333 922)"><g clip-path="url(#c)"><path d="M46.464,39.52l-.569.743c-1.655-.22-3.313-.421-4.963-.671-.5-.076-.7-.48-.618-1.03.125-.875.243-1.751.376-2.625a.8.8,0,0,0-.372-.913.834.834,0,0,0-1.019.135c-.676.519-1.36,1.029-2.045,1.535a.849.849,0,0,1-1.4-.184q-1.265-1.675-2.517-3.359a.846.846,0,0,1,.2-1.4c.7-.535,1.411-1.068,2.123-1.593a.782.782,0,0,0,.348-.879.8.8,0,0,0-.764-.621c-.877-.109-1.75-.247-2.625-.374-.6-.087-.905-.4-.833-.962q.288-2.247.644-4.485a.781.781,0,0,1,.986-.682c.892.121,1.785.237,2.673.382a.864.864,0,0,0,.973-.347.82.82,0,0,0-.155-1.016c-.47-.613-.939-1.226-1.384-1.857-.223-.316-.391-.67-.611-1.056.037,0-.01,0-.057,0q-.145,0-.289.011A13.092,13.092,0,0,0,23.941,38.119a15.171,15.171,0,0,0,4.446,4.486,5.04,5.04,0,0,1,2.236,4.271c.02.965,0,1.931.005,2.9a1.594,1.594,0,0,0,1.7,1.687q2.921.009,5.842,0A1.6,1.6,0,0,0,39.9,49.751c.006-.933,0-1.866,0-2.8a5.574,5.574,0,0,1,.868-2.918c.787-1.288,2.172-1.871,3.277-2.894l.5.573.515.641c-.645.477-1.27.95-1.906,1.407a3.861,3.861,0,0,0-1.706,3.283c0,.917,0,1.835,0,2.752a3.215,3.215,0,0,1-1.289,2.626.737.737,0,0,0-.245.5c-.021,1.239-.008,2.478-.012,3.717a3.209,3.209,0,0,1-3.31,3.322q-1.328.006-2.656,0a3.208,3.208,0,0,1-3.3-3.327c0-1.239.009-2.478-.012-3.717a.739.739,0,0,0-.249-.5A3.218,3.218,0,0,1,29.08,49.79c0-.654,0-1.308,0-2.084-.386.391-.692.707-1,1.018-.516.513-.8.542-1.39.139-.623-.422-1.243-.85-1.917-1.311-.175.806-.337,1.565-.505,2.323-.137.62-.371.813-.992.816q-1.352.006-2.7,0c-.6,0-.834-.188-.969-.783-.173-.763-.332-1.53-.512-2.362L17.24,48.816c-.671.461-.932.439-1.506-.133-.65-.648-1.3-1.293-1.945-1.947a.844.844,0,0,1-.111-1.281c.431-.638.87-1.27,1.346-1.963-.8-.174-1.558-.334-2.313-.5-.656-.148-.824-.36-.827-1.029,0-.9-.005-1.8,0-2.7a.82.82,0,0,1,.764-.936c.767-.173,1.537-.332,2.372-.511l-1.262-1.837c-.472-.689-.447-.94.152-1.54q.939-.939,1.878-1.877a.867.867,0,0,1,1.354-.132c.634.43,1.264.866,1.942,1.331.173-.809.327-1.557.495-2.3.145-.642.315-.785.964-.861.156-.9.244-1.814.479-2.69a14.439,14.439,0,0,1,9.86-10.512,12.535,12.535,0,0,1,5.182-.619,1.478,1.478,0,0,0,1.189-.342c.527-.446,1.1-.842,1.654-1.25a.848.848,0,0,1,1.366.191c.537.7,1.071,1.408,1.59,2.124a.809.809,0,0,0,.919.362.8.8,0,0,0,.606-.774c.106-.861.246-1.718.368-2.577a.872.872,0,0,1,1.126-.855c1.288.188,2.577.377,3.867.551,1.025.139,1.22.364,1.093,1.377-.1.781-.2,1.563-.337,2.338a.835.835,0,0,0,.367.958.81.81,0,0,0,1.015-.123c.686-.532,1.385-1.047,2.085-1.561a.83.83,0,0,1,1.359.188q1.284,1.69,2.548,3.395a.843.843,0,0,1-.208,1.36c-.678.516-1.356,1.032-2.047,1.531a.857.857,0,0,0-.425.983.813.813,0,0,0,.787.594c.8.1,1.59.237,2.387.341.909.118,1.135.415,1,1.308q-.276,1.86-.522,3.724c-.134,1.009-.394,1.217-1.384,1.077-.828-.117-1.657-.226-2.484-.343-.369-.052-.734.023-.842.384a1.179,1.179,0,0,0,.1.881c.494.751,1.065,1.451,1.6,2.174a.858.858,0,0,1-.205,1.428q-1.655,1.25-3.318,2.49c-.594.442-.97.378-1.426-.218l-1.67-2.177a.6.6,0,0,0-.793-.253,1.017,1.017,0,0,0-.559.571c-.18.957-.279,1.929-.408,2.895m-1.471-.883c.112-.793.205-1.509.315-2.223a2.326,2.326,0,0,1,4.178-1.037c.447.58.885,1.166,1.337,1.762l2.459-1.849c-.474-.636-.95-1.223-1.367-1.849a2.31,2.31,0,0,1,2.209-3.633c.731.083,1.459.193,2.229.3l.436-3.042c-.746-.109-1.459-.211-2.171-.318a2.327,2.327,0,0,1-1.047-4.216c.569-.436,1.146-.86,1.731-1.3l-1.855-2.464c-.634.472-1.22.947-1.846,1.363a2.224,2.224,0,0,1-2.585.073,2.284,2.284,0,0,1-1.045-2.372c.094-.7.19-1.393.291-2.136l-3.042-.434c-.1.7-.209,1.346-.293,2a2.339,2.339,0,0,1-4.309,1.134c-.406-.537-.809-1.076-1.233-1.642L36.918,18.6c.473.635.924,1.219,1.351,1.819a2.267,2.267,0,0,1,.093,2.625,2.3,2.3,0,0,1-2.376,1.036c-.7-.1-1.395-.191-2.132-.292l-.437,3.045c.7.1,1.353.206,2,.29a2.494,2.494,0,0,1,2.135,1.7,2.449,2.449,0,0,1-.977,2.584c-.548.417-1.1.831-1.667,1.262l1.847,2.463c.634-.471,1.217-.927,1.823-1.348a2.214,2.214,0,0,1,2.582-.113,2.238,2.238,0,0,1,1.075,2.352c-.094.714-.193,1.427-.295,2.178l3.048.436M22.847,49.124c.119-.574.234-1.122.347-1.67a1.622,1.622,0,0,1,2.613-1.073c.476.32.947.647,1.465,1,.4-.417.775-.814,1.158-1.2.529-.536.521-.527.121-1.195a9.442,9.442,0,0,0-2.505-2.2,4.741,4.741,0,0,1-5.507,2.293,4.638,4.638,0,0,1-3.247-4.129,4.554,4.554,0,0,1,.72-2.8,4.807,4.807,0,0,1,3.331-2.111c-.12-.426-.24-.805-.332-1.191-.1-.4-.166-.815-.265-1.313a1.982,1.982,0,0,0-.077.259,1.662,1.662,0,0,1-2.754,1.04c-.4-.335-.864-.6-1.35-.935-.239.263-.448.507-.672.737s-.459.44-.7.672c.351.513.669.973.982,1.437a1.622,1.622,0,0,1-1.086,2.635c-.545.113-1.09.229-1.623.34v1.851c.583.12,1.134.228,1.683.348a1.619,1.619,0,0,1,1.05,2.6c-.32.478-.651.948-.971,1.414l1.408,1.412a13.9,13.9,0,0,0,1.252-.864,1.678,1.678,0,0,1,2.805,1.128A14.413,14.413,0,0,0,21,49.124Zm-4-8.505a3.063,3.063,0,0,0,2.311,3.007,3.116,3.116,0,0,0,3.5-1.573.454.454,0,0,0-.064-.627,13.454,13.454,0,0,1-2.483-3.58.436.436,0,0,0-.528-.273,3.1,3.1,0,0,0-2.735,3.046M32.171,56.11c0,.192,0,.35,0,.508a1.618,1.618,0,0,0,1.78,1.8c.8,0,1.607.005,2.411,0a3.3,3.3,0,0,0,.811-.064c.921-.246,1.322-1.062,1.123-2.237Zm.021-1.578h6.139V53.027H32.192Z" transform="translate(-10.445 -11.98)" fill="#020303"/><path d="M118.648,75.422l-.5-.573c-1.1,1.023-2.489,1.606-3.277,2.894a5.574,5.574,0,0,0-.868,2.918c-.007.933,0,1.866,0,2.8a1.6,1.6,0,0,1-1.726,1.709q-2.921.007-5.842,0a1.594,1.594,0,0,1-1.7-1.687c-.007-.965.015-1.931-.005-2.9a5.04,5.04,0,0,0-2.236-4.271,15.171,15.171,0,0,1-4.446-4.486,13.092,13.092,0,0,1,10.629-19.844q.145-.009.289-.011c.047,0,.094.008.057,0,.221.386.389.74.611,1.056.445.631.914,1.244,1.384,1.857a.82.82,0,0,1,.155,1.016.864.864,0,0,1-.973.347c-.888-.145-1.781-.261-2.673-.382a.781.781,0,0,0-.986.682q-.356,2.237-.644,4.485c-.072.563.236.876.833.962.875.127,1.748.265,2.625.374a.8.8,0,0,1,.764.621.782.782,0,0,1-.348.879c-.712.525-1.418,1.058-2.123,1.593a.846.846,0,0,0-.2,1.4q1.252,1.684,2.517,3.359a.849.849,0,0,0,1.4.184c.686-.507,1.369-1.016,2.045-1.535a.834.834,0,0,1,1.019-.135.8.8,0,0,1,.372.913c-.133.874-.251,1.75-.376,2.625-.079.55.115.954.618,1.03,1.651.249,3.308.451,4.963.671l-1.355,1.45M103.613,55.963c-.134.078-.246.135-.349.2a10.834,10.834,0,0,0,1.963,18.9,5.427,5.427,0,0,1,2.475,1.924,5.234,5.234,0,0,1,.9,2.746h1.528a6.345,6.345,0,0,0-.777-2.976,6.457,6.457,0,0,0-3.194-2.954,9.853,9.853,0,0,1-3.989-2.946,8.823,8.823,0,0,1-2.042-6.266,9.279,9.279,0,0,1,3.98-7.117c.1-.073.193-.16.3-.252l-.8-1.262m5.018,27.624h1.485V81.328h-1.485Z" transform="translate(-84.554 -45.689)" fill="#e19c10"/><path d="M29.022,47.9l.9-1.257L35.326,50.5l-.9,1.257L29.022,47.9" transform="translate(-25.513 -41.004)" fill="#040404"/><path d="M18.368,111.09l6.179-1.543.383,1.493-6.176,1.547-.386-1.5" transform="translate(-16.147 -96.302)" fill="#050505"/><path d="M86.847,18.057l-1.5.389-1.579-6.171,1.5-.4,1.58,6.178" transform="translate(-73.643 -10.443)" fill="#050505"/><path d="M316.158,284.5l.992-1.188,4.632,3.857-.988,1.193-4.636-3.862" transform="translate(-277.932 -249.056)" fill="#060606"/><rect width="5.368" height="1.506" transform="translate(39.515 30.232)"/><path d="M288.316,301.084h1.545v5.368h-1.545v-5.368" transform="translate(-253.457 -264.681)"/><path d="M297.9,202.133c.129-.966.228-1.938.408-2.895a1.018,1.018,0,0,1,.559-.571.6.6,0,0,1,.793.253l-1.76,3.213" transform="translate(-261.886 -174.593)" fill="#de9b13"/><path d="M201.573,50.529l-3.048-.436c.1-.75.2-1.464.295-2.178a2.238,2.238,0,0,0-1.075-2.352,2.214,2.214,0,0,0-2.582.113c-.606.421-1.188.877-1.823,1.348l-1.847-2.463c.569-.431,1.119-.845,1.667-1.262a2.449,2.449,0,0,0,.977-2.584,2.494,2.494,0,0,0-2.135-1.7c-.652-.085-1.3-.188-2-.29l.437-3.045c.737.1,1.435.194,2.132.292a2.3,2.3,0,0,0,2.376-1.036,2.268,2.268,0,0,0-.093-2.625c-.427-.6-.878-1.184-1.351-1.819l2.465-1.851c.425.565.827,1.1,1.233,1.642a2.339,2.339,0,0,0,4.309-1.134c.085-.651.19-1.3.293-2l3.042.434c-.1.743-.2,1.439-.291,2.136a2.284,2.284,0,0,0,1.045,2.372,2.224,2.224,0,0,0,2.585-.073c.626-.416,1.212-.892,1.846-1.363l1.854,2.464c-.585.438-1.162.863-1.731,1.3a2.327,2.327,0,0,0,1.047,4.216c.712.106,1.425.209,2.171.318L212.932,42c-.771-.1-1.5-.213-2.229-.3a2.31,2.31,0,0,0-2.209,3.633c.417.626.894,1.213,1.368,1.849L207.4,49.032c-.452-.6-.89-1.183-1.337-1.762a2.326,2.326,0,0,0-4.177,1.037c-.11.714-.2,1.43-.315,2.223m.181-5.54a6.223,6.223,0,0,0,6.108-6.233,6.465,6.465,0,0,0-6.179-6.1,6.223,6.223,0,0,0-6.154,6.286,6.141,6.141,0,0,0,6.225,6.044" transform="translate(-167.025 -23.872)" fill="#10bbdd"/><path d="M34.347,193.9H32.5a14.383,14.383,0,0,1-.314-1.516,1.678,1.678,0,0,0-2.805-1.128,13.9,13.9,0,0,1-1.252.864L26.724,190.7c.32-.466.651-.936.971-1.414a1.619,1.619,0,0,0-1.05-2.6c-.549-.12-1.1-.228-1.683-.348V184.5c.533-.112,1.078-.227,1.623-.34a1.622,1.622,0,0,0,1.086-2.635c-.313-.464-.631-.924-.982-1.437.244-.232.48-.445.7-.672s.433-.474.672-.737c.486.333.946.6,1.35.935a1.662,1.662,0,0,0,2.754-1.04,1.982,1.982,0,0,1,.077-.259c.1.5.168.909.265,1.313.092.386.212.766.332,1.191a4.807,4.807,0,0,0-3.331,2.111,4.554,4.554,0,0,0-.72,2.8,4.638,4.638,0,0,0,3.247,4.129,4.74,4.74,0,0,0,5.507-2.293,9.439,9.439,0,0,1,2.505,2.2c.4.668.408.659-.121,1.195-.383.388-.757.785-1.158,1.2-.518-.355-.989-.682-1.465-1a1.622,1.622,0,0,0-2.613,1.073c-.113.548-.228,1.1-.347,1.67" transform="translate(-21.945 -156.752)" fill="#c6dcfb"/><path d="M179.691,364.99h6.125c.2,1.174-.2,1.99-1.123,2.237a3.286,3.286,0,0,1-.811.064c-.8.008-1.607,0-2.411,0a1.618,1.618,0,0,1-1.78-1.8c0-.158,0-.316,0-.508" transform="translate(-157.965 -320.86)" fill="#e9e9e9"/><rect width="6.139" height="1.505" transform="translate(21.747 41.047)" fill="#eaeaea"/><path d="M121.029,84.974l.8,1.262c-.109.092-.2.179-.3.252a9.279,9.279,0,0,0-3.98,7.117,8.823,8.823,0,0,0,2.042,6.266,9.852,9.852,0,0,0,3.989,2.946,6.457,6.457,0,0,1,3.194,2.954,6.345,6.345,0,0,1,.777,2.976H126.02a5.234,5.234,0,0,0-.9-2.746,5.427,5.427,0,0,0-2.475-1.924,10.834,10.834,0,0,1-1.963-18.9c.1-.069.215-.126.349-.2" transform="translate(-101.969 -74.7)" fill="#030200"/><rect width="1.485" height="2.259" transform="translate(24.078 35.639)"/><path d="M241.969,85.005a6.141,6.141,0,0,1-6.225-6.044,6.223,6.223,0,0,1,6.154-6.286,6.465,6.465,0,0,1,6.179,6.1,6.223,6.223,0,0,1-6.108,6.233m.786-10.587a3,3,0,0,0-.63-.167,4.561,4.561,0,0,0-4.575,3.084,4.566,4.566,0,0,0,8.238,3.843,4.424,4.424,0,0,0-1.127-6.008,2.819,2.819,0,0,0-1.906-.752" transform="translate(-207.241 -63.888)" fill="#020303"/><path d="M256.961,92.606a4.566,4.566,0,0,1-8.238-3.843,4.561,4.561,0,0,1,4.575-3.084,3,3,0,0,1,.63.167,1.735,1.735,0,0,0,.121.2,14.333,14.333,0,0,1,2.912,6.556" transform="translate(-218.413 -75.315)" fill="#e19c10"/></g></g></g></svg>