<svg xmlns="http://www.w3.org/2000/svg" xmlns:xlink="http://www.w3.org/1999/xlink" width="150" height="151" viewBox="0 0 150 151"><defs><filter id="a" x="0" y="0" width="150" height="151" filterUnits="userSpaceOnUse"><feOffset dy="6" input="SourceAlpha"/><feGaussianBlur stdDeviation="5" result="b"/><feFlood flood-opacity="0.329"/><feComposite operator="in" in2="b"/><feComposite in="SourceGraphic"/></filter></defs><g transform="translate(-831.167 -3996.063)"><g transform="matrix(1, 0, 0, 1, 831.17, 3996.06)" filter="url(#a)"><ellipse cx="60" cy="60.5" rx="60" ry="60.5" transform="translate(15 9)" fill="#ffb500"/></g><g transform="translate(873.317 4031.481)"><g transform="translate(0 0.755)"><path d="M0,328.817c.047-.036.12-.062.138-.109a3.458,3.458,0,0,1,3.717-2.32c1.366.039,2.735.031,4.1,0a4.128,4.128,0,0,1,2.994.849,3.81,3.81,0,0,1,2.651-.848q2.82.033,5.64,0a3.813,3.813,0,0,1,2.648.848,4.085,4.085,0,0,1,2.933-.849c1.666.03,3.333.008,5,.008a4.209,4.209,0,0,1,3.06.805,4.105,4.105,0,0,1,2.92-.813c1.858.028,3.717.024,5.576,0a3.568,3.568,0,0,1,2.58.848,4.692,4.692,0,0,1,3.263-.849q2.5.044,5,0a3.686,3.686,0,0,1,2.733.85,4.166,4.166,0,0,1,2.78-.849c1.5.024,2.991,0,4.486.008a3.3,3.3,0,0,1,3.457,3.463c.005,1.2-.054,2.4.015,3.588a2.556,2.556,0,0,1-1.682,2.806H1.539L0,334.716v-5.9m61.305,5.234h2.187c0-1.145-.047-2.21.01-3.27.121-2.235-.55-2.309-2.458-2.171-1.047-.011-2.093-.027-3.14-.031-1.318-.005-1.588.186-2.074,1.434a1.059,1.059,0,0,1-1.256.739,1.1,1.1,0,0,1-.9-1.091c-.026-.854-.251-1.079-1.115-1.081q-2.885-.007-5.771,0a1.669,1.669,0,0,0-1.923,1.385,1.081,1.081,0,0,1-1.229.792,1.045,1.045,0,0,1-.932-1.109c-.037-.822-.27-1.063-1.088-1.066q-3.174-.011-6.348,0a1.141,1.141,0,0,0-1.327,1.079c-.168.78-.486,1.1-1.1,1.1s-.94-.317-1.107-1.092-.491-1.079-1.259-1.084q-3.11-.016-6.22,0a1.142,1.142,0,0,0-1.277,1.078c-.141.774-.459,1.095-1.086,1.1s-.978-.343-1.105-1.092a1.109,1.109,0,0,0-1.2-1.08q-3.174-.029-6.348,0a1.1,1.1,0,0,0-1.185,1.025c-.143.816-.472,1.153-1.119,1.146-.629-.007-.939-.315-1.074-1.107a1.1,1.1,0,0,0-1.1-1.055q-2.756-.045-5.514,0a.984.984,0,0,0-1.038.952c-.048,1.486-.016,2.975-.016,4.522H60.6c.235,0,.47-.013.7-.02" transform="translate(0 -270.602)" fill="#010101"/><path d="M0,375.016l1.539,1.539H0v-1.539" transform="translate(0 -310.902)" fill="#f4f4f4"/><path d="M93.753,38.61q-3.9-3.8-7.8-7.6c-.9-.882-1.785-1.782-2.666-2.684a3.205,3.205,0,0,1,.007-4.78c1.26-1.279,2.533-2.545,3.8-3.814,1.256-1.253,2.516-2.5,3.829-3.806-.175-.186-.323-.352-.481-.51Q86.573,11.534,82.7,7.658C81.441,6.4,81.443,5.258,82.7,4l.952-.952c1.3-1.294,2.42-1.3,3.7-.02Q91.1,6.764,94.842,10.5c.225.225.437.464.689.734.2-.179.355-.311.5-.455q3.489-3.449,6.974-6.9c1.757-1.74,3.563-1.734,5.3.025.165.167.306.357.484.567.377-.45.684-.849,1.023-1.219a6.993,6.993,0,0,1,8.206-1.913,14.659,14.659,0,0,1,5.827,4.382,20.705,20.705,0,0,1,5.136,11.434,13.185,13.185,0,0,1-.758,5.856.857.857,0,0,0,.13.965,3.188,3.188,0,0,1-.084,4.073c-.191.229-.406.44-.617.651-6.349,6.349-12.731,12.663-19.027,19.064a6.9,6.9,0,0,1-6.5,2.079c-5.714-.9-11.444-1.708-17.168-2.552-.6-.089-1.21-.175-1.879-.271,0,.615.014,1.166,0,1.717A1.128,1.128,0,0,1,81.8,49.991q-.962.012-1.924,0a3.239,3.239,0,0,1-3.359-3.23q-.086-3.332,0-6.668a3.207,3.207,0,0,1,3.294-3.222c.662-.017,1.326-.013,1.988,0,.892.015,1.265.4,1.285,1.307.012.534.008,1.068.015,1.6,0,.037.039.073.084.152L93.6,38.864l.152-.254m10.135,9.148a3.029,3.029,0,0,0,2.623-1.049q9.838-9.841,19.682-19.676c.909-.909.909-1.265,0-2.171L106.741,5.409a3.654,3.654,0,0,0-.465-.44.876.876,0,0,0-1.344.124,2.051,2.051,0,0,0-.311.215q-3.585,3.579-7.162,7.166a5,5,0,0,0-.341.452c.568.52,1.156.99,1.663,1.536a3.256,3.256,0,0,1-1.133,5.3,3.171,3.171,0,0,1-3.6-.757c-.528-.515-1.026-1.062-1.52-1.576a2.578,2.578,0,0,0-.271.186q-3.732,3.749-7.457,7.5a1.028,1.028,0,0,0,.021,1.631c.714.736,1.448,1.454,2.173,2.179q4.124,4.128,8.249,8.255a2.182,2.182,0,0,1,.6,2.4,2.078,2.078,0,0,1-1.926,1.443q-4.4.436-8.789.894c-.669.069-1.336.157-2.035.239,0,.811-.022,1.536.018,2.258a.6.6,0,0,0,.38.423c1.22.2,2.448.361,3.672.538q5.921.857,11.842,1.716c1.624.233,3.251.44,4.877.659m22.3-26,.237-.045a25.335,25.335,0,0,0,.408-3.15,15.886,15.886,0,0,0-2.286-7.96A17.31,17.31,0,0,0,118.2,3.811,5.183,5.183,0,0,0,110.781,5.5c-.114.176-.189.538-.091.659a17.734,17.734,0,0,0,1.261,1.3c.463-.546.854-1.022,1.261-1.483a2.249,2.249,0,0,1,2.6-.732,9.62,9.62,0,0,1,2.438,1.221,16.5,16.5,0,0,1,5.226,6.92,11.213,11.213,0,0,1,1.1,6.274.791.791,0,0,0,.166.574c.462.526.963,1.019,1.45,1.524M84.014,5.842c.093.105.184.221.288.325Q89.833,11.7,95.368,17.23c.135.135.287.342.441.352a2.035,2.035,0,0,0,1.177-.111,1.352,1.352,0,0,0,.377-1.044,1.568,1.568,0,0,0-.532-.83Q93.2,11.932,89.537,8.29c-1.327-1.329-2.648-2.663-3.989-4.012L84.014,5.842M122.4,17.837a11.876,11.876,0,0,0-1.28-4.278,13.358,13.358,0,0,0-4.61-5.615c-1.483-.945-1.631-.973-2.6.772a.64.64,0,0,0,.175.881c1.441,1.426,2.853,2.882,4.291,4.311,1.314,1.3,2.649,2.588,4.022,3.928M80.857,47.809V39.065c-.33,0-.6,0-.88,0-.85.013-1.295.4-1.3,1.23q-.033,3.14,0,6.28a1.141,1.141,0,0,0,1.25,1.232c.3.008.595,0,.933,0" transform="translate(-63.373 -0.755)" fill="#020303"/><path d="M23.744,260.672a4.258,4.258,0,0,1-3.938-5.967,17.227,17.227,0,0,1,3.18-4.609.984.984,0,0,1,1.485-.08,13.755,13.755,0,0,1,3.556,5.537,4.267,4.267,0,0,1-4.283,5.119m-.576-2.322a1.862,1.862,0,0,0,2.056-.435,1.808,1.808,0,0,0,.68-1.877,11.159,11.159,0,0,0-2.165-3.532L22.9,253.8a18.616,18.616,0,0,0-1.1,1.775,1.968,1.968,0,0,0,1.363,2.776" transform="translate(-16.114 -207.066)" fill="#030302"/><path d="M71.881,344.625c-.235.007-.47.02-.7.02h-58.4c0-1.546-.032-3.035.016-4.522a.984.984,0,0,1,1.038-.952q2.756-.049,5.514,0a1.1,1.1,0,0,1,1.1,1.055c.135.792.445,1.1,1.074,1.107.648.007.976-.329,1.119-1.146a1.1,1.1,0,0,1,1.185-1.025q3.173-.029,6.348,0a1.109,1.109,0,0,1,1.2,1.08c.127.749.477,1.094,1.105,1.092s.945-.324,1.086-1.1a1.142,1.142,0,0,1,1.277-1.078q3.11-.018,6.22,0c.768,0,1.092.3,1.259,1.084s.489,1.093,1.107,1.092.935-.318,1.1-1.1a1.141,1.141,0,0,1,1.327-1.079q3.174-.01,6.348,0c.819,0,1.051.244,1.088,1.066a1.045,1.045,0,0,0,.932,1.109,1.081,1.081,0,0,0,1.229-.792,1.668,1.668,0,0,1,1.923-1.385q2.885,0,5.771,0c.864,0,1.089.227,1.115,1.081a1.1,1.1,0,0,0,.9,1.091,1.059,1.059,0,0,0,1.256-.739c.486-1.248.756-1.439,2.074-1.434,1.047,0,2.093.02,3.14.031a5.275,5.275,0,0,1,.257,1.1c.028,1.445.007,2.892,0,4.338" transform="translate(-10.576 -281.177)" fill="#9e512c"/><path d="M356.6,344.606c0-1.446.023-2.892,0-4.338a5.276,5.276,0,0,0-.258-1.1c1.908-.138,2.579-.064,2.458,2.171-.057,1.06-.01,2.125-.01,3.27Z" transform="translate(-295.295 -281.158)" fill="#763d21"/><path d="M135.906,68.744c-1.626-.219-3.253-.426-4.877-.659q-5.922-.849-11.842-1.716c-1.225-.177-2.452-.335-3.672-.538a.6.6,0,0,1-.38-.423c-.04-.722-.018-1.447-.018-2.258.7-.083,1.366-.17,2.035-.239q4.394-.453,8.789-.894a2.078,2.078,0,0,0,1.926-1.443,2.182,2.182,0,0,0-.6-2.4q-4.127-4.125-8.249-8.255c-.725-.726-1.459-1.443-2.173-2.179a1.028,1.028,0,0,1-.021-1.631q3.718-3.763,7.457-7.5a2.6,2.6,0,0,1,.271-.186c.494.514.992,1.061,1.52,1.576a3.171,3.171,0,0,0,3.6.757,3.256,3.256,0,0,0,1.132-5.3c-.507-.545-1.1-1.016-1.663-1.536a5,5,0,0,1,.341-.452q3.577-3.587,7.162-7.166a2.049,2.049,0,0,1,.311-.214,4.465,4.465,0,0,0,.459.659q9.173,9.185,18.357,18.359c1.252,1.252,1.254,2.416.014,3.656q-9.68,9.676-19.357,19.355a7.726,7.726,0,0,0-.518.636m1.34-32.778c-.436.067-1.285.161-2.116.337-1.055.224-1.3.663-1.024,1.706.5,1.9,1.011,3.792,1.512,5.689a1.019,1.019,0,0,1-1.235,1.264c-1.919-.5-3.835-1.018-5.755-1.517-.927-.241-1.474.04-1.661.9a10.815,10.815,0,0,0,2.67,10.151c.685.748,1.226.736,1.954.011q2.09-2.081,4.173-4.17a1,1,0,0,1,1.66.422c.556,1.882,1.1,3.767,1.654,5.65.316,1.075.839,1.365,1.919,1.009a10.79,10.79,0,0,0,7.212-7.316c.307-.947.025-1.457-.94-1.719-1.935-.526-3.875-1.034-5.81-1.556a1.012,1.012,0,0,1-.439-1.751q2.062-2.064,4.129-4.124c.748-.75.746-1.278-.041-2.006a11.353,11.353,0,0,0-7.859-2.979" transform="translate(-95.391 -21.742)" fill="#d7db8d"/><path d="M236.5,66.91a7.757,7.757,0,0,1,.518-.636q9.675-9.681,19.357-19.355c1.24-1.24,1.238-2.4-.014-3.656q-9.179-9.179-18.357-18.359a4.464,4.464,0,0,1-.459-.659.876.876,0,0,1,1.344-.124,3.654,3.654,0,0,1,.465.44l19.454,19.451c.906.906.906,1.263,0,2.171q-9.841,9.838-19.682,19.676A3.029,3.029,0,0,1,236.5,66.91" transform="translate(-195.989 -19.907)" fill="#ced371"/><path d="M291.494,32.25c-.487-.505-.988-1-1.45-1.524a.791.791,0,0,1-.166-.574,11.215,11.215,0,0,0-1.1-6.274,16.5,16.5,0,0,0-5.226-6.92,9.612,9.612,0,0,0-2.439-1.22,2.248,2.248,0,0,0-2.6.732c-.407.462-.8.937-1.261,1.483a17.666,17.666,0,0,1-1.261-1.3c-.1-.121-.022-.483.091-.659a5.183,5.183,0,0,1,7.421-1.688,17.309,17.309,0,0,1,6.345,6.792,15.884,15.884,0,0,1,2.287,7.96,25.343,25.343,0,0,1-.408,3.15l-.237.045" transform="translate(-228.677 -11.246)" fill="#ced371"/><path d="M120.493,22.886l1.534-1.564c1.34,1.348,2.662,2.683,3.989,4.012q3.647,3.653,7.294,7.307a1.567,1.567,0,0,1,.532.83,1.352,1.352,0,0,1-.377,1.044,2.034,2.034,0,0,1-1.177.111c-.154-.01-.306-.217-.441-.352q-5.535-5.529-11.065-11.062c-.1-.1-.2-.22-.288-.325" transform="translate(-99.852 -17.799)" fill="#ced371"/><path d="M91.423,233.124c-.339,0-.636.007-.933,0a1.141,1.141,0,0,1-1.25-1.232q-.031-3.14,0-6.28c.009-.833.453-1.217,1.3-1.23.275,0,.551,0,.88,0Z" transform="translate(-73.939 -186.069)" fill="#a3314f"/><path d="M39.622,267.3l.838-1.293a11.156,11.156,0,0,1,2.165,3.532,1.808,1.808,0,0,1-.68,1.877,1.862,1.862,0,0,1-2.056.435,6.127,6.127,0,0,1,.266-.643,2.346,2.346,0,0,0,.152-2.132c-.243-.586-.457-1.183-.684-1.776" transform="translate(-32.834 -220.569)" fill="#529114"/><path d="M33.345,273.557c.227.592.441,1.19.684,1.776a2.346,2.346,0,0,1-.152,2.132,6.127,6.127,0,0,0-.266.643,1.968,1.968,0,0,1-1.363-2.776,18.583,18.583,0,0,1,1.1-1.775" transform="translate(-26.557 -226.824)" fill="#5fa617"/><path d="M193.092,83.787a11.353,11.353,0,0,1,7.859,2.979c.787.727.79,1.255.041,2.006q-2.06,2.066-4.129,4.124a1.012,1.012,0,0,0,.439,1.751c1.936.523,3.876,1.03,5.81,1.556.965.263,1.247.773.94,1.719a10.789,10.789,0,0,1-7.212,7.316c-1.08.357-1.6.066-1.919-1.009-.553-1.883-1.1-3.768-1.654-5.65a1,1,0,0,0-1.66-.422q-2.088,2.084-4.173,4.17c-.728.725-1.269.738-1.954-.011a10.815,10.815,0,0,1-2.67-10.151c.188-.857.735-1.137,1.661-.9,1.92.5,3.835,1.015,5.755,1.517a1.019,1.019,0,0,0,1.235-1.264c-.5-1.9-1.012-3.792-1.512-5.689-.275-1.044-.031-1.483,1.024-1.706.831-.176,1.681-.27,2.116-.337m8.5,14.277c-1.68-.456-3.263-.876-4.838-1.322a.821.821,0,0,0-.869.228,1.01,1.01,0,0,0-.3,1.314c.25.745.418,1.518.624,2.278s.411,1.494.63,2.289a8.616,8.616,0,0,0,4.756-4.787m-15.075,1.966c1.282-1.246,2.542-2.456,3.784-3.684a1.026,1.026,0,0,0-.434-1.434c-1.045-.294-2.094-.574-3.143-.853-.606-.162-1.215-.312-1.9-.486a8.772,8.772,0,0,0,1.689,6.458M192.381,86.1c.462,1.745.9,3.429,1.357,5.107a1.1,1.1,0,0,0,1.392.362c1.264-1.2,2.519-2.416,3.83-3.677a8.865,8.865,0,0,0-6.579-1.792m1.078,9.748a1.092,1.092,0,1,0-.008-2.183,1.078,1.078,0,0,0-1.083,1.1,1.062,1.062,0,0,0,1.091,1.084" transform="translate(-151.237 -69.563)" fill="#010101"/><path d="M264.295,160.523a8.616,8.616,0,0,1-4.756,4.787c-.219-.8-.427-1.542-.63-2.289s-.374-1.533-.624-2.278a1.01,1.01,0,0,1,.3-1.314.822.822,0,0,1,.869-.228c1.576.446,3.159.866,4.838,1.322" transform="translate(-213.944 -132.022)" fill="#a3314f"/><path d="M197.414,147.366a8.772,8.772,0,0,1-1.689-6.458c.681.174,1.29.324,1.9.486,1.049.28,2.1.559,3.143.853a1.027,1.027,0,0,1,.434,1.434c-1.242,1.229-2.5,2.439-3.784,3.684" transform="translate(-162.138 -116.899)" fill="#a3314f"/><path d="M240.171,96.918a8.865,8.865,0,0,1,6.579,1.792c-1.311,1.26-2.566,2.474-3.83,3.677a1.1,1.1,0,0,1-1.392-.362c-.459-1.678-.9-3.361-1.357-5.107" transform="translate(-199.028 -80.382)" fill="#a3314f"/><path d="M241.188,143.626a1.062,1.062,0,0,1-1.091-1.084,1.078,1.078,0,0,1,1.083-1.1,1.092,1.092,0,1,1,.008,2.183" transform="translate(-198.967 -117.342)" fill="#a3314f"/></g></g></g></svg>