<svg xmlns="http://www.w3.org/2000/svg" xmlns:xlink="http://www.w3.org/1999/xlink" width="108.82" height="108.82" viewBox="0 0 108.82 108.82"><defs><filter id="a" x="0" y="0" width="108.82" height="108.82" filterUnits="userSpaceOnUse"><feOffset dy="6" input="SourceAlpha"/><feGaussianBlur stdDeviation="4.5" result="b"/><feFlood flood-opacity="0.161"/><feComposite operator="in" in2="b"/><feComposite in="SourceGraphic"/></filter></defs><g transform="translate(-801.68 -662.283)"><g transform="matrix(1, 0, 0, 1, 801.68, 662.28)" filter="url(#a)"><g transform="translate(13.5 7.5)" fill="#fff"><path d="M 40.91015625 71.8203125 C 23.86623573303223 71.8203125 9.999996185302734 57.95407485961914 9.999996185302734 40.91015625 C 9.999996185302734 23.86623573303223 23.86623573303223 9.999996185302734 40.91015625 9.999996185302734 C 57.95407485961914 9.999996185302734 71.8203125 23.86623573303223 71.8203125 40.91015625 C 71.8203125 57.95407485961914 57.95407485961914 71.8203125 40.91015625 71.8203125 Z" stroke="none"/><path d="M 40.91015625 20 C 29.3802490234375 20 20 29.3802490234375 20 40.91015625 C 20 52.4400634765625 29.3802490234375 61.8203125 40.91015625 61.8203125 C 52.4400634765625 61.8203125 61.8203125 52.4400634765625 61.8203125 40.91015625 C 61.8203125 29.3802490234375 52.4400634765625 20 40.91015625 20 M 40.91015625 0 C 63.50421905517578 0 81.8203125 18.31609344482422 81.8203125 40.91015625 C 81.8203125 63.50421905517578 63.50421905517578 81.8203125 40.91015625 81.8203125 C 18.31609344482422 81.8203125 0 63.50421905517578 0 40.91015625 C 0 18.31609344482422 18.31609344482422 0 40.91015625 0 Z" stroke="none" fill="#fff"/></g></g><circle cx="34" cy="34" r="34" transform="translate(822.333 677)" fill="#ced371"/><g transform="translate(834.335 688.4)"><g transform="translate(0 0.684)"><path d="M109.739,15.724a.955.955,0,0,1-.907.427c-1.015-.019-2.031,0-3.047,0a1.991,1.991,0,0,1-1.374-1,.355.355,0,0,0-.267-.147c-.77,0-1.541.011-2.311.02a1.475,1.475,0,0,0-1.27.352c-.684.563-1.389,1.1-2.1,1.637a1.211,1.211,0,0,0-.514,1.067c.016.9.02,1.8,0,2.705a2.772,2.772,0,1,1-5.544-.08c-.018-1.317,0-2.634,0-3.951,0-.7-.166-.866-.849-.867-1.1,0-2.2-.007-3.306,0a.715.715,0,0,1-.809-.6c.1-.551.269-.688.84-.689q1.676,0,3.351,0a1.886,1.886,0,0,1,2.054,2.054c0,1.332,0,2.664,0,4a1.493,1.493,0,1,0,2.983.057c.011-.9.008-1.8,0-2.706a2.339,2.339,0,0,1,.961-1.963,15.453,15.453,0,0,0,1.346-1.063,4.264,4.264,0,0,1,3.665-1.267,13.054,13.054,0,0,0,1.557.01v-9.9a7.423,7.423,0,0,0-.843,0,3.132,3.132,0,0,1-2.484-.76,5.246,5.246,0,0,0-3.443-1.1c-3.636.008-7.272,0-10.908,0-.114,0-.23-.005-.343,0a1.1,1.1,0,0,0-1.014,1.037,1.079,1.079,0,0,0,.954,1.128c.169.023.342.017.514.026.451.024.7.255.7.641s-.25.618-.707.636c-.372.015-.746-.011-1.116.017a1.082,1.082,0,0,0-1.034,1.1,1.1,1.1,0,0,0,1.07,1.074c.328.017.658,0,.988.006.5.006.787.251.776.655-.011.387-.291.621-.766.627-.572.006-1.146-.011-1.717.01a1.082,1.082,0,0,0-.336,2.093,2.348,2.348,0,0,0,.675.085c.486.014.974-.01,1.459.018a.632.632,0,0,1-.018,1.262c-.128.01-.257.006-.386.006h-9.19a3.725,3.725,0,0,0-.514.025,1.045,1.045,0,0,0-.964,1.147,1.08,1.08,0,0,0,1.224,1.031q4.2,0,8.408,0c.541,0,.7.133.81.67a.694.694,0,0,1-.734.614q-4.531-.016-9.063-.022a2.564,2.564,0,0,1-1.931-1.9,2.329,2.329,0,0,1,1.1-2.455,6.043,6.043,0,0,1,1.452-.408l1.9-.01h4.005a2.511,2.511,0,0,1,.912-3.145l-.311-.6-.142-.574A2.527,2.527,0,0,1,84.346,4.5l-.291-.463a2.41,2.41,0,0,1,.664-2.771A2.242,2.242,0,0,1,86.251.688c3.821,0,7.641-.011,11.462.007a6.653,6.653,0,0,1,4.155,1.5,1.421,1.421,0,0,0,1.1.355,2.805,2.805,0,0,1,.557,0,1.025,1.025,0,0,0,1.166-.518,1.458,1.458,0,0,1,1.343-.627c.987-.01,1.976-.03,2.961.015.254.012.5.249.746.383v.516l-.6.369c-.987,0-1.974-.011-2.962-.007-.487,0-.655.166-.656.635q0,5.454,0,10.908c0,.459.165.634.61.636,1,0,2,0,3-.007l.608.443Z" transform="translate(-65.742 -0.684)" fill="#040303"/><path d="M25.876,203.812a2.58,2.58,0,0,1-.694,1.922,2.305,2.305,0,0,1-1.689.722c-3.836,0-7.672.014-11.508-.008a6.584,6.584,0,0,1-4.079-1.47,1.518,1.518,0,0,0-1.175-.38,2.5,2.5,0,0,1-.515,0,1.023,1.023,0,0,0-1.166.516,1.461,1.461,0,0,1-1.343.629c-.988.011-1.976.03-2.962-.015-.254-.012-.5-.25-.746-.383v-.516l.6-.37c.973,0,1.945.01,2.918.008.552,0,.7-.156.7-.723,0-1.116,0-2.233,0-3.349,0-.53.152-.7.674-.821a.694.694,0,0,1,.612.79c-.012.97,0,1.94,0,2.954a8.551,8.551,0,0,0,.971-.006,2.961,2.961,0,0,1,2.36.743,4.809,4.809,0,0,0,3.094,1.1c3.835.022,7.67.014,11.506.009a1.07,1.07,0,0,0,1.107-1.3c-.2-.666-.505-.874-1.314-.893-.56-.013-.83-.225-.826-.647s.28-.626.84-.634c.329,0,.66.013.987-.014a1.083,1.083,0,0,0,1.03-1.107,1.1,1.1,0,0,0-1.074-1.069c-.328-.016-.658,0-.988-.006-.477-.006-.758-.233-.771-.617-.014-.406.274-.659.769-.665.572-.006,1.146.012,1.717-.011a1.083,1.083,0,0,0,.33-2.095,2.38,2.38,0,0,0-.675-.083c-.486-.014-.974.011-1.459-.019a.632.632,0,0,1,.024-1.261c.128-.009.257,0,.386,0q4.595,0,9.189,0a3.569,3.569,0,0,0,.556-.032,1.07,1.07,0,0,0,.936-1.1,1.094,1.094,0,0,0-1.032-1.064c-.142-.012-.286-.006-.429-.006H18.1a1.879,1.879,0,0,1-2.042-2.021c-.005-1.346.005-2.691,0-4.037a1.5,1.5,0,1,0-2.984,0q-.008,1.331,0,2.663a2.327,2.327,0,0,1-.932,1.935c-.775.611-1.557,1.215-2.334,1.822a2.372,2.372,0,0,1-1.509.523c-.558,0-1.115.012-1.673.019H5.507c0,1.333-.006,2.627,0,3.921a.684.684,0,0,1-.611.781c-.517-.1-.674-.285-.675-.814,0-1.471,0-2.943,0-4.414,0-.453-.168-.625-.616-.627-1,0-2,0-3,.007L0,191.852v-.43A.944.944,0,0,1,.9,191c.909.018,1.818,0,2.727-.005a1.9,1.9,0,0,1,1.69.973.4.4,0,0,0,.29.174c.653.007,1.307-.009,1.96-.018a4.306,4.306,0,0,0,1.353-.2,8.913,8.913,0,0,0,1.414-1.089c.308-.23.613-.465.926-.689a1.186,1.186,0,0,0,.528-1.061c-.016-.9-.019-1.805,0-2.707a2.679,2.679,0,0,1,1.3-2.335,2.612,2.612,0,0,1,2.773-.1,2.691,2.691,0,0,1,1.473,2.491c.019,1.3,0,2.607,0,3.91,0,.777.144.919.927.919H32.87a2.414,2.414,0,0,1,2.631,2.312,2.449,2.449,0,0,1-1.9,2.418H26.962a2.451,2.451,0,0,1-.836,3.163l.42,1.131a2.5,2.5,0,0,1-1.1,2.333l.426,1.2" transform="translate(0 -162.63)" fill="#030303"/><path d="M33.326,56.048c-.653.009-1.307.025-1.96.018a.4.4,0,0,1-.29-.174,1.9,1.9,0,0,0-1.69-.973l-.292-1.258c.525-.228.611-.417.488-1.015a18.074,18.074,0,0,1,.553-9.739,18.327,18.327,0,0,1,11.553-11.69c.439-.16.745-.361.678-.881l1.708-.429.291.463a2.527,2.527,0,0,0-1.162,2.29l-1.288,1.03-.785.413a1.685,1.685,0,0,0-1.792.952,5.755,5.755,0,0,0-.764.45c-.591.478-1.158.986-1.735,1.481a6.043,6.043,0,0,0-1.451.408,2.329,2.329,0,0,0-1.1,2.455l-.963,1.741c-.175.175-.422.318-.515.529a16.178,16.178,0,0,0-.488,12.113c.073.214.32.369.486.551l.519,1.264" transform="translate(-25.761 -26.56)" fill="#85d4e2"/><path d="M33.05,30.152c.067.52-.239.721-.678.881a18.327,18.327,0,0,0-11.553,11.69,18.076,18.076,0,0,0-.553,9.739c.123.6.037.787-.488,1.015a.717.717,0,0,1-.754-.665,19.876,19.876,0,0,1,13-23.015c.554-.188.743-.123,1.027.355" transform="translate(-16.444 -26.375)" fill="#030404"/><path d="M230.271,144.723a2.449,2.449,0,0,0,1.9-2.418l1.1-1.936c.18-.185.438-.338.528-.559a16.12,16.12,0,0,0,.058-12.3c-.087-.223-.386-.364-.587-.543l-.514-1.253c.77-.009,1.541-.023,2.311-.02a.355.355,0,0,1,.267.147,1.991,1.991,0,0,0,1.374,1l.434,1.273c-.368.135-.593.39-.491.786a19.287,19.287,0,0,1,.481,6.807.654.654,0,0,0,.611.778l-.268,1.459c-.578-.031-.744.082-.906.618a18.476,18.476,0,0,1-12.235,12.737c-.567.2-.667.366-.56.963l-1.233.293-.426-1.2a2.5,2.5,0,0,0,1.1-2.333l1.733-.616a2.3,2.3,0,0,0,.806-.065,15.7,15.7,0,0,0,1.863-1.05c.2-.135.294-.445.436-.674l2.214-1.888" transform="translate(-196.673 -111.368)" fill="#b1e2eb"/><path d="M236.311,246.866c-.107-.6-.007-.766.56-.964a18.475,18.475,0,0,0,12.235-12.737c.162-.537.328-.65.906-.618a.742.742,0,0,1,.34.952,19.792,19.792,0,0,1-13.143,13.644.715.715,0,0,1-.9-.276" transform="translate(-209.202 -205.977)" fill="#030404"/><path d="M349.894,155.14a.654.654,0,0,1-.611-.778,19.286,19.286,0,0,0-.481-6.807c-.1-.4.123-.652.491-.787.464-.021.684.214.794.658a20.414,20.414,0,0,1,.482,6.969.715.715,0,0,1-.675.745" transform="translate(-308.816 -130.029)" fill="#030404"/><path d="M85.638,23.512a1.045,1.045,0,0,1,.964-1.147,3.759,3.759,0,0,1,.513-.025h9.19c.129,0,.258,0,.386-.006a.632.632,0,0,0,.018-1.262c-.485-.028-.973,0-1.459-.018a2.351,2.351,0,0,1-.675-.085,1.082,1.082,0,0,1,.336-2.093c.572-.021,1.145,0,1.717-.01.476-.005.756-.239.766-.627.011-.4-.277-.65-.776-.655-.329,0-.659.011-.988-.006A1.1,1.1,0,0,1,94.563,16.5,1.082,1.082,0,0,1,95.6,15.4c.37-.028.744,0,1.116-.017.456-.018.706-.251.707-.636s-.251-.616-.7-.641c-.171-.009-.345,0-.514-.026a1.079,1.079,0,0,1-.954-1.128,1.1,1.1,0,0,1,1.014-1.037c.114-.01.229,0,.343,0,3.636,0,7.272.005,10.908,0a5.247,5.247,0,0,1,3.443,1.1,3.132,3.132,0,0,0,2.484.76,7.422,7.422,0,0,1,.843,0v9.9a13.081,13.081,0,0,1-1.557-.01,4.263,4.263,0,0,0-3.665,1.267,15.429,15.429,0,0,1-1.346,1.063,2.34,2.34,0,0,0-.961,1.963c.007.9.01,1.8,0,2.706a1.47,1.47,0,0,1-1.71,1.518,6.216,6.216,0,0,1-.257-2.614c-.011-1.445,0-2.89,0-4.335a1.368,1.368,0,0,0-1.534-1.535c-5.193,0-10.386.006-15.579-.008-.678,0-1.356-.108-2.033-.165" transform="translate(-75.826 -10.622)" fill="#fddecf"/><path d="M350.754,18.093q-.007,3.363-.013,6.725c0,1.814.007,3.627.01,5.441-1,0-2,.011-3,.006-.445,0-.609-.177-.61-.636q0-5.454,0-10.908c0-.47.169-.634.656-.636.987,0,1.974,0,2.962.007" transform="translate(-307.362 -16.092)" fill="#e69098"/><path d="M97.524,114.911l-1.443-.018c-.114-.537-.27-.67-.81-.671q-4.2,0-8.408,0a1.08,1.08,0,0,1-1.224-1.031c.678.058,1.355.163,2.033.165,5.193.014,10.386.007,15.579.008a1.368,1.368,0,0,1,1.534,1.535c0,1.445-.007,2.89,0,4.335a6.219,6.219,0,0,0,.257,2.614,1.474,1.474,0,0,1-1.273-1.575c-.007-1.332,0-2.664,0-4a1.886,1.886,0,0,0-2.054-2.054q-1.676,0-3.351,0c-.571,0-.736.138-.84.689" transform="translate(-75.827 -100.3)" fill="#fccfc0"/><path d="M142.42,54.513l-1.429.456,1.288-1.03.142.574" transform="translate(-124.837 -47.837)" fill="#b1e2eb"/><path d="M57.754,203.5c.558-.007,1.115-.021,1.673-.019a2.372,2.372,0,0,0,1.509-.523c.778-.607,1.559-1.211,2.334-1.822A2.327,2.327,0,0,0,64.2,199.2q-.008-1.331,0-2.663a1.5,1.5,0,1,1,2.984,0c.009,1.346,0,2.691,0,4.037a1.879,1.879,0,0,0,2.042,2.021H83.874c.143,0,.287-.006.429.006a1.094,1.094,0,0,1,1.032,1.064,1.071,1.071,0,0,1-.936,1.1,3.569,3.569,0,0,1-.556.032q-4.595,0-9.189,0c-.129,0-.258,0-.386,0a.632.632,0,0,0-.025,1.261c.485.03.973,0,1.459.019a2.38,2.38,0,0,1,.675.083,1.083,1.083,0,0,1-.33,2.095c-.572.022-1.145,0-1.717.011-.5.005-.783.258-.77.665.013.385.294.612.771.617.329,0,.659-.01.988.006a1.1,1.1,0,0,1,1.074,1.069,1.082,1.082,0,0,1-1.03,1.107c-.327.027-.658.009-.987.014-.56.008-.836.217-.84.634s.266.635.826.647c.809.019,1.116.227,1.314.893a6.294,6.294,0,0,1-1.045.177q-4.9.021-9.793,0c-.669,0-1.34-.032-2.007-.086a5.671,5.671,0,0,1-2.909-1.148,3.29,3.29,0,0,0-1.46-.652c-.556-.086-.711-.274-.712-.821q0-3.953,0-7.9" transform="translate(-51.134 -172.688)" fill="#fddecf"/><path d="M5.275,271.694q.007-3.277.013-6.554c0-1.871-.007-3.741-.01-5.612,1,0,2-.011,3-.007.448,0,.614.174.616.627,0,1.471,0,2.943,0,4.414,0,.529.158.71.675.814v1.433c-.522.116-.672.291-.674.821,0,1.116,0,2.233,0,3.349,0,.567-.148.722-.7.723-.973,0-1.945,0-2.918-.008" transform="translate(-4.671 -229.865)" fill="#e69098"/><path d="M42.757,275.733q0-.716,0-1.432a.684.684,0,0,0,.611-.781c-.01-1.293,0-2.587,0-3.92h1.112q0,3.952,0,7.9c0,.547.155.734.712.821a3.288,3.288,0,0,1,1.46.652,5.671,5.671,0,0,0,2.909,1.148c.667.054,1.338.084,2.007.086q4.9.013,9.793,0a6.3,6.3,0,0,0,1.045-.177,1.07,1.07,0,0,1-1.106,1.3c-3.835.005-7.671.012-11.506-.009a4.809,4.809,0,0,1-3.094-1.1,2.961,2.961,0,0,0-2.36-.743,8.556,8.556,0,0,1-.971.006c0-1.013-.008-1.984,0-2.954a.694.694,0,0,0-.612-.79" transform="translate(-37.858 -238.788)" fill="#fccfc0"/><path d="M50.956,131.879c.685.072.907.426.637,1.053a15.126,15.126,0,0,0-.442,11.173c.209.622-.038.948-.711.967-.166-.182-.413-.337-.486-.551a16.178,16.178,0,0,1,.488-12.113c.093-.211.339-.354.515-.529" transform="translate(-43.393 -116.847)" fill="#030404"/><path d="M118.759,67.731l-.258-.542a1.685,1.685,0,0,1,1.792-.952c.455.474.409.9-.167,1.187-.423.213-.818.629-1.367.307" transform="translate(-104.924 -58.693)" fill="#050606"/><path d="M313.7,150.207c-.667-.068-.9-.408-.654-1.011a15.09,15.09,0,0,0,1.081-7.13,14.911,14.911,0,0,0-1.01-4.231c-.242-.608-.054-.92.582-1.034.2.179.5.319.587.543a16.12,16.12,0,0,1-.058,12.3c-.089.221-.348.374-.528.559" transform="translate(-277.091 -121.205)" fill="#040404"/><path d="M244.765,305.672c-.421-.524-.341-.885.235-1.194s1.172-.647,1.749-.986c.554-.326.9-.212,1.12.391-.142.23-.231.539-.436.675a15.7,15.7,0,0,1-1.863,1.05,2.3,2.3,0,0,1-.806.065" transform="translate(-216.485 -268.639)" fill="#040404"/><path d="M153.934,158.837a5.454,5.454,0,0,1-.555,0,.578.578,0,0,1-.57-.628c0-.37.213-.637.574-.611.472.034.6-.185.749-.584a3.284,3.284,0,0,1,2.449-2.107c.1-.916.238-1.152.667-1.158s.607.269.675,1.15a3.422,3.422,0,0,1,2.6,2.5c.021.075.152.141.244.167a2.044,2.044,0,0,0,.341.016.593.593,0,0,1,.595.61.563.563,0,0,1-.6.637c-.448-.024-.583.177-.721.56a3.3,3.3,0,0,1-2.48,2.133c-.022.486.088,1.1-.665,1.147-.438.029-.607-.291-.642-1.14a3.475,3.475,0,0,1-2.667-2.688m3.3,1.446a2.075,2.075,0,1,0-2.069-2.083,2.087,2.087,0,0,0,2.069,2.083" transform="translate(-135.301 -136.207)" fill="#040404"/><path d="M175.468,178.739a2.075,2.075,0,1,1,2.107-2.044,2.086,2.086,0,0,1-2.107,2.044m.662-2.085a.648.648,0,1,0-1.285.006.647.647,0,1,0,1.285-.006" transform="translate(-153.531 -154.664)" fill="#f4f2f2"/><path d="M187.3,186.968a.647.647,0,1,1-1.285.006.648.648,0,1,1,1.285-.006" transform="translate(-164.703 -164.978)" fill="#070707"/></g></g></g></svg>