<svg xmlns="http://www.w3.org/2000/svg" xmlns:xlink="http://www.w3.org/1999/xlink" width="108.82" height="108.82" viewBox="0 0 108.82 108.82"><defs><filter id="a" x="0" y="0" width="108.82" height="108.82" filterUnits="userSpaceOnUse"><feOffset dy="6" input="SourceAlpha"/><feGaussianBlur stdDeviation="4.5" result="b"/><feFlood flood-opacity="0.161"/><feComposite operator="in" in2="b"/><feComposite in="SourceGraphic"/></filter><clipPath id="c"><rect width="52" height="52" transform="translate(0 -0.313)" fill="none"/></clipPath></defs><g transform="translate(-169.68 -662.283)"><g transform="matrix(1, 0, 0, 1, 169.68, 662.28)" filter="url(#a)"><g transform="translate(13.5 7.5)" fill="#fff"><path d="M 40.91015625 71.8203125 C 23.86623573303223 71.8203125 9.999996185302734 57.95407485961914 9.999996185302734 40.91015625 C 9.999996185302734 23.86623573303223 23.86623573303223 9.999996185302734 40.91015625 9.999996185302734 C 57.95407485961914 9.999996185302734 71.8203125 23.86623573303223 71.8203125 40.91015625 C 71.8203125 57.95407485961914 57.95407485961914 71.8203125 40.91015625 71.8203125 Z" stroke="none"/><path d="M 40.91015625 20 C 29.3802490234375 20 20 29.3802490234375 20 40.91015625 C 20 52.4400634765625 29.3802490234375 61.8203125 40.91015625 61.8203125 C 52.4400634765625 61.8203125 61.8203125 52.4400634765625 61.8203125 40.91015625 C 61.8203125 29.3802490234375 52.4400634765625 20 40.91015625 20 M 40.91015625 0 C 63.50421905517578 0 81.8203125 18.31609344482422 81.8203125 40.91015625 C 81.8203125 63.50421905517578 63.50421905517578 81.8203125 40.91015625 81.8203125 C 18.31609344482422 81.8203125 0 63.50421905517578 0 40.91015625 C 0 18.31609344482422 18.31609344482422 0 40.91015625 0 Z" stroke="none" fill="#fff"/></g></g><circle cx="34" cy="34" r="34" transform="translate(190.333 677)" fill="#ced371"/><g transform="translate(198.333 685.313)" clip-path="url(#c)"><path d="M25.5,0H27.72c.372.066.743.135,1.116.2A12.113,12.113,0,0,1,36.5,4.472a7.62,7.62,0,0,0,.751.7c-.255.262-.518.516-.763.787a.628.628,0,0,0,0,.938.6.6,0,0,0,.93-.008c.311-.3.593-.624.887-.938l2.889.207a10.5,10.5,0,0,1,4.543,1.428c.817.473,1.566,1.063,2.346,1.6l.535.509c.187.236.364.48.562.707a12.387,12.387,0,0,1,2.561,4.627,10.593,10.593,0,0,1,.5,4.844,23.036,23.036,0,0,1-.732,3.264,7.044,7.044,0,0,0-.779,3.126c-.087-.1-.181-.2-.26-.3-1.1-1.483-2.2-2.971-3.311-4.451-.408-.545-.854-.573-1.233-.067-1.722,2.3-3.44,4.607-5.133,6.93a.916.916,0,0,0-.095.775c.08.179.413.3.651.341a7.182,7.182,0,0,0,1.1.015c0,2.637,0,5.194,0,7.75q0,3.936-.017,7.872a13.69,13.69,0,0,1-1.782.186,5.843,5.843,0,0,0-3.143.62c.014-.995-.819-1.447-1.33-2.051l1.266-2.993c.36,0,.778,0,1.2,0a1.564,1.564,0,0,0,1.6-1.538q.028-1.16,0-2.322a1.512,1.512,0,0,0-1.408-1.51c-.418-.039-.842,0-1.259-.044a.541.541,0,0,1-.363-.287c-.208-.494-.36-1.011-.561-1.508-.162-.4-.554-.818-.5-1.17s.548-.637.845-.955a1.593,1.593,0,0,0,.013-2.267c-.413-.443-.853-.861-1.251-1.316a.651.651,0,0,1-.132-.506c.378-1.511.8-3.011,1.172-4.525a46.339,46.339,0,0,1,1.425-6.019c.25-.641.479-1.29.7-1.942A2.871,2.871,0,0,0,35.99,11.1c-.142.006-.284,0-.447,0a2.951,2.951,0,0,0-1.107-2.518,3,3,0,0,0-2.658-.528,3.02,3.02,0,0,0-2.169-2.789,2.954,2.954,0,0,0-3.37,1.162,1.54,1.54,0,0,1-.133-.114,3,3,0,0,0-5.267.977c-.449,1.176-.883,2.357-1.347,3.526a1.634,1.634,0,0,1-.42.521,15.033,15.033,0,0,0-1.53,1.44c-.967,1.227-1.863,2.511-2.775,3.781a5.018,5.018,0,0,0,.033,6.183c.693.951,1.4,1.9,2.092,2.844.424.577.847,1.157,1.261,1.722-.663.638-1.3,1.234-1.918,1.851a1.568,1.568,0,0,0,0,2.294c.283.285.6.539.837.753l-1.3,3.05c-.373,0-.792-.01-1.21,0a1.579,1.579,0,0,0-1.588,1.61c-.01.707,0,1.413,0,2.12a1.6,1.6,0,0,0,1.666,1.686c.416.008.832,0,1.161,0l1.245,3.039c-.545.632-1.447,1.123-1.364,2.216a6.7,6.7,0,0,0-1.409-.485c-1.159-.133-2.328-.169-3.493-.244-.005-.084-.016-.167-.016-.251q0-7.515,0-15.03c0-.128.02-.256.034-.422.416,0,.8.02,1.183,0a.642.642,0,0,0,.529-1.016,3.76,3.76,0,0,0-.261-.37L7.47,21.679c-.6-.8-.944-.8-1.538-.006q-1.718,2.3-3.443,4.591a7.665,7.665,0,0,0-.327-1.91A12.75,12.75,0,0,1,3.644,10.9c.316-.405.639-.8.958-1.207l.557-.609a1.019,1.019,0,0,0,.287-.093c.492-.347.963-.724,1.464-1.056A12.88,12.88,0,0,1,14.346,6.08c-.156.7.469.94.809,1.338a.622.622,0,0,0,.971.094.679.679,0,0,0-.035-1.02c-.228-.244-.461-.483-.692-.724A12.233,12.233,0,0,0,16.5,4.686,12.037,12.037,0,0,1,23.352.4C24.06.231,24.783.131,25.5,0m1.336,1.834a5.137,5.137,0,0,0,0-.6.588.588,0,0,0-.6-.559.562.562,0,0,0-.659.484A3.989,3.989,0,0,0,25.589,2.5a.812.812,0,0,0,.636.469c.212-.011.453-.312.593-.541.089-.146.017-.391.017-.591M42.111,17.592a5.807,5.807,0,0,0,.6,0A.588.588,0,0,0,43.286,17a.575.575,0,0,0-.512-.686,3.721,3.721,0,0,0-1.289.02.9.9,0,0,0-.5.63c-.054.338.2.587.574.623.182.017.367,0,.551,0m-30.99-.453v-.008c-.184,0-.368-.011-.551,0a.653.653,0,0,0-.039,1.3,5.613,5.613,0,0,0,1.15-.007.648.648,0,0,0-.009-1.288,5.108,5.108,0,0,0-.551,0M6.7,11.116h.015c0-.168.008-.337,0-.5a.667.667,0,0,0-.649-.7c-.375-.033-.652.275-.666.719-.011.353-.012.706,0,1.059a.6.6,0,0,0,.6.619.616.616,0,0,0,.684-.539,3.169,3.169,0,0,0,.008-.653M45.036,9.671v.006a4,4,0,0,0,.654-.006.626.626,0,0,0,.586-.7.6.6,0,0,0-.622-.6c-.386-.014-.774-.017-1.159,0a.6.6,0,0,0-.61.613.621.621,0,0,0,.549.677,3.021,3.021,0,0,0,.6.007M8.151,8.367c-.185,0-.37-.006-.555,0a.652.652,0,0,0-.047,1.3,5.909,5.909,0,0,0,1.208-.006.65.65,0,0,0-.052-1.3c-.184-.01-.37,0-.555,0m39.672,2.769c0-.2.01-.4,0-.6a.607.607,0,0,0-.61-.616.6.6,0,0,0-.675.545,5.629,5.629,0,0,0,0,1.306.594.594,0,0,0,.678.541.607.607,0,0,0,.607-.617c.013-.184,0-.369,0-.554M4.551,17.122a1.7,1.7,0,0,1,1.522,1.5c.028-.992.707-1.292,1.493-1.517A1.507,1.507,0,0,1,6.06,15.6c-.173.833-.544,1.441-1.508,1.519m42.62,1.5a1.506,1.506,0,0,1,1.539-1.387,4.052,4.052,0,0,1-1.082-.566,3.878,3.878,0,0,1-.508-1.071,1.476,1.476,0,0,1-1.435,1.567,1.584,1.584,0,0,1,1.485,1.457" transform="translate(-0.766)" fill="#e4ebfd"/><path d="M93.4,78.834c-.083-1.094.819-1.585,1.364-2.216L93.52,73.578c-.329,0-.745.006-1.161,0a1.6,1.6,0,0,1-1.666-1.686c0-.707-.009-1.413,0-2.12a1.579,1.579,0,0,1,1.588-1.61c.418-.012.837,0,1.21,0l1.3-3.05c-.24-.214-.554-.469-.837-.754a1.568,1.568,0,0,1,0-2.294c.617-.617,1.255-1.213,1.918-1.851-.414-.566-.836-1.145-1.261-1.722-.7-.948-1.4-1.893-2.092-2.844a5.018,5.018,0,0,1-.033-6.183c.912-1.27,1.808-2.554,2.775-3.781a15.019,15.019,0,0,1,1.53-1.44,1.634,1.634,0,0,0,.42-.521c.464-1.17.9-2.351,1.347-3.526a3,3,0,0,1,5.267-.977,1.538,1.538,0,0,0,.133.115,2.954,2.954,0,0,1,3.37-1.162,3.021,3.021,0,0,1,2.169,2.789,3,3,0,0,1,2.658.528A2.95,2.95,0,0,1,113.258,44c.163,0,.305.006.447,0a2.871,2.871,0,0,1,2.931,3.883c-.217.652-.447,1.3-.7,1.942a46.333,46.333,0,0,0-1.425,6.018c-.369,1.514-.794,3.013-1.172,4.525a.651.651,0,0,0,.132.506c.4.455.838.874,1.251,1.316a1.593,1.593,0,0,1-.013,2.266c-.3.318-.787.6-.845.955s.334.769.5,1.17c.2.5.353,1.014.561,1.508a.541.541,0,0,0,.363.287c.416.044.841,0,1.259.044a1.512,1.512,0,0,1,1.408,1.51q.027,1.16,0,2.322a1.564,1.564,0,0,1-1.6,1.538c-.418,0-.836,0-1.2,0l-1.266,2.993c.511.6,1.344,1.056,1.33,2.051a2.315,2.315,0,0,1-.831,1.381c-.4.35-.746.774-1.169,1.093a7.04,7.04,0,0,1-1.125.577c-1.052.036-1.506-.883-2.133-1.363l-3.031,1.232c-.039.825.169,1.716-.5,2.424l-.7.409h-3.129l-.708-.5c-.623-.706-.3-1.6-.414-2.282-.932-.414-1.794-.77-2.628-1.184-.286-.142-.413-.051-.589.131a2.63,2.63,0,0,1-1.718,1.106,2.321,2.321,0,0,1-1.518-.872c-.337-.391-.745-.723-1.062-1.127a7.058,7.058,0,0,1-.57-1.024m6.687-35.257,1.9.57c.284-.71.588-1.468.889-2.226a4.773,4.773,0,0,0,.165-.473,1.611,1.611,0,0,0-1.328-2.039,1.573,1.573,0,0,0-1.837,1.032c-.34.855-.659,1.718-.984,2.579-.061.162-.106.33-.177.557Zm13.719,7.794a1.922,1.922,0,0,0,.319-.433c.45-1.223.917-2.441,1.306-3.684a1.49,1.49,0,0,0-1.31-1.916,1.515,1.515,0,0,0-1.627.995q-.666,1.68-1.289,3.377a1.575,1.575,0,0,0,.633,1.891,1.542,1.542,0,0,0,1.968-.23m-7.151-11.989a1.664,1.664,0,0,0-1.8,1.132c-.537,1.334-1.063,2.673-1.589,4.011a2.864,2.864,0,0,0-.088.357l1.134.566,1.866,1.031c.649-1.7,1.308-3.329,1.884-4.984a1.614,1.614,0,0,0-1.4-2.113m2.966,10.407a1.784,1.784,0,0,0,.258-.362c.669-1.731,1.364-3.453,1.977-5.2a1.592,1.592,0,0,0-3.041-.939q-.735,1.87-1.443,3.751a.722.722,0,0,0-.021.467,1.86,1.86,0,0,1-.169,1.733.421.421,0,0,0,.084.606,1.567,1.567,0,0,0,2.354-.052M99.483,61.065c.484-.185.963-.385,1.452-.553.784-.269.816-.262.78-1.113a1.83,1.83,0,0,1,1.426-2.113A22.219,22.219,0,0,0,101.62,55.1a7.27,7.27,0,0,0-4.2-2.207c-.907-.18-1.078-.636-.493-1.365.63-.786,1.274-1.562,1.895-2.356a.8.8,0,0,1,1.055-.285c.791.324,1.584.648,2.393.922a3.026,3.026,0,0,0,3.371-.755c.75-.711.716-1.038-.158-1.471-1.4-.691-2.759-1.457-4.138-2.187a3.74,3.74,0,0,0-5.109,1.162q-1.295,1.768-2.583,3.541a3.743,3.743,0,0,0,.011,4.872c1.253,1.705,2.5,3.417,3.769,5.108.38.506.841.952,1.282,1.445l.771-.458m6.255-1.516c.007-.1.007-.2.023-.3.078-.485-.117-.655-.609-.617a15.464,15.464,0,0,1-1.665.005c-.334-.011-.451.133-.445.449.01.555,0,1.11,0,1.665a.67.67,0,0,1-.607.736,9.4,9.4,0,0,0-3.343,1.346A.734.734,0,0,1,98.06,62.7c-.338-.352-.7-.679-1.03-1.039-.255-.281-.463-.327-.746-.03-.405.426-.832.834-1.27,1.226-.287.258-.259.459.007.7.346.32.665.667,1,.994a.72.72,0,0,1,.134,1.031,9.662,9.662,0,0,0-1.394,3.271.705.705,0,0,1-.781.622c-.5-.007-1.01.008-1.514,0-.347-.008-.477.136-.466.484.02.605.021,1.212,0,1.817-.013.386.155.5.514.488.5-.019,1.01.007,1.514-.008a.687.687,0,0,1,.788.612,9.242,9.242,0,0,0,1.347,3.341.709.709,0,0,1-.113.994c-.385.376-.758.765-1.146,1.138a.36.36,0,0,0-.011.6c.452.452.9.909,1.337,1.374.232.246.421.2.634-.022.349-.364.714-.713,1.069-1.072a.679.679,0,0,1,.951-.113,10.122,10.122,0,0,0,3.366,1.428.68.68,0,0,1,.571.766,15.24,15.24,0,0,0,.016,1.563.553.553,0,0,0,.366.389,16.745,16.745,0,0,0,2.017,0c.136-.008.3-.234.372-.4a1.239,1.239,0,0,0-.013-.5c.01-.4.022-.8.028-1.207a.635.635,0,0,1,.556-.677,9.56,9.56,0,0,0,3.435-1.374.685.685,0,0,1,.949.118c.379.382.769.753,1.14,1.142a.377.377,0,0,0,.635.005c.438-.442.883-.877,1.341-1.3.27-.248.22-.439-.022-.667-.355-.334-.686-.692-1.037-1.031a.694.694,0,0,1-.122-.989,9.885,9.885,0,0,0,1.412-3.314.7.7,0,0,1,.8-.6c.5.009,1.009-.009,1.513.006.324.009.452-.116.443-.445-.017-.6-.022-1.211,0-1.815.014-.369-.113-.521-.488-.506-.5.019-1.009,0-1.513.007a.764.764,0,0,1-.882-.694,9.005,9.005,0,0,0-1.316-3.242.754.754,0,0,1,.139-1.075c.355-.334.683-.7,1.041-1.027.261-.242.3-.444.025-.711-.436-.419-.856-.856-1.265-1.3-.242-.265-.431-.244-.665.008-.344.369-.71.716-1.068,1.072a.69.69,0,0,1-.956.1,9.661,9.661,0,0,0-3.315-1.405.728.728,0,0,1-.628-.789c0-.369-.013-.738-.021-1.108m-7.277-7.817a7.986,7.986,0,0,1,5.586,4.707,1.191,1.191,0,0,0,1.409.9,1.458,1.458,0,0,1,1.623,1.575c.012.435,0,.87,0,1.244l3,1.271a.417.417,0,0,0,.074-.053c.542-.484.946-1.157,1.774-1.252.09-.01.188-.225.227-.36.276-.949.574-1.894.8-2.857.294-1.272.524-2.558.79-3.878a3.063,3.063,0,0,1-3.811-1.737,3.05,3.05,0,0,1-3.879-.805,4.723,4.723,0,0,1-4.9.311,11.255,11.255,0,0,0-1.224-.461.437.437,0,0,0-.379.066c-.365.414-.7.854-1.08,1.325" transform="translate(-78.482 -32.903)" fill="#341234"/><path d="M306.289,174.409c-.012,1.107-.028,2.215-.033,3.322-.006,1.293,0,2.587,0,3.88,0,.676-.206.879-.866.88q-3.2,0-6.4,0c-.668,0-.863-.2-.871-.867,0-.319-.012-.637-.018-.956q.009-3.936.018-7.872c0-2.557,0-5.113,0-7.75a7.181,7.181,0,0,1-1.1-.015c-.238-.038-.571-.162-.651-.341a.916.916,0,0,1,.095-.775c1.694-2.323,3.412-4.628,5.133-6.93.379-.507.825-.478,1.233.067,1.108,1.48,2.207,2.968,3.311,4.451.079.106.173.2.26.3l1.723,2.306v.606l-.5.329h-1.36v.589q0,3.506,0,7.013c0,.587.021,1.174.033,1.762m-1.394,5.654c.008-.2.022-.4.022-.6q0-7.282,0-14.564c0-.151-.006-.3,0-.453a.7.7,0,0,1,.7-.717c.14-.014.28-.022.505-.04l-3.137-4.152-.8-1.134-3.811,5.127,1.061.69q.008.4.015.807c-.005.084-.015.167-.015.251q0,7.763,0,15.527c0,.112.02.224.03.33H301.5v-1.55c.011-.367.026-.735.032-1.1.01-.592.222-.868.667-.86s.647.292.655.886q.011.779.021,1.557v1.079h2.021Z" transform="translate(-256.431 -135.542)" fill="#341335"/><path d="M10.017,180.72c-.006.353-.006.706-.018,1.058a.632.632,0,0,1-.7.687q-3.356.006-6.711,0c-.523,0-.724-.25-.725-.867,0-2.187,0-4.373,0-6.56,0-.217-.022-.435-.033-.652a1.856,1.856,0,0,0,.032-.248q0-4.364,0-8.728c0-.113-.023-.226-.04-.388H.5l-.5-.329v-.606l1.724-2.3q1.722-2.3,3.443-4.591c.593-.794.94-.8,1.537.006l4.783,6.43a3.766,3.766,0,0,1,.261.37.642.642,0,0,1-.529,1.016c-.382.024-.767,0-1.183,0-.014.166-.033.294-.033.422q0,7.515,0,15.03c0,.084.01.167.015.251M3.188,164.212l.034.787c-.007.083-.02.167-.02.25q0,7.742,0,15.484a3.543,3.543,0,0,0,.041.383h2v-1.583c.007-.4.006-.8.023-1.2.02-.487.276-.762.691-.738.459.026.625.313.629.739,0,.566.017,1.132.027,1.7v1.082H8.665v-1.079c.005-.2.016-.4.016-.6q0-7.291,0-14.582c0-.135,0-.269,0-.4A.7.7,0,0,1,9.4,163.7c.125-.013.25-.024.472-.046l-3.1-4.115-.832-1.16-3.944,5.315c.562-.017,1,.014,1.2.519" transform="translate(0 -135.517)" fill="#341335"/><path d="M185.246,6.156c0,.2.072.445-.017.591-.14.228-.381.53-.593.541A.812.812,0,0,1,184,6.819a3.989,3.989,0,0,1-.018-1.338A.562.562,0,0,1,184.641,5a.588.588,0,0,1,.6.559,5.048,5.048,0,0,1,0,.6" transform="translate(-159.177 -4.323)" fill="#371538"/><path d="M299.89,122.205c-.184,0-.369.015-.551,0-.373-.036-.629-.285-.574-.623a.9.9,0,0,1,.5-.63,3.721,3.721,0,0,1,1.289-.02.575.575,0,0,1,.512.686.588.588,0,0,1-.574.586,5.879,5.879,0,0,1-.6,0" transform="translate(-258.545 -104.613)" fill="#371538"/><path d="M69.292,127.257a5.107,5.107,0,0,1,.551,0,.648.648,0,0,1,.009,1.288,5.613,5.613,0,0,1-1.15.007.653.653,0,0,1,.039-1.3c.183-.013.367,0,.551,0v.008" transform="translate(-58.936 -110.118)" fill="#371538"/><path d="M35.645,74.82a3.159,3.159,0,0,1-.008.653.616.616,0,0,1-.684.539.6.6,0,0,1-.6-.619c-.016-.352-.015-.706,0-1.059.013-.444.291-.753.666-.719a.667.667,0,0,1,.649.7c.01.167,0,.336,0,.5h-.015" transform="translate(-29.714 -63.704)" fill="#351335"/><path d="M321.486,63.423a3.021,3.021,0,0,1-.6-.007.62.62,0,0,1-.549-.677.6.6,0,0,1,.61-.613c.386-.019.773-.015,1.159,0a.6.6,0,0,1,.622.6.626.626,0,0,1-.586.7,4,4,0,0,1-.654.006v-.006" transform="translate(-277.216 -53.752)" fill="#351335"/><path d="M47.1,62.151c.185,0,.37-.007.555,0a.65.65,0,0,1,.052,1.295,5.89,5.89,0,0,1-1.208.006.652.652,0,0,1,.047-1.3c.185-.007.37,0,.555,0" transform="translate(-39.714 -53.783)" fill="#351335"/><path d="M341.089,74.876c0,.185.011.37,0,.554a.607.607,0,0,1-.607.617.594.594,0,0,1-.678-.541,5.634,5.634,0,0,1,0-1.306.6.6,0,0,1,.675-.545.607.607,0,0,1,.61.616c.012.2,0,.4,0,.6" transform="translate(-294.032 -63.739)" fill="#351335"/><path d="M264.785,37.868q1.068-.361,1.054.778c-.294.314-.576.642-.887.938a.6.6,0,0,1-.93.008.628.628,0,0,1,0-.938c.246-.27.508-.525.763-.787" transform="translate(-228.302 -32.696)" fill="#371538"/><path d="M351.524,62.951c.031-.636.2-.811.811-.82.3,0,.6-.006.907,0a.6.6,0,0,1,.658.613.614.614,0,0,1-.633.694c-.4.031-.805.014-1.208.018l-.534-.509" transform="translate(-304.209 -53.766)" fill="#351335"/><path d="M16.653,63.449c-.386,0-.773.006-1.158-.014a.637.637,0,0,1-.682-.7.623.623,0,0,1,.712-.614c.285,0,.572.011.857,0a.7.7,0,0,1,.829.723l-.557.609" transform="translate(-12.816 -53.755)" fill="#351335"/><path d="M100.733,42.451a.718.718,0,0,1,1.052-.311c.231.241.464.48.692.724a.679.679,0,0,1,.035,1.02.622.622,0,0,1-.971-.094c-.339-.4-.965-.637-.809-1.338" transform="translate(-87.153 -36.371)" fill="#371538"/><path d="M28.122,117.439c.964-.078,1.335-.686,1.508-1.519a1.508,1.508,0,0,0,1.507,1.506c-.786.224-1.465.524-1.493,1.517a1.7,1.7,0,0,0-1.522-1.5" transform="translate(-24.337 -100.317)" fill="#ee596b"/><path d="M335.209,118.877a1.584,1.584,0,0,0-1.485-1.457,1.476,1.476,0,0,0,1.435-1.567,3.878,3.878,0,0,0,.508,1.071,4.053,4.053,0,0,0,1.082.566,1.506,1.506,0,0,0-1.539,1.387" transform="translate(-288.805 -100.259)" fill="#f4b74e"/><path d="M119.91,197.944c.007.369.02.738.021,1.108a.728.728,0,0,0,.628.789,9.658,9.658,0,0,1,3.315,1.405.69.69,0,0,0,.956-.1c.357-.356.724-.7,1.068-1.072.234-.251.423-.273.665-.008.408.446.829.883,1.265,1.3.277.266.236.469-.025.71-.357.331-.686.694-1.041,1.028a.753.753,0,0,0-.139,1.075,9.007,9.007,0,0,1,1.316,3.242.764.764,0,0,0,.882.694c.5-.011,1.009.012,1.513-.007.376-.014.5.137.488.506-.023.6-.019,1.21,0,1.815.009.329-.118.454-.443.445-.5-.014-1.009,0-1.513-.006a.7.7,0,0,0-.8.6,9.885,9.885,0,0,1-1.412,3.314.694.694,0,0,0,.122.989c.35.339.682.7,1.037,1.031.242.227.292.418.022.667-.458.42-.9.855-1.341,1.3a.377.377,0,0,1-.635-.005c-.37-.39-.761-.76-1.14-1.142a.685.685,0,0,0-.949-.118,9.555,9.555,0,0,1-3.435,1.374.635.635,0,0,0-.555.677c-.006.4-.019.805-.028,1.207-.269,0-.538.007-.807.007-1.042,0-1.042,0-1.057-1.062a1.49,1.49,0,0,0-1.051-1.55,13.546,13.546,0,0,1-3.509-1.482,1.431,1.431,0,0,0-1.762.274c-.271.268-.506.572-.742.842-.859-.637-.861-.662-.252-1.272.119-.119.245-.232.353-.36a1.647,1.647,0,0,0,.19-1.961,9.875,9.875,0,0,1-1.3-3.2,1.486,1.486,0,0,0-1.552-1.236c-.185,0-.37-.006-.555,0-.35.013-.632.044-.64-.491-.009-.564.286-.545.661-.521.084.005.168,0,.252,0,1.084,0,1.513-.41,1.861-1.453a19.311,19.311,0,0,1,1.217-2.8,1.65,1.65,0,0,0-.237-2.152c-.225-.224-.482-.416-.645-.556l.712-.942c.294.348.512.649.773.907a1.5,1.5,0,0,0,2.05.232,8.736,8.736,0,0,1,3.059-1.232,1.552,1.552,0,0,0,1.325-1.648c0-.269.01-.539,0-.807s.1-.361.357-.355c.487.011.975,0,1.463,0m4.925,14.533a3.208,3.208,0,0,0,1.039-3.61,1.96,1.96,0,0,1-.086-.858,3.629,3.629,0,0,0-3.065-4.242.921.921,0,0,1-.511-.246,4.006,4.006,0,0,0-5.538-.456.806.806,0,0,1-.567.139c-2.162-.343-4.577,1.058-4.3,3.4-.151.1-.308.2-.458.3a3.411,3.411,0,0,0-.48,5.3,4.049,4.049,0,0,0,4.054,1.019.765.765,0,0,1,.745.168,5.459,5.459,0,0,0,1.492.79,3.375,3.375,0,0,0,2.748-.36,10.6,10.6,0,0,0,1.532,1.051,2.46,2.46,0,0,1,1.251,1.021.658.658,0,0,0,1.126.185q.851-.712,1.677-1.454a.69.69,0,0,0,.109-1.1c-.25-.355-.509-.7-.767-1.059" transform="translate(-92.654 -171.298)" fill="#fdfcfd"/><path d="M148.435,130.845c.379-.472.715-.911,1.08-1.325a.437.437,0,0,1,.379-.066,11.259,11.259,0,0,1,1.224.461,4.722,4.722,0,0,0,4.9-.311,3.05,3.05,0,0,0,3.879.805,3.063,3.063,0,0,0,3.811,1.737c-.266,1.319-.5,2.606-.79,3.878-.222.962-.52,1.908-.8,2.857-.04.136-.137.35-.227.36-.828.1-1.232.768-1.774,1.252a.418.418,0,0,1-.074.053l-3-1.271c0-.374.01-.81,0-1.244a1.458,1.458,0,0,0-1.623-1.575,1.191,1.191,0,0,1-1.409-.9,7.986,7.986,0,0,0-5.586-4.707" transform="translate(-128.456 -112.015)" fill="#fddccd"/><path d="M127.082,101.657a3.026,3.026,0,0,1-3.371.755c-.809-.274-1.6-.6-2.393-.922a.8.8,0,0,0-1.055.285c-.62.794-1.264,1.57-1.895,2.356-.585.73-.414,1.186.494,1.365a7.272,7.272,0,0,1,4.2,2.207,22.214,22.214,0,0,1,1.521,2.187A1.83,1.83,0,0,0,123.16,112c.035.852,0,.844-.78,1.113-.49.168-.969.368-1.452.553a2.272,2.272,0,0,0-.147-.264c-1.453-1.97-2.895-3.948-4.366-5.9-1.143-1.521-1.266-2.885-.285-4.306q1.043-1.51,2.158-2.972a3.161,3.161,0,0,1,3.892-1.136c1.67.781,3.272,1.708,4.9,2.571" transform="translate(-99.926 -85.505)" fill="#fddccd"/><path d="M114.189,192.036c-.488,0-.975.008-1.463,0-.258-.006-.369.093-.357.355s0,.538,0,.807a1.552,1.552,0,0,1-1.325,1.648,8.736,8.736,0,0,0-3.059,1.232,1.5,1.5,0,0,1-2.05-.232c-.261-.258-.48-.56-.773-.907l-.712.941c.163.139.42.332.645.556a1.65,1.65,0,0,1,.237,2.152,19.33,19.33,0,0,0-1.217,2.8c-.348,1.042-.777,1.452-1.861,1.453-.084,0-.168,0-.252,0-.375-.024-.67-.042-.661.521.008.535.291.5.64.491.185-.007.37,0,.555,0a1.486,1.486,0,0,1,1.552,1.237,9.874,9.874,0,0,0,1.3,3.2,1.646,1.646,0,0,1-.19,1.961c-.108.128-.234.241-.353.36-.609.61-.606.635.252,1.271.236-.269.471-.573.742-.842a1.431,1.431,0,0,1,1.762-.274,13.542,13.542,0,0,0,3.509,1.482,1.49,1.49,0,0,1,1.051,1.551c.015,1.062.015,1.063,1.057,1.062.269,0,.538,0,.807-.008a1.238,1.238,0,0,1,.013.5c-.068.161-.236.387-.372.4a16.743,16.743,0,0,1-2.016,0,.553.553,0,0,1-.367-.389,15.277,15.277,0,0,1-.016-1.563.68.68,0,0,0-.571-.766,10.122,10.122,0,0,1-3.366-1.428.678.678,0,0,0-.951.113c-.355.358-.72.708-1.069,1.072-.213.223-.4.269-.634.022-.438-.465-.885-.922-1.337-1.374a.36.36,0,0,1,.011-.6c.388-.373.761-.762,1.146-1.138a.709.709,0,0,0,.113-.994,9.243,9.243,0,0,1-1.347-3.341.687.687,0,0,0-.788-.612c-.5.015-1.01-.011-1.514.008-.359.013-.527-.1-.514-.488.021-.6.02-1.212,0-1.816-.012-.348.119-.493.466-.484.5.012,1.009,0,1.514,0a.705.705,0,0,0,.781-.622,9.659,9.659,0,0,1,1.394-3.27.72.72,0,0,0-.134-1.031c-.339-.327-.658-.675-1-.994-.266-.246-.295-.447-.007-.7.438-.393.865-.8,1.27-1.226.283-.3.491-.251.746.03.328.36.692.688,1.03,1.039a.734.734,0,0,0,1.035.132,9.4,9.4,0,0,1,3.343-1.346.67.67,0,0,0,.607-.736c0-.555.008-1.11,0-1.665-.006-.316.111-.46.445-.449a15.463,15.463,0,0,0,1.665-.005c.492-.038.686.132.609.617-.016.1-.016.2-.023.3" transform="translate(-86.932 -165.389)" fill="#fabcf7"/><path d="M118.919,92.964c-1.631-.864-3.233-1.791-4.9-2.571a3.161,3.161,0,0,0-3.892,1.136q-1.117,1.457-2.158,2.972c-.981,1.421-.859,2.785.285,4.306,1.471,1.956,2.913,3.934,4.366,5.9a2.272,2.272,0,0,1,.147.264l-.771.458c-.441-.493-.9-.939-1.282-1.445-1.272-1.691-2.516-3.4-3.769-5.108a3.743,3.743,0,0,1-.011-4.872q1.288-1.773,2.583-3.541a3.74,3.74,0,0,1,5.109-1.161c1.379.73,2.74,1.5,4.138,2.187.875.433.908.76.158,1.471" transform="translate(-91.763 -76.812)" fill="#f9b296"/><path d="M222.873,69.11a1.526,1.526,0,0,1,1.464,2.018c-.613,1.751-1.308,3.473-1.977,5.2a1.783,1.783,0,0,1-.258.362c-.14-.056-.277-.119-.419-.167a1.4,1.4,0,0,1-.879-1.93c.257-.543.442-1.119.653-1.683q.711-1.9,1.415-3.8" transform="translate(-190.963 -59.808)" fill="#fddbcd"/><path d="M194.223,48.136a1.614,1.614,0,0,1,1.4,2.113c-.576,1.655-1.235,3.282-1.884,4.984L191.875,54.2c.312-.792.628-1.582.934-2.376.474-1.229.943-2.46,1.413-3.69" transform="translate(-166.049 -41.657)" fill="#fcdbcc"/><path d="M213.332,355.163a11.6,11.6,0,0,1-5.664,2.293c.669-.708.461-1.6.5-2.424L211.2,353.8c.628.48,1.081,1.4,2.133,1.363" transform="translate(-179.716 -306.178)" fill="#e4ebfc"/><path d="M254.331,92.382a1.49,1.49,0,0,1,1.31,1.916c-.389,1.243-.857,2.461-1.306,3.684a1.92,1.92,0,0,1-.319.433c-.075-.036-.149-.075-.226-.108-1.064-.452-1.3-1.006-.9-2.086q.719-1.92,1.44-3.84" transform="translate(-218.692 -79.947)" fill="#fcdbcc"/><path d="M139.593,357.529a20.842,20.842,0,0,1-2.744-.757,23.95,23.95,0,0,1-2.606-1.472,2.631,2.631,0,0,0,1.718-1.106c.176-.182.3-.272.589-.131.834.413,1.7.769,2.628,1.184.117.686-.208,1.576.414,2.282" transform="translate(-116.175 -306.346)" fill="#e4ebfc"/><path d="M215.841,69.108q-.707,1.9-1.415,3.8c-.211.564-.4,1.141-.653,1.683a1.4,1.4,0,0,0,.879,1.93c.142.048.279.111.419.167a1.567,1.567,0,0,1-2.354.052.421.421,0,0,1-.084-.606A1.86,1.86,0,0,0,212.8,74.4a.722.722,0,0,1,.021-.467q.707-1.881,1.443-3.751a1.532,1.532,0,0,1,1.577-1.078" transform="translate(-183.931 -59.806)" fill="#f8b195"/><path d="M245.383,92.368q-.72,1.92-1.44,3.84c-.4,1.08-.165,1.634.9,2.086.077.033.151.072.226.108a1.542,1.542,0,0,1-1.968.23,1.575,1.575,0,0,1-.633-1.891q.621-1.7,1.29-3.377a1.514,1.514,0,0,1,1.626-.995" transform="translate(-209.744 -79.934)" fill="#f8b195"/><path d="M162.146,48.34a1.611,1.611,0,0,1,1.328,2.039,4.756,4.756,0,0,1-.165.473c-.3.759-.605,1.516-.889,2.226l-1.9-.57,1.623-4.168" transform="translate(-138.917 -41.833)" fill="#fcdbcc"/><path d="M186.931,48.1c-.471,1.23-.939,2.461-1.413,3.69-.307.794-.622,1.584-.934,2.376l-1.134-.566a2.888,2.888,0,0,1,.088-.357c.527-1.338,1.052-2.677,1.589-4.011a1.664,1.664,0,0,1,1.8-1.132" transform="translate(-158.757 -41.623)" fill="#f9b296"/><path d="M153.306,48.181l-1.623,4.168h-1.375c.072-.226.116-.395.178-.557.325-.861.644-1.724.984-2.579a1.573,1.573,0,0,1,1.837-1.032" transform="translate(-130.076 -41.674)" fill="#f8b195"/><path d="M34.374,43.784c0-.185-.008-.37,0-.554a.65.65,0,0,1,1.294-.072,5.6,5.6,0,0,1,0,1.256.65.65,0,0,1-1.294-.076c-.008-.184,0-.369,0-.554" transform="translate(-29.745 -36.862)" fill="#351335"/><path d="M341.1,43.813c0,.185.01.37,0,.554a.6.6,0,0,1-.612.607.585.585,0,0,1-.673-.539,5.885,5.885,0,0,1,0-1.3.584.584,0,0,1,.678-.532.6.6,0,0,1,.606.611c.014.2,0,.4,0,.6" transform="translate(-294.042 -36.863)" fill="#351335"/><path d="M370.191,228.558c-.011-.587-.032-1.174-.033-1.761q-.006-3.506,0-7.013V219.2h1.36a12.3,12.3,0,0,1-.707,8.238c-.175.389-.411.751-.618,1.125" transform="translate(-320.333 -189.691)" fill="#e5ebfd"/><path d="M1.262,219.191H2.58c.017.162.04.275.04.388q0,4.364,0,8.728a1.853,1.853,0,0,1-.033.248,15.552,15.552,0,0,1-.768-1.443,12.16,12.16,0,0,1-.939-4.946,27.764,27.764,0,0,1,.382-2.975" transform="translate(-0.758 -189.688)" fill="#e5ebfd"/><path d="M319.527,183.733q-.007-.4-.015-.807a1.825,1.825,0,0,0,.255-.235q1.652-2.221,3.3-4.448L326.2,182.4c-.225.018-.366.026-.505.04a.7.7,0,0,0-.7.717c-.011.15,0,.3,0,.453q0,7.282,0,14.564c0,.2-.014.4-.022.6h-2.021q-.01-.779-.021-1.557c-.008-.595-.218-.878-.655-.886s-.656.267-.667.86c-.006.367-.021.735-.032,1.1a2,2,0,0,1-.85-1.781q-.007-5.7,0-11.407c0-.9-.278-1.214-1.194-1.37m2.081.91c0,.555,0,1.11,0,1.665,0,.431.168.721.628.752.4.027.682-.268.688-.758q.019-1.665,0-3.33a.69.69,0,0,0-.668-.74c-.378,0-.635.286-.643.746-.01.555,0,1.11,0,1.665m0,7.027c0,.572,0,1.144,0,1.716a.641.641,0,0,0,.615.721.66.66,0,0,0,.7-.7q.025-1.715,0-3.431a.648.648,0,0,0-.7-.69.629.629,0,0,0-.608.721q0,.833,0,1.665" transform="translate(-276.506 -154.251)" fill="#56ccac"/><path d="M319.521,219.032c.917.156,1.194.473,1.194,1.37q0,5.7,0,11.407a1.994,1.994,0,0,0,.85,1.781v1.55h-2.032c-.01-.105-.03-.217-.03-.329q0-7.763,0-15.526c0-.084.01-.167.015-.251" transform="translate(-276.5 -189.55)" fill="#70aec3"/><path d="M316.239,170.95q-1.646,2.225-3.3,4.448a1.812,1.812,0,0,1-.255.235l-1.061-.69,3.81-5.127.8,1.134" transform="translate(-269.683 -146.959)" fill="#70acc1"/><path d="M345.044,330.76h2.021v1.079h-2.021Z" transform="translate(-298.601 -286.24)" fill="#70afc3"/><path d="M23.721,183.926q-.017-.394-.034-.787c.35-.444.705-.883,1.048-1.332q1.27-1.666,2.53-3.34l3.1,4.115-.472.046a.7.7,0,0,0-.716.747c0,.135,0,.269,0,.4q0,7.291,0,14.582c0,.2-.01.4-.016.6l-2.053,0c-.009-.566-.022-1.132-.027-1.7,0-.426-.17-.713-.628-.739-.415-.024-.671.251-.691.738-.016.4-.016.8-.023,1.2a1.9,1.9,0,0,1-.809-1.64q.015-5.75,0-11.5a1.281,1.281,0,0,0-1.216-1.394m3.364.953c0-.572.009-1.144,0-1.715-.009-.456-.276-.76-.651-.733a.652.652,0,0,0-.658.693q-.023,1.715,0,3.431a.643.643,0,0,0,.692.7.624.624,0,0,0,.619-.71c0-.555,0-1.11,0-1.665m0,7c0-.555.008-1.11,0-1.665-.009-.477-.244-.74-.637-.744a.666.666,0,0,0-.674.725q-.023,1.69,0,3.38a.681.681,0,0,0,.68.727c.378-.008.623-.291.631-.758.01-.555,0-1.11,0-1.665" transform="translate(-20.499 -154.444)" fill="#56ccac"/><path d="M23.8,219.032a1.281,1.281,0,0,1,1.216,1.394q0,5.751,0,11.5a1.9,1.9,0,0,0,.809,1.64v1.583h-2a3.573,3.573,0,0,1-.041-.383q0-7.742,0-15.484c0-.084.013-.167.02-.251" transform="translate(-20.582 -189.55)" fill="#70afc3"/><path d="M19.565,171.006q-1.265,1.671-2.53,3.341c-.342.449-.7.889-1.048,1.332-.2-.505-.635-.536-1.2-.519l3.944-5.314.831,1.16" transform="translate(-12.798 -146.985)" fill="#70acc1"/><path d="M49.13,330.738l2.053,0v1.079H49.13Z" transform="translate(-42.517 -286.221)" fill="#70acc1"/><path d="M142.549,239.626c.258.355.517.7.767,1.059a.69.69,0,0,1-.109,1.1q-.827.739-1.677,1.454a.658.658,0,0,1-1.126-.185,2.459,2.459,0,0,0-1.251-1.021,10.606,10.606,0,0,1-1.532-1.051,3.375,3.375,0,0,1-2.748.36,5.451,5.451,0,0,1-1.492-.79.766.766,0,0,0-.745-.168,4.048,4.048,0,0,1-4.054-1.019,3.411,3.411,0,0,1,.48-5.3c.15-.107.307-.2.458-.3-.275-2.345,2.14-3.746,4.3-3.4a.807.807,0,0,0,.567-.139,4.006,4.006,0,0,1,5.538.456.921.921,0,0,0,.511.245,3.629,3.629,0,0,1,3.065,4.242,1.958,1.958,0,0,0,.086.858,3.208,3.208,0,0,1-1.039,3.61m-7.04-8.532a2.863,2.863,0,0,1,1.109,2.013c.032.527-.164.8-.584.829s-.6-.236-.748-.71a2.293,2.293,0,0,0-.634-1.08,2.673,2.673,0,0,0-3.312.118,1.3,1.3,0,0,0-.468,1.352c.2.863.184.9-.595,1.265a2.177,2.177,0,0,0-.935,3.387,2.791,2.791,0,0,0,3.054.778,1.64,1.64,0,0,1-.08-.477,13.347,13.347,0,0,1,.3-1.812.574.574,0,0,1,.835-.329.6.6,0,0,1,.355.828c-.022.064-.045.127-.067.19a1.961,1.961,0,0,0,1.373,2.6,2.185,2.185,0,0,0,2.512-.909c.225-.334.484-.531.879-.367a.694.694,0,0,1,.4.874,1.026,1.026,0,0,0,.715,1.179c.557.248,1.093.544,1.7.85l.668-.576c-.287-.393-.556-.758-.821-1.125-.44-.611-.365-.927.3-1.271a1.753,1.753,0,0,0,.994-1.654,10.7,10.7,0,0,1-1.265.357c-.485.077-.821-.18-.832-.583-.012-.447.253-.658.679-.721a1.248,1.248,0,0,0,1.124-1.054,2.29,2.29,0,0,0-2.261-2.829.866.866,0,0,1-.867-.461,2.483,2.483,0,0,0-3.529-.664" transform="translate(-110.367 -198.447)" fill="#341234"/><path d="M335.066,210.293c0-.555-.008-1.11,0-1.665.008-.46.265-.746.643-.746a.69.69,0,0,1,.668.74q.021,1.665,0,3.33c-.006.49-.284.785-.688.758-.46-.03-.631-.321-.628-.752,0-.555,0-1.11,0-1.665" transform="translate(-289.964 -179.901)" fill="#321334"/><path d="M335.08,262.644q0-.833,0-1.665a.629.629,0,0,1,.608-.721.648.648,0,0,1,.7.69q.028,1.715,0,3.431a.66.66,0,0,1-.7.7.641.641,0,0,1-.615-.721c0-.572,0-1.144,0-1.716" transform="translate(-289.977 -225.225)" fill="#321334"/><path d="M40.422,210.353c0,.555,0,1.11,0,1.665a.625.625,0,0,1-.619.71.644.644,0,0,1-.692-.7q-.026-1.715,0-3.431a.652.652,0,0,1,.658-.693c.375-.027.642.278.651.734.011.572,0,1.144,0,1.715" transform="translate(-33.835 -179.919)" fill="#321334"/><path d="M40.42,262.662c0,.555.007,1.11,0,1.665-.008.467-.254.75-.632.758a.681.681,0,0,1-.679-.727q-.022-1.69,0-3.38a.666.666,0,0,1,.674-.725c.393,0,.628.267.637.744.01.555,0,1.11,0,1.665" transform="translate(-33.833 -225.223)" fill="#321334"/><path d="M144.033,239.566a2.483,2.483,0,0,1,3.529.664.867.867,0,0,0,.867.461,2.289,2.289,0,0,1,2.261,2.829,1.247,1.247,0,0,1-1.124,1.055c-.426.063-.691.273-.679.721.011.4.347.66.832.583a10.679,10.679,0,0,0,1.265-.357,1.753,1.753,0,0,1-.994,1.654c-.668.344-.744.66-.3,1.271.265.368.534.732.821,1.125l-.668.576c-.607-.306-1.143-.6-1.7-.85a1.026,1.026,0,0,1-.715-1.179.694.694,0,0,0-.4-.874c-.395-.165-.654.032-.879.367a2.185,2.185,0,0,1-2.512.909,1.961,1.961,0,0,1-1.373-2.6c.022-.064.045-.127.067-.19a.6.6,0,0,0-.355-.828.574.574,0,0,0-.835.329,13.358,13.358,0,0,0-.3,1.812,1.642,1.642,0,0,0,.08.477,2.791,2.791,0,0,1-3.054-.778,2.177,2.177,0,0,1,.935-3.387c.779-.362.8-.4.595-1.265a1.3,1.3,0,0,1,.468-1.352,2.673,2.673,0,0,1,3.312-.118,2.293,2.293,0,0,1,.634,1.079c.144.473.335.741.748.71s.616-.3.584-.829a2.863,2.863,0,0,0-1.109-2.013m-2.912,2.274c-.42-.035-.746.1-.82.548a.579.579,0,0,0,.52.733,1.371,1.371,0,0,1,1.328,1.21.594.594,0,0,0,.781.45.617.617,0,0,0,.494-.713,2.549,2.549,0,0,0-2.3-2.228m4.6,1.4c-.474-.01-.767.2-.786.588-.022.455.244.663.665.729.638.1.82.283.945.976a.631.631,0,0,0,.727.6.644.644,0,0,0,.588-.746,2.272,2.272,0,0,0-2.14-2.148" transform="translate(-118.891 -206.919)" fill="#fbeea6"/><path d="M159.805,259.4a2.55,2.55,0,0,1,2.3,2.228.617.617,0,0,1-.494.713.594.594,0,0,1-.781-.45,1.371,1.371,0,0,0-1.328-1.21.579.579,0,0,1-.52-.733c.074-.451.4-.583.82-.549" transform="translate(-137.576 -224.482)" fill="#351333"/><path d="M194.269,269.875a2.272,2.272,0,0,1,2.14,2.148.644.644,0,0,1-.588.746.631.631,0,0,1-.727-.6c-.126-.692-.307-.876-.945-.976-.422-.066-.687-.273-.665-.729.019-.389.311-.6.786-.588" transform="translate(-167.439 -233.549)" fill="#351333"/></g></g></svg>