<svg xmlns="http://www.w3.org/2000/svg" xmlns:xlink="http://www.w3.org/1999/xlink" width="108.82" height="108.82" viewBox="0 0 108.82 108.82"><defs><filter id="a" x="0" y="0" width="108.82" height="108.82" filterUnits="userSpaceOnUse"><feOffset dy="6" input="SourceAlpha"/><feGaussianBlur stdDeviation="4.5" result="b"/><feFlood flood-opacity="0.161"/><feComposite operator="in" in2="b"/><feComposite in="SourceGraphic"/></filter></defs><g transform="translate(-169.68 -544.283)"><g transform="matrix(1, 0, 0, 1, 169.68, 544.28)" filter="url(#a)"><g transform="translate(13.5 7.5)" fill="#fff"><path d="M 40.91015625 71.8203125 C 23.86623573303223 71.8203125 9.999996185302734 57.95407485961914 9.999996185302734 40.91015625 C 9.999996185302734 23.86623573303223 23.86623573303223 9.999996185302734 40.91015625 9.999996185302734 C 57.95407485961914 9.999996185302734 71.8203125 23.86623573303223 71.8203125 40.91015625 C 71.8203125 57.95407485961914 57.95407485961914 71.8203125 40.91015625 71.8203125 Z" stroke="none"/><path d="M 40.91015625 20 C 29.3802490234375 20 20 29.3802490234375 20 40.91015625 C 20 52.4400634765625 29.3802490234375 61.8203125 40.91015625 61.8203125 C 52.4400634765625 61.8203125 61.8203125 52.4400634765625 61.8203125 40.91015625 C 61.8203125 29.3802490234375 52.4400634765625 20 40.91015625 20 M 40.91015625 0 C 63.50421905517578 0 81.8203125 18.31609344482422 81.8203125 40.91015625 C 81.8203125 63.50421905517578 63.50421905517578 81.8203125 40.91015625 81.8203125 C 18.31609344482422 81.8203125 0 63.50421905517578 0 40.91015625 C 0 18.31609344482422 18.31609344482422 0 40.91015625 0 Z" stroke="none" fill="#fff"/></g></g><circle cx="34" cy="34" r="34" transform="translate(190.333 559)" fill="#ced371"/><path d="M41.463,0c.207.059.413.123.622.175a5.655,5.655,0,0,1-.5,11.08,5.4,5.4,0,0,1-2.688-.243c-.266-.093-.4-.074-.543.177-.775,1.37-1.565,2.732-2.372,4.134a11.494,11.494,0,0,1,4.063,14.919l5.33,3.08a4.546,4.546,0,0,1,3.571-1.974,4.353,4.353,0,0,1,3.066,1.04,4.5,4.5,0,0,1-4.693,7.576,4.547,4.547,0,0,1-2.4-5.77l-5.357-3.1a11.461,11.461,0,0,1-14.968,4.043l-1.5,2.6c.434.552.8,1.025,1.175,1.5a6.326,6.326,0,0,1,1.084,6.547,6.254,6.254,0,0,1-5.175,4.139c-.036.006-.065.056-.1.086H18.217a3.964,3.964,0,0,0-.475-.178,6.556,6.556,0,1,1,4.331-12.3l1.654-2.865a11.567,11.567,0,0,1-4.034-14.922l-4.492-2.6a5.828,5.828,0,1,1,.468-.861L20.193,18.9a11.49,11.49,0,0,1,14.925-4.047l2.539-4.388c-.073-.065-.139-.131-.211-.187a5.435,5.435,0,0,1-2.214-5.883A5.422,5.422,0,0,1,39.8.086c.037-.007.065-.056.1-.086ZM22.113,31.961a11.328,11.328,0,0,1,1.335-.684c.532-.19,1.108-.257,1.648-.429a17.788,17.788,0,0,0,2.047-.752.723.723,0,0,0,.148-1.323A4.048,4.048,0,0,1,25.809,26.6a.639.639,0,0,0-.518-.529,2,2,0,0,1-1.2-2.967,1.971,1.971,0,0,0,.3-1.185c-.013-.276-.009-.553,0-.829a4.338,4.338,0,0,1,3.514-4.225,11.425,11.425,0,0,1,1.944-.093,2.632,2.632,0,0,1,1.824.694.6.6,0,0,0,.449.125,2.659,2.659,0,0,1,3.347,2.679c.011.716-.009,1.432.009,2.147a1.337,1.337,0,0,0,.152.594,2.068,2.068,0,0,1-1.26,3.105.677.677,0,0,0-.38.4,4.242,4.242,0,0,1-1.649,2.347.469.469,0,0,0-.22.616,1.3,1.3,0,0,0,.535.636c.791.326,1.609.587,2.425.848.867.278,1.852.273,2.467,1.1a10.431,10.431,0,1,0-15.443-.092M14.766,46.692a3.209,3.209,0,0,1,3.475-2.031c.828.037,1.659,0,2.489.007a2.952,2.952,0,0,1,2.346,1,9.7,9.7,0,0,1,.671,1,5.484,5.484,0,0,0-.665-7.251,5.577,5.577,0,0,0-7.756.068,5.484,5.484,0,0,0-.559,7.214m18.32-24.315-2.557-.9a4.568,4.568,0,0,1-3.918,1.26c0,.939-.012,1.829,0,2.72a3.262,3.262,0,0,0,3.045,3.217,3.146,3.146,0,0,0,3.4-2.636,28.72,28.72,0,0,0,.031-3.659M14.378,16.489a4.662,4.662,0,0,0-7.121-5.957,4.589,4.589,0,0,0-.576,5.9c.016,0,.039,0,.046-.009A1.118,1.118,0,0,0,6.8,16.3a2.655,2.655,0,0,1,2.559-1.459c.7.015,1.4.032,2.1,0a2.788,2.788,0,0,1,2.918,1.65M44.554,8.258c1.353-1.541,1.046-4.44-.609-6a4.682,4.682,0,0,0-6.553.113c-1.566,1.579-1.817,4.483-.488,5.874a2.409,2.409,0,0,1,1.932-1.536,25.871,25.871,0,0,1,3.794,0,2.414,2.414,0,0,1,1.923,1.54M36.871,32.692a3.552,3.552,0,0,0-.728-.447,17.3,17.3,0,0,0-1.791-.453.6.6,0,0,0-.45.157c-.486.455-.942.943-1.423,1.4a.889.889,0,0,1-1.342.01c-.251-.231-.482-.483-.726-.722a.688.688,0,0,0-1.055,0c-.233.227-.455.465-.691.688a.9.9,0,0,1-1.411-.007c-.467-.452-.915-.924-1.387-1.371a.561.561,0,0,0-.4-.172c-.665.145-1.328.308-1.977.512a2.259,2.259,0,0,0-.577.422,10.29,10.29,0,0,0,13.962-.017M25.432,22.1a2.863,2.863,0,0,1,.364-.191,1.656,1.656,0,0,1,.712-.2,3.593,3.593,0,0,0,3.563-1.177.659.659,0,0,1,1.03-.06,3.57,3.57,0,0,0,2.193.815.818.818,0,0,1,.847.592c.025.079.143.128.218.19.051-.087.142-.172.145-.26.016-.406.023-.813,0-1.219a4.871,4.871,0,0,0-.121-.962,1.611,1.611,0,0,0-2.19-1,.7.7,0,0,1-1.035-.255,1.426,1.426,0,0,0-1.264-.613c-.358,0-.715.008-1.073,0-2.044-.055-3.8,1.714-3.393,4.343m-6.2,23.586c0-.013,0-.026,0-.039-.537,0-1.074,0-1.611,0a2.247,2.247,0,0,0-.291.032,1.987,1.987,0,0,0-1.681,1.548.581.581,0,0,0,.268.7,5.563,5.563,0,0,0,6.2.291c.868-.525.989-1.053.29-1.805a2.391,2.391,0,0,0-1.227-.694,10.79,10.79,0,0,0-1.945-.03m32.888-8.017a3.516,3.516,0,0,0-5.515-4.292,3.369,3.369,0,0,0-.451,4.24A2.292,2.292,0,0,1,48.521,36.5a7.989,7.989,0,0,0,1.121,0,2.356,2.356,0,0,1,2.481,1.173M40.551,10.35a5.375,5.375,0,0,0,2.536-.634c.962-.5.725-1.008.176-1.592a1.673,1.673,0,0,0-1.019-.48c-1-.064-2.012-.04-3.018-.017a1.613,1.613,0,0,0-1.45,1.121.575.575,0,0,0,.247.747,4.826,4.826,0,0,0,2.528.855M10.5,18.557a5.247,5.247,0,0,0,2.394-.63c.988-.508.732-1.044.158-1.623a1.8,1.8,0,0,0-1.078-.459c-.954-.064-1.915-.033-2.872-.018A1.625,1.625,0,0,0,7.613,16.9a.6.6,0,0,0,.258.824,4.946,4.946,0,0,0,2.63.837M49.167,37.484A5.031,5.031,0,0,0,48,37.5a2.07,2.07,0,0,0-.923.53c-.263.262-.223.561.164.787a3.484,3.484,0,0,0,3.619.084c.592-.317.63-.726.089-1.145a1.5,1.5,0,0,0-.709-.266,8.636,8.636,0,0,0-1.073-.011m-18.041-7.9h-2.5c-.21.354-.078.643.253.917a6.049,6.049,0,0,1,.748.766c.183.217.311.228.5.006a6.974,6.974,0,0,1,.781-.8c.335-.284.422-.579.216-.887m.81,1.278-.961.929.832.78,1.2-1.187-1.07-.522m-4.1,0-1.06.509,1.184,1.17.827-.746-.951-.933M25.6,25.136V23.078a1.057,1.057,0,0,0,0,2.057m8.562-.037a1,1,0,0,0,.807-1.019.955.955,0,0,0-.807-.96Z" transform="translate(195.075 567.998)" fill="#050505"/></g></svg>