<svg xmlns="http://www.w3.org/2000/svg" xmlns:xlink="http://www.w3.org/1999/xlink" width="150" height="151" viewBox="0 0 150 151"><defs><filter id="a" x="0" y="0" width="150" height="151" filterUnits="userSpaceOnUse"><feOffset dy="6" input="SourceAlpha"/><feGaussianBlur stdDeviation="5" result="b"/><feFlood flood-opacity="0.329"/><feComposite operator="in" in2="b"/><feComposite in="SourceGraphic"/></filter></defs><g transform="translate(-623.167 -3996.063)"><g transform="matrix(1, 0, 0, 1, 623.17, 3996.06)" filter="url(#a)"><ellipse cx="60" cy="60.5" rx="60" ry="60.5" transform="translate(15 9)" fill="#ffb500"/></g><g transform="translate(664.81 4031.603)"><g transform="translate(0 0.688)"><path d="M35.455,5.547a.714.714,0,0,1,1.039.118c1.348,1.313,2.7,2.624,4.116,4a1.091,1.091,0,0,0,.307-.134A6.8,6.8,0,0,1,45.3,8.48c1.534.088,3.078.019,4.671.019A8.373,8.373,0,0,1,54.04,1.893,8.137,8.137,0,0,1,59.921.842a8.36,8.36,0,0,1-1.282,16.568A8.427,8.427,0,0,1,49.967,9.6h-.681c-1.541,0-3.09.094-4.622-.028a6.354,6.354,0,0,0-3.547,1.144,22.565,22.565,0,0,1,3.247,7.763c2.728-.025,5.407-.053,8.087-.074.915-.007.951.06.984.949a14.565,14.565,0,0,1-1.447,7.635c-.2.381-.42.757-.63,1.136,1.327,2.552.949,4.836-1.186,6.938,1.348,0,2.593-.013,3.838,0,2.678.032,2.263-.4,2.275,2.317A14.276,14.276,0,0,1,42.324,51.759c-.866.024-1.734,0-2.648,0v8.944c.216-.493.387-.9.571-1.3a13.869,13.869,0,0,1,11.767-8.539c2.212-.243,4.463-.137,6.7-.194.591-.015.729.314.709.833a15.968,15.968,0,0,1-7.372,13.265,15.337,15.337,0,0,1-6.835,2.5.946.946,0,0,0-.264.123H18.631a2.963,2.963,0,0,0-.448-.179A10.827,10.827,0,0,1,9.356,56.463a5.251,5.251,0,0,0-.456-2,4.492,4.492,0,0,0-4-2.683c-.631-.05-.977-.464-.657-.827a1.176,1.176,0,0,1,.8-.265q7.621-.023,15.243-.009A15.951,15.951,0,0,1,31.77,55.4c.114.111.238.213.455.406V45.88c-.129.344-.206.545-.28.747a6.254,6.254,0,0,1-5.855,4.1,5.983,5.983,0,0,1-5.842-4.059c-.345-1.15-.944-1.383-1.937-1.551A22.41,22.41,0,0,1,.377,27.175c-.1-.582-.25-1.154-.377-1.731V20.885c.173-.856.337-1.715.521-2.569A22.431,22.431,0,0,1,33.3,3.5c.4.217.7.441.536.954-.33.371-.663.262-1.043.053A21.31,21.31,0,0,0,1.2,21.241,20.648,20.648,0,0,0,8.053,38.778a20.334,20.334,0,0,0,19.135,5.063,21.228,21.228,0,0,0,15.4-27.612,19.1,19.1,0,0,0-2.5-5.015l-2.691,1.359a18.251,18.251,0,1,1-.68-.905L39.587,10.2c-1.317-1.278-2.515-2.462-3.742-3.615-.323-.3-.613-.56-.39-1.04M39.9,37.458l4.283-1.983c-.4-.368-.908-.824-1.393-1.306-.36-.357-.635-.35-.923.075l-2.106,3.1-.106.178.245-.068M35.6,12.228a17.115,17.115,0,1,0-1.236,23.146,16.919,16.919,0,0,0,1.9-22.227c-1.194.6-2.4,1.189-3.583,1.822a.829.829,0,0,0-.33.6c-.041.692-.019,1.388-.014,2.082,0,.4-.031.781-.545.784s-.556-.377-.552-.776c.006-.753,0-1.506,0-2.332-.819,0-1.573,0-2.326,0-.4,0-.778-.053-.764-.563s.394-.542.793-.538c.76.009,1.52.015,2.279,0a1.848,1.848,0,0,0,.745-.161c1.2-.591,2.4-1.207,3.633-1.834M32.226,66.186a1.05,1.05,0,0,0,.06-.224c0-2.647.013-5.294-.005-7.941a1.2,1.2,0,0,0-.293-.685,14.741,14.741,0,0,0-11.5-5.554c-3.9-.079-7.812-.018-11.718-.016-.156,0-.313.026-.572.05a6.437,6.437,0,0,1,2.34,5.3,9.567,9.567,0,0,0,9.128,9.108c1.822.038,3.646.014,5.469.013a3.379,3.379,0,0,0,.448-.076,11.689,11.689,0,0,1-4.211-4.054,10.56,10.56,0,0,1-1.581-5.488c0-.389.068-.732.5-.778.455-.049.567.287.59.677A13.513,13.513,0,0,0,21,57.879a9.827,9.827,0,0,0,11.224,8.306m1.26-13.452a3.857,3.857,0,0,0,.356-.26,5.873,5.873,0,0,1,4.57-1.808c1.452.031,2.91.038,4.358-.06a12.821,12.821,0,0,0,10.721-6.689,12.987,12.987,0,0,0,1.631-7.734c-.217-.013-.406-.034-.6-.034-2.018,0-4.037-.049-6.053.008a14.926,14.926,0,0,0-13.225,7.832,12.658,12.658,0,0,0-1.618,4.981c.188-.276.328-.485.471-.692a10.594,10.594,0,0,1,8.654-4.887c.4-.017.852-.042.878.51s-.4.565-.82.581a9.7,9.7,0,0,0-8.825,6.487c-.185.521-.3,1.065-.5,1.765m4.8,13.468a17.78,17.78,0,0,0,2.015-.01A9.714,9.714,0,0,0,48.459,58.8a14.168,14.168,0,0,0,.27-2.12c.034-.433.125-.841.612-.83.5.012.571.446.549.869,0,.087,0,.174,0,.26a10.828,10.828,0,0,1-2.96,6.909c-.827.861-1.811,1.57-2.739,2.36a14.909,14.909,0,0,0,11.1-6.029,14.338,14.338,0,0,0,2.966-8.57c-2.351.131-4.592.125-6.8.412A12.451,12.451,0,0,0,43.892,55.9a15,15,0,0,0-3.625,6.818A6.149,6.149,0,0,1,38.285,66.2M58.319,1.834A7.239,7.239,0,1,0,65.566,9.11a7.224,7.224,0,0,0-7.248-7.275m-15.645,30.9a11.877,11.877,0,0,0,5.853-3A12.391,12.391,0,0,0,52.357,20c-.007-.456-.21-.538-.6-.534-1.433.014-2.866-.024-4.3.016-.92.026-1.838.153-2.842.242a23.05,23.05,0,0,1-1.943,13.005M33.4,66.148c2.066.252,3.383.1,4.62-1.286a2.089,2.089,0,0,0,.5-1.255c.039-3.71.023-7.421.021-11.132,0-.212-.019-.423-.032-.685a4.7,4.7,0,0,0-3.561,1.165,5.147,5.147,0,0,0-1.582,4.234c-.007,2.777,0,5.555,0,8.333,0,.212.019.423.029.626M31.193,43.741a22.823,22.823,0,0,1-10.168,1.747,5.147,5.147,0,0,0,8.5,2.78,5.081,5.081,0,0,0,1.672-4.528M43.842,33.617a4.058,4.058,0,0,0,5.593.551c1.62-1.251,2-3.728,1.1-4.931a13.327,13.327,0,0,1-6.691,4.38m-8.293,7.691c-.72.451-1.371.85-2.01,1.268a.452.452,0,0,0-.164.324c-.014.731-.007,1.463-.007,2.223l2.181-3.815" transform="translate(0 -0.688)"/><path d="M40.825,10.951c-.223.481.067.737.39,1.041,1.227,1.153,2.425,2.337,3.742,3.615l-2.875,1.466a18.265,18.265,0,1,0,.68.905l2.691-1.359a19.1,19.1,0,0,1,2.5,5.015,21.228,21.228,0,0,1-15.4,27.611,20.334,20.334,0,0,1-19.135-5.063A20.648,20.648,0,0,1,6.569,26.646,21.31,21.31,0,0,1,38.162,9.91c.38.21.712.318,1.043-.053l1.621,1.094" transform="translate(-5.37 -6.093)" fill="#a3314f"/><path d="M60.636,37.33c-1.236.628-2.429,1.244-3.633,1.834a1.849,1.849,0,0,1-.745.161c-.759.021-1.519.014-2.279,0-.4,0-.779.033-.793.538s.362.566.764.563c.753-.006,1.507,0,2.326,0,0,.826,0,1.579,0,2.332,0,.4.039.779.553.776s.548-.389.545-.784c-.005-.694-.027-1.39.014-2.082a.83.83,0,0,1,.33-.6C58.9,39.438,60.1,38.85,61.3,38.249A17.1,17.1,0,0,1,34.393,59.306,17.115,17.115,0,1,1,60.636,37.33M43.774,45.443c-.307-.347-.647-.738-1-1.12-.25-.274-.544-.385-.847-.1-.33.315-.206.615.08.895a14.279,14.279,0,0,0,1.206,1.184c.668.513.618,1.152.51,1.88-.841,0-1.642,0-2.442,0-.457,0-.753.232-.6.677a.906.906,0,0,0,.689.4c.79.051,1.586.019,2.344.019a1.794,1.794,0,0,1-.656,2.035,12.161,12.161,0,0,0-1.066,1.048c-.272.269-.454.569-.128.9s.63.181.9-.1c.367-.39.73-.783,1.13-1.213a3.787,3.787,0,0,0,7.111.075,11.1,11.1,0,0,0,1.158,1.139.927.927,0,0,0,.83.117c.364-.236.22-.6-.061-.88a17.347,17.347,0,0,0-1.3-1.279c-.637-.514-.564-1.133-.439-1.835H53.51c.374,0,.731-.058.745-.525.014-.5-.34-.584-.753-.58-.773.008-1.546,0-2.307,0-.162-1.206-.162-1.206.6-1.96a5.511,5.511,0,0,0,.638-.649c.288-.4,1.176-.7.534-1.332-.605-.6-.9.248-1.279.538a4.1,4.1,0,0,0-.576.642l-1.7-2.092c.153-.134.435-.283.556-.516a1.849,1.849,0,0,0,.035-.753,2.038,2.038,0,0,0-.8.021c-.259.122-.43.418-.658.618-.139.122-.311.289-.471.291-.783.013-1.628.158-2.124-.711-.052-.091-.144-.209-.23-.219a6.736,6.736,0,0,0-.765-.019c0,.27-.08.587.033.8s.425.34.57.446l-1.771,2.156M38.633,55.985c0-.853,0-1.646,0-2.44,0-.39-.127-.759-.566-.666a.874.874,0,0,0-.51.645c-.058.948-.015,1.9-.028,2.853-.006.491.214.717.7.715q1.4-.006,2.79,0c.411,0,.769-.1.755-.583-.013-.444-.357-.531-.741-.527-.773.008-1.546,0-2.4,0m.006-15.557c.875,0,1.671,0,2.467,0,.375,0,.667-.135.674-.531.007-.433-.291-.573-.7-.568-.931.012-1.863.018-2.793,0-.566-.012-.772.245-.759.788.02.866.01,1.732,0,2.6,0,.418.022.828.572.823.515,0,.536-.408.537-.793,0-.751,0-1.5,0-2.316M56.275,55.994c-.851,0-1.626,0-2.4,0-.4,0-.7.121-.689.575.013.416.31.526.677.524.932,0,1.865-.006,2.8,0,.484,0,.716-.211.71-.707-.011-.954-.006-1.908,0-2.861,0-.371-.112-.662-.528-.671-.457-.01-.57.3-.567.7.007.779,0,1.558,0,2.444" transform="translate(-25.033 -25.79)" fill="#e2e2e2"/><path d="M71.151,308.527a9.827,9.827,0,0,1-11.224-8.306,13.463,13.463,0,0,1-.123-1.359c-.023-.39-.135-.726-.59-.677-.43.046-.5.389-.5.778a10.557,10.557,0,0,0,1.581,5.488,11.689,11.689,0,0,0,4.211,4.054,3.375,3.375,0,0,1-.448.076c-1.823,0-3.646.025-5.469-.013a9.567,9.567,0,0,1-9.128-9.108,6.438,6.438,0,0,0-2.34-5.3c.259-.023.416-.05.572-.05,3.906,0,7.814-.063,11.718.016a14.741,14.741,0,0,1,11.5,5.554,1.2,1.2,0,0,1,.293.685c.019,2.647.01,5.294.005,7.941a1.05,1.05,0,0,1-.06.224" transform="translate(-38.925 -243.029)" fill="#d7db8d"/><path d="M192.441,220.968c.2-.7.317-1.244.5-1.765a9.7,9.7,0,0,1,8.825-6.487c.415-.016.845-.033.82-.581s-.478-.526-.877-.51a10.6,10.6,0,0,0-8.654,4.887c-.143.207-.283.416-.471.692a12.658,12.658,0,0,1,1.618-4.981,14.925,14.925,0,0,1,13.225-7.831c2.016-.058,4.036-.01,6.053-.008.19,0,.38.021.6.034a12.987,12.987,0,0,1-1.631,7.734,12.821,12.821,0,0,1-10.722,6.69c-1.448.1-2.906.09-4.358.059a5.873,5.873,0,0,0-4.57,1.808,3.832,3.832,0,0,1-.356.259" transform="translate(-158.954 -168.922)" fill="#ced371"/><path d="M220.017,308.1A6.148,6.148,0,0,0,222,304.618a15,15,0,0,1,3.625-6.818,12.452,12.452,0,0,1,7.57-3.844c2.2-.287,4.444-.28,6.8-.412a14.34,14.34,0,0,1-2.966,8.57,14.909,14.909,0,0,1-11.1,6.029c.928-.791,1.912-1.5,2.739-2.361a10.83,10.83,0,0,0,2.96-6.909c.006-.086,0-.174,0-.261.022-.423-.046-.857-.549-.869-.487-.011-.578.4-.612.83a14.189,14.189,0,0,1-.27,2.12,9.714,9.714,0,0,1-8.159,7.394,17.692,17.692,0,0,1-2.015.011" transform="translate(-181.732 -242.585)" fill="#d7db8d"/><path d="M300.8,7.277a7.239,7.239,0,1,1-.03,14.479,7.239,7.239,0,0,1,.03-14.479m-2.08,7.171q0,2.7,0,5.4c0,.833.079.915.874.92.847.005,1.693-.014,2.54.006.583.014.812-.234.81-.818q-.019-5.469,0-10.937c0-.595-.254-.816-.827-.8-.824.022-1.65,0-2.474.006s-.921.1-.922.953q0,2.637,0,5.274" transform="translate(-242.476 -6.13)" fill="#a3314f"/><path d="M245.236,121.876a23.051,23.051,0,0,0,1.943-13.005c1-.089,1.922-.216,2.842-.242,1.432-.04,2.865,0,4.3-.016.39,0,.593.078.6.534a12.39,12.39,0,0,1-3.83,9.733,11.877,11.877,0,0,1-5.853,3" transform="translate(-202.562 -89.83)" fill="#d7db8d"/><path d="M191.795,308.644c-.01-.2-.029-.414-.029-.626,0-2.778-.007-5.555,0-8.333a5.147,5.147,0,0,1,1.582-4.234,4.7,4.7,0,0,1,3.561-1.165c.013.262.032.473.032.685,0,3.711.018,7.421-.021,11.131a2.088,2.088,0,0,1-.5,1.255c-1.237,1.386-2.555,1.538-4.62,1.286" transform="translate(-158.393 -243.184)" fill="#d7db8d"/><path d="M131,248.1a5.08,5.08,0,0,1-1.672,4.527,5.147,5.147,0,0,1-8.5-2.78A22.823,22.823,0,0,0,131,248.1" transform="translate(-99.804 -205.051)" fill="#f7593c"/><path d="M251.951,169.133a13.327,13.327,0,0,0,6.691-4.38c.9,1.2.522,3.68-1.1,4.931a4.058,4.058,0,0,1-5.593-.551" transform="translate(-208.109 -136.204)" fill="#f5593b"/><path d="M228.471,195.058l2.106-3.1c.288-.425.563-.432.923-.075.486.482,1,.938,1.393,1.306l-4.284,1.982-.139-.11" transform="translate(-188.715 -158.398)" fill="#f7f7f7"/><path d="M193.932,234.119l-2.181,3.815c0-.76-.007-1.492.007-2.223a.452.452,0,0,1,.164-.324c.638-.418,1.289-.817,2.01-1.268" transform="translate(-158.383 -193.499)" fill="#d7db8d"/><path d="M228.109,211.476l-.245.068.106-.178.139.11" transform="translate(-188.213 -174.706)" fill="#f7f7f7"/><path d="M92.841,97.433l1.771-2.156c-.145-.106-.452-.225-.57-.446s-.03-.528-.033-.8a6.735,6.735,0,0,1,.765.019c.086.011.178.129.23.219.5.869,1.341.725,2.124.712.16,0,.332-.169.471-.291.228-.2.4-.5.658-.618a2.044,2.044,0,0,1,.8-.021,1.846,1.846,0,0,1-.035.753c-.122.233-.4.382-.556.516l1.7,2.092a4.1,4.1,0,0,1,.576-.642c.38-.29.674-1.136,1.279-.538.642.634-.246.929-.534,1.332a5.511,5.511,0,0,1-.638.649c-.758.754-.758.753-.6,1.96.761,0,1.534.005,2.307,0,.413,0,.767.079.753.58-.013.467-.371.525-.745.525h-2.311c-.125.7-.2,1.321.439,1.835a17.34,17.34,0,0,1,1.3,1.279c.281.281.425.643.061.88a.928.928,0,0,1-.83-.117,11.142,11.142,0,0,1-1.158-1.139,3.787,3.787,0,0,1-7.111-.075c-.4.43-.763.823-1.13,1.213-.269.286-.582.424-.9.1s-.144-.628.128-.9a12.163,12.163,0,0,1,1.066-1.048,1.794,1.794,0,0,0,.656-2.035c-.758,0-1.553.032-2.344-.019a.906.906,0,0,1-.689-.4c-.151-.445.145-.677.6-.677.8,0,1.6,0,2.442,0,.109-.728.158-1.368-.51-1.88a14.281,14.281,0,0,1-1.206-1.185c-.286-.28-.41-.58-.081-.895.3-.289.6-.178.847.1.349.382.688.773,1,1.12m6.246,1.876H97.093v6a2.355,2.355,0,0,0,1.977-2.2c.074-1.245.017-2.5.017-3.792m-5.154-.057c0,1.1-.01,2.109,0,3.116a5.464,5.464,0,0,0,.112,1.157,2.188,2.188,0,0,0,1.886,1.728V99.3c-.16-.018-.285-.042-.41-.043-.5,0-.991,0-1.594,0m5-1.2a2.444,2.444,0,0,0-2.463-1.983,2.408,2.408,0,0,0-2.363,1.983Z" transform="translate(-74.1 -77.78)" fill="#313030"/><path d="M72.9,159.4c.854,0,1.627.005,2.4,0,.385,0,.728.083.741.527.014.485-.345.585-.755.583q-1.4-.007-2.79,0c-.485,0-.706-.224-.7-.715.012-.951-.03-1.905.028-2.853a.874.874,0,0,1,.51-.645c.439-.093.566.276.566.666,0,.794,0,1.588,0,2.44" transform="translate(-59.298 -129.204)" fill="#2f2f2f"/><path d="M72.911,79.588c0,.814,0,1.565,0,2.316,0,.385-.022.788-.537.793-.55.005-.575-.4-.572-.823.007-.866.017-1.732,0-2.6-.013-.543.193-.8.759-.788.931.02,1.862.014,2.793,0,.408-.005.707.135.7.568-.006.4-.3.534-.673.532-.8-.006-1.591,0-2.467,0" transform="translate(-59.304 -64.95)" fill="#2e2e2e"/><path d="M164.866,159.356c0-.886.005-1.665,0-2.444,0-.4.109-.707.567-.7.416.009.53.3.528.671-.005.954-.01,1.908,0,2.861.006.5-.226.71-.71.707-.932-.006-1.865,0-2.8,0-.367,0-.664-.109-.677-.524-.015-.454.288-.578.689-.575.775.006,1.551,0,2.4,0" transform="translate(-133.624 -129.152)" fill="#2e2e2e"/><path d="M323.19,18.9q0-2.637,0-5.274c0-.853.1-.95.922-.953s1.65.015,2.474-.006c.574-.015.829.206.827.8q-.019,5.469,0,10.937c0,.584-.227.832-.81.818-.846-.02-1.693,0-2.54-.006-.8,0-.873-.086-.874-.919q0-2.7,0-5.4m3.047-5.067h-1.905v7.154h1.905ZM324.3,24.081h1.944V22.139H324.3Z" transform="translate(-266.951 -10.582)" fill="#313131"/><path d="M134.13,124.409c0,1.293.057,2.547-.017,3.792a2.355,2.355,0,0,1-1.977,2.2v-6Z" transform="translate(-109.143 -102.88)" fill="#a3314f"/><path d="M113.962,124.077c.6,0,1.1,0,1.594,0,.125,0,.25.026.41.044v5.955a2.188,2.188,0,0,1-1.886-1.728,5.467,5.467,0,0,1-.112-1.157c-.015-1.008-.005-2.016-.005-3.116" transform="translate(-94.128 -102.605)" fill="#a3314f"/><path d="M119.822,107.794H115a2.408,2.408,0,0,1,2.363-1.982,2.444,2.444,0,0,1,2.463,1.982" transform="translate(-94.985 -87.518)" fill="#ffb500"/><rect width="1.905" height="7.154" transform="translate(57.381 3.25)" fill="#fdfdfd"/><rect width="1.944" height="1.942" transform="translate(57.351 11.557)" fill="#f0f0f0"/></g></g></g></svg>