<svg xmlns="http://www.w3.org/2000/svg" xmlns:xlink="http://www.w3.org/1999/xlink" width="108.82" height="108.82" viewBox="0 0 108.82 108.82"><defs><filter id="a" x="0" y="0" width="108.82" height="108.82" filterUnits="userSpaceOnUse"><feOffset dy="6" input="SourceAlpha"/><feGaussianBlur stdDeviation="4.5" result="b"/><feFlood flood-opacity="0.161"/><feComposite operator="in" in2="b"/><feComposite in="SourceGraphic"/></filter></defs><g transform="translate(-169.68 -780.283)"><g transform="matrix(1, 0, 0, 1, 169.68, 780.28)" filter="url(#a)"><g transform="translate(13.5 7.5)" fill="#fff"><path d="M 40.91015625 71.8203125 C 23.86623573303223 71.8203125 9.999996185302734 57.95407485961914 9.999996185302734 40.91015625 C 9.999996185302734 23.86623573303223 23.86623573303223 9.999996185302734 40.91015625 9.999996185302734 C 57.95407485961914 9.999996185302734 71.8203125 23.86623573303223 71.8203125 40.91015625 C 71.8203125 57.95407485961914 57.95407485961914 71.8203125 40.91015625 71.8203125 Z" stroke="none"/><path d="M 40.91015625 20 C 29.3802490234375 20 20 29.3802490234375 20 40.91015625 C 20 52.4400634765625 29.3802490234375 61.8203125 40.91015625 61.8203125 C 52.4400634765625 61.8203125 61.8203125 52.4400634765625 61.8203125 40.91015625 C 61.8203125 29.3802490234375 52.4400634765625 20 40.91015625 20 M 40.91015625 0 C 63.50421905517578 0 81.8203125 18.31609344482422 81.8203125 40.91015625 C 81.8203125 63.50421905517578 63.50421905517578 81.8203125 40.91015625 81.8203125 C 18.31609344482422 81.8203125 0 63.50421905517578 0 40.91015625 C 0 18.31609344482422 18.31609344482422 0 40.91015625 0 Z" stroke="none" fill="#fff"/></g></g><circle cx="34" cy="34" r="34" transform="translate(190.333 795)" fill="#ced371"/><g transform="translate(174.225 809.093)"><g transform="translate(33.693)"><path d="M56.409,0c.114.038.227.079.342.113a2.454,2.454,0,0,1,1.3,3.817c-1.04,1.419-2.1,2.823-3.155,4.234-.113.151-.222.306-.36.5A2.592,2.592,0,0,1,56.3,9.68a2.508,2.508,0,0,1,.476,1.9c1.9.507,2.359,1.022,2.537,2.8a6.914,6.914,0,0,1,.91.186A2.465,2.465,0,0,1,61.4,18.376c-1.355,1.831-2.722,3.652-4.084,5.477l-.164.223c.15.01.257.022.365.022q2.954,0,5.907,0a2.907,2.907,0,0,1,3.1,3.078q0,4.8,0,9.6a2.865,2.865,0,0,1-2.449,2.98c-.017,0-.028.038-.042.058H61.542l-.39-.606a.7.7,0,0,1,.829-.565c.293.02.589,0,.884-.008.142,0,.285,0,.427.014a1.871,1.871,0,0,0,2.08-2.07c-.052-2.992-.064-5.986,0-8.977.035-1.551-.646-2.5-2.433-2.333-.026,0-.051.008-.077.012-2.228,0-4.456-.013-6.685-.007a.731.731,0,0,0-.4.18,9.334,9.334,0,0,1-11.8,0,.9.9,0,0,0-.518-.182c-2.242-.012-4.483-.01-6.725-.007a1.737,1.737,0,0,0-1.866,1.868q0,4.819,0,9.639a2.228,2.228,0,0,0,.043.5,1.753,1.753,0,0,0,1.863,1.371h22.04c.545,0,.676.091.824.567l-.429.6H36.033c-.112-.05-.221-.111-.337-.15a2.887,2.887,0,0,1-1.994-2.73q-.014-4.975,0-9.951a2.877,2.877,0,0,1,2.9-2.88c1.853-.012,3.706,0,5.559,0H42.6c-.08-.121-.127-.2-.185-.28a11.319,11.319,0,0,1-1.82-4.2c-.706-2.753-1.458-5.495-2.187-8.242a3.115,3.115,0,0,1,1.715-3.434,1.724,1.724,0,0,1,2.145.689c.888,1.194,1.765,2.4,2.647,3.6.1.134.2.264.335.437.1-.129.193-.231.274-.338q1.557-2.06,3.114-4.122c.3-.4.464-.439.931-.268.306.415.305.566-.017.993Q47.972,11.017,46.4,13.1a1.275,1.275,0,0,1-2.222.12c-.954-1.306-1.9-2.615-2.865-3.916a.606.606,0,0,0-1-.127,3.429,3.429,0,0,0-.412.453,1.67,1.67,0,0,0-.349,1.551c.809,2.994,1.6,5.993,2.4,8.991a8,8,0,0,0,4.308,5.358,7.7,7.7,0,0,0,4.787.749,1.558,1.558,0,0,0,.231-.009,7.785,7.785,0,0,0,4.856-2.825c1.505-1.91,2.933-3.881,4.382-5.835a1.222,1.222,0,0,0-.2-1.651,1.263,1.263,0,0,0-1.656-.112,4.744,4.744,0,0,0-.366.389q-.839,1.111-1.664,2.233c-.211.287-.459.463-.822.3-.307-.139-.383-.435-.241-.861.77-1.021,1.546-2.037,2.307-3.065a1.218,1.218,0,0,0-.127-1.625,1.3,1.3,0,0,0-1.657-.207,3.935,3.935,0,0,0-.374.378c-.552.727-1.1,1.461-1.64,2.194a.588.588,0,0,1-.8.227c-.342-.173-.38-.509-.128-.964.76-1.009,1.531-2.011,2.276-3.031a1.218,1.218,0,0,0-.241-1.642,1.274,1.274,0,0,0-1.658-.07q-.711.907-1.422,1.815c-.26.333-.546.438-.825.27a.6.6,0,0,1-.227-.837Q54.09,7.277,57.136,3.2a1.235,1.235,0,0,0-.185-1.655,1.257,1.257,0,0,0-1.717-.075,4.079,4.079,0,0,0-.285.307c-1.169,1.543-2.34,3.083-3.5,4.635a.72.72,0,0,1-.922.333c-.353-.415-.361-.58-.032-1.016,1.188-1.575,2.387-3.142,3.562-4.727A3.382,3.382,0,0,1,55.476,0Z" transform="translate(-33.693)" fill="#030302"/><path d="M168.048,0a.866.866,0,0,1,.406.771c.022.579.1,1.155.136,1.734.026.428-.183.681-.539.7s-.588-.213-.624-.632c-.043-.514-.069-1.03-.136-1.54A1.1,1.1,0,0,1,167.581,0Z" transform="translate(-153.42)" fill="#050505"/><path d="M101.11,24.082a.6.6,0,0,0,.227.837c.279.167.565.063.825-.27q.71-.908,1.422-1.815a5.137,5.137,0,0,1,.318.842,2.1,2.1,0,0,1-.678,1.767,3.336,3.336,0,0,0-.612.922c-.2.558.2.9.595,1.212-.252.455-.213.791.128.964a.588.588,0,0,0,.8-.227c.545-.733,1.088-1.466,1.64-2.194a3.936,3.936,0,0,1,.374-.378.687.687,0,0,0,.029.151,1.93,1.93,0,0,1-.3,2.282,7.423,7.423,0,0,0-.717,1,.893.893,0,0,0,.131,1.159c.108.106.223.205.335.308-.141.426-.066.722.241.861.363.165.611-.011.822-.3q.826-1.121,1.665-2.233a4.746,4.746,0,0,1,.366-.389,1.881,1.881,0,0,1-.167,2.33q-1.676,2.222-3.33,4.46a10.351,10.351,0,0,1-2.493,2.673c-.527.346-1.083.647-1.626.968a7.7,7.7,0,0,1-4.787-.749A8,8,0,0,1,92.015,32.9c-.8-3-1.589-6-2.4-8.991a1.67,1.67,0,0,1,.349-1.551c.558.766,1.144,1.514,1.666,2.3.629.952,1.372,1.6,2.61,1.287a1.276,1.276,0,0,0,2.222-.12q1.575-2.085,3.151-4.17c.322-.427.323-.578.017-.993l.969-1.19a.72.72,0,0,0,.922-.333c1.156-1.552,2.328-3.093,3.5-4.635a4.075,4.075,0,0,1,.285-.307,1.616,1.616,0,0,1,.016,2.124c-1.474,1.985-2.962,3.959-4.446,5.936-.277.369-.553.755-.3,1.229a3.209,3.209,0,0,0,.534.588" transform="translate(-83.761 -12.732)" fill="#fddece"/><path d="M135.868,15.176a2.511,2.511,0,0,1,.446.224c.617.512,1.231,1.028,1.832,1.557a.553.553,0,0,1,.07.826.578.578,0,0,1-.834.045c-.618-.511-1.24-1.018-1.82-1.569a.774.774,0,0,1-.157-.648c.047-.175.3-.294.462-.435" transform="translate(-124.844 -13.602)" fill="#050505"/><path d="M126.96,48.768c.509-.02.769.164.793.528.025.383-.222.6-.7.64-.568.044-1.134.1-1.7.143-.484.035-.769-.161-.8-.529s.236-.6.711-.637c.581-.046,1.161-.1,1.7-.146" transform="translate(-115.126 -43.71)" fill="#050505"/><path d="M71.269,257.628l-1.514.006c-.149-.475-.28-.567-.824-.567H46.89a1.753,1.753,0,0,1-1.863-1.371,2.229,2.229,0,0,1-.043-.5q0-4.819,0-9.639a1.737,1.737,0,0,1,1.866-1.868c2.242,0,4.483,0,6.725.007a.9.9,0,0,1,.518.182,9.334,9.334,0,0,0,11.8,0,.731.731,0,0,1,.4-.18c2.228-.006,4.456,0,6.685.007a2.786,2.786,0,0,1,.777,2.151c0,3.028,0,6.057,0,9.085a2.8,2.8,0,0,1-.775,2.117c-.295,0-.591.028-.884.008a.7.7,0,0,0-.829.565M59.495,253.3l-.077-.082a1.658,1.658,0,0,0-.045-.189q-1.026-2.825-2.057-5.647a.707.707,0,0,0-1.318.011q-1.038,2.8-2.063,5.6a.582.582,0,1,0,1.086.41c.105-.25.173-.518.3-.756a.465.465,0,0,1,.323-.226q1.01-.032,2.021,0a.46.46,0,0,1,.32.229c.133.264.2.559.326.829a.5.5,0,0,0,.673.3c.2-.086.345-.318.514-.485m3.754.519a2.262,2.262,0,0,0,1.923-.9,1.859,1.859,0,0,0-.751-2.841c-.571-.3-1.185-.51-1.775-.774a.561.561,0,0,1-.1-1.016,1.206,1.206,0,0,1,.5-.174,1.889,1.889,0,0,1,1.34.407.576.576,0,0,0,.88-.11.588.588,0,0,0-.212-.84,3.03,3.03,0,0,0-2.223-.617,1.872,1.872,0,0,0-1.673,2.293,1.447,1.447,0,0,0,.87,1.069c.608.253,1.217.5,1.814.78a.745.745,0,0,1,.522.744.846.846,0,0,1-.651.738,1.226,1.226,0,0,1-.34.062,1.973,1.973,0,0,1-1.538-.606.585.585,0,1,0-.819.822,3.1,3.1,0,0,0,2.226.96m-13.2-5.7c.624,0,1.219.011,1.813,0a.569.569,0,0,0,.587-.592.559.559,0,0,0-.572-.563c-.816-.012-1.632-.014-2.448,0a.527.527,0,0,0-.56.569q-.011,2.856,0,5.712a.5.5,0,0,0,.482.557c.867.025,1.737.035,2.6-.012.172-.009.4-.27.475-.463a.475.475,0,0,0-.34-.611,1.409,1.409,0,0,0-.457-.061c-.526-.007-1.051,0-1.58,0v-1.66c.521,0,1.023,0,1.524,0,.437-.005.716-.252.7-.606s-.273-.554-.7-.558c-.5-.005-1,0-1.524,0Zm19.153,1.14c-.442-.675-.85-1.3-1.265-1.929-.253-.381-.58-.474-.882-.265a.607.607,0,0,0-.1.893,16.326,16.326,0,0,0,.92,1.393,3.194,3.194,0,0,1,.751,2.508,9.2,9.2,0,0,0-.01,1.243c0,.468.2.713.578.712s.584-.254.588-.712c.006-.752-.011-1.5.014-2.255a1.358,1.358,0,0,1,.2-.642c.463-.749.956-1.478,1.432-2.219.246-.382.2-.723-.105-.918s-.622-.1-.877.29c-.406.615-.806,1.235-1.239,1.9" transform="translate(-43.811 -218.419)" fill="#e77a97"/><path d="M315.036,256.925a2.8,2.8,0,0,0,.775-2.117c0-3.028,0-6.057,0-9.085a2.787,2.787,0,0,0-.777-2.151c.026,0,.051-.01.077-.012,1.787-.165,2.468.781,2.433,2.332-.068,2.991-.055,5.985,0,8.977a1.871,1.871,0,0,1-2.08,2.07c-.141-.013-.284-.01-.427-.014" transform="translate(-285.865 -218.29)" fill="#a3314f"/><path d="M201.022,161.052c.543-.321,1.1-.622,1.626-.968a10.351,10.351,0,0,0,2.493-2.673q1.658-2.236,3.33-4.461a1.881,1.881,0,0,0,.167-2.33,1.263,1.263,0,0,1,1.656.112,1.222,1.222,0,0,1,.2,1.651c-1.449,1.954-2.877,3.925-4.382,5.835a7.785,7.785,0,0,1-4.856,2.825,1.559,1.559,0,0,1-.231.009" transform="translate(-183.673 -134.772)" fill="#fccbbd"/><path d="M195.52,21.463a3.209,3.209,0,0,1-.534-.588c-.255-.474.02-.86.3-1.229,1.484-1.977,2.972-3.952,4.446-5.936a1.616,1.616,0,0,0-.016-2.124,1.257,1.257,0,0,1,1.717.075,1.235,1.235,0,0,1,.185,1.655q-3.039,4.08-6.094,8.147" transform="translate(-178.171 -10.113)" fill="#fcccbd"/><path d="M239.256,128.553c-.112-.1-.226-.2-.335-.308a.893.893,0,0,1-.131-1.159,7.433,7.433,0,0,1,.717-1,1.93,1.93,0,0,0,.3-2.282.687.687,0,0,1-.029-.151,1.3,1.3,0,0,1,1.658.207,1.218,1.218,0,0,1,.127,1.626c-.761,1.028-1.537,2.044-2.306,3.065" transform="translate(-217.385 -110.647)" fill="#fcccbd"/><path d="M215.635,99.8c-.4-.308-.8-.654-.595-1.212a3.34,3.34,0,0,1,.612-.922,2.1,2.1,0,0,0,.678-1.767,5.135,5.135,0,0,0-.318-.842,1.274,1.274,0,0,1,1.658.07,1.218,1.218,0,0,1,.241,1.642c-.745,1.02-1.516,2.022-2.276,3.031" transform="translate(-196.189 -84.96)" fill="#fbcbbc"/><path d="M97.812,90.79c-1.238.316-1.98-.335-2.61-1.287-.522-.79-1.108-1.537-1.666-2.3a3.429,3.429,0,0,1,.412-.453.606.606,0,0,1,1,.127c.961,1.3,1.911,2.61,2.865,3.916" transform="translate(-87.331 -77.569)" fill="#fccbbc"/><path d="M136.485,281.387c-.169.167-.311.4-.514.485a.505.505,0,0,1-.673-.3c-.123-.27-.193-.565-.326-.829a.46.46,0,0,0-.32-.229q-1.01-.032-2.021,0a.465.465,0,0,0-.323.226c-.125.239-.193.506-.3.757a.582.582,0,1,1-1.086-.41q1.022-2.805,2.063-5.6a.707.707,0,0,1,1.318-.011q1.036,2.821,2.057,5.647a1.615,1.615,0,0,1,.045.189l.077.082m-2.018-2.072-.82-2.258-.828,2.258Z" transform="translate(-120.801 -246.507)" fill="#040202"/><path d="M199.938,281.87a3.094,3.094,0,0,1-2.225-.96.585.585,0,1,1,.819-.822,1.973,1.973,0,0,0,1.538.606,1.224,1.224,0,0,0,.34-.062.846.846,0,0,0,.651-.738.746.746,0,0,0-.522-.744c-.6-.277-1.207-.528-1.815-.78a1.447,1.447,0,0,1-.87-1.069,1.872,1.872,0,0,1,1.673-2.293,3.03,3.03,0,0,1,2.223.617.587.587,0,0,1,.212.84.576.576,0,0,1-.88.111,1.889,1.889,0,0,0-1.34-.407,1.205,1.205,0,0,0-.5.174.561.561,0,0,0,.1,1.016c.589.264,1.2.476,1.774.774a1.859,1.859,0,0,1,.751,2.841,2.262,2.262,0,0,1-1.923.9" transform="translate(-180.5 -246.471)" fill="#040203"/><path d="M83.628,276.33v1.7c.521,0,1.023,0,1.524,0,.429,0,.69.217.7.558s-.266.6-.7.606c-.5.006-1,0-1.524,0v1.66c.529,0,1.055,0,1.58,0a1.4,1.4,0,0,1,.457.061.475.475,0,0,1,.34.611c-.072.194-.3.454-.475.463-.865.047-1.735.038-2.6.012a.5.5,0,0,1-.482-.557q-.007-2.856,0-5.712a.527.527,0,0,1,.561-.569c.816-.015,1.632-.013,2.448,0a.559.559,0,0,1,.572.563.569.569,0,0,1-.587.592c-.594.015-1.188,0-1.813,0" transform="translate(-77.387 -246.632)" fill="#030202"/><path d="M257.929,277.524c.434-.666.833-1.285,1.239-1.9.255-.387.568-.487.877-.29s.351.536.105.918c-.476.74-.97,1.47-1.432,2.219a1.358,1.358,0,0,0-.2.642c-.024.751-.008,1.5-.014,2.255,0,.458-.218.712-.588.712s-.575-.245-.578-.712a9.2,9.2,0,0,1,.01-1.243,3.194,3.194,0,0,0-.751-2.508,16.333,16.333,0,0,1-.92-1.393.607.607,0,0,1,.1-.893c.3-.209.629-.116.882.265.415.624.823,1.254,1.265,1.929" transform="translate(-232.535 -246.685)" fill="#040202"/><path d="M151.259,296.9h-1.647l.828-2.258.82,2.258" transform="translate(-137.593 -264.094)" fill="#ee8693"/></g></g></g></svg>