<svg xmlns="http://www.w3.org/2000/svg" xmlns:xlink="http://www.w3.org/1999/xlink" width="108.82" height="108.82" viewBox="0 0 108.82 108.82"><defs><filter id="a" x="0" y="0" width="108.82" height="108.82" filterUnits="userSpaceOnUse"><feOffset dy="6" input="SourceAlpha"/><feGaussianBlur stdDeviation="4.5" result="b"/><feFlood flood-opacity="0.161"/><feComposite operator="in" in2="b"/><feComposite in="SourceGraphic"/></filter></defs><g transform="translate(-166.5 -1333.153)"><g transform="matrix(1, 0, 0, 1, 166.5, 1333.15)" filter="url(#a)"><g transform="translate(13.5 7.5)" fill="#fff"><path d="M 40.91015625 71.8203125 C 23.86623573303223 71.8203125 9.999996185302734 57.95407485961914 9.999996185302734 40.91015625 C 9.999996185302734 23.86623573303223 23.86623573303223 9.999996185302734 40.91015625 9.999996185302734 C 57.95407485961914 9.999996185302734 71.8203125 23.86623573303223 71.8203125 40.91015625 C 71.8203125 57.95407485961914 57.95407485961914 71.8203125 40.91015625 71.8203125 Z" stroke="none"/><path d="M 40.91015625 20 C 29.3802490234375 20 20 29.3802490234375 20 40.91015625 C 20 52.4400634765625 29.3802490234375 61.8203125 40.91015625 61.8203125 C 52.4400634765625 61.8203125 61.8203125 52.4400634765625 61.8203125 40.91015625 C 61.8203125 29.3802490234375 52.4400634765625 20 40.91015625 20 M 40.91015625 0 C 63.50421905517578 0 81.8203125 18.31609344482422 81.8203125 40.91015625 C 81.8203125 63.50421905517578 63.50421905517578 81.8203125 40.91015625 81.8203125 C 18.31609344482422 81.8203125 0 63.50421905517578 0 40.91015625 C 0 18.31609344482422 18.31609344482422 0 40.91015625 0 Z" stroke="none" fill="#fff"/></g></g><circle cx="34" cy="34" r="34" transform="translate(187.333 1348)" fill="#ced371"/><g transform="translate(201.901 1362.568)"><path d="M77.98,12.193q-1.618,1.6-3.219,3.219a.744.744,0,0,0,.009,1.166c.282.288.584.557.866.825-.122.266-.228.481-.319.7-.15.359-.2.868-.462,1.043-.286.188-.777.062-1.179.076a.785.785,0,0,0-.843.861q-.01,2.238,0,4.477a.788.788,0,0,0,.876.866c.316.006.633-.008.948.007.095,0,.241.055.27.123.235.552.448,1.113.677,1.7-.263.256-.539.517-.8.787a.759.759,0,0,0-.015,1.22q1.577,1.589,3.165,3.165a.758.758,0,0,0,1.219-.01c.277-.275.537-.567.794-.841.283.129.51.237.74.337.355.153.854.208,1.031.476s.043.758.054,1.149a.774.774,0,0,0,.822.842q2.276.015,4.552,0a.774.774,0,0,0,.826-.839c.009-.329-.007-.658.008-.986,0-.095.056-.24.125-.27.552-.235,1.114-.447,1.7-.676.264.271.532.557.813.83a.747.747,0,0,0,1.167.017q1.619-1.6,3.219-3.219a.746.746,0,0,0-.01-1.167c-.281-.289-.582-.558-.866-.828.132-.286.248-.524.353-.766.148-.344.2-.827.458-1s.733-.044,1.112-.052a.789.789,0,0,0,.88-.862q.011-2.238,0-4.477a.788.788,0,0,0-.877-.865c-.316-.006-.633.008-.948-.007-.095,0-.24-.055-.27-.124-.235-.552-.448-1.113-.676-1.691.274-.268.559-.537.831-.818a.749.749,0,0,0,.015-1.168Q93.42,13.8,91.8,12.2a.744.744,0,0,0-1.166.012c-.288.282-.557.584-.824.866m-7.573-8.7a.747.747,0,0,0-.876-.822,17.484,17.484,0,0,0-4.223,1.283.717.717,0,0,0-.392.947.714.714,0,0,0,.954.442,22.056,22.056,0,0,1,3.973-1.21.678.678,0,0,0,.565-.64m2.639.355a.748.748,0,0,0,.77-.757.758.758,0,1,0-1.517.015.748.748,0,0,0,.747.743" transform="translate(-65.457 -2.894)" fill="#fdfdfd"/><path d="M5.086,0C6.435.783,7.78,1.575,9.137,2.344a1.024,1.024,0,0,1,.586,1c-.02,1.453-.015,2.906,0,4.36a.922.922,0,0,1-.515.889Q7.282,9.69,5.373,10.808a.915.915,0,0,1-1.025,0C3.078,10.06,1.793,9.336.523,8.588A3.5,3.5,0,0,1,0,8.122V2.884a4.63,4.63,0,0,1,.635-.55C1.96,1.545,3.3.776,4.63,0ZM7.438,3.126c-.849-.491-1.632-.947-2.421-1.394a.331.331,0,0,0-.273-.021c-.81.456-1.613.924-2.461,1.414.846.49,1.638.953,2.437,1.4a.366.366,0,0,0,.3-.011c.79-.445,1.573-.9,2.414-1.39M5.617,8.908C6.47,8.417,7.269,7.963,8.06,7.5a.324.324,0,0,0,.131-.237C8.2,6.341,8.2,5.423,8.2,4.446c-.853.491-1.662.949-2.46,1.424a.379.379,0,0,0-.115.284c-.009.9-.005,1.795-.005,2.754M1.518,4.44c0,.979,0,1.889.005,2.8a.328.328,0,0,0,.116.245c.8.472,1.607.933,2.459,1.423,0-.975,0-1.893-.007-2.811a.365.365,0,0,0-.162-.256c-.779-.462-1.566-.911-2.411-1.4" fill="#010202"/><path d="M297.673,8.122a6,6,0,0,1-.717.584c-1.193.707-2.4,1.384-3.6,2.089a.968.968,0,0,1-1.093-.005q-1.887-1.117-3.8-2.195a.918.918,0,0,1-.516-.887q.017-2.218,0-4.435a.922.922,0,0,1,.52-.885C289.849,1.6,291.217.8,292.588,0h.455c1.323.767,2.651,1.527,3.966,2.309a4.814,4.814,0,0,1,.664.576Zm-2.278-5c-.849-.491-1.632-.947-2.421-1.394a.331.331,0,0,0-.273-.021c-.81.456-1.613.924-2.462,1.414.846.49,1.637.953,2.436,1.4a.366.366,0,0,0,.3-.011c.79-.445,1.573-.9,2.414-1.39m-1.821,5.784c.849-.489,1.637-.939,2.419-1.4a.328.328,0,0,0,.155-.222c.011-.929.007-1.858.007-2.843-.849.489-1.646.943-2.435,1.412a.365.365,0,0,0-.139.269c-.01.908-.006,1.816-.006,2.784m-4.1-4.467c0,.739.052,1.422-.015,2.093a1.155,1.155,0,0,0,.767,1.336c.623.282,1.2.671,1.829,1.033,0-.959,0-1.856-.005-2.753a.38.38,0,0,0-.115-.284c-.8-.475-1.606-.933-2.46-1.425" transform="translate(-258.81)" fill="#010202"/><path d="M0,278.493a5.53,5.53,0,0,1,.679-.557c1.216-.718,2.448-1.409,3.664-2.127a.915.915,0,0,1,1.025-.006q1.909,1.119,3.833,2.213a.922.922,0,0,1,.519.887q-.018,2.219,0,4.437a.928.928,0,0,1-.518.889c-1.375.79-2.745,1.589-4.117,2.385H4.63c-1.333-.776-2.67-1.545-4-2.334A4.62,4.62,0,0,1,0,283.73v-5.237m7.438.264c-.832-.482-1.626-.944-2.424-1.4a.3.3,0,0,0-.237-.036c-.824.465-1.642.941-2.493,1.433.834.484,1.616.942,2.4,1.388a.363.363,0,0,0,.3.019c.81-.453,1.611-.921,2.449-1.4m.76,1.318c-.849.489-1.646.945-2.436,1.411a.321.321,0,0,0-.138.23c-.01.918-.006,1.836-.006,2.823.865-.5,1.681-.963,2.489-1.443.061-.036.087-.173.088-.264.006-.9,0-1.793,0-2.757m-4.1,4.462c0-.779-.044-1.5.014-2.208a1.025,1.025,0,0,0-.668-1.163c-.654-.308-1.263-.71-1.927-1.091,0,.969,0,1.878,0,2.787a.334.334,0,0,0,.112.249c.8.472,1.605.932,2.463,1.426" transform="translate(0 -247.751)" fill="#010202"/><path d="M292.574,286.613c-1.36-.79-2.716-1.587-4.082-2.365a.973.973,0,0,1-.554-.943c.016-1.466.013-2.931,0-4.4a.917.917,0,0,1,.514-.888q1.924-1.09,3.831-2.211a.915.915,0,0,1,1.025-.009c1.272.746,2.557,1.47,3.824,2.224a2.865,2.865,0,0,1,.526.544v5.162a4.823,4.823,0,0,1-.664.576c-1.315.782-2.643,1.541-3.966,2.309Zm-2.348-7.861c.829.481,1.611.94,2.4,1.384a.4.4,0,0,0,.334.012c.8-.449,1.594-.913,2.422-1.393-.837-.484-1.642-.952-2.453-1.409a.32.32,0,0,0-.267.008c-.8.451-1.595.913-2.437,1.4m3.335,5.784c.856-.493,1.661-.954,2.462-1.422a.25.25,0,0,0,.113-.175c.007-.939,0-1.878,0-2.867-.852.491-1.648.946-2.439,1.412a.322.322,0,0,0-.135.232c-.009.917-.006,1.835-.006,2.818m-4.1-4.466c0,.97,0,1.878,0,2.786a.335.335,0,0,0,.11.251c.8.473,1.606.932,2.465,1.427,0-.993,0-1.922-.007-2.851a.331.331,0,0,0-.16-.219c-.781-.459-1.568-.908-2.413-1.394" transform="translate(-258.796 -247.75)" fill="#010202"/><path d="M0,114.167c.709-.642,1.4-1.3,2.132-1.919a.721.721,0,0,1,1.15.339c.318.727.619,1.462.909,2.2a.732.732,0,0,1-.421.995.741.741,0,0,1-.969-.417c-.055-.111-.106-.223-.183-.384A18.012,18.012,0,0,0,3.285,127.2a.771.771,0,0,1-.167.966.667.667,0,0,1-.841.092,1.048,1.048,0,0,1-.375-.451A19.268,19.268,0,0,1,.584,117.093c.049-.312.108-.622.17-.931s.133-.613.208-.959A.975.975,0,0,1,0,114.7v-.531" transform="translate(0 -100.732)" fill="#030303"/><path d="M114.2,346.146c-.639-.705-1.294-1.4-1.912-2.121a.713.713,0,0,1,.252-1.123c.769-.348,1.553-.666,2.34-.97a.722.722,0,0,1,.931.433.738.738,0,0,1-.335.943c-.129.074-.27.129-.459.217a17.217,17.217,0,0,0,3.924.721,17.945,17.945,0,0,0,8.292-1.384.775.775,0,0,1,.968.159.667.667,0,0,1,.1.841,1.041,1.041,0,0,1-.448.38,19.013,19.013,0,0,1-9.517,1.469c-1.026-.1-2.043-.306-3.091-.467a.95.95,0,0,1-.51.9Z" transform="translate(-100.769 -307.283)" fill="#030303"/><path d="M346.135,125.095c-.708.642-1.4,1.3-2.129,1.92a.715.715,0,0,1-1.12-.27c-.346-.769-.666-1.552-.968-2.339a.722.722,0,0,1,.443-.926.737.737,0,0,1,.94.344c.073.129.128.269.215.456a17.5,17.5,0,0,0,.722-3.967,17.944,17.944,0,0,0-1.385-8.249.775.775,0,0,1,.155-.968.666.666,0,0,1,.839-.1,1.036,1.036,0,0,1,.382.445,19.045,19.045,0,0,1,1.46,9.587c-.105,1-.3,1.993-.462,3.028a.854.854,0,0,1,.907.584Z" transform="translate(-307.272 -99.667)" fill="#030303"/><path d="M221.392,0A7.052,7.052,0,0,1,222,.531c.436.474.855.963,1.275,1.451a.775.775,0,0,1-.292,1.338c-.683.292-1.37.572-2.06.848a.75.75,0,0,1-1.068-.393.758.758,0,0,1,.477-1L220.7,2.6c-.632-.15-1.172-.275-1.71-.407a2.171,2.171,0,0,1-.5-.155.742.742,0,0,1-.336-.882.73.73,0,0,1,.8-.5c.484.075.961.19,1.482.3A.965.965,0,0,1,220.936,0Z" transform="translate(-196.039)" fill="#030303"/><path d="M89.811,75.617c.267-.282.537-.584.824-.866a.744.744,0,0,1,1.166-.011q1.618,1.6,3.219,3.219a.748.748,0,0,1-.015,1.168c-.272.282-.558.55-.831.818.228.578.441,1.139.676,1.691.029.069.175.119.27.124.315.015.632,0,.948.007a.788.788,0,0,1,.877.865q.01,2.238,0,4.477a.789.789,0,0,1-.881.862c-.379.008-.846-.124-1.112.051s-.309.655-.458,1c-.1.242-.221.48-.353.766.283.27.584.539.866.828a.746.746,0,0,1,.01,1.167Q93.417,93.4,91.8,95a.747.747,0,0,1-1.167-.017c-.281-.273-.548-.559-.813-.83-.584.229-1.146.441-1.7.676-.069.029-.12.175-.125.27-.015.328,0,.658-.008.986a.774.774,0,0,1-.826.839q-2.276.015-4.553,0a.773.773,0,0,1-.822-.842c-.011-.391.127-.874-.054-1.149s-.675-.323-1.031-.476c-.231-.1-.458-.208-.74-.337-.257.273-.517.566-.794.841a.758.758,0,0,1-1.219.01q-1.588-1.577-3.165-3.166a.759.759,0,0,1,.015-1.22c.266-.27.542-.53.8-.787-.229-.584-.442-1.145-.677-1.7-.029-.069-.176-.119-.27-.123-.315-.015-.632,0-.948-.007a.788.788,0,0,1-.876-.866q-.01-2.238,0-4.477a.785.785,0,0,1,.843-.861c.4-.014.893.112,1.179-.076.267-.175.312-.684.462-1.043.092-.22.2-.435.32-.7-.283-.268-.584-.538-.866-.825a.744.744,0,0,1-.009-1.166q1.6-1.617,3.219-3.219a.75.75,0,0,1,1.168.015c.147.139.287.285.429.429s.264.271.391.4c.576-.227,1.138-.44,1.69-.675.069-.03.12-.176.124-.271.015-.328,0-.658.007-.986a.773.773,0,0,1,.826-.838q2.276-.014,4.552,0a.773.773,0,0,1,.821.843c.011.391-.127.874.054,1.149s.677.32,1.033.473c.231.1.457.21.735.34m5.6,7.708a.379.379,0,0,0-.073-.03c-.316,0-.632-.005-.948-.011a.806.806,0,0,1-.842-.615q-.462-1.2-.978-2.369a.816.816,0,0,1,.153-1.032c.241-.238.5-.452.738-.659l-2.26-2.26a.2.2,0,0,0-.05.031c-.207.2-.413.409-.621.612a.839.839,0,0,1-1.123.163q-1.115-.507-2.265-.934a.825.825,0,0,1-.674-.911c0-.323,0-.645,0-.951H83.306c0,.358,0,.686,0,1.014a.807.807,0,0,1-.625.835c-.786.3-1.567.619-2.335.961a.82.82,0,0,1-1.064-.144c-.236-.239-.448-.5-.633-.711l-2.3,2.3c.224.208.478.435.722.672a.792.792,0,0,1,.151.97c-.347.808-.686,1.62-1.008,2.438a.79.79,0,0,1-.822.589c-.337,0-.675,0-1.023,0v3.169c.345,0,.671,0,1,0a.811.811,0,0,1,.864.635q.45,1.179.965,2.334a.828.828,0,0,1-.158,1.064c-.232.232-.481.446-.668.619l2.259,2.3c.2-.212.409-.448.633-.67a.825.825,0,0,1,1.092-.157q1.134.51,2.3.949a.819.819,0,0,1,.652.89c0,.324,0,.648,0,.973h3.166c0-.363-.005-.7,0-1.042a.8.8,0,0,1,.608-.809c.8-.309,1.588-.633,2.369-.977a.817.817,0,0,1,1.034.143c.241.24.46.5.684.75l2.3-2.3c-.249-.226-.511-.445-.752-.686a.816.816,0,0,1-.144-1.034c.341-.769.667-1.547.967-2.333a.808.808,0,0,1,.857-.644c.336,0,.671,0,1.014,0Z" transform="translate(-65.457 -65.437)" fill="#030202"/><path d="M116.542,7.251a.678.678,0,0,1-.565.64A22.056,22.056,0,0,0,112,9.1a.75.75,0,0,1-.562-1.389,17.488,17.488,0,0,1,4.223-1.283.747.747,0,0,1,.876.822" transform="translate(-99.761 -5.768)" fill="#040404"/><path d="M185.251,4.732a.748.748,0,0,1-.747-.743.758.758,0,1,1,1.517-.015.748.748,0,0,1-.77.757" transform="translate(-165.832 -2.894)" fill="#070707"/><path d="M27.71,18.133c-.841.487-1.624.945-2.414,1.39a.366.366,0,0,1-.3.011c-.8-.449-1.59-.913-2.437-1.4.848-.49,1.651-.958,2.461-1.414a.331.331,0,0,1,.273.021c.789.446,1.572.9,2.421,1.394" transform="translate(-20.272 -15.007)" fill="#96e7f6"/><path d="M55.495,48.39c0-.96,0-1.857.005-2.754a.379.379,0,0,1,.115-.284c.8-.475,1.607-.933,2.46-1.424,0,.977,0,1.9-.006,2.814a.324.324,0,0,1-.131.237c-.792.466-1.59.921-2.443,1.411" transform="translate(-49.878 -39.482)" fill="#65def4"/><path d="M15,43.874c.845.488,1.632.937,2.411,1.4a.365.365,0,0,1,.162.256c.012.918.007,1.836.007,2.811-.852-.49-1.659-.95-2.459-1.423A.328.328,0,0,1,15,46.672c-.008-.909-.005-1.819-.005-2.8" transform="translate(-13.479 -39.434)" fill="#65def5"/><path d="M315.71,18.132c-.841.487-1.624.945-2.414,1.39a.367.367,0,0,1-.3.011c-.8-.449-1.59-.912-2.436-1.4.848-.49,1.651-.958,2.462-1.414a.331.331,0,0,1,.273.021c.789.446,1.572.9,2.421,1.394" transform="translate(-279.125 -15.007)" fill="#96e7f6"/><path d="M343.494,48.381c0-.968,0-1.876.006-2.784a.365.365,0,0,1,.139-.269c.789-.468,1.587-.923,2.435-1.412,0,.985,0,1.914-.007,2.843a.328.328,0,0,1-.155.222c-.782.46-1.57.91-2.419,1.4" transform="translate(-308.729 -39.472)" fill="#65def4"/><path d="M302.769,43.893c.854.491,1.662.95,2.46,1.425a.38.38,0,0,1,.115.284c.009.9.005,1.794.005,2.753-.631-.362-1.206-.75-1.829-1.033a1.155,1.155,0,0,1-.767-1.336c.067-.671.015-1.355.015-2.093" transform="translate(-272.104 -39.451)" fill="#65def5"/><path d="M27.719,293.5c-.838.483-1.639.951-2.449,1.4a.363.363,0,0,1-.3-.019c-.789-.446-1.571-.9-2.4-1.388.851-.492,1.669-.968,2.493-1.433a.3.3,0,0,1,.237.036c.8.455,1.592.917,2.424,1.4" transform="translate(-20.281 -262.493)" fill="#96e7f6"/><path d="M58.077,319.38c0,.964,0,1.86,0,2.757,0,.09-.027.227-.088.264-.808.48-1.624.945-2.489,1.443,0-.986,0-1.9.006-2.823a.321.321,0,0,1,.138-.23c.79-.466,1.587-.921,2.436-1.411" transform="translate(-49.88 -287.057)" fill="#65def4"/><path d="M17.577,323.84c-.858-.494-1.664-.953-2.463-1.426a.333.333,0,0,1-.112-.249c-.008-.909,0-1.818,0-2.787.664.381,1.273.782,1.927,1.091a1.025,1.025,0,0,1,.668,1.163c-.058.71-.014,1.429-.014,2.208" transform="translate(-13.478 -287.055)" fill="#65def4"/><path d="M310.548,293.612c.842-.486,1.636-.947,2.437-1.4a.32.32,0,0,1,.267-.008c.811.457,1.615.926,2.453,1.409-.828.479-1.62.944-2.422,1.393a.4.4,0,0,1-.334-.012c-.79-.444-1.571-.9-2.4-1.384" transform="translate(-279.119 -262.609)" fill="#96e7f6"/><path d="M343.5,323.846c0-.984,0-1.9.006-2.818a.322.322,0,0,1,.135-.232c.791-.466,1.587-.922,2.439-1.413,0,.989,0,1.928,0,2.867a.25.25,0,0,1-.113.175c-.8.468-1.605.929-2.462,1.422" transform="translate(-308.732 -287.059)" fill="#65def4"/><path d="M303,319.352c.845.486,1.631.936,2.413,1.394a.331.331,0,0,1,.16.219c.011.929.007,1.858.007,2.851-.859-.495-1.666-.954-2.465-1.427a.335.335,0,0,1-.11-.251c-.008-.908,0-1.817,0-2.786" transform="translate(-272.331 -287.031)" fill="#65def4"/><path d="M109.105,97.112v3.128c-.342,0-.678,0-1.014,0a.808.808,0,0,0-.857.644c-.3.786-.626,1.564-.967,2.333a.816.816,0,0,0,.143,1.034c.24.241.5.46.752.686l-2.3,2.3c-.225-.248-.444-.51-.685-.75a.816.816,0,0,0-1.034-.143c-.782.344-1.573.668-2.369.977a.8.8,0,0,0-.608.809c-.006.339,0,.679,0,1.042H97c0-.325,0-.649,0-.973a.819.819,0,0,0-.652-.89q-1.164-.438-2.3-.949a.825.825,0,0,0-1.092.157c-.223.223-.434.459-.633.67l-2.259-2.3c.187-.173.437-.387.668-.619a.828.828,0,0,0,.158-1.064q-.513-1.154-.965-2.334a.811.811,0,0,0-.864-.635c-.326,0-.652,0-1,0V97.072c.349,0,.686,0,1.023,0a.791.791,0,0,0,.822-.589c.322-.818.661-1.63,1.008-2.439a.792.792,0,0,0-.151-.97c-.244-.238-.5-.465-.722-.672l2.3-2.3c.185.21.4.472.633.711a.82.82,0,0,0,1.064.144c.769-.342,1.549-.66,2.335-.961a.807.807,0,0,0,.625-.835c.005-.328,0-.656,0-1.014h3.166c0,.306,0,.628,0,.951a.826.826,0,0,0,.674.911q1.148.426,2.265.934a.839.839,0,0,0,1.123-.163c.208-.2.413-.409.62-.612a.2.2,0,0,1,.05-.031l2.26,2.261c-.233.207-.5.421-.738.659a.815.815,0,0,0-.153,1.032q.516,1.173.978,2.369a.806.806,0,0,0,.842.615c.316.005.632.007.948.011a.382.382,0,0,1,.073.03m-7.729-.314a2.622,2.622,0,0,0-1.747-2.35c-.174-.067-.286-.119-.316-.346a.749.749,0,0,0-1.471-.012.385.385,0,0,1-.305.354,2.6,2.6,0,0,0-1.756,2.531A2.629,2.629,0,0,0,97.8,99.348a7.144,7.144,0,0,0,.973.137,1.091,1.091,0,0,1,1,1.444,1.342,1.342,0,0,1-1.435.689A1.186,1.186,0,0,1,97.3,100.58a1.35,1.35,0,0,0-.053-.3.755.755,0,0,0-.851-.476.769.769,0,0,0-.608.844,2.571,2.571,0,0,0,1.71,2.3.557.557,0,0,1,.388.387.666.666,0,0,0,.69.488.658.658,0,0,0,.7-.478.579.579,0,0,1,.419-.407,2.552,2.552,0,0,0,1.625-2.913,2.775,2.775,0,0,0-2.474-2.07,2.725,2.725,0,0,1-1.1-.309.914.914,0,0,1-.24-1.357,1.381,1.381,0,0,1,1.427-.472,1.148,1.148,0,0,1,.943,1.085.738.738,0,0,0,.821.7.76.76,0,0,0,.692-.8" transform="translate(-79.147 -79.224)" fill="#fdc94a"/><path d="M169.935,144.252a.76.76,0,0,1-.692.8.738.738,0,0,1-.822-.7,1.148,1.148,0,0,0-.943-1.085,1.381,1.381,0,0,0-1.427.472.914.914,0,0,0,.24,1.357,2.725,2.725,0,0,0,1.1.309,2.775,2.775,0,0,1,2.474,2.07,2.552,2.552,0,0,1-1.625,2.913.579.579,0,0,0-.419.407.658.658,0,0,1-.7.478.666.666,0,0,1-.69-.488.557.557,0,0,0-.388-.387,2.571,2.571,0,0,1-1.71-2.3.769.769,0,0,1,.608-.844.755.755,0,0,1,.851.476,1.35,1.35,0,0,1,.053.3,1.186,1.186,0,0,0,1.045,1.038,1.342,1.342,0,0,0,1.435-.689,1.091,1.091,0,0,0-1-1.444,7.146,7.146,0,0,1-.973-.137,2.629,2.629,0,0,1-2.018-2.373A2.6,2.6,0,0,1,166.1,141.9a.385.385,0,0,0,.305-.354.749.749,0,0,1,1.471.012c.03.227.142.279.316.346a2.622,2.622,0,0,1,1.747,2.35" transform="translate(-147.705 -126.679)" fill="#030302"/></g></g></svg>