<svg xmlns="http://www.w3.org/2000/svg" xmlns:xlink="http://www.w3.org/1999/xlink" width="620" height="396.625" viewBox="0 0 620 396.625"><defs><clipPath id="a"><rect width="620" height="396.624" fill="none"/></clipPath><clipPath id="d"><rect width="10.369" height="9.391" fill="none"/></clipPath><clipPath id="e"><rect width="6.35" height="10.276" fill="none"/></clipPath><clipPath id="f"><rect width="29.844" height="9.238" fill="none"/></clipPath><clipPath id="g"><rect width="20.09" height="2.374" fill="none"/></clipPath><clipPath id="h"><rect width="2.559" height="2.555" fill="none"/></clipPath><clipPath id="i"><rect width="32.893" height="2.667" fill="none"/></clipPath><clipPath id="j"><rect width="27.299" height="16.215" fill="none"/></clipPath><clipPath id="k"><rect width="7.56" height="29.442" fill="none"/></clipPath></defs><g clip-path="url(#a)"><path d="M74.606,355.308a19.769,19.769,0,0,1,12.267-1.491c2.225.368,4.545,1.034,6.06,2.706s1.8,4.613.062,6.049a5.811,5.811,0,0,1-3.821.97c-3.243-.038-6.841-.609-9.432,1.342-1.477,1.113-2.461,2.964-4.229,3.511a4.178,4.178,0,0,1-4.6-2.045,7.144,7.144,0,0,1-.52-5.27,8.047,8.047,0,0,1,4.209-5.773" transform="translate(-7.568 -38.143)" fill="#ebebeb"/><path d="M65.3,332.938c2.282,3.259,6.716,2.179,8.772.191s2.925-4.872,3.716-7.621c1.807-6.281,3.629-12.87,2.286-19.266A10.713,10.713,0,0,0,77.618,301a5.594,5.594,0,0,0-5.3-1.764c-2.236.591-3.625,2.781-4.629,4.864a45.919,45.919,0,0,0-4.539,19.709c-.011,3.175.363,6.5,2.154,9.125" transform="translate(-6.815 -32.276)" fill="#ebebeb"/><path d="M55.363,338.882c2.477-2.94,2.947-7.228,1.845-10.911a21.029,21.029,0,0,0-6.462-9.375,34.789,34.789,0,0,0-11.573-6.828,12.341,12.341,0,0,0-5.2-.884,5.464,5.464,0,0,0-4.368,2.642c-1.218,2.323-.05,5.14,1.213,7.439a88.238,88.238,0,0,0,7.6,11.575c2.278,2.937,4.888,5.834,8.361,7.162s7.079,1.171,8.919-1.236" transform="translate(-3.139 -33.544)" fill="#ebebeb"/><path d="M65.387,388.508a7.049,7.049,0,0,0,.206-1.481c.105-1.078.237-2.431.393-4.041a58.482,58.482,0,0,1,.909-5.927,45.769,45.769,0,0,1,2.154-7,25.794,25.794,0,0,1,3.573-6.329,13.333,13.333,0,0,1,4.516-3.755,12.631,12.631,0,0,1,3.8-1.185,7.057,7.057,0,0,0,1.475-.213,6.958,6.958,0,0,0-1.5-.023,11.522,11.522,0,0,0-3.965,1.032,13.319,13.319,0,0,0-4.765,3.788,25.172,25.172,0,0,0-3.7,6.457,42.675,42.675,0,0,0-2.139,7.11,49.94,49.94,0,0,0-.788,6c-.128,1.716-.178,3.105-.2,4.066a6.912,6.912,0,0,0,.031,1.5" transform="translate(-7.051 -38.691)" fill="#e0e0e0"/><path d="M65.665,380.568a2.926,2.926,0,0,0,.04-.687c0-.517,0-1.167-.005-1.965-.005-1.7,0-4.172.087-7.22.151-6.094.675-12.652,1.689-21.9.96-8.694,2.248-18.813,3.608-25.392.291-1.5.584-2.843.861-4.022s.489-2.2.706-3.025c.187-.775.339-1.408.459-1.909a3.017,3.017,0,0,0,.12-.678,2.833,2.833,0,0,0-.239.644c-.15.494-.338,1.118-.57,1.882-.253.817-.513,1.829-.808,3.006s-.632,2.517-.952,4.011a222.887,222.887,0,0,0-3.792,23.561c-1.015,9.265-1.473,17.7-1.513,23.811-.037,3.055.029,5.527.106,7.234.049.8.088,1.448.12,1.963a2.879,2.879,0,0,0,.083.682" transform="translate(-7.051 -33.86)" fill="#e0e0e0"/><path d="M63.117,364.9a13.054,13.054,0,0,0-.014-2.053c-.076-1.318-.257-3.225-.629-5.56a73.223,73.223,0,0,0-1.808-8.1,66.428,66.428,0,0,0-3.387-9.586,51.073,51.073,0,0,0-9.949-15.492,25.364,25.364,0,0,0-2.34-2.175c-.36-.3-.677-.607-1-.847l-.908-.626a13.226,13.226,0,0,0-1.728-1.106,61.391,61.391,0,0,1,5.664,5.053,53.812,53.812,0,0,1,9.7,15.436,75.865,75.865,0,0,1,3.407,9.5c.889,2.977,1.478,5.715,1.924,8.021.424,2.312.669,4.2.817,5.506a13.278,13.278,0,0,0,.252,2.033" transform="translate(-4.462 -34.461)" fill="#e0e0e0"/><path d="M48.12,402.583l1.631,22.338h28.7l1.63-22.338Z" transform="translate(-5.193 -43.443)" fill="#e0e0e0"/><rect width="38.154" height="8.805" transform="translate(40.156 350.335)" fill="#e0e0e0"/><path d="M45.013,426.665v2.441H82.536v-2.441Z" transform="translate(-4.857 -46.042)" fill="#ebebeb"/><path d="M48.78,433.7l-1.757-4.3H81.385l-2.05,4.3Z" transform="translate(-5.074 -46.337)" fill="#e0e0e0"/><path d="M79.6,410.387a.943.943,0,0,1-.134.205l-.429.569L77.369,413.3l-.074.095-.072-.1-4.106-5.681h.236l-4.043,5.725-.127.18-.142-.169-4.8-5.706.277,0-.264.331-4.287,5.376-.144.179-.131-.186c-1.456-2.06-2.816-3.984-4.046-5.725l.235.012L50.9,413.306l-.089.1-.067-.113-1.56-2.621-.4-.7a1.188,1.188,0,0,1-.122-.249,1.109,1.109,0,0,1,.168.221l.442.672,1.638,2.573-.156-.013,4.9-5.746.124-.145.112.156,4.082,5.7-.275-.007,4.278-5.384.264-.332.136-.17.14.168,4.782,5.716-.269.011,4.083-5.7.12-.167.117.167,4.02,5.741-.146,0c.733-.878,1.316-1.576,1.74-2.085l.466-.539a.944.944,0,0,1,.172-.174" transform="translate(-5.251 -43.947)" fill="#f5f5f5"/><path d="M80.506,402.4c0,.1-7.19.178-16.058.178s-16.059-.079-16.059-.178,7.188-.178,16.059-.178,16.058.079,16.058.178" transform="translate(-5.222 -43.404)" fill="#f5f5f5"/><path d="M81.794,429.649c0,.1-7.815.178-17.452.178s-17.454-.079-17.454-.178,7.813-.178,17.454-.178,17.452.079,17.452.178" transform="translate(-5.06 -46.345)" fill="#f5f5f5"/><rect width="190.13" height="72.052" transform="translate(0 49.052)" fill="#fafafa"/><path d="M177.694,74.062c0,.128-32.311.232-72.16.232s-72.166-.1-72.166-.232,32.3-.232,72.166-.232,72.16.1,72.16.232" transform="translate(-3.601 -7.967)" fill="#ebebeb"/><path d="M177.694,83.619c0,.128-32.311.232-72.16.232s-72.166-.1-72.166-.232,32.3-.232,72.166-.232,72.16.1,72.16.232" transform="translate(-3.601 -8.998)" fill="#ebebeb"/><path d="M177.694,93.176c0,.128-32.311.232-72.16.232s-72.166-.1-72.166-.232,32.3-.232,72.166-.232,72.16.1,72.16.232" transform="translate(-3.601 -10.03)" fill="#ebebeb"/><path d="M177.694,102.733c0,.128-32.311.232-72.16.232s-72.166-.1-72.166-.232,32.3-.232,72.166-.232,72.16.1,72.16.232" transform="translate(-3.601 -11.061)" fill="#ebebeb"/><path d="M177.694,112.29c0,.128-32.311.232-72.16.232s-72.166-.1-72.166-.232,32.3-.232,72.166-.232,72.16.1,72.16.232" transform="translate(-3.601 -12.092)" fill="#ebebeb"/><path d="M164.985,99.168s-.1.131-.314.376a3.783,3.783,0,0,1-1.213.77,5.733,5.733,0,0,1-5.268-.968,9.654,9.654,0,0,1-2.48-3.127c-.691-1.292-1.239-2.784-1.889-4.345A13.687,13.687,0,0,0,151,87.337a6.272,6.272,0,0,0-2.451-1.5,6.487,6.487,0,0,0-3.018-.168,11.547,11.547,0,0,0-5.758,3.053c-1.719,1.551-3.23,3.463-5.08,5.2a11.635,11.635,0,0,1-6.972,3.427,6.406,6.406,0,0,1-3.99-1.063,9.515,9.515,0,0,1-2.779-3.2c-1.436-2.477-2.162-5.358-4.027-7.618a6.543,6.543,0,0,0-3.5-2.418,4.849,4.849,0,0,0-4.1.986,9.265,9.265,0,0,0-2.7,3.59,22.6,22.6,0,0,0-1.277,4.49,27.909,27.909,0,0,1-1.267,4.66,11.072,11.072,0,0,1-1.166,2.178,9.921,9.921,0,0,1-1.7,1.815,10.782,10.782,0,0,1-4.4,2.2,10.479,10.479,0,0,1-4.857.07,10.956,10.956,0,0,1-4.29-2.117c-1.267-.944-2.415-1.991-3.618-2.931a10.744,10.744,0,0,0-3.9-2.123,5.636,5.636,0,0,0-4.175.542,9.828,9.828,0,0,0-3.116,2.9A27.639,27.639,0,0,0,70.75,103a28.852,28.852,0,0,1-2.085,3.658,9.757,9.757,0,0,1-2.995,2.841,6.092,6.092,0,0,1-3.907.913,5.621,5.621,0,0,1-3.394-1.893,9.574,9.574,0,0,1-1.872-3.253,24.557,24.557,0,0,1-.854-3.489,16.5,16.5,0,0,0-2.007-6.281A7.038,7.038,0,0,0,49,92.041a5.16,5.16,0,0,0-2.672.332,7.1,7.1,0,0,0-2.146,1.414c-2.435,2.333-3.608,5.152-5.416,6.783a7.286,7.286,0,0,1-4.843,2.435,4.048,4.048,0,0,1-1.413-.25c-.3-.128-.445-.2-.445-.2a4.952,4.952,0,0,0,1.856.359,7.256,7.256,0,0,0,4.718-2.47C40.4,98.822,41.531,96.009,44,93.6a7.322,7.322,0,0,1,2.217-1.481,5.439,5.439,0,0,1,2.821-.368,7.346,7.346,0,0,1,4.873,3.567,11.12,11.12,0,0,1,1.346,3.03c.309,1.087.516,2.219.735,3.361a24.029,24.029,0,0,0,.853,3.433,9.231,9.231,0,0,0,1.806,3.117,5.233,5.233,0,0,0,3.161,1.759,5.7,5.7,0,0,0,3.647-.872,9.36,9.36,0,0,0,2.86-2.732,28.391,28.391,0,0,0,2.045-3.609A27.915,27.915,0,0,1,72.5,99.048a10.279,10.279,0,0,1,3.255-3.033,6.1,6.1,0,0,1,4.5-.59,11.179,11.179,0,0,1,4.071,2.2c1.222.952,2.369,2,3.613,2.921a10.5,10.5,0,0,0,4.117,2.035,10.036,10.036,0,0,0,4.645-.07,10.329,10.329,0,0,0,4.214-2.105,9.51,9.51,0,0,0,1.624-1.727,10.741,10.741,0,0,0,1.114-2.083,27.493,27.493,0,0,0,1.243-4.582,23.1,23.1,0,0,1,1.31-4.582,9.733,9.733,0,0,1,2.84-3.764,5.306,5.306,0,0,1,4.482-1.062,6.973,6.973,0,0,1,3.738,2.577c1.933,2.363,2.658,5.282,4.054,7.684a9.128,9.128,0,0,0,2.643,3.071,5.987,5.987,0,0,0,3.733,1,11.263,11.263,0,0,0,6.733-3.3c1.826-1.7,3.348-3.608,5.1-5.179a11.865,11.865,0,0,1,5.945-3.111,6.8,6.8,0,0,1,3.166.194,6.567,6.567,0,0,1,2.563,1.582,13.912,13.912,0,0,1,2.858,4.648c.642,1.575,1.174,3.062,1.845,4.343A9.538,9.538,0,0,0,158.3,99.2a5.66,5.66,0,0,0,5.125,1.023,3.955,3.955,0,0,0,1.56-1.057" transform="translate(-3.46 -8.9)" fill="#e0e0e0"/><path d="M173.973,96.382s-.167.02-.5.034c-.166-.005-.369-.049-.614-.083a5.39,5.39,0,0,1-.806-.291,13.633,13.633,0,0,1-4.3-3.62q-.6-.7-1.229-1.5a16.876,16.876,0,0,0-1.334-1.645,7.074,7.074,0,0,0-4.248-1.935,5.98,5.98,0,0,0-2.592.326,6.686,6.686,0,0,0-2.311,1.559,54.373,54.373,0,0,0-3.8,4.915A11.253,11.253,0,0,1,149.81,96.5a7.513,7.513,0,0,1-3.327,1.245,14.912,14.912,0,0,1-7.326-1.371c-2.4-.995-4.684-2.366-7.26-3.243a13.455,13.455,0,0,0-4.007-.8,8.717,8.717,0,0,0-4.045.884c-2.579,1.235-4.594,3.485-7.021,5.325a14.367,14.367,0,0,1-4.065,2.228,15.232,15.232,0,0,1-4.658.806,17.173,17.173,0,0,1-9.246-2.562,22.418,22.418,0,0,1-7.014-6.987c-1.882-2.816-2.912-6.015-4.27-8.932a18.275,18.275,0,0,0-2.483-4.064A10.826,10.826,0,0,0,81.431,76.2a6.533,6.533,0,0,0-4.409-.465,7.349,7.349,0,0,0-3.661,2.406,12.362,12.362,0,0,0-2.192,3.8,30.151,30.151,0,0,0-1.133,4.2c-.3,1.411-.571,2.819-.958,4.187a18.3,18.3,0,0,1-1.57,3.9,17.668,17.668,0,0,1-5.3,5.98,15.55,15.55,0,0,1-6.911,2.8,14.525,14.525,0,0,1-6.833-.791,13.449,13.449,0,0,1-8.238-8.083c-.57-1.658-.857-3.255-1.269-4.678a10.788,10.788,0,0,0-1.643-3.654,5.85,5.85,0,0,0-4.766-2.444,3.7,3.7,0,0,0-1.807.657,3.032,3.032,0,0,1,1.8-.75A5.919,5.919,0,0,1,37.459,85.7a10.9,10.9,0,0,1,1.715,3.7c.426,1.433.727,3.027,1.3,4.654a13.186,13.186,0,0,0,8.106,7.86,14.2,14.2,0,0,0,6.672.744A15.2,15.2,0,0,0,61.988,99.9a17.3,17.3,0,0,0,5.162-5.861,26.98,26.98,0,0,0,2.468-7.979A30.516,30.516,0,0,1,70.76,81.8a12.78,12.78,0,0,1,2.265-3.94A7.792,7.792,0,0,1,76.909,75.3a6.987,6.987,0,0,1,4.709.485,11.259,11.259,0,0,1,3.82,2.942A18.671,18.671,0,0,1,87.99,82.9c1.378,2.964,2.394,6.116,4.241,8.876A21.977,21.977,0,0,0,99.1,98.619a16.727,16.727,0,0,0,9,2.5,14.829,14.829,0,0,0,4.518-.777,13.922,13.922,0,0,0,3.944-2.156c2.387-1.8,4.419-4.072,7.1-5.357a9.145,9.145,0,0,1,4.24-.916,13.836,13.836,0,0,1,4.13.836c2.618.9,4.923,2.29,7.273,3.273a14.572,14.572,0,0,0,7.134,1.371,7.153,7.153,0,0,0,3.18-1.175,10.973,10.973,0,0,0,2.368-2.284,53.522,53.522,0,0,1,3.85-4.922,6.953,6.953,0,0,1,2.42-1.608,6.24,6.24,0,0,1,2.713-.324,7.3,7.3,0,0,1,4.379,2.036,17.024,17.024,0,0,1,1.338,1.68q.617.807,1.207,1.507a13.876,13.876,0,0,0,4.2,3.653,3.719,3.719,0,0,0,1.881.425" transform="translate(-3.318 -8.103)" fill="#e0e0e0"/><path d="M21.8,74.537a4.121,4.121,0,0,1-1.908.232,4.123,4.123,0,0,1-1.909-.232,4.123,4.123,0,0,1,1.909-.232,4.121,4.121,0,0,1,1.908.232" transform="translate(-1.94 -8.018)" fill="#e0e0e0"/><path d="M21.8,83.619a4.121,4.121,0,0,1-1.908.232,4.123,4.123,0,0,1-1.909-.232,4.123,4.123,0,0,1,1.909-.232,4.121,4.121,0,0,1,1.908.232" transform="translate(-1.94 -8.998)" fill="#e0e0e0"/><path d="M21.8,92.7a4.1,4.1,0,0,1-1.908.233,4.1,4.1,0,0,1-1.909-.233,4.144,4.144,0,0,1,1.909-.231A4.141,4.141,0,0,1,21.8,92.7" transform="translate(-1.94 -9.979)" fill="#e0e0e0"/><path d="M21.8,101.784a4.121,4.121,0,0,1-1.908.232,4.123,4.123,0,0,1-1.909-.232,4.123,4.123,0,0,1,1.909-.232,4.121,4.121,0,0,1,1.908.232" transform="translate(-1.94 -10.959)" fill="#e0e0e0"/><path d="M21.8,110.866a4.121,4.121,0,0,1-1.908.232,4.123,4.123,0,0,1-1.909-.232,4.123,4.123,0,0,1,1.909-.232,4.121,4.121,0,0,1,1.908.232" transform="translate(-1.94 -11.939)" fill="#e0e0e0"/><path d="M41,122.539a15.887,15.887,0,0,1-3.817.232,15.876,15.876,0,0,1-3.816-.232,15.877,15.877,0,0,1,3.816-.232,15.887,15.887,0,0,1,3.817.232" transform="translate(-3.601 -13.198)" fill="#e0e0e0"/><path d="M78.724,122.539a15.887,15.887,0,0,1-3.817.232,15.876,15.876,0,0,1-3.816-.232,15.877,15.877,0,0,1,3.816-.232,15.888,15.888,0,0,1,3.817.232" transform="translate(-7.671 -13.198)" fill="#e0e0e0"/><path d="M116.447,122.539a15.882,15.882,0,0,1-3.816.232,15.881,15.881,0,0,1-3.817-.232,15.881,15.881,0,0,1,3.817-.232,15.883,15.883,0,0,1,3.816.232" transform="translate(-11.742 -13.198)" fill="#e0e0e0"/><path d="M154.17,122.539a15.887,15.887,0,0,1-3.817.232,15.876,15.876,0,0,1-3.816-.232,15.877,15.877,0,0,1,3.816-.232,15.888,15.888,0,0,1,3.817.232" transform="translate(-15.813 -13.198)" fill="#e0e0e0"/><path d="M191.892,122.539a15.882,15.882,0,0,1-3.816.232,15.886,15.886,0,0,1-3.818-.232,15.886,15.886,0,0,1,3.818-.232,15.883,15.883,0,0,1,3.816.232" transform="translate(-19.883 -13.198)" fill="#e0e0e0"/><rect width="154.782" height="95.798" transform="translate(277.094 234.692)" fill="#fafafa"/><path d="M430.015,335.757c-10.733-4.07-23.078,7.184-33.6,2.6-6.122-2.671-8.9-9.6-11.9-15.563s-8.168-12.264-14.811-11.57c-6.7.7-12.119,8.457-18.592,6.587-4.08-1.178-6.116-5.7-7.139-9.825s-1.732-8.676-4.842-11.567-9.592-2.117-10.081,2.1V349.3H450.093s-16.364-12.135-20.078-13.544" transform="translate(-35.508 -31.8)" fill="#ebebeb"/><path d="M452.507,355.883c0,.109-29.338.2-65.521.2s-65.527-.088-65.527-.2,29.333-.2,65.527-.2,65.521.088,65.521.2" transform="translate(-34.689 -38.382)" fill="#e0e0e0"/><path d="M452.507,331.017c0,.109-29.338.2-65.521.2s-65.527-.088-65.527-.2,29.333-.2,65.527-.2,65.521.088,65.521.2" transform="translate(-34.689 -35.699)" fill="#e0e0e0"/><path d="M452.507,306.152c0,.109-29.338.2-65.521.2s-65.527-.088-65.527-.2,29.333-.2,65.527-.2,65.521.088,65.521.2" transform="translate(-34.689 -33.016)" fill="#e0e0e0"/><path d="M452.507,282.521c0,.109-29.338.2-65.521.2s-65.527-.088-65.527-.2,29.333-.2,65.527-.2,65.521.088,65.521.2" transform="translate(-34.689 -30.466)" fill="#e0e0e0"/><rect width="115.208" height="103.072" transform="translate(441.853 6.05)" fill="#fafafa"/><path d="M610.472,109.817s-.02-.661-.029-1.914-.017-3.113-.03-5.522c-.015-4.84-.038-11.913-.067-20.922-.033-18.009-.078-43.743-.135-74.713l.261.26-115.2.047h-.011l.308-.308c-.013,37.5-.026,72.785-.037,103.071l-.271-.271,83.326.137,23.5.071,6.221.031,1.6.016c.361,0,.553.015.553.015s-.171.011-.523.015l-1.575.016-6.169.031-23.44.071-83.5.137h-.271v-.271c-.011-30.286-.023-65.573-.037-103.071V6.437h.318l115.2.047h.261v.261c-.056,31.039-.1,56.83-.135,74.878-.029,8.984-.052,16.038-.068,20.863-.013,2.387-.023,4.22-.029,5.473-.01,1.235-.029,1.856-.029,1.856" transform="translate(-53.411 -0.695)" fill="#e0e0e0"/><path d="M541.543,27.274c0,.17-6.064.308-13.544.308s-13.544-.137-13.544-.308,6.064-.308,13.544-.308,13.544.138,13.544.308" transform="translate(-55.516 -2.91)" fill="#e0e0e0"/><path d="M590.539,35.949c0,.17-16.659.308-37.2.308s-37.209-.137-37.209-.308,16.656-.308,37.209-.308,37.2.138,37.2.308" transform="translate(-55.696 -3.846)" fill="#e0e0e0"/><rect width="4.854" height="4.854" transform="translate(459.139 45.212)" fill="#e0e0e0"/><rect width="4.854" height="4.854" transform="translate(471.086 45.212)" fill="#e0e0e0"/><rect width="4.854" height="4.854" transform="translate(483.254 44.992)" fill="#e0e0e0"/><rect width="4.854" height="4.854" transform="translate(494.982 45.212)" fill="#e0e0e0"/><rect width="4.854" height="4.854" transform="translate(506.929 45.212)" fill="#e0e0e0"/><rect width="4.854" height="4.854" transform="translate(518.876 45.212)" fill="#e0e0e0"/><rect width="4.854" height="4.854" transform="translate(530.824 45.212)" fill="#ebebeb"/><rect width="4.854" height="4.854" transform="translate(459.139 55.531)" fill="#ebebeb"/><rect width="4.854" height="4.854" transform="translate(471.086 55.531)" fill="#e0e0e0"/><rect width="4.854" height="4.854" transform="translate(483.034 55.531)" fill="#ebebeb"/><rect width="4.854" height="4.854" transform="translate(494.982 55.531)" fill="#e0e0e0"/><rect width="4.854" height="4.854" transform="translate(506.929 55.531)" fill="#e0e0e0"/><rect width="4.854" height="4.854" transform="translate(519.097 55.31)" fill="#e0e0e0"/><rect width="4.854" height="4.854" transform="translate(530.824 55.531)" fill="#e0e0e0"/><rect width="4.854" height="4.854" transform="translate(459.139 65.85)" fill="#e0e0e0"/><rect width="4.854" height="4.854" transform="translate(471.307 65.629)" fill="#e0e0e0"/><rect width="4.854" height="4.854" transform="translate(483.034 65.85)" fill="#e0e0e0"/><rect width="4.854" height="4.854" transform="translate(494.982 65.85)" fill="#ebebeb"/><rect width="4.854" height="4.854" transform="translate(506.929 65.85)" fill="#e0e0e0"/><rect width="4.854" height="4.854" transform="translate(518.876 65.85)" fill="#e0e0e0"/><rect width="4.854" height="4.854" transform="translate(530.824 65.85)" fill="#e0e0e0"/><rect width="4.854" height="4.854" transform="translate(459.139 76.168)" fill="#e0e0e0"/><rect width="4.854" height="4.854" transform="translate(471.086 76.168)" fill="#e0e0e0"/><rect width="4.854" height="4.854" transform="translate(483.034 76.168)" fill="#e0e0e0"/><rect width="4.854" height="4.854" transform="translate(495.202 75.948)" fill="#e0e0e0"/><rect width="4.854" height="4.854" transform="translate(506.929 76.168)" fill="#e0e0e0"/><rect width="4.854" height="4.854" transform="translate(518.876 76.168)" fill="#ebebeb"/><rect width="4.854" height="4.854" transform="translate(530.824 76.168)" fill="#e0e0e0"/><rect width="4.854" height="4.854" transform="translate(459.139 86.487)" fill="#e0e0e0"/><rect width="4.854" height="4.854" transform="translate(471.086 86.487)" fill="#ebebeb"/><rect width="4.854" height="4.854" transform="translate(483.034 86.487)" fill="#e0e0e0"/><rect width="4.854" height="4.854" transform="translate(494.982 86.487)" fill="#e0e0e0"/><rect width="4.854" height="4.854" transform="translate(506.929 86.487)" fill="#e0e0e0"/><rect width="4.854" height="4.854" transform="translate(519.097 86.267)" fill="#e0e0e0"/><rect width="4.854" height="4.854" transform="translate(530.824 86.487)" fill="#e0e0e0"/></g><g clip-path="url(#a)"><path d="M621.2,434.188c0,.128-136.587.232-305.036.232-168.508,0-305.065-.1-305.065-.232s136.557-.232,305.065-.232c168.45,0,305.036.1,305.036.232" transform="translate(-1.197 -46.829)" fill="#263238"/></g><g clip-path="url(#a)"><path d="M441.927,17.235s13.641.192,7.8,27.2-5.084,32.113-5.084,42.8a18.631,18.631,0,0,0,10.088,17h-18.5L422.63,41.193V17.235Z" transform="translate(-45.606 -1.86)" fill="#e0e0e0"/><path d="M426.162,232.352H239.371L241.035,49.6,416.971,40.41Z" transform="translate(-25.831 -4.361)" fill="#e0e0e0"/><path d="M418.975,227.747H232.184L233.847,45,415.214,41.46Z" transform="translate(-25.055 -4.474)" fill="#ebebeb"/><path d="M414.679,222.41H228.266V39.663l186.526-.435Z" transform="translate(-24.632 -4.233)" fill="#fafafa"/><path d="M414.65,222.386c0-1.707-.035-73.307-.087-183.182l.2.2-186.233.467h-.293l.232-.233c-.012,66.851-.022,129.538-.031,182.747l-.2-.2,186.413.2-186.413.2h-.2v-.2c-.009-53.209-.02-115.9-.031-182.747v-.232h.525L414.763,39h.2v.2c-.187,109.875-.31,181.477-.313,183.182" transform="translate(-24.604 -4.209)" fill="#263238"/><path d="M414.716,36.281c-9.628-11.214,1.544-19.514,5.311-19.688l-177.5-.1a14.95,14.95,0,0,0-14.744,17.5,20.576,20.576,0,0,0,.72,2.779" transform="translate(-24.556 -1.78)" fill="#f5f5f5"/><path d="M441.588,104.207a1.087,1.087,0,0,1,.243-.02l.717-.02,2.788-.037,10.512-.066-.042.277a11.264,11.264,0,0,1-4.288-2.455,13.972,13.972,0,0,1-3.2-4.561,30.521,30.521,0,0,1-1.914-5.837c-.242-1.039-.456-2.107-.655-3.2-.1-.545-.209-1.09-.257-1.662a13.427,13.427,0,0,1-.128-1.715,63.316,63.316,0,0,1,.238-7.1c.179-2.429.45-4.916.744-7.457.608-5.079,1.372-10.367,2.273-15.787.368-2.317.839-4.6,1.221-6.842.366-2.252.666-4.482.95-6.675q.395-3.293.777-6.465c.112-1.06.26-2.1.283-3.127a18.826,18.826,0,0,0-.17-3.043,18.265,18.265,0,0,0-1.682-5.6,11.171,11.171,0,0,0-3.409-4.251,6.7,6.7,0,0,0-4.851-1.084,8.9,8.9,0,0,0-4.32,1.794,10.642,10.642,0,0,0-2.7,3.339,14.406,14.406,0,0,0-1.31,3.634,9.495,9.495,0,0,0,.71,6.043,20.022,20.022,0,0,0,1.965,3.414l.6.837a1.915,1.915,0,0,1,.2.292,2.041,2.041,0,0,1-.234-.263c-.15-.177-.363-.45-.637-.811a18.686,18.686,0,0,1-2.054-3.394,9.634,9.634,0,0,1-.8-6.171,14.556,14.556,0,0,1,1.3-3.717,10.931,10.931,0,0,1,2.754-3.458,9.227,9.227,0,0,1,4.476-1.893,7.065,7.065,0,0,1,5.121,1.122,11.533,11.533,0,0,1,3.556,4.386,18.667,18.667,0,0,1,1.74,5.725,19.256,19.256,0,0,1,.182,3.113c-.022,1.06-.169,2.108-.278,3.164q-.353,3.175-.766,6.474c-.281,2.2-.579,4.431-.946,6.692-.385,2.266-.849,4.525-1.219,6.844-.9,5.413-1.667,10.7-2.283,15.764-.3,2.535-.574,5.017-.757,7.437a63.387,63.387,0,0,0-.259,7.053,13.314,13.314,0,0,0,.119,1.678c.044.55.154,1.1.248,1.643.194,1.086.4,2.148.638,3.181a30.374,30.374,0,0,0,1.86,5.774,13.688,13.688,0,0,0,3.095,4.475,11,11,0,0,0,4.153,2.421l.872.283-.914-.005-10.512-.066-2.788-.037-.717-.02a1.159,1.159,0,0,1-.243-.02" transform="translate(-46.72 -1.838)" fill="#263238"/><path d="M313.48,22.868c.072.052-.459.761-.988,2.057a11.767,11.767,0,0,0-.67,2.352,12.1,12.1,0,0,0,.454,5.915,11.686,11.686,0,0,0,1.021,2.222c.72,1.2,1.353,1.821,1.29,1.882-.022.022-.193-.118-.484-.394a7.616,7.616,0,0,1-1.083-1.312,10.45,10.45,0,0,1-1.147-2.257,11.47,11.47,0,0,1-.47-6.133,10.407,10.407,0,0,1,.789-2.406,7.572,7.572,0,0,1,.87-1.462c.246-.318.393-.483.418-.464" transform="translate(-33.581 -2.468)" fill="#263238"/><path d="M308.221,15.785a18.952,18.952,0,0,0-2.358,2.88,12.282,12.282,0,0,0-1.685,8.558,12.279,12.279,0,0,0,4.657,7.376,19.032,19.032,0,0,0,3.237,1.837,3.528,3.528,0,0,1-.98-.269,10.67,10.67,0,0,1-2.451-1.3,12.147,12.147,0,0,1-4.92-7.557,12.146,12.146,0,0,1,1.865-8.82,10.668,10.668,0,0,1,1.816-2.1,3.5,3.5,0,0,1,.818-.6" transform="translate(-32.755 -1.703)" fill="#263238"/><path d="M403.377,166.188s-.2.016-.583.024l-1.714.022-6.589.044-24.23.074-79.943.068-34.476-.011h-.221v-.221c.034-22.84.062-42.483.083-56.434.028-6.957.049-12.492.064-16.306.016-1.887.028-3.345.037-4.351.008-.484.014-.855.019-1.122.006-.252.019-.38.019-.38s.012.128.02.38c0,.268.011.639.019,1.122.008,1.005.02,2.464.036,4.351.015,3.815.037,9.35.064,16.306.021,13.95.049,33.593.083,56.434l-.221-.221,34.476-.011,79.943.068,24.23.074,6.589.044,1.714.022c.385.008.583.024.583.024" transform="translate(-27.584 -9.452)" fill="#263238"/><rect width="14.903" height="14.903" transform="translate(240.248 137.319)" fill="#a3314f"/><rect width="14.903" height="25.557" transform="translate(262.097 126.665)" fill="#a3314f"/><rect width="14.903" height="37.66" transform="translate(284.032 114.562)" fill="#a3314f"/><rect width="14.903" height="51.132" transform="translate(305.298 101.091)" fill="#a3314f"/><rect width="14.903" height="68.382" transform="translate(327.058 83.84)" fill="#a3314f"/><rect width="14.903" height="80.83" transform="translate(348.655 70.685)" fill="#a3314f"/><path d="M269.31,128.708a1.158,1.158,0,0,1,.19-.146l.581-.4,2.27-1.519,8.541-5.63,29.574-19.328.343-.224v.409c0,2.111,0,4.37.006,6.671l-.355-.189,11.654-7.816L363.24,73.059l12.492-8.282,3.41-2.232.893-.571a2.032,2.032,0,0,1,.313-.181,2.135,2.135,0,0,1-.286.22l-.868.609-3.361,2.3-12.41,8.405-41.05,27.59-11.66,7.808-.354.237v-.426c0-2.3,0-4.56.006-6.671l.343.186-29.665,19.189-8.61,5.522-2.311,1.459-.6.368a1.126,1.126,0,0,1-.211.114" transform="translate(-29.062 -6.668)" fill="#263238"/><path d="M392.875,68.068a7.649,7.649,0,0,1-.158-1.838c-.042-1.141-.07-2.726-.073-4.5l.231.232h-.569c-1.91,0-3.638-.027-4.888-.069a8.831,8.831,0,0,1-2.025-.164,8.831,8.831,0,0,1,2.025-.164c1.25-.042,2.978-.068,4.888-.068h.8v.231c0,1.778-.032,3.363-.074,4.5a7.738,7.738,0,0,1-.157,1.838" transform="translate(-41.588 -6.636)" fill="#263238"/><path d="M303.012,189.141c0,.128-4.607.232-10.288.232s-10.288-.1-10.288-.232,4.606-.232,10.288-.232,10.288.1,10.288.232" transform="translate(-30.478 -20.385)" fill="#263238"/><path d="M293.629,196.482a12.63,12.63,0,0,1,0-4.819,12.632,12.632,0,0,1,0,4.819" transform="translate(-31.661 -20.683)" fill="#263238"/><path d="M315.234,199.738c0,.128-12.367.232-27.618.232s-27.621-.1-27.621-.232,12.364-.232,27.621-.232,27.618.1,27.618.232" transform="translate(-28.056 -21.529)" fill="#263238"/><path d="M260.383,206.647a24.11,24.11,0,0,1,0-6.673,24.117,24.117,0,0,1,0,6.673" transform="translate(-28.073 -21.579)" fill="#263238"/><path d="M282.409,205.928a17.907,17.907,0,0,1,0-5.746,17.912,17.912,0,0,1,0,5.746" transform="translate(-30.45 -21.602)" fill="#263238"/><path d="M305.058,206.277a21.522,21.522,0,0,1,0-6.3,21.524,21.524,0,0,1,0,6.3" transform="translate(-32.894 -21.579)" fill="#263238"/><path d="M322.3,206.254a22.8,22.8,0,0,1,0-6.488,22.8,22.8,0,0,1,0,6.488" transform="translate(-34.755 -21.557)" fill="#263238"/><path d="M266.485,209.5a48.129,48.129,0,0,1-6.673.232,48.137,48.137,0,0,1-6.674-.232,48.14,48.14,0,0,1,6.674-.232,48.132,48.132,0,0,1,6.673.232" transform="translate(-27.316 -22.583)" fill="#263238"/><path d="M285.983,209.5a56.123,56.123,0,0,1-10.195,0,56.131,56.131,0,0,1,10.195,0" transform="translate(-29.761 -22.583)" fill="#263238"/><path d="M310.2,210.127a64.584,64.584,0,0,1-10.937,0,64.584,64.584,0,0,1,10.937,0" transform="translate(-32.294 -22.65)" fill="#263238"/><path d="M329.854,209.088a73.62,73.62,0,0,1-11.678,0,73.61,73.61,0,0,1,11.678,0" transform="translate(-34.335 -22.538)" fill="#263238"/><path d="M260.591,216.334a8.284,8.284,0,0,1,0-3.893,8.284,8.284,0,0,1,0,3.893" transform="translate(-28.096 -22.925)" fill="#263238"/><path d="M271.926,216.777c0,.128-5.394.232-12.049.232s-12.049-.1-12.049-.232,5.394-.232,12.049-.232,12.049.1,12.049.232" transform="translate(-26.743 -23.368)" fill="#263238"/><path d="M274.813,222.365a16.784,16.784,0,0,1,0-5.561,16.782,16.782,0,0,1,0,5.561" transform="translate(-29.63 -23.396)" fill="#263238"/><path d="M247.8,222.736a19.076,19.076,0,0,1,0-5.932,19.078,19.078,0,0,1,0,5.932" transform="translate(-26.715 -23.396)" fill="#263238"/><path d="M305.611,216.334a8.284,8.284,0,0,1,0-3.893,8.284,8.284,0,0,1,0,3.893" transform="translate(-32.954 -22.925)" fill="#263238"/><path d="M333.551,216.777c0,.128-9.113.232-20.35.232s-20.353-.1-20.353-.232,9.111-.232,20.353-.232,20.35.1,20.35.232" transform="translate(-31.602 -23.368)" fill="#263238"/><path d="M319.833,222.365a16.784,16.784,0,0,1,0-5.561,16.782,16.782,0,0,1,0,5.561" transform="translate(-34.489 -23.396)" fill="#263238"/><path d="M339.379,222.365a16.782,16.782,0,0,1,0-5.561,16.787,16.787,0,0,1,0,5.561" transform="translate(-36.598 -23.396)" fill="#263238"/><path d="M292.821,222.736a19.078,19.078,0,0,1,0-5.932,19.15,19.15,0,0,1,0,5.932" transform="translate(-31.574 -23.396)" fill="#263238"/><path d="M252,227.257a48.742,48.742,0,0,1-9.5,0,48.742,48.742,0,0,1,9.5,0" transform="translate(-26.169 -24.499)" fill="#263238"/><path d="M278.364,226.495a56.9,56.9,0,0,1-10.265,0,56.908,56.908,0,0,1,10.265,0" transform="translate(-28.931 -24.416)" fill="#263238"/><path d="M297.63,226.495a44.158,44.158,0,0,1-9.04,0,44.164,44.164,0,0,1,9.04,0" transform="translate(-31.142 -24.416)" fill="#263238"/><path d="M323.3,226.495a51.922,51.922,0,0,1-9.8,0,51.929,51.929,0,0,1,9.8,0" transform="translate(-33.83 -24.416)" fill="#263238"/><path d="M343.893,225.808a53.563,53.563,0,0,1-9.958,0,53.563,53.563,0,0,1,9.958,0" transform="translate(-36.035 -24.342)" fill="#263238"/><path d="M413.488,225.175H350.555V186.207h62.933ZM350.6,225.13h62.842V186.252H350.6Z" transform="translate(-37.829 -20.094)" fill="#263238"/><path d="M399.094,215.76c-4.361-1.654-9.377,2.919-13.652,1.054-2.487-1.085-3.615-3.9-4.834-6.323s-3.319-4.983-6.017-4.7c-2.723.285-4.924,3.436-7.554,2.676-1.658-.479-2.485-2.317-2.9-3.991s-.7-3.526-1.968-4.7-3.9-.86-4.1.854v20.635h49.179s-6.649-4.93-8.158-5.5" transform="translate(-38.64 -21.482)" fill="#a3314f"/><path d="M408.232,223.937c0,.045-11.92.08-26.621.08s-26.624-.036-26.624-.08,11.918-.08,26.624-.08,26.621.037,26.621.08" transform="translate(-38.307 -24.157)" fill="#e0e0e0"/><path d="M408.232,213.834c0,.044-11.92.08-26.621.08s-26.624-.037-26.624-.08,11.918-.08,26.624-.08,26.621.037,26.621.08" transform="translate(-38.307 -23.066)" fill="#263238"/><path d="M408.232,203.731c0,.044-11.92.08-26.621.08s-26.624-.037-26.624-.08,11.918-.08,26.624-.08,26.621.037,26.621.08" transform="translate(-38.307 -21.976)" fill="#263238"/><path d="M408.232,194.13c0,.044-11.92.08-26.621.08s-26.624-.037-26.624-.08,11.918-.08,26.624-.08,26.621.037,26.621.08" transform="translate(-38.307 -20.94)" fill="#263238"/><path d="M255.212,54.06a.5.5,0,0,1,.087,0h.255a5.825,5.825,0,0,1,.98.088,5.374,5.374,0,0,1,1.482.507,4.923,4.923,0,0,1,1.581,1.356,5.7,5.7,0,0,1,1.039,2.319,5.481,5.481,0,0,1-.366,2.9,8.528,8.528,0,0,1-.721,1.43,15.328,15.328,0,0,0-.814,1.442,12.6,12.6,0,0,0-1.088,3.308l-.014.079-.076,0-2.331-.055-2.444-.061-.087,0v-.088a7,7,0,0,0-1-3.27c-.263-.494-.555-.961-.827-1.43a13.684,13.684,0,0,1-.773-1.385,4.553,4.553,0,0,1-.254-2.888,6.135,6.135,0,0,1,1-2.315,4.546,4.546,0,0,1,1.591-1.319,5.739,5.739,0,0,1,1.471-.5,6.138,6.138,0,0,1,.97-.119c.112,0,.2,0,.253,0a.3.3,0,0,1,.086.008.308.308,0,0,1-.086.008l-.252.015a7.3,7.3,0,0,0-.958.149,5.939,5.939,0,0,0-1.442.52,4.5,4.5,0,0,0-1.54,1.31,6.042,6.042,0,0,0-.963,2.272,4.422,4.422,0,0,0,.261,2.8,13.739,13.739,0,0,0,.773,1.367c.269.462.566.933.834,1.431a7.128,7.128,0,0,1,1.029,3.354l-.086-.09,2.444.058,2.331.058-.09.077a12.7,12.7,0,0,1,1.112-3.359,15.234,15.234,0,0,1,.827-1.452,8.58,8.58,0,0,0,.715-1.4,5.353,5.353,0,0,0,.374-2.823,5.582,5.582,0,0,0-1-2.269,4.861,4.861,0,0,0-1.53-1.346,5.438,5.438,0,0,0-1.45-.526,6.631,6.631,0,0,0-.969-.117l-.253-.018a.258.258,0,0,1-.087-.012" transform="translate(-26.947 -5.833)" fill="#263238"/><path d="M256.187,67.744s-.005-.025-.012-.075-.015-.126-.027-.219c-.022-.2-.054-.482-.095-.847-.077-.736-.191-1.8-.244-3.127-.012-.331-.02-.678-.02-1.039s0-.738.039-1.128a3.145,3.145,0,0,1,.314-1.17,1.788,1.788,0,0,1,.936-.864,1.206,1.206,0,0,1,1.274.3.9.9,0,0,1,.249.657,1.147,1.147,0,0,1-.269.666,1.533,1.533,0,0,1-.586.435,2.958,2.958,0,0,1-.71.2,8.386,8.386,0,0,1-1.5.113,8.644,8.644,0,0,1-1.5-.133,2.825,2.825,0,0,1-.7-.234,1.838,1.838,0,0,1-.577-.446,1.372,1.372,0,0,1-.317-.645,1.063,1.063,0,0,1,.112-.695.948.948,0,0,1,.512-.46.849.849,0,0,1,.67.058,1.276,1.276,0,0,1,.484.446,1.764,1.764,0,0,1,.227.6,7.013,7.013,0,0,1,.07,1.208c.009.778.018,1.5.026,2.165.013,1.321.024,2.392.031,3.135,0,.368,0,.654.005.852,0,.1,0,.169,0,.222s0,.075,0,.075,0-.025,0-.075,0-.127-.007-.222c0-.2-.011-.484-.019-.852-.012-.743-.031-1.813-.054-3.134-.011-.662-.022-1.387-.035-2.165a7.085,7.085,0,0,0-.073-1.2,1.689,1.689,0,0,0-.219-.575,1.2,1.2,0,0,0-.459-.421.782.782,0,0,0-.616-.054.878.878,0,0,0-.474.428,1,1,0,0,0-.1.649,1.308,1.308,0,0,0,.3.61,2.128,2.128,0,0,0,1.239.656,8.625,8.625,0,0,0,1.481.131,8.4,8.4,0,0,0,1.483-.112,2.964,2.964,0,0,0,.693-.2,1.469,1.469,0,0,0,.56-.415,1.082,1.082,0,0,0,.253-.624.83.83,0,0,0-.229-.606,1.138,1.138,0,0,0-1.2-.28,1.73,1.73,0,0,0-.9.831,3.1,3.1,0,0,0-.31,1.145c-.037.384-.038.761-.043,1.121s0,.707.014,1.037c.045,1.322.153,2.389.219,3.126.036.366.062.651.081.848.009.095.015.168.02.22s0,.076,0,.076" transform="translate(-27.241 -6.366)" fill="#263238"/><path d="M253.141,68.8c.011.012.02.294.029.787q.009.855.023,2.047l-.018-.051,1.515,1.895-.08-.038,1.84-.029-.079.036.959-1.079.481-.54-.027.07c.018-1.077.036-2.1.052-3.027l.1.1-3.431-.1-.991-.041a2.623,2.623,0,0,1-.369-.029,1.653,1.653,0,0,1,.328-.018l.97-.012,3.5,0h.1v.1c-.01.93-.02,1.95-.031,3.027v.041l-.027.03-.481.54c-.328.369-.651.731-.961,1.078l-.032.036h-.047l-1.839.016h-.051l-.03-.038-1.483-1.919-.019-.023,0-.028q.037-1.222.064-2.1a6.337,6.337,0,0,1,.045-.736" transform="translate(-27.305 -7.421)" fill="#263238"/><path d="M257.791,71.913a1.115,1.115,0,0,1-.171-.08,4.879,4.879,0,0,0-.468-.208,4.653,4.653,0,0,0-3.3-.033c-.2.075-.363.146-.473.2a1.026,1.026,0,0,1-.172.077.856.856,0,0,1,.16-.1,3.932,3.932,0,0,1,.467-.221,4.4,4.4,0,0,1,3.339.033,3.882,3.882,0,0,1,.463.23.872.872,0,0,1,.158.106" transform="translate(-27.324 -7.687)" fill="#263238"/><path d="M257.823,71.089a1.115,1.115,0,0,1-.171-.08,4.878,4.878,0,0,0-.468-.208,4.653,4.653,0,0,0-3.3-.033c-.2.075-.363.146-.473.2a1.023,1.023,0,0,1-.172.077.856.856,0,0,1,.16-.1,3.733,3.733,0,0,1,.467-.221,4.4,4.4,0,0,1,3.339.033,3.732,3.732,0,0,1,.463.231.847.847,0,0,1,.158.105" transform="translate(-27.327 -7.598)" fill="#263238"/><path d="M257.806,70.3a1.115,1.115,0,0,1-.171-.08c-.108-.054-.267-.129-.468-.208a4.647,4.647,0,0,0-3.3-.032c-.2.074-.363.145-.473.2a1.091,1.091,0,0,1-.172.078.756.756,0,0,1,.16-.1,3.716,3.716,0,0,1,.467-.222,4.415,4.415,0,0,1,3.339.033,3.735,3.735,0,0,1,.463.231.845.845,0,0,1,.158.105" transform="translate(-27.325 -7.513)" fill="#263238"/><path d="M277.377,91.92s-1.8,16.455.514,25.466l21.987-.962S295.167,100.191,298.06,93Z" transform="translate(-29.86 -9.919)" fill="#ebebeb"/><path d="M277.556,91.327s.151,17.766,1.054,23.186l22.283-1.054s-1.957-17.465-1.2-22.133Z" transform="translate(-29.951 -9.855)" fill="#a3314f"/><path d="M296.792,99.689c.005.082-3.339.35-7.467.6s-7.481.384-7.486.3,3.338-.35,7.468-.6,7.48-.384,7.486-.3" transform="translate(-30.414 -10.755)" fill="#fff"/><path d="M296.8,103.907c0,.083-3.339.351-7.468.6s-7.48.382-7.486.3,3.338-.35,7.468-.6,7.48-.384,7.486-.3" transform="translate(-30.414 -11.21)" fill="#fff"/><path d="M293.331,108.047a5.251,5.251,0,0,1-1.242.18c-.769.073-1.832.153-3.009.225s-2.243.118-3.014.137a5.247,5.247,0,0,1-1.254-.03,5.342,5.342,0,0,1,1.241-.179c.77-.073,1.833-.154,3.01-.225s2.242-.119,3.014-.137a5.283,5.283,0,0,1,1.254.029" transform="translate(-30.734 -11.655)" fill="#fff"/><path d="M327.47,58.962c0,.128-13.033.232-29.107.232s-29.111-.1-29.111-.232,13.031-.232,29.111-.232,29.107.1,29.107.232" transform="translate(-29.055 -6.338)" fill="#263238"/><path d="M290.574,64.91c0,.128-4.888.232-10.916.232s-10.916-.1-10.916-.232,4.886-.232,10.916-.232,10.916.1,10.916.232" transform="translate(-29 -6.979)" fill="#263238"/><path d="M305.2,64.91a38.273,38.273,0,0,1-8.414,0,38.27,38.27,0,0,1,8.414,0" transform="translate(-32.026 -6.979)" fill="#263238"/><path d="M442.062,118.13a.632.632,0,0,1-.036-.2c-.016-.161-.036-.358-.059-.6q-.067-.847-.181-2.3c-.139-2.038-.336-4.915-.578-8.451-.445-7.175-1.057-17.017-1.732-27.89-.623-10.88-1.186-20.726-1.6-27.9-.18-3.54-.326-6.419-.431-8.46q-.059-1.451-.094-2.3c0-.241-.009-.437-.012-.6a.686.686,0,0,1,.012-.205.676.676,0,0,1,.036.2c.016.161.036.358.059.6q.067.848.181,2.3c.139,2.038.336,4.913.578,8.45.445,7.175,1.057,17.018,1.732,27.895.623,10.875,1.186,20.721,1.6,27.9.18,3.54.327,6.419.431,8.46q.059,1.452.094,2.3c0,.24.009.436.012.6a.676.676,0,0,1-.012.2" transform="translate(-47.194 -4.233)" fill="#263238"/><path d="M414.754,16.537s-.175.015-.517.022l-1.517.021-5.835.03-21.457.027-70.793-.087-73.289-.235.037,0a17.639,17.639,0,0,0-9.318,5.808,17.213,17.213,0,0,0-3.622,7.474,17.931,17.931,0,0,0-.344,5.251c.054.6.11,1.056.162,1.36s.06.463.06.463a12.335,12.335,0,0,1-.31-1.815,17.589,17.589,0,0,1,3.864-12.892A17.853,17.853,0,0,1,241.309,16l.018,0h.02l73.289.087,70.793.223,21.458.12,5.834.057,1.517.026c.342.009.517.025.517.025" transform="translate(-24.595 -1.726)" fill="#263238"/></g><path d="M597.894,328.455a48.849,48.849,0,0,1,46.593-12.787A84.865,84.865,0,0,1,597.344,330.4" transform="translate(-64.46 -33.898)" fill="#a3314f"/><path d="M615.627,262.722c-1.941-13.729,3.394-29.175,13.674-39.155.34,13.607-5.405,28.92-13.674,39.155" transform="translate(-66.391 -24.125)" fill="#a3314f"/><path d="M606.446,292.64a73.316,73.316,0,0,1,33.67-32.178,46.267,46.267,0,0,1-33.8,32.324" transform="translate(-65.429 -28.107)" fill="#a3314f"/><path d="M604.553,300.359c8.293.233,16.685-.059,24.7-2.181s15.7-6.2,21.037-12.552a82.544,82.544,0,0,0-45.618,13.926" transform="translate(-65.238 -30.822)" fill="#a3314f"/><path d="M606.393,279.365c-4.209-15.776-11.154-26.689-23.554-35.53a32.812,32.812,0,0,0,23.554,35.53" transform="translate(-62.869 -26.313)" fill="#a3314f"/><path d="M574.182,311.545a23.357,23.357,0,0,1,14.187-21.629c-.69,8.147-7.089,17.571-14.187,21.629" transform="translate(-61.96 -31.285)" fill="#a3314f"/><path d="M566.984,295.661a34.8,34.8,0,0,0-22.795-29.682c2.865,13.183,10.486,24.158,22.795,29.682" transform="translate(-58.724 -28.702)" fill="#a3314f"/><path d="M573.067,324.551c-2.924-4.183-7.7-6.785-12.635-8.077s-10.1-1.406-15.2-1.513a35.535,35.535,0,0,0,27.447,11.431" transform="translate(-58.837 -33.988)" fill="#a3314f"/><path d="M577.326,363.2a38.937,38.937,0,0,0-47.547,22.523c17.273-3.278,34.315-10.949,47.547-22.523" transform="translate(-57.169 -39.009)" fill="#a3314f"/><path d="M604.126,350.3c-2.869,8.481-2.319,18.732,4.06,26.042a31.117,31.117,0,0,0-4.06-26.042" transform="translate(-65.013 -37.802)" fill="#a3314f"/><path d="M616.885,345.024a31.9,31.9,0,0,0,17.622,25.889,1.983,1.983,0,0,0,1.558.256c.777-.317.847-1.377.752-2.211-1.249-10.866-9.3-21.374-19.933-23.935" transform="translate(-66.569 -37.232)" fill="#a3314f"/><path d="M625.089,343.645a26.164,26.164,0,0,0,38.223.2c-12.15-1.33-26.169-2.217-38.223-.2" transform="translate(-67.454 -36.955)" fill="#a3314f"/><path d="M622.637,234.91a2.236,2.236,0,0,1-.112.356l-.37,1.029-1.466,3.934c-.654,1.7-1.408,3.8-2.282,6.238q-.66,1.827-1.407,3.9-.72,2.085-1.517,4.4c-2.153,6.152-4.542,13.537-7.123,21.758-2.534,8.237-5.195,17.331-7.812,26.924-2.583,9.606-4.873,18.8-6.822,27.2-1.893,8.408-3.522,16-4.7,22.408q-.454,2.4-.862,4.568-.369,2.17-.695,4.088c-.44,2.551-.817,4.749-1.07,6.554-.274,1.782-.488,3.176-.638,4.148-.075.457-.134.814-.177,1.078a2.207,2.207,0,0,1-.077.366,2.154,2.154,0,0,1,.029-.372c.032-.265.076-.625.131-1.084.129-.976.315-2.374.551-4.162.226-1.81.577-4.013.993-6.57l.66-4.1q.392-2.169.83-4.577c1.136-6.422,2.732-14.025,4.6-22.443,1.927-8.405,4.205-17.611,6.79-27.224,2.619-9.6,5.295-18.695,7.852-26.929,2.6-8.22,5.028-15.6,7.221-21.739q.814-2.3,1.55-4.385.764-2.065,1.442-3.891c.9-2.43,1.676-4.52,2.357-6.213.665-1.677,1.185-2.988,1.547-3.9.175-.428.312-.763.414-1.011a2.32,2.32,0,0,1,.155-.339" transform="translate(-63.183 -25.349)" fill="#263238"/><path d="M552.318,273.868a1.318,1.318,0,0,1,.21.2l.581.611c.508.541,1.243,1.349,2.161,2.417a85.237,85.237,0,0,1,7.153,9.538,64.035,64.035,0,0,1,7.48,16c2,6.37,3.248,13.611,4.486,21.178,2.471,15.15,5.5,28.718,7.7,38.534,1.106,4.883,2,8.844,2.632,11.619l.7,3.162c.071.343.128.615.171.825a1.326,1.326,0,0,1,.043.285,1.256,1.256,0,0,1-.089-.274c-.055-.208-.126-.476-.216-.814-.186-.748-.45-1.8-.785-3.143-.663-2.765-1.609-6.717-2.775-11.586-2.277-9.8-5.361-23.366-7.834-38.531-1.239-7.569-2.467-14.786-4.437-21.128a64.748,64.748,0,0,0-7.348-15.952,91.905,91.905,0,0,0-7.014-9.6c-.895-1.084-1.608-1.911-2.092-2.471l-.546-.641a1.322,1.322,0,0,1-.175-.229" transform="translate(-59.601 -29.553)" fill="#263238"/><path d="M624.83,343.209a1.638,1.638,0,0,1-.438.08l-1.258.139-.908.089-1.075.161c-.771.114-1.65.227-2.609.44l-1.508.3-1.616.409c-1.124.254-2.286.665-3.525,1.039a51.847,51.847,0,0,0-7.693,3.39,43.485,43.485,0,0,0-6.9,4.791,34.787,34.787,0,0,0-2.647,2.541,27.553,27.553,0,0,0-2.094,2.416,25.268,25.268,0,0,0-1.55,2.137,15.793,15.793,0,0,0-1.062,1.689l-.645,1.088a.223.223,0,1,1-.083-.042l.57-1.135a14.034,14.034,0,0,1,1-1.742,23.383,23.383,0,0,1,1.508-2.2,26.367,26.367,0,0,1,2.073-2.479,33.212,33.212,0,0,1,2.647-2.6,41.933,41.933,0,0,1,6.954-4.874,49.491,49.491,0,0,1,7.783-3.39c1.253-.366,2.429-.767,3.567-1.007l1.634-.385,1.525-.273c.968-.194,1.856-.285,2.635-.375l1.084-.124.916-.049,1.268-.053a1.575,1.575,0,0,1,.443.013" transform="translate(-63.565 -37.034)" fill="#263238"/><path d="M630.161,274.195a6.09,6.09,0,0,1-.875.843l-2.5,2.17c-2.125,1.815-5.08,4.3-8.364,7.023s-6.274,5.169-8.453,6.92l-2.594,2.055a6.045,6.045,0,0,1-.991.7,6.155,6.155,0,0,1,.878-.845l2.5-2.17c2.124-1.815,5.079-4.3,8.362-7.022s6.27-5.164,8.447-6.915l2.6-2.055a6.149,6.149,0,0,1,.993-.707" transform="translate(-65.435 -29.589)" fill="#263238"/><path d="M632.922,292.21c.037.123-6.344,2.116-14.248,4.452s-14.344,4.129-14.38,4.006,6.342-2.116,14.249-4.452,14.342-4.129,14.379-4.006" transform="translate(-65.21 -31.532)" fill="#263238"/><path d="M607.884,282.29a5.269,5.269,0,0,1-.658-.916l-1.682-2.562c-1.426-2.158-3.451-5.1-5.846-8.237s-4.7-5.863-6.405-7.812l-2.02-2.306a5.287,5.287,0,0,1-.706-.88,5.268,5.268,0,0,1,.837.756c.519.507,1.249,1.261,2.133,2.21,1.766,1.9,4.122,4.6,6.53,7.75s4.394,6.132,5.753,8.341c.68,1.1,1.211,2.009,1.559,2.646a5.293,5.293,0,0,1,.5,1.01" transform="translate(-63.729 -28.011)" fill="#263238"/><path d="M583.971,295.038a21.227,21.227,0,0,1-1.5,2.461c-.954,1.5-2.246,3.582-3.585,5.933s-2.468,4.531-3.269,6.115a21,21,0,0,1-1.351,2.544,15.257,15.257,0,0,1,1.054-2.685c.727-1.626,1.817-3.838,3.162-6.2s2.69-4.43,3.716-5.887a15.311,15.311,0,0,1,1.77-2.278" transform="translate(-61.969 -31.838)" fill="#263238"/><path d="M573.9,325.239c-.033.063-1.25-.532-3.242-1.428s-4.773-2.068-7.916-3.17-6.05-1.918-8.167-2.459-3.438-.835-3.425-.905a3.78,3.78,0,0,1,.95.1c.607.09,1.478.255,2.55.486a71.171,71.171,0,0,1,16.147,5.651c.982.488,1.766.9,2.3,1.211a3.741,3.741,0,0,1,.8.515" transform="translate(-59.475 -34.237)" fill="#263238"/><path d="M578.811,363.462a1.4,1.4,0,0,1-.393.133l-1.148.293-4.244.98a140.027,140.027,0,0,0-13.858,3.658,61.529,61.529,0,0,0-12.93,6.074c-1.545.984-2.749,1.854-3.561,2.48a12.534,12.534,0,0,1-1.285.949c-.011-.012.087-.115.285-.3s.486-.463.886-.789a37.269,37.269,0,0,1,3.5-2.615,56.7,56.7,0,0,1,12.957-6.237,115.92,115.92,0,0,1,13.941-3.54l4.274-.835a10.665,10.665,0,0,1,1.58-.249" transform="translate(-58.422 -39.221)" fill="#263238"/><path d="M607.169,370.22c-.127.019-.887-4.456-1.7-9.993s-1.364-10.043-1.237-10.062.886,4.455,1.7,9.994,1.363,10.042,1.236,10.061" transform="translate(-65.202 -37.787)" fill="#263238"/><path d="M631.043,361.517a23.321,23.321,0,0,1-2.024-2.4c-1.215-1.512-2.9-3.594-4.8-5.858s-3.665-4.279-4.945-5.736a23.593,23.593,0,0,1-2.02-2.408,2.949,2.949,0,0,1,.643.551c.393.375.947.933,1.619,1.634,1.344,1.4,3.15,3.39,5.058,5.659s3.552,4.391,4.7,5.956c.574.782,1.029,1.424,1.332,1.876a3,3,0,0,1,.432.729" transform="translate(-66.609 -37.241)" fill="#263238"/><path d="M566.063,386.859v11.1h2.775l9.867,31.145h21.883l9.56-30.837,3.7-.309v-11.1Z" transform="translate(-61.085 -41.746)" fill="#455a64"/><path d="M612.334,399.621c0,.128-9.662.232-21.579.232s-21.581-.1-21.581-.232,9.66-.232,21.581-.232,21.579.1,21.579.232" transform="translate(-61.42 -43.099)" fill="#263238"/><path d="M630.978,319.6a8.7,8.7,0,0,1-1.4.379l-3.841.926c-3.237.8-7.682,2.019-12.5,3.638s-9.1,3.341-12.164,4.658l-3.62,1.583a8.693,8.693,0,0,1-1.346.545,8.775,8.775,0,0,1,1.268-.708c.829-.433,2.046-1.023,3.565-1.721a126.291,126.291,0,0,1,24.725-8.316c1.632-.362,2.958-.627,3.88-.783a8.71,8.71,0,0,1,1.439-.2" transform="translate(-64.326 -34.488)" fill="#263238"/><path d="M605.748,419.008c0,.128-6.779.232-15.14.232s-15.141-.1-15.141-.232,6.778-.232,15.141-.232,15.14.1,15.14.232" transform="translate(-62.099 -45.191)" fill="#fafafa"/><path d="M606.483,416.122c0,.128-7.184.232-16.044.232s-16.046-.1-16.046-.232,7.182-.232,16.046-.232,16.044.1,16.044.232" transform="translate(-61.983 -44.879)" fill="#fafafa"/><path d="M458,402.462l-1.448,18.315s-18.1,5.815-18.2,9.2l35.4.466,1.046-28.022Z" transform="translate(-47.303 -43.426)" fill="#a3314f"/><path d="M470.775,420.9a1.447,1.447,0,0,1,1.05,1.621,1.392,1.392,0,0,1-1.6,1.055,1.526,1.526,0,0,1-1.1-1.723,1.443,1.443,0,0,1,1.783-.913" transform="translate(-50.619 -45.414)" fill="#ebebeb"/><path d="M473.74,433.493l-.071-2.84-33.523.206s-1.922,1.145-1.871,2.249Z" transform="translate(-47.295 -46.472)" fill="#ebebeb"/><path d="M458.1,422.793c.011.173.877.226,1.745.756.882.508,1.344,1.244,1.5,1.171.159-.038-.13-1.065-1.193-1.69s-2.1-.394-2.053-.237" transform="translate(-49.434 -45.605)" fill="#263238"/><path d="M453.989,424.653c-.035.169.723.441,1.333,1.154.631.7.8,1.483.975,1.47.163.022.252-.995-.523-1.868s-1.786-.922-1.785-.757" transform="translate(-48.99 -45.817)" fill="#263238"/><path d="M451.6,429.362c.159.032.373-.839-.1-1.773s-1.293-1.286-1.361-1.14c-.094.145.447.638.823,1.41.394.764.466,1.492.638,1.5" transform="translate(-48.573 -46.015)" fill="#263238"/><path d="M458.31,418.041c.077.155.864-.107,1.843-.07.981.017,1.752.323,1.837.171.1-.128-.665-.746-1.82-.773s-1.949.54-1.86.673" transform="translate(-49.456 -45.039)" fill="#263238"/><path d="M458.115,413.634a3.33,3.33,0,0,0,1.774-.062,7.983,7.983,0,0,0,1.839-.626,8.386,8.386,0,0,0,1-.571,2.19,2.19,0,0,0,.523-.434.753.753,0,0,0,.052-.922.949.949,0,0,0-.77-.373,2.305,2.305,0,0,0-.662.112,6.342,6.342,0,0,0-1.092.412,6.265,6.265,0,0,0-1.6,1.123c-.8.786-1.06,1.44-1,1.472.08.054.464-.5,1.282-1.153a7.081,7.081,0,0,1,1.555-.939,6.58,6.58,0,0,1,1.01-.344c.372-.11.69-.122.792.042.037.062.042.087-.033.2a1.825,1.825,0,0,1-.384.317,9.556,9.556,0,0,1-.922.564,9.9,9.9,0,0,1-1.695.709,12.138,12.138,0,0,0-1.667.475" transform="translate(-49.436 -44.313)" fill="#263238"/><path d="M458.08,413.591a2.829,2.829,0,0,0,.417-1.728,5.77,5.77,0,0,0-.3-1.935,5.829,5.829,0,0,0-.484-1.063,1.467,1.467,0,0,0-1.159-.862.829.829,0,0,0-.726.517,2.419,2.419,0,0,0-.162.657,3.936,3.936,0,0,0,.035,1.195,4.073,4.073,0,0,0,.813,1.81c.72.9,1.448,1.082,1.46,1.023.055-.088-.558-.4-1.113-1.27a4.089,4.089,0,0,1-.612-1.65,3.666,3.666,0,0,1,0-1.027c.045-.377.177-.686.318-.651.176-.008.484.266.638.562a5.84,5.84,0,0,1,.468.948,6.352,6.352,0,0,1,.4,1.76c.08,1.038-.086,1.691.01,1.715" transform="translate(-49.168 -44.028)" fill="#263238"/><path d="M544.329,399.05l4.091,21.389,8.114,15.984a2.232,2.232,0,0,1-3.154,2.914c-3.919-2.418-18.292-11.38-18.5-12.962-.245-1.832-5.814-22.275-5.814-22.275Z" transform="translate(-57.092 -43.062)" fill="#a3314f"/><path d="M556.083,442.617l-20.85-14.549.195.9a3.357,3.357,0,0,0,1.236,1.962c1.693,1.3,6.448,4.779,17.317,11.55a2.231,2.231,0,0,0,2.1.136" transform="translate(-57.758 -46.193)" fill="#ebebeb"/><path d="M538.281,421.019a1.349,1.349,0,0,1,.732,1.646,1.3,1.3,0,0,1-1.625.74,1.423,1.423,0,0,1-.766-1.747,1.346,1.346,0,0,1,1.776-.582" transform="translate(-57.897 -45.422)" fill="#ebebeb"/><path d="M550.9,434.738a4.815,4.815,0,0,1,3.861-3.054c.007-.056-.3-.164-.811-.127a3.558,3.558,0,0,0-2.987,2.361c-.154.492-.12.813-.063.819" transform="translate(-59.443 -46.569)" fill="#263238"/><path d="M553.292,437.69c.121.07.656-.769,1.689-1.321a18.292,18.292,0,0,1,2.021-.715,2.479,2.479,0,0,0-2.252.3c-1.174.637-1.582,1.707-1.458,1.74" transform="translate(-59.704 -46.997)" fill="#263238"/><path d="M546.861,431.263a11.468,11.468,0,0,1,5.469-3.63,6.1,6.1,0,0,0-5.469,3.63" transform="translate(-59.011 -46.141)" fill="#263238"/><path d="M544.858,424.332c.084.115,1.154-.629,2.674-1.013,1.513-.4,2.81-.277,2.828-.419a5.536,5.536,0,0,0-5.5,1.433" transform="translate(-58.796 -45.609)" fill="#263238"/><path d="M543.334,417.329a7.087,7.087,0,0,1,5.73-1.028c.026-.052-.264-.268-.816-.447a4.864,4.864,0,0,0-4.3.772c-.455.359-.652.663-.61.7" transform="translate(-58.631 -44.854)" fill="#263238"/><path d="M545.65,414.456a1.893,1.893,0,0,0-.145-.812,5.719,5.719,0,0,0-1.094-1.971,2.536,2.536,0,0,0-1.318-.956.9.9,0,0,0-.946.408,1.456,1.456,0,0,0-.13,1.034,3.153,3.153,0,0,0,3.316,2.271,3.659,3.659,0,0,0,3.111-2.626,1.271,1.271,0,0,0-.164-1.045.878.878,0,0,0-1-.261,3.122,3.122,0,0,0-1.246,1.03,6.373,6.373,0,0,0-1.1,1.967,1.949,1.949,0,0,0-.169.806,10.138,10.138,0,0,1,1.524-2.553,2.919,2.919,0,0,1,1.108-.872.468.468,0,0,1,.544.139.869.869,0,0,1,.067.693,3.263,3.263,0,0,1-2.723,2.245,2.737,2.737,0,0,1-2.842-1.888,1.057,1.057,0,0,1,.06-.725.487.487,0,0,1,.519-.233,2.3,2.3,0,0,1,1.131.789,8.469,8.469,0,0,1,1.492,2.559" transform="translate(-58.486 -44.291)" fill="#263238"/><path d="M459.749,213.059c-.226-.007-2.939,179.442-2.939,179.442l21.684-.749L486,303.529l1.8-64.767,14.755,59.9,18.4,94.017,21.655-5.437L515.054,211.892l-25.946-5.02Z" transform="translate(-49.295 -22.324)" fill="#263238"/><path d="M509,85.874c2.593-5.127,3.412-14.326.435-19.423s-9-8.774-14.657-10.451a4.891,4.891,0,0,0-2.906-.186,1.952,1.952,0,0,0-1.376,2.278,12.358,12.358,0,0,0-3.534-2.042,4.193,4.193,0,0,0-3.893.55,2.573,2.573,0,0,0-.374,3.625,4.424,4.424,0,0,0-6.018,5.451,14.056,14.056,0,0,0,2.888,4.537,3.967,3.967,0,0,1,.91,3.97" transform="translate(-51.415 -6.006)" fill="#263238"/><path d="M487.992,128.583c.158-2.458.555-24.708.551-24.81,0,0-8.259-1.022-8.616-9.237-.173-3.968.137-12.169.5-19.587A15.317,15.317,0,0,1,495.257,60.4l.793-.025c8.566.234,13.153,7.639,12.682,16.195l-1.172,47.611" transform="translate(-51.784 -6.515)" fill="#ffbe9d"/><path d="M489.58,108.6a19.863,19.863,0,0,0,10.6-3.5s-2.467,5.14-10.69,4.656Z" transform="translate(-52.822 -11.342)" fill="#eb996e"/><path d="M482.043,82.8a1.175,1.175,0,0,0,1.169,1.149,1.123,1.123,0,0,0,1.177-1.1,1.174,1.174,0,0,0-1.168-1.149,1.123,1.123,0,0,0-1.178,1.1" transform="translate(-52.018 -8.817)" fill="#263238"/><path d="M482.616,81c.15.148,1.019-.537,2.282-.573,1.26-.054,2.208.566,2.34.408.065-.07-.091-.343-.5-.624a3.223,3.223,0,0,0-1.88-.516,3.1,3.1,0,0,0-1.81.647c-.379.31-.5.591-.428.657" transform="translate(-52.077 -8.6)" fill="#263238"/><path d="M496.232,83.006a1.175,1.175,0,0,0,1.169,1.149,1.123,1.123,0,0,0,1.177-1.1,1.174,1.174,0,0,0-1.168-1.149,1.123,1.123,0,0,0-1.178,1.1" transform="translate(-53.549 -8.839)" fill="#263238"/><path d="M496.54,80.835c.15.149,1.02-.537,2.281-.573,1.261-.054,2.21.566,2.341.408.065-.07-.09-.342-.5-.624a3.227,3.227,0,0,0-1.88-.516,3.1,3.1,0,0,0-1.811.647c-.377.31-.5.591-.427.657" transform="translate(-53.58 -8.582)" fill="#263238"/><path d="M491.337,90.377a8.311,8.311,0,0,0-2.062-.306c-.324-.023-.631-.079-.692-.3a1.647,1.647,0,0,1,.186-.963l.878-2.485a42.326,42.326,0,0,0,1.942-6.489,42.313,42.313,0,0,0-2.46,6.318q-.438,1.309-.837,2.5a1.876,1.876,0,0,0-.128,1.271.81.81,0,0,0,.545.455,2.2,2.2,0,0,0,.55.059,8.19,8.19,0,0,0,2.079-.062" transform="translate(-52.67 -8.615)" fill="#263238"/><path d="M495.453,92.5c-.206-.005-.166,1.365-1.309,2.375s-2.607.9-2.612,1.1c-.016.087.334.256.951.253a3.418,3.418,0,0,0,2.183-.838,2.973,2.973,0,0,0,1.009-1.988c.035-.575-.128-.909-.222-.9" transform="translate(-53.042 -9.982)" fill="#263238"/><path d="M496,75.332c.136.34,1.392.138,2.878.27,1.491.1,2.7.5,2.886.185.083-.15-.136-.466-.629-.784a5.033,5.033,0,0,0-4.391-.346c-.537.236-.8.514-.744.675" transform="translate(-53.523 -8.019)" fill="#263238"/><path d="M483.007,76.881c.231.28,1.092-.045,2.137-.092,1.044-.083,1.938.133,2.132-.173.086-.149-.063-.432-.459-.691a3.1,3.1,0,0,0-3.441.214c-.36.306-.473.606-.37.742" transform="translate(-52.118 -8.148)" fill="#263238"/><path d="M511.673,85.332c.138-.065,5.594-1.846,5.59,3.778s-5.65,4.46-5.659,4.3.07-8.076.07-8.076" transform="translate(-55.208 -9.174)" fill="#ffbe9d"/><path d="M513.531,91.5c.025-.018.1.069.263.145a.979.979,0,0,0,.732.016,2.426,2.426,0,0,0,1.124-2.174,3.256,3.256,0,0,0-.273-1.4,1.129,1.129,0,0,0-.737-.752.5.5,0,0,0-.578.268c-.076.157-.04.269-.07.279s-.12-.095-.075-.326a.625.625,0,0,1,.221-.352.736.736,0,0,1,.542-.143,1.379,1.379,0,0,1,1.023.872,3.319,3.319,0,0,1,.338,1.568,2.545,2.545,0,0,1-1.431,2.427,1.052,1.052,0,0,1-.9-.15c-.174-.139-.2-.264-.184-.275" transform="translate(-55.415 -9.394)" fill="#eb996e"/><path d="M476.474,64.168c-.658,7.292,8.321,10.336,12.264,6.259,1.823-1.885,3.413-4.242,5.894-5.091a6.674,6.674,0,0,1,5.126.54l.048.024c2.316,1.2,3.684,3.888,4.043,6.474.5,3.6-.077,6.784.86,10.095a2.235,2.235,0,0,0,.693,1.276,1.786,1.786,0,0,0,2.224-.564,6.939,6.939,0,0,0,1.41-3.711,23.141,23.141,0,0,0-.336-9.112,15.753,15.753,0,0,0-4.572-7.808,14.919,14.919,0,0,0-10.579-3.626,18.323,18.323,0,0,0-10.5,4.127,10.739,10.739,0,0,0-3.327,4.082" transform="translate(-51.413 -6.357)" fill="#263238"/><path d="M482.662,60.306a1.645,1.645,0,0,0-.778.033,3.86,3.86,0,0,0-1.858,1.034,4.774,4.774,0,0,0-1.4,2.832,5.4,5.4,0,0,0,1.076,3.706,7.063,7.063,0,0,0,3.043,2.373,9.568,9.568,0,0,0,3.068.682,11.914,11.914,0,0,0,2.105-.064,2.347,2.347,0,0,0,.757-.155c-.005-.079-1.1.079-2.837-.086a9.992,9.992,0,0,1-2.937-.742,6.889,6.889,0,0,1-2.849-2.261,5.112,5.112,0,0,1-1.029-3.41,4.593,4.593,0,0,1,1.218-2.659,4.028,4.028,0,0,1,1.684-1.087,6.956,6.956,0,0,0,.734-.2" transform="translate(-51.646 -6.505)" fill="#455a64"/><path d="M487.194,57.419c0-.021-.206-.062-.536.095a1.775,1.775,0,0,0-.877,1.2,3.273,3.273,0,0,0,.428,2.153,9.4,9.4,0,0,0,1.541,2.152,9.727,9.727,0,0,0,4.022,2.55,4.618,4.618,0,0,0,1.944.33c.013-.077-.734-.173-1.84-.618a10.673,10.673,0,0,1-3.812-2.559,9.922,9.922,0,0,1-1.5-2.039,3.109,3.109,0,0,1-.481-1.91,1.711,1.711,0,0,1,.663-1.113c.263-.181.457-.2.451-.239" transform="translate(-52.416 -6.194)" fill="#455a64"/><path d="M424.931,138.073l-38.676-3.67-6.123-1.47s-13.987-2.5-15.3-2.913c-1.517-.475-2.112.142-2.248.713-.213.89.667,1.843,1.957,2.291.445.155,7.575,2.316,7.575,2.316a17.631,17.631,0,0,0-2.349.779c-1.659.637-3.19,2.87-3.9,5.43s-.682,3.339.3,3.661a1.315,1.315,0,0,0,1.112-.2,2.6,2.6,0,0,0,1.1-1.492c1.192-4.085,3.7-4.5,3.7-4.5l.8.193s-2.534,1.919-2.4,4.116a2.511,2.511,0,0,0,.239.935,3.328,3.328,0,0,0,3.881,4.23c.549-.118,1.137-.468,1.194-1.028a1.769,1.769,0,0,0-.212-.855,2.743,2.743,0,0,1-.154-.445l2.319.225s5.237.227,7.506.583l36.455,9.436a9.337,9.337,0,1,0,3.222-18.334" transform="translate(-39.123 -14.012)" fill="#ffbe9d"/><path d="M386.777,135.87a1.939,1.939,0,0,1-1.6,1.6c-.785.2-1.614.121-2.411.261-2.385.417-4.162,2.671-6.564,2.973-.335.042-.761-.011-.873-.329-.1-.294.143-.588.368-.8l5.8-5.542" transform="translate(-40.5 -14.463)" fill="#ffbe9d"/><path d="M381.467,134.03a3.187,3.187,0,0,0-.688.535c-.423.366-1.024.906-1.759,1.581l-2.568,2.388-.738.695c-.217.239-.607.453-.657,1.006a.674.674,0,0,0,.436.62,1.384,1.384,0,0,0,.651.081,5.27,5.27,0,0,0,1.15-.275,30.874,30.874,0,0,0,3.773-2.1,6.048,6.048,0,0,1,1.691-.637c.553-.106,1.1-.11,1.606-.166a2.822,2.822,0,0,0,2.155-1.034c.337-.5.246-.864.231-.851a2.346,2.346,0,0,1-.372.743,2.736,2.736,0,0,1-2.042.82c-.489.035-1.04.018-1.645.115a6.224,6.224,0,0,0-1.819.636,35.721,35.721,0,0,1-3.732,2.046,4.933,4.933,0,0,1-1.038.252c-.331.037-.621-.072-.6-.251-.005-.2.261-.452.511-.688l.727-.706,2.5-2.46c.707-.7,1.274-1.281,1.658-1.686a3.208,3.208,0,0,0,.566-.664" transform="translate(-40.473 -14.463)" fill="#eb996e"/><path d="M373.334,140.219a3.3,3.3,0,0,0-1.514.039,2.558,2.558,0,0,0-1.283.957,6.563,6.563,0,0,0-.876,1.835,10.4,10.4,0,0,1-.8,1.953,3.357,3.357,0,0,1-1.211,1.261,1.311,1.311,0,0,1-1.177.073c-.256-.124-.356-.247-.348-.255.015-.025.141.066.389.148a1.237,1.237,0,0,0,1.033-.148,3.325,3.325,0,0,0,1.078-1.214,11.4,11.4,0,0,0,.757-1.914,6.358,6.358,0,0,1,.939-1.9,2.675,2.675,0,0,1,1.441-.992,2.377,2.377,0,0,1,1.178-.01c.269.07.4.155.394.17" transform="translate(-39.509 -15.105)" fill="#eb996e"/><path d="M364.227,133.205a8.424,8.424,0,0,1,1.419.42l3.392,1.1,3.409,1.047a8.446,8.446,0,0,1,1.4.47,6.6,6.6,0,0,1-1.459-.269c-.89-.212-2.111-.548-3.443-.967s-2.523-.846-3.374-1.183a6.6,6.6,0,0,1-1.349-.616" transform="translate(-39.304 -14.374)" fill="#eb996e"/><path d="M375.068,142.607c.016.016-.1.138-.289.363a1.374,1.374,0,0,0-.393,1.076.734.734,0,0,0,.475.552,3.9,3.9,0,0,0,.94.22,1.658,1.658,0,0,1,1.06.516,1.411,1.411,0,0,1,.225,1.258,1.6,1.6,0,0,1-.829.963,2,2,0,0,1-1.153.218,6.506,6.506,0,0,1-1.81-.6,3.8,3.8,0,0,1-1.058-.726c-.211-.226-.269-.392-.256-.4s.112.125.335.313a4.53,4.53,0,0,0,1.067.621,6.985,6.985,0,0,0,1.755.515,1.588,1.588,0,0,0,1.666-.991,1.134,1.134,0,0,0-.167-1,1.415,1.415,0,0,0-.885-.429,3.919,3.919,0,0,1-.995-.266.957.957,0,0,1-.577-.741,1.439,1.439,0,0,1,.516-1.186c.222-.207.36-.3.373-.285" transform="translate(-40.141 -15.389)" fill="#eb996e"/><path d="M376.025,147.758c0-.014.165-.006.389.164a1.29,1.29,0,0,1,.473,1.054,1.718,1.718,0,0,1-.966,1.407,2.814,2.814,0,0,1-2.087.112,3.406,3.406,0,0,1-1.709-1.2,3.248,3.248,0,0,1-.622-1.586,3.075,3.075,0,0,1,.08-1.139c.072-.26.146-.391.162-.384a5.385,5.385,0,0,0-.036,1.5,3.2,3.2,0,0,0,.631,1.45,3.25,3.25,0,0,0,1.581,1.083,2.613,2.613,0,0,0,1.878-.073,1.527,1.527,0,0,0,.88-1.178,1.225,1.225,0,0,0-.341-.953c-.178-.179-.323-.227-.313-.251" transform="translate(-40.087 -15.775)" fill="#eb996e"/><path d="M383.391,143.58a1.209,1.209,0,0,1,.221-.676,2.791,2.791,0,0,1,1.357-1.2l0,.26a8.392,8.392,0,0,1-.9-.452,6.358,6.358,0,0,1-2.511-2.392,16.064,16.064,0,0,0,2.659,2.137c.294.171.588.321.864.449l.305.141-.31.12A2.931,2.931,0,0,0,383.763,143c-.246.347-.334.594-.371.582" transform="translate(-41.174 -15.012)" fill="#eb996e"/><path d="M370,140.04c.054-.056.478.376.55,1.085s-.244,1.221-.309,1.178.088-.531.016-1.146-.327-1.066-.258-1.116" transform="translate(-39.926 -15.111)" fill="#eb996e"/><path d="M429.979,154.921,455.2,149.1s-1.305,46.246-1.3,46.683-2.082,1.164-1.9,4.52l1.813,3.992,55.313.742,1.492-44.914,5.047-34.826-11.6-7.18-4.084-5.542L484.023,129.4l-3.968-14.362.114-4.274-3.944,4.28-21.273,6.135-28.105,13.1-19-1.451-4.934,16.626Z" transform="translate(-43.479 -11.953)" fill="#a3314f"/><path d="M490.732,124.8a2.569,2.569,0,0,0-1.142,1.274,5.136,5.136,0,0,0-.347,1.942,7.334,7.334,0,0,1-.376,2.646l-.19.462-.2-.461a25.322,25.322,0,0,1-1.247-4.091c-.673-2.89-1.1-5.536-1.39-7.454a18.642,18.642,0,0,1-.335-3.122,23.781,23.781,0,0,1,.658,3.068c.369,1.9.85,4.532,1.518,7.4a28.142,28.142,0,0,0,1.184,4.023l-.39,0a7.367,7.367,0,0,0,.411-2.492,5.09,5.09,0,0,1,.469-2.034,2.316,2.316,0,0,1,.911-1.018c.285-.153.461-.162.465-.146" transform="translate(-52.39 -12.517)" fill="#263238"/><path d="M512.669,117.953a3.7,3.7,0,0,1-.54.775c-.371.479-.919,1.163-1.6,2-1.369,1.677-3.286,3.973-5.424,6.491l-3.406,3.973-.263.308-.1-.391c-.484-1.938-.877-3.577-1.14-4.726-.107-.577-.429-.907-.74-.914a.681.681,0,0,0-.428.123c-.022.007.062-.236.433-.254a.8.8,0,0,1,.587.24,1.732,1.732,0,0,1,.389.738c.335,1.14.784,2.758,1.3,4.688l-.36-.082,3.369-4c2.138-2.517,4.094-4.78,5.527-6.4.716-.812,1.3-1.463,1.715-1.906a3.77,3.77,0,0,1,.678-.658" transform="translate(-53.85 -12.728)" fill="#263238"/><path d="M487.932,193.657a2.909,2.909,0,0,1-.045-.6c-.01-.44-.022-1.01-.038-1.716-.028-1.491-.029-3.648,0-6.313.062-5.33.315-12.7.919-20.809s1.454-15.438,2.187-20.718c.365-2.641.687-4.774.935-6.244.121-.7.219-1.258.293-1.691a2.917,2.917,0,0,1,.134-.585,2.935,2.935,0,0,1-.041.6c-.053.436-.121,1-.207,1.7-.194,1.533-.461,3.658-.789,6.26-.648,5.287-1.441,12.6-2.049,20.711s-.908,15.456-1.054,20.781c-.062,2.621-.114,4.762-.151,6.307-.021.707-.037,1.276-.049,1.715a2.914,2.914,0,0,1-.048.6" transform="translate(-52.642 -14.566)" fill="#263238"/><path d="M482.846,211.945a10.4,10.4,0,0,1-.413-3.969,14.293,14.293,0,0,1,.46-3.96,21.58,21.58,0,0,1,0,3.971c-.07,2.179.075,3.939-.052,3.958" transform="translate(-52.059 -22.016)" fill="#263238"/><path d="M503.711,198.352a9.528,9.528,0,0,1-1.424.537c-.925.321-2.277.746-3.958,1.235a130.509,130.509,0,0,1-26.9,4.78c-1.747.12-3.162.186-4.14.2a9.7,9.7,0,0,1-1.522-.013,9.534,9.534,0,0,1,1.512-.168l4.123-.351c3.478-.32,8.274-.884,13.522-1.814s9.941-2.057,13.317-2.956l3.992-1.091a9.591,9.591,0,0,1,1.477-.364" transform="translate(-50.261 -21.404)" fill="#263238"/><path d="M461.2,161.123c-.128,0-.209-6.563-.18-14.656s.155-14.656.284-14.655.21,6.561.181,14.657-.156,14.654-.285,14.654" transform="translate(-49.748 -14.224)" fill="#263238"/><path d="M527.4,126.338s6.971,5.979,7.428,9.362c.353,2.617,7.208,27.2,10.3,38.2a16.052,16.052,0,0,1-.583,10.377l-8.906,22.036-14.411-8.525,7.205-20.668-5.966-17.536Z" transform="translate(-56.246 -13.633)" fill="#a3314f"/><path d="M534.965,206.518a1.3,1.3,0,0,1-.271-.129l-.769-.425-2.914-1.668-10.548-6.148-.126-.074.048-.139,7.157-20.684,0,.155-2.627-7.052L518.961,154.3l.007.017c-1.827-3.835-3.408-7.537-3.848-11.086a15.547,15.547,0,0,1,.148-4.981,14.7,14.7,0,0,1,1.447-4.007,16.668,16.668,0,0,1,3.722-4.7,13.283,13.283,0,0,1,1.252-.992,3.169,3.169,0,0,1,.462-.3,3.147,3.147,0,0,1-.419.356c-.283.223-.7.563-1.2,1.039a17.206,17.206,0,0,0-3.583,4.716,14.566,14.566,0,0,0-1.37,3.946,15.344,15.344,0,0,0-.1,4.873c.459,3.476,2.037,7.124,3.878,10.948l0,.008,0,.01,5.988,16.041,2.622,7.055.029.078-.027.078c-2.727,7.764-5.21,14.835-7.253,20.651l-.078-.213,10.468,6.284,2.865,1.751.742.468a1.3,1.3,0,0,1,.244.176" transform="translate(-55.573 -13.84)" fill="#263238"/><g transform="translate(442.25 112.717)" opacity="0.3"><g clip-path="url(#d)"><path d="M495.748,129.568a2.144,2.144,0,0,1,2.143,1.567c.178.962.045,1.968.294,2.914s1.112,1.865,2.069,1.666a2.55,2.55,0,0,0,1.368-1.077,33.457,33.457,0,0,0,4.494-8.287c-.027.069-4.939,5.673-4.939,5.673a16.449,16.449,0,0,0-1.11-4.128c-.165-.426-.354-1.153-.769-1.343-.671-.307-1.558.674-2,1.263a11.742,11.742,0,0,1-1.549,1.664" transform="translate(-495.747 -126.352)"/></g></g><g transform="translate(434.186 110.761)" opacity="0.3"><g clip-path="url(#e)"><path d="M486.717,124.244a28.914,28.914,0,0,0,1.8,9.173,2.053,2.053,0,0,0,.483.8.738.738,0,0,0,.867.125,10.343,10.343,0,0,0,.884-1.9c.458-1.274,2.307-1.392,2.307-1.392a33.363,33.363,0,0,0-1.208-4.246,1.177,1.177,0,0,0-1.15-.74,1.91,1.91,0,0,0-1.268,1.453c-.279,2.29-.245,3.34-.581,4.137-.868-2.435-1.57-5.37-2.144-7.5" transform="translate(-486.707 -124.159)"/></g></g><g transform="translate(418.838 174.586)" opacity="0.3"><g clip-path="url(#f)"><path d="M498.543,199.543a1.946,1.946,0,0,0,.426-2.752,2.974,2.974,0,0,0-2.785-1.06A6.294,6.294,0,0,0,493.363,197c-.846.611-1.627,1.312-2.516,1.858a14.477,14.477,0,0,1-7.414,1.691,43.987,43.987,0,0,0-7.679.343c-2.519.488-5.036,1.787-6.251,4.047,0,0,21.928-1.6,29.04-5.4" transform="translate(-469.503 -195.705)"/></g></g><path d="M516.7,233.169a18.138,18.138,0,0,1-5.745-5.921.231.231,0,0,0,.007-.194.319.319,0,0,0-.219-.132,31.055,31.055,0,0,1-1.682-2.947c1.79-1.164,4.13-2.926,1.585-3.287-3.131-.446-5.369-1.968-5.689-2.8s.724-1.582,1.55-1.049a11.519,11.519,0,0,0,3.014,1.04,7.514,7.514,0,0,0,2.552.162c.53-.059,2.4-1.339,4.393-2.277a1.559,1.559,0,0,1,.909-.12l.764-.052a2.368,2.368,0,0,0,1.937-1.27l2.893-5.568,8.742,5.172-6.919,9.6a115.6,115.6,0,0,1-8.093,9.64" transform="translate(-54.484 -22.527)" fill="#ffbe9d"/><path d="M518.961,235.92a7.156,7.156,0,0,1-2.016-.951,18.256,18.256,0,0,1-7.1-7.942,7.175,7.175,0,0,1-.721-2.11,23.322,23.322,0,0,0,9.838,11" transform="translate(-54.939 -24.271)" fill="#455a64"/><path d="M488.534,240.718c-.007.014-.089-.012-.244-.077a2.9,2.9,0,0,1-.62-.394,5.236,5.236,0,0,1-1.427-2.268,37.029,37.029,0,0,1-.971-3.822c-.32-1.443-.655-3.033-.982-4.708-.657-3.349-1.159-6.4-1.48-8.61-.159-1.106-.275-2-.342-2.625a3.91,3.91,0,0,1-.057-.972,3.989,3.989,0,0,1,.236.945q.2,1.071.488,2.6c.4,2.2.955,5.231,1.611,8.574.334,1.664.652,3.248.945,4.708.31,1.443.532,2.759.863,3.8a5.485,5.485,0,0,0,1.239,2.24c.439.424.763.566.742.6" transform="translate(-52.056 -23.443)" fill="#455a64"/><path d="M488.189,221.051c0-.026.147-.054.4.029a1.578,1.578,0,0,1,.732,2.356,1.8,1.8,0,0,1-1.874.713,1.86,1.86,0,0,1-1.31-1.517,1.715,1.715,0,0,1,.561-1.533c.74-.637,1.407-.45,1.372-.408a2.778,2.778,0,0,0-1.14.641,1.415,1.415,0,0,0-.371,1.229,1.475,1.475,0,0,0,1.006,1.138,1.409,1.409,0,0,0,1.41-.517,1.2,1.2,0,0,0,.134-1.236c-.33-.745-.948-.828-.915-.9" transform="translate(-52.457 -23.809)" fill="#455a64"/><path d="M466.424,217.087a5.192,5.192,0,0,1,.234,2.054,11.062,11.062,0,0,1-4.611,8.571,5.2,5.2,0,0,1-1.843.938c-.037-.074.669-.423,1.646-1.2a12.112,12.112,0,0,0,4.48-8.329c.111-1.243.012-2.025.095-2.035" transform="translate(-49.661 -23.426)" fill="#455a64"/><path d="M428.367,145.853a29.9,29.9,0,0,1,.449-4.432,30.041,30.041,0,0,1,.649-4.407,16.869,16.869,0,0,1-.187,4.464,16.923,16.923,0,0,1-.91,4.375" transform="translate(-46.222 -14.785)" fill="#263238"/><path d="M407.815,135.505a1.272,1.272,0,0,1-.061.314c-.062.237-.139.533-.235.9-.232.827-.55,1.964-.949,3.391-.856,2.96-2.059,7.111-3.5,12.081l-.144-.251c5.044,1.252,11.122,2.27,17.6,3.465,3.229.6,6.346,1.257,9.218,1.972h-.1l18.1-4.093,5.27-1.149,1.414-.289a2.458,2.458,0,0,1,.5-.074,2.381,2.381,0,0,1-.477.151l-1.4.36-5.24,1.277-18.059,4.253-.052.012-.053-.012c-2.864-.7-5.971-1.35-9.2-1.949-6.472-1.193-12.562-2.237-17.614-3.534l-.2-.053.06-.2c1.5-4.95,2.762-9.086,3.658-12.033.443-1.414.8-2.541,1.054-3.36l.293-.88a1.286,1.286,0,0,1,.12-.3" transform="translate(-43.448 -14.623)" fill="#263238"/><path d="M128.4,366.5l-2.575,47.739,17.292,4.178,3.443-46.635Z" transform="translate(-13.578 -39.55)" fill="#aa6550"/><path d="M124.89,419.561l-2.945,12.955h19.9l.851-8.434Z" transform="translate(-13.159 -45.275)" fill="#a3314f"/><path d="M142.317,431.9a13.932,13.932,0,0,1-2.9.166c-1.791.02-4.266-.029-6.994-.128l-6.982-.3a16.379,16.379,0,0,1-2.891-.233,14.131,14.131,0,0,1,2.9-.158c1.791-.015,4.265.035,6.994.136l6.981.29a16.494,16.494,0,0,1,2.892.224" transform="translate(-13.225 -46.536)" fill="#263238"/><path d="M135.175,422.392a31.9,31.9,0,0,1-.563,8.353,31.9,31.9,0,0,1,.563-8.353" transform="translate(-14.514 -45.581)" fill="#263238"/><g transform="translate(108.786 384.867)" opacity="0.6"><g clip-path="url(#g)"><path d="M121.945,433.8h19.9l.191-1.881-19.731-.492-.359,2.149" transform="translate(-121.945 -431.422)" fill="#fff"/></g></g><path d="M202.31,392.521l4.2,31.631,15.306-1.065-3.218-29Z" transform="translate(-21.832 -42.357)" fill="#aa6550"/><path d="M222.453,422.936h0s17.2,5.81,17.48,8.946l-32.884.96-.3-8.6,1.217.241a24.438,24.438,0,0,0,14.482-1.549" transform="translate(-22.311 -45.64)" fill="#a3314f"/><g transform="translate(187.372 380.04)" opacity="0.6"><g clip-path="url(#h)"><path d="M210.958,426.075a1.343,1.343,0,0,0-.884,1.559,1.293,1.293,0,0,0,1.539.89,1.417,1.417,0,0,0,.927-1.657,1.339,1.339,0,0,0-1.7-.748" transform="translate(-210.037 -426.011)" fill="#fff"/></g></g><g transform="translate(184.738 384.535)" opacity="0.6"><g clip-path="url(#i)"><path d="M207.085,433.717l.012-2.667,31.525.078s1.483.594,1.347,1.631Z" transform="translate(-207.085 -431.05)" fill="#fff"/></g></g><path d="M224.588,422.715c0,.161-.8.257-1.576.8-.789.519-1.176,1.227-1.326,1.167-.149-.027.062-.994,1.013-1.63s1.92-.482,1.889-.334" transform="translate(-23.918 -45.601)" fill="#263238"/><path d="M228.6,424.211c.041.154-.646.448-1.171,1.143-.547.68-.663,1.418-.823,1.416-.151.029-.289-.907.381-1.759s1.6-.952,1.613-.8" transform="translate(-24.44 -45.771)" fill="#263238"/><path d="M231.162,428.442c-.145.038-.392-.757-.005-1.649s1.128-1.263,1.2-1.132c.095.129-.38.616-.686,1.352-.323.73-.35,1.408-.508,1.428" transform="translate(-24.922 -45.931)" fill="#263238"/><path d="M223.929,422.333a3.089,3.089,0,0,1-1.648.04,7.387,7.387,0,0,1-1.738-.48,7.707,7.707,0,0,1-.961-.474,2,2,0,0,1-.508-.373.7.7,0,0,1-.1-.852.88.88,0,0,1,.692-.388,2.162,2.162,0,0,1,.62.068,5.8,5.8,0,0,1,2.583,1.274c.783.684,1.061,1.277,1.007,1.309-.071.055-.457-.436-1.251-1a6.6,6.6,0,0,0-1.492-.784,6.03,6.03,0,0,0-.955-.264c-.351-.081-.648-.076-.732.082-.03.061-.034.084.042.184a1.654,1.654,0,0,0,.374.272,8.738,8.738,0,0,0,.885.472,9.145,9.145,0,0,0,1.609.564,11.361,11.361,0,0,1,1.571.348" transform="translate(-23.619 -45.301)" fill="#263238"/><path d="M224.254,422.267a2.622,2.622,0,0,1-.481-1.578,5.339,5.339,0,0,1,.172-1.809,5.4,5.4,0,0,1,.39-1.013,1.362,1.362,0,0,1,1.027-.862.768.768,0,0,1,.7.439,2.219,2.219,0,0,1,.186.6,3.651,3.651,0,0,1,.034,1.11,3.783,3.783,0,0,1-.654,1.722c-.618.871-1.282,1.082-1.3,1.028-.056-.078.494-.405.963-1.238a3.8,3.8,0,0,0,.475-1.563,3.422,3.422,0,0,0-.058-.951c-.062-.348-.2-.625-.331-.586-.163,0-.434.274-.56.556a5.505,5.505,0,0,0-.382.9,5.907,5.907,0,0,0-.271,1.653c-.017.966.172,1.563.086,1.59" transform="translate(-24.146 -44.999)" fill="#263238"/><path d="M141.216,213.036s-12.136,20.277-12.136,32.407l-2.992,147.735,19.18,4.571L159.9,253.377s35.436,144.747,36.574,144.747,18.586-3.129,18.586-3.129L188.6,213.686Z" transform="translate(-13.606 -22.989)" fill="#263238"/><path d="M149.73,253.808a1.979,1.979,0,0,1-.037.373c-.039.271-.092.63-.159,1.086-.155.983-.377,2.38-.66,4.165-.593,3.614-1.417,8.849-2.391,15.323-1.95,12.915-4.383,30.85-6.426,50.749-2.03,19.882-3.284,37.932-3.993,51.007-.357,6.537-.612,11.83-.763,15.488-.085,1.806-.151,3.218-.2,4.212-.027.459-.048.822-.064,1.095a2.024,2.024,0,0,1-.04.373,1.986,1.986,0,0,1-.013-.374c0-.274.006-.637.012-1.1.023-.995.056-2.41.1-4.216.088-3.661.286-8.958.6-15.5.614-13.084,1.809-31.15,3.84-51.042s4.533-37.815,6.583-50.753c1.022-6.469,1.9-11.7,2.558-15.3.325-1.778.579-3.17.758-4.149l.211-1.077a1.935,1.935,0,0,1,.089-.364" transform="translate(-14.566 -27.389)" fill="#455a64"/><path d="M185.543,256.548c.144-.026,5.995,32.4,13.067,72.409s12.692,72.482,12.548,72.508-5.994-32.391-13.068-72.416-12.691-72.475-12.547-72.5" transform="translate(-20.022 -27.684)" fill="#455a64"/><path d="M162.789,253.167a1.467,1.467,0,0,1-.2-.368c-.115-.248-.285-.614-.489-1.093a38.737,38.737,0,0,1-1.423-4.167,42.354,42.354,0,0,1-1.37-14.422c.1-1.42.289-2.8.508-4.12.242-1.328.579-2.575.914-3.757.674-2.365,1.377-4.46,1.981-6.215s1.127-3.162,1.5-4.13l.443-1.11a1.414,1.414,0,0,1,.186-.376,1.447,1.447,0,0,1-.1.407l-.361,1.138c-.344,1.057-.8,2.466-1.359,4.174-.563,1.765-1.233,3.868-1.88,6.226-.323,1.178-.649,2.423-.879,3.722-.211,1.308-.4,2.672-.494,4.076a44.71,44.71,0,0,0,1.225,14.3c.45,1.793.945,3.206,1.275,4.187a11.234,11.234,0,0,1,.52,1.525" transform="translate(-17.177 -23.029)" fill="#455a64"/><path d="M169.313,230.137a1.751,1.751,0,0,1,.029.283c.012.216.026.471.042.781.031.726.073,1.7.126,2.918.089,2.534.213,6.062.361,10.277l-.124-.179,7.382,3.009-.2.015,5.995-3.65.39-.236-.111.178c.451-4.876.876-9.458,1.243-13.413l.2.221-11.038-.1-3.146-.054-.844-.023a1.679,1.679,0,0,1-.306-.023,9.022,9.022,0,0,1,1.064-.046l3.1-.054,11.171-.1.223,0-.02.225c-.351,3.956-.756,8.54-1.187,13.418l-.01.116-.1.061c-.128.079-.259.158-.39.237l-6,3.639-.1.06-.105-.045-7.362-3.057-.121-.05,0-.128c-.065-4.271-.12-7.844-.16-10.412-.008-1.2-.015-2.157-.021-2.873a8.2,8.2,0,0,1,.021-.985" transform="translate(-18.268 -24.812)" fill="#455a64"/><path d="M137.894,225.79c.012.018-.034.363-.127.993-.1.679-.243,1.582-.415,2.7l-1.537,9.5-.077-.194,5.576,4.136-.194-.037L147.9,241l.347-.1-.161.159c1.3-4.419,2.515-8.571,3.567-12.156l.151.256-10.015-2.389-2.853-.7c-.665-.168-1.027-.266-1.039-.284a7.836,7.836,0,0,1,.975.175l2.83.59,10.193,2.215.211.046-.061.21L148.531,241.2l-.036.125-.126.035-.346.1-6.783,1.872-.106.029-.088-.065L135.5,239.11l-.1-.075.022-.119c.723-3.931,1.327-7.221,1.763-9.594.211-1.095.381-1.976.508-2.639a6.983,6.983,0,0,1,.2-.895" transform="translate(-14.611 -24.365)" fill="#455a64"/><path d="M179.636,254.76a76.152,76.152,0,0,1-8.16,2.01,76.237,76.237,0,0,1-8.259,1.556,76,76,0,0,1,8.161-2.01,75.879,75.879,0,0,1,8.258-1.556" transform="translate(-17.613 -27.49)" fill="#455a64"/><path d="M153.223,255.1a7.438,7.438,0,0,1-2.094,0,34.437,34.437,0,0,1-4.988-.783,33.761,33.761,0,0,1-4.83-1.474,7.559,7.559,0,0,1-1.883-.915,12.312,12.312,0,0,1,1.994.607c1.219.394,2.917.9,4.823,1.33s3.65.732,4.92.909a12.666,12.666,0,0,1,2.058.327" transform="translate(-15.046 -27.184)" fill="#455a64"/><path d="M149.612,82.962c.662,1.91-1.6,3.537-3.572,3.989s-4.358.734-5.261,2.543c-.782,1.569.011,3.561-.7,5.163-1.356,3.047-6.831,2.41-7.9,5.569-.737,2.168,1.3,4.4,1.044,6.677-.219,1.96-2.014,3.294-3.589,4.48s-3.23,2.823-2.982,4.78c.286,2.26,3.045,3.824,2.792,6.088-.249,2.228-3.253,3.267-3.686,5.466-.513,2.609,2.755,4.287,3.8,6.731.8,1.867.307,4.271,1.662,5.785,1.389,1.551,3.853,1.247,5.89.815l20.307-4.305c-1.373-3.21-.081-6.966,1.875-9.857s4.563-5.332,6.245-8.392,2.233-7.153.032-9.862" transform="translate(-13.564 -8.953)" fill="#263238"/><path d="M192.036,100.54a20.957,20.957,0,0,0-.665-3.207,3.216,3.216,0,0,0-.812-1.318c-.4-.381-.922-.139-1.253.409a9.915,9.915,0,0,0,0,8.232c.331.548.853.789,1.253.409a3.237,3.237,0,0,0,.813-1.319,21.012,21.012,0,0,0,.665-3.206,2.477,2.477,0,0,1,.07.9,8.574,8.574,0,0,1-.382,2.432,3.475,3.475,0,0,1-.885,1.532,1.09,1.09,0,0,1-1.079.252,1.779,1.779,0,0,1-.859-.727,9.952,9.952,0,0,1,0-8.773,1.776,1.776,0,0,1,.858-.727,1.091,1.091,0,0,1,1.08.252,3.467,3.467,0,0,1,.885,1.531,8.584,8.584,0,0,1,.382,2.433,2.478,2.478,0,0,1-.07.9" transform="translate(-20.275 -10.292)" fill="#263238"/><path d="M154.658,117.2c-3.674-6.208-4.726-14.477-5.655-21.63-.437-3.367-1.205-8.16,1.162-10.266,2.536-2.256,2.781-5.734,5.694-7.475a8.955,8.955,0,0,1,9.616.107" transform="translate(-16.028 -8.254)" fill="#263238"/><path d="M165.814,139.608h0a9.961,9.961,0,0,0,10.743-9.519c.225-5.422.422-10.9.422-10.9s8.219-.746,8.839-8.876.4-26.9.4-26.9a28.335,28.335,0,0,0-28.642,1.758L158,113.785l-.046,15.4c.039,5.164,2.709,10.016,7.858,10.427" transform="translate(-17.004 -8.669)" fill="#aa6550"/><path d="M177.23,99.535a4.169,4.169,0,0,0-5.553-1.229,4.727,4.727,0,0,0-1.591,5.906,6.225,6.225,0,0,0,3.98,3.027,3.125,3.125,0,0,1,2.436,3.371c-.24,2.039-3.638,2.8-5.175,4.481-2.392,2.621-7.626,3.717-11.15,4.125-3.465.4-3.046.434-5.054-2.418a10.927,10.927,0,0,1-1.958-6.609q-.161-8.994-.32-17.988a25.719,25.719,0,0,1,.429-6.452,8.666,8.666,0,0,1,3.419-5.326c1.982-1.3,4.487-1.4,6.742-2.122,2.819-.9,5.217-2.765,7.856-4.1s5.872-2.137,8.513-.8c1.9.959,3.163,2.857,5.007,3.913,2.625,1.5,6.2,1.175,7.469,5.044a6.554,6.554,0,0,1-.055,4.134c-1.8,5.256-8.321,7.359-13.007,5.071-.095.89.777,2.877-.169,5.689-.3.9-.413,2.27-1.819,2.291" transform="translate(-16.491 -7.846)" fill="#263238"/><path d="M178.156,107.988c.033.012.032.154-.113.351a1.219,1.219,0,0,1-.907.451,2.241,2.241,0,0,1-2.1-2.251,2.349,2.349,0,0,1,.6-1.719,2.428,2.428,0,0,1,1.275-.73c.838-.172,1.319.137,1.285.191-.021.092-.5-.039-1.172.2a2.041,2.041,0,0,0-1.41,2.027,1.9,1.9,0,0,0,1.525,1.866c.681.042.958-.442,1.017-.391" transform="translate(-18.888 -11.227)" fill="#995037"/><path d="M191.227,100.723a29.762,29.762,0,0,1-5.471,1.163,29.73,29.73,0,0,1-5.557.642,29.806,29.806,0,0,1,5.471-1.163,29.823,29.823,0,0,1,5.557-.642" transform="translate(-19.445 -10.865)" fill="#263238"/><path d="M155.892,128.85a2.362,2.362,0,0,0,2.826,1.134,6.753,6.753,0,0,0,2.732-1.853,7.158,7.158,0,0,1,2.708-1.893c2.17-.658,4.824.789,6.648-.558,1.661-1.225,1.444-4,3.076-5.264.865-.671,2.072-.757,2.954-1.409,1.649-1.219,1.376-3.939-.009-5.45s-3.469-2.123-5.444-2.671l-17.474,7.448Z" transform="translate(-16.608 -11.966)" fill="#263238"/><path d="M174.45,95.625c0,.008-.045.044-.146.107a4.453,4.453,0,0,1-.462.259,9.352,9.352,0,0,1-1.914.69,22.085,22.085,0,0,1-3.173.5,32.042,32.042,0,0,0-4.171.576,7.852,7.852,0,0,0-4.315,2.357c-1.18,1.368-1.62,3.336-2.532,5.237a6.776,6.776,0,0,1-2.034,2.561,10.655,10.655,0,0,1-3.042,1.5c-2.147.72-4.51,1.152-6.3,2.668a4.511,4.511,0,0,0-1.613,2.858,19.783,19.783,0,0,0,0,3.394,5.556,5.556,0,0,1-3.008,5.625c-1.827,1.076-3.743,1.646-5.272,2.621a6.179,6.179,0,0,0-1.881,1.735,4.566,4.566,0,0,0-.712,2.226,15.541,15.541,0,0,0,.567,4.133,10.764,10.764,0,0,1,.292,3.211,4.539,4.539,0,0,1-.583,1.954,2.287,2.287,0,0,1-.442.558,4.836,4.836,0,0,0,.819-2.525,11.049,11.049,0,0,0-.375-3.13,15.4,15.4,0,0,1-.652-4.221,4.94,4.94,0,0,1,.742-2.424,6.587,6.587,0,0,1,1.989-1.885c1.588-1.029,3.509-1.619,5.254-2.667a5.079,5.079,0,0,0,2.744-5.195,19.693,19.693,0,0,1,0-3.486,5.036,5.036,0,0,1,1.79-3.181c1.937-1.633,4.386-2.054,6.476-2.757a10.206,10.206,0,0,0,2.9-1.411,6.293,6.293,0,0,0,1.9-2.375c.895-1.814,1.354-3.836,2.635-5.305A8.2,8.2,0,0,1,164.5,97.4a30.738,30.738,0,0,1,4.228-.506,23.868,23.868,0,0,0,3.154-.41,14.293,14.293,0,0,0,2.568-.856" transform="translate(-14.405 -10.319)" fill="#455a64"/><path d="M171.313,98.885c0,.057-.627,0-1.7.244a7.734,7.734,0,0,0-3.919,2.342,7.083,7.083,0,0,0-1.56,2.731,12.278,12.278,0,0,0-.319,3.65,9.535,9.535,0,0,1-.6,4.172,4.259,4.259,0,0,1-1.525,1.716,18.461,18.461,0,0,1-2.015,1.078,5.236,5.236,0,0,0-1.738,1.236,3.119,3.119,0,0,0-.682,1.872c-.1,1.356.2,2.867-.467,4.165a6.864,6.864,0,0,1-2.718,2.7c-1.026.611-2.021,1.061-2.865,1.57a7.06,7.06,0,0,0-2.015,1.668,4.579,4.579,0,0,0-.868,1.759,4.116,4.116,0,0,0,.029,1.686,1.065,1.065,0,0,1-.178-.418,3.05,3.05,0,0,1-.054-1.307,4.61,4.61,0,0,1,.834-1.9A7.155,7.155,0,0,1,151,126.037c.854-.543,1.848-1.017,2.83-1.624a6.494,6.494,0,0,0,2.509-2.533c.58-1.126.308-2.517.39-3.993a3.635,3.635,0,0,1,.795-2.17,5.709,5.709,0,0,1,1.9-1.371c1.373-.663,2.749-1.277,3.315-2.55a9.238,9.238,0,0,0,.583-3.945,12.417,12.417,0,0,1,.386-3.778,7.382,7.382,0,0,1,1.706-2.856,7.645,7.645,0,0,1,4.151-2.288,5.329,5.329,0,0,1,1.294-.1,1.446,1.446,0,0,1,.449.054" transform="translate(-15.978 -10.664)" fill="#455a64"/><path d="M178.735,131.79l-2.114-4.352-18.371-.693-2.882,5.65h23.069" transform="translate(-16.766 -13.677)" fill="#a3314f"/><path d="M245.128,172.145c-.132-.66,4.86-26.6,6.236-33.721a1.508,1.508,0,0,0-1.482-1.793H213.1a1.509,1.509,0,0,0-1.468,1.161L204.1,169.543l-18.563,1.385.653,1.218Z" transform="translate(-20.022 -14.744)" fill="#455a64"/><path d="M245.916,170.058l5.951-31.446-36.156.219L207.77,170.1Z" transform="translate(-22.421 -14.958)" fill="#ebebeb"/><path d="M207.738,170.121l.007-.028L215.69,138.8h.017l36.184-.219-.005.027-5.955,31.464h-.019Zm7.987-31.272-7.93,31.228,38.1-.045,5.942-31.4Z" transform="translate(-22.417 -14.955)" fill="#263238"/><path d="M244.774,174.078c0,.128-10.58.232-23.628.232s-23.63-.1-23.63-.232,10.577-.232,23.63-.232,23.628.1,23.628.232" transform="translate(-21.314 -18.76)" fill="#263238"/><path d="M244.208,163.1a1.866,1.866,0,0,1-.473.047l-1.354.043-4.983.074c-4.208.042-10.02.068-16.44.068l-5.276-.005h-.292l.072-.281c1.28-4.951,2.4-9.279,3.217-12.446.406-1.5.736-2.719.984-3.633a8.75,8.75,0,0,1,.408-1.3,8.878,8.878,0,0,1-.256,1.336c-.214.922-.5,2.154-.854,3.666-.779,3.178-1.842,7.519-3.06,12.486l-.219-.282,5.276-.005c6.42,0,12.232.026,16.44.068l4.983.074,1.354.044a1.849,1.849,0,0,1,.473.046" transform="translate(-23.243 -15.719)" fill="#455a64"/><path d="M218.336,163.5l.676-3.033h4.653l-.6,3.033Z" transform="translate(-23.561 -17.316)" fill="#a3314f"/><path d="M225.429,163.146l1.405-5.969h4.653l-1.324,5.969Z" transform="translate(-24.326 -16.961)" fill="#a3314f"/><path d="M232.522,163.5l.676-3.033h4.653l-.6,3.033Z" transform="translate(-25.092 -17.316)" fill="#a3314f"/><path d="M239.614,162.465l2.665-11.6h4.653l-2.583,11.6Z" transform="translate(-25.857 -16.28)" fill="#a3314f"/><path d="M221.974,167.638a7.708,7.708,0,0,1-3.757-.035,7.707,7.707,0,0,1,3.757.035" transform="translate(-23.548 -18.063)" fill="#455a64"/><path d="M228.849,167.627a7.693,7.693,0,0,1-3.757-.036,7.722,7.722,0,0,1,3.757.036" transform="translate(-24.29 -18.062)" fill="#455a64"/><path d="M235.725,167.616a7.693,7.693,0,0,1-3.757-.036,7.722,7.722,0,0,1,3.757.036" transform="translate(-25.032 -18.061)" fill="#455a64"/><path d="M242.6,167.6a7.692,7.692,0,0,1-3.757-.036,7.721,7.721,0,0,1,3.757.036" transform="translate(-25.774 -18.059)" fill="#455a64"/><path d="M231.684,144.107a29.383,29.383,0,0,1-5.207.232,29.368,29.368,0,0,1-5.206-.232,29.368,29.368,0,0,1,5.206-.232,29.383,29.383,0,0,1,5.207.232" transform="translate(-23.878 -15.526)" fill="#455a64"/><path d="M226.248,142.663a11.6,11.6,0,0,1-4.617,0,11.6,11.6,0,0,1,4.617,0" transform="translate(-23.916 -15.37)" fill="#455a64"/><path d="M214.713,195.354,236,179.946l-.791-1.288a10.273,10.273,0,0,0-4.975-4.174l-3.328.6-19.734,3.006Z" transform="translate(-22.356 -18.829)" fill="#a3314f"/><path d="M130.721,191.286l17.683-7.027-3.947-14.646-14.413,4.9Z" transform="translate(-14.033 -18.303)" fill="#a3314f"/><path d="M204.2,191.173c4.406-2.189,5.538-7.447,3.386-11.871l-18.323-39.161a7.077,7.077,0,0,0-1.844-2.526,20.717,20.717,0,0,0-15.157-5.191l-19.109-.5s-15.011,0-20.643,11.831c-.412.866-9.138,18.173-14.89,29.577a9.866,9.866,0,1,0,17.811,8.479l6.25-13.933,3.935,19.957-5.665,16.448,47.381.649-3.643-22-1.151-15.688,9.61,19.816a8.963,8.963,0,0,0,12.052,4.115" transform="translate(-12.578 -14.236)" fill="#a3314f"/><g transform="translate(134.372 158.813)" opacity="0.2"><g clip-path="url(#j)"><path d="M150.891,192.428c3.587,2.685,8.87,1.79,13.29,1.055a19.189,19.189,0,0,0,11.575-6.27,7.782,7.782,0,0,0,2.149-5.472c-.175-2-1.947-3.938-3.944-3.7-2.29.275-3.394,2.842-4.5,4.867a17.754,17.754,0,0,1-18.5,8.687s-.715.351-.076.83" transform="translate(-150.626 -178.024)"/></g></g><g transform="translate(163.893 142.383)" opacity="0.2"><g clip-path="url(#k)"><path d="M183.719,159.606c1.115,9.014.616,8.328,2.5,17.214.925,4.369,2.047,8.932,5.063,12.228l-1.494-18.818Z" transform="translate(-183.718 -159.606)"/></g></g><path d="M142.616,211.84l-1.358-3.956,3.53-2.352,43.463-3.584,3.065,5.758L190,212.49Z" transform="translate(-15.243 -21.792)" fill="#a3314f"/><path d="M152.124,128.838a6.481,6.481,0,0,0-3.019,9.676,3.172,3.172,0,0,1,.829,1.8c-.085,1.606-2.678,1.649-3.5,3.032a2.492,2.492,0,0,0,.695,2.9,19.778,19.778,0,0,0,2.674,1.788,3.265,3.265,0,0,1,1.641,2.611c.906-.024,1.443-1.122,1.3-2.019a8.806,8.806,0,0,0-1.114-2.466,2.589,2.589,0,0,1-.112-2.586c.593-.846,1.8-.879,2.763-1.252a3.855,3.855,0,0,0,2.042-4.963c-.583-1.3-1.941-2.622-1.28-3.888.368-.707,1.216-.977,1.913-1.362a4.977,4.977,0,0,0,.646-8.285" transform="translate(-15.777 -13.362)" fill="#263238"/><path d="M143.573,174.367a11.721,11.721,0,0,1-.963,2.225c-.659,1.344-1.624,3.174-2.787,5.14s-2.307,3.691-3.168,4.915a11.7,11.7,0,0,1-1.488,1.914,13.532,13.532,0,0,1,1.214-2.1c.789-1.267,1.881-3.013,3.042-4.971s2.163-3.755,2.9-5.055a13.437,13.437,0,0,1,1.254-2.072" transform="translate(-14.586 -18.816)" fill="#263238"/><path d="M139.676,182.793a7.593,7.593,0,0,1-1.961,6.122c-.114-.079.687-1.3,1.218-2.985.548-1.681.6-3.138.743-3.137" transform="translate(-14.86 -19.725)" fill="#263238"/><path d="M215.777,179.239c-.117.054-3.823-7.7-8.278-17.323s-7.973-17.464-7.856-17.519,3.822,7.7,8.278,17.324,7.972,17.464,7.856,17.517" transform="translate(-21.543 -15.582)" fill="#263238"/><path d="M191.447,138.611c.028.074-.8.366-1.98,1.1a12.313,12.313,0,0,0-5.743,8.751c-.206,1.376-.145,2.25-.224,2.253a5.857,5.857,0,0,1-.1-2.294,11.488,11.488,0,0,1,5.9-8.994,5.859,5.859,0,0,1,2.145-.818" transform="translate(-19.786 -14.957)" fill="#263238"/><path d="M147.97,189.9c-.125.028-2.256-9.05-4.759-20.275s-4.432-20.351-4.307-20.379,2.256,9.048,4.76,20.276,4.431,20.349,4.306,20.377" transform="translate(-14.989 -16.105)" fill="#263238"/><path d="M239.138,180.158l8.639-3.716H236.269l2.515,3.258" transform="translate(-25.496 -19.04)" fill="#aa6550"/><path d="M219.089,181.2a88,88,0,0,1-4.126-4.007,10.1,10.1,0,0,1,4.126,4.007" transform="translate(-23.196 -19.12)" fill="#263238"/><path d="M199.77,190.7a8.086,8.086,0,0,1-.727-1.2c-.443-.787-1.062-1.938-1.811-3.368-1.5-2.858-3.494-6.846-5.676-11.257s-4.185-8.393-5.667-11.255l-1.757-3.392a8.039,8.039,0,0,1-.6-1.269,8.211,8.211,0,0,1,.759,1.181c.465.774,1.11,1.91,1.889,3.325,1.559,2.827,3.609,6.79,5.794,11.2l5.553,11.315,1.678,3.432a8.087,8.087,0,0,1,.566,1.285" transform="translate(-19.805 -17.154)" fill="#263238"/><path d="M179.659,180.96c.016,0,.011.109-.013.311a7.005,7.005,0,0,1-.148.879,11.5,11.5,0,0,1-1.18,3.061,17.336,17.336,0,0,1-8,7.1,34.875,34.875,0,0,1-10.445,2.608c-1.369.154-2.479.244-3.247.3a5.887,5.887,0,0,1-1.2.03,5.994,5.994,0,0,1,1.178-.211l3.224-.441a38.043,38.043,0,0,0,10.294-2.7,17.74,17.74,0,0,0,7.907-6.84,17.132,17.132,0,0,0,1.627-4.088" transform="translate(-16.773 -19.528)" fill="#263238"/><path d="M168.726,206.72c.009.128-5.869.644-13.126,1.153s-13.151.818-13.16.69,5.867-.644,13.127-1.153,13.15-.817,13.159-.69" transform="translate(-15.371 -22.304)" fill="#263238"/><path d="M180.4,202.773a21.48,21.48,0,0,1,.947,9c-.135,0-.192-2.025-.457-4.5s-.622-4.468-.491-4.5" transform="translate(-19.464 -21.881)" fill="#263238"/><path d="M183.711,199.594a5.884,5.884,0,0,1,.4,1.795,22.728,22.728,0,0,1-.617,8.807,5.848,5.848,0,0,1-.641,1.723c-.14-.04.69-2.715.917-6.129.252-3.41-.2-6.175-.054-6.2" transform="translate(-19.73 -21.538)" fill="#263238"/><path d="M179.325,132.614c-.007.128-4.252-.006-9.478-.3s-9.461-.636-9.453-.765,4.251.006,9.479.3,9.46.636,9.453.764" transform="translate(-17.308 -14.191)" fill="#263238"/><path d="M639.681,150.1l-3.778-6.444-3.586,6.444H581.454v26.591h79.2V150.1Z" transform="translate(-62.745 -15.502)" fill="#a3314f"/><g clip-path="url(#a)"><path d="M596.442,165.128a3.9,3.9,0,0,0,2.355-3.589,3.666,3.666,0,1,0-7.317-.1,3.9,3.9,0,0,0,2.3,3.663c-5.637.8-5.434,6.921-5.434,6.921l13.313.175s.356-6.183-5.218-7.073" transform="translate(-63.489 -17.006)" fill="#fafafa"/><path d="M654.644,159.694c0,.075-10.108.136-22.575.136s-22.578-.062-22.578-.136,10.106-.136,22.578-.136,22.575.062,22.575.136" transform="translate(-65.771 -17.218)" fill="#fafafa"/><path d="M654.644,164.239c0,.076-10.108.137-22.575.137s-22.578-.062-22.578-.137,10.106-.136,22.578-.136,22.575.062,22.575.136" transform="translate(-65.771 -17.709)" fill="#fafafa"/><path d="M654.644,168.783c0,.075-10.108.136-22.575.136s-22.578-.062-22.578-.136,10.106-.136,22.578-.136,22.575.062,22.575.136" transform="translate(-65.771 -18.199)" fill="#fafafa"/><path d="M632.067,173.282c0,.075-5.055.136-11.288.136s-11.288-.062-11.288-.136,5.053-.136,11.288-.136,11.288.062,11.288.136" transform="translate(-65.771 -18.684)" fill="#fafafa"/></g><g clip-path="url(#a)"><path d="M86.591,150.194a14.013,14.013,0,0,1,3.606.952l2.65-2.221L97.4,152.39l-1.434,3.146a14.047,14.047,0,0,1,1.88,3.222l3.443.3.769,5.669-3.237,1.211a14.014,14.014,0,0,1-.953,3.606l2.221,2.65-3.465,4.552-3.146-1.434a14.026,14.026,0,0,1-3.222,1.879l-.3,3.443-5.669.769-1.21-3.237a14.021,14.021,0,0,1-3.607-.953l-2.65,2.221-4.552-3.465,1.434-3.146a14.077,14.077,0,0,1-1.879-3.222l-3.443-.3-.769-5.669,3.237-1.21a14.012,14.012,0,0,1,.953-3.607l-2.221-2.65,3.464-4.552,3.147,1.434a14.04,14.04,0,0,1,3.222-1.879l.3-3.443,5.668-.769Zm-2.327,7.871a6.137,6.137,0,1,0,6.907,5.256,6.138,6.138,0,0,0-6.907-5.256" transform="translate(-7.295 -15.858)" fill="#a3314f"/><path d="M85.611,159.393a1.2,1.2,0,0,1,.386-.083,4.782,4.782,0,0,1,1.135-.024,6.106,6.106,0,0,1,3.763,1.729,6.315,6.315,0,0,1-.03,9.044,6.328,6.328,0,0,1-7.474,1.014,6.314,6.314,0,0,1-2.44-8.709,6.108,6.108,0,0,1,3.165-2.668,4.766,4.766,0,0,1,1.1-.279,1.175,1.175,0,0,1,.394-.023c.01.053-.537.106-1.423.481a6.122,6.122,0,0,0-2.932,2.663,5.972,5.972,0,0,0-.048,5.678,5.854,5.854,0,0,0,2.415,2.432,5.882,5.882,0,0,0,6.9-.937,5.858,5.858,0,0,0,1.68-2.988,5.973,5.973,0,0,0-1.559-5.46,6.117,6.117,0,0,0-3.536-1.785c-.954-.126-1.5-.031-1.5-.085" transform="translate(-8.643 -17.186)" fill="#e8505b"/><path d="M86.561,150.184a.908.908,0,0,1-.091-.193c-.064-.156-.145-.355-.247-.6l-.947-2.412.085.051-5.663.814.109-.113c-.087,1.046-.182,2.2-.284,3.445l-.007.087-.082.035a13.942,13.942,0,0,0-3.178,1.872l-.078.061-.09-.041-3.153-1.421.213-.054L69.7,156.272l-.006-.243,2.228,2.644.08.095-.047.115a13.837,13.837,0,0,0-.93,3.554l-.015.128-.122.045-3.235,1.217.142-.236c.244,1.781.508,3.7.779,5.667l-.208-.2,3.443.3.142.012.055.132a13.9,13.9,0,0,0,1.85,3.165l.089.114-.061.132c-.448.987-.938,2.062-1.432,3.148l-.074-.293,4.555,3.461-.308.008,2.65-2.222.115-.1.138.057a13.829,13.829,0,0,0,3.539.935h0l.2.16,0,0,0,.006.005.013.01.025.019.051.038.1.076.2.152.408.3.812q.3.811.6,1.614l-.265-.158,5.67-.767-.211.221q.154-1.738.305-3.443l.013-.146.136-.057a13.783,13.783,0,0,0,3.169-1.843l.115-.089.131.061,3.146,1.437-.286.072,3.471-4.547.006.285-2.216-2.655-.087-.1.052-.124a13.818,13.818,0,0,0,.945-3.548l.017-.129.121-.045,3.24-1.2-.132.22c-.265-1.995-.515-3.878-.752-5.671l.17.163-3.442-.315-.108-.01-.041-.1a13.9,13.9,0,0,0-1.843-3.19l-.061-.079.041-.088c.526-1.14,1-2.168,1.449-3.139l.045.177L92.75,149l.138,0-2.67,2.2-.037.031-.044-.019a14.82,14.82,0,0,0-2.67-.84l-.681-.135a.968.968,0,0,1-.225-.051,1.287,1.287,0,0,1,.231.01c.153.016.384.043.69.1a13.368,13.368,0,0,1,2.716.773l-.081.012,2.63-2.245.067-.057.071.054,4.574,3.436.093.07-.048.108c-.439.976-.9,2.008-1.419,3.153l-.02-.167a14.167,14.167,0,0,1,1.914,3.253l-.148-.109,3.444.292.15.012.021.151c.248,1.792.508,3.674.785,5.667l.022.163-.154.058-3.235,1.218.137-.174a14.218,14.218,0,0,1-.96,3.664l-.036-.227,2.226,2.646.118.139-.111.145-3.458,4.557-.114.151-.172-.079-3.148-1.431.247-.029a14.284,14.284,0,0,1-3.277,1.914l.149-.2q-.149,1.7-.3,3.443l-.017.2-.194.026-5.669.772-.2.027-.07-.185-.6-1.615-.3-.812-.152-.407-.077-.2-.037-.1-.02-.051-.01-.026,0-.012,0-.006,0,0,.2.159h0a14.306,14.306,0,0,1-3.666-.969l.253-.039-2.651,2.22-.151.126-.156-.119-4.551-3.468-.154-.118.08-.177c.5-1.086.988-2.16,1.437-3.145l.029.246a14.333,14.333,0,0,1-1.906-3.278l.2.144-3.443-.308-.184-.017-.025-.182c-.263-1.969-.521-3.89-.759-5.671l-.023-.175.165-.062,3.24-1.2-.137.173a14.24,14.24,0,0,1,.975-3.658l.033.21L69.4,156.28l-.1-.12.095-.123,3.479-4.541.086-.113.128.059,3.141,1.447-.168.02a14.2,14.2,0,0,1,3.267-1.884l-.089.121c.117-1.239.225-2.4.323-3.441l.01-.1.1-.013,5.675-.723.063-.008.021.059.857,2.411c.088.26.159.467.215.63a1.284,1.284,0,0,1,.064.224" transform="translate(-7.266 -15.848)" fill="#e8505b"/><path d="M75.031,199a.721.721,0,0,1,.243-.052,3.014,3.014,0,0,1,.713-.016,3.843,3.843,0,0,1,2.363,1.087,3.964,3.964,0,0,1-.02,5.679,3.974,3.974,0,0,1-4.693.638,3.965,3.965,0,0,1-1.533-5.47,3.837,3.837,0,0,1,1.988-1.675,3,3,0,0,1,.69-.176.75.75,0,0,1,.248-.014c.006.033-.337.067-.894.3a3.842,3.842,0,0,0-1.841,1.672,3.752,3.752,0,0,0-.03,3.567,3.682,3.682,0,0,0,1.517,1.527,3.7,3.7,0,0,0,4.336-.589,3.685,3.685,0,0,0,1.054-1.876,3.753,3.753,0,0,0-.98-3.429,3.847,3.847,0,0,0-2.22-1.121c-.6-.079-.939-.02-.942-.053" transform="translate(-7.723 -21.465)" fill="#263238"/><path d="M75.628,193.214a.6.6,0,0,1-.057-.121l-.155-.379-.594-1.516.053.032-3.556.512.068-.071c-.054.656-.114,1.385-.178,2.163l0,.054-.051.021a8.785,8.785,0,0,0-2,1.177l-.048.038-.057-.026-1.98-.893.135-.034-2.167,2.865,0-.153,1.4,1.661.05.059-.029.072a8.7,8.7,0,0,0-.584,2.233l-.01.08-.076.029-2.032.765.089-.149c.153,1.118.319,2.324.489,3.559l-.13-.125,2.162.188.089.007.035.083a8.693,8.693,0,0,0,1.162,1.988l.055.072-.037.083-.9,1.977-.046-.185,2.86,2.174-.193,0,1.665-1.4.071-.061.087.037a8.7,8.7,0,0,0,2.222.587h0l.127.1v0l0,0,0,.008.006.016.012.032.024.063.048.128.1.255.19.51q.191.509.379,1.014l-.167-.1,3.561-.482-.133.139q.1-1.092.192-2.162l.008-.093.086-.035a8.669,8.669,0,0,0,1.989-1.158l.072-.056.083.038,1.975.9-.179.045,2.179-2.856,0,.179L82.6,205.458l-.054-.065.032-.078a8.673,8.673,0,0,0,.593-2.228l.011-.081.076-.029,2.035-.755-.083.138c-.166-1.253-.323-2.435-.472-3.561l.107.1-2.162-.2-.068-.006-.025-.062a8.778,8.778,0,0,0-1.158-2l-.038-.049.026-.056c.331-.715.629-1.361.91-1.972l.028.112-2.845-2.194.087,0-1.677,1.379-.023.02-.028-.012a9.225,9.225,0,0,0-1.677-.527l-.427-.085a.644.644,0,0,1-.141-.032.812.812,0,0,1,.145.006c.1.01.241.027.433.06a8.407,8.407,0,0,1,1.706.485l-.052.008,1.652-1.409.042-.036.045.034,2.872,2.158.059.044-.03.068-.891,1.98-.012-.1a8.9,8.9,0,0,1,1.2,2.043l-.094-.068,2.163.183.095.008.013.095c.155,1.125.319,2.307.492,3.559l.014.1-.1.037-2.031.765.087-.109a8.93,8.93,0,0,1-.6,2.3l-.022-.143,1.4,1.662.074.087-.07.092-2.172,2.862-.071.094-.108-.049-1.977-.9.155-.018a8.97,8.97,0,0,1-2.058,1.2l.094-.128q-.094,1.07-.189,2.162l-.011.122-.122.017-3.56.484-.123.017-.043-.116-.379-1.014-.191-.509-.1-.256-.048-.128L73.3,210.9l-.012-.032-.005-.016,0-.008v-.006l.126.1h0a9,9,0,0,1-2.3-.608l.159-.025L69.588,211.7l-.1.079-.1-.075-2.857-2.178-.1-.074.051-.111.9-1.975.018.154a9,9,0,0,1-1.2-2.058l.123.09-2.162-.194-.115-.011-.016-.114c-.165-1.236-.327-2.443-.477-3.561l-.014-.111.1-.038,2.035-.756-.086.109a8.92,8.92,0,0,1,.612-2.3l.021.132-1.39-1.668-.063-.076.059-.078c.767-1,1.5-1.954,2.186-2.852l.054-.07.08.037,1.973.908-.105.012a8.908,8.908,0,0,1,2.051-1.184l-.055.077c.072-.778.141-1.506.2-2.161l.005-.064.062-.008,3.564-.453.04-.005.013.037.538,1.515c.056.163.1.294.136.4a.777.777,0,0,1,.04.141" transform="translate(-6.858 -20.625)" fill="#263238"/><path d="M166.572,18.314A19.4,19.4,0,1,1,184.656,38.94a19.4,19.4,0,0,1-18.084-20.626" transform="translate(-17.97 -0.02)" fill="#f5f5f5"/><path d="M166.567,18.294a1.607,1.607,0,0,1,.019.316c0,.231,0,.535.009.922v.679c.012.249.049.52.075.814a14.059,14.059,0,0,0,.28,2.019,18.533,18.533,0,0,0,1.818,5.256,19.218,19.218,0,0,0,22.5,9.675,17.642,17.642,0,0,0,5.013-2.29,21.67,21.67,0,0,0,2.291-1.7,21.587,21.587,0,0,0,2.02-2.1,18.569,18.569,0,0,0,3.079-5.091,20.5,20.5,0,0,0,1.384-5.97,20.481,20.481,0,0,0-.59-6.1,18.552,18.552,0,0,0-2.387-5.452,21.71,21.71,0,0,0-1.729-2.343,21.511,21.511,0,0,0-2.049-1.988,19.9,19.9,0,0,0-2.246-1.664,20.025,20.025,0,0,0-2.424-1.263,19.268,19.268,0,0,0-23.569,6.651,18.523,18.523,0,0,0-2.489,4.973,14.126,14.126,0,0,0-.542,1.964c-.064.289-.136.553-.18.8s-.062.469-.089.673c-.054.382-.1.684-.129.913a1.633,1.633,0,0,1-.06.31,1.545,1.545,0,0,1,.013-.314c.021-.231.049-.535.085-.922q.031-.306.068-.679c.037-.248.1-.515.16-.807a13.768,13.768,0,0,1,.506-1.991,18.356,18.356,0,0,1,2.448-5.063A19.538,19.538,0,0,1,183.574.13a19.62,19.62,0,0,1,10.219,1.5,20.447,20.447,0,0,1,2.481,1.284,20.307,20.307,0,0,1,2.3,1.695,21.956,21.956,0,0,1,2.1,2.03,22.07,22.07,0,0,1,1.773,2.393,18.966,18.966,0,0,1,2.45,5.578,20.916,20.916,0,0,1,.606,6.246,20.923,20.923,0,0,1-1.418,6.112,18.975,18.975,0,0,1-3.158,5.208,22.058,22.058,0,0,1-2.071,2.139,21.76,21.76,0,0,1-2.346,1.738,18.014,18.014,0,0,1-5.131,2.327,19.617,19.617,0,0,1-10.325.148,19.532,19.532,0,0,1-12.515-10.11,18.375,18.375,0,0,1-1.765-5.34,13.751,13.751,0,0,1-.241-2.04c-.019-.3-.048-.571-.053-.822s.014-.476.021-.682c.015-.387.027-.692.037-.924a1.586,1.586,0,0,1,.028-.313" transform="translate(-17.965 0)" fill="#263238"/><path d="M197.052,21.218a3.888,3.888,0,0,1-.685.045l-1.886.037c-1.6.022-3.828.037-6.344.041h-.125v-.125c0-.4,0-.827,0-1.258,0-2.81.014-5.353.037-7.194.016-.889.029-1.623.04-2.18a4.815,4.815,0,0,1,.049-.8,4.893,4.893,0,0,1,.048.8c.011.558.024,1.292.04,2.18.022,1.84.037,4.384.037,7.194,0,.431,0,.856,0,1.258l-.124-.124c2.516,0,4.744.019,6.344.041l1.886.037a3.888,3.888,0,0,1,.685.045" transform="translate(-20.289 -1.056)" fill="#263238"/><path d="M188.2,3.76a5.382,5.382,0,0,1,.126,1.629,5.385,5.385,0,0,1-.126,1.63,5.384,5.384,0,0,1-.126-1.63A5.381,5.381,0,0,1,188.2,3.76" transform="translate(-20.296 -0.406)" fill="#263238"/><path d="M197.852,6.693a5.265,5.265,0,0,1-1.046,1.224,5.223,5.223,0,0,1-1.225,1.047,5.244,5.244,0,0,1,1.047-1.225,5.265,5.265,0,0,1,1.224-1.046" transform="translate(-21.105 -0.722)" fill="#263238"/><path d="M203.587,13.02a6.682,6.682,0,0,1-1.336.892,6.8,6.8,0,0,1-1.408.777,4.277,4.277,0,0,1,1.277-.991,4.3,4.3,0,0,1,1.467-.678" transform="translate(-21.673 -1.404)" fill="#263238"/><path d="M206.776,22.4a19.684,19.684,0,0,1-4.443,0,19.684,19.684,0,0,1,4.443,0" transform="translate(-21.834 -2.403)" fill="#263238"/><path d="M172.27,22.065a17.562,17.562,0,0,1-4.2,0,17.562,17.562,0,0,1,4.2,0" transform="translate(-18.137 -2.367)" fill="#263238"/><path d="M174.817,29.071a9.147,9.147,0,0,1-1.585,1.438,9.227,9.227,0,0,1-1.743,1.244,9.171,9.171,0,0,1,1.585-1.439,9.224,9.224,0,0,1,1.743-1.243" transform="translate(-18.505 -3.137)" fill="#263238"/><path d="M180.976,34.478a14.19,14.19,0,0,1-1.079,1.871,14.281,14.281,0,0,1-1.145,1.831,6.993,6.993,0,0,1,.93-1.961,7.04,7.04,0,0,1,1.294-1.741" transform="translate(-19.289 -3.72)" fill="#263238"/><path d="M188.2,40.913a9.914,9.914,0,0,1-.126-2.222,9.909,9.909,0,0,1,.126-2.221,9.91,9.91,0,0,1,.126,2.221,9.915,9.915,0,0,1-.126,2.222" transform="translate(-20.296 -3.936)" fill="#263238"/><path d="M198.552,37.782a6.51,6.51,0,0,1-1.831-1.255,6.512,6.512,0,0,1-1.493-1.643,20.557,20.557,0,0,1,1.658,1.454,20.5,20.5,0,0,1,1.666,1.444" transform="translate(-21.067 -3.764)" fill="#263238"/><path d="M203.659,32.371a7.689,7.689,0,0,1-1.471-1.293,7.7,7.7,0,0,1-1.294-1.472,7.754,7.754,0,0,1,1.471,1.294,7.716,7.716,0,0,1,1.294,1.471" transform="translate(-21.678 -3.195)" fill="#263238"/><path d="M174.7,15.09a5.935,5.935,0,0,1-1.3-1.12,5.941,5.941,0,0,1-1.121-1.3,5.964,5.964,0,0,1,1.3,1.121,5.936,5.936,0,0,1,1.12,1.3" transform="translate(-18.591 -1.367)" fill="#263238"/><path d="M180.922,8.547a5.721,5.721,0,0,1-1.277-1.094,5.738,5.738,0,0,1-1.1-1.271,5.7,5.7,0,0,1,1.277,1.094,5.707,5.707,0,0,1,1.1,1.271" transform="translate(-19.267 -0.667)" fill="#263238"/><path d="M273.739,300.358a4.356,4.356,0,0,1-.757.05l-2.171.047-7.987.079-26.349.073h-2.128v-.248c.03-9.842.057-18.668.077-25.094.033-3.152.059-5.712.078-7.54.019-.851.034-1.531.046-2.044a4.089,4.089,0,0,1,.048-.711,3.909,3.909,0,0,1,.049.711c.012.513.027,1.193.046,2.044.019,1.828.045,4.388.078,7.54.02,6.427.046,15.252.077,25.094l-.248-.248h1.878l26.349.073,7.987.079,2.171.046a4.36,4.36,0,0,1,.757.05" transform="translate(-25.289 -28.593)" fill="#263238"/><path d="M269.861,274.594a10.136,10.136,0,0,1-1.168,1.116l-3.305,2.9c-2.8,2.433-6.7,5.767-11.024,9.428l-.655.554-.169.143-.161-.15-4.9-4.556.306.007-7.2,5.939-2.089,1.672a4.686,4.686,0,0,1-.781.558,4.564,4.564,0,0,1,.683-.674l2-1.773,7.085-6.077.154-.132.152.139,4.926,4.531-.329-.007.655-.555c4.323-3.659,8.255-6.952,11.118-9.316l3.406-2.781a10.111,10.111,0,0,1,1.294-.968" transform="translate(-25.76 -29.632)" fill="#263238"/><path d="M272.511,282.741a12.334,12.334,0,0,1-.172-2.443c-.045-1.514-.073-3.612-.076-5.95l.248.248h-.423c-2.435,0-4.639-.029-6.235-.073a13.325,13.325,0,0,1-2.582-.176,13.318,13.318,0,0,1,2.582-.176c1.6-.046,3.8-.073,6.235-.073h.672v.248c0,2.338-.031,4.436-.076,5.95a12.338,12.338,0,0,1-.172,2.443" transform="translate(-28.41 -29.578)" fill="#263238"/></g></svg>