<svg xmlns="http://www.w3.org/2000/svg" xmlns:xlink="http://www.w3.org/1999/xlink" width="108.82" height="108.82" viewBox="0 0 108.82 108.82"><defs><filter id="a" x="0" y="0" width="108.82" height="108.82" filterUnits="userSpaceOnUse"><feOffset dy="6" input="SourceAlpha"/><feGaussianBlur stdDeviation="4.5" result="b"/><feFlood flood-opacity="0.161"/><feComposite operator="in" in2="b"/><feComposite in="SourceGraphic"/></filter></defs><g transform="translate(-801.68 -544.283)"><g transform="matrix(1, 0, 0, 1, 801.68, 544.28)" filter="url(#a)"><g transform="translate(13.5 7.5)" fill="#fff"><path d="M 40.91015625 71.8203125 C 23.86623573303223 71.8203125 9.999996185302734 57.95407485961914 9.999996185302734 40.91015625 C 9.999996185302734 23.86623573303223 23.86623573303223 9.999996185302734 40.91015625 9.999996185302734 C 57.95407485961914 9.999996185302734 71.8203125 23.86623573303223 71.8203125 40.91015625 C 71.8203125 57.95407485961914 57.95407485961914 71.8203125 40.91015625 71.8203125 Z" stroke="none"/><path d="M 40.91015625 20 C 29.3802490234375 20 20 29.3802490234375 20 40.91015625 C 20 52.4400634765625 29.3802490234375 61.8203125 40.91015625 61.8203125 C 52.4400634765625 61.8203125 61.8203125 52.4400634765625 61.8203125 40.91015625 C 61.8203125 29.3802490234375 52.4400634765625 20 40.91015625 20 M 40.91015625 0 C 63.50421905517578 0 81.8203125 18.31609344482422 81.8203125 40.91015625 C 81.8203125 63.50421905517578 63.50421905517578 81.8203125 40.91015625 81.8203125 C 18.31609344482422 81.8203125 0 63.50421905517578 0 40.91015625 C 0 18.31609344482422 18.31609344482422 0 40.91015625 0 Z" stroke="none" fill="#fff"/></g></g><circle cx="34" cy="34" r="34" transform="translate(822.333 559)" fill="#ced371"/><g transform="translate(832.561 566.946)"><path d="M142.8,285.17a.877.877,0,0,1,.759,1.024q-.148,5.584-.288,11.169c-.013.494-.066.973-.6,1.217h-.509l-.513-.71a2.279,2.279,0,0,0,.067-.347q.141-3.522.274-7.043a1.158,1.158,0,0,0-.044-.227h-1.925c-.067-.006-.135-.016-.2-.016q-6.181,0-12.361,0c-.115,0-.23.019-.338.028a51.3,51.3,0,0,0,.267,7.573l-.49.742h-.611a1.389,1.389,0,0,1-.491-1.142q-.139-5.651-.287-11.3a.852.852,0,0,1,.76-.968c.66.2.771.343.775,1.054,0,.807,0,1.614,0,2.468h.621q4.322,0,8.643,0c1.237,0,2.473-.014,3.71-.022h2.012c0-.859,0-1.68,0-2.5,0-.662.117-.8.765-1" transform="translate(-110.756 -246.473)" fill="#030303"/><path d="M187.226,347.786h-.611l-.492-.734c0-1.31.014-2.621.008-3.931a1.025,1.025,0,0,1,.509-1.016c.769-.041,1.053.215,1.059.983.01,1.316.009,2.632.012,3.948l-.485.751" transform="translate(-163.145 -295.679)" fill="#050403"/><path d="M187.375,0a1.253,1.253,0,0,1,.467,1.14c-.023,1,0,1.993-.011,2.99-.009.62-.388.966-.914.861a.714.714,0,0,1-.607-.761c-.011-1.148-.032-2.3.017-3.445.011-.267.285-.524.438-.785Z" transform="translate(-163.295)" fill="#080808"/><path d="M105.024,183.713c-1.237.008-2.473.021-3.71.022q-4.321.005-8.643,0H92.05c0-.853,0-1.661,0-2.467,0-.711-.116-.856-.775-1.054q.008-.978.016-1.956a.9.9,0,0,0,.765-1.025c-.017-1.255-.012-2.51,0-3.765a1.153,1.153,0,0,0-.437-.975c-.548-.454-1.071-.939-1.6-1.41l-4.993-4.406,2.3-2.937c.535.466,1.024.883,1.5,1.311a6.048,6.048,0,0,0,3.3,1.681c.622.076,1.248.133,1.866.234,1.148.188,2.3.364,3.433.618a7.7,7.7,0,0,0,3.22.2c.81-.161,1.6-.454,2.409-.589,1-.167,2.018-.256,3.031-.336a6.57,6.57,0,0,0,4.16-1.79c.476-.452.99-.864,1.53-1.332l1.022,1.362a1.676,1.676,0,0,1-.188.237q-1.67,1.476-3.346,2.946c-1,.878-2.017,1.745-3.017,2.628a2.924,2.924,0,0,0-1.225,2.326c.044,3.492.013,6.985.011,10.478" transform="translate(-75.76 -141.518)" fill="#6ed5a2"/><path d="M53.818,76.113,52.8,74.751c-.54.468-1.054.88-1.53,1.332a6.569,6.569,0,0,1-4.16,1.789c-1.013.08-2.03.169-3.031.336-.813.136-1.6.429-2.409.59a7.709,7.709,0,0,1-3.221-.2c-1.134-.255-2.286-.43-3.433-.618-.618-.1-1.244-.158-1.866-.234a6.049,6.049,0,0,1-3.3-1.68c-.48-.428-.968-.845-1.5-1.311l-2.3,2.936L31.041,82.1c.534.471,1.057.956,1.605,1.41a1.153,1.153,0,0,1,.436.975c-.011,1.255-.015,2.51,0,3.765a.9.9,0,0,1-.766,1.025c-.651-.215-.772-.377-.774-1.064,0-1.069.017-2.138-.015-3.205a1.045,1.045,0,0,0-.3-.684q-6.545-5.807-13.115-11.584a3.317,3.317,0,0,1-.632-4.667,3.544,3.544,0,0,1,4.925-.551c.79.611,1.518,1.3,2.269,1.963,2.037,1.791,4.1,3.557,6.1,5.387a5.632,5.632,0,0,0,4.049,1.5c-.1-.137-.178-.25-.264-.357a7.771,7.771,0,0,1-1.723-5.09c.015-1.39-.029-2.788.114-4.166A8.371,8.371,0,0,1,33.71,64.2a3.294,3.294,0,0,1,2.331-1.807.925.925,0,0,0,.408-.18,5.455,5.455,0,0,1,4.213-1.424A8.564,8.564,0,0,1,46.825,63.6a5.535,5.535,0,0,1,1.5,3.887c-.013,1.221-.006,2.441,0,3.662a7.637,7.637,0,0,1-1.784,4.961c-.052.064-.1.131-.147.2-.007.011,0,.033,0,.054a5.588,5.588,0,0,0,3.964-1.5c2.6-2.355,5.262-4.644,7.887-6.973a3.652,3.652,0,0,1,3.938-.878,3.272,3.272,0,0,1,.9,5.659c-1.975,1.76-3.965,3.5-5.949,5.252q-3.6,3.179-7.215,6.353a.857.857,0,0,0-.339.732c.022,1.034.009,2.069.008,3.1,0,.773-.079.888-.771,1.158a.885.885,0,0,1-.759-1.022q.035-1.854,0-3.709a1.3,1.3,0,0,1,.5-1.1c1.927-1.681,3.84-3.378,5.757-5.07.25-.221.5-.445.779-.7l-1.274-1.567M18.353,70.035a1.658,1.658,0,0,0,.609,1.391c1.947,1.748,3.918,3.471,5.915,5.234l1.334-1.751.947-1.163a1.53,1.53,0,0,0-.128-.156c-1.754-1.549-3.5-3.106-5.271-4.636a2.935,2.935,0,0,0-1.05-.586,1.82,1.82,0,0,0-2.357,1.668m36.662,4.992,1.246,1.631L59.9,73.449c.736-.65,1.481-1.29,2.205-1.952a1.773,1.773,0,0,0-1.288-3.175,5.413,5.413,0,0,0-1.4.614c-1.66,1.4-3.269,2.851-4.9,4.285-.185.163-.369.328-.567.505l1.061,1.3m-10.481-5.3,2.246.243c0-.917-.017-1.711,0-2.5a3.792,3.792,0,0,0-.768-2.424,6.829,6.829,0,0,0-4.539-2.621c-.1-.012-.2-.022-.3-.036a4.039,4.039,0,0,0-3.857,1.149,1.139,1.139,0,0,1-.623.285,2.217,2.217,0,0,0-1.733,1.264,9.491,9.491,0,0,0-.577,4.458c.782-.51,1.488-1,2.22-1.441a2.916,2.916,0,0,1,2.382-.409c.742.217,1.465.5,2.191.772,1.121.415,2.238.842,3.357,1.263m-3.968,7.615c3.82.066,6.329-3.377,6.154-5.871l-2.274-.14q-2.03-.776-4.059-1.552c-.426-.164-.843-.351-1.271-.506a2.005,2.005,0,0,0-1.933.258c-.857.606-1.712,1.214-2.551,1.844a.614.614,0,0,0-.2.46,6.193,6.193,0,0,0,6.133,5.507" transform="translate(-16.789 -52.533)" fill="#030303"/><path d="M240.137,173.772l1.274,1.567c-.282.252-.529.476-.779.7-1.917,1.692-3.83,3.39-5.757,5.07a1.3,1.3,0,0,0-.5,1.1q.037,1.854,0,3.709a.885.885,0,0,0,.759,1.022q.008.978.015,1.957c-.648.193-.761.334-.765,1,0,.822,0,1.644,0,2.5h-2.012c0-3.493.034-6.986-.011-10.478a2.924,2.924,0,0,1,1.225-2.326c1-.883,2.013-1.75,3.017-2.628q1.677-1.468,3.346-2.946a1.692,1.692,0,0,0,.188-.237" transform="translate(-203.109 -150.192)" fill="#3ebfa0"/><path d="M143.654,20.79c-.139.143-.306.453-.541.518a.9.9,0,0,1-.795-.2,25.683,25.683,0,0,1-1.455-2.48.6.6,0,0,1,.33-.847c.257-.089.752-.082.856.073.569.848,1.051,1.755,1.559,2.643a1.37,1.37,0,0,1,.046.29" transform="translate(-123.966 -15.321)" fill="#050505"/><path d="M225.3,17.708a5.876,5.876,0,0,1-.252.623q-.56.989-1.14,1.967c-.3.5-.73.646-1.132.4a.792.792,0,0,1-.192-1.153q.6-1.055,1.217-2.1a.669.669,0,0,1,.865-.335c.254.115.433.4.634.593" transform="translate(-194.519 -14.743)" fill="#050505"/><path d="M109.677,47.3c-.02.683-.562,1.064-1.044.816-.807-.416-1.592-.877-2.365-1.355a.692.692,0,0,1-.241-.977.734.734,0,0,1,1-.317c.785.424,1.559.87,2.312,1.347.185.117.271.388.335.486" transform="translate(-93.828 -39.22)" fill="#050505"/><path d="M251.454,48.151c-.144-.124-.481-.277-.542-.5a.952.952,0,0,1,.2-.841,23.532,23.532,0,0,1,2.4-1.413.682.682,0,0,1,.93.293.657.657,0,0,1-.148.955c-.811.518-1.661.975-2.5,1.453a1.566,1.566,0,0,1-.349.058" transform="translate(-219.123 -39.161)" fill="#050505"/><path d="M149.619,330.079l-4.4.025c0-1.316,0-2.632-.012-3.948-.005-.768-.289-1.024-1.059-.983-.367-.13-.748-.4-1.1-.361-.717.076-1.059.592-1.062,1.369-.006,1.3,0,2.6,0,3.9l-4.7.033a51.31,51.31,0,0,1-.267-7.573c.108-.009.223-.028.338-.028q6.181,0,12.361,0c.068,0,.135.011.2.016-.032.687-.068,1.374-.094,2.062q-.105,2.744-.2,5.489" transform="translate(-120.648 -278.748)" fill="#aa695d"/><path d="M230.283,330.188q.1-2.745.2-5.489c.026-.688.062-1.375.094-2.062H232.5a1.162,1.162,0,0,1,.045.227q-.133,3.522-.274,7.043a2.247,2.247,0,0,1-.067.347l-1.925-.066" transform="translate(-201.313 -278.856)" fill="#915a4f"/><path d="M174,344.715c0-1.3-.008-2.6,0-3.9,0-.778.345-1.293,1.062-1.369.349-.037.73.231,1.1.361a1.025,1.025,0,0,0-.508,1.016c.006,1.31,0,2.621-.008,3.931l-1.641-.04" transform="translate(-152.666 -293.382)" fill="#935b50"/><path d="M152.937,130.581a6.193,6.193,0,0,1-6.133-5.507.614.614,0,0,1,.2-.46c.839-.63,1.695-1.238,2.551-1.844a2.005,2.005,0,0,1,1.933-.258c.429.155.846.342,1.271.506q2.028.78,4.059,1.552a5.575,5.575,0,0,1-.6,2.629,7.386,7.386,0,0,1-3.277,3.382" transform="translate(-129.161 -105.768)" fill="#fcd0a3"/><path d="M156.474,79.5c-1.119-.422-2.236-.848-3.357-1.263-.726-.269-1.449-.555-2.191-.772a2.916,2.916,0,0,0-2.382.408c-.732.443-1.437.93-2.219,1.441a9.491,9.491,0,0,1,.577-4.458,2.217,2.217,0,0,1,1.733-1.265,1.138,1.138,0,0,0,.623-.285,4.04,4.04,0,0,1,3.857-1.149c.1.015.2.024.3.036a3.507,3.507,0,0,0,.446.444,5.23,5.23,0,0,1,2.519,3.833c.1,1,.066,2.019.092,3.029" transform="translate(-128.73 -62.299)" fill="#544d55"/><path d="M304.286,116.345a1.773,1.773,0,0,1,1.288,3.175c-.724.663-1.469,1.3-2.205,1.952l-3.636,3.208-1.246-1.631c.477-.392.964-.772,1.428-1.179.988-.867,1.926-1.8,2.956-2.609a3.359,3.359,0,0,0,1.414-2.916" transform="translate(-260.263 -100.555)" fill="#fcbb84"/><path d="M36.132,132.648,34.8,134.4c-2-1.763-3.968-3.485-5.915-5.234a1.658,1.658,0,0,1-.609-1.391,3.193,3.193,0,0,1,3.49.958c.676.657,1.431,1.232,2.135,1.861.754.674,1.49,1.369,2.233,2.055" transform="translate(-26.711 -110.271)" fill="#fbd0a2"/><path d="M36.167,122.737c-.744-.686-1.479-1.381-2.233-2.055-.7-.629-1.458-1.2-2.135-1.861a3.193,3.193,0,0,0-3.49-.958,1.82,1.82,0,0,1,2.357-1.668,2.938,2.938,0,0,1,1.051.586c1.77,1.531,3.517,3.088,5.271,4.636a1.563,1.563,0,0,1,.128.156l-.947,1.163" transform="translate(-26.746 -100.361)" fill="#fbba84"/><path d="M201.77,80.2c-.026-1.01.005-2.026-.092-3.029a5.23,5.23,0,0,0-2.519-3.833,3.509,3.509,0,0,1-.446-.444,6.829,6.829,0,0,1,4.539,2.621,3.793,3.793,0,0,1,.768,2.424c-.021.793,0,1.587,0,2.5L201.77,80.2" transform="translate(-174.026 -63.006)" fill="#423e42"/><path d="M297.53,116.358a3.359,3.359,0,0,1-1.414,2.916c-1.03.813-1.968,1.742-2.956,2.609-.464.407-.952.787-1.428,1.179l-1.061-1.3c.2-.177.382-.342.567-.505,1.627-1.434,3.236-2.89,4.9-4.285a5.409,5.409,0,0,1,1.4-.614" transform="translate(-253.506 -100.569)" fill="#fbcfa2"/><path d="M192,144.57a7.386,7.386,0,0,0,3.277-3.382,5.575,5.575,0,0,0,.6-2.629l2.274.14c.176,2.494-2.333,5.937-6.154,5.871" transform="translate(-168.227 -119.757)" fill="#fbba84"/></g></g></svg>