<svg xmlns="http://www.w3.org/2000/svg" xmlns:xlink="http://www.w3.org/1999/xlink" width="150" height="151" viewBox="0 0 150 151"><defs><filter id="a" x="0" y="0" width="150" height="151" filterUnits="userSpaceOnUse"><feOffset dy="6" input="SourceAlpha"/><feGaussianBlur stdDeviation="5" result="b"/><feFlood flood-opacity="0.329"/><feComposite operator="in" in2="b"/><feComposite in="SourceGraphic"/></filter></defs><g transform="translate(-411.167 -3996.063)"><g transform="matrix(1, 0, 0, 1, 411.17, 3996.06)" filter="url(#a)"><ellipse cx="60" cy="60.5" rx="60" ry="60.5" transform="translate(15 9)" fill="#ffb500"/></g><g transform="translate(451.821 4022.857)"><g transform="translate(0 9.433)"><path d="M0,48.92c.093-.259.175-.522.28-.776a21.535,21.535,0,0,1,1.091-2.575q8.985-15.628,18.022-31.227a9.363,9.363,0,0,1,16.493.04q6.424,11.083,12.82,22.181a1.992,1.992,0,0,0,.73.724,14.566,14.566,0,0,1,5.928,19.989l-.112.206c.941,1,1.85,1.975,2.783,2.93.088.09.327.071.488.048a2.47,2.47,0,0,1,2.192.741c2.382,2.328,4.782,4.637,7.163,6.965a2.278,2.278,0,0,1,.052,3.442c-.815.859-1.636,1.714-2.473,2.552a2.3,2.3,0,0,1-3.495.022c-2.377-2.3-4.741-4.614-7.125-6.907a2.475,2.475,0,0,1-.75-2.494.741.741,0,0,0-.131-.563c-.755-.884-1.537-1.744-2.289-2.587a14.571,14.571,0,0,1-9.362,3.105A14.208,14.208,0,0,1,32.17,60.254a1.372,1.372,0,0,0-1.1-.462c-7.019.015-14.039-.08-21.055.039a9.56,9.56,0,0,1-9.872-7.7A.953.953,0,0,0,0,51.871V48.92M31.136,12.558l-.278-.155a1.349,1.349,0,0,0-.163-.109,7.2,7.2,0,0,0-9.314,2.9c-1.671,2.823-3.285,5.68-4.926,8.521Q9.875,35.111,3.291,46.5a7.649,7.649,0,0,0-1.137,3.6,7.2,7.2,0,0,0,7.2,7.54c6.771.034,13.543.011,20.315.011.121,0,.241-.021.415-.037l-1.038-2.134h-.789c-6.213,0-12.426.011-18.639,0a5.047,5.047,0,0,1-4.507-7.736Q14.119,32.106,23.17,16.5a5.884,5.884,0,0,1,1.366-1.624,5.01,5.01,0,0,1,7.531,1.579C35.5,22.378,38.955,28.3,42.324,34.264c.568,1.006,1.169,1.594,2.336,1.478l1.2.2c-1.3-2.245-2.513-4.344-3.725-6.445q-4.043-7.006-8.084-14.012a6.77,6.77,0,0,0-2.92-2.935ZM8.718,53.2a11.036,11.036,0,0,0,1.188.126q8.879.012,17.758.006h.649l-.278-4.485c-1.88-.06-3.04-.778-3.565-2.224a3.265,3.265,0,0,1,.964-3.647,3.373,3.373,0,0,1,4.52.042,14.8,14.8,0,0,1,10.745-7.3c-.135-.252-.233-.448-.342-.638q-1.67-2.9-3.343-5.793-3.378-5.849-6.759-11.7a2.813,2.813,0,0,0-3.425-1.511,2.955,2.955,0,0,0-1.91,1.638Q17.753,30.152,10.573,42.573C9.347,44.7,8.1,46.808,6.9,48.948A2.84,2.84,0,0,0,8.718,53.2m46.348-2.956a12.42,12.42,0,1,0-12.6,12.35,12.412,12.412,0,0,0,12.6-12.35M66.6,69.916l-7.417-7.2L56.129,65.53l7.408,7.183,3.065-2.8M27.658,44.3a1.2,1.2,0,0,0-1.232,1.145,1.177,1.177,0,0,0,1.131,1.235,1.191,1.191,0,0,0,1.272-1.167A1.216,1.216,0,0,0,27.658,44.3m28.7,17.848-2.446-2.711-.825.9.22-.106,2.334,2.578.717-.664" transform="translate(0 -9.433)" fill="#030202"/><path d="M61.663,45.958a2.813,2.813,0,0,1,3.425,1.511q3.389,5.844,6.759,11.7,1.672,2.9,3.343,5.793c.109.19.207.386.342.638a14.8,14.8,0,0,0-10.745,7.3,3.373,3.373,0,0,0-4.52-.042A3.265,3.265,0,0,0,59.3,76.5c.525,1.447,1.685,2.164,3.565,2.224l.278,4.485H62.5q-8.879,0-17.758-.006a11.039,11.039,0,0,1-1.188-.126,4.087,4.087,0,0,1-.405-5.1c.266-.382.455-.817.688-1.222q2.133-3.7,4.272-7.405,2.34-4.047,4.685-8.091c1.626-2.814,3.241-5.635,4.871-8.447,1.326-2.288,2.666-4.568,4-6.851m3.88,16.867H65.53q.114-3.046.228-6.093a2.853,2.853,0,0,0-2.739-3.1,7.371,7.371,0,0,0-1.2.007,2.829,2.829,0,0,0-2.658,2.974q.207,6.228.472,12.453a2.835,2.835,0,0,0,5.666-.016c.094-2.075.167-4.151.249-6.226" transform="translate(-34.834 -39.307)" fill="#ffb500"/><path d="M54.509,45.632c-1.167.116-1.768-.472-2.336-1.478C48.8,38.189,45.354,32.268,41.916,26.341a5.01,5.01,0,0,0-7.531-1.579,5.884,5.884,0,0,0-1.366,1.624Q23.967,42,14.962,57.632a5.047,5.047,0,0,0,4.507,7.736c6.213.015,12.426,0,18.639,0H38.9l1.038,2.134c-.174.016-.295.037-.415.037-6.772,0-13.544.023-20.315-.011a7.2,7.2,0,0,1-7.2-7.54,7.648,7.648,0,0,1,1.137-3.6Q19.73,45,26.3,33.607c1.641-2.841,3.255-5.7,4.926-8.521a7.2,7.2,0,0,1,9.314-2.9,1.323,1.323,0,0,1,.163.109l.278.155-.005-.006a15.826,15.826,0,0,1,.967,1.316q2.708,4.567,5.381,9.156,2.974,5.11,5.913,10.24c.461.8.847,1.652,1.268,2.479" transform="translate(-9.849 -19.323)" fill="#a3314f"/><path d="M193.52,180.076a12.42,12.42,0,1,1-12.2-12.471,12.431,12.431,0,0,1,12.2,12.471m-1.775-.052a10.64,10.64,0,1,0-10.654,10.645,10.646,10.646,0,0,0,10.654-10.645" transform="translate(-138.454 -139.261)" fill="#e2e2e2"/><path d="M323.718,313.995l-3.065,2.8-7.408-7.182L316.3,306.8l7.417,7.2" transform="translate(-257.116 -253.512)" fill="#ffb500"/><path d="M56.589,46.549c-1.334,2.284-2.674,4.563-4,6.851-1.63,2.812-3.245,5.632-4.871,8.447q-2.339,4.048-4.685,8.091-2.139,3.7-4.271,7.405c-.233.405-.422.84-.688,1.222a4.087,4.087,0,0,0,.405,5.1,2.84,2.84,0,0,1-1.817-4.256c1.2-2.139,2.447-4.251,3.673-6.375q7.175-12.424,14.346-24.851a2.956,2.956,0,0,1,1.91-1.639" transform="translate(-29.76 -39.898)" fill="#fdc94a"/><path d="M187.262,50.026c-.421-.828-.807-1.675-1.268-2.479q-2.937-5.131-5.913-10.24-2.671-4.589-5.381-9.156a15.821,15.821,0,0,0-.967-1.316,6.771,6.771,0,0,1,2.919,2.935q4.044,7.005,8.084,14.012c1.212,2.1,2.427,4.2,3.725,6.445l-1.2-.2" transform="translate(-142.602 -23.717)" fill="#b55a72"/><path d="M148.7,204a1.215,1.215,0,0,1,1.171,1.213,1.191,1.191,0,0,1-1.272,1.167,1.177,1.177,0,0,1-1.131-1.235A1.2,1.2,0,0,1,148.7,204" transform="translate(-121.046 -169.139)" fill="#a3314f"/><path d="M299.514,291.2l-.717.664-2.334-2.578-.22.106.825-.9,2.446,2.711" transform="translate(-243.16 -238.483)" fill="#9d929d"/><path d="M172.486,26.162l-.278-.155.278.155" transform="translate(-141.351 -23.037)" fill="#f74653"/><path d="M142.116,98.475c-.082,2.075-.155,4.151-.249,6.226a2.835,2.835,0,0,1-5.666.016q-.26-6.226-.472-12.453a2.829,2.829,0,0,1,2.658-2.974,7.388,7.388,0,0,1,1.2-.007,2.853,2.853,0,0,1,2.739,3.1q-.114,3.046-.228,6.093h.013m-2.144-.177h-.01q.1-2.945.206-5.889c.026-.74-.183-.967-.921-.992-.178-.006-.357,0-.536,0a.763.763,0,0,0-.841.889c.02.58.059,1.159.08,1.739q.191,5.153.373,10.306c.017.5.149.933.721.921s.677-.451.693-.951c.066-2.008.154-4.015.233-6.022" transform="translate(-111.407 -74.957)" fill="#040302"/><path d="M199.925,188.069a10.64,10.64,0,1,1-10.558-10.664,10.665,10.665,0,0,1,10.558,10.664m-2.147.014a8.487,8.487,0,1,0-8.554,8.484,8.5,8.5,0,0,0,8.554-8.484" transform="translate(-146.634 -147.307)" fill="#030304"/><path d="M149.79,108.156c-.08,2.007-.168,4.014-.233,6.022-.016.5-.124.938-.693.951s-.7-.417-.721-.921q-.176-5.153-.373-10.306c-.021-.58-.06-1.159-.08-1.739a.763.763,0,0,1,.841-.889c.178,0,.357-.006.536,0,.738.024.946.251.92.992q-.1,2.944-.206,5.889h.01" transform="translate(-121.225 -84.815)" fill="#a3314f"/><path d="M207.665,197.916a8.487,8.487,0,1,1-8.428-8.531,8.528,8.528,0,0,1,8.428,8.531" transform="translate(-156.522 -157.14)" fill="#e2e2e2"/></g></g></g></svg>