<svg xmlns="http://www.w3.org/2000/svg" xmlns:xlink="http://www.w3.org/1999/xlink" width="108.82" height="108.82" viewBox="0 0 108.82 108.82"><defs><filter id="a" x="0" y="0" width="108.82" height="108.82" filterUnits="userSpaceOnUse"><feOffset dy="6" input="SourceAlpha"/><feGaussianBlur stdDeviation="4.5" result="b"/><feFlood flood-opacity="0.161"/><feComposite operator="in" in2="b"/><feComposite in="SourceGraphic"/></filter></defs><g transform="translate(-166.5 -1569.153)"><g transform="matrix(1, 0, 0, 1, 166.5, 1569.15)" filter="url(#a)"><g transform="translate(13.5 7.5)" fill="#fff"><path d="M 40.91015625 71.8203125 C 23.86623573303223 71.8203125 9.999996185302734 57.95407485961914 9.999996185302734 40.91015625 C 9.999996185302734 23.86623573303223 23.86623573303223 9.999996185302734 40.91015625 9.999996185302734 C 57.95407485961914 9.999996185302734 71.8203125 23.86623573303223 71.8203125 40.91015625 C 71.8203125 57.95407485961914 57.95407485961914 71.8203125 40.91015625 71.8203125 Z" stroke="none"/><path d="M 40.91015625 20 C 29.3802490234375 20 20 29.3802490234375 20 40.91015625 C 20 52.4400634765625 29.3802490234375 61.8203125 40.91015625 61.8203125 C 52.4400634765625 61.8203125 61.8203125 52.4400634765625 61.8203125 40.91015625 C 61.8203125 29.3802490234375 52.4400634765625 20 40.91015625 20 M 40.91015625 0 C 63.50421905517578 0 81.8203125 18.31609344482422 81.8203125 40.91015625 C 81.8203125 63.50421905517578 63.50421905517578 81.8203125 40.91015625 81.8203125 C 18.31609344482422 81.8203125 0 63.50421905517578 0 40.91015625 C 0 18.31609344482422 18.31609344482422 0 40.91015625 0 Z" stroke="none" fill="#fff"/></g></g><circle cx="34" cy="34" r="34" transform="translate(187.333 1584)" fill="#ced371"/><g transform="translate(195.886 1595.025)"><g transform="translate(3.246)"><path d="M105.283,0c1.18.5,1.434.895,1.434,2.242,0,.269,0,.538,0,.807a1.759,1.759,0,0,1-1.818,1.8c-.237,0-.474,0-.739,0V6.275h.459c3.125,0,6.251.034,9.376-.015a3.944,3.944,0,0,1,3.485,1.735,18.7,18.7,0,0,1,1.031,1.623q2.07,3.609,4.116,7.233a2.526,2.526,0,1,1-4.394,2.488c-1.183-2.072-2.418-4.119-3.5-6.242a2.9,2.9,0,0,0-3.023-1.792c-1.471.072-2.948.016-4.494.016.5,1,.962,1.945,1.446,2.88.043.082.215.133.33.137.493.015.987.006,1.48.006a1.777,1.777,0,0,1,1.976,1.96q0,4.216,0,8.433c0,.733.006,1.465,0,2.2-.006.518-.169.7-.694.822-.486-.079-.657-.378-.655-.853.01-2.165,0-4.33,0-6.5v-.533h-.523q-3.606,0-7.213,0c-.594,0-.745-.122-.886-.666.136-.554.3-.68.924-.681q3.588,0,7.177,0h.521c0-.722,0-1.392,0-2.061,0-.714-.058-.773-.755-.773H92.984c-.149,0-.3.011-.447.018a3.128,3.128,0,0,0-.8,0c-.171.043-.422.244-.429.385-.041.8-.02,1.595-.02,2.4h1.155c.163.01.326.027.49.027q3.137,0,6.275,0c.61,0,.753.11.94.678-.19.577-.312.667-.938.669-.954,0-1.908,0-2.862,0-1.3.006-2.592.017-3.888.027H91.317V39.817h1.141c.059.006.119.017.178.017q9.078,0,18.155,0a2.272,2.272,0,0,0,.307-.043v-.518c0-2.973,0-5.946,0-8.92,0-.474.168-.775.655-.853.525.12.694.3.695.821q.005,6.908,0,13.816a1.933,1.933,0,0,1-1.327,1.813H91.282a2.15,2.15,0,0,1-1.354-2.3q.038-13.614,0-27.229a1.894,1.894,0,0,1,2.1-2.081c.61.045,1.226.014,1.839,0,.116,0,.293-.049.335-.131.436-.832.85-1.675,1.268-2.516.051-.1.09-.211.148-.349H90.886a4.939,4.939,0,0,1-.353.75,1.264,1.264,0,0,1-1.066.565c-.7.009-1.406.016-2.108,0A1.367,1.367,0,0,1,86,11.317q-.032-2.512,0-5.024A1.38,1.38,0,0,1,87.39,4.937c.523-.013,1.047,0,1.57,0,1.212,0,1.5.2,1.913,1.333H98.25V4.852c-.267,0-.532.006-.8,0A1.754,1.754,0,0,1,95.7,3.121c-.019-.463-.022-.928,0-1.39A1.838,1.838,0,0,1,97.116,0Zm-2.515,4.936-.091-.073-2.236,0H99.66v1.4h.781l2.235,0,.091-.073V4.936M88.416,6.3H87.367v5h2.114v-5Zm10.326,5.05c-.432-.009-.866-.043-1.3-.014a.609.609,0,0,0-.419.278c-.362.668-.691,1.355-1.031,2.036-.109.218-.214.437-.335.683H107.2l-1.5-3.01c-.911,0-1.807,0-2.7,0q-2.129.009-4.257.026M92.636,44.585c.1.006.209.016.313.016H110.62a.417.417,0,0,0,.47-.432c.014-.982.005-1.965.005-2.988H92.9c-.149,0-.3.012-.447.018H91.288c0,.747,0,1.446,0,2.145,0,1.3-.132,1.305,1.348,1.24M92.359,7.634h-1.5V9.959h1.5c.179,0,.358.012.538.012h17.587c.523,0,1.047.013,1.57,0a3.674,3.674,0,0,1,3.683,2.194c.491,1,1.085,1.959,1.637,2.933.685,1.208,1.366,2.419,2.066,3.618a1.168,1.168,0,0,0,2.174-.8,2.31,2.31,0,0,0-.269-.61c-1.178-2.079-2.355-4.159-3.548-6.228-.462-.8-.936-1.6-1.461-2.358a2.54,2.54,0,0,0-2.261-1.116c-7.088.023-14.177.012-21.265.013-.149,0-.3.007-.448.011m8.85-4.146V3.51q1.749,0,3.5,0c.581,0,.665-.089.667-.683q0-.493,0-.986a.439.439,0,0,0-.5-.5l-7.308.018c-.358,0-.513.192-.513.533s0,.658,0,.986c.007.488.123.605.612.606,1.18,0,2.361,0,3.541,0" transform="translate(-79.435)" fill="#030302"/><path d="M15.617,91.843c.626,0,1.253-.005,1.879,0,.47.005.736.245.744.649a.66.66,0,0,1-.713.691q-1.9.019-3.8,0a.671.671,0,1,1,.014-1.339c.626-.009,1.253,0,1.879,0" transform="translate(-13.017 -83.598)" fill="#040404"/><path d="M25.551,50.656c.262.1.4.141.538.2q1.23.578,2.456,1.165c.476.229.637.575.459.956s-.568.475-1.029.26c-.861-.4-1.722-.806-2.577-1.222a.6.6,0,0,1-.382-.8c.1-.234.369-.4.535-.564" transform="translate(-23.891 -46.11)" fill="#060606"/><path d="M26.754,120.351a2.706,2.706,0,0,1-.549-.546.544.544,0,0,1,.264-.765c.944-.478,1.9-.935,2.867-1.364a.609.609,0,0,1,.831.326.572.572,0,0,1-.211.823c-.966.5-1.957.95-2.94,1.417a.6.6,0,0,1-.177.024l-.086.086" transform="translate(-24.957 -107.059)" fill="#050505"/><path d="M177.381,224.274c-.487.078-.656.378-.655.853.009,2.973,0,5.946,0,8.92v.518a2.288,2.288,0,0,1-.307.043q-9.078,0-18.155,0c-.059,0-.119-.011-.178-.017q0-9.914,0-19.827a.788.788,0,0,1,.01-.089c1.3-.009,2.592-.021,3.887-.027.954,0,1.908,0,2.862,0,.626,0,.748-.092.938-.669l2.325,0c.14.545.291.666.885.666q3.606,0,7.213,0h.523v.534c0,2.165.006,4.33,0,6.5,0,.474.169.774.655.853q0,.872,0,1.744m-9.981-.02c-.073.051-.123.082-.169.119a.646.646,0,0,1-.87.048c-.337-.218-.13-.434-.125-.658,0-.06.008-.119.01-.179a3.173,3.173,0,0,0-1.718-2.937,6.555,6.555,0,0,0-4.15-.808,1.424,1.424,0,0,0-1.372,1.542,5.6,5.6,0,0,0,3.209,4.728,2.728,2.728,0,0,0,3.108-.554.98.98,0,0,1,.111-.084c.568.126.687.475.666.993-.041,1.015-.014,2.033-.011,3.05,0,.563.243.878.668.886s.675-.306.677-.865c0-1.032.04-2.066-.015-3.095a.849.849,0,0,1,.684-.981,2.718,2.718,0,0,0,2.509.853c2.609-.482,3.991-3.489,3.9-5.133a1.367,1.367,0,0,0-1.291-1.326,6.3,6.3,0,0,0-4.53,1.009,3.032,3.032,0,0,0-1.29,3.394" transform="translate(-145.068 -194.775)" fill="#e4e4e4"/><path d="M157.008,84.82c.149,0,.3-.011.448-.011,7.088,0,14.177.01,21.265-.013a2.541,2.541,0,0,1,2.261,1.116c.525.76,1,1.557,1.461,2.358,1.194,2.07,2.37,4.15,3.548,6.228a2.308,2.308,0,0,1,.269.61,1.167,1.167,0,0,1-2.174.8c-.7-1.2-1.381-2.41-2.066-3.618-.552-.974-1.146-1.929-1.637-2.933A3.674,3.674,0,0,0,176.7,87.16c-.523.011-1.047,0-1.57,0H157.545c-.179,0-.358-.008-.538-.012q0-1.162,0-2.325" transform="translate(-144.085 -77.186)" fill="#ced371"/><path d="M158.019,458.9c.149-.006.3-.018.447-.018h18.2c0,1.023.008,2.006-.005,2.988a.417.417,0,0,1-.47.432H158.515c-.1,0-.208-.011-.313-.016a2.9,2.9,0,0,1-.177-.669c-.02-.9-.007-1.81-.007-2.715" transform="translate(-145.002 -417.7)" fill="#f4de86"/><path d="M168.014,178.344l-2.325,0c-.186-.567-.33-.677-.94-.678q-3.137,0-6.275,0c-.163,0-.326-.018-.49-.027,0-.489-.008-.979.007-1.468.014-.44.054-.88.083-1.32.149-.006.3-.018.447-.018h17.358c.7,0,.755.059.755.773,0,.669,0,1.339,0,2.061h-.521q-3.588,0-7.177,0c-.626,0-.788.126-.924.681" transform="translate(-144.974 -159.138)" fill="#f4de86"/><path d="M214.474,126.146q2.129-.013,4.257-.026c.9,0,1.793,0,2.7,0l1.5,3.01h-9.811a5.362,5.362,0,0,1,.187-.537c.382-.818.773-1.632,1.161-2.447" transform="translate(-195.168 -114.799)" fill="#e5e5e5"/><path d="M146.561,221.743a.793.793,0,0,0-.01.089q0,9.914,0,19.827h-1.141V221.743Z" transform="translate(-133.532 -201.843)" fill="#afaaaa"/><path d="M213.492,17.115c-1.18,0-2.361,0-3.541,0-.489,0-.605-.119-.612-.606,0-.329,0-.658,0-.986s.155-.532.513-.533l7.308-.018a.439.439,0,0,1,.5.5q0,.493,0,.986c0,.594-.086.682-.667.683q-1.749,0-3.5,0v-.022" transform="translate(-191.718 -13.627)" fill="#ced371"/><path d="M102.447,75.156H101.4v-5h1.049q0,2.5,0,5" transform="translate(-93.466 -63.86)" fill="#d69f3e"/><path d="M113.085,75.156q0-2.5,0-5h1.064v5Z" transform="translate(-104.105 -63.86)" fill="#f1db83"/><path d="M196.9,126.171c-.388.815-.779,1.629-1.161,2.447a5.359,5.359,0,0,0-.187.537h-1.733c.121-.246.227-.466.335-.683.34-.681.668-1.368,1.031-2.036a.609.609,0,0,1,.419-.278c.43-.029.864,0,1.3.014" transform="translate(-177.589 -114.825)" fill="#afaaaa"/><path d="M146.2,459.092c0,.905-.013,1.81.007,2.715a2.9,2.9,0,0,0,.177.669c-1.48.066-1.352.056-1.348-1.24,0-.7,0-1.4,0-2.145Z" transform="translate(-133.188 -417.891)" fill="#d69f3e"/><path d="M141.837,85.063q0,1.162,0,2.325h-1.5V85.063Z" transform="translate(-128.914 -77.429)" fill="#49a932"/><path d="M249.325,55.592l-2.235,0q0-.7,0-1.4l2.236,0,.09.073v1.256l-.091.073" transform="translate(-226.083 -49.327)" fill="#e4e4e4"/><path d="M146.319,174.744c-.029.44-.07.879-.083,1.32-.015.489-.006.978-.007,1.468h-1.155c0-.808-.021-1.607.02-2.4.007-.141.258-.342.429-.385a3.128,3.128,0,0,1,.8,0" transform="translate(-133.218 -159.036)" fill="#d69f3e"/><path d="M239.164,54.22q0,.7,0,1.4h-.781v-1.4Z" transform="translate(-218.158 -49.354)" fill="#b6b2b2"/><path d="M272.093,54.263,272,54.19l.091.073" transform="translate(-248.76 -49.327)" fill="#b6b2b2"/><path d="M272,69.068l.091-.073-.091.073" transform="translate(-248.756 -62.803)" fill="#b6b2b2"/><path d="M176.695,283.248a3.031,3.031,0,0,1,1.29-3.393,6.294,6.294,0,0,1,4.53-1.009,1.367,1.367,0,0,1,1.292,1.327c.092,1.644-1.291,4.652-3.9,5.133a2.718,2.718,0,0,1-2.509-.853.849.849,0,0,0-.684.981c.055,1.029.018,2.063.015,3.095,0,.559-.252.873-.677.865s-.666-.323-.668-.886c0-1.017-.03-2.035.011-3.05.021-.519-.1-.867-.666-.993a.992.992,0,0,0-.111.084,2.728,2.728,0,0,1-3.108.554,5.6,5.6,0,0,1-3.208-4.727,1.424,1.424,0,0,1,1.372-1.542,6.553,6.553,0,0,1,4.15.807,3.172,3.172,0,0,1,1.718,2.937c0,.06-.009.119-.01.179-.005.224-.212.44.125.658a.646.646,0,0,0,.87-.048c.046-.037.1-.068.169-.119m2.346.218-.087.017-.371.208a1.48,1.48,0,0,0,1.787.033,4.265,4.265,0,0,0,2.02-2.863c.158-.67.122-.715-.563-.7a7.794,7.794,0,0,0-.8.007,3.9,3.9,0,0,0-2.642,1.137,1.32,1.32,0,0,0-.4,1.185c.42-.25.8-.487,1.186-.7a.668.668,0,1,1,.683,1.149c-.267.185-.543.357-.816.535Zm-5.774.088c-.3-.189-.609-.376-.911-.569a.686.686,0,0,1-.322-.982c.219-.356.577-.42,1.015-.17.37.212.734.434,1.148.679a1.923,1.923,0,0,0-1.06-1.721,4.754,4.754,0,0,0-2.885-.629c-.644-.023-.713.006-.531.586a8.521,8.521,0,0,0,.815,1.859,2.741,2.741,0,0,0,1.863,1.348,2.017,2.017,0,0,0,.9-.11c.24-.073.214-.221-.035-.292" transform="translate(-154.363 -253.769)" fill="#030303"/><path d="M190.09,293.943a4.753,4.753,0,0,1,2.885.629,1.923,1.923,0,0,1,1.06,1.721c-.413-.245-.778-.467-1.148-.679-.438-.25-.8-.187-1.015.17a.686.686,0,0,0,.322.982c.3.192.607.379.91.569a2.438,2.438,0,0,1-.509-.129,4.84,4.84,0,0,1-2.5-3.262" transform="translate(-174.199 -267.548)" fill="#8cd954"/><path d="M276.98,297.272c.272-.178.548-.35.816-.535a.668.668,0,1,0-.683-1.149c-.389.214-.766.451-1.186.7a1.319,1.319,0,0,1,.4-1.185,3.9,3.9,0,0,1,2.642-1.137,7.817,7.817,0,0,1,.8-.007,4.535,4.535,0,0,1-1.813,2.866,4.778,4.778,0,0,1-.983.447" transform="translate(-252.312 -267.571)" fill="#8cda54"/><path d="M183.819,294.056a4.84,4.84,0,0,0,2.5,3.262,2.436,2.436,0,0,0,.509.129c.249.071.275.219.035.292a2.019,2.019,0,0,1-.9.11A2.74,2.74,0,0,1,184.1,296.5a8.527,8.527,0,0,1-.815-1.859c-.182-.58-.113-.609.531-.586" transform="translate(-167.928 -267.662)" fill="#46a430"/><path d="M283.349,297.335a4.779,4.779,0,0,0,.983-.447,4.535,4.535,0,0,0,1.813-2.866c.685-.01.721.035.563.7a4.264,4.264,0,0,1-2.02,2.863,1.48,1.48,0,0,1-1.787-.033l.371-.209.087-.017Z" transform="translate(-258.681 -267.634)" fill="#47a631"/><path d="M287.126,330.914l-.087.017.087-.017" transform="translate(-262.447 -301.217)" fill="#8cda54"/></g></g></g></svg>