<svg xmlns="http://www.w3.org/2000/svg" xmlns:xlink="http://www.w3.org/1999/xlink" width="108.82" height="108.82" viewBox="0 0 108.82 108.82"><defs><filter id="a" x="0" y="0" width="108.82" height="108.82" filterUnits="userSpaceOnUse"><feOffset dy="6" input="SourceAlpha"/><feGaussianBlur stdDeviation="4.5" result="b"/><feFlood flood-opacity="0.161"/><feComposite operator="in" in2="b"/><feComposite in="SourceGraphic"/></filter></defs><g transform="translate(-166.5 -1215.153)"><g transform="matrix(1, 0, 0, 1, 166.5, 1215.15)" filter="url(#a)"><g transform="translate(13.5 7.5)" fill="#fff"><path d="M 40.91015625 71.8203125 C 23.86623573303223 71.8203125 9.999996185302734 57.95407485961914 9.999996185302734 40.91015625 C 9.999996185302734 23.86623573303223 23.86623573303223 9.999996185302734 40.91015625 9.999996185302734 C 57.95407485961914 9.999996185302734 71.8203125 23.86623573303223 71.8203125 40.91015625 C 71.8203125 57.95407485961914 57.95407485961914 71.8203125 40.91015625 71.8203125 Z" stroke="none"/><path d="M 40.91015625 20 C 29.3802490234375 20 20 29.3802490234375 20 40.91015625 C 20 52.4400634765625 29.3802490234375 61.8203125 40.91015625 61.8203125 C 52.4400634765625 61.8203125 61.8203125 52.4400634765625 61.8203125 40.91015625 C 61.8203125 29.3802490234375 52.4400634765625 20 40.91015625 20 M 40.91015625 0 C 63.50421905517578 0 81.8203125 18.31609344482422 81.8203125 40.91015625 C 81.8203125 63.50421905517578 63.50421905517578 81.8203125 40.91015625 81.8203125 C 18.31609344482422 81.8203125 0 63.50421905517578 0 40.91015625 C 0 18.31609344482422 18.31609344482422 0 40.91015625 0 Z" stroke="none" fill="#fff"/></g></g><circle cx="34" cy="34" r="34" transform="translate(187.333 1230)" fill="#ced371"/><g transform="translate(190.671 1233.859)"><g transform="translate(12.094 11.995)"><path d="M48.393,163.2q0,.6,0,1.2c-1.979,0-3.958.01-5.937-.007a.908.908,0,0,1-.589-.255,1.2,1.2,0,0,0-1.953-.06.943.943,0,0,1-.8.329c-.148-.014-.3,0-.45,0,.144,1.443-.522,2.383-1.687,2.418a1.754,1.754,0,0,1-1.36-.548,1.874,1.874,0,0,1-.444-1.87h-.447c-1.626,0-3.252-.008-4.878,0a1.775,1.775,0,0,1-1.638-.889,1.145,1.145,0,0,0-.535-.321,5.815,5.815,0,0,1-1.069-.406.96.96,0,0,0-1.575.435,1.648,1.648,0,0,1-1.663,1.176c-.983,0-1.967,0-2.95,0H19.366c.116.168.206.286.283.411a2.118,2.118,0,1,1-3.819,1.77,2.073,2.073,0,0,1,.873-2.439c.321-.2.272-.415.138-.659a.6.6,0,0,0-.915-.138.609.609,0,0,1-.928-.1,1.248,1.248,0,0,0-1.9-.4l-.377-.352-.411-.525.6-.426-.693-.567,2.65-2.637H12.106q0-.6,0-1.2h2.128c-.375-.444-.415-.766-.145-1.035a.6.6,0,0,1,.85,0c.272.27.232.592-.128,1.016h1.843c-.368-.393-.417-.723-.161-1a.562.562,0,0,1,.812-.049.786.786,0,0,1,.212.526,1.6,1.6,0,0,1-.269.538h1.862c-.407-.4-.456-.749-.186-1.026a.6.6,0,0,1,.85-.013c.281.271.24.613-.134,1.024h1.847c-.369-.414-.41-.751-.133-1.022a.593.593,0,0,1,1.007.375,3.1,3.1,0,0,1-.236.642h1.794c-.374-.387-.423-.724-.161-1a.562.562,0,0,1,.812-.041.79.79,0,0,1,.207.528,1.44,1.44,0,0,1-.258.506h1.833c-.379-.365-.435-.695-.189-.976a.6.6,0,0,1,.848-.057c.3.263.271.616-.1,1.044h1.845c-.366-.4-.415-.723-.161-1a.563.563,0,0,1,.812-.052.785.785,0,0,1,.214.525,1.491,1.491,0,0,1-.255.518h1.822c-.38-.382-.429-.725-.162-1a.6.6,0,0,1,.85-.016c.283.271.242.617-.134,1.025h1.845c-.365-.417-.405-.749-.13-1.019a.594.594,0,0,1,1.009.371,3.11,3.11,0,0,1-.236.645h1.792c-.371-.389-.42-.724-.161-1a.562.562,0,0,1,.812-.044.789.789,0,0,1,.209.527,1.456,1.456,0,0,1-.257.509h1.83c-.387-.377-.436-.726-.162-1a.6.6,0,0,1,.85-.008c.277.271.236.607-.132,1.022h1.847c-.374-.411-.415-.754-.134-1.024a.563.563,0,0,1,.814-.006.815.815,0,0,1,.184.538c-.015.173-.174.333-.262.485h1.829c-.369-.375-.424-.692-.187-.973a.558.558,0,0,1,.808-.087.841.841,0,0,1,.233.553c0,.176-.17.347-.263.518h1.813c-.366-.428-.406-.753-.134-1.023a.6.6,0,0,1,.85,0c.27.269.23.589-.144,1.035h2.128q0,.6,0,1.2c-.819,0-1.639-.01-2.457.013a.836.836,0,0,0-.516.216c-1.232,1.21-2.449,2.435-3.67,3.656-.074.074-.139.157-.179.2l1.207.772,4.6-4.609.843.8-1.884,1.879L44.41,163.2Zm-6.716-4.833c.218,1.523-.405,2.272-1.952,2.407a.574.574,0,0,0-.31.173c-.513.5-1.018,1.012-1.525,1.52-.224.225-.447.451-.723.731.593,0,1.095.018,1.595-.01a.861.861,0,0,0,.517-.211c1.471-1.449,2.927-2.912,4.387-4.373.064-.064.116-.14.2-.236Zm-12.77,3.943,3.953-3.954c-.44,0-.943-.018-1.443.01a.864.864,0,0,0-.517.213c-1.062,1.039-2.109,2.094-3.158,3.145-.066.066-.124.142-.152.174l1.317.412m.492-3.954c-.626,0-1.142-.015-1.656.009a.743.743,0,0,0-.452.189q-2.229,2.2-4.437,4.427a2.034,2.034,0,0,0-.156.2c1.046.029,1.064.08,1.365-.811a1.487,1.487,0,0,1,1.433-.988c.226-.014.453,0,.679-.008a.445.445,0,0,0,.271-.085c.965-.951,1.923-1.91,2.953-2.937M13.632,161.3c.455.107.875.176,1.273.312a.362.362,0,0,0,.449-.106c.724-.735,1.456-1.463,2.187-2.192.3-.3.6-.592.972-.958a5.419,5.419,0,0,1-.766-.005,2.016,2.016,0,0,0-1.99.806c-.659.767-1.423,1.444-2.125,2.143m8.471-2.944c-.583,0-1.1-.017-1.607.01a.8.8,0,0,0-.483.206c-1.071,1.049-2.127,2.113-3.186,3.174-.068.068-.128.143-.167.189l1.2.717c.387-.394.8-.833,1.236-1.25a.8.8,0,0,0,.276-.653,1.726,1.726,0,0,1,1.626-1.758,1.369,1.369,0,0,0,1.11-.634m11.467,4.841c.609,0,1.16,0,1.711,0a.417.417,0,0,0,.263-.1c.991-.982,1.976-1.97,2.9-2.889l-.407-1.512c-.472.474-.952.971-1.45,1.449a.842.842,0,0,0-.3.681,1.726,1.726,0,0,1-1.634,1.748,1.279,1.279,0,0,0-1.083.632m-7.921-4.84c-.554,0-1.128,0-1.7,0a.263.263,0,0,0-.166.067c-.4.394-.8.793-1.118,1.113l.386,1.432,2.6-2.615m6.972,2.292-2.546,2.548c.465,0,1.005,0,1.546,0a.438.438,0,0,0,.272-.085c.4-.374.8-.762,1.111-1.065l-.382-1.394M18.75,165.9a.906.906,0,1,0-.9.921.919.919,0,0,0,.9-.921m17.828-7.55a10.232,10.232,0,0,1-1.268-.01,1.053,1.053,0,0,0-1.071.534l1.421.393.918-.917m-15.157,4.317-1.375-.378-.925.9a9.091,9.091,0,0,1,1.173.01,1.087,1.087,0,0,0,1.126-.534m18.494-3.108a.6.6,0,1,0-.588-.611.607.607,0,0,0,.588.611m-18.737.606a.6.6,0,1,0,.6.6.606.606,0,0,0-.6-.6m16.332,4.849a.6.6,0,1,0-.6.6.606.606,0,0,0,.6-.6m-3.629-4.273a.605.605,0,1,0,.625-.575.607.607,0,0,0-.625.575" transform="translate(-12.105 -141.406)" fill="#030201"/><path d="M12.733,221.173l.377.352a1.248,1.248,0,0,1,1.9.4.609.609,0,0,0,.928.1.6.6,0,0,1,.915.138c.135.244.184.458-.138.659a2.074,2.074,0,0,0-.873,2.44,2.118,2.118,0,1,0,3.819-1.77c-.077-.125-.166-.243-.283-.411h1.049c.983,0,1.967,0,2.95,0A1.648,1.648,0,0,0,25.04,221.9a.96.96,0,0,1,1.575-.435,5.821,5.821,0,0,0,1.069.406,1.145,1.145,0,0,1,.535.321,1.775,1.775,0,0,0,1.638.889c1.626-.012,3.252,0,4.878,0h.447a1.874,1.874,0,0,0,.444,1.87,1.754,1.754,0,0,0,1.36.548c1.165-.035,1.831-.975,1.687-2.418.152,0,.3-.012.45,0a.943.943,0,0,0,.8-.33,1.2,1.2,0,0,1,1.953.061.908.908,0,0,0,.589.255c1.979.017,3.958.008,5.937.007q0,3.105,0,6.21l-.606-.7.413-.482a10.573,10.573,0,0,0-.808-.808A1.342,1.342,0,0,0,46.023,227a1.126,1.126,0,0,1-1.271-.232,2.984,2.984,0,0,0-.345-.231,1.618,1.618,0,0,0-1.653-.094c-.306.148-.6.32-.913.451a2.014,2.014,0,0,0-1.363,1.616.955.955,0,0,1-.144-.483,2.01,2.01,0,0,0-2.958-1.922l-1.793.894c-.041-.074-.073-.127-.1-.182a2.3,2.3,0,0,0-3.635-.719c-.376.333-.7.72-1.068,1.067a.922.922,0,0,1-.394.226,4.811,4.811,0,0,0-2.254.779.253.253,0,0,1-.232.007,3.146,3.146,0,0,0-2.633-.25,2.277,2.277,0,0,0-1.229-1.23,2.258,2.258,0,0,0-3.092.6.658.658,0,0,1-.914.14,1.831,1.831,0,0,0-2.529.555c-.271.357-.541.716-.818,1.081-1.15-1.566-2.991-1.6-4.359.24l.394.488-.6.917q0-4.312,0-8.625l.613-.913m15.72,6.134a1.814,1.814,0,1,0-1.82-1.828,1.826,1.826,0,0,0,1.82,1.828" transform="translate(-12.117 -200.076)" fill="#b88a5c"/><path d="M48.393,89.172V92.2q-3.818,0-7.635,0L12.1,92.2V89.172h11.91a1.134,1.134,0,0,1-1.114.6A3,3,0,0,0,20.2,91.145L21,92a1.851,1.851,0,0,0,.207-.193,2.182,2.182,0,0,1,1.9-.847,2.248,2.248,0,0,0,2.123-1.5c.045-.1.093-.2.176-.384a2.474,2.474,0,0,0,2.427,1.931,1.391,1.391,0,0,1,.716.367,4.712,4.712,0,0,1,.56.634l.929-.85a3.132,3.132,0,0,0-2.443-1.4.874.874,0,0,1-.825-.591Z" transform="translate(-12.104 -81.308)" fill="#d98f64"/><path d="M48.4,135.607H46.271c.375-.446.415-.766.144-1.035a.6.6,0,0,0-.85,0c-.272.27-.232.594.134,1.023H43.886c.093-.171.258-.342.263-.518a.84.84,0,0,0-.233-.553.558.558,0,0,0-.807.087c-.237.281-.182.6.187.973H41.466c.087-.151.246-.311.262-.485a.816.816,0,0,0-.184-.538.563.563,0,0,0-.814.006c-.281.271-.24.614.134,1.024H39.017c.368-.414.409-.751.132-1.022a.6.6,0,0,0-.85.008c-.273.277-.225.626.162,1h-1.83a1.452,1.452,0,0,0,.257-.509.788.788,0,0,0-.209-.527.562.562,0,0,0-.812.044c-.259.276-.21.61.161,1H34.237a3.114,3.114,0,0,0,.236-.645.594.594,0,0,0-1.009-.371c-.275.27-.234.6.13,1.019H31.749c.376-.408.417-.754.134-1.025a.6.6,0,0,0-.85.016c-.267.276-.218.62.162,1H29.372a1.489,1.489,0,0,0,.255-.518.785.785,0,0,0-.214-.525.562.562,0,0,0-.812.052c-.254.275-.205.6.161,1H26.918c.373-.428.406-.782.1-1.044a.6.6,0,0,0-.848.057c-.246.281-.191.611.189.976H24.528a1.439,1.439,0,0,0,.258-.506.791.791,0,0,0-.207-.528.562.562,0,0,0-.812.041c-.262.276-.213.613.161,1H22.134a3.1,3.1,0,0,0,.236-.642.593.593,0,0,0-1.007-.375c-.277.271-.236.608.132,1.022H19.648c.374-.411.415-.754.134-1.024a.6.6,0,0,0-.85.013c-.269.277-.221.622.186,1.026H17.256a1.6,1.6,0,0,0,.269-.538.786.786,0,0,0-.212-.526.562.562,0,0,0-.812.049c-.256.276-.207.605.161,1H14.819c.36-.424.4-.746.128-1.016a.6.6,0,0,0-.85,0c-.271.269-.231.591.145,1.035H12.113V131.97h2.128c-.375.443-.415.766-.144,1.035a.6.6,0,0,0,.822.025c.3-.263.267-.6-.113-1.057h1.873c-.388.408-.437.742-.177,1.018a.561.561,0,0,0,.812.044.789.789,0,0,0,.209-.527,1.446,1.446,0,0,0-.257-.507H19.1c-.379.365-.434.695-.187.976a.6.6,0,0,0,.848.057c.3-.263.27-.612-.1-1.042H21.5c-.368.393-.416.723-.16,1a.562.562,0,0,0,.812.048.788.788,0,0,0,.211-.526,1.592,1.592,0,0,0-.269-.537h1.866c-.411.4-.459.751-.187,1.028a.6.6,0,0,0,.822.033c.306-.263.273-.621-.1-1.046h1.845c-.365.4-.413.723-.16,1a.562.562,0,0,0,.812.052.786.786,0,0,0,.214-.525,1.48,1.48,0,0,0-.254-.516h1.823c-.382.38-.43.725-.161,1a.6.6,0,0,0,.85.012c.28-.271.24-.611-.132-1.024H31.18c-.372.412-.413.754-.133,1.024a.563.563,0,0,0,.814.006.815.815,0,0,0,.184-.538c-.015-.173-.174-.333-.273-.506h1.864c-.4.4-.449.747-.182,1.023a.6.6,0,0,0,.85.017c.283-.271.242-.616-.133-1.025h1.846c-.367.413-.407.75-.13,1.021a.594.594,0,0,0,1.007-.375,3.257,3.257,0,0,0-.243-.661h1.822c-.387.4-.442.712-.205.993a.557.557,0,0,0,.807.088.84.84,0,0,0,.234-.552c0-.176-.169-.347-.262-.518h1.812c-.366.425-.406.753-.133,1.023a.594.594,0,0,0,1.009-.37,3.112,3.112,0,0,0-.235-.645h1.791c-.372.388-.421.724-.16,1a.561.561,0,0,0,.812.042.791.791,0,0,0,.207-.528c-.013-.18-.172-.35-.268-.524H45.7c-.363.434-.4.753-.133,1.022a.6.6,0,0,0,.85,0c.271-.269.232-.591-.143-1.035H48.4v3.637m-1.211-1.214a.6.6,0,1,0-.592-.607.607.607,0,0,0,.592.607m-1.8-.6a.6.6,0,1,0-.6.6.605.605,0,0,0,.6-.6m-7.883.6a.6.6,0,1,0-.586-.613.607.607,0,0,0,.586.613m5.463-.619a.6.6,0,1,0-.58.619.606.606,0,0,0,.58-.619m-7.872.619a.6.6,0,1,0-.6-.6.606.606,0,0,0,.6.6m-2.41,0a.6.6,0,1,0-.609-.59.606.606,0,0,0,.609.59m-1.821-.6a.6.6,0,1,0-.6.6.605.605,0,0,0,.6-.6m-2.421,0a.6.6,0,1,0-.6.6.605.605,0,0,0,.6-.6m-2.421.016a.6.6,0,1,0-.611.588.606.606,0,0,0,.611-.588m-10.288-.621a.6.6,0,1,0,.606.593.6.6,0,0,0-.606-.593m7.257,1.209a.6.6,0,1,0-.6-.6.606.606,0,0,0,.6.6m-2.41,0a.6.6,0,1,0-.609-.59.606.606,0,0,0,.609.59m-1.821-.614a.6.6,0,1,0-.585.614.605.605,0,0,0,.585-.614m-5.431-.595a.6.6,0,1,0,.59.609.605.605,0,0,0-.59-.609m26.617,1.209a.6.6,0,1,0-.609-.59.606.606,0,0,0,.609.59" transform="translate(-12.111 -119.87)" fill="#aa683c"/><path d="M28.526,13.6a6.238,6.238,0,0,1,2.071-.956.621.621,0,0,1,.8.309c.168.346.01.592-.268.81a1.87,1.87,0,0,0-.66,2.121.447.447,0,0,0,.511.357q6.464-.015,12.927-.007h4.491v1.206c-.164,0-.327,0-.491,0H19.29q-3.591,0-7.182,0V16.232h.408c2.255,0,4.51-.006,6.765.008a.41.41,0,0,0,.458-.326,1.888,1.888,0,0,0-.651-2.158c-.339-.273-.427-.549-.251-.843a.578.578,0,0,1,.747-.272c.688.255,1.366.534,2.063.809.037-.244.081-.564.134-.882a.6.6,0,0,1,.853-.513A3.7,3.7,0,0,1,24.8,13.988c.05.1.095.2.144.3,0,.009.021.012.052.027a5.119,5.119,0,0,1,2.679-2.134c.19-.066.385-.117.58-.166a.591.591,0,0,1,.692.257.6.6,0,0,1-.083.763c-.134.165-.253.341-.378.513l-.015.1.061-.058m-4.452,2.617a3.272,3.272,0,0,0-1.207-2.667c-.041.279-.086.509-.106.742a1.061,1.061,0,0,0,.019.5c.22.475.481.931.741,1.424Zm1.457,0h1.325l.111-2.3a3.89,3.89,0,0,0-1.436,2.3m-3.361,0a3.974,3.974,0,0,0-1.1-1.527l-.091,1.527Zm5.791-.008h1.277l-.086-1.462-.092-.065-1.1,1.527" transform="translate(-12.107 -11.995)" fill="#010101"/><path d="M48.392,121.206H46.264c.375.445.415.766.143,1.035a.6.6,0,0,1-.85,0c-.27-.269-.23-.588.133-1.022H43.875c.1.174.255.343.268.524a.791.791,0,0,1-.207.528.562.562,0,0,1-.812-.041c-.261-.276-.212-.612.16-1H41.493a3.107,3.107,0,0,1,.235.645.594.594,0,0,1-1.009.37c-.274-.27-.234-.6.133-1.023H39.039c.093.171.258.342.262.518a.84.84,0,0,1-.234.552.557.557,0,0,1-.807-.088c-.236-.281-.182-.6.205-.993H36.643a3.256,3.256,0,0,1,.243.661.593.593,0,0,1-1.007.375c-.277-.27-.236-.607.13-1.021H34.164c.375.409.416.754.133,1.025a.6.6,0,0,1-.85-.017c-.267-.276-.218-.618.182-1.023H31.765c.1.173.258.333.273.506a.816.816,0,0,1-.184.538.563.563,0,0,1-.814-.006c-.28-.271-.24-.612.133-1.024H29.325c.372.413.413.753.132,1.024a.6.6,0,0,1-.85-.012c-.269-.276-.221-.622.161-1H26.945a1.482,1.482,0,0,1,.254.517.785.785,0,0,1-.214.525.562.562,0,0,1-.812-.052c-.254-.275-.205-.6.16-1H24.489c.375.425.408.783.1,1.046a.6.6,0,0,1-.822-.033c-.273-.277-.224-.625.187-1.028H22.089a1.593,1.593,0,0,1,.269.537.787.787,0,0,1-.211.526.561.561,0,0,1-.812-.048c-.256-.276-.208-.606.16-1H19.652c.37.431.4.78.1,1.042a.6.6,0,0,1-.848-.057c-.246-.281-.191-.61.188-.976H17.26a1.447,1.447,0,0,1,.257.507.789.789,0,0,1-.209.527.561.561,0,0,1-.812-.044c-.259-.276-.211-.61.177-1.018H14.8c.38.456.412.795.113,1.057a.6.6,0,0,1-.823-.025c-.271-.269-.232-.592.144-1.035H12.106V120l28.652,0q3.818,0,7.636,0v1.2" transform="translate(-12.104 -109.106)" fill="#020101"/><path d="M48.393,79.2H26.775a.874.874,0,0,0,.825.591,3.132,3.132,0,0,1,2.443,1.4l-.929.85a4.712,4.712,0,0,0-.56-.634,1.391,1.391,0,0,0-.716-.367,2.474,2.474,0,0,1-2.427-1.931c-.083.181-.131.282-.176.384A2.248,2.248,0,0,1,23.112,81a2.182,2.182,0,0,0-1.9.847,1.85,1.85,0,0,1-.207.193l-.8-.859A3,3,0,0,1,22.9,79.807a1.134,1.134,0,0,0,1.114-.6H12.1q0-.6,0-1.2c.164,0,.328,0,.491,0H39.774q4.309,0,8.618,0,0,.6,0,1.2" transform="translate(-12.104 -71.341)" fill="#010000"/><path d="M12.094,328.261l.011-3.569.586.687-.374.523a2.355,2.355,0,0,0,2.68.219,2.087,2.087,0,0,0,2.166,1.217,5.335,5.335,0,0,0,.943-.253c.794-.236,1.574-.539,2.383-.7.947-.188,1.918-.26,2.88-.366a.432.432,0,0,1,.336.129,3.078,3.078,0,0,0,3.143,1.271,3.748,3.748,0,0,0,2.26-.927.4.4,0,0,1,.264-.08c.276,0,.553.011.829.027a1.326,1.326,0,0,1,.474.06c.5.233.966.526,1.47.741a1.679,1.679,0,0,0,2.17-.594c.207-.27.4-.55.62-.81.131-.155.273-.29.5-.069a15.565,15.565,0,0,0,1.38,1.275,2.976,2.976,0,0,0,3.62,0,.664.664,0,0,1,.5-.1,2.343,2.343,0,0,0,2.367-.605c.207-.2.4-.414.624-.65a1.733,1.733,0,0,0,1.385.747c.693,0,1.386.011,2.078,0a3.816,3.816,0,0,0,.645-.125l-.239-.624.59-.6,0,3.183c-.113,0-.227-.007-.34-.007H12.434c-.113,0-.227,0-.34.007" transform="translate(-12.094 -293.154)" fill="#7f7f7f"/><path d="M48.4,67.176q-4.309,0-8.618,0H12.6c-.164,0-.327,0-.491,0V65.957q3.591,0,7.182,0H47.9c.164,0,.327,0,.491,0q0,.61,0,1.219" transform="translate(-12.107 -60.515)" fill="#699849"/><path d="M12.094,360.01c.113,0,.227-.007.34-.007h35.61c.113,0,.227,0,.34.007v1.184H12.094Z" transform="translate(-12.094 -324.904)"/><path d="M311.074,184.8h-3.983l1.931-1.922L310.9,181l-.843-.8-4.6,4.609-1.207-.772c.04-.046.105-.129.179-.2,1.22-1.222,2.437-2.447,3.669-3.656a.836.836,0,0,1,.516-.216c.819-.024,1.638-.012,2.457-.013V184.8" transform="translate(-274.786 -163.012)" fill="#d88f64"/><path d="M312.184,288.109l-.59.6c-.13-.424-.43-.495-.837-.464-.5.039-1.008.014-1.512.008a.767.767,0,0,1-.724-.891,2.279,2.279,0,0,0-1.734-2.659,8.409,8.409,0,0,0-1.3-.071,2.576,2.576,0,0,1,.339-.375,2.783,2.783,0,0,1,.469-.242c1.241-.595.809-.623,1.934.107a1.673,1.673,0,0,0,1.681.2.5.5,0,0,1,.645.133c.181.209.35.428.526.645l.5-.416.606.7q0,1.361,0,2.721" transform="translate(-275.898 -256.186)" fill="#67727e"/><path d="M12.714,303.179l-.586-.687q0-.451-.009-.9l.6-.917.407.324.107.087a7.852,7.852,0,0,1,.574-.695,1.5,1.5,0,0,1,.535-.33,1,1,0,0,1,1.185.422c.3.488.311.663-.067,1.112a3.336,3.336,0,0,0-.325.462,1.423,1.423,0,0,1-2.049.759l-.37.365" transform="translate(-12.116 -270.954)" fill="#4e5660"/><path d="M12.72,184.123l-.613.913q0-2.535,0-5.069h2.759l-2.65,2.637.693.567-.6.426.411.525" transform="translate(-12.104 -163.026)" fill="#d88f64"/><path d="M265.1,180.111h2.184c-.079.1-.132.172-.2.236-1.459,1.461-2.916,2.924-4.387,4.373a.861.861,0,0,1-.517.211c-.5.028-1,.01-1.595.01.276-.279.5-.506.723-.731.507-.508,1.011-1.018,1.525-1.52a.576.576,0,0,1,.31-.173c1.547-.134,2.17-.884,1.952-2.407" transform="translate(-235.53 -163.155)" fill="#d88e64"/><path d="M166.948,183.9l-1.317-.412c.028-.032.085-.108.152-.174,1.05-1.051,2.1-2.107,3.159-3.145a.864.864,0,0,1,.517-.213c.5-.028,1-.01,1.443-.01l-3.953,3.954" transform="translate(-150.146 -163.005)" fill="#d88f64"/><path d="M123.826,179.962c-1.03,1.027-1.987,1.986-2.953,2.937a.446.446,0,0,1-.271.085c-.226.012-.454-.006-.679.008a1.487,1.487,0,0,0-1.433.988c-.3.891-.319.84-1.365.811a2.047,2.047,0,0,1,.156-.2q2.214-2.218,4.437-4.427a.744.744,0,0,1,.452-.189c.514-.023,1.03-.009,1.656-.009" transform="translate(-106.532 -163.017)" fill="#d88e64"/><path d="M27.238,182.616c.7-.7,1.466-1.376,2.125-2.143a2.016,2.016,0,0,1,1.99-.807,5.419,5.419,0,0,0,.766.005c-.371.366-.674.661-.972.958-.731.729-1.463,1.456-2.187,2.192a.362.362,0,0,1-.449.106c-.4-.136-.818-.205-1.273-.312" transform="translate(-25.711 -162.727)" fill="#d88f64"/><path d="M62.7,179.953a1.369,1.369,0,0,1-1.11.634,1.726,1.726,0,0,0-1.626,1.758.8.8,0,0,1-.275.653c-.435.417-.85.857-1.236,1.25l-1.2-.717c.04-.045.1-.121.167-.189,1.06-1.061,2.116-2.125,3.186-3.174a.805.805,0,0,1,.483-.206c.511-.026,1.025-.01,1.607-.01" transform="translate(-52.699 -163.009)" fill="#d78e64"/><path d="M224.928,187.785a1.28,1.28,0,0,1,1.083-.632,1.726,1.726,0,0,0,1.634-1.748.842.842,0,0,1,.3-.681c.5-.478.978-.975,1.45-1.449l.407,1.512c-.919.92-1.9,1.908-2.9,2.889a.417.417,0,0,1-.263.1c-.551.009-1.1,0-1.711,0" transform="translate(-203.462 -165.999)" fill="#d78e64"/><path d="M119.779,180.009l-2.6,2.615-.386-1.432c.32-.32.716-.719,1.118-1.113a.263.263,0,0,1,.166-.067c.574,0,1.147,0,1.7,0" transform="translate(-106.234 -163.063)" fill="#d88e64"/><path d="M192.82,202.733l.382,1.394c-.314.3-.707.69-1.111,1.065a.437.437,0,0,1-.272.085c-.54.008-1.08,0-1.546,0l2.546-2.548" transform="translate(-172.303 -183.496)" fill="#d88e64"/><path d="M61.822,246.9a.906.906,0,1,1-.93-.892.923.923,0,0,1,.93.892" transform="translate(-55.177 -222.404)" fill="#66717c"/><path d="M233.9,179.812l-.918.917-1.421-.393a1.053,1.053,0,0,1,1.07-.534,10.229,10.229,0,0,0,1.268.01" transform="translate(-209.423 -162.867)" fill="#d78e64"/><path d="M83.964,219.432a1.087,1.087,0,0,1-1.126.534,9.091,9.091,0,0,0-1.173-.01l.925-.9,1.375.378" transform="translate(-74.647 -198.171)" fill="#d78e64"/><path d="M282.594,181.21a.6.6,0,1,1,.621-.579.606.606,0,0,1-.621.579" transform="translate(-254.784 -163.055)" fill="#636d79"/><path d="M96.612,198a.6.6,0,1,1-.611.589.605.605,0,0,1,.611-.589" transform="translate(-87.538 -179.242)" fill="#636d79"/><path d="M253.207,240.613a.6.6,0,1,1-.587-.613.606.606,0,0,1,.587.613" transform="translate(-227.802 -217.004)" fill="#636d79"/><path d="M228,198.577a.605.605,0,1,1,.565.633.607.607,0,0,1-.565-.633" transform="translate(-206.225 -179.242)" fill="#636d79"/><path d="M14.535,270.771l.37-.365a1.423,1.423,0,0,0,2.049-.759,3.329,3.329,0,0,1,.325-.462c.378-.45.368-.624.067-1.112a1,1,0,0,0-1.185-.422,1.5,1.5,0,0,0-.535.33,7.838,7.838,0,0,0-.574.695l-.107-.087-.407-.324-.394-.488c1.368-1.837,3.209-1.806,4.359-.24.276-.366.546-.724.818-1.081a1.831,1.831,0,0,1,2.529-.555.658.658,0,0,0,.914-.14,2.258,2.258,0,0,1,3.092-.6,2.277,2.277,0,0,1,1.229,1.23,3.146,3.146,0,0,1,2.633.25.253.253,0,0,0,.232-.007,4.811,4.811,0,0,1,2.254-.779.922.922,0,0,0,.394-.226c.364-.348.692-.734,1.068-1.067a2.3,2.3,0,0,1,3.635.719c.028.055.06.108.1.182l1.793-.894a2.01,2.01,0,0,1,2.958,1.922.954.954,0,0,0,.144.483,2.014,2.014,0,0,1,1.363-1.616c.312-.131.608-.3.913-.451a1.618,1.618,0,0,1,1.653.094,2.988,2.988,0,0,1,.345.231,1.126,1.126,0,0,0,1.271.232,1.342,1.342,0,0,1,1.378.289,10.573,10.573,0,0,1,.808.808l-.413.482-.5.416c-.176-.217-.345-.436-.526-.645a.5.5,0,0,0-.645-.133,1.673,1.673,0,0,1-1.681-.2c-1.124-.729-.693-.7-1.934-.107a2.776,2.776,0,0,0-.469.242,2.567,2.567,0,0,0-.339.375,8.425,8.425,0,0,1,1.3.071,2.279,2.279,0,0,1,1.734,2.659.767.767,0,0,0,.724.891c.5.006,1.011.031,1.512-.008.406-.031.706.039.837.464l.239.624a3.823,3.823,0,0,1-.645.125c-.692.016-1.385.009-2.078,0a1.732,1.732,0,0,1-1.385-.747c-.226.236-.416.452-.624.65a2.343,2.343,0,0,1-2.367.605.664.664,0,0,0-.5.1,2.976,2.976,0,0,1-3.62,0,15.574,15.574,0,0,1-1.38-1.275c-.224-.221-.366-.087-.5.069-.219.26-.413.54-.62.81a1.679,1.679,0,0,1-2.17.593c-.5-.214-.973-.507-1.47-.741a1.328,1.328,0,0,0-.474-.06c-.276-.016-.553-.028-.829-.027a.4.4,0,0,0-.264.08,3.749,3.749,0,0,1-2.26.927,3.077,3.077,0,0,1-3.143-1.271.432.432,0,0,0-.337-.129c-.962.106-1.933.178-2.88.366-.809.161-1.589.464-2.383.7a5.332,5.332,0,0,1-.943.253,2.087,2.087,0,0,1-2.166-1.217,2.355,2.355,0,0,1-2.68-.219l.373-.524m4.327.764c.077-.02.248-.059.415-.11.936-.283,1.859-.631,2.812-.836.905-.195,1.842-.246,2.766-.351.708-.081.977-.42.786-1.091a2.121,2.121,0,0,1,.207-1.774.58.58,0,0,0-.078-.822,4.355,4.355,0,0,0-1.225-.535c-.353-.1-.565.232-.766.463a1.947,1.947,0,0,1-2.58.445.573.573,0,0,0-.811.147c-.794,1.04-1.6,2.076-2.349,3.145a.866.866,0,0,0,.825,1.321m15.225-.2c.682.38.809.356,1.245-.219.144-.19.284-.384.43-.574a1.7,1.7,0,0,1,2.244-.524c.463.233.639.2.908-.229q.888-1.4,1.76-2.818c.368-.6.355-.692-.068-1.238a.5.5,0,0,0-.692-.172c-.752.382-1.511.752-2.262,1.137a.5.5,0,0,0-.212.238,4.979,4.979,0,0,1-2.148,2.3.44.44,0,0,0-.182.274,2.773,2.773,0,0,1-1.023,1.826m-5.878-3.979c-1.136.068-1.591.617-1.338,1.69a1.938,1.938,0,0,1-.141,1.283c-.233.515-.245.569.2.91a1.438,1.438,0,0,0,.734.344,7.384,7.384,0,0,0,1.592-.128,1.612,1.612,0,0,0,1.308-1.26,1.663,1.663,0,0,0-.55-1.768,5.652,5.652,0,0,0-.855-.678,6.68,6.68,0,0,0-.954-.394m2.585.108a3.127,3.127,0,0,1,.953,3.142,9.011,9.011,0,0,0,.986-.006,1.324,1.324,0,0,0,1.16-1.251c.017-.339.016-.681,0-1.02a1.3,1.3,0,0,0-1.108-1.253,4.625,4.625,0,0,0-1.991.389m10.743.428c-.493.785-.945,1.537-1.432,2.265-.267.4-.592.761-.91,1.164a1.806,1.806,0,0,0,3.011-.906c.055-.219.094-.442.131-.665a1.842,1.842,0,0,0-.8-1.858m1.737,3.258.07.117a2.327,2.327,0,0,0,.744-.255,8.054,8.054,0,0,0,1.1-1.083,1.051,1.051,0,0,0-.088-1.382,1.112,1.112,0,0,0-1.346-.211.453.453,0,0,0-.246.49,12.263,12.263,0,0,1-.039,1.451,6.541,6.541,0,0,1-.191.872M35.068,267.9a12.229,12.229,0,0,0,1.053-1.013A1.043,1.043,0,0,0,36,265.5a1.063,1.063,0,0,0-1.382-.143,9.091,9.091,0,0,0-.826.8,2.659,2.659,0,0,1,1.278,1.742" transform="translate(-13.937 -238.546)" fill="#020202"/><path d="M157.839,249.648a1.814,1.814,0,1,1,1.808-1.8,1.825,1.825,0,0,1-1.808,1.8m-.009-1.21a.6.6,0,1,0-.6-.6.605.605,0,0,0,.6.6" transform="translate(-141.503 -222.417)" fill="#020201"/><path d="M354.6,145.209a.6.6,0,1,1,.616-.583.605.605,0,0,1-.616.583" transform="translate(-319.525 -130.686)" fill="#080503"/><path d="M331.215,144.613a.6.6,0,1,1-.592-.607.606.606,0,0,1,.592.607" transform="translate(-297.942 -130.691)" fill="#080503"/><path d="M258.6,145.209a.6.6,0,1,1,.622-.578.606.606,0,0,1-.622.578" transform="translate(-233.206 -130.686)" fill="#080503"/><path d="M307.212,144.6a.6.6,0,1,1-.609-.59.607.607,0,0,1,.609.59" transform="translate(-276.36 -130.692)" fill="#080503"/><path d="M234.608,145.21a.6.6,0,1,1,.61-.589.6.6,0,0,1-.61.589" transform="translate(-211.628 -130.687)" fill="#080503"/><path d="M210.616,145.213a.6.6,0,1,1,.6-.6.605.605,0,0,1-.6.6" transform="translate(-190.046 -130.69)" fill="#080503"/><path d="M187.215,144.611a.6.6,0,1,1-.594-.605.606.606,0,0,1,.594.605" transform="translate(-168.466 -130.692)" fill="#080503"/><path d="M163.215,144.611a.6.6,0,1,1-.594-.605.606.606,0,0,1,.594.605" transform="translate(-146.887 -130.692)" fill="#080503"/><path d="M139.212,144.623a.6.6,0,1,1-.578-.621.606.606,0,0,1,.578.621" transform="translate(-125.305 -130.688)" fill="#080503"/><path d="M42.612,144.007a.6.6,0,1,1-.6.6.605.605,0,0,1,.6-.6" transform="translate(-38.992 -130.693)" fill="#080503"/><path d="M114.608,145.21a.6.6,0,1,1,.61-.589.6.6,0,0,1-.61.589" transform="translate(-103.731 -130.687)" fill="#080503"/><path d="M90.616,145.213a.6.6,0,1,1,.6-.6.605.605,0,0,1-.6.6" transform="translate(-82.149 -130.69)" fill="#080503"/><path d="M67.212,144.6a.6.6,0,1,1-.6-.595.606.606,0,0,1,.6.595" transform="translate(-60.566 -130.693)" fill="#080503"/><path d="M18.624,144.005a.6.6,0,1,1-.618.581.605.605,0,0,1,.618-.581" transform="translate(-17.409 -130.691)" fill="#080503"/><path d="M282.616,145.213a.6.6,0,1,1,.6-.6.605.605,0,0,1-.6.6" transform="translate(-254.785 -130.69)" fill="#080503"/><path d="M118.864,30.062h-.553c-.26-.492-.521-.948-.741-1.424a1.061,1.061,0,0,1-.019-.5c.02-.232.065-.463.106-.742a3.271,3.271,0,0,1,1.207,2.667" transform="translate(-106.896 -25.842)" fill="#77ae53"/><path d="M145.2,33.387a3.89,3.89,0,0,1,1.436-2.3l-.111,2.3Z" transform="translate(-131.772 -29.165)" fill="#76ad52"/><path d="M101.235,40.2h-1.193l.091-1.527a3.974,3.974,0,0,1,1.1,1.527" transform="translate(-91.172 -35.986)" fill="#74aa51"/><path d="M169.283,40.124l1.1-1.527.092.065c.028.478.056.957.086,1.462Z" transform="translate(-153.429 -35.914)" fill="#74aa51"/><path d="M174.343,27.488l-.061.058.015-.1.046.045" transform="translate(-157.924 -25.885)" fill="#fefefe"/><path d="M52.242,289.719a.866.866,0,0,1-.825-1.321c.753-1.069,1.555-2.105,2.349-3.145a.573.573,0,0,1,.811-.147,1.947,1.947,0,0,0,2.58-.445c.2-.231.413-.56.766-.463a4.355,4.355,0,0,1,1.225.535.58.58,0,0,1,.078.822,2.121,2.121,0,0,0-.207,1.774c.19.671-.078,1.01-.786,1.091-.924.105-1.86.157-2.766.351-.953.205-1.875.553-2.812.836-.167.051-.337.09-.415.11" transform="translate(-47.317 -256.73)" fill="#67727e"/><path d="M211.883,285a2.773,2.773,0,0,0,1.023-1.826.441.441,0,0,1,.182-.274,4.979,4.979,0,0,0,2.148-2.3.5.5,0,0,1,.212-.237c.751-.385,1.509-.755,2.262-1.137a.5.5,0,0,1,.693.172c.423.546.436.639.068,1.238q-.869,1.415-1.76,2.818c-.269.425-.444.462-.908.229a1.7,1.7,0,0,0-2.244.524c-.146.189-.286.383-.43.574-.437.575-.563.6-1.245.219" transform="translate(-191.733 -252.211)" fill="#3d444c"/><path d="M138.991,297.681a6.682,6.682,0,0,1,.954.394,5.654,5.654,0,0,1,.855.678,1.663,1.663,0,0,1,.55,1.768,1.612,1.612,0,0,1-1.308,1.26,7.383,7.383,0,0,1-1.592.128,1.438,1.438,0,0,1-.734-.344c-.449-.342-.437-.4-.2-.91a1.937,1.937,0,0,0,.141-1.283c-.252-1.074.2-1.622,1.338-1.691" transform="translate(-124.719 -268.867)" fill="#4e5660"/><path d="M179.224,295.2a4.623,4.623,0,0,1,1.99-.389,1.3,1.3,0,0,1,1.108,1.253c.016.34.017.681,0,1.02a1.324,1.324,0,0,1-1.16,1.251,9,9,0,0,1-.986.006,3.127,3.127,0,0,0-.953-3.142" transform="translate(-162.368 -266.275)" fill="#67717d"/><path d="M264.865,303a1.842,1.842,0,0,1,.8,1.858c-.037.223-.076.446-.131.665a1.806,1.806,0,0,1-3.011.906c.318-.4.643-.764.91-1.164.486-.729.938-1.48,1.432-2.265" transform="translate(-237.266 -273.649)" fill="#66717c"/><path d="M302.962,309.006a6.545,6.545,0,0,0,.191-.872,12.273,12.273,0,0,0,.039-1.451.453.453,0,0,1,.246-.49,1.112,1.112,0,0,1,1.346.211,1.051,1.051,0,0,1,.088,1.382,8.04,8.04,0,0,1-1.1,1.083,2.324,2.324,0,0,1-.744.255l-.07-.117" transform="translate(-273.626 -276.398)" fill="#4e555f"/><path d="M210.2,278.674a2.659,2.659,0,0,0-1.278-1.742,9.086,9.086,0,0,1,.826-.8,1.063,1.063,0,0,1,1.382.143,1.042,1.042,0,0,1,.124,1.381,12.224,12.224,0,0,1-1.053,1.013" transform="translate(-189.072 -249.322)" fill="#4e555f"/><path d="M168.608,259.208a.6.6,0,1,1,.607-.592.605.605,0,0,1-.607.592" transform="translate(-152.282 -233.187)" fill="#636d79"/></g></g></g></svg>