<svg xmlns="http://www.w3.org/2000/svg" xmlns:xlink="http://www.w3.org/1999/xlink" width="108.82" height="108.82" viewBox="0 0 108.82 108.82"><defs><filter id="a" x="0" y="0" width="108.82" height="108.82" filterUnits="userSpaceOnUse"><feOffset dy="6" input="SourceAlpha"/><feGaussianBlur stdDeviation="4.5" result="b"/><feFlood flood-opacity="0.161"/><feComposite operator="in" in2="b"/><feComposite in="SourceGraphic"/></filter></defs><g transform="translate(-801.68 -780.283)"><g transform="matrix(1, 0, 0, 1, 801.68, 780.28)" filter="url(#a)"><g transform="translate(13.5 7.5)" fill="#fff"><path d="M 40.91015625 71.8203125 C 23.86623573303223 71.8203125 9.999996185302734 57.95407485961914 9.999996185302734 40.91015625 C 9.999996185302734 23.86623573303223 23.86623573303223 9.999996185302734 40.91015625 9.999996185302734 C 57.95407485961914 9.999996185302734 71.8203125 23.86623573303223 71.8203125 40.91015625 C 71.8203125 57.95407485961914 57.95407485961914 71.8203125 40.91015625 71.8203125 Z" stroke="none"/><path d="M 40.91015625 20 C 29.3802490234375 20 20 29.3802490234375 20 40.91015625 C 20 52.4400634765625 29.3802490234375 61.8203125 40.91015625 61.8203125 C 52.4400634765625 61.8203125 61.8203125 52.4400634765625 61.8203125 40.91015625 C 61.8203125 29.3802490234375 52.4400634765625 20 40.91015625 20 M 40.91015625 0 C 63.50421905517578 0 81.8203125 18.31609344482422 81.8203125 40.91015625 C 81.8203125 63.50421905517578 63.50421905517578 81.8203125 40.91015625 81.8203125 C 18.31609344482422 81.8203125 0 63.50421905517578 0 40.91015625 C 0 18.31609344482422 18.31609344482422 0 40.91015625 0 Z" stroke="none" fill="#fff"/></g></g><circle cx="34" cy="34" r="34" transform="translate(822.333 795)" fill="#ced371"/><g transform="translate(831.864 804.531)"><path d="M24.756,0q3.138,3.156,6.277,6.311a.727.727,0,0,1,.247.85.753.753,0,0,1-.794.48c-.966-.005-1.933,0-2.919,0V20.5a19.859,19.859,0,0,1,13.707-4.942c0-.39,0-.765,0-1.14,0-.637-.038-1.277.021-1.908a.922.922,0,0,1,.436-.641c.187-.091.494.033.736.1.108.032.186.167.276.257q2.8,2.776,5.586,5.557a8.643,8.643,0,0,1,.608.757v.287c-.289.311-.567.633-.868.932q-2.689,2.681-5.385,5.355c-.269.268-.532.509-.958.336s-.462-.512-.457-.9c.01-.921,0-1.842,0-2.863-.8.069-1.579.087-2.337.208a13.241,13.241,0,0,0-9.544,6.07,11.9,11.9,0,0,0-1.832,6.184c-.031,1.1,0,2.2-.02,3.3,0,.248.084.336.314.436.827.36,1.648.739,2.442,1.167.591.319.63.545.381,1.178a.83.83,0,0,1-1.151.028,7.953,7.953,0,0,0-3.73-1.382h-.019l-.255-.051a9.467,9.467,0,0,0-10.416,9.35.765.765,0,0,1-.771.687c-.505-.069-.679-.379-.681-.865a10.782,10.782,0,0,1,7.218-10.032.645.645,0,0,0,.525-.771,40.482,40.482,0,0,0-.287-4.993c-.9-4.806-3.866-7.923-8.376-9.632a14.13,14.13,0,0,0-5.072-.841c0,.553,0,1.089,0,1.625a9.965,9.965,0,0,1-.022,1.431.952.952,0,0,1-.442.64c-.187.09-.494-.037-.736-.11-.108-.033-.186-.168-.276-.258Q3.494,22.375.8,19.7c-.278-.277-.534-.577-.8-.866v-.382q2.2-2.214,4.393-4.427c.628-.632,1.266-1.254,1.895-1.885.259-.26.523-.466.923-.3a.775.775,0,0,1,.457.853c-.01.937,0,1.874,0,2.879h.575a19.98,19.98,0,0,1,5.376.671c.583.161.712.336.7.947a.755.755,0,0,1-.928.47A22.035,22.035,0,0,0,7.29,17c-.848,0-1.058-.219-1.059-1.085q0-.791,0-1.582l-.157-.066Q4.527,15.855,2.98,17.442c-.384.4-.761.8-1.141,1.2.491.512.98,1.028,1.475,1.536q1.393,1.431,2.792,2.857l.126-.069c0-.581,0-1.161,0-1.742.006-.676.27-.975.924-.919a36.6,36.6,0,0,1,4.216.46A13.648,13.648,0,0,1,21.2,27.931a1.868,1.868,0,0,0,.171.223V25.235c.007-.764.038-1.529.008-2.291a1.158,1.158,0,0,0-.291-.7,16.809,16.809,0,0,0-4.172-3.155c-.531-.287-.619-.51-.481-1.086.439-.422.665-.483,1.175-.157,1.268.811,2.514,1.656,3.745,2.471V7.64c-.924,0-1.843-.006-2.762,0-.4,0-.761-.042-.937-.482s.086-.686.35-.951Q20.85,3.348,23.691.482c.162-.163.328-.322.492-.482Zm2.81,25.138v3.089c.126-.223.2-.341.261-.461a13.385,13.385,0,0,1,6.9-6.157A19.074,19.074,0,0,1,41.611,20.3c.861-.018,1.094.19,1.1,1.036,0,.545,0,1.089,0,1.634l.15.078q2.082-2.128,4.158-4.262c.044-.045.012-.163.015-.248l-4.323-4.3v1.316c0,1.359-.08,1.381-1.414,1.466a37.073,37.073,0,0,0-4.543.494,16.5,16.5,0,0,0-8.874,4.69,1.029,1.029,0,0,0-.315.595c-.031.778,0,1.558,0,2.337M24.47,1.813a.963.963,0,0,0-.191.119Q22.256,3.962,20.24,6a1.233,1.233,0,0,0-.124.188c.076.01.107.018.138.018h1.433c.966,0,1.138.172,1.138,1.138q0,14.756,0,29.512v.581l1.649-.129,1.639.127V32.212q0-12.484,0-24.967c0-.834.207-1.039,1.044-1.04H28.88c-.126-.141-.184-.213-.248-.278Q26.682,3.961,24.729,2a1.886,1.886,0,0,0-.259-.186" fill="#040403"/><path d="M253.872,334.2l-.58-.768a8.928,8.928,0,0,0-1.545-5.2.852.852,0,0,1,.027-1.194c.576-.208.811-.147,1.132.334a10.592,10.592,0,0,1,1.826,5.561c.036.9.008.933-.765,1.265Z" transform="translate(-219.462 -285.26)" fill="#040404"/><path d="M321.968,366.569a2.328,2.328,0,0,1-.377-2.184.856.856,0,0,1,.646-.36.838.838,0,0,1,.615.47,5.954,5.954,0,0,1,.051,1.562c-.013.178-.236.341-.362.511Z" transform="translate(-280.485 -317.63)" fill="#060606"/><path d="M208.942,307.919a.852.852,0,0,0-.027,1.194,8.928,8.928,0,0,1,1.545,5.2l-2.088-.008c-.063-.55-.106-1.1-.192-1.648a9.911,9.911,0,0,0-4.463-6.85c-.416-.284-.859-.529-1.289-.792a7.953,7.953,0,0,1,3.73,1.382.83.83,0,0,0,1.151-.028l1.633,1.551" transform="translate(-176.631 -266.141)" fill="#98e4f9"/><path d="M259.093,256.269a17.929,17.929,0,0,1,1.526,1.244c.105.1.025.564-.12.708a.847.847,0,0,1-.746.191,4.187,4.187,0,0,1-1.218-.812.874.874,0,0,1-.1-.766c.073-.2.369-.329.662-.566" transform="translate(-225.459 -223.609)" fill="#070707"/><path d="M305.08,304.983c-.234.274-.373.581-.588.648a.856.856,0,0,1-.754-.178,4.15,4.15,0,0,1-.721-1.266.823.823,0,0,1,.246-.73c.175-.134.65-.169.758-.044a14.554,14.554,0,0,1,1.059,1.569" transform="translate(-264.383 -264.678)" fill="#060606"/><path d="M229.757,243.05a11.87,11.87,0,0,1,1.616.7.784.784,0,0,1,.191.742.857.857,0,0,1-.677.441,4.46,4.46,0,0,1-1.458-.524.817.817,0,0,1-.229-.73c.062-.237.353-.414.557-.631" transform="translate(-199.977 -212.075)" fill="#060606"/><path d="M317.567,333.846c-.019.5-.182.754-.541.828a.662.662,0,0,1-.816-.414,7.346,7.346,0,0,1-.364-1.277.655.655,0,0,1,.492-.77.616.616,0,0,1,.811.318,12.452,12.452,0,0,1,.419,1.315" transform="translate(-275.581 -289.836)" fill="#050505"/><path d="M284.014,276.964a2.36,2.36,0,0,1,.523.272,9.2,9.2,0,0,1,.845.9.671.671,0,0,1-.041.95.66.66,0,0,1-.98.017,5.192,5.192,0,0,1-.859-.952.921.921,0,0,1-.04-.743c.081-.193.361-.3.553-.448" transform="translate(-247.284 -241.667)" fill="#060606"/><path d="M136.117,245.5a2.694,2.694,0,0,1-.578-.614.572.572,0,0,1,.274-.778,5.287,5.287,0,0,1,1.38-.489.993.993,0,0,1,.715.4.53.53,0,0,1-.165.795,16.307,16.307,0,0,1-1.626.69" transform="translate(-118.213 -212.565)" fill="#050505"/><path d="M109.666,257.617c.006.59-1.417,1.532-1.95,1.291a.656.656,0,0,1-.286-1.026,5.279,5.279,0,0,1,1.41-.93c.4-.178.821.217.826.665" transform="translate(-93.601 -224.167)" fill="#060606"/><path d="M86.028,278.053a2.927,2.927,0,0,1-.264.536,10.562,10.562,0,0,1-.738.809.714.714,0,1,1-1.057-.955,4.426,4.426,0,0,1,.787-.824.994.994,0,0,1,.774-.123c.206.068.337.364.5.557" transform="translate(-73.078 -242.102)" fill="#060606"/><path d="M54.654,333.226c.1-.324.2-.774.37-1.2a.626.626,0,0,1,.82-.383.659.659,0,0,1,.513.8A6.923,6.923,0,0,1,56,333.676a.664.664,0,0,1-.845.431c-.377-.1-.529-.376-.5-.88" transform="translate(-47.687 -289.346)" fill="#070707"/><path d="M50.8,364.631a6.026,6.026,0,0,1,.042-.779.672.672,0,0,1,.741-.6.658.658,0,0,1,.668.674,9.342,9.342,0,0,1-.027,1.191.684.684,0,0,1-.754.684c-.41-.015-.654-.29-.669-.761-.005-.175,0-.35,0-.412" transform="translate(-44.327 -316.958)" fill="#070707"/><path d="M68.094,303.4a16.94,16.94,0,0,1-1.11,1.591c-.1.117-.55.076-.719-.051a.781.781,0,0,1-.254-.686,5.172,5.172,0,0,1,.752-1.357.788.788,0,0,1,.716-.137c.22.08.366.366.616.64" transform="translate(-57.583 -264.146)" fill="#050505"/><path d="M14.424,116.326c.38-.4.757-.8,1.141-1.2q1.545-1.589,3.094-3.174l.156.066q0,.791,0,1.582c0,.866.211,1.088,1.059,1.085a22.033,22.033,0,0,1,6.1.655.755.755,0,0,0,.928-.47l2.121.819c-.138.576-.05.8.481,1.086a16.816,16.816,0,0,1,4.172,3.155,1.159,1.159,0,0,1,.29.7c.03.763,0,1.527-.008,2.291a13.827,13.827,0,0,0-5.937-4.988,19.985,19.985,0,0,0-7.581-1.592c-2-.066-4.009-.015-6.014-.016" transform="translate(-12.586 -97.686)" fill="#fbd102"/><path d="M129.2,304.3c.43.263.873.508,1.289.792a9.911,9.911,0,0,1,4.463,6.85c.086.546.129,1.1.192,1.648l-16.633.01a9.466,9.466,0,0,1,10.416-9.35l.255.051Z" transform="translate(-103.398 -265.43)" fill="#c7eefd"/><path d="M162.2,49.719l-1.649.129v-.581q0-14.756,0-29.512c0-.966-.172-1.137-1.138-1.138h-1.433c-.031,0-.062-.008-.138-.018a1.211,1.211,0,0,1,.125-.188q2.016-2.036,4.038-4.066a.966.966,0,0,1,.191-.119q0,17.747,0,35.494" transform="translate(-137.725 -12.412)" fill="#baf39a"/><path d="M192.008,49.719q0-17.747,0-35.494a1.88,1.88,0,0,1,.26.186q1.954,1.961,3.9,3.928c.064.065.122.136.248.278h-1.723c-.837,0-1.044.206-1.044,1.04q0,12.484,0,24.967v5.222l-1.639-.127" transform="translate(-167.533 -12.412)" fill="#9ae59c"/><path d="M14.424,146.135c2,0,4.011-.05,6.014.016a19.985,19.985,0,0,1,7.581,1.592,13.827,13.827,0,0,1,5.937,4.988v2.919a1.842,1.842,0,0,1-.171-.223,13.648,13.648,0,0,0-9.827-7.168,36.607,36.607,0,0,0-4.215-.46c-.654-.056-.918.243-.924.919-.005.581,0,1.161,0,1.742l-.126.069q-1.4-1.428-2.792-2.857c-.5-.509-.983-1.024-1.475-1.536" transform="translate(-12.586 -127.495)" fill="#fae158"/><path d="M235.762,145.465c0,.084.029.2-.015.248q-2.072,2.137-4.158,4.262l-.15-.078c0-.545,0-1.089,0-1.634,0-.846-.235-1.054-1.1-1.036a19.076,19.076,0,0,0-6.888,1.308,13.384,13.384,0,0,0-6.9,6.157c-.065.12-.135.238-.261.461v-3.089a.892.892,0,0,0,.175-.145,13.98,13.98,0,0,1,6.437-5.014,21.706,21.706,0,0,1,7.774-1.338c1.529-.01,3.058,0,4.586-.006a2.625,2.625,0,0,0,.493-.1" transform="translate(-188.731 -126.926)" fill="#fa91d0"/><path d="M235.64,116.031a2.635,2.635,0,0,1-.493.1c-1.529.007-3.057,0-4.586.006a21.7,21.7,0,0,0-7.774,1.338,13.98,13.98,0,0,0-6.437,5.014.89.89,0,0,1-.175.145c-.006-.779-.035-1.559,0-2.337a1.028,1.028,0,0,1,.315-.594,16.5,16.5,0,0,1,8.874-4.69,37.074,37.074,0,0,1,4.543-.494c1.334-.086,1.414-.107,1.414-1.467v-1.316l4.323,4.3" transform="translate(-188.61 -97.492)" fill="#fbacde"/><path d="M200.536,304.675l-.255-.051.255.051" transform="translate(-174.756 -265.802)" fill="#98e4f9"/></g></g></svg>