<svg xmlns="http://www.w3.org/2000/svg" xmlns:xlink="http://www.w3.org/1999/xlink" width="150" height="151" viewBox="0 0 150 151"><defs><filter id="a" x="0" y="0" width="150" height="151" filterUnits="userSpaceOnUse"><feOffset dy="6" input="SourceAlpha"/><feGaussianBlur stdDeviation="5" result="b"/><feFlood flood-opacity="0.329"/><feComposite operator="in" in2="b"/><feComposite in="SourceGraphic"/></filter></defs><g transform="translate(-1253.167 -3996.063)"><g transform="matrix(1, 0, 0, 1, 1253.17, 3996.06)" filter="url(#a)"><ellipse cx="60" cy="60.5" rx="60" ry="60.5" transform="translate(15 9)" fill="#ffb500"/></g><g transform="translate(1286.646 4030.783)"><g transform="translate(11.075 1.106)"><path d="M26.122,32.327c-.739.312-1.048.239-1.513-.39a8.634,8.634,0,0,1-1.787-5.647,1.384,1.384,0,0,1,.682-1.251,9,9,0,0,1,9.893.084,9.068,9.068,0,0,1,4.722,7.716.624.624,0,0,0,.233.443c.691.427,1.4.82,2.184,1.268.015-.281.034-.478.035-.676,0-3.386-.006-6.772.011-10.158,0-.428-.081-.733-.511-.878a.788.788,0,0,1-.221-.12,3.144,3.144,0,0,0-3.281-.438c-4.561,1.531-9.611-2.008-10.037-6.815a2.026,2.026,0,0,1,1.2-2.23c4.669-2.44,10.993,1.114,11.259,6.376a.692.692,0,0,0,.423.676c.352.177.688.386,1.1.622.021-.237.048-.411.049-.584,0-1.682-.012-3.365.012-5.047a.9.9,0,0,0-.463-.859c-4.414-3.028-4.206-10.258.34-12.968a1.811,1.811,0,0,1,2.148.018A7.46,7.46,0,0,1,46.1,8.255a7.391,7.391,0,0,1-3.35,6.3.643.643,0,0,0-.267.439c-.015,1.913-.006,3.827,0,5.74,0,.032.04.065.1.152.427-.247.867-.48,1.278-.757a.609.609,0,0,0,.169-.422A7.492,7.492,0,0,1,47.7,13.718c.666-.437.972-.382,1.539.195a1.04,1.04,0,0,1-.535,1.408,5.641,5.641,0,0,0-2.576,3.325c-.007.049-.014.1-.022.145l.118-.055c1.585-.9,3.175-1.788,4.75-2.7a1.248,1.248,0,0,1,1.357-.076c.418.628.412,1.1-.034,1.475-.171.143-.367.257-.551.385L47.1,20.437l.049.257H49.1l.212-.056.027,0A5.738,5.738,0,0,0,54.1,17.2c.951-2.172.884-2.5-1.72-2.811a1.088,1.088,0,0,1-.8-.992c.213-.777.48-1.036,1.256-.869a20.154,20.154,0,0,1,2.674.852,1.573,1.573,0,0,1,1.011,1.763A7.406,7.406,0,0,1,52.907,21.3a7.522,7.522,0,0,1-7.674.557,1.3,1.3,0,0,0-.565.009c-.038,0-.074.038-.11.06-.682.41-1.614.67-1.975,1.273-.346.577-.11,1.509-.111,2.285q-.007,4.133,0,8.266v.817c.834-.479,1.591-.9,2.328-1.354.1-.06.124-.287.13-.438a9.822,9.822,0,0,1,8.41-9.025,8.87,8.87,0,0,1,6.207,1.293,1.367,1.367,0,0,1,.672,1.194,9.628,9.628,0,0,1-7.566,9.508,9.144,9.144,0,0,1-6.485-.77.749.749,0,0,0-.61.02c-.922.5-1.833,1.023-2.724,1.575a.889.889,0,0,0-.345.578,10.139,10.139,0,0,0-.016,1.284c4.327.4,8.327,1.426,11,5.03,1.261-.179,2.469-.4,3.687-.506.832-.073,1.106.246,1.2,1.094-.3.259-.592.739-.891.741a8.456,8.456,0,0,0-3.937.96.826.826,0,0,1-1.226-.4,7.329,7.329,0,0,0-4.3-3.76,16.991,16.991,0,0,0-13.191.107,7.136,7.136,0,0,0-3.922,3.385c-.405.83-.847.969-1.668.538a6.384,6.384,0,0,0-4.457-.655,6.491,6.491,0,0,0-4.878,4.259c.627.142,1.205.235,1.759.406A8.058,8.058,0,0,1,26.481,53.6a.944.944,0,1,1-1.637.932c-.057-.088-.1-.182-.159-.272A6.277,6.277,0,0,0,17.564,51.4c-4.391,1.177-6.133,6.883-3.087,10.108a5.93,5.93,0,0,0,4.595,2.241c1.468.055,2.939.01,4.409.017.762,0,1.043.261,1.153,1.021l-.658.871H17.917a3.85,3.85,0,0,0-.547-.225,8.2,8.2,0,0,1,.049-15.96A.851.851,0,0,0,17.956,49,8.473,8.473,0,0,1,29.3,43.571a1.6,1.6,0,0,0,.161.042c2.722-3.732,6.739-4.765,11.111-5.182,0-.485.024-.964-.014-1.439a.652.652,0,0,0-.306-.412c-.918-.549-1.843-1.088-2.784-1.6a.756.756,0,0,0-.611,0,9.22,9.22,0,0,1-8.092.218c-.783-.319-.938-.655-.75-1.471a1.161,1.161,0,0,1,1.522-.262,7.186,7.186,0,0,0,4.177.564l1.373-.274.024-.157-1.017-.545c-.754-.447-1.505-.9-2.264-1.34-1.194-.693-2.394-1.377-3.588-2.068-.4-.229-.694-.594-.513-1.027a1.6,1.6,0,0,1,.8-.753c.2-.087.559.093.8.229,1.408.779,2.8,1.581,4.2,2.376l.005-.01.159.1L36.074,32c-.1-2.758-3.157-5.77-6.29-6.282l-.035,0-.217-.051a6.714,6.714,0,0,0-4.393.59.662.662,0,0,0-.427.728,6.79,6.79,0,0,0,1.416,3.822,1.066,1.066,0,0,1-.006,1.52M34.173,17.2l.15.1,2.5,1.431.114.054-.022-.142a6.063,6.063,0,0,0-5.115-4.22,4.971,4.971,0,0,0-2.831.318.691.691,0,0,0-.518.895,6.134,6.134,0,0,0,6.379,5.071L35.91,20.6l.029-.144-.857-.464q-1.95-1.143-3.9-2.285c-.752-.44-.968-.9-.666-1.449s.855-.614,1.635-.172c.673.381,1.349.755,2.024,1.132Zm7.854-9.982a3.91,3.91,0,0,1,.415,1.125c.052,1.291.02,2.585.02,3.992.179-.154.261-.211.327-.284a6.218,6.218,0,0,0-.314-8.308c-.922-.856-.854-.985-1.953.065-2.5,2.317-2.016,6.849.05,8.442,0-1.342-.008-2.636,0-3.93.009-1,.5-1.363,1.452-1.1M55.786,25.64a3.1,3.1,0,0,0-.427-.1,8.215,8.215,0,0,0-8.039,4.963c-.176.445-.284.918-.472,1.536.706-.4,1.234-.7,1.759-1,1.727-1,3.45-2,5.182-2.989.686-.392,1.343-.183,1.523.469a.973.973,0,0,1-.6,1.176Q51.6,31.481,48.5,33.281c-.19.11-.374.23-.645.4a6.947,6.947,0,0,0,3.9.288,7.967,7.967,0,0,0,5.631-3.849,5.917,5.917,0,0,0,.937-3.22.691.691,0,0,0-.275-.542c-.738-.274-1.5-.484-2.254-.716" transform="translate(-11.075 -1.106)" fill="#040403"/><path d="M139.065,258.313c.745-.669,1.078-.678,1.841-.044a8.561,8.561,0,0,1,2.728,4.069.933.933,0,0,0,.544.547,8.185,8.185,0,0,1-.6,16.079c-.045.007-.08.075-.12.114h-37.24l-.628-.888c.187-.825.419-1,1.319-1q17.5,0,35-.006a7.842,7.842,0,0,0,1.628-.125,6,6,0,0,0,4.9-4.6,5.933,5.933,0,0,0-2.075-6.388,2.394,2.394,0,0,0-.223-.215,6.291,6.291,0,0,0-9.287,1.975c-.39.645-.887.835-1.4.535s-.614-.814-.235-1.475a8.148,8.148,0,0,1,5.7-4.072c.256-.052.516-.082.814-.128a6.1,6.1,0,0,0-2.075-2.966,1.359,1.359,0,0,1-.6-1.4" transform="translate(-89.658 -214.526)" fill="#020202"/><path d="M69.711,238.241a1.359,1.359,0,0,0,.6,1.4,6.1,6.1,0,0,1,2.075,2.966c-.3.046-.558.076-.814.128a8.15,8.15,0,0,0-5.7,4.072c-.379.661-.287,1.167.235,1.475s1.006.11,1.4-.535a6.29,6.29,0,0,1,9.287-1.975,2.387,2.387,0,0,1,.223.215,21.923,21.923,0,0,1,.045,3,6.724,6.724,0,0,1-2.589,4.394,6.138,6.138,0,0,1-3.96,1.567q-23.4-.022-46.807-.1c-3.046-3.225-1.3-8.931,3.087-10.108a6.277,6.277,0,0,1,7.121,2.863c.054.09.1.184.159.272a.944.944,0,1,0,1.637-.932,8.057,8.057,0,0,0-4.841-3.971c-.554-.171-1.133-.264-1.759-.405a6.491,6.491,0,0,1,4.878-4.259,6.384,6.384,0,0,1,4.457.655c.821.432,1.263.292,1.668-.538a7.136,7.136,0,0,1,3.922-3.385,16.991,16.991,0,0,1,13.191-.107,7.329,7.329,0,0,1,4.3,3.76.826.826,0,0,0,1.226.4,8.452,8.452,0,0,1,3.937-.96c.3,0,.594-.481.89-.741l2.126.844m-11.067,8.864v0c1.219,0,2.438.02,3.656-.008a.945.945,0,0,0,1-.987.921.921,0,0,0-1.008-.905c-2.438-.015-4.876-.025-7.313.017a1.3,1.3,0,0,0-.914.517c-.412.623.121,1.348.983,1.364,1.2.023,2.4.006,3.593.006m-15.751-1.913c-1.177,0-2.354-.007-3.531,0-.747.006-1.163.359-1.16.947s.431.957,1.163.96q3.5.014,7,0c.751,0,1.225-.411,1.2-1-.021-.565-.46-.908-1.207-.913-1.156-.008-2.312,0-3.468,0m7.887-4.851c1.177,0,2.353.006,3.53,0,.695,0,1.107-.356,1.116-.921a.954.954,0,0,0-1.079-.967q-3.593-.014-7.186,0c-.683,0-1.089.383-1.083.962s.411.921,1.11.926c1.2.008,2.4,0,3.593,0M35.039,253.826c1.176,0,2.353.006,3.529,0,.695,0,1.1-.359,1.1-.935s-.4-.951-1.083-.953q-3.561-.01-7.121,0c-.718,0-1.163.388-1.148.966.014.557.444.919,1.128.924,1.2.008,2.395,0,3.592,0m31.462,0c1.177,0,2.353,0,3.529,0,.721,0,1.166-.383,1.156-.96-.01-.557-.44-.927-1.122-.929q-3.561-.009-7.122,0c-.705,0-1.1.342-1.108.926-.01.607.395.959,1.137.963,1.177.007,2.353,0,3.529,0m-15.814,0c1.2,0,2.394,0,3.592,0,.734,0,1.156-.366,1.147-.96-.009-.569-.423-.928-1.113-.929q-3.56-.009-7.12,0c-.69,0-1.1.359-1.114.927-.011.6.409.958,1.143.962,1.155.007,2.31,0,3.466,0" transform="translate(-20.305 -194.454)" fill="#b1a07c"/><path d="M93.367,152.746a1.066,1.066,0,0,0,.006-1.52,6.791,6.791,0,0,1-1.416-3.822.662.662,0,0,1,.427-.728,6.714,6.714,0,0,1,4.393-.59l.217.051.035,0c.175.167.353.33.523.5.844.85,1.743,1.654,2.5,2.573a6.379,6.379,0,0,1,.721,1.681c-1.4-.794-2.794-1.6-4.2-2.376-.246-.136-.6-.316-.8-.229a1.6,1.6,0,0,0-.8.753c-.181.433.117.8.513,1.027,1.195.692,2.394,1.375,3.588,2.068.758.441,1.51.893,2.264,1.34l-.38.976a7.188,7.188,0,0,1-4.177-.563,1.161,1.161,0,0,0-1.522.262l-1.893-1.4" transform="translate(-78.319 -121.526)" fill="#b0e29d"/><path d="M225.2,76.557a1.248,1.248,0,0,0-1.357.076c-1.574.916-3.165,1.8-4.75,2.7l-.1-.091a5.644,5.644,0,0,1,2.576-3.324,1.04,1.04,0,0,0,.535-1.408l2.336-.519a1.088,1.088,0,0,0,.8.992l-.049,1.57" transform="translate(-183.947 -61.706)" fill="#afe09c"/><path d="M31.256,315.657q23.4.056,46.807.1a6.137,6.137,0,0,0,3.96-1.567,6.723,6.723,0,0,0,2.589-4.394,21.9,21.9,0,0,0-.045-3,5.933,5.933,0,0,1,2.074,6.388,6,6,0,0,1-4.9,4.6,7.863,7.863,0,0,1-1.628.125q-17.5.01-35,.006c-.9,0-1.132.18-1.319,1l-2.375.017c-.11-.76-.392-1.018-1.153-1.021-1.47-.007-2.941.038-4.409-.017a5.931,5.931,0,0,1-4.595-2.241" transform="translate(-27.854 -255.257)" fill="#a29373"/><path d="M228.168,154.348a6.946,6.946,0,0,1-3.9-.288c.271-.168.455-.288.645-.4q3.107-1.8,6.217-3.588a.973.973,0,0,0,.6-1.176c-.18-.651-.837-.861-1.523-.469-1.731.989-3.454,1.993-5.181,2.989-.525.3-1.053.6-1.759,1,.188-.618.3-1.091.472-1.536a8.215,8.215,0,0,1,8.039-4.963,3.131,3.131,0,0,1,.427.1,2.271,2.271,0,0,1,.394,1.824,7.867,7.867,0,0,1-2.772,5.182c-.529.468-1.106.882-1.661,1.321" transform="translate(-187.496 -121.487)" fill="#b0e19c"/><path d="M120.437,85.956a6.134,6.134,0,0,1-6.379-5.071.691.691,0,0,1,.518-.895,4.97,4.97,0,0,1,2.831-.318,6.055,6.055,0,0,1,.895.764c.522.65.988,1.347,1.477,2.024-.675-.377-1.351-.751-2.024-1.132-.781-.442-1.326-.387-1.635.172s-.086,1.01.666,1.45q1.952,1.14,3.9,2.285l-.25.721" transform="translate(-96.681 -66.353)" fill="#afe09b"/><path d="M185.745,13.469c1.1-1.049,1.03-.92,1.953-.065a6.219,6.219,0,0,1,.314,8.308c-.066.073-.149.13-.327.284,0-1.406.032-2.7-.02-3.992a3.91,3.91,0,0,0-.415-1.125c-.272-.889-.509-1.791-.834-2.661-.109-.292-.441-.5-.671-.75" transform="translate(-156.298 -10.764)" fill="#90cf9e"/><path d="M252.327,154.959c.555-.439,1.132-.853,1.661-1.321a7.867,7.867,0,0,0,2.772-5.182,2.271,2.271,0,0,0-.394-1.824c.753.232,1.515.442,2.254.716a.691.691,0,0,1,.275.542,5.916,5.916,0,0,1-.937,3.22,7.966,7.966,0,0,1-5.631,3.849" transform="translate(-211.655 -122.098)" fill="#93d3a1"/><path d="M177.4,17.153c.23.247.562.457.671.75.325.869.562,1.772.834,2.661-.956-.262-1.444.1-1.452,1.1-.011,1.294,0,2.588,0,3.93-2.066-1.593-2.549-6.125-.05-8.442" transform="translate(-147.951 -14.448)" fill="#b0e19c"/><path d="M241.037,81.451l.049-1.57c2.6.307,2.671.639,1.72,2.811a5.738,5.738,0,0,1-4.762,3.445,2.745,2.745,0,0,1,.289-.307,5.829,5.829,0,0,0,2.119-2.52c.184-.127.38-.241.551-.385.446-.373.452-.847.034-1.475" transform="translate(-199.78 -66.6)" fill="#92d1a0"/><path d="M125.8,151.823a6.38,6.38,0,0,0-.721-1.682c-.761-.919-1.66-1.723-2.5-2.573-.17-.171-.349-.335-.523-.5,3.133.512,6.194,3.524,6.29,6.282l-2.377-1.432-.159-.1Z" transform="translate(-103.339 -122.46)" fill="#92d1a0"/><path d="M136.391,82.9c-.489-.677-.955-1.373-1.477-2.024a6.048,6.048,0,0,0-.895-.764,6.064,6.064,0,0,1,5.115,4.22l-.093.088-2.5-1.431-.15-.1Z" transform="translate(-113.292 -66.793)" fill="#91d1a0"/><path d="M229.4,100.227a5.828,5.828,0,0,1-2.119,2.52,2.747,2.747,0,0,0-.289.307l-.028,0-.212.056H224.8l-.049-.257,4.649-2.621" transform="translate(-188.728 -83.516)" fill="#aedf9b"/><path d="M145.365,191.583l.38-.976,1.017.545-.024.157-1.373.273" transform="translate(-122.725 -158.659)" fill="#8bc899"/><path d="M151.99,113.827l.25-.721.857.464-.029.144-1.078.113" transform="translate(-128.233 -94.224)" fill="#8bc798"/><path d="M148.086,96.59l.15.1-.15-.1" transform="translate(-124.988 -80.493)" fill="#afe09b"/><path d="M163.9,105.147l.021.142-.114-.054.093-.088" transform="translate(-138.06 -87.607)" fill="#91d1a0"/><path d="M218.99,105.236l-.118.055.022-.145.1.091" transform="translate(-183.84 -87.605)" fill="#afe09c"/><path d="M236.621,117.022l.212-.056-.212.056" transform="translate(-198.597 -97.433)" fill="#92d1a0"/><path d="M120.77,146.836l-.217-.051.217.051" transform="translate(-102.096 -122.225)" fill="#92d1a0"/><path d="M144.314,175.22l.159.1-.159-.1" transform="translate(-121.852 -145.866)" fill="#b0e29d"/><path d="M215.224,303.959c-1.2,0-2.4.018-3.593-.006-.861-.017-1.394-.742-.982-1.364a1.3,1.3,0,0,1,.913-.517c2.437-.042,4.875-.031,7.313-.017a.922.922,0,0,1,1.008.905.945.945,0,0,1-1,.987c-1.218.028-2.437.008-3.656.008Z" transform="translate(-176.885 -251.308)" fill="#050403"/><path d="M121.927,302.053c1.156,0,2.312-.006,3.468,0,.746.005,1.186.347,1.207.913.022.584-.452.993-1.2,1q-3.5.012-7,0c-.733,0-1.16-.376-1.163-.96s.414-.941,1.16-.947c1.177-.01,2.354,0,3.531,0" transform="translate(-99.338 -251.315)" fill="#050403"/><path d="M168.652,263.932c-1.2,0-2.4.006-3.593,0-.7,0-1.1-.355-1.11-.926s.4-.96,1.083-.962q3.593-.013,7.186,0a.954.954,0,0,1,1.079.967c-.008.565-.421.917-1.116.921-1.176.008-2.353,0-3.53,0" transform="translate(-138.177 -218.045)" fill="#030302"/><path d="M75.192,343.931c-1.2,0-2.395.005-3.592,0-.684,0-1.114-.367-1.128-.924-.014-.578.43-.964,1.148-.966q3.561-.008,7.121,0c.686,0,1.087.371,1.083.953s-.408.93-1.1.935c-1.176.009-2.353,0-3.529,0" transform="translate(-60.458 -284.559)" fill="#020201"/><path d="M262.082,343.931c-1.176,0-2.353,0-3.529,0-.742,0-1.147-.356-1.137-.964.01-.584.4-.924,1.108-.926q3.561-.008,7.122,0c.682,0,1.111.372,1.122.929.011.578-.435.956-1.156.96-1.176.006-2.353,0-3.529,0" transform="translate(-215.886 -284.559)" fill="#020201"/><path d="M168.562,343.932c-1.155,0-2.31,0-3.466,0-.734,0-1.154-.366-1.143-.962.01-.568.424-.925,1.114-.927q3.56-.009,7.12,0c.69,0,1.1.361,1.113.929.01.594-.413.956-1.147.96-1.2.006-2.394,0-3.592,0" transform="translate(-138.179 -284.56)" fill="#010101"/></g></g></g></svg>