<svg xmlns="http://www.w3.org/2000/svg" xmlns:xlink="http://www.w3.org/1999/xlink" width="108.82" height="108.82" viewBox="0 0 108.82 108.82"><defs><filter id="a" x="0" y="0" width="108.82" height="108.82" filterUnits="userSpaceOnUse"><feOffset dy="6" input="SourceAlpha"/><feGaussianBlur stdDeviation="4.5" result="b"/><feFlood flood-opacity="0.161"/><feComposite operator="in" in2="b"/><feComposite in="SourceGraphic"/></filter><clipPath id="c"><rect width="38" height="38" transform="translate(0.432 0.432)" fill="none"/></clipPath></defs><g transform="translate(-166.5 -1451.153)"><g transform="matrix(1, 0, 0, 1, 166.5, 1451.15)" filter="url(#a)"><g transform="translate(13.5 7.5)" fill="#fff"><path d="M 40.91015625 71.8203125 C 23.86623573303223 71.8203125 9.999996185302734 57.95407485961914 9.999996185302734 40.91015625 C 9.999996185302734 23.86623573303223 23.86623573303223 9.999996185302734 40.91015625 9.999996185302734 C 57.95407485961914 9.999996185302734 71.8203125 23.86623573303223 71.8203125 40.91015625 C 71.8203125 57.95407485961914 57.95407485961914 71.8203125 40.91015625 71.8203125 Z" stroke="none"/><path d="M 40.91015625 20 C 29.3802490234375 20 20 29.3802490234375 20 40.91015625 C 20 52.4400634765625 29.3802490234375 61.8203125 40.91015625 61.8203125 C 52.4400634765625 61.8203125 61.8203125 52.4400634765625 61.8203125 40.91015625 C 61.8203125 29.3802490234375 52.4400634765625 20 40.91015625 20 M 40.91015625 0 C 63.50421905517578 0 81.8203125 18.31609344482422 81.8203125 40.91015625 C 81.8203125 63.50421905517578 63.50421905517578 81.8203125 40.91015625 81.8203125 C 18.31609344482422 81.8203125 0 63.50421905517578 0 40.91015625 C 0 18.31609344482422 18.31609344482422 0 40.91015625 0 Z" stroke="none" fill="#fff"/></g></g><circle cx="34" cy="34" r="34" transform="translate(187.333 1467)" fill="#ced371"/><g transform="translate(201.568 1480.901)"><g transform="translate(0.333 -0.333)" clip-path="url(#c)"><path d="M7.429,32.434c.151-.483.286-.584.807-.584h7.429c0-.97.011-1.906,0-2.842A2.567,2.567,0,0,1,17.2,26.471.645.645,0,0,0,17.487,26c.028-.9.009-1.8.016-2.7a.512.512,0,0,0-.324-.51A2.482,2.482,0,0,1,15.75,20.42q0-2.913,0-5.826a2.5,2.5,0,0,1,2.607-2.632c.4-.006.794,0,1.212,0V10.479c-.831-.142-1.059-.417-1.06-1.271,0-.733-.006-1.466,0-2.2a.954.954,0,0,1,1.035-1.032q3.2-.007,6.4,0a.96.96,0,0,1,1.04,1c.02.823.018,1.646,0,2.469-.013.606-.314.887-1.064,1.052v1.441h.749a5.871,5.871,0,0,1,3.161-4.417,5.641,5.641,0,0,1,4.449-.371,5.895,5.895,0,1,1-4.536,10.835v2.185h.428q3.453,0,6.907,0c.954,0,1.359.448,1.262,1.4-.15,1.457-.307,2.914-.458,4.371a.6.6,0,1,1-1.154-.155c.022-.139.03-.281.044-.422L37,23.222h-9.52L29.2,39.664h6.052c.025-.143.056-.279.071-.417q.552-5.252,1.1-10.5c.053-.507.187-.655.68-.706a.643.643,0,0,1,.479.8c-.221,2.056-.446,4.111-.65,6.168a55.417,55.417,0,0,0-.564,8.024c.006.127,0,.255,0,.444h1.038c.411,0,.824.021,1.233-.006a.994.994,0,0,1,.875.329v.463a.928.928,0,0,1-.819.378q-18.939-.01-37.878,0A.924.924,0,0,1,0,44.258v-.463a1.032,1.032,0,0,1,.874-.331c.779.024,1.56.007,2.356.007v-6.9c-.148-.008-.285-.011-.422-.022a.907.907,0,0,1-.883-.856q-.037-1.482,0-2.966a.9.9,0,0,1,.919-.863c.8-.027,1.592-.016,2.389-.007.368,0,.542.245.613.58a.634.634,0,0,1-.732.575c-.179-.011-.36,0-.54,0H3.09v2.357H20.332V33.008H8.238c-.545,0-.651-.079-.809-.573m17.639-13.6c-.175.5-.276.576-.811.576H16.908c0,.379.016.712,0,1.042s.09.443.437.44c2.1-.016,4.193-.009,6.289-.007.892,0,1.287.4,1.288,1.3q0,2.392,0,4.785c0,1.034-.357,1.393-1.385,1.393H17.244c-.177,0-.4-.043-.4.224-.014.508,0,1.017,0,1.516h10.2c-.111-1.053-.219-2.074-.325-3.1-.192-1.84-.376-3.681-.58-5.519a1.075,1.075,0,0,1,1.114-1.32c.433-.007.867,0,1.308,0v-.76c-.38,0-.737,0-1.095,0-.536,0-.638-.075-.81-.577.162-.49.285-.579.808-.581h1.124a4.908,4.908,0,0,1,0-.578,1.06,1.06,0,0,0-.368-.943,5.462,5.462,0,0,1-1.4-2.572c-.082-.332-.124-.675-.189-1.037H20.746c-.823,0-1.646-.012-2.468,0a1.286,1.286,0,0,0-1.353,1.211c-.039,1.293-.011,2.589-.011,3.914h7.346c.521,0,.644.091.808.582M4.423,43.448H18.966V42.115h-.449q-2.277,0-4.553,0c-.823,0-1.162-.347-1.164-1.179q0-1.157,0-2.315c0-.863.348-1.206,1.223-1.207q2.277,0,4.553,0h.389v-.84H4.423Zm12.41-11.6c1.205,0,2.374,0,3.543,0A1.021,1.021,0,0,1,21.516,33c0,.267,0,.533,0,.79.545.109.671.249.672.76q0,3.472,0,6.945c0,.1.02.241-.036.3a1.269,1.269,0,0,1-.53.414.48.48,0,0,1-.558-.416,1.937,1.937,0,0,1-.03-.422q0-2.122,0-4.244v-.643l-.852.1v6.87h7.9c.2-4.1-.619-8.1-.9-12.135H16.833Zm6.906-9.776H18.2a1.861,1.861,0,0,1,.459,1.4c-.013.553,0,1.106,0,1.659a2.787,2.787,0,0,1-.418,2.05h5.5Zm5.53,21.373h5.911v-2.57H29.268ZM25.815,7.164h-6.12V9.273h6.12ZM18.982,38.594h-5v2.365h5ZM37.209,12.766a4.71,4.71,0,1,0-4.718,4.7,4.714,4.714,0,0,0,4.718-4.7m-.093,9.25.084-.662H27.3l.048.662ZM20.759,11.929h3.979V10.471H20.759Z" transform="translate(-0.18 -5.455)" fill="#030303"/><path d="M365.629,234.271c-.492.051-.627.2-.68.706q-.547,5.253-1.1,10.5c-.015.138-.046.274-.071.417h-6.052L356,229.456h9.52l-.218,2.14c-.014.141-.022.282-.044.422a.653.653,0,0,0,.481.8l-.111,1.448m-2.746,3.158c0-.939,0-1.878,0-2.817a.963.963,0,0,0-1.039-1.072q-1.08-.024-2.161,0a.978.978,0,0,0-1.047,1.075q-.009,2.778,0,5.556a.975.975,0,0,0,1.069,1.082c.694.008,1.389.006,2.084,0a.963.963,0,0,0,1.1-1.085c.005-.913,0-1.826,0-2.74m-2.135-4.845h0c.3,0,.591.008.885,0a.581.581,0,0,0,.619-.592.571.571,0,0,0-.607-.561q-.885-.014-1.771,0a.577.577,0,0,0-.605.567.584.584,0,0,0,.593.583c.295.014.59,0,.885,0" transform="translate(-328.703 -211.689)" fill="#d2e661"/><path d="M22.96,153.728c.078-.648.178-1.348.236-2.052a.642.642,0,0,0-.2-.472c-.491-.414-1.013-.789-1.518-1.186a.869.869,0,0,1-.014-1.51c.512-.408,1.043-.794,1.545-1.215a.6.6,0,0,0,.188-.44c-.048-.6-.131-1.2-.215-1.8-.126-.9.254-1.312,1.168-1.218.613.064,1.222.168,1.836.215a.649.649,0,0,0,.471-.2c.417-.488.8-1.009,1.2-1.509a.878.878,0,0,1,1.536.014c.391.493.783.986,1.158,1.492a.489.489,0,0,0,.52.222c.649-.091,1.3-.178,1.95-.238.737-.068,1.115.322,1.036,1.058-.067.626-.146,1.25-.236,1.873a.534.534,0,0,0,.243.583c.512.366,1,.76,1.5,1.153a.873.873,0,0,1,0,1.515c-.481.386-.961.776-1.466,1.128a.605.605,0,0,0-.268.683c.094.609.168,1.222.232,1.835a.875.875,0,0,1-1.071,1.035c-.662-.088-1.323-.184-1.988-.246a.555.555,0,0,0-.406.185c-.4.483-.779.989-1.169,1.483a.9.9,0,0,1-1.614.007c-.373-.475-.749-.948-1.109-1.432a.519.519,0,0,0-.579-.243c-.645.112-1.3.179-1.948.253a.876.876,0,0,1-1.018-.971m1.2-8.717c.072.62.124,1.193.209,1.761a1.385,1.385,0,0,1-.591,1.407c-.46.347-.91.706-1.388,1.078.5.392.98.758,1.452,1.13a1.335,1.335,0,0,1,.53,1.322c-.082.579-.139,1.162-.213,1.791.609-.074,1.168-.125,1.722-.213a1.39,1.39,0,0,1,1.423.555c.361.467.726.93,1.111,1.422.368-.47.731-.918,1.078-1.378a1.419,1.419,0,0,1,1.479-.595c.559.093,1.127.137,1.707.2-.082-.667-.161-1.265-.227-1.864a1.32,1.32,0,0,1,.57-1.269c.469-.353.926-.72,1.42-1.106-.425-.332-.8-.664-1.215-.939a1.608,1.608,0,0,1-.736-1.826c.1-.481.123-.976.182-1.479-.653.078-1.252.15-1.851.22a1.341,1.341,0,0,1-1.3-.574c-.354-.469-.724-.925-1.1-1.409-.374.479-.731.917-1.066,1.371a1.4,1.4,0,0,1-1.4.609c-.572-.075-1.145-.14-1.785-.217" transform="translate(-19.592 -130.886)" fill="#040402"/><path d="M44.378,348.817c.158.494.265.573.809.573H57.281v2.357H40.039v-2.357h1.483c.18,0,.361-.009.54,0a.634.634,0,0,0,.732-.575h1.584" transform="translate(-37.128 -321.838)" fill="#f78074"/><path d="M57.3,409.322v-6.874H71.846v.84h-.389q-2.276,0-4.553,0c-.875,0-1.221.344-1.223,1.207q0,1.158,0,2.315c0,.832.341,1.177,1.164,1.179q2.276,0,4.553,0h.449v1.332Zm3.411-3.445c-.642,0-1.285,0-1.927,0-.426,0-.667.219-.665.576s.25.576.672.578q1.908.009,3.815,0a.585.585,0,0,0,.648-.6c-.013-.34-.25-.545-.655-.549-.629-.006-1.259,0-1.888,0m1.124-1.773c-.3,0-.592-.01-.887,0a.569.569,0,0,0-.582.547.557.557,0,0,0,.534.6c.6.023,1.209.022,1.813,0a.558.558,0,0,0,.542-.588.552.552,0,0,0-.571-.555c-.282-.013-.566,0-.849,0m-2.777,0c-.128,0-.256-.008-.383,0a.573.573,0,0,0-.015,1.145,3.808,3.808,0,0,0,.841-.011.525.525,0,0,0,.478-.594.533.533,0,0,0-.538-.539c-.127-.012-.255,0-.383,0" transform="translate(-53.061 -371.329)" fill="#fab587"/><path d="M218.091,334.9v-.531h10.352c.279,4.039,1.1,8.039.9,12.135h-7.9v-6.869l.852-.1v.643q0,2.122,0,4.244a1.939,1.939,0,0,0,.03.422.48.48,0,0,0,.558.416,1.269,1.269,0,0,0,.53-.414c.056-.058.036-.2.036-.3q0-3.473,0-6.945c0-.511-.127-.652-.672-.76,0-.257,0-.523,0-.79a1.021,1.021,0,0,0-1.14-1.147c-1.169-.005-2.338,0-3.543,0m9.891,6.179c0-1.2,0-2.393,0-3.589a.547.547,0,0,0-.54-.621.574.574,0,0,0-.614.6c-.006.077,0,.154,0,.231q0,3.377,0,6.753c0,.064,0,.129,0,.193a.607.607,0,0,0,.591.633.582.582,0,0,0,.563-.648c.006-1.183,0-2.367,0-3.55m-3.418-.024c0,1.17,0,2.341,0,3.512,0,.446.227.715.581.711s.574-.277.574-.724q0-3.492,0-6.985c0-.452-.219-.7-.587-.7s-.567.251-.568.714q0,1.737,0,3.473" transform="translate(-201.438 -308.508)" fill="#c3faf8"/><path d="M227.192,104.238c-.164-.491-.287-.581-.808-.582h-7.346c0-1.326-.027-2.621.011-3.914a1.286,1.286,0,0,1,1.353-1.211c.822-.016,1.645,0,2.468,0h5.874c.065.362.106.7.189,1.037a5.462,5.462,0,0,0,1.4,2.572,1.06,1.06,0,0,1,.368.943,4.923,4.923,0,0,0,0,.578h-1.124c-.523,0-.646.091-.808.581h-1.575" transform="translate(-202.304 -90.861)" fill="#c6fdfb"/><path d="M226.342,172.56h1.575c.172.5.274.575.81.577.358,0,.715,0,1.095,0v.76c-.441,0-.874-.005-1.308,0a1.075,1.075,0,0,0-1.114,1.32c.2,1.838.388,3.679.58,5.519.107,1.021.215,2.042.325,3.1h-10.2c0-.5-.01-1.008,0-1.516.007-.268.226-.224.4-.224h6.289c1.028,0,1.385-.359,1.385-1.393q0-2.392,0-4.785c0-.9-.4-1.3-1.288-1.3-2.1,0-4.193-.008-6.289.007-.347,0-.457-.111-.437-.44s0-.663,0-1.042h7.349c.536,0,.637-.074.812-.576" transform="translate(-201.453 -159.183)" fill="#0480bd"/><path d="M241.38,214.59v5.11h-5.5a2.787,2.787,0,0,0,.418-2.05c.007-.553-.009-1.106,0-1.659a1.862,1.862,0,0,0-.459-1.4Z" transform="translate(-217.821 -197.97)" fill="#73e7e4"/><rect width="5.911" height="2.57" transform="translate(29.088 35.422)" fill="#87c646"/><rect width="6.12" height="2.109" transform="translate(19.515 1.709)" fill="#0480bd"/><path d="M186.17,428.619v2.365h-5v-2.365Z" transform="translate(-167.368 -395.48)" fill="#fbfbfb"/><path d="M369.475,37.305a4.71,4.71,0,1,1-4.713-4.74,4.729,4.729,0,0,1,4.713,4.74m-4.714-4.337a4.323,4.323,0,1,0,4.323,4.3,4.325,4.325,0,0,0-4.323-4.3" transform="translate(-332.445 -29.994)" fill="#f2bb02"/><path d="M363.5,205.92h-9.771c-.015-.212-.031-.424-.048-.662h9.9l-.084.662" transform="translate(-326.56 -189.359)" fill="#88c847"/><rect width="3.979" height="1.458" transform="translate(20.579 5.016)" fill="#9df1f1"/><path d="M394.331,286.116c0,.913,0,1.826,0,2.74a.963.963,0,0,1-1.1,1.085c-.695.005-1.389.007-2.084,0a.975.975,0,0,1-1.069-1.082q-.008-2.778,0-5.556a.978.978,0,0,1,1.047-1.075q1.08-.023,2.161,0a.963.963,0,0,1,1.039,1.072c.006.939,0,1.878,0,2.817m-1.182-2.707h-1.893v5.357h1.893Z" transform="translate(-360.151 -260.376)" fill="#040403"/><path d="M399.837,256.106c-.3,0-.591.011-.885,0a.584.584,0,0,1-.593-.583.577.577,0,0,1,.605-.567q.885-.015,1.771,0a.571.571,0,0,1,.607.561.581.581,0,0,1-.619.592c-.295.011-.59,0-.885,0Z" transform="translate(-367.792 -235.211)" fill="#020301"/><path d="M40.39,161.193c.64.077,1.213.142,1.785.217a1.4,1.4,0,0,0,1.4-.609c.335-.454.692-.892,1.066-1.371.38.483.75.94,1.1,1.409a1.341,1.341,0,0,0,1.3.574c.6-.07,1.2-.142,1.851-.22-.059.5-.085,1-.182,1.479a1.608,1.608,0,0,0,.736,1.826c.414.275.79.607,1.215.939-.494.386-.951.753-1.42,1.106a1.32,1.32,0,0,0-.57,1.269c.066.6.145,1.2.227,1.864-.58-.067-1.148-.112-1.707-.2a1.419,1.419,0,0,0-1.479.595c-.347.46-.709.908-1.078,1.378-.385-.492-.75-.955-1.111-1.421a1.39,1.39,0,0,0-1.423-.555c-.554.088-1.113.139-1.722.213.074-.629.131-1.212.213-1.791a1.335,1.335,0,0,0-.53-1.322c-.472-.372-.948-.738-1.452-1.13.478-.372.929-.732,1.388-1.078a1.385,1.385,0,0,0,.591-1.407c-.084-.568-.137-1.141-.209-1.761m7.895,5.749a1.666,1.666,0,0,0-1.611-1.84,1.638,1.638,0,0,0-1.44,1.6,1.741,1.741,0,0,0,1.279,1.864,1.509,1.509,0,0,0,1.666-1.117,4.086,4.086,0,0,0,.106-.5m-7.272-2.965a3.72,3.72,0,0,0,.033.4,1.605,1.605,0,0,0,1.119,1.344,1.312,1.312,0,0,0,1.474-.49,1.82,1.82,0,0,0,.349-1.7,1.469,1.469,0,0,0-2.895-.028,3.859,3.859,0,0,0-.079.474m5.475-1.089c-.165-.146-.319-.373-.526-.444-.328-.113-.546.108-.687.406-.735,1.553-1.477,3.1-2.213,4.656-.2.413-.109.745.216.894s.64.006.832-.4q1.1-2.31,2.191-4.624c.059-.126.1-.261.187-.492" transform="translate(-35.819 -147.069)" fill="#fbc202"/><path d="M70.508,446.866c.629,0,1.259,0,1.888,0,.405,0,.642.208.655.549a.585.585,0,0,1-.648.6q-1.908.011-3.815,0c-.423,0-.67-.226-.672-.578s.239-.572.665-.576c.642-.005,1.285,0,1.927,0" transform="translate(-62.854 -412.318)" fill="#040302"/><path d="M98.485,423.864c.283,0,.566-.01.849,0a.552.552,0,0,1,.571.556.558.558,0,0,1-.542.588c-.6.02-1.209.021-1.813,0a.557.557,0,0,1-.534-.6.568.568,0,0,1,.582-.547c.3-.012.592,0,.887,0" transform="translate(-89.707 -391.089)" fill="#050403"/><path d="M68.857,423.881c.128,0,.257-.009.383,0a.533.533,0,0,1,.538.539.525.525,0,0,1-.478.594,3.818,3.818,0,0,1-.841.011.573.573,0,0,1,.015-1.145c.127-.01.256,0,.383,0" transform="translate(-62.855 -391.105)" fill="#050403"/><path d="M332.383,370.97c0,1.183,0,2.367,0,3.55a.582.582,0,0,1-.563.648.607.607,0,0,1-.591-.633c0-.064,0-.129,0-.193q0-3.377,0-6.753c0-.077,0-.155,0-.231a.574.574,0,0,1,.614-.6.547.547,0,0,1,.54.621c.007,1.2,0,2.392,0,3.589" transform="translate(-305.839 -338.395)" fill="#050606"/><path d="M301.952,370.946q0-1.737,0-3.473c0-.463.2-.71.568-.714s.587.248.587.7q0,3.492,0,6.985c0,.447-.222.719-.574.724s-.58-.265-.581-.711c0-1.171,0-2.341,0-3.512" transform="translate(-278.827 -338.395)" fill="#020202"/><path d="M369.443,37.786a4.323,4.323,0,1,1,0,8.646,4.323,4.323,0,0,1,0-8.646M372.61,42.1a3.163,3.163,0,0,0-6.325,0,3.163,3.163,0,1,0,6.325,0" transform="translate(-337.128 -34.812)" fill="#040301"/><rect width="1.893" height="5.357" transform="translate(31.105 23.033)" fill="#fbfbfb"/><path d="M127.27,234.738a4.1,4.1,0,0,1-.106.5,1.509,1.509,0,0,1-1.666,1.117,1.74,1.74,0,0,1-1.279-1.864,1.638,1.638,0,0,1,1.44-1.6,1.667,1.667,0,0,1,1.611,1.84m-2.035-.11.514.59c.122-.19.313-.37.346-.574.039-.24-.038-.583-.359-.56-.158.011-.295.308-.5.545" transform="translate(-114.805 -214.864)" fill="#040301"/><path d="M69.618,198.288a3.867,3.867,0,0,1,.079-.474,1.469,1.469,0,0,1,2.895.028,1.82,1.82,0,0,1-.349,1.7,1.312,1.312,0,0,1-1.474.49,1.606,1.606,0,0,1-1.119-1.343,3.744,3.744,0,0,1-.033-.4m1.018.077c.211.239.355.54.5.543.3.006.364-.306.36-.573,0-.252-.067-.562-.353-.534-.165.016-.3.319-.511.564" transform="translate(-64.425 -181.379)" fill="#040301"/><path d="M98.355,198.56c-.087.231-.128.366-.187.492q-1.093,2.313-2.191,4.624c-.192.4-.505.547-.832.4s-.411-.482-.216-.894c.736-1.553,1.477-3.1,2.213-4.656.141-.3.359-.519.687-.406.207.071.361.3.526.444" transform="translate(-87.687 -182.74)" fill="#050400"/><path d="M386.432,55.917a3.163,3.163,0,1,1-3.159-3.16,3.177,3.177,0,0,1,3.159,3.16m-3.769-2.174a1.367,1.367,0,1,0,.224,2.723,6.818,6.818,0,0,1,.732.008,1.561,1.561,0,0,1,.406.171,1.309,1.309,0,0,1-.429.2c-.487.026-.977,0-1.465.015a.544.544,0,0,0-.573.547.562.562,0,0,0,.533.595,5.127,5.127,0,0,0,.572,0l-.063.125c.206.153.4.385.625.432a.653.653,0,0,0,.543-.3.545.545,0,0,1,.42-.315,1.339,1.339,0,0,0-.284-2.634c-.347-.012-.7.015-1.04-.014-.118-.01-.227-.137-.34-.21.112-.057.222-.158.336-.163.436-.021.875.007,1.31-.018a.572.572,0,0,0-.005-1.144c-.088-.009-.177-.011-.261-.016-.148-.574-.3-.746-.642-.741s-.5.2-.6.736" transform="translate(-350.95 -48.628)" fill="#f6d564"/><path d="M137.475,248.8c.207-.236.343-.533.5-.544.322-.023.4.32.359.56-.033.2-.225.384-.346.574l-.514-.59" transform="translate(-127.044 -229.04)" fill="#efefef"/><path d="M82.808,212.571c.21-.245.347-.548.511-.564.285-.028.349.282.353.534,0,.267-.056.578-.36.573-.149,0-.293-.3-.5-.543" transform="translate(-76.596 -195.585)" fill="#f4f4f4"/><path d="M397.563,56.729c.1-.54.262-.731.6-.736s.494.166.642.741c.084.005.173.007.261.016a.572.572,0,0,1,.005,1.144c-.436.024-.874,0-1.31.018-.114.005-.224.106-.336.163.113.073.221.2.34.21.345.029.694,0,1.04.014a1.339,1.339,0,0,1,.284,2.634.545.545,0,0,0-.42.315.653.653,0,0,1-.543.3c-.228-.047-.419-.279-.625-.432l.063-.125a5.128,5.128,0,0,1-.572,0,.562.562,0,0,1-.533-.595.544.544,0,0,1,.573-.547c.488-.013.978.011,1.465-.015a1.309,1.309,0,0,0,.429-.2,1.563,1.563,0,0,0-.406-.171,6.818,6.818,0,0,0-.732-.008,1.367,1.367,0,1,1-.224-2.723" transform="translate(-365.85 -51.614)" fill="#050402"/></g></g></g></svg>