<svg xmlns="http://www.w3.org/2000/svg" xmlns:xlink="http://www.w3.org/1999/xlink" width="108.82" height="108.82" viewBox="0 0 108.82 108.82"><defs><filter id="a" x="0" y="0" width="108.82" height="108.82" filterUnits="userSpaceOnUse"><feOffset dy="6" input="SourceAlpha"/><feGaussianBlur stdDeviation="4.5" result="b"/><feFlood flood-opacity="0.161"/><feComposite operator="in" in2="b"/><feComposite in="SourceGraphic"/></filter></defs><g transform="translate(-801.68 -898.283)"><g transform="matrix(1, 0, 0, 1, 801.68, 898.28)" filter="url(#a)"><g transform="translate(13.5 7.5)" fill="#fff"><path d="M 40.91015625 71.8203125 C 23.86623573303223 71.8203125 9.999996185302734 57.95407485961914 9.999996185302734 40.91015625 C 9.999996185302734 23.86623573303223 23.86623573303223 9.999996185302734 40.91015625 9.999996185302734 C 57.95407485961914 9.999996185302734 71.8203125 23.86623573303223 71.8203125 40.91015625 C 71.8203125 57.95407485961914 57.95407485961914 71.8203125 40.91015625 71.8203125 Z" stroke="none"/><path d="M 40.91015625 20 C 29.3802490234375 20 20 29.3802490234375 20 40.91015625 C 20 52.4400634765625 29.3802490234375 61.8203125 40.91015625 61.8203125 C 52.4400634765625 61.8203125 61.8203125 52.4400634765625 61.8203125 40.91015625 C 61.8203125 29.3802490234375 52.4400634765625 20 40.91015625 20 M 40.91015625 0 C 63.50421905517578 0 81.8203125 18.31609344482422 81.8203125 40.91015625 C 81.8203125 63.50421905517578 63.50421905517578 81.8203125 40.91015625 81.8203125 C 18.31609344482422 81.8203125 0 63.50421905517578 0 40.91015625 C 0 18.31609344482422 18.31609344482422 0 40.91015625 0 Z" stroke="none" fill="#fff"/></g></g><circle cx="34" cy="34" r="34" transform="translate(822.333 913)" fill="#ced371"/><g transform="translate(833.22 923.635)"><g transform="translate(0 0.574)"><path d="M45.739,28.733v.357a.56.56,0,0,0-.094.131A2.812,2.812,0,0,1,42.59,31.33a.751.751,0,0,1-.771-.633c.172-.6.312-.713.938-.707a1.394,1.394,0,0,0,1.282-.543,2.814,2.814,0,0,0,.33-.884c.023-3.338.014-6.677.013-10.015a2.741,2.741,0,0,0-1.388-2.477,6.407,6.407,0,0,1-2.557-2.937c-.216-.487-.44-.972-.685-1.444A1.548,1.548,0,1,0,37,13.105c.553,1.2,1.122,2.386,1.681,3.579.383.817.107,1.237-.808,1.238-1.441,0-2.881,0-4.322,0a.96.96,0,0,0-1.043,1.158.884.884,0,0,0,.867.828c.428.059.718.234.771.693a.71.71,0,0,1-.829.666,3.309,3.309,0,0,0-.486.017,1,1,0,1,0,.157,1.993c.429,0,.862-.04,1.118.414.054.648-.094.834-.746.937a.962.962,0,0,0-.853,1.158c.117.6.443.844,1.143.85.372,0,.746-.025,1.009.315.177.65,0,.918-.693,1.039a1,1,0,0,0,.247,1.992c1.809,0,3.619,0,5.428,0,.583,0,.757.146.877.716a.736.736,0,0,1-.834.628c-.594-.016-1.188,0-1.767,0-.256.805-.48,1.591-.753,2.358a21.486,21.486,0,0,1-5.74,9,12.277,12.277,0,0,1-17.17-.054,21.321,21.321,0,0,1-5.573-8.642c-.321-.871-.579-1.766-.87-2.661-1.6,0-3.192,0-4.784,0A2.772,2.772,0,0,1,.093,29.222.565.565,0,0,0,0,29.091v-.357a1.663,1.663,0,0,0,.086-.368c0-.918,0-1.836,0-2.754q0-1.564,0-3.128c0-.429.014-.859,0-1.288C.074,20.848.03,20.5,0,20.156V17.744a.674.674,0,0,0,.107-.171,4.4,4.4,0,0,1,2.1-2.757,4.637,4.637,0,0,0,1.808-2.093c.257-.551.506-1.105.781-1.647A2.854,2.854,0,0,1,7.7,9.5a3.1,3.1,0,0,1,1.924,1.01,22.344,22.344,0,0,1,2.754-4.4c.381-.471.551-.511,1.107-.257a.8.8,0,0,1-.047,1.09,23.934,23.934,0,0,0-1.487,2.113,12.858,12.858,0,0,0-1.817,4.08,10.094,10.094,0,0,1-.9,2.077c-.2.441-.4.88-.622,1.357h1.913c.434-1.259.8-2.5,1.284-3.691a17.029,17.029,0,0,1,4.929-7,9.128,9.128,0,0,1,8.624-1.983,11.159,11.159,0,0,1,3.913,2.158l.116.1.272.246a.611.611,0,0,0,.074.108,17.017,17.017,0,0,1,3.906,5.69c.605,1.411,1.072,2.881,1.618,4.372H37.17a27.1,27.1,0,0,1-2.039-4.949,9.667,9.667,0,0,0-.925-1.873,16.214,16.214,0,0,0-6.089-6.42,10.582,10.582,0,0,0-11.769.838l-.1.08.007-.007-.154.112-.3.231a1.843,1.843,0,0,0-.279.2.826.826,0,0,1-1.132.162c-.279-.578-.25-.741.229-1.153.214-.184.432-.365.659-.533A11.973,11.973,0,0,1,26.252,1.085,14.306,14.306,0,0,1,33.326,6.06,22.19,22.19,0,0,1,36.117,10.5a1.452,1.452,0,0,0,.124-.093,2.885,2.885,0,0,1,4.8.856c.2.428.413.855.6,1.29a5.138,5.138,0,0,0,2.105,2.41,4.133,4.133,0,0,1,1.783,2.264c.07.2.139.4.208.6v2.234a2.232,2.232,0,0,0-.085.417c-.009.577,0,1.154,0,1.731q0,1.564,0,3.129c0,.993-.009,1.985,0,2.978a2.048,2.048,0,0,0,.086.413M29.655,40.347c-.114.093-.23.185-.342.28A9.831,9.831,0,0,1,23.285,43.2a9.623,9.623,0,0,1-7.129-2.829,19.1,19.1,0,0,1-4.97-8.119c-.328-.96-.324-.962-1.357-.909H9.28a2.123,2.123,0,0,0,.039.279,23.454,23.454,0,0,0,3.106,6.829A15.1,15.1,0,0,0,15.8,42.161a10.768,10.768,0,0,0,14.147.017,19.24,19.24,0,0,0,5.689-8.233c.327-.839.586-1.705.89-2.6h-1.15c-.411-.1-.577.079-.711.473-.343,1.008-.71,2.012-1.143,2.984a18.145,18.145,0,0,1-3.869,5.548m-28.3-21.8c0,3.339-.01,6.678.013,10.017a2.8,2.8,0,0,0,.331.883,1.255,1.255,0,0,0,1.105.538c.964,0,1.928,0,2.892,0q2.915,0,5.829,0a1,1,0,0,0,.245-1.992c-.689-.12-.869-.39-.69-1.041.264-.339.637-.311,1.01-.314.7,0,1.025-.254,1.142-.85a.961.961,0,0,0-.854-1.157c-.652-.1-.8-.288-.745-.938.257-.453.69-.415,1.118-.413a1,1,0,0,0,.331-1.963,3.661,3.661,0,0,0-.662-.036A.727.727,0,0,1,11.6,20.6c.052-.459.343-.633.771-.693a.882.882,0,0,0,.866-.829.959.959,0,0,0-1.044-1.158c-1.426-.007-2.852,0-4.277,0-.977,0-1.244-.409-.835-1.28.554-1.179,1.118-2.355,1.664-3.538a1.491,1.491,0,0,0-.611-2.063A1.508,1.508,0,0,0,6,11.649a11.4,11.4,0,0,0-.513,1.083A7.028,7.028,0,0,1,2.6,16.177a2.6,2.6,0,0,0-1.245,2.37M12.284,31.3c1.1,3.382,2.661,6.484,5.548,8.722a7.831,7.831,0,0,0,10.413-.253A15.843,15.843,0,0,0,32.42,34c.4-.885.715-1.805,1.067-2.7-1.758-.839-2.18-2.059-1.343-3.721a2.49,2.49,0,0,1-.983-1.53,2.555,2.555,0,0,1,.392-1.821,2.383,2.383,0,0,1-1.028-1.957,2.419,2.419,0,0,1,1.039-1.957,2.394,2.394,0,0,1,2.219-3.755c-.252-.791-.468-1.575-.751-2.335a16.806,16.806,0,0,0-4.82-7.272,7.841,7.841,0,0,0-10.38-.237,15.375,15.375,0,0,0-4.7,6.452c-.462,1.1-.809,2.238-1.227,3.412a2.408,2.408,0,0,1,2.4,1.191,2.357,2.357,0,0,1-.124,2.553,2.384,2.384,0,0,1,.021,3.913c.7,1.454.566,2.179-.609,3.377.862,1.537.432,2.776-1.311,3.683" transform="translate(0 -0.574)" fill="#030303"/><path d="M383.348,211.877a2.061,2.061,0,0,1-.087-.413c0-.992,0-1.985,0-2.978.027,0,.055,0,.082,0Z" transform="translate(-337.609 -183.717)" fill="#313131"/><path d="M.087,184.482q0,1.564,0,3.128-.041,0-.082,0v-3.127l.086,0" transform="translate(-0.001 -162.574)" fill="#1f1f1f"/><path d="M0,210.732c.027,0,.055,0,.082,0,0,.918.009,1.836,0,2.754a1.663,1.663,0,0,1-.086.368v-3.127" transform="translate(0 -185.699)" fill="#313131"/><path d="M383.36,185.356c-.027,0-.055,0-.082,0q0-1.564,0-3.128l.087,0Z" transform="translate(-337.62 -160.592)" fill="#1e1e1e"/><path d="M.087,167.3,0,167.3v-2.323c.03.346.074.692.085,1.038.014.429,0,.858,0,1.287" transform="translate(-0.001 -145.394)" fill="#0f0f0f"/><path d="M383.338,166.371l-.087,0c0-.577-.007-1.154,0-1.731a2.241,2.241,0,0,1,.085-.416Z" transform="translate(-337.598 -144.734)" fill="#0e0e0e"/><path d="M268.373,96.5a.96.96,0,0,1,1.043-1.158c1.44-.007,2.881,0,4.322,0,.915,0,1.19-.421.808-1.238-.559-1.194-1.128-2.383-1.681-3.579a1.493,1.493,0,0,1,.611-2.063,1.2,1.2,0,0,1,1.06.626,13.611,13.611,0,0,1,.965,1.854,5.08,5.08,0,0,0,2.364,2.678,5.033,5.033,0,0,1,2.384,2.347c0,3.338.01,6.677-.013,10.015a2.811,2.811,0,0,1-.33.884c-3.632-.106-7.271.224-10.9-.177a.944.944,0,0,1,.825-1.276c.691-.121.869-.389.692-1.039.146-.574-.1-.9-.707-.9a2.4,2.4,0,0,1-1.445-.269.962.962,0,0,1,.853-1.158c.652-.1.8-.288.746-.937.054-.781-.1-.916-.874-.959a9.487,9.487,0,0,1-1.327-.258.97.97,0,0,1,.925-1.19,3.325,3.325,0,0,1,.486-.017.71.71,0,0,0,.829-.666c.371-.093.65-.309.581-.71s-.4-.52-.8-.553a13.744,13.744,0,0,1-1.418-.257" transform="translate(-235.866 -77.992)" fill="#fddccd"/><path d="M21.61,98.025a.727.727,0,0,0,.827.677,3.671,3.671,0,0,1,.662.036.962.962,0,0,1,.751,1.16,9.442,9.442,0,0,1-1.327.258c-.774.043-.929.179-.874.958-.054.65.093.835.745.938a.961.961,0,0,1,.854,1.157c-.474.089-.944.21-1.422.258-.63.062-.892.357-.73.907-.178.65,0,.921.69,1.041a.943.943,0,0,1,.827,1.274,7.005,7.005,0,0,1-1.088.172c-3.27.013-6.54.007-9.81.007a2.8,2.8,0,0,1-.331-.883c-.023-3.339-.013-6.678-.013-10.017a4.846,4.846,0,0,1,2.387-2.342,4.467,4.467,0,0,0,1.967-1.939c.392-.731.736-1.487,1.119-2.223a1.522,1.522,0,0,1,1.3-1,1.491,1.491,0,0,1,.611,2.063c-.546,1.183-1.11,2.358-1.664,3.538-.409.871-.142,1.28.835,1.28,1.426,0,2.852,0,4.277,0A.958.958,0,0,1,23.247,96.5a13.745,13.745,0,0,1-1.418.258c-.4.033-.73.146-.8.554s.21.617.581.71" transform="translate(-10.014 -77.994)" fill="#fddccd"/><path d="M87.048,14.145a10.582,10.582,0,0,1,11.769-.838,16.216,16.216,0,0,1,6.089,6.42,9.66,9.66,0,0,1,.925,1.873,27.1,27.1,0,0,0,2.039,4.949h-1.524c-.3-.99-.546-2-.9-2.968a17.356,17.356,0,0,0-4.667-7,1.657,1.657,0,0,0-.42-.2l-.272-.246-.116-.1a11.161,11.161,0,0,0-3.913-2.158,9.128,9.128,0,0,0-8.624,1.983,17.027,17.027,0,0,0-4.929,7c-.485,1.192-.85,2.432-1.284,3.69h-.959a3.014,3.014,0,0,1,.065-.48c.327-1.092.618-2.2,1.006-3.268A20.216,20.216,0,0,1,86.232,15a2.046,2.046,0,0,0,.267-.434l.3-.231.154-.112-.007.007.1-.08" transform="translate(-70.699 -10.555)" fill="#b55a72"/><path d="M108.067,258.754h1.15c-.3.9-.564,1.763-.89,2.6a19.242,19.242,0,0,1-5.689,8.233,10.768,10.768,0,0,1-14.147-.017,4.465,4.465,0,0,0-.3-.466c-.768-.92-1.6-1.789-2.3-2.759a21,21,0,0,1-2.741-5.423c-.246-.711-.422-1.446-.629-2.17,1.034-.053,1.029-.051,1.357.909a19.1,19.1,0,0,0,4.97,8.119,9.624,9.624,0,0,0,7.129,2.829A9.831,9.831,0,0,0,102,268.039c.112-.1.228-.187.342-.28.12-.045.277-.055.354-.139.8-.871,1.661-1.7,2.371-2.645a19.8,19.8,0,0,0,3-6.221" transform="translate(-72.688 -227.985)" fill="#b55a72"/><path d="M322.522,94.356a5.032,5.032,0,0,0-2.384-2.347,5.08,5.08,0,0,1-2.364-2.678,13.613,13.613,0,0,0-.965-1.854,1.2,1.2,0,0,0-1.06-.627,1.5,1.5,0,0,1,2.143.648c.246.472.469.957.685,1.444a6.408,6.408,0,0,0,2.557,2.937,2.741,2.741,0,0,1,1.388,2.477" transform="translate(-278.139 -76.382)" fill="#f9c7ba"/><path d="M18.161,86.878a1.522,1.522,0,0,0-1.3,1c-.382.736-.727,1.492-1.118,2.223a4.467,4.467,0,0,1-1.967,1.939,4.846,4.846,0,0,0-2.387,2.343,2.6,2.6,0,0,1,1.245-2.37,7.028,7.028,0,0,0,2.889-3.445,11.423,11.423,0,0,1,.513-1.083,1.508,1.508,0,0,1,2.125-.607" transform="translate(-10.032 -76.41)" fill="#f9c7ba"/><path d="M278.231,241.487c3.627.4,7.267.072,10.9.178a1.394,1.394,0,0,1-1.282.543c-.627-.006-.767.108-.938.707l-1.3.007c-.12-.57-.294-.715-.877-.716-1.809,0-3.619,0-5.428,0a.947.947,0,0,1-1.072-.716" transform="translate(-245.09 -212.791)" fill="#fbc8bc"/><path d="M79.445,34.211a2.046,2.046,0,0,1-.267.434,20.217,20.217,0,0,0-4.9,7.807c-.388,1.07-.679,2.176-1.006,3.268a3,3,0,0,0-.065.48h-.954c.219-.478.423-.916.622-1.357a10.089,10.089,0,0,0,.9-2.077,12.863,12.863,0,0,1,1.817-4.08,23.936,23.936,0,0,1,1.487-2.113.8.8,0,0,0,.047-1.09l.909-.907a.826.826,0,0,0,1.132-.163,1.845,1.845,0,0,1,.279-.2" transform="translate(-63.645 -30.204)" fill="#a3314f"/><path d="M14.279,241.655c3.27,0,6.54.006,9.81-.007a7,7,0,0,0,1.088-.172.946.946,0,0,1-1.071.717q-2.914,0-5.829,0c-.964,0-1.928,0-2.892,0a1.255,1.255,0,0,1-1.105-.538" transform="translate(-12.578 -212.782)" fill="#fcc9bc"/><path d="M78.459,258.887c.208.724.383,1.46.629,2.17a21.006,21.006,0,0,0,2.741,5.423c.7.97,1.533,1.839,2.3,2.759a4.413,4.413,0,0,1,.3.466,15.1,15.1,0,0,1-3.378-3.711,23.457,23.457,0,0,1-3.105-6.829,2.107,2.107,0,0,1-.038-.279Z" transform="translate(-68.63 -228.119)" fill="#a3314f"/><path d="M248.973,49.468a1.661,1.661,0,0,1,.42.2,17.358,17.358,0,0,1,4.667,7c.358.968.606,1.977.9,2.967h-.394c-.546-1.491-1.012-2.961-1.618-4.372a17.017,17.017,0,0,0-3.906-5.69.617.617,0,0,1-.074-.108" transform="translate(-219.317 -43.644)" fill="#a3314f"/><path d="M254.69,258.682a19.8,19.8,0,0,1-3,6.221c-.711.942-1.569,1.773-2.371,2.645-.077.084-.234.095-.354.139a18.143,18.143,0,0,0,3.869-5.548c.433-.972.8-1.976,1.143-2.984.134-.394.3-.575.711-.473" transform="translate(-219.311 -227.914)" fill="#a3314f"/><path d="M92.977,157.489c-.371-.093-.65-.309-.581-.71s.4-.52.8-.553a13.743,13.743,0,0,0,1.418-.258.881.881,0,0,1-.866.829c-.428.06-.718.233-.771.693" transform="translate(-81.381 -137.459)" fill="#fac8bb"/><path d="M272.9,155.971a13.741,13.741,0,0,0,1.418.257c.4.033.73.146.8.553s-.21.617-.581.71c-.053-.458-.342-.633-.771-.693a.884.884,0,0,1-.867-.828" transform="translate(-240.399 -137.461)" fill="#fac8bb"/><path d="M92.687,213.429c-.162-.55.1-.845.73-.907.478-.047.948-.169,1.422-.258-.117.6-.442.846-1.142.85-.372,0-.746-.024-1.01.314" transform="translate(-81.606 -187.049)" fill="#f3c2b6"/><path d="M272.9,212.269a2.4,2.4,0,0,0,1.446.269c.608,0,.853.322.707.9-.263-.34-.637-.312-1.009-.315-.7-.005-1.026-.255-1.143-.85" transform="translate(-240.392 -187.053)" fill="#f3c2b6"/><path d="M97.6,185.683c-.055-.78.1-.915.874-.958a9.481,9.481,0,0,0,1.327-.258.97.97,0,0,1-1.082.8c-.429,0-.861-.04-1.118.413" transform="translate(-85.968 -162.563)" fill="#f9c7ba"/><path d="M267.847,184.466a9.492,9.492,0,0,0,1.327.258c.773.043.928.178.874.959-.256-.453-.689-.416-1.118-.414a.969.969,0,0,1-1.083-.8" transform="translate(-235.943 -162.562)" fill="#f9c7ba"/><path d="M135.3,31.332l-.154.112.154-.112" transform="translate(-119.048 -27.668)" fill="#9964cf"/><path d="M136.48,30.713l-.1.08.1-.08" transform="translate(-120.131 -27.123)" fill="#9964cf"/><path d="M245.715,46.57l.116.1-.116-.1" transform="translate(-216.447 -41.091)" fill="#9964cf"/><path d="M133.636,198.032h-1.553c-.032.116-.07.239-.1.364a1.686,1.686,0,0,1-2.432,1.168q-1.978-1.068-3.893-2.251a1.682,1.682,0,0,1,.015-2.876q1.9-1.165,3.856-2.228a1.688,1.688,0,0,1,2.448,1.133c.028.115.053.231.084.37h1.549c.015-.018.044-.037.049-.061a1.751,1.751,0,0,1,2.87-1.255c1.092.633,2.187,1.259,3.275,1.9a1.733,1.733,0,0,1-.013,3.187q-1.69.991-3.394,1.959a1.721,1.721,0,0,1-2.714-1.211c-.013-.056-.027-.111-.048-.2m5.945-2.166a3.037,3.037,0,0,0-.437-.4c-1-.589-2.005-1.165-3.01-1.746s-1.082-.538-1.125.611c-.018.479-.225.732-.7.743q-1.45.033-2.9,0c-.48-.011-.69-.261-.706-.739-.005-.149,0-.3,0-.447-.02-.5-.272-.655-.693-.415q-1.743.994-3.475,2.009c-.427.25-.426.554,0,.8q1.716,1,3.444,1.975c.448.254.7.1.723-.425,0-.1,0-.208,0-.313.008-.593.2-.822.791-.841.743-.024,1.488-.016,2.232-.016,1.151,0,1.211.058,1.289,1.209.032.468.282.634.68.411q1.77-.993,3.52-2.021a2.156,2.156,0,0,0,.37-.4" transform="translate(-109.984 -169.201)" fill="#040303"/><path d="M149.581,205.837a2.156,2.156,0,0,1-.37.4q-1.753,1.023-3.52,2.021c-.4.223-.649.057-.68-.411-.078-1.151-.137-1.209-1.289-1.209-.744,0-1.489-.008-2.232.016-.587.019-.783.248-.791.841,0,.1,0,.209,0,.313-.023.523-.275.679-.723.425q-1.727-.978-3.444-1.975c-.428-.249-.429-.553,0-.8q1.732-1.014,3.475-2.009c.421-.24.674-.082.693.415.006.149,0,.3,0,.447.016.477.225.728.706.739q1.45.032,2.9,0c.477-.011.684-.264.7-.743.043-1.149.121-1.191,1.125-.611s2.011,1.156,3.01,1.746a3.037,3.037,0,0,1,.437.4" transform="translate(-119.984 -179.173)" fill="#d9606b"/></g></g></g></svg>