<svg xmlns="http://www.w3.org/2000/svg" xmlns:xlink="http://www.w3.org/1999/xlink" width="150" height="151" viewBox="0 0 150 151"><defs><filter id="a" x="0" y="0" width="150" height="151" filterUnits="userSpaceOnUse"><feOffset dy="6" input="SourceAlpha"/><feGaussianBlur stdDeviation="5" result="b"/><feFlood flood-opacity="0.329"/><feComposite operator="in" in2="b"/><feComposite in="SourceGraphic"/></filter></defs><g transform="translate(-1041.167 -3996.063)"><g transform="matrix(1, 0, 0, 1, 1041.17, 3996.06)" filter="url(#a)"><ellipse cx="60" cy="60.5" rx="60" ry="60.5" transform="translate(15 9)" fill="#ffb500"/></g><g transform="translate(1084.236 4033.338)"><path d="M13.4,174.485c-.51.718-.814.811-1.608.446a11.024,11.024,0,0,1-5.8-6.716,19.168,19.168,0,0,1-.751-3.157,2.378,2.378,0,0,1,1.441-2.714,14.47,14.47,0,0,1,9.554-.814c1.3.335,1.589.87,1.214,2.142,0,.051,0,.1.006.152l.1-.054c.55-.063,1.1-.11,1.649-.192a1.466,1.466,0,0,1,1.452.6,7.325,7.325,0,0,1,1.634,5.746,2.19,2.19,0,0,0,1.156,2.53,7.648,7.648,0,0,1,3.521,6.669c.019.846,0,1.692,0,2.6.674-.46,1.29-.86,1.879-1.3a.585.585,0,0,0,.168-.473c-.567-3.666,1.534-6.424,5.5-6.955a10.385,10.385,0,0,1,5.519.734A1.948,1.948,0,0,1,41.375,176a9,9,0,0,1-3.041,6.019,6.067,6.067,0,0,1-7.682.4c-.21-.144-.415-.3-.607-.434a4.952,4.952,0,0,0-3.061,4.4c-.029,1.045-.005,2.091-.005,3.174.612.147,1.241.248,1.836.449a9.242,9.242,0,0,1,6.357,7,1.635,1.635,0,0,1-.991,2.228H17.77a1.663,1.663,0,0,1-.944-2.22,9.321,9.321,0,0,1,7.577-7.3c.188-.034.376-.074.641-.127v-.667c0-2.967-.07-5.937.02-8.9.094-3.1-1.1-5.365-3.732-6.676-1.314.67-2.529,1.358-3.8,1.914-.883.385-1.16.215-1.68-.6.058-.685.45-1,1.095-1.232a27.57,27.57,0,0,0,2.608-1.237c-.846-.541-1.509-.967-2.173-1.391-1.42-.907-2.846-1.806-4.26-2.721-.68-.44-.814-1.135-.317-1.6a1.026,1.026,0,0,1,1.4,0q2.772,1.783,5.558,3.543c.167.106.342.2.535.308a6.191,6.191,0,0,0-.758-4.449.669.669,0,0,0-.8-.315c-.691.129-1.388.229-2.085.318a1.3,1.3,0,0,1-1.441-1.87c.08-.214.158-.428.249-.674a2.553,2.553,0,0,0-.327-.113,13.134,13.134,0,0,0-6.139.312c-2.043.59-2.1.645-1.59,2.681.776,3.117,2.321,5.67,5.386,7.051a1.06,1.06,0,0,1,.619,1.21m13.341,17.08c-4.585-.554-7.743,3.276-7.918,5.732H33.213a7.282,7.282,0,0,0-6.469-5.732m5.055-10.7a4.124,4.124,0,0,0,3.138.741,6.3,6.3,0,0,0,4.505-5.733.553.553,0,0,0-.28-.411,7.907,7.907,0,0,0-6.4.07,3.337,3.337,0,0,0-1.838,3.575c.23-.136.448-.257.659-.39,1.12-.7,2.231-1.419,3.361-2.1a.938.938,0,0,1,1.335.309.954.954,0,0,1-.3,1.295c-.135.1-.285.186-.429.278L31.8,180.865" transform="translate(-5.198 -133.587)" fill="#030303"/><path d="M155.617,8.487a1.052,1.052,0,0,1,1.479.43,20.014,20.014,0,0,1-32.054,23.966,1.138,1.138,0,0,0-1.193-.45c-2.037.221-4.075.437-6.117.6a1.5,1.5,0,0,1-1.7-1.778,2.291,2.291,0,0,1,.634-1.067c1.414-1.424,2.855-2.823,4.306-4.21a.963.963,0,0,0,.327-1.046A20,20,0,0,1,137.44.908,19.51,19.51,0,0,1,153.51,5.123c.662.526.711.825.335,1.6a1.119,1.119,0,0,1-1.55-.1,16.937,16.937,0,0,0-6.634-3.407l-.006,0-.286-.068a16.456,16.456,0,0,0-8.535-.158,18.083,18.083,0,0,0-13.614,21.76,2.369,2.369,0,0,1-.728,2.427c-1.16,1.1-2.294,2.235-3.437,3.356-.126.124-.235.265-.443.5,1.8-.181,3.454-.314,5.1-.527A2.72,2.72,0,0,1,126.5,31.62a17.621,17.621,0,0,0,10.2,6.622,16.683,16.683,0,0,0,8.415-.055l.411-.108.008.008c.126-.021.254-.031.377-.065A18.261,18.261,0,0,0,158.946,21.5a18.029,18.029,0,0,0-3.359-11.374c-.514-.725-.5-1.008.03-1.635" transform="translate(-97.024 -0.586)" fill="#040303"/><path d="M22.759,183.869a1.06,1.06,0,0,0-.619-1.21c-3.065-1.38-4.61-3.934-5.386-7.051-.507-2.036-.453-2.091,1.59-2.681a13.133,13.133,0,0,1,6.139-.312,2.577,2.577,0,0,1,.327.113c-.091.247-.169.461-.249.674A1.3,1.3,0,0,0,26,175.272c.7-.089,1.395-.189,2.085-.318a.67.67,0,0,1,.8.315,6.191,6.191,0,0,1,.758,4.449c-.192-.11-.368-.2-.535-.308q-2.781-1.768-5.558-3.543a1.026,1.026,0,0,0-1.4,0c-.5.462-.363,1.158.317,1.6,1.415.915,2.84,1.815,4.261,2.721.664.424,1.327.849,2.172,1.391a27.5,27.5,0,0,1-2.608,1.236c-.645.229-1.037.546-1.095,1.232l-2.444-.174" transform="translate(-14.553 -142.971)" fill="#ced371"/><path d="M298.583,21.215c-.534.627-.544.909-.03,1.635a18.029,18.029,0,0,1,3.359,11.374,18.261,18.261,0,0,1-13.035,16.525,3.782,3.782,0,0,1-.377.065,3.318,3.318,0,0,1,.481-.37,19,19,0,0,0,6.709-5.593A18.6,18.6,0,0,0,299.179,29.6a18.7,18.7,0,0,0-9.034-12.674c-.514-.313-1.011-.653-1.516-.981a16.938,16.938,0,0,1,6.634,3.407,1.119,1.119,0,0,0,1.55.1l1.771,1.767" transform="translate(-239.99 -13.313)" fill="#a3314f"/><path d="M96.68,344.65H84.789c.175-2.456,3.333-6.286,7.918-5.732a25.8,25.8,0,0,1,2.452,2.285,6.027,6.027,0,0,1,1.521,3.447" transform="translate(-71.161 -280.94)" fill="#e6ac8b"/><path d="M156.134,247.432l3.752-2.372c.144-.091.294-.174.429-.278a.954.954,0,0,0,.3-1.295.938.938,0,0,0-1.335-.309c-1.13.685-2.241,1.4-3.361,2.1-.211.132-.429.254-.659.39A3.337,3.337,0,0,1,157.1,242.1a7.907,7.907,0,0,1,6.4-.07.553.553,0,0,1,.28.411,6.3,6.3,0,0,1-4.505,5.733,4.123,4.123,0,0,1-3.138-.741" transform="translate(-129.533 -200.155)" fill="#ced371"/><path d="M135,344.912a6.026,6.026,0,0,0-1.521-3.447,25.8,25.8,0,0,0-2.452-2.285,7.282,7.282,0,0,1,6.469,5.732Z" transform="translate(-109.483 -281.202)" fill="#dd9772"/><path d="M76.858,176.379l-.1.054c0-.051,0-.1-.006-.152l.1.1" transform="translate(-64.503 -146.196)" fill="#fefefe"/><path d="M158.326,12.505c.505.327,1,.667,1.516.98a18.7,18.7,0,0,1,9.034,12.674,18.594,18.594,0,0,1-3.488,15.252,18.993,18.993,0,0,1-6.709,5.593,3.3,3.3,0,0,0-.481.37l-.008-.008-.411.109a16.685,16.685,0,0,1-8.416.055,17.62,17.62,0,0,1-10.2-6.622,2.72,2.72,0,0,0-2.786-1.111c-1.647.213-3.3.345-5.1.527.207-.236.317-.377.443-.5,1.143-1.122,2.277-2.252,3.437-3.356a2.37,2.37,0,0,0,.729-2.427A18.082,18.082,0,0,1,149.5,12.281a16.454,16.454,0,0,1,8.534.157l.286.068ZM138.072,29.872A15.435,15.435,0,1,0,153.647,14.5a15.5,15.5,0,0,0-15.575,15.374" transform="translate(-109.688 -9.876)" fill="#b55a72"/><path d="M286.056,219.647l.411-.109-.411.109" transform="translate(-237.964 -182.046)" fill="#fb636e"/><path d="M287.826,15.622l-.286-.068.286.068" transform="translate(-239.193 -12.991)" fill="#fb636e"/><path d="M170.964,42.957a15.435,15.435,0,1,1,15.41,15.5,15.454,15.454,0,0,1-15.41-15.5m9.046-.144c-.484-.308-.8-.144-1.128.222-.513.572-1.074,1.1-1.627,1.636a.963.963,0,1,1-1.363-1.341,25.648,25.648,0,0,1,2.148-2.108,1.947,1.947,0,0,1,1.477-.5c1.04.377,1.565-.063,2.033-.846.04-.066.1-.121.059-.074l-5.486-5.494A13.4,13.4,0,0,0,177.6,53.235c5.9,5.085,13.877,3.627,17.545-.041l-5.433-5.441-1.246.964c.049.191.086.379.146.558a2.055,2.055,0,0,1-.626,2.369c-.663.6-1.268,1.27-1.913,1.893a.96.96,0,1,1-1.358-1.347c.548-.569,1.092-1.146,1.682-1.67.4-.355.5-.687.195-1.125a5.726,5.726,0,0,1-6.581-6.582m2.43-5.205a6.66,6.66,0,0,1,.727-1.522,28.7,28.7,0,0,1,2.112-2.145.966.966,0,1,1,1.335,1.374c-.536.551-1.066,1.112-1.637,1.625-.393.353-.521.691-.205,1.128h1.966a3.893,3.893,0,0,1,2.555-2.8c-.517-1.329.365-2.074,1.2-2.834a.934.934,0,0,1,1.373-.016.963.963,0,0,1-.031,1.38c-.127.144-.269.274-.4.412-.505.52-.429.855.236,1.081a3.776,3.776,0,0,1,2.455,2.427c.256.722.558.8,1.108.263.122-.119.239-.245.365-.359a.973.973,0,0,1,1.425-.047.953.953,0,0,1-.081,1.421c-.748.834-1.521,1.606-2.794,1.145a3.925,3.925,0,0,1-2.793,2.557v1.972a.791.791,0,0,0,1.131-.23c.542-.6,1.131-1.165,1.721-1.722a.95.95,0,1,1,1.355,1.331c-.449.486-.927.945-1.4,1.412-.7.69-1.3,1.54-2.387,1.367l4.917,4.922A13.469,13.469,0,0,0,177.649,32.8l4.792,4.808m.611,3.552a3.672,3.672,0,1,0,5.181,5.2l-5.181-5.2m9.483-2.132-.159-.1a1.867,1.867,0,0,0-1.394-1.839,1.928,1.928,0,0,0-2.243,1.039.606.606,0,0,0,.217.907,6.86,6.86,0,0,1,1.291,1.219c.539.639.815.746,1.411.161a6.955,6.955,0,0,0,.878-1.389m-7.47,1.054,4.27,4.286a3.537,3.537,0,0,0-4.27-4.286" transform="translate(-142.58 -22.96)" fill="#040303"/><path d="M189.331,75.352a5.726,5.726,0,0,0,6.581,6.582c.308.439.2.77-.195,1.125-.59.524-1.134,1.1-1.682,1.67a.96.96,0,1,0,1.358,1.347c.645-.623,1.25-1.29,1.913-1.893a2.055,2.055,0,0,0,.626-2.369c-.061-.18-.1-.367-.146-.559l1.246-.964,5.433,5.441c-3.669,3.668-11.648,5.126-17.545.041a13.4,13.4,0,0,1-1.475-18.929l5.486,5.494c.038-.047-.019.008-.059.074-.468.783-.994,1.223-2.033.846a1.946,1.946,0,0,0-1.477.5,25.564,25.564,0,0,0-2.148,2.108.963.963,0,1,0,1.363,1.341c.553-.534,1.114-1.064,1.627-1.636.328-.366.644-.53,1.128-.222" transform="translate(-151.9 -55.499)" fill="#eff8fc"/><path d="M214.795,46.864,210,42.056A13.469,13.469,0,0,1,229.043,61l-4.917-4.922c1.09.173,1.692-.678,2.387-1.367.47-.466.948-.926,1.4-1.412a.95.95,0,1,0-1.355-1.331c-.59.557-1.178,1.12-1.721,1.722a.791.791,0,0,1-1.132.23V51.949a3.925,3.925,0,0,0,2.793-2.556c1.273.461,2.046-.311,2.794-1.145a.953.953,0,0,0,.081-1.421.973.973,0,0,0-1.425.047c-.127.115-.243.24-.365.359-.549.536-.851.459-1.108-.263a3.777,3.777,0,0,0-2.455-2.427c-.665-.226-.741-.562-.236-1.081.134-.138.277-.268.4-.412a.963.963,0,0,0,.03-1.379.934.934,0,0,0-1.373.016c-.831.76-1.714,1.505-1.2,2.834a3.893,3.893,0,0,0-2.554,2.8h-1.966c-.315-.436-.188-.774.205-1.128.571-.513,1.1-1.073,1.637-1.625a.966.966,0,1,0-1.335-1.374,28.674,28.674,0,0,0-2.112,2.145,6.657,6.657,0,0,0-.727,1.521" transform="translate(-174.934 -32.217)" fill="#eff8fc"/><path d="M236.011,106.872l5.181,5.2a3.673,3.673,0,1,1-5.181-5.2" transform="translate(-195.539 -88.672)" fill="#ac6b6b"/><path d="M278,84.755a6.958,6.958,0,0,1-.878,1.389c-.6.585-.872.479-1.411-.161a6.858,6.858,0,0,0-1.291-1.219.605.605,0,0,1-.217-.907,1.927,1.927,0,0,1,2.243-1.039,1.867,1.867,0,0,1,1.394,1.839l.159.1" transform="translate(-228.045 -68.687)" fill="#658a95"/><path d="M253.31,100.05a3.537,3.537,0,0,1,4.27,4.286l-4.27-4.286" transform="translate(-210.825 -82.928)" fill="#aa6a6a"/></g></g></svg>