<svg xmlns="http://www.w3.org/2000/svg" xmlns:xlink="http://www.w3.org/1999/xlink" width="610" height="393.345" viewBox="0 0 610 393.345"><defs><clipPath id="a"><rect width="610" height="393.345" fill="none"/></clipPath><clipPath id="c"><rect width="76.59" height="185.15" fill="#b55a72"/></clipPath><clipPath id="d"><rect width="62.048" height="71.399" fill="none"/></clipPath><clipPath id="e"><rect width="3.28" height="3.28" fill="none"/></clipPath><clipPath id="f"><rect width="3.28" height="3.279" fill="none"/></clipPath><clipPath id="g"><rect width="3.28" height="2.951" fill="none"/></clipPath><clipPath id="i"><rect width="17.131" height="27.595" fill="none"/></clipPath><clipPath id="j"><rect width="314.57" height="89.923" fill="none"/></clipPath><clipPath id="k"><rect width="104.222" height="11.275" fill="none"/></clipPath><clipPath id="l"><rect width="20.713" height="21.723" fill="none"/></clipPath><clipPath id="m"><rect width="8.269" height="17.444" fill="none"/></clipPath><clipPath id="o"><rect width="25.332" height="71.976" fill="none"/></clipPath><clipPath id="r"><rect width="9.874" height="67.876" fill="none"/></clipPath></defs><path d="M44.983,321.677l-14.449-7.041-4.791-21.127-4.035.94,3.5,19.959L11.36,306.458l-3.034,2.953,18.329,9.9,18.328,7.29Z" transform="translate(-1.023 -36.071)" fill="#ebebeb"/><path d="M55.3,380.006H44.71l2.741-89.521H58.038Z" transform="translate(-5.495 -35.7)" fill="#ebebeb"/><g clip-path="url(#a)"><path d="M44.569,36.607c0,1.227-28.417,77.282-28.417,77.282l14.209-12.267L9.891,154.779l13.485-15.947L7.482,205.483l7.706-6.951L1.7,245.555l11.559-12.266L1.7,268.453l91.512-5.725L71.541,196.487l13.09,12.267L67.687,160.5l8.669,4.089L56.61,102.44l9.152,5.316Z" transform="translate(-0.209 -4.499)" fill="#e0e0e0"/><path d="M51.017,191.38a5.991,5.991,0,0,1-.453,1.127l-1.43,3.086-5.123,10.648-.225.467-.284-.446a50.407,50.407,0,0,1-3.735-7.048c-.409-.947-.78-1.889-1.1-2.789l.559.018c-2.526,5.464-5,10.224-6.86,13.6-.931,1.69-1.7,3.037-2.252,3.958-.256.416-.468.763-.646,1.052-.153.238-.241.359-.258.352a9.7,9.7,0,0,1,.709-1.482L32,209.906c1.765-3.412,4.165-8.187,6.669-13.648l.309-.673.251.69c.324.892.693,1.825,1.1,2.763a52.592,52.592,0,0,0,3.672,7l-.51.02,5.321-10.578,1.58-3.031a6.475,6.475,0,0,1,.626-1.067" transform="translate(-3.589 -23.52)" fill="#ebebeb"/><path d="M62.97,156.744a3.934,3.934,0,0,1-.516-.821L61.138,153.6c-1.134-1.977-2.794-4.735-4.952-7.818l.523-.061-1.46,4.78-.943,3.04-.211.682-.34-.643c-1.951-3.687-3.641-6.934-4.827-9.267l-1.369-2.752a4.5,4.5,0,0,1-.431-1.022,4.857,4.857,0,0,1,.62.949l1.531,2.691c1.28,2.3,3.037,5.517,5.012,9.2l-.552.039.932-3.043,1.485-4.774.176-.568.347.505a76.666,76.666,0,0,1,4.785,7.935c.524,1.01.914,1.823,1.167,2.387a3.5,3.5,0,0,1,.339.886" transform="translate(-5.791 -17.272)" fill="#ebebeb"/><path d="M48.576,92.582a19.084,19.084,0,0,1-1.615,2.7c-1.067,1.658-2.589,3.959-4.349,6.569l-.4.594-.143-.674c-.161-.756-.326-1.539-.5-2.341-.285-1.384-.559-2.715-.813-3.948l.52.085c-1.633,2.2-3.055,4.075-4.082,5.4a15.678,15.678,0,0,1-1.716,2.057,14.651,14.651,0,0,1,1.416-2.216c.944-1.366,2.3-3.279,3.9-5.493l.388-.537.132.622c.263,1.232.546,2.561.842,3.944.167.8.329,1.586.486,2.342L42.1,101.6c1.781-2.6,3.367-4.869,4.524-6.483a20.276,20.276,0,0,1,1.947-2.538" transform="translate(-4.36 -11.378)" fill="#ebebeb"/><path d="M521.9,321.677l-14.449-7.041-4.791-21.127-4.035.94,3.5,19.959-13.848-7.951-3.034,2.953,18.329,9.9L521.9,326.6Z" transform="translate(-59.635 -36.071)" fill="#ebebeb"/><path d="M532.213,380.006H521.626l2.74-89.521h10.588Z" transform="translate(-64.106 -35.7)" fill="#ebebeb"/><path d="M521.485,36.607c0,1.227-28.416,77.282-28.416,77.282l14.208-12.267-20.47,53.157,13.485-15.947L484.4,205.483l7.706-6.951-13.485,47.023,11.559-12.266-11.559,35.165,91.512-5.725-21.674-66.241,13.09,12.267L544.6,160.5l8.669,4.089L533.526,102.44l9.152,5.316Z" transform="translate(-58.821 -4.499)" fill="#e0e0e0"/><path d="M527.933,191.38a6.121,6.121,0,0,1-.454,1.127l-1.43,3.086-5.123,10.648-.225.467-.284-.446a50.416,50.416,0,0,1-3.735-7.048c-.409-.947-.78-1.889-1.1-2.789l.559.018c-2.526,5.464-5,10.224-6.86,13.6-.931,1.69-1.7,3.037-2.252,3.958-.256.416-.468.763-.646,1.052-.153.238-.241.359-.258.352a9.7,9.7,0,0,1,.709-1.482l2.088-4.018c1.764-3.412,4.164-8.187,6.669-13.648l.309-.673.251.69c.324.892.693,1.825,1.1,2.763a52.591,52.591,0,0,0,3.672,7l-.51.02c2.134-4.243,3.974-7.9,5.321-10.578.649-1.244,1.177-2.259,1.58-3.031a6.359,6.359,0,0,1,.627-1.067" transform="translate(-62.2 -23.52)" fill="#ebebeb"/><path d="M539.886,156.744a3.937,3.937,0,0,1-.516-.821l-1.316-2.323c-1.134-1.977-2.794-4.735-4.952-7.818l.523-.061-1.46,4.78-.943,3.04-.211.682-.34-.643c-1.951-3.687-3.641-6.934-4.827-9.267l-1.369-2.752a4.5,4.5,0,0,1-.431-1.022,4.859,4.859,0,0,1,.62.949l1.531,2.691c1.28,2.3,3.037,5.517,5.012,9.2l-.552.039.932-3.043,1.485-4.774.176-.568.347.505a76.661,76.661,0,0,1,4.785,7.935c.524,1.01.914,1.823,1.167,2.387a3.449,3.449,0,0,1,.339.886" transform="translate(-64.403 -17.272)" fill="#ebebeb"/><path d="M525.491,92.582a19.086,19.086,0,0,1-1.615,2.7c-1.067,1.658-2.589,3.959-4.349,6.569l-.4.594-.143-.674c-.161-.756-.326-1.539-.5-2.341-.285-1.384-.559-2.715-.813-3.948l.52.085c-1.633,2.2-3.055,4.075-4.082,5.4a15.685,15.685,0,0,1-1.716,2.057,14.651,14.651,0,0,1,1.416-2.216c.944-1.366,2.3-3.279,3.9-5.493l.388-.537.132.622c.263,1.232.546,2.561.842,3.944.166.8.329,1.586.486,2.342l-.543-.081c1.781-2.6,3.367-4.869,4.524-6.483a20.278,20.278,0,0,1,1.947-2.538" transform="translate(-62.971 -11.378)" fill="#ebebeb"/><path d="M624.2,331.506l-12.444-6.065-4.127-18.2-3.474.81,3.013,17.191L595.235,318.4l-2.612,2.543,15.786,8.527,15.786,6.279Z" transform="translate(-72.831 -37.759)" fill="#ebebeb"/><path d="M633.079,381.746H623.96l2.36-77.1h9.12Z" transform="translate(-76.683 -37.439)" fill="#ebebeb"/><path d="M623.839,85.973c0,1.057-24.476,66.564-24.476,66.564L611.6,141.972,593.97,187.756l11.615-13.735L591.9,231.427l6.638-5.987-11.615,40.5,9.956-10.566-9.956,30.288,78.82-4.931L647.07,223.679l11.274,10.566-14.593-41.559,7.468,3.522L634.21,142.676l7.882,4.578Z" transform="translate(-72.13 -10.566)" fill="#e0e0e0"/><path d="M629.393,219.28a5.349,5.349,0,0,1-.39.971c-.315.678-.726,1.567-1.232,2.657l-4.412,9.172-.195.4-.246-.386a43.527,43.527,0,0,1-3.216-6.07c-.352-.816-.672-1.627-.951-2.4l.482.015c-2.176,4.707-4.3,8.807-5.909,11.717-.8,1.455-1.466,2.616-1.939,3.408-.221.359-.4.658-.557.907a1.255,1.255,0,0,1-.222.3,8.2,8.2,0,0,1,.61-1.277l1.8-3.461c1.519-2.938,3.586-7.051,5.744-11.755l.265-.579.218.595c.278.767.6,1.572.944,2.38a45.449,45.449,0,0,0,3.164,6.026l-.439.018,4.584-9.111c.558-1.071,1.015-1.945,1.36-2.611a5.388,5.388,0,0,1,.54-.918" transform="translate(-75.041 -26.949)" fill="#ebebeb"/><path d="M639.688,189.447a3.4,3.4,0,0,1-.445-.707l-1.133-2c-.976-1.7-2.407-4.079-4.264-6.733l.45-.054c-.393,1.289-.818,2.678-1.258,4.117l-.812,2.618-.182.589-.293-.554c-1.681-3.176-3.137-5.972-4.158-7.982l-1.18-2.37a3.849,3.849,0,0,1-.371-.881,4.254,4.254,0,0,1,.534.818c.35.614.79,1.388,1.318,2.317,1.1,1.977,2.615,4.752,4.316,7.919l-.475.035.8-2.621c.446-1.438.878-2.825,1.279-4.113l.152-.489.3.436a65.945,65.945,0,0,1,4.122,6.834c.451.869.787,1.57,1,2.055a3,3,0,0,1,.292.763" transform="translate(-76.938 -21.567)" fill="#ebebeb"/><path d="M627.289,134.185a16.453,16.453,0,0,1-1.391,2.327c-.919,1.428-2.23,3.41-3.745,5.657l-.345.511-.123-.581c-.139-.652-.281-1.326-.427-2.016-.246-1.192-.482-2.338-.7-3.4l.448.074c-1.408,1.892-2.632,3.51-3.516,4.649a13.281,13.281,0,0,1-1.479,1.771,12.653,12.653,0,0,1,1.22-1.908c.812-1.177,1.981-2.824,3.36-4.731l.333-.462.115.535c.226,1.061.47,2.206.724,3.4l.418,2.017-.467-.07c1.534-2.237,2.9-4.193,3.9-5.583a17.494,17.494,0,0,1,1.677-2.187" transform="translate(-75.705 -16.491)" fill="#ebebeb"/><path d="M125.513,330.325l-11.935-5.817-3.957-17.451-3.332.777,2.89,16.486-11.439-6.567-2.506,2.439,15.14,8.177,15.14,6.022Z" transform="translate(-11.704 -37.736)" fill="#ebebeb"/><path d="M134.033,378.506h-8.746l2.264-73.946H136.3Z" transform="translate(-15.397 -37.429)" fill="#ebebeb"/><path d="M125.171,94.851c0,1.013-23.473,63.837-23.473,63.837l11.737-10.133L96.526,192.464l11.139-13.172L94.537,234.346,100.9,228.6l-11.14,38.843,9.549-10.132-9.549,29.047,75.591-4.728-17.9-54.717,10.812,10.133-14-39.856,7.162,3.378-16.312-51.339,7.559,4.391Z" transform="translate(-11.031 -11.657)" fill="#e0e0e0"/><path d="M130.5,222.7a4.958,4.958,0,0,1-.375.931l-1.181,2.548-4.232,8.8-.186.387-.235-.369a41.747,41.747,0,0,1-3.086-5.822c-.337-.782-.644-1.56-.911-2.3l.462.015c-2.087,4.514-4.128,8.446-5.666,11.237-.769,1.4-1.408,2.509-1.861,3.269l-.533.869c-.126.2-.2.3-.214.29a8.094,8.094,0,0,1,.586-1.224L114.789,238c1.458-2.818,3.441-6.762,5.509-11.273l.255-.555.207.57c.268.737.572,1.507.906,2.282A43.539,43.539,0,0,0,124.7,234.8l-.421.017,4.4-8.738,1.305-2.5a5.321,5.321,0,0,1,.517-.881" transform="translate(-13.823 -27.369)" fill="#ebebeb"/><path d="M140.371,194.087a3.266,3.266,0,0,1-.426-.678l-1.087-1.918c-.937-1.633-2.309-3.911-4.09-6.457l.432-.051c-.377,1.236-.784,2.567-1.206,3.948l-.779,2.511-.175.564-.282-.531c-1.611-3.046-3.008-5.728-3.986-7.654l-1.131-2.273a3.773,3.773,0,0,1-.356-.845,3.994,3.994,0,0,1,.512.784l1.265,2.223c1.057,1.9,2.509,4.557,4.139,7.6l-.455.033c.248-.811.507-1.653.771-2.514.428-1.379.842-2.709,1.226-3.943l.146-.469.287.418a63.192,63.192,0,0,1,3.952,6.554c.433.834.755,1.506.964,1.972a2.851,2.851,0,0,1,.28.732" transform="translate(-15.642 -22.208)" fill="#ebebeb"/><path d="M128.481,141.088a15.949,15.949,0,0,1-1.335,2.231c-.881,1.369-2.139,3.271-3.591,5.426l-.331.49-.119-.557c-.131-.625-.268-1.272-.409-1.933-.236-1.144-.46-2.243-.671-3.262l.43.07c-1.349,1.815-2.523,3.367-3.372,4.458a12.946,12.946,0,0,1-1.417,1.7,12.016,12.016,0,0,1,1.17-1.83c.779-1.129,1.9-2.708,3.222-4.537l.321-.444.11.514c.216,1.017.451,2.116.7,3.258.137.662.271,1.31.4,1.935l-.449-.068c1.472-2.145,2.781-4.021,3.736-5.354a16.418,16.418,0,0,1,1.609-2.1" transform="translate(-14.46 -17.339)" fill="#ebebeb"/><path d="M353.972,30.426c.466-3.386-4.312-6.17-7.9-6.46-1.712-.138-3.49.125-5.112-.441-3.515-1.224-4.918-5.764-8.346-7.211-2.564-1.081-5.514-.118-8,1.132s-4.941,2.824-7.717,3c-2.416.154-5.038-.741-7.151.439-1.574.879-2.4,2.694-3.85,3.764a9.182,9.182,0,0,1-5.033,1.365,14.182,14.182,0,0,0-5.19.848c-1.6.734-2.93,2.43-2.6,4.163Z" transform="translate(-36.011 -1.947)" fill="#f5f5f5"/><path d="M159.281,14.58c.466-3.386-4.312-6.17-7.9-6.46-1.712-.138-3.49.125-5.112-.441-3.514-1.224-4.918-5.764-8.347-7.211-2.564-1.081-5.514-.118-8,1.132s-4.941,2.824-7.717,3c-2.416.154-5.038-.741-7.151.439-1.574.879-2.4,2.694-3.85,3.764a9.18,9.18,0,0,1-5.033,1.365,14.182,14.182,0,0,0-5.19.848c-1.6.734-2.93,2.43-2.6,4.163Z" transform="translate(-12.084 0)" fill="#f5f5f5"/><path d="M663.236,48.693c.466-3.386-4.312-6.17-7.9-6.46-1.712-.138-3.49.124-5.112-.441-3.515-1.224-4.918-5.764-8.347-7.211-2.564-1.081-5.514-.118-8,1.132s-4.941,2.824-7.717,3c-2.416.154-5.038-.741-7.151.439-1.574.879-2.4,2.694-3.851,3.764a9.18,9.18,0,0,1-5.033,1.365,14.181,14.181,0,0,0-5.19.848c-1.6.734-2.93,2.43-2.6,4.163Z" transform="translate(-74.019 -4.192)" fill="#f5f5f5"/><path d="M461.809,58.946c.594-5.024-5.491-9.157-10.063-9.587-2.18-.2-4.445.184-6.511-.655-4.475-1.817-6.263-8.555-10.63-10.7-3.265-1.6-7.023-.176-10.188,1.681s-6.292,4.192-9.829,4.456c-3.075.229-6.415-1.1-9.106.651-2.005,1.305-3.056,4-4.9,5.586-1.808,1.554-4.167,1.883-6.41,2.025s-4.566.168-6.609,1.259a6.233,6.233,0,0,0-3.308,6.178Z" transform="translate(-47.215 -4.585)" fill="#f5f5f5"/></g><g clip-path="url(#a)"><path d="M589.589,395.66c0,.126-131.994.228-294.78.228C131.966,395.888,0,395.786,0,395.66s131.966-.228,294.809-.228c162.786,0,294.78.1,294.78.228" transform="translate(0 -48.597)" fill="#263238"/></g><path d="M256.356,359.94l-1.847-193.485L378.1,106.05l105.144,64.26v189.2Z" transform="translate(-31.278 -13.033)" fill="#a3314f"/><path d="M158.911,367.247H253.37V165.508l-94.459,10.873Z" transform="translate(-19.53 -20.34)" fill="#a3314f"/><path d="M472.555,249.238c0,.126-70.3.228-157,.228-86.731,0-157.016-.1-157.016-.228s70.286-.228,157.016-.228c86.7,0,157,.1,157,.228" transform="translate(-19.484 -30.602)" fill="#263238"/><path d="M472.555,265.578c0,.126-70.3.228-157,.228-86.731,0-157.016-.1-157.016-.228s70.286-.228,157.016-.228c86.7,0,157,.1,157,.228" transform="translate(-19.484 -32.611)" fill="#263238"/><path d="M472.555,281.919c0,.126-70.3.228-157,.228-86.731,0-157.016-.1-157.016-.228s70.286-.228,157.016-.228c86.7,0,157,.1,157,.228" transform="translate(-19.484 -34.619)" fill="#263238"/><path d="M472.555,298.259c0,.126-70.3.228-157,.228-86.731,0-157.016-.1-157.016-.228s70.286-.228,157.016-.228c86.7,0,157,.1,157,.228" transform="translate(-19.484 -36.627)" fill="#263238"/><path d="M472.555,314.6c0,.126-70.3.228-157,.228-86.731,0-157.016-.1-157.016-.228s70.286-.228,157.016-.228c86.7,0,157,.1,157,.228" transform="translate(-19.484 -38.635)" fill="#263238"/><path d="M472.555,330.94c0,.126-70.3.228-157,.228-86.731,0-157.016-.1-157.016-.228s70.286-.228,157.016-.228c86.7,0,157,.1,157,.228" transform="translate(-19.484 -40.643)" fill="#263238"/><path d="M472.555,347.28c0,.126-70.3.228-157,.228-86.731,0-157.016-.1-157.016-.228s70.286-.228,157.016-.228c86.7,0,157,.1,157,.228" transform="translate(-19.484 -42.652)" fill="#263238"/><path d="M472.555,363.621c0,.126-70.3.228-157,.228-86.731,0-157.016-.1-157.016-.228s70.286-.228,157.016-.228c86.7,0,157,.1,157,.228" transform="translate(-19.484 -44.66)" fill="#263238"/><path d="M472.555,379.961c0,.126-70.3.228-157,.228-86.731,0-157.016-.1-157.016-.228s70.286-.228,157.016-.228c86.7,0,157,.1,157,.228" transform="translate(-19.484 -46.668)" fill="#263238"/><path d="M472.555,249.238c0,.126-70.3.228-157,.228-86.731,0-157.016-.1-157.016-.228s70.286-.228,157.016-.228c86.7,0,157,.1,157,.228" transform="translate(-19.484 -30.602)" fill="#263238"/><path d="M472.555,233.886c0,.126-70.3.228-157,.228-86.731,0-157.016-.1-157.016-.228s70.286-.228,157.016-.228c86.7,0,157,.1,157,.228" transform="translate(-19.484 -28.716)" fill="#263238"/><path d="M472.555,233.886c0,.126-70.3.228-157,.228-86.731,0-157.016-.1-157.016-.228s70.286-.228,157.016-.228c86.7,0,157,.1,157,.228" transform="translate(-19.484 -28.716)" fill="#263238"/><path d="M472.555,218.534c0,.126-70.3.229-157,.229-86.731,0-157.016-.1-157.016-.229s70.286-.228,157.016-.228c86.7,0,157,.1,157,.228" transform="translate(-19.484 -26.829)" fill="#263238"/><path d="M472.555,218.534c0,.126-70.3.229-157,.229-86.731,0-157.016-.1-157.016-.229s70.286-.228,157.016-.228c86.7,0,157,.1,157,.228" transform="translate(-19.484 -26.829)" fill="#263238"/><path d="M472.555,203.182c0,.126-70.3.228-157,.228-86.731,0-157.016-.1-157.016-.228s70.286-.228,157.016-.228c86.7,0,157,.1,157,.228" transform="translate(-19.484 -24.942)" fill="#263238"/><path d="M472.555,203.182c0,.126-70.3.228-157,.228-86.731,0-157.016-.1-157.016-.228s70.286-.228,157.016-.228c86.7,0,157,.1,157,.228" transform="translate(-19.484 -24.942)" fill="#263238"/><path d="M472.555,187.831c0,.126-70.3.228-157,.228-86.731,0-157.016-.1-157.016-.228s70.286-.228,157.016-.228c86.7,0,157,.1,157,.228" transform="translate(-19.484 -23.056)" fill="#263238"/><path d="M472.555,187.831c0,.126-70.3.228-157,.228-86.731,0-157.016-.1-157.016-.228s70.286-.228,157.016-.228c86.7,0,157,.1,157,.228" transform="translate(-19.484 -23.056)" fill="#263238"/><path d="M466.558,172.479c0,.126-66.527.228-148.574.228-82.076,0-148.589-.1-148.589-.228s66.513-.228,148.589-.228c82.047,0,148.574.1,148.574.228" transform="translate(-20.818 -21.169)" fill="#263238"/><path d="M449.113,157.127c0,.126-46.352.228-103.517.228-57.185,0-103.528-.1-103.528-.228S288.41,156.9,345.6,156.9c57.165,0,103.517.1,103.517.228" transform="translate(-29.749 -19.282)" fill="#263238"/><path d="M449.113,157.127c0,.126-46.352.228-103.517.228-57.185,0-103.528-.1-103.528-.228S288.41,156.9,345.6,156.9c57.165,0,103.517.1,103.517.228" transform="translate(-29.749 -19.282)" fill="#263238"/><path d="M434.409,141.775c0,.126-43.061.228-96.166.228-53.124,0-96.175-.1-96.175-.228s43.051-.228,96.175-.228c53.105,0,96.166.1,96.166.228" transform="translate(-29.749 -17.396)" fill="#263238"/><path d="M412.865,126.424c0,.126-38.237.228-85.395.228-47.174,0-85.4-.1-85.4-.228s38.229-.228,85.4-.228c47.157,0,85.395.1,85.395.228" transform="translate(-29.749 -15.509)" fill="#263238"/><path d="M412.865,126.424c0,.126-38.237.228-85.395.228-47.174,0-85.4-.1-85.4-.228s38.229-.228,85.4-.228c47.157,0,85.395.1,85.395.228" transform="translate(-29.749 -15.509)" fill="#263238"/><path d="M472.555,265.578c0,.126-70.3.228-157,.228-86.731,0-157.016-.1-157.016-.228s70.286-.228,157.016-.228c86.7,0,157,.1,157,.228" transform="translate(-19.484 -32.611)" fill="#263238"/><path d="M472.555,281.919c0,.126-70.3.228-157,.228-86.731,0-157.016-.1-157.016-.228s70.286-.228,157.016-.228c86.7,0,157,.1,157,.228" transform="translate(-19.484 -34.619)" fill="#263238"/><path d="M472.555,298.259c0,.126-70.3.228-157,.228-86.731,0-157.016-.1-157.016-.228s70.286-.228,157.016-.228c86.7,0,157,.1,157,.228" transform="translate(-19.484 -36.627)" fill="#263238"/><path d="M472.555,314.6c0,.126-70.3.228-157,.228-86.731,0-157.016-.1-157.016-.228s70.286-.228,157.016-.228c86.7,0,157,.1,157,.228" transform="translate(-19.484 -38.635)" fill="#263238"/><path d="M472.555,330.94c0,.126-70.3.228-157,.228-86.731,0-157.016-.1-157.016-.228s70.286-.228,157.016-.228c86.7,0,157,.1,157,.228" transform="translate(-19.484 -40.643)" fill="#263238"/><path d="M472.555,347.28c0,.126-70.3.228-157,.228-86.731,0-157.016-.1-157.016-.228s70.286-.228,157.016-.228c86.7,0,157,.1,157,.228" transform="translate(-19.484 -42.652)" fill="#263238"/><path d="M472.555,363.621c0,.126-70.3.228-157,.228-86.731,0-157.016-.1-157.016-.228s70.286-.228,157.016-.228c86.7,0,157,.1,157,.228" transform="translate(-19.484 -44.66)" fill="#263238"/><path d="M472.555,379.961c0,.126-70.3.228-157,.228-86.731,0-157.016-.1-157.016-.228s70.286-.228,157.016-.228c86.7,0,157,.1,157,.228" transform="translate(-19.484 -46.668)" fill="#263238"/><rect width="6.707" height="169.382" transform="translate(212.84 177.525)" fill="#fff"/><g transform="translate(139.429 161.756)" opacity="0.3"><g clip-path="url(#c)"><rect width="76.59" height="185.15" fill="#b55a72"/></g></g><rect width="4.143" height="179.855" transform="translate(449.896 167.051)" fill="#ebebeb"/><path d="M246.254,371c-.126,0-.228-39.168-.228-87.473,0-48.322.1-87.481.228-87.481s.228,39.159.228,87.481c0,48.3-.1,87.473-.228,87.473" transform="translate(-30.236 -24.093)" fill="#263238"/><g transform="translate(146.664 257.654)" opacity="0.3"><g clip-path="url(#d)"><path d="M227.09,315.591c-2.173-6.791-6.206-12.949-12.221-16.911a24.27,24.27,0,0,0-2.387-1.379v-3.546H188.744v1.775a55.367,55.367,0,0,0-10.532,3.291,75.753,75.753,0,0,0-10.188,5.29c-1.876,1.153-.156,4.12,1.731,2.96a76.215,76.215,0,0,1,9.66-5.067c-.153.168-.312.33-.46.5-4.691,5.515-6.994,13.067-8.119,20.107-1.193,7.464-.933,15.287,1.774,22.413a32.868,32.868,0,0,0,11.621,15.146,25.817,25.817,0,0,0,17.833,4.821,29.279,29.279,0,0,0,17.444-8.91c10.041-10.439,11.871-27.094,7.583-40.493m-38.346-11.951v1.09h23.738v-1.023c.046.049.095.095.139.144.094.106.185.214.276.321.2.237.115.14.113.138a26.593,26.593,0,0,1,3.937,8.211,42.831,42.831,0,0,1,.845,19.021c-1.031,6.078-3.35,12.254-8.038,16.462-4.1,3.683-10.188,5.671-15.572,3.981-5.724-1.8-9.078-7.577-11.1-12.851-4.536-11.848-4.392-26.512,5.659-35.494m34.013,41.422c-4.741,10.743-16.386,19.05-28.451,16.065-11.846-2.93-19.359-14.385-20.524-26.045a49.337,49.337,0,0,1,2.508-20.317c1.791-5.424,4.749-11.248,10.09-13.852-.007.018-.012.037,0,.047.024.035.12.017.263-.032a28.5,28.5,0,0,0-5.428,6.376c-3.864,6.192-5.028,13.818-4.259,21,.748,6.975,2.977,14.454,7.223,20.137a18.821,18.821,0,0,0,7.442,6.224,17.235,17.235,0,0,0,9.581,1.1c6.648-1.033,12.241-5.408,15.621-11.11,3.6-6.066,4.922-13.339,5.033-20.314a39.354,39.354,0,0,0-3.6-17.908c.02-.019-.011-.14-.1-.345.389.456.764.922,1.115,1.4a36.125,36.125,0,0,1,6.361,18.39,39.685,39.685,0,0,1-2.87,19.183" transform="translate(-167.214 -293.755)"/></g></g><rect width="87.498" height="176.042" transform="translate(258.598 170.866)" fill="#fff"/><rect width="78.702" height="172.053" transform="translate(262.98 174.854)" fill="#ae7461"/><path d="M310.079,371.518c-.126,0-.228-38.34-.228-85.623,0-47.3.1-85.632.228-85.632s.228,38.331.228,85.632c0,47.283-.1,85.623-.228,85.623" transform="translate(-38.08 -24.612)"/><path d="M323.623,371.518c-.126,0-.228-38.34-.228-85.623,0-47.3.1-85.632.228-85.632s.228,38.331.228,85.632c0,47.283-.1,85.623-.228,85.623" transform="translate(-39.744 -24.612)"/><path d="M337.166,371.518c-.126,0-.228-38.34-.228-85.623,0-47.3.1-85.632.228-85.632s.228,38.331.228,85.632c0,47.283-.1,85.623-.228,85.623" transform="translate(-41.409 -24.612)"/><path d="M350.71,371.518c-.126,0-.228-38.34-.228-85.623,0-47.3.1-85.632.228-85.632s.228,38.331.228,85.632c0,47.283-.1,85.623-.228,85.623" transform="translate(-43.073 -24.612)"/><path d="M364.253,371.518c-.126,0-.228-38.34-.228-85.623,0-47.3.1-85.632.228-85.632s.228,38.331.228,85.632c0,47.283-.1,85.623-.228,85.623" transform="translate(-44.737 -24.612)"/><path d="M377.8,371.518c-.126,0-.228-38.34-.228-85.623,0-47.3.1-85.632.228-85.632s.228,38.331.228,85.632c0,47.283-.1,85.623-.228,85.623" transform="translate(-46.402 -24.612)"/><path d="M312.7,225.285H299.828v-6.59H312.7l2.914,3.087Z" transform="translate(-36.848 -26.877)" fill="#e0e0e0"/><path d="M312.7,273.9H299.828v-6.59H312.7l2.914,3.087Z" transform="translate(-36.848 -32.852)" fill="#e0e0e0"/><path d="M312.7,319.06H299.828V312.47H312.7l2.914,3.088Z" transform="translate(-36.848 -38.401)" fill="#e0e0e0"/><path d="M312.7,367.771H299.828v-6.591H312.7l2.914,3.088Z" transform="translate(-36.848 -44.388)" fill="#e0e0e0"/><rect width="3.846" height="176.042" transform="translate(254.751 170.865)" fill="#e0e0e0"/><g transform="translate(270.706 193.842)" opacity="0.3"><g clip-path="url(#e)"><path d="M311.915,222.642a1.64,1.64,0,1,1-1.64-1.64,1.64,1.64,0,0,1,1.64,1.64" transform="translate(-308.636 -221.002)"/></g></g><g transform="translate(270.706 236.738)" opacity="0.3"><g clip-path="url(#f)"><path d="M311.915,271.549a1.64,1.64,0,1,1-1.64-1.64,1.64,1.64,0,0,1,1.64,1.64" transform="translate(-308.636 -269.909)"/></g></g><g transform="translate(270.706 275.788)" opacity="0.3"><g clip-path="url(#g)"><path d="M311.915,315.906a1.649,1.649,0,1,1-1.64-1.475,1.564,1.564,0,0,1,1.64,1.475" transform="translate(-308.636 -314.43)"/></g></g><g transform="translate(270.706 318.613)" opacity="0.3"><g clip-path="url(#g)"><path d="M311.915,364.731a1.649,1.649,0,1,1-1.64-1.475,1.564,1.564,0,0,1,1.64,1.475" transform="translate(-308.636 -363.256)"/></g></g><rect width="3.346" height="65.265" transform="translate(367.511 182.95)" fill="#e0e0e0"/><rect width="66.013" height="65.265" transform="translate(370.857 182.95)" fill="#fff"/><rect width="56.428" height="55.188" transform="translate(375.803 188.208)" fill="#455a64"/><rect width="2.48" height="55.188" transform="translate(429.751 188.208)" fill="#e0e0e0"/><rect width="58.36" height="2.965" transform="translate(374.464 216.136)" fill="#fff"/><rect width="2.965" height="58.36" transform="translate(402.55 186.955)" fill="#fff"/><g transform="translate(375.27 188.207)" opacity="0.3"><g clip-path="url(#i)"><path d="M444.327,214.578s1.474,17.234,0,18.172-16.476,9.423-16.476,9.423V214.578Z" transform="translate(-427.852 -214.578)" fill="#fff"/></g></g><g transform="translate(139.356 96.777)" opacity="0.3"><g clip-path="url(#j)"><path d="M158.882,199.57V189.554l79.032-2.741,133.064-76.476,102.474,71.576v11.5L370.13,124.5,243.537,200.26Z" transform="translate(-158.882 -110.337)"/></g></g><path d="M367.055,95.082l-95.362,1.026-139.225,81.88L233.011,178Z" transform="translate(-16.28 -11.685)" fill="#a3314f"/><path d="M247.128,178l3.717,11.275,130.3-79.472L497.71,192.659l7.034-8.311-123.6-89.266Z" transform="translate(-30.371 -11.685)" fill="#ebebeb"/><path d="M399.7,95.329a54.912,54.912,0,0,1,.228,7.069,54.909,54.909,0,0,1-.228,7.07,54.915,54.915,0,0,1-.228-7.07,54.918,54.918,0,0,1,.228-7.069" transform="translate(-49.093 -11.716)" fill="#263238"/><path d="M358.5,111.418c0,.126-21.164.228-47.264.228s-47.267-.1-47.267-.228,21.158-.228,47.267-.228,47.264.1,47.264.228" transform="translate(-32.442 -13.665)" fill="#263238"/><path d="M317.809,135.9c0,.126-21.062.228-47.037.228s-47.041-.1-47.041-.228,21.057-.228,47.041-.228,47.037.1,47.037.228" transform="translate(-27.496 -16.674)" fill="#263238"/><path d="M273.241,164.591c0,.126-21.9.228-48.9.228s-48.9-.1-48.9-.228,21.89-.228,48.9-.228,48.9.1,48.9.228" transform="translate(-21.561 -20.2)" fill="#263238"/><path d="M229.531,165.037c.066.107-7.715,5.022-17.375,10.976s-17.55,10.7-17.617,10.588,7.712-5.021,17.376-10.977,17.549-10.694,17.616-10.587" transform="translate(-23.908 -20.282)" fill="#263238"/><path d="M305.854,111.606c.067.107-7.714,5.022-17.375,10.976s-17.55,10.7-17.617,10.588,7.712-5.021,17.377-10.978,17.548-10.694,17.614-10.587" transform="translate(-33.288 -13.716)" fill="#263238"/><path d="M306.178,136.451a2.012,2.012,0,0,1-.389.294l-1.165.766-4.328,2.744c-3.666,2.3-8.749,5.442-14.385,8.878s-10.766,6.512-14.5,8.7-6.094,3.472-6.158,3.331c0,0,.581-.323,1.616-.949l4.378-2.66,14.43-8.808,14.455-8.763,4.4-2.619,1.21-.694a2.012,2.012,0,0,1,.438-.215" transform="translate(-32.598 -16.769)" fill="#263238"/><path d="M364.858,95.421c.061.11-5.5,3.352-12.418,7.24s-12.582,6.953-12.643,6.842,5.5-3.351,12.42-7.24,12.58-6.952,12.642-6.842" transform="translate(-41.76 -11.727)" fill="#263238"/><path d="M310.852,95.893c.061.11-5.349,3.268-12.085,7.053s-12.248,6.765-12.309,6.655,5.348-3.267,12.086-7.054,12.247-6.764,12.308-6.655" transform="translate(-35.205 -11.785)" fill="#263238"/><path d="M235.469,135.881a2.013,2.013,0,0,1-.389.294l-1.165.766-4.329,2.744c-3.666,2.3-8.749,5.442-14.386,8.878s-10.765,6.512-14.5,8.7-6.094,3.472-6.158,3.331c0,0,.581-.323,1.616-.949l4.378-2.66,14.429-8.808,14.456-8.763,4.4-2.619,1.21-.694a1.992,1.992,0,0,1,.438-.215" transform="translate(-23.908 -16.699)" fill="#263238"/><path d="M236.7,200.894l-95.35-.936-8.873-10.339H233.012Z" transform="translate(-16.281 -23.304)" fill="#fff"/><g transform="translate(116.083 166.315)" opacity="0.3"><g clip-path="url(#k)"><path d="M236.57,200.894l-95.35-.936-8.873-10.339H232.853Z" transform="translate(-132.348 -189.619)"/></g></g><path d="M195.864,292.649c-6.54-2.78-13.849-.03-18.3,5.2-4.692,5.515-6.995,13.067-8.12,20.107-1.193,7.465-.932,15.287,1.774,22.413a32.868,32.868,0,0,0,11.621,15.146,25.819,25.819,0,0,0,17.833,4.821,29.283,29.283,0,0,0,17.444-8.91c10.041-10.44,11.872-27.095,7.583-40.493-2.173-6.791-6.206-12.949-12.221-16.911A22.535,22.535,0,0,0,194.635,291a27.029,27.029,0,0,0-14.814,11.645c-3.864,6.191-5.029,13.817-4.26,20.994.748,6.975,2.977,14.454,7.223,20.137A18.82,18.82,0,0,0,190.227,350a17.231,17.231,0,0,0,9.581,1.1c6.648-1.033,12.241-5.409,15.621-11.111,3.6-6.066,4.922-13.339,5.033-20.314.112-7.092-1.239-14.463-5.061-20.537a17.44,17.44,0,0,0-7.733-6.612c-9.815-4.442-21.267-2.41-30.845,1.631a75.867,75.867,0,0,0-10.188,5.291c-1.877,1.152-.157,4.119,1.73,2.96,9.24-5.677,20.6-10.429,31.681-8.612a21.305,21.305,0,0,1,9.229,3.606,13.346,13.346,0,0,1,1.349,1.152q.314.307.608.634c.094.105.184.213.276.32.2.237.114.14.112.139a26.564,26.564,0,0,1,3.937,8.211,42.814,42.814,0,0,1,.845,19.02c-1.031,6.077-3.35,12.254-8.037,16.463-4.1,3.682-10.188,5.671-15.573,3.98-5.723-1.8-9.078-7.577-11.1-12.85-4.562-11.915-4.394-26.683,5.828-35.65a20.137,20.137,0,0,1,15.5-5.2c5.934.734,11.369,4.432,14.853,9.2a36.129,36.129,0,0,1,6.362,18.39,39.7,39.7,0,0,1-2.871,19.183c-4.741,10.743-16.386,19.051-28.451,16.066-11.847-2.93-19.359-14.385-20.525-26.046a49.331,49.331,0,0,1,2.508-20.316c1.9-5.756,5.113-11.966,11.1-14.3a10.911,10.911,0,0,1,8.139-.2,1.775,1.775,0,0,0,2.345-.615,1.725,1.725,0,0,0-.615-2.345" transform="translate(-20.379 -35.643)" fill="#455a64"/><rect width="23.738" height="10.975" transform="translate(166.975 253.453)" fill="#263238"/><path d="M167.74,303.725c-.118-.056.125-.722-.175-1.449a1.765,1.765,0,0,0-.562-.769c-.191-.143-.36-.147-.378-.214s.183-.2.523-.089a1.519,1.519,0,0,1,.86.9,1.768,1.768,0,0,1,.045,1.22c-.1.3-.261.434-.312.405" transform="translate(-20.477 -37.012)" fill="#263238"/><path d="M189.207,294.091c.039.132-2.153.868-4.789,1.938s-4.728,2.055-4.791,1.933a28.425,28.425,0,0,1,9.58-3.871" transform="translate(-22.075 -36.141)" fill="#263238"/><path d="M191.256,295.641c.016.135-.816.329-1.785.7s-1.726.758-1.8.646.6-.708,1.637-1.091a2.908,2.908,0,0,1,1.952-.25" transform="translate(-23.063 -36.324)" fill="#263238"/><path d="M215.925,296.556a10.449,10.449,0,0,1,7.093,6.028,29.066,29.066,0,0,0-3.146-3.485,29.152,29.152,0,0,0-3.947-2.544" transform="translate(-26.536 -36.444)" fill="#263238"/><path d="M432.455,362.4a7.48,7.48,0,0,1,4.111-2.067,9.15,9.15,0,0,1-2.261,4.3,7.412,7.412,0,0,1-3.953,1.859,7.486,7.486,0,0,1,2.1-4.093" transform="translate(-52.889 -44.283)" fill="#455a64"/><path d="M434.87,362.1a1.389,1.389,0,0,0-.21.14c-.132.094-.319.237-.546.418a18.107,18.107,0,0,0-3.137,3.264c-.173.233-.307.425-.4.561a1.5,1.5,0,0,0-.132.215,1.362,1.362,0,0,0,.159-.2c.1-.13.239-.317.418-.545a22.6,22.6,0,0,1,1.48-1.708c.612-.636,1.207-1.172,1.648-1.546.221-.187.4-.336.528-.439a1.533,1.533,0,0,0,.19-.166" transform="translate(-52.901 -44.501)" fill="#263238"/><path d="M427.166,365.806A7.487,7.487,0,0,0,422.7,364.7a9.155,9.155,0,0,0,3.157,3.694,7.424,7.424,0,0,0,4.267.939,7.488,7.488,0,0,0-2.958-3.526" transform="translate(-51.948 -44.818)" fill="#455a64"/><path d="M424.992,366a1.466,1.466,0,0,1,.236.09c.15.062.363.16.625.288a18.15,18.15,0,0,1,3.782,2.488c.22.189.395.346.511.46a1.4,1.4,0,0,1,.175.181,1.511,1.511,0,0,1-.2-.156c-.124-.105-.3-.256-.528-.439a22.554,22.554,0,0,0-1.821-1.338c-.739-.484-1.437-.875-1.95-1.143-.257-.133-.466-.239-.611-.31a1.514,1.514,0,0,1-.222-.12" transform="translate(-52.23 -44.98)" fill="#263238"/><path d="M422.962,358.109a7.309,7.309,0,0,0-4.5.088,8.945,8.945,0,0,0,3.915,2.686,7.247,7.247,0,0,0,4.264-.2,7.314,7.314,0,0,0-3.684-2.578" transform="translate(-51.428 -43.972)" fill="#455a64"/><path d="M420.959,358.9a1.442,1.442,0,0,1,.246.025c.157.021.383.059.661.113a17.81,17.81,0,0,1,2.144.563,17.608,17.608,0,0,1,2.056.827c.256.123.46.227.6.3a1.317,1.317,0,0,1,.212.125,1.369,1.369,0,0,1-.226-.1c-.143-.068-.351-.164-.609-.28-.517-.232-1.239-.53-2.059-.8s-1.576-.462-2.129-.584c-.276-.061-.5-.108-.656-.139a1.357,1.357,0,0,1-.239-.057" transform="translate(-51.734 -44.107)" fill="#263238"/><path d="M423.48,350.634s.606,3.786,1.464,3.99,1.665-.19,2.212-.055c.65.161.724-.075.9-.739.149-.567,1.244-1.607.576-2.5s-4.032-1.774-4.032-1.774Z" transform="translate(-52.044 -42.96)" fill="#fff"/><path d="M420.826,348.673s-3.51-1.54-4.147-.931-.742,1.5-1.152,1.889c-.486.459-.327.649.135,1.155.4.432.677,1.916,1.787,1.837s3.676-2.428,3.676-2.428Z" transform="translate(-51.03 -42.719)" fill="#fff"/><path d="M424.7,349.017s3.632,1.226,4.213.563.607-1.561.982-1.983c.444-.5.269-.674-.236-1.138-.432-.4-.842-1.849-1.941-1.673s-3.449,2.741-3.449,2.741Z" transform="translate(-52.141 -42.371)" fill="#fff"/><path d="M424.063,347.185s2.881-2.528,2.6-3.363-1.047-1.309-1.224-1.844c-.211-.635-.449-.572-1.1-.367-.56.175-2.023-.2-2.421.841s.643,4.357.643,4.357Z" transform="translate(-51.841 -41.965)" fill="#fff"/><path d="M421.415,350.356s-2.881,2.528-2.6,3.363,1.046,1.309,1.223,1.844c.211.635.449.572,1.1.367.56-.175,2.023.2,2.421-.841s-.643-4.357-.643-4.357Z" transform="translate(-51.469 -43.058)" fill="#fff"/><path d="M422,347.048s-.927-3.72-1.8-3.85-1.641.331-2.2.243c-.661-.1-.713.137-.831.812-.1.578-1.1,1.707-.361,2.537s4.168,1.425,4.168,1.425Z" transform="translate(-51.191 -42.175)" fill="#fff"/><path d="M421.3,348.683a1.757,1.757,0,1,1,1.228,2.159,1.756,1.756,0,0,1-1.228-2.159" transform="translate(-51.768 -42.693)" fill="#fff"/><path d="M423.644,348.413a140.936,140.936,0,0,1,2.585-2.7,8.015,8.015,0,0,1-2.585,2.7" transform="translate(-52.064 -42.487)" fill="#263238"/><path d="M421.945,345.251a10.161,10.161,0,0,1,.817,2.941,10.018,10.018,0,0,1-.817-2.941" transform="translate(-51.854 -42.43)" fill="#263238"/><path d="M417.507,347.495a36.151,36.151,0,0,1,4.257,1.3,15.157,15.157,0,0,1-4.257-1.3" transform="translate(-51.31 -42.705)" fill="#263238"/><path d="M419.793,351.911a21.248,21.248,0,0,1,2.288-1.92,6.275,6.275,0,0,1-2.288,1.92" transform="translate(-51.591 -43.012)" fill="#263238"/><path d="M423.339,350.2a13.862,13.862,0,0,1,.875,3.481,13.862,13.862,0,0,1-.875-3.481" transform="translate(-52.025 -43.038)" fill="#263238"/><path d="M423.8,349.495a10.822,10.822,0,0,1,3.087.724,10.827,10.827,0,0,1-3.087-.724" transform="translate(-52.084 -42.95)" fill="#263238"/><path d="M422.158,349.16a.869.869,0,1,1,.608,1.068.868.868,0,0,1-.608-1.068" transform="translate(-51.878 -42.832)" fill="#ff725e"/><path d="M448.682,373.346c-.045-.011.1-.7.251-1.825a25.1,25.1,0,0,0-.382-8.805c-.246-1.109-.451-1.783-.409-1.8a1.743,1.743,0,0,1,.2.457c.114.3.252.741.4,1.295a21.086,21.086,0,0,1,.385,8.88c-.1.563-.2,1.016-.284,1.324a1.785,1.785,0,0,1-.158.473" transform="translate(-55.074 -44.356)" fill="#263238"/><path d="M435.552,351.7c.033.033-.495.574-1.253,1.522a22.323,22.323,0,0,0-4.2,8.417c-.3,1.176-.416,1.923-.462,1.916a2,2,0,0,1,.031-.532,13.744,13.744,0,0,1,.243-1.43,19.518,19.518,0,0,1,4.236-8.495,13.727,13.727,0,0,1,1-1.053,2,2,0,0,1,.406-.345" transform="translate(-52.8 -43.223)" fill="#263238"/><path d="M420.159,372.739a10.78,10.78,0,0,1-.291-1.336,18.83,18.83,0,0,0-2.429-6.056,10.544,10.544,0,0,1-.712-1.167,5.04,5.04,0,0,1,.874,1.061,14.944,14.944,0,0,1,2.457,6.127,5.014,5.014,0,0,1,.1,1.372" transform="translate(-51.214 -44.756)" fill="#263238"/><path d="M464.218,362.056a7.481,7.481,0,0,0-4.111-2.067,9.143,9.143,0,0,0,2.262,4.3,7.406,7.406,0,0,0,3.952,1.859,7.486,7.486,0,0,0-2.1-4.093" transform="translate(-56.546 -44.241)" fill="#455a64"/><path d="M462.055,361.764a1.477,1.477,0,0,1,.21.14c.132.094.319.237.546.418a18.1,18.1,0,0,1,3.137,3.264c.173.233.308.425.4.561a1.5,1.5,0,0,1,.132.215,1.361,1.361,0,0,1-.159-.2c-.1-.13-.239-.317-.418-.545-.356-.456-.868-1.071-1.48-1.708s-1.207-1.172-1.648-1.546c-.221-.187-.4-.336-.528-.439a1.4,1.4,0,0,1-.189-.166" transform="translate(-56.785 -44.46)" fill="#263238"/><path d="M473.9,356.786a7.309,7.309,0,0,1,4.5.088,8.944,8.944,0,0,1-3.915,2.686,7.247,7.247,0,0,1-4.264-.2,7.315,7.315,0,0,1,3.684-2.578" transform="translate(-57.788 -43.81)" fill="#455a64"/><path d="M476.22,357.576a1.438,1.438,0,0,0-.246.025c-.157.021-.383.059-.661.113a17.677,17.677,0,0,0-4.2,1.39c-.255.123-.46.227-.6.3a1.325,1.325,0,0,0-.212.125,1.366,1.366,0,0,0,.226-.1c.143-.068.351-.164.609-.28.516-.232,1.239-.53,2.059-.8s1.576-.462,2.129-.584c.276-.061.5-.108.656-.139a1.359,1.359,0,0,0,.239-.057" transform="translate(-57.799 -43.945)" fill="#263238"/><path d="M479.149,363.448c0,.046-.782.107-2.03.325a24.273,24.273,0,0,0-9.135,3.6c-1.061.691-1.677,1.182-1.707,1.146a2.144,2.144,0,0,1,.4-.384c.268-.236.676-.553,1.2-.923a21.234,21.234,0,0,1,9.213-3.628,14.852,14.852,0,0,1,1.505-.14,2.1,2.1,0,0,1,.555.007" transform="translate(-57.304 -44.665)" fill="#263238"/><path d="M467.944,360.385a2.721,2.721,0,0,1-.316-.548c-.183-.361-.46-.878-.815-1.509a33.208,33.208,0,0,0-7.079-8.73c-.543-.477-.992-.855-1.308-1.109a2.927,2.927,0,0,1-.471-.421,2.749,2.749,0,0,1,.537.336c.336.229.805.585,1.368,1.046a28.686,28.686,0,0,1,7.123,8.785c.336.646.587,1.179.741,1.555a2.9,2.9,0,0,1,.219.594" transform="translate(-56.281 -42.776)" fill="#263238"/><path d="M459.7,350.584s.486,3.03,1.172,3.194,1.333-.153,1.771-.044c.52.128.579-.061.719-.592.119-.453,1-1.286.461-2s-3.228-1.421-3.228-1.421Z" transform="translate(-56.496 -42.98)" fill="#fff"/><path d="M457.575,349.014s-2.81-1.233-3.32-.745-.594,1.2-.923,1.512c-.389.367-.262.519.108.924.317.346.542,1.534,1.431,1.471s2.943-1.944,2.943-1.944Z" transform="translate(-55.684 -42.787)" fill="#fff"/><path d="M460.676,349.29s2.908.982,3.372.451.486-1.25.786-1.588c.356-.4.216-.54-.189-.911-.346-.318-.674-1.481-1.554-1.339s-2.76,2.194-2.76,2.194Z" transform="translate(-56.573 -42.509)" fill="#fff"/><path d="M460.167,347.824s2.307-2.023,2.081-2.693-.839-1.047-.98-1.475c-.168-.509-.36-.458-.883-.294-.448.14-1.619-.159-1.938.674s.515,3.488.515,3.488Z" transform="translate(-56.332 -42.184)" fill="#fff"/><path d="M458.047,350.362s-2.307,2.023-2.081,2.692.839,1.048.98,1.476c.168.509.36.458.883.294.448-.14,1.619.159,1.938-.674s-.516-3.488-.516-3.488Z" transform="translate(-56.035 -43.058)" fill="#fff"/><path d="M458.516,347.713s-.742-2.978-1.44-3.083-1.315.266-1.76.195c-.529-.083-.572.11-.666.651-.081.462-.882,1.367-.289,2.031s3.337,1.14,3.337,1.14Z" transform="translate(-55.813 -42.352)" fill="#fff"/><path d="M457.952,349.023a1.406,1.406,0,1,1,.983,1.729,1.407,1.407,0,0,1-.983-1.729" transform="translate(-56.274 -42.767)" fill="#fff"/><path d="M459.832,348.806a112.56,112.56,0,0,1,2.069-2.16,6.415,6.415,0,0,1-2.069,2.16" transform="translate(-56.512 -42.601)" fill="#263238"/><path d="M458.47,346.275a8.09,8.09,0,0,1,.654,2.354,4.053,4.053,0,0,1-.417-1.153,4.123,4.123,0,0,1-.237-1.2" transform="translate(-56.343 -42.556)" fill="#263238"/><path d="M454.918,348.071a29.138,29.138,0,0,1,3.408,1.038,12.118,12.118,0,0,1-3.408-1.038" transform="translate(-55.908 -42.776)" fill="#263238"/><path d="M456.748,351.606a16.989,16.989,0,0,1,1.831-1.537,5.006,5.006,0,0,1-1.831,1.537" transform="translate(-56.133 -43.022)" fill="#263238"/><path d="M459.587,350.237a11.058,11.058,0,0,1,.7,2.787,11.186,11.186,0,0,1-.7-2.787" transform="translate(-56.48 -43.043)" fill="#263238"/><path d="M459.96,349.673a8.718,8.718,0,0,1,2.471.579,8.635,8.635,0,0,1-2.471-.579" transform="translate(-56.528 -42.972)" fill="#263238"/><path d="M458.642,349.4a.7.7,0,1,1,.486.855.7.7,0,0,1-.486-.855" transform="translate(-56.362 -42.878)" fill="#ff725e"/><path d="M476,349.118s.606,3.786,1.464,3.99,1.665-.19,2.212-.055c.65.161.724-.075.9-.739.149-.567,1.244-1.607.576-2.5s-4.032-1.774-4.032-1.774Z" transform="translate(-58.499 -42.773)" fill="#fff"/><path d="M473.344,347.157s-3.511-1.54-4.148-.931-.742,1.5-1.152,1.889c-.487.459-.328.649.136,1.155.395.432.676,1.916,1.786,1.837s3.676-2.428,3.676-2.428Z" transform="translate(-57.484 -42.532)" fill="#fff"/><path d="M477.217,347.5s3.632,1.226,4.213.563.607-1.561.982-1.983c.444-.5.269-.674-.236-1.138-.432-.4-.842-1.849-1.941-1.674s-3.449,2.741-3.449,2.741Z" transform="translate(-58.595 -42.185)" fill="#fff"/><path d="M476.581,345.669s2.881-2.528,2.6-3.363-1.047-1.309-1.224-1.844c-.211-.635-.449-.572-1.1-.367-.56.175-2.023-.2-2.421.842s.643,4.357.643,4.357Z" transform="translate(-58.295 -41.779)" fill="#fff"/><path d="M473.933,348.84s-2.881,2.528-2.6,3.363,1.046,1.309,1.223,1.844c.211.636.449.572,1.1.367.56-.175,2.023.2,2.421-.842s-.643-4.357-.643-4.357Z" transform="translate(-57.923 -42.871)" fill="#fff"/><path d="M474.519,345.532s-.926-3.72-1.8-3.85-1.642.331-2.2.243c-.66-.1-.714.137-.831.812-.1.578-1.1,1.707-.361,2.537S473.5,346.7,473.5,346.7Z" transform="translate(-57.646 -41.989)" fill="#fff"/><path d="M473.814,347.167a1.757,1.757,0,1,1,1.228,2.159,1.757,1.757,0,0,1-1.228-2.159" transform="translate(-58.222 -42.507)" fill="#fff"/><path d="M476.162,346.9a13.689,13.689,0,0,1,1.283-1.358,13.447,13.447,0,0,1,1.3-1.341,8.014,8.014,0,0,1-2.585,2.7" transform="translate(-58.518 -42.301)" fill="#263238"/><path d="M474.462,343.735a10.088,10.088,0,0,1,.817,2.941,10.091,10.091,0,0,1-.817-2.941" transform="translate(-58.308 -42.244)" fill="#263238"/><path d="M470.025,345.979a13.5,13.5,0,0,1,2.147.582,13.364,13.364,0,0,1,2.109.714,15.139,15.139,0,0,1-4.257-1.3" transform="translate(-57.764 -42.519)" fill="#263238"/><path d="M472.311,350.395a21.217,21.217,0,0,1,2.287-1.92,6.277,6.277,0,0,1-2.287,1.92" transform="translate(-58.045 -42.826)" fill="#263238"/><path d="M475.857,348.684a13.868,13.868,0,0,1,.875,3.48,13.868,13.868,0,0,1-.875-3.48" transform="translate(-58.479 -42.852)" fill="#263238"/><path d="M476.323,347.98a10.864,10.864,0,0,1,3.087.723,10.784,10.784,0,0,1-3.087-.723" transform="translate(-58.538 -42.763)" fill="#263238"/><path d="M474.676,347.644a.869.869,0,1,1,.607,1.068.869.869,0,0,1-.607-1.068" transform="translate(-58.332 -42.646)" fill="#ff725e"/><path d="M479.5,364.832s.348,2.173.84,2.291.956-.11,1.271-.032c.373.092.415-.044.515-.424.086-.325.714-.922.331-1.433a6.677,6.677,0,0,0-2.315-1.019Z" transform="translate(-58.929 -44.761)" fill="#fff"/><path d="M477.98,363.706s-2.016-.884-2.381-.534-.425.862-.661,1.085c-.279.263-.188.372.077.662.227.249.389,1.1,1.026,1.055s2.11-1.394,2.11-1.394Z" transform="translate(-58.347 -44.622)" fill="#fff"/><path d="M480.2,363.9s2.086.7,2.419.324.348-.9.563-1.138c.255-.288.155-.388-.135-.654-.248-.227-.483-1.061-1.115-.96s-1.98,1.574-1.98,1.574Z" transform="translate(-58.985 -44.423)" fill="#fff"/><path d="M479.839,362.852s1.654-1.452,1.492-1.931-.6-.752-.7-1.059c-.12-.365-.258-.329-.633-.211-.322.1-1.161-.114-1.39.482a6.676,6.676,0,0,0,.369,2.5Z" transform="translate(-58.812 -44.19)" fill="#fff"/><path d="M478.318,364.672s-1.654,1.452-1.492,1.93.6.752.7,1.059c.12.365.258.329.633.211.322-.1,1.161.114,1.39-.482a6.676,6.676,0,0,0-.369-2.5Z" transform="translate(-58.599 -44.817)" fill="#fff"/><path d="M478.655,362.773s-.532-2.136-1.032-2.21-.944.189-1.263.139c-.38-.06-.41.079-.477.467-.059.332-.633.981-.208,1.457a6.672,6.672,0,0,0,2.394.818Z" transform="translate(-58.44 -44.31)" fill="#fff"/><path d="M478.251,363.712a1.008,1.008,0,1,1,.705,1.24,1.009,1.009,0,0,1-.705-1.24" transform="translate(-58.771 -44.608)" fill="#fff"/><path d="M479.6,363.557a7.738,7.738,0,0,1,.737-.78,7.962,7.962,0,0,1,.747-.77,4.6,4.6,0,0,1-1.484,1.55" transform="translate(-58.941 -44.489)" fill="#263238"/><path d="M478.623,361.741a5.806,5.806,0,0,1,.468,1.688,2.9,2.9,0,0,1-.3-.826,2.856,2.856,0,0,1-.169-.862" transform="translate(-58.82 -44.457)" fill="#263238"/><path d="M476.074,363.029a20.591,20.591,0,0,1,2.444.745,8.724,8.724,0,0,1-2.444-.745" transform="translate(-58.508 -44.614)" fill="#263238"/><path d="M477.387,365.565a3.812,3.812,0,0,1,.638-.574,3.86,3.86,0,0,1,.675-.528,3.587,3.587,0,0,1-1.313,1.1" transform="translate(-58.669 -44.791)" fill="#263238"/><path d="M479.423,364.583a7.928,7.928,0,0,1,.5,2,8,8,0,0,1-.5-2" transform="translate(-58.918 -44.806)" fill="#263238"/><path d="M479.691,364.179a3.134,3.134,0,0,1,.9.143,3.171,3.171,0,0,1,.87.272,6.208,6.208,0,0,1-1.772-.415" transform="translate(-58.952 -44.755)" fill="#263238"/><path d="M478.745,363.986a.5.5,0,1,1,.349.613.5.5,0,0,1-.349-.613" transform="translate(-58.834 -44.688)" fill="#ff725e"/><path d="M474.545,350.656a5.659,5.659,0,0,1-.536.69c-.346.442-.843,1.083-1.393,1.92a44.274,44.274,0,0,0-3.572,6.962l-3.052,7.239-.95,2.184a5.218,5.218,0,0,1-.383.787,5.515,5.515,0,0,1,.284-.827q.366-.93.87-2.217c.752-1.866,1.777-4.447,2.98-7.274a39.375,39.375,0,0,1,3.662-6.961,20.88,20.88,0,0,1,1.473-1.881,5,5,0,0,1,.617-.621" transform="translate(-57.105 -43.094)" fill="#263238"/><path d="M489.46,363.87a6.818,6.818,0,0,0-3.743-1.883,8.316,8.316,0,0,0,2.059,3.916,6.753,6.753,0,0,0,3.6,1.694,6.82,6.82,0,0,0-1.916-3.727" transform="translate(-59.693 -44.487)" fill="#455a64"/><path d="M487.49,363.6a1.247,1.247,0,0,1,.191.128c.12.085.29.215.5.381a16.5,16.5,0,0,1,2.858,2.973c.157.212.28.387.36.51a1.283,1.283,0,0,1,.12.2,1.41,1.41,0,0,1-.144-.179c-.089-.118-.218-.288-.381-.5-.325-.415-.79-.975-1.347-1.555s-1.1-1.067-1.5-1.408c-.2-.171-.365-.307-.48-.4a1.315,1.315,0,0,1-.173-.152" transform="translate(-59.911 -44.686)" fill="#263238"/><path d="M494.123,366.975a6.813,6.813,0,0,1,4.067-1.008,8.332,8.332,0,0,1-2.876,3.364,6.753,6.753,0,0,1-3.884.854,6.807,6.807,0,0,1,2.693-3.21" transform="translate(-60.395 -44.974)" fill="#455a64"/><path d="M496.37,367.154a1.391,1.391,0,0,0-.215.082c-.136.057-.331.146-.568.261a16.544,16.544,0,0,0-3.444,2.266c-.2.172-.359.316-.465.418a1.313,1.313,0,0,0-.161.164,1.225,1.225,0,0,0,.18-.142c.112-.1.276-.232.481-.4a20.531,20.531,0,0,1,1.659-1.218c.672-.441,1.308-.8,1.775-1.041.233-.121.425-.218.557-.282a1.243,1.243,0,0,0,.2-.11" transform="translate(-60.406 -45.122)" fill="#263238"/><path d="M497.854,359.966a6.661,6.661,0,0,1,4.093.08,8.142,8.142,0,0,1-3.565,2.445,6.6,6.6,0,0,1-3.883-.178,6.665,6.665,0,0,1,3.355-2.347" transform="translate(-60.772 -44.204)" fill="#455a64"/><path d="M499.966,360.686a1.3,1.3,0,0,0-.224.023c-.143.019-.349.054-.6.1a16.152,16.152,0,0,0-3.824,1.266c-.232.111-.419.207-.546.277a1.4,1.4,0,0,0-.193.114,1.179,1.179,0,0,0,.206-.089c.131-.061.32-.149.554-.254a19.49,19.49,0,0,1,3.813-1.262c.252-.055.456-.1.6-.126a1.227,1.227,0,0,0,.218-.052" transform="translate(-60.782 -44.327)" fill="#263238"/><path d="M497.742,353.16s-.553,3.447-1.333,3.633-1.516-.173-2.015-.05c-.591.147-.658-.068-.817-.673-.136-.517-1.132-1.463-.525-2.273s3.672-1.617,3.672-1.617Z" transform="translate(-60.57 -43.282)" fill="#fff"/><path d="M500.091,351.373s3.2-1.4,3.776-.847.676,1.368,1.05,1.72c.443.418.3.591-.123,1.052-.361.395-.617,1.745-1.628,1.673s-3.347-2.21-3.347-2.21Z" transform="translate(-61.426 -43.062)" fill="#fff"/><path d="M496.566,351.687s-3.308,1.117-3.836.513-.553-1.423-.895-1.806c-.4-.455-.246-.615.215-1.037.393-.361.767-1.684,1.767-1.524s3.14,2.5,3.14,2.5Z" transform="translate(-60.416 -42.746)" fill="#fff"/><path d="M497.275,350.019s-2.624-2.3-2.366-3.063.953-1.191,1.115-1.679c.19-.578.409-.52,1-.333.51.16,1.841-.181,2.2.766s-.586,3.968-.586,3.968Z" transform="translate(-60.82 -42.376)" fill="#fff"/><path d="M499.686,352.906s2.624,2.3,2.366,3.063-.953,1.191-1.115,1.679c-.19.578-.409.52-1,.333-.51-.16-1.841.181-2.2-.766s.586-3.968.586-3.968Z" transform="translate(-61.159 -43.371)" fill="#fff"/><path d="M499.076,349.894s.844-3.387,1.638-3.507,1.5.3,2,.222c.6-.1.65.125.757.739.092.526,1,1.554.329,2.31s-3.8,1.3-3.8,1.3Z" transform="translate(-61.335 -42.567)" fill="#fff"/><path d="M499.966,351.383a1.6,1.6,0,1,0-1.118,1.966,1.6,1.6,0,0,0,1.118-1.966" transform="translate(-61.058 -43.039)" fill="#fff"/><path d="M497.946,351.136a12.425,12.425,0,0,0-1.168-1.237,12.638,12.638,0,0,0-1.185-1.221,7.29,7.29,0,0,0,2.353,2.458" transform="translate(-60.906 -42.851)" fill="#263238"/><path d="M499.717,348.258a9.228,9.228,0,0,0-.745,2.678,9.228,9.228,0,0,0,.745-2.678" transform="translate(-61.32 -42.8)" fill="#263238"/><path d="M503.322,350.3a33.056,33.056,0,0,0-3.877,1.181,13.8,13.8,0,0,0,3.877-1.181" transform="translate(-61.38 -43.05)" fill="#263238"/><path d="M501.491,354.322a19.316,19.316,0,0,0-2.083-1.748,5.707,5.707,0,0,0,2.083,1.748" transform="translate(-61.375 -43.33)" fill="#263238"/><path d="M498.439,352.764a12.61,12.61,0,0,0-.8,3.17,12.636,12.636,0,0,0,.8-3.17" transform="translate(-61.157 -43.353)" fill="#263238"/><path d="M497.736,352.123a9.885,9.885,0,0,0-2.81.659,9.9,9.9,0,0,0,2.81-.659" transform="translate(-60.825 -43.273)" fill="#263238"/><path d="M499.408,351.818a.791.791,0,1,0-.553.973.791.791,0,0,0,.553-.973" transform="translate(-61.184 -43.166)" fill="#ff725e"/><path d="M501.009,373.288a4.307,4.307,0,0,1,.083-1.251,13.495,13.495,0,0,1,2.238-5.582,4.261,4.261,0,0,1,.8-.961,19.681,19.681,0,0,0-3.125,7.794" transform="translate(-61.57 -44.918)" fill="#263238"/><path d="M489.621,374.783a4.422,4.422,0,0,1,.133-.786c.1-.5.269-1.225.5-2.113a66.212,66.212,0,0,1,5.075-13.373c.418-.816.771-1.468,1.03-1.911a4.529,4.529,0,0,1,.421-.676,4.452,4.452,0,0,1-.327.726l-.95,1.947c-.791,1.648-1.826,3.953-2.817,6.561s-1.743,5.02-2.245,6.777l-.582,2.088a4.438,4.438,0,0,1-.237.76" transform="translate(-60.172 -43.742)" fill="#263238"/><path d="M504.547,366.438s-.318,1.979-.767,2.086-.87-.1-1.155-.028c-.339.083-.378-.04-.471-.387-.077-.3-.65-.84-.3-1.305a6.069,6.069,0,0,1,2.107-.928Z" transform="translate(-61.662 -44.965)" fill="#fff"/><path d="M505.9,365.412s1.835-.805,2.168-.487.388.786.6.988c.254.239.171.339-.071.6-.207.226-.353,1-.934.96s-1.922-1.269-1.922-1.269Z" transform="translate(-62.154 -44.839)" fill="#fff"/><path d="M503.872,365.593s-1.9.641-2.2.295-.318-.817-.513-1.037c-.232-.261-.141-.353.123-.6.226-.207.44-.967,1.015-.874s1.8,1.433,1.8,1.433Z" transform="translate(-61.574 -44.657)" fill="#fff"/><path d="M504.279,364.635s-1.507-1.322-1.359-1.759.547-.683.639-.964c.11-.332.235-.3.577-.191.293.091,1.057-.1,1.266.439a6.075,6.075,0,0,1-.336,2.279Z" transform="translate(-61.806 -44.445)" fill="#fff"/><path d="M505.664,366.293s1.507,1.322,1.359,1.759-.547.683-.639.964c-.11.332-.235.3-.577.191-.293-.091-1.057.1-1.266-.439a6.074,6.074,0,0,1,.336-2.279Z" transform="translate(-62 -45.016)" fill="#fff"/><path d="M505.313,364.563s.484-1.945.94-2.013.859.173,1.15.127c.346-.055.374.071.435.425.053.3.576.892.189,1.326a6.078,6.078,0,0,1-2.179.746Z" transform="translate(-62.101 -44.555)" fill="#fff"/><path d="M505.824,365.418a.919.919,0,1,0-.643,1.129.919.919,0,0,0,.643-1.129" transform="translate(-61.942 -44.826)" fill="#fff"/><path d="M504.664,365.277a7.133,7.133,0,0,0-.671-.71,7.025,7.025,0,0,0-.681-.7,4.2,4.2,0,0,0,1.352,1.411" transform="translate(-61.855 -44.718)" fill="#263238"/><path d="M505.68,363.624a5.289,5.289,0,0,0-.427,1.538,5.216,5.216,0,0,0,.427-1.538" transform="translate(-62.093 -44.688)" fill="#263238"/><path d="M507.751,364.8a18.711,18.711,0,0,0-2.226.678,7.926,7.926,0,0,0,2.226-.678" transform="translate(-62.127 -44.832)" fill="#263238"/><path d="M506.7,367.106a3.508,3.508,0,0,0-.581-.523,3.442,3.442,0,0,0-.615-.481,3.277,3.277,0,0,0,1.2,1" transform="translate(-62.125 -44.993)" fill="#263238"/><path d="M504.947,366.211a3.727,3.727,0,0,0-.288.895,3.68,3.68,0,0,0-.17.925,7.3,7.3,0,0,0,.458-1.82" transform="translate(-61.999 -45.006)" fill="#263238"/><path d="M504.544,365.843a5.676,5.676,0,0,0-1.614.378,5.674,5.674,0,0,0,1.614-.378" transform="translate(-61.808 -44.96)" fill="#263238"/><path d="M505.5,365.668a.454.454,0,1,0-.318.559.454.454,0,0,0,.318-.559" transform="translate(-62.015 -44.898)" fill="#ff725e"/><path d="M432.046,374.381a5.277,5.277,0,0,1-.255-.837l-.634-2.293c-.548-1.932-1.376-4.581-2.461-7.445s-2.228-5.4-3.1-7.205q-.608-1.242-1.046-2.136a5.285,5.285,0,0,1-.365-.8,5.385,5.385,0,0,1,.459.746c.282.487.668,1.2,1.126,2.1a73.336,73.336,0,0,1,5.573,14.685c.252.974.439,1.767.551,2.319a5.26,5.26,0,0,1,.152.861" transform="translate(-52.131 -43.465)" fill="#263238"/><path d="M436.583,352.734s.348,2.173.84,2.291.956-.11,1.27-.032c.374.092.416-.044.516-.425.086-.325.714-.923.331-1.433a6.677,6.677,0,0,0-2.315-1.019Z" transform="translate(-53.655 -43.274)" fill="#fff"/><path d="M435.059,351.607s-2.016-.884-2.381-.534-.425.862-.661,1.084c-.279.264-.189.373.077.663.228.249.389,1.1,1.026,1.055s2.11-1.394,2.11-1.394Z" transform="translate(-53.072 -43.136)" fill="#fff"/><path d="M437.283,351.8s2.086.7,2.419.324.348-.9.563-1.138c.255-.288.155-.388-.135-.654-.248-.227-.483-1.061-1.115-.96s-1.98,1.574-1.98,1.574Z" transform="translate(-53.71 -42.936)" fill="#fff"/><path d="M436.918,350.753s1.654-1.452,1.492-1.931-.6-.752-.7-1.059c-.12-.365-.258-.329-.633-.21-.322.1-1.161-.114-1.39.482a6.675,6.675,0,0,0,.369,2.5Z" transform="translate(-53.538 -42.703)" fill="#fff"/><path d="M435.4,352.573s-1.654,1.452-1.492,1.931.6.752.7,1.059c.12.365.258.329.633.211.322-.1,1.161.114,1.39-.482a6.676,6.676,0,0,0-.369-2.5Z" transform="translate(-53.324 -43.33)" fill="#fff"/><path d="M435.734,350.674s-.532-2.136-1.032-2.21-.944.189-1.263.139c-.38-.06-.41.079-.477.467-.058.332-.633.981-.208,1.457a6.673,6.673,0,0,0,2.394.818Z" transform="translate(-53.165 -42.823)" fill="#fff"/><path d="M435.33,351.613a1.008,1.008,0,1,1,.705,1.24,1.009,1.009,0,0,1-.705-1.24" transform="translate(-53.496 -43.121)" fill="#fff"/><path d="M436.677,351.458a7.734,7.734,0,0,1,.737-.78,7.958,7.958,0,0,1,.747-.77,4.6,4.6,0,0,1-1.484,1.55" transform="translate(-53.666 -43.002)" fill="#263238"/><path d="M435.7,349.642a5.8,5.8,0,0,1,.468,1.688,2.95,2.95,0,0,1-.3-.826,2.89,2.89,0,0,1-.169-.862" transform="translate(-53.545 -42.97)" fill="#263238"/><path d="M433.154,350.93a7.822,7.822,0,0,1,1.232.334,7.7,7.7,0,0,1,1.211.41,5.125,5.125,0,0,1-1.249-.282,5.067,5.067,0,0,1-1.195-.462" transform="translate(-53.233 -43.128)" fill="#263238"/><path d="M434.466,353.465a12.286,12.286,0,0,1,1.313-1.1,3.588,3.588,0,0,1-1.313,1.1" transform="translate(-53.394 -43.304)" fill="#263238"/><path d="M436.5,352.484a4.087,4.087,0,0,1,.315.983,4.142,4.142,0,0,1,.188,1.016,7.922,7.922,0,0,1-.5-2" transform="translate(-53.644 -43.319)" fill="#263238"/><path d="M436.77,352.079a3.15,3.15,0,0,1,.9.142,3.215,3.215,0,0,1,.871.273,6.208,6.208,0,0,1-1.773-.415" transform="translate(-53.678 -43.268)" fill="#263238"/><path d="M435.823,351.887a.5.5,0,1,1,.349.613.5.5,0,0,1-.349-.613" transform="translate(-53.559 -43.201)" fill="#ff725e"/><path d="M416.327,365.216s.348,2.173.84,2.291.956-.11,1.271-.032c.373.092.415-.044.515-.424.086-.325.714-.923.331-1.433a6.66,6.66,0,0,0-2.315-1.019Z" transform="translate(-51.165 -44.808)" fill="#fff"/><path d="M414.8,364.091s-2.016-.884-2.381-.534-.425.862-.661,1.085c-.28.263-.189.372.077.662.227.249.389,1.1,1.026,1.055s2.11-1.394,2.11-1.394Z" transform="translate(-50.583 -44.67)" fill="#fff"/><path d="M417.026,364.288s2.085.7,2.419.323.348-.9.563-1.138c.255-.287.155-.387-.135-.653-.248-.227-.483-1.061-1.115-.96s-1.98,1.574-1.98,1.574Z" transform="translate(-51.221 -44.47)" fill="#fff"/><path d="M416.662,363.236s1.654-1.452,1.492-1.931-.6-.752-.7-1.059c-.12-.365-.258-.329-.633-.211-.322.1-1.161-.114-1.39.482a6.676,6.676,0,0,0,.369,2.5Z" transform="translate(-51.048 -44.237)" fill="#fff"/><path d="M415.141,365.057s-1.654,1.452-1.492,1.931.6.752.7,1.059c.12.365.258.329.633.211.322-.1,1.161.114,1.39-.482a6.676,6.676,0,0,0-.369-2.5Z" transform="translate(-50.835 -44.864)" fill="#fff"/><path d="M415.478,363.157s-.532-2.136-1.032-2.211-.944.19-1.263.139c-.38-.06-.41.079-.478.467-.058.332-.632.981-.207,1.457a6.673,6.673,0,0,0,2.394.818Z" transform="translate(-50.675 -44.357)" fill="#fff"/><path d="M415.073,364.1a1.008,1.008,0,1,1,.705,1.24,1.009,1.009,0,0,1-.705-1.24" transform="translate(-51.007 -44.655)" fill="#fff"/><path d="M416.421,363.941a7.735,7.735,0,0,1,.737-.78,7.956,7.956,0,0,1,.747-.77,4.6,4.6,0,0,1-1.484,1.55" transform="translate(-51.177 -44.537)" fill="#263238"/><path d="M415.445,362.126a2.919,2.919,0,0,1,.3.826,2.976,2.976,0,0,1,.17.862,5.77,5.77,0,0,1-.469-1.688" transform="translate(-51.056 -44.504)" fill="#263238"/><path d="M412.9,363.414a21.011,21.011,0,0,1,2.444.745,8.727,8.727,0,0,1-2.444-.745" transform="translate(-50.744 -44.662)" fill="#263238"/><path d="M414.21,365.949a3.807,3.807,0,0,1,.638-.574,3.863,3.863,0,0,1,.675-.528,3.587,3.587,0,0,1-1.313,1.1" transform="translate(-50.905 -44.838)" fill="#263238"/><path d="M416.246,364.967a4.045,4.045,0,0,1,.317.983,4.089,4.089,0,0,1,.186,1.015,8,8,0,0,1-.5-2" transform="translate(-51.154 -44.853)" fill="#263238"/><path d="M416.514,364.563a6.206,6.206,0,0,1,1.773.415,3.159,3.159,0,0,1-.9-.142,3.2,3.2,0,0,1-.871-.273" transform="translate(-51.188 -44.802)" fill="#263238"/><path d="M415.568,364.371a.5.5,0,1,1,.349.613.5.5,0,0,1-.349-.613" transform="translate(-51.07 -44.735)" fill="#ff725e"/><path d="M448.919,362.437s-.45,3.807.32,4.238,1.652.271,2.143.551c.581.332.716.125,1.065-.466.3-.505,1.636-1.206,1.236-2.245s-3.394-2.808-3.394-2.808Z" transform="translate(-55.155 -44.453)" fill="#fff"/><path d="M446.862,359.85s-2.957-2.44-3.736-2.027-1.124,1.243-1.624,1.5c-.593.309-.492.535-.185,1.148.262.525.128,2.028,1.217,2.255s4.2-1.332,4.2-1.332Z" transform="translate(-54.206 -43.97)" fill="#fff"/><path d="M450.487,361.3s3.159,2.172,3.9,1.691,1.01-1.336,1.487-1.639c.564-.36.443-.575.083-1.16-.307-.5-.305-2.009-1.41-2.139s-4.066,1.7-4.066,1.7Z" transform="translate(-55.362 -44.003)" fill="#fff"/><path d="M450.375,359.31s3.462-1.645,3.418-2.526-.651-1.545-.674-2.108c-.028-.668-.275-.673-.961-.654-.586.016-1.891-.742-2.559.149s-.57,4.368-.57,4.368Z" transform="translate(-55.183 -43.473)" fill="#fff"/><path d="M446.942,361.662s-3.463,1.645-3.419,2.526.65,1.545.674,2.108c.028.668.275.673.961.654.586-.016,1.891.742,2.559-.149s.57-4.368.57-4.368Z" transform="translate(-54.507 -44.447)" fill="#fff"/><path d="M448.417,358.615s.124-3.831-.68-4.2-1.67-.13-2.182-.367c-.607-.281-.724-.063-1.022.554-.254.529-1.526,1.341-1.039,2.343s3.621,2.509,3.621,2.509Z" transform="translate(-54.49 -43.497)" fill="#fff"/><path d="M447.333,359.979a1.757,1.757,0,1,1,.592,2.413,1.757,1.757,0,0,1-.592-2.413" transform="translate(-54.944 -44.136)" fill="#fff"/><path d="M449.639,360.4a140.84,140.84,0,0,1,3.223-1.891,8.019,8.019,0,0,1-3.223,1.891" transform="translate(-55.259 -44.059)" fill="#263238"/><path d="M448.954,356.8a10.073,10.073,0,0,1-.017,3.051,10.073,10.073,0,0,1,.017-3.051" transform="translate(-55.16 -43.849)" fill="#263238"/><path d="M444.088,357.743a36.318,36.318,0,0,1,3.742,2.409,15.123,15.123,0,0,1-3.742-2.409" transform="translate(-54.577 -43.965)" fill="#263238"/><path d="M445.009,362.7a21.532,21.532,0,0,1,2.724-1.223,6.262,6.262,0,0,1-2.724,1.223" transform="translate(-54.69 -44.424)" fill="#263238"/><path d="M448.938,361.938a13.907,13.907,0,0,1-.108,3.587,13.907,13.907,0,0,1,.108-3.587" transform="translate(-55.151 -44.481)" fill="#263238"/><path d="M449.6,361.388a10.827,10.827,0,0,1,2.772,1.538,10.869,10.869,0,0,1-2.772-1.538" transform="translate(-55.254 -44.413)" fill="#263238"/><path d="M448.07,360.643a.869.869,0,1,1,.293,1.194.87.87,0,0,1-.293-1.194" transform="translate(-55.051 -44.27)" fill="#ff725e"/><rect width="92.853" height="21.583" transform="translate(354.754 325.177)" fill="#ae7461"/><g transform="translate(354.754 325.177)" opacity="0.3"><g clip-path="url(#l)"><rect width="20.713" height="21.723" transform="translate(0 0)"/></g></g><path d="M286.066,259.121a4.9,4.9,0,0,1,7.565-3.184,8.179,8.179,0,0,1-7.382,3.165" transform="translate(-35.157 -31.352)" fill="#455a64"/><path d="M286.707,260.713a3.494,3.494,0,0,1-.7,3.891,8.869,8.869,0,0,1-3.6,2.129,6.369,6.369,0,0,1,4.321-6.4" transform="translate(-34.706 -31.994)" fill="#455a64"/><path d="M282.448,254.077a5.657,5.657,0,0,1-7.412,3.436,7.732,7.732,0,0,1,3.035-3.49,3.7,3.7,0,0,1,4.346.458" transform="translate(-33.801 -31.158)" fill="#455a64"/><path d="M283.926,252.184a3.322,3.322,0,0,1,3.5-1.768,5.774,5.774,0,0,1,3.5,2.173,5.082,5.082,0,0,1-6.9-.918" transform="translate(-34.894 -30.771)" fill="#455a64"/><path d="M288.273,267.357a4.541,4.541,0,0,1-.021,4.947,8.017,8.017,0,0,1-4.121,3.094,10.535,10.535,0,0,1,.574-5.128,5.38,5.38,0,0,1,3.771-3.29" transform="translate(-34.909 -32.811)" fill="#455a64"/><path d="M284.309,247.807a4.09,4.09,0,0,0-6.22-1.851,3.534,3.534,0,0,0,6.171,1.618" transform="translate(-34.176 -30.132)" fill="#455a64"/><path d="M284.412,242.863a5.315,5.315,0,0,0,7.551-2.5,12.107,12.107,0,0,0-3.129-.687,5.2,5.2,0,0,0-3.079.711,2.814,2.814,0,0,0-1.343,2.472" transform="translate(-34.953 -29.455)" fill="#455a64"/><path d="M281.047,240.446a4.345,4.345,0,0,0,1.56-6.522,9.1,9.1,0,0,0-2.777,3.51,3.421,3.421,0,0,0-.369,1.636,1.547,1.547,0,0,0,.891,1.338" transform="translate(-34.344 -28.748)" fill="#455a64"/><path d="M272.829,249.595a.425.425,0,0,0,.025-.106l.053-.316c.046-.276.116-.685.229-1.206a10.959,10.959,0,0,1,1.709-4.122,6.713,6.713,0,0,1,2.293-2.021,4.728,4.728,0,0,1,3.409-.417,4.043,4.043,0,0,1,1.666.859,3.623,3.623,0,0,1,1.061,1.627,7.234,7.234,0,0,1-.132,4.129,28.8,28.8,0,0,0-1.069,4.126,6.5,6.5,0,0,0,.065,2.044,4.146,4.146,0,0,0,.8,1.795,5.979,5.979,0,0,0,1.422,1.206,8.413,8.413,0,0,1,1.361,1.05,5.672,5.672,0,0,1,1.489,2.65,5.4,5.4,0,0,1,.017,2.521,5.742,5.742,0,0,1-.735,1.773,7.072,7.072,0,0,1-1.051,1.267.422.422,0,0,0,.089-.065,3.052,3.052,0,0,0,.241-.211,5.185,5.185,0,0,0,.79-.947,5.717,5.717,0,0,0,.781-1.789,5.5,5.5,0,0,0,.012-2.582,5.8,5.8,0,0,0-1.509-2.739c-.787-.839-1.982-1.283-2.755-2.252a4.994,4.994,0,0,1-.816-3.694,29.232,29.232,0,0,1,1.067-4.094,7.4,7.4,0,0,0,.125-4.248,3.8,3.8,0,0,0-1.124-1.714,4.209,4.209,0,0,0-1.749-.9,4.9,4.9,0,0,0-3.537.451,6.83,6.83,0,0,0-2.334,2.088,9.243,9.243,0,0,0-1.169,2.308,13.881,13.881,0,0,0-.5,1.886c-.1.525-.157.937-.189,1.217-.014.13-.025.234-.034.318a.415.415,0,0,0,0,.11" transform="translate(-33.529 -29.627)" fill="#263238"/><path d="M243.655,258.28a4.141,4.141,0,0,1-.709-1.265,3.544,3.544,0,0,1-.14-1.675,3.418,3.418,0,0,1,1.039-1.937,3.472,3.472,0,0,1,1.083-.7,4.062,4.062,0,0,1,1.377-.268c.98-.052,2.039.175,3.177.046a3.554,3.554,0,0,0,1.651-.574,2.625,2.625,0,0,0,1.009-1.517c.325-1.206.1-2.519.588-3.69a3.34,3.34,0,0,1,1.152-1.419,4.3,4.3,0,0,1,1.649-.718,4.589,4.589,0,0,1,3.306.567,7,7,0,0,1,2.239,2.152,8.259,8.259,0,0,1,1.139,2.478,29.777,29.777,0,0,1,.728,3.923q.1.683.151,1.079l.046.28a.327.327,0,0,0,.023.094.323.323,0,0,0,0-.1c-.007-.076-.016-.169-.025-.282q-.041-.4-.111-1.083a26.956,26.956,0,0,0-.667-3.954,8.306,8.306,0,0,0-1.138-2.534,7.126,7.126,0,0,0-2.287-2.223,5.335,5.335,0,0,0-1.626-.622,4.681,4.681,0,0,0-3.547.772,3.538,3.538,0,0,0-1.224,1.507c-.508,1.252-.279,2.572-.593,3.718a2.418,2.418,0,0,1-.925,1.406,3.366,3.366,0,0,1-1.558.546c-1.094.132-2.155-.087-3.162-.028a4.216,4.216,0,0,0-1.43.293,3.583,3.583,0,0,0-1.125.743,3.525,3.525,0,0,0-1.053,2.025,3.582,3.582,0,0,0,.18,1.721,3.357,3.357,0,0,0,.526.959,1.716,1.716,0,0,0,.26.279" transform="translate(-29.821 -30.019)" fill="#263238"/><path d="M252.852,248.389a3.769,3.769,0,0,1-3.222,1.271,3.485,3.485,0,0,1-2.523-2.112,3.718,3.718,0,0,1,5.77.489" transform="translate(-30.368 -30.282)" fill="#455a64"/><path d="M250.294,253.535a3.766,3.766,0,0,1-.592,3.413A3.483,3.483,0,0,1,246.585,258a3.719,3.719,0,0,1,3.42-4.673" transform="translate(-30.292 -31.134)" fill="#455a64"/><path d="M242.86,254.653a3.767,3.767,0,0,1-3.339.92,3.482,3.482,0,0,1-2.284-2.369,3.718,3.718,0,0,1,5.685,1.1" transform="translate(-29.156 -31.011)" fill="#455a64"/><path d="M258.3,243.674a3.938,3.938,0,0,0,.313-3.526,3.483,3.483,0,0,0-2.8-1.732,3.718,3.718,0,0,0,2.277,5.325" transform="translate(-31.388 -29.301)" fill="#455a64"/><path d="M282.455,229.8s-.015-.028-.053-.076l-.169-.211c-.153-.182-.387-.444-.711-.76a9.417,9.417,0,0,0-3.2-2.074,6.8,6.8,0,0,0-2.613-.447,6.156,6.156,0,0,0-2.915.86,4.9,4.9,0,0,0-2.159,2.552,15.823,15.823,0,0,0-.495,3.568,6.174,6.174,0,0,1-.415,1.735,4.929,4.929,0,0,1-.988,1.413c-.393.419-.813.81-1.18,1.241a6,6,0,0,0-.885,1.4,7.506,7.506,0,0,0-.623,2.978,9.994,9.994,0,0,0,.328,2.63,20.081,20.081,0,0,0,1.348,3.578c.192.409.348.722.455.934a2.489,2.489,0,0,0,.173.318,2.264,2.264,0,0,0-.135-.337l-.418-.949a21.692,21.692,0,0,1-1.278-3.579,9.958,9.958,0,0,1-.3-2.591,7.351,7.351,0,0,1,.625-2.9,5.767,5.767,0,0,1,.862-1.352c.357-.419.775-.805,1.176-1.231a5.122,5.122,0,0,0,1.03-1.471,6.361,6.361,0,0,0,.432-1.795,15.889,15.889,0,0,1,.48-3.524,4.719,4.719,0,0,1,2.065-2.453,6.015,6.015,0,0,1,2.823-.853,6.727,6.727,0,0,1,2.554.413,9.687,9.687,0,0,1,3.2,1.995c.33.305.573.556.735.729a2.432,2.432,0,0,0,.253.259" transform="translate(-32.696 -27.803)" fill="#263238"/><path d="M268.555,238.209c.261-.352.453-.175.89-.176a2.677,2.677,0,0,1,1.25.36,4.9,4.9,0,0,1,2.5,4.771,3.825,3.825,0,0,1-4.5-5.014" transform="translate(-32.995 -29.248)" fill="#455a64"/><path d="M282.093,228.69c.085-.43.332-.353.728-.543a2.677,2.677,0,0,1,1.283-.212,4.9,4.9,0,0,1,4.3,3.234,3.825,3.825,0,0,1-6.217-2.593" transform="translate(-34.668 -28.012)" fill="#455a64"/><path d="M266.959,247.632a4.414,4.414,0,0,1,6.888-.926,5.463,5.463,0,0,1-3.283,2.049,5.578,5.578,0,0,1-3.832-.785" transform="translate(-32.78 -30.165)" fill="#455a64"/><path d="M266.192,240.255a4.476,4.476,0,0,1-5.413-4.432,4.017,4.017,0,0,1,5.551,4.362" transform="translate(-32.049 -28.943)" fill="#455a64"/><path d="M269.754,231.493a4.474,4.474,0,0,1-6.578-2.381,4.016,4.016,0,0,1,6.684,2.269" transform="translate(-32.343 -28.027)" fill="#455a64"/><path d="M271.922,228.955a4.475,4.475,0,0,1,6.578,2.381,4.017,4.017,0,0,1-6.685-2.269" transform="translate(-33.405 -28.058)" fill="#455a64"/><path d="M273.219,226.413a4.474,4.474,0,0,1-3.535-6.037,4.016,4.016,0,0,1,3.688,6.02" transform="translate(-33.107 -27.083)" fill="#455a64"/><path d="M279.039,225.617a4.474,4.474,0,0,1,2.511-6.53,4.016,4.016,0,0,1-2.4,6.639" transform="translate(-34.218 -26.925)" fill="#455a64"/><path d="M272.413,267.83H260.069L256.3,250.386h22.963Z" transform="translate(-31.499 -30.772)" fill="#ae7461"/><g transform="translate(224.802 219.614)" opacity="0.3"><g clip-path="url(#m)"><path d="M264.57,267.6l-4.5.227L256.3,250.386h4.267Z" transform="translate(-256.301 -250.386)"/></g></g><g clip-path="url(#a)"><path d="M191.529,394.515a49.069,49.069,0,0,1-4.966-8.059,49.162,49.162,0,0,1,4.966,8.059" transform="translate(-22.927 -47.494)" fill="#263238"/><path d="M194.307,394.2a42.638,42.638,0,0,1-1.14-4.449,42.519,42.519,0,0,1-1.1-4.458,24.313,24.313,0,0,1,2.244,8.907" transform="translate(-23.602 -47.351)" fill="#263238"/><path d="M200.487,394.34a30.556,30.556,0,0,1,2.585-11.035c.126.045-.657,2.459-1.364,5.5s-1.088,5.55-1.221,5.535" transform="translate(-24.635 -47.107)" fill="#263238"/><path d="M34.989,393.209a23.919,23.919,0,0,1-2.618-3.857,23.913,23.913,0,0,1-2.229-4.094,23.883,23.883,0,0,1,2.618,3.857,23.936,23.936,0,0,1,2.229,4.1" transform="translate(-3.703 -47.347)" fill="#263238"/><path d="M37.887,393a42.635,42.635,0,0,1-1.14-4.449,42.516,42.516,0,0,1-1.1-4.458,16.132,16.132,0,0,1,1.546,4.347,16.162,16.162,0,0,1,.7,4.56" transform="translate(-4.379 -47.204)" fill="#263238"/><path d="M41.818,392.79a4.189,4.189,0,0,1,.208-1.714,17.809,17.809,0,0,1,1.594-3.838c.762-1.426,1.487-2.684,1.959-3.622a9.4,9.4,0,0,1,.8-1.51,4.907,4.907,0,0,1-.505,1.646c-.4.986-1.091,2.283-1.848,3.7a25.6,25.6,0,0,0-1.688,3.717,14.256,14.256,0,0,1-.517,1.622" transform="translate(-5.136 -46.959)" fill="#263238"/><path d="M466.04,430.362a49.063,49.063,0,0,1-4.966-8.059,49.171,49.171,0,0,1,4.966,8.059" transform="translate(-56.663 -51.899)" fill="#263238"/><path d="M468.818,430.045a42.644,42.644,0,0,1-1.14-4.449,42.114,42.114,0,0,1-1.1-4.458,24.336,24.336,0,0,1,2.243,8.907" transform="translate(-57.339 -51.756)" fill="#263238"/><path d="M475,430.187a30.507,30.507,0,0,1,2.585-11.035c.125.045-.657,2.458-1.364,5.5s-1.088,5.549-1.221,5.534" transform="translate(-58.372 -51.512)" fill="#263238"/><path d="M604.491,443.948a49.07,49.07,0,0,1-4.966-8.059,49.166,49.166,0,0,1,4.966,8.059" transform="translate(-73.679 -53.569)" fill="#263238"/><path d="M607.27,443.631a42.573,42.573,0,0,1-1.14-4.449,42.083,42.083,0,0,1-1.1-4.458,24.336,24.336,0,0,1,2.243,8.907" transform="translate(-74.354 -53.426)" fill="#263238"/><path d="M613.45,443.773a30.557,30.557,0,0,1,2.585-11.035c.126.045-.657,2.458-1.364,5.5s-1.088,5.55-1.221,5.535" transform="translate(-75.387 -53.182)" fill="#263238"/><path d="M122.417,438.989a49.066,49.066,0,0,1-4.966-8.059,24.727,24.727,0,0,1,2.678,3.91,24.758,24.758,0,0,1,2.288,4.149" transform="translate(-14.433 -52.96)" fill="#263238"/><path d="M125.2,438.671a553.874,553.874,0,0,1-2.244-8.907,24.313,24.313,0,0,1,2.244,8.907" transform="translate(-15.108 -52.816)" fill="#263238"/><path d="M131.375,438.814a30.555,30.555,0,0,1,2.585-11.035c.126.045-.657,2.459-1.364,5.5s-1.088,5.549-1.221,5.534" transform="translate(-16.141 -52.572)" fill="#263238"/><path d="M628.156,393.4a49.058,49.058,0,0,1-4.966-8.059,49.179,49.179,0,0,1,4.966,8.059" transform="translate(-76.587 -47.357)" fill="#263238"/><path d="M630.935,393.085a42.66,42.66,0,0,1-1.14-4.449,42.128,42.128,0,0,1-1.1-4.458,24.336,24.336,0,0,1,2.243,8.907" transform="translate(-77.262 -47.214)" fill="#263238"/><path d="M637.114,393.227a30.557,30.557,0,0,1,2.585-11.035c.126.045-.657,2.459-1.364,5.5s-1.088,5.55-1.221,5.535" transform="translate(-78.295 -46.97)" fill="#263238"/><path d="M347.269,447.088a49.069,49.069,0,0,1-4.966-8.059,49.162,49.162,0,0,1,4.966,8.059" transform="translate(-42.067 -53.955)" fill="#263238"/><path d="M350.047,446.77a553.331,553.331,0,0,1-2.244-8.907,24.313,24.313,0,0,1,2.244,8.907" transform="translate(-42.742 -53.812)" fill="#263238"/><path d="M356.227,446.913a30.555,30.555,0,0,1,2.585-11.035c.126.045-.657,2.459-1.364,5.5s-1.088,5.55-1.221,5.535" transform="translate(-43.775 -53.568)" fill="#263238"/><path d="M268.371,366.779a4.775,4.775,0,0,1,2.475,2.8,8.435,8.435,0,0,1,.329,3.8,14.873,14.873,0,0,1-3.188,6.921c-2.075-1.811-2.552-4.971-2.694-6.589-.224-2.558.925-7.316,3.079-6.934" transform="translate(-32.6 -45.073)" fill="#455a64"/><path d="M267.986,380.332l-.018-.016c-1.5-1.313-2.438-3.6-2.7-6.6-.165-1.884.44-5.278,1.8-6.522a1.488,1.488,0,0,1,1.3-.436l.005,0a4.768,4.768,0,0,1,2.487,2.816,8.326,8.326,0,0,1,.331,3.808A15.023,15.023,0,0,1,268,380.314Zm.14-13.555a1.511,1.511,0,0,0-1.03.446c-1.35,1.235-1.95,4.611-1.786,6.486.26,2.984,1.183,5.251,2.67,6.559a14.947,14.947,0,0,0,3.169-6.893,8.289,8.289,0,0,0-.328-3.787,4.729,4.729,0,0,0-2.46-2.79,1.433,1.433,0,0,0-.235-.021" transform="translate(-32.597 -45.07)" fill="#263238"/><path d="M271.106,386.119a4.076,4.076,0,0,1,1.317-3.874A5.412,5.412,0,0,1,276.413,381a2.281,2.281,0,0,1,1.752.787,1.743,1.743,0,0,1,.026,1.766,3.534,3.534,0,0,1-1.307,1.288c-1.8,1.128-3.746,1.89-5.779,1.28" transform="translate(-33.306 -46.821)" fill="#455a64"/><path d="M272.573,386.355a5.123,5.123,0,0,1-1.476-.217l-.012,0,0-.012a4.117,4.117,0,0,1,1.324-3.894,5.311,5.311,0,0,1,3.542-1.27c.154,0,.31.005.466.017a2.24,2.24,0,0,1,1.767.8,1.754,1.754,0,0,1,.029,1.789,3.523,3.523,0,0,1-1.316,1.3,8.244,8.244,0,0,1-4.321,1.5m-1.452-.256c1.716.509,3.543.1,5.749-1.281a3.48,3.48,0,0,0,1.3-1.279,1.708,1.708,0,0,0-.026-1.743,2.194,2.194,0,0,0-1.735-.778c-.155-.012-.31-.018-.462-.018a5.275,5.275,0,0,0-3.513,1.26,4.076,4.076,0,0,0-1.313,3.84" transform="translate(-33.304 -46.818)" fill="#263238"/><path d="M268.084,394.017a2.9,2.9,0,0,1,.074-.506c.066-.356.15-.816.252-1.368a14.292,14.292,0,0,1,1.412-4.372,8.751,8.751,0,0,1,3.138-3.335,5.923,5.923,0,0,1,1.279-.566,3.549,3.549,0,0,1,.368-.094.36.36,0,0,1,.132-.018,9.276,9.276,0,0,0-1.715.787,9.042,9.042,0,0,0-3.046,3.313,15.41,15.41,0,0,0-1.445,4.311c-.126.574-.228,1.039-.308,1.358a2.731,2.731,0,0,1-.142.491" transform="translate(-32.946 -47.162)" fill="#263238"/><path d="M268.16,371a1.036,1.036,0,0,1,.025.221c.01.164.022.375.038.635.029.552.062,1.351.094,2.338.064,1.975.114,4.7.1,7.719s-.087,5.745-.168,7.719c-.039.988-.079,1.786-.113,2.337-.018.26-.032.471-.044.635a.988.988,0,0,1-.027.22,1.051,1.051,0,0,1-.009-.222c0-.164.005-.375.01-.636.014-.574.033-1.368.057-2.338.048-1.974.1-4.7.116-7.717s-.018-5.741-.049-7.716c-.015-.97-.028-1.764-.037-2.338,0-.261,0-.472,0-.637a1.035,1.035,0,0,1,.011-.222" transform="translate(-32.943 -45.595)" fill="#263238"/><path d="M265.936,387.523a9.532,9.532,0,0,0-5.2-6.983,2.011,2.011,0,0,0-2.169-.033,1.973,1.973,0,0,0-.164,2.162,8.144,8.144,0,0,0,7.489,5.056" transform="translate(-31.727 -46.725)" fill="#455a64"/><path d="M265.8,387.745a8.17,8.17,0,0,1-7.426-5.071c-.176-.452-.511-1.569.17-2.186.64-.581,1.648-.23,2.193.03a9.515,9.515,0,0,1,5.217,7l-.044.007a9.47,9.47,0,0,0-5.192-6.966c-.535-.256-1.524-.6-2.145-.037-.66.6-.331,1.694-.158,2.138A8.124,8.124,0,0,0,265.8,387.7h.082v.045Z" transform="translate(-31.724 -46.722)" fill="#263238"/><path d="M261.474,383.254a2.464,2.464,0,0,1,.44.192,4.731,4.731,0,0,1,.5.265c.186.117.411.231.633.4a8.615,8.615,0,0,1,.725.546,9.693,9.693,0,0,1,.772.7,10.633,10.633,0,0,1,1.466,1.883,10.417,10.417,0,0,1,.966,2.184,9.123,9.123,0,0,1,.244,1.014,7.853,7.853,0,0,1,.125.9,7.275,7.275,0,0,1,.034.746,4.416,4.416,0,0,1-.017.564,2.479,2.479,0,0,1-.053.478c-.04,0,.03-.686-.09-1.776a8.338,8.338,0,0,0-.145-.883,9.4,9.4,0,0,0-.256-.994,10.758,10.758,0,0,0-.961-2.139,11.05,11.05,0,0,0-1.431-1.86,9.748,9.748,0,0,0-.748-.7c-.238-.217-.483-.391-.7-.556-.891-.639-1.517-.924-1.5-.959" transform="translate(-32.134 -47.1)" fill="#263238"/></g><path d="M108.079,260.812c-6.52,3.378-11.521,9.193-15.116,15.6s-5.913,13.429-8.207,20.4l-2.009,35.975c7.587-12.907,13.677-28.081,15.322-42.962l-5.049-.45c3.386-.517,6.227-2.97,8.035-5.877a35.818,35.818,0,0,0,3.647-9.564l-6.16.916a22.835,22.835,0,0,0,9.537-14.038" transform="translate(-10.169 -32.053)" fill="#455a64"/><g transform="translate(72.577 228.759)" opacity="0.3"><g clip-path="url(#o)"><path d="M108.079,260.812c-6.52,3.378-11.521,9.193-15.116,15.6s-5.913,13.429-8.207,20.4l-2.009,35.975c7.587-12.907,13.677-28.081,15.322-42.962l-5.049-.45c3.386-.517,6.227-2.97,8.035-5.877a35.818,35.818,0,0,0,3.647-9.564l-6.16.916a22.835,22.835,0,0,0,9.537-14.038" transform="translate(-82.746 -260.812)"/></g></g><path d="M82.019,348.517s-16.468-19.711-16.278-38.528h6.653s-7.226-4.751-6.655-7.412.762-12.735.762-12.735l6.082,1.521s-4.561-2.28-5.131-5.892,1.33-20.337,1.33-20.337,7.413,7.792,9.694,15.776,8.268,17.3,6.51,41.624-2.966,25.983-2.966,25.983" transform="translate(-8.075 -32.584)" fill="#455a64"/><path d="M90.983,345.667s17.841-11.886,21.806-27.055l-5.349-1.455s6.849-2.239,6.971-4.5,2.173-10.405,2.173-10.405l-5.222-.108s4.166-.836,5.415-3.615,3.379-16.641,3.379-16.641-7.664,4.643-11.244,10.562-10.431,12.1-14.341,32.041-3.589,21.18-3.589,21.18" transform="translate(-11.181 -34.643)" fill="#455a64"/><path d="M74.342,284.727a.761.761,0,0,1,.067.2c.04.163.09.361.151.605q.2.856.536,2.337c.462,2.03,1.074,4.979,1.774,8.635,1.409,7.31,3.072,17.467,4.381,28.751s2,21.559,2.295,29c.153,3.719.231,6.73.244,8.811q.007,1.517.011,2.4c0,.251-.006.455-.009.623a.744.744,0,0,1-.018.213.784.784,0,0,1-.028-.212c-.01-.168-.022-.372-.037-.623q-.036-.878-.1-2.394c-.068-2.079-.195-5.087-.389-8.8-.378-7.429-1.127-17.682-2.426-28.96s-2.918-21.426-4.244-28.745c-.659-3.66-1.221-6.618-1.63-8.658q-.287-1.488-.453-2.353c-.043-.247-.077-.449-.106-.614a.725.725,0,0,1-.021-.213" transform="translate(-9.136 -34.992)" fill="#263238"/><path d="M67.646,346.1S52.575,329,47.9,318.664l3.533-1.509a9.154,9.154,0,0,1-7.169-2.349,27.1,27.1,0,0,1-4.873-6.035l4.654-.786a17.3,17.3,0,0,1-10.167-7.876c5.491.9,10.459,3.92,14.553,7.69a72.435,72.435,0,0,1,8.818,10.217,34.792,34.792,0,0,1,3.425,5.631c2.532,5.235,6.985,16.174,6.976,22.454" transform="translate(-4.163 -36.882)" fill="#455a64"/><path d="M112.466,293.231a4.409,4.409,0,0,1-.288.678l-.905,1.9c-.8,1.645-1.937,4.036-3.315,7-2.761,5.93-6.4,14.2-10.007,23.509s-6.467,17.886-8.413,24.13c-.975,3.122-1.742,5.656-2.257,7.411l-.611,2.016a4.571,4.571,0,0,1-.243.7,4.51,4.51,0,0,1,.154-.72q.2-.759.529-2.04c.462-1.771,1.182-4.321,2.119-7.457,1.869-6.275,4.694-14.876,8.3-24.2s7.3-17.583,10.141-23.483c1.417-2.951,2.6-5.321,3.449-6.944q.617-1.171.981-1.866a4.448,4.448,0,0,1,.37-.636" transform="translate(-10.621 -36.037)" fill="#263238"/><path d="M72.76,356.737a4.886,4.886,0,0,1-.226-1.053c-.111-.682-.291-1.666-.539-2.874a59.8,59.8,0,0,0-6.775-17.945c-.613-1.07-1.128-1.927-1.5-2.512a4.847,4.847,0,0,1-.526-.94,4.9,4.9,0,0,1,.674.842c.415.556.974,1.39,1.626,2.445a51.454,51.454,0,0,1,6.814,18.05c.208,1.223.34,2.218.4,2.91a4.81,4.81,0,0,1,.051,1.077" transform="translate(-7.767 -40.729)" fill="#263238"/><rect width="46.451" height="8.396" transform="translate(50.395 310.442)" fill="#a3314f"/><path d="M62.5,363.512l5.025,28.238H95.6l4.684-28.238Z" transform="translate(-7.681 -44.674)" fill="#a3314f"/><path d="M101.667,363.48c0,.126-8.787.228-19.624.228s-19.626-.1-19.626-.228,8.785-.228,19.626-.228,19.624.1,19.624.228" transform="translate(-7.671 -44.642)" fill="#263238"/><g clip-path="url(#a)"><path d="M461.265,383.433l-1.846-2.649-11.8,8.405-4.061.667-.943-14.715H416.97l-.725,5.185-2.612-2.287a6.86,6.86,0,0,0-9.244,10.115l9.423,9.561-1.47,10.508h32.4l-.143-2.233ZM405.6,386.958a5.16,5.16,0,0,1,6.933-7.624l3.431,3-1.854,13.253Z" transform="translate(-49.454 -46.104)" fill="#455a64"/><path d="M405.821,387.356a4.666,4.666,0,0,1,.66.58l1.774,1.721,6.219,6.191-.342.114c.431-3.141.93-6.773,1.46-10.631.126-.9.251-1.786.369-2.624l.075.2-3.1-2.732a4.92,4.92,0,0,0-3.315-1.393,5.011,5.011,0,0,0-4.819,3.228,5.084,5.084,0,0,0,.189,4.052,10.582,10.582,0,0,0,.836,1.293,3.788,3.788,0,0,1-.982-1.217,5.158,5.158,0,0,1-.329-4.234,5.344,5.344,0,0,1,8.7-2.062l3.122,2.723.092.081-.017.122c-.117.839-.24,1.725-.366,2.624-.549,3.856-1.067,7.485-1.514,10.623l-.058.408-.285-.294-6.1-6.308-1.695-1.8a4.68,4.68,0,0,1-.57-.668" transform="translate(-49.675 -46.501)" fill="#263238"/><path d="M461.235,383.4s-.083.134-.268.4l-.837,1.166-3.267,4.493-12.165,16.6.032-.109c.045.681.1,1.451.148,2.233l.012.182h-.183l-32.4.047h-.251l.035-.248c.465-3.342.959-6.887,1.463-10.509l.062.189-5.511-5.588-2.823-2.863c-.471-.493-.954-.937-1.42-1.473a7.273,7.273,0,0,1-1.124-1.776,7.087,7.087,0,0,1,9.417-9.283,8.177,8.177,0,0,1,2.225,1.539l1.975,1.731-.366.136q.371-2.631.73-5.184l.026-.188h.189l25.647.034h.174l.011.172c.337,5.463.64,10.39.908,14.717l-.173-.137,4.064-.654-.056.024,11.84-8.342.049-.034.032.048,1.381,2.037c.294.439.418.646.418.646s-.165-.208-.477-.638l-1.417-1.978.082.014-11.751,8.468-.025.018-.032.005-4.059.68-.161.027-.011-.164c-.287-4.326-.615-9.251-.978-14.713l.183.172-25.647.034.215-.188q-.355,2.555-.722,5.185l-.056.406-.309-.27-1.973-1.726a7.741,7.741,0,0,0-2.119-1.469,6.631,6.631,0,0,0-8.814,8.691,6.8,6.8,0,0,0,1.052,1.661c.424.491.937.968,1.4,1.45l2.822,2.865,5.507,5.592.078.079-.015.11c-.51,3.622-1.008,7.167-1.477,10.508l-.216-.248,32.4.046-.17.182c-.048-.782-.1-1.552-.138-2.234l0-.061.036-.048,12.25-16.435,3.353-4.465.883-1.161c.2-.261.317-.4.317-.4" transform="translate(-49.424 -46.073)" fill="#263238"/><path d="M414.474,403.5a5.193,5.193,0,0,1,.067-1.115c.094-.8.211-1.814.35-3.015.316-2.543.782-6.05,1.326-9.92s1.061-7.373,1.459-9.9c.2-1.194.362-2.2.495-2.994a5.273,5.273,0,0,1,.242-1.089,5.185,5.185,0,0,1-.067,1.114c-.093.8-.211,1.813-.35,3.014-.316,2.543-.782,6.051-1.326,9.924s-1.061,7.372-1.459,9.9c-.2,1.193-.362,2.2-.494,2.994a5.229,5.229,0,0,1-.243,1.089" transform="translate(-50.936 -46.143)" fill="#263238"/><path d="M447.024,408.408c-.021.019-.213-.142-.518-.476a9.451,9.451,0,0,1-1.125-1.554,11.147,11.147,0,0,1,.475-12.067,9.529,9.529,0,0,1,1.244-1.461c.331-.309.535-.454.554-.434.059.058-.683.732-1.529,2.073a11.6,11.6,0,0,0-.461,11.732c.737,1.4,1.424,2.134,1.361,2.187" transform="translate(-54.546 -48.226)" fill="#263238"/></g><g clip-path="url(#a)"><g transform="translate(420.072 226.879)" opacity="0.3"><g clip-path="url(#r)"><path d="M478.931,258.668s.52,11.256,1.422,18.438,8.452,49.439,8.452,49.439l-.2-14.218-5.835-41.868Z" transform="translate(-478.931 -258.668)"/></g></g><path d="M481.858,257.618q1.193,4.461,2.387,8.922,2.856,10.673,5.713,21.346l6.926,25.877q2.981,11.144,5.964,22.287c.962,3.6,2.039,7.181,2.892,10.8.011.05.026.1.039.147a1.489,1.489,0,0,1-2.87.791q-1.193-4.461-2.387-8.922-2.856-10.674-5.713-21.346l-6.926-25.877Q484.9,280.5,481.919,269.36c-.962-3.6-2.039-7.181-2.892-10.8-.011-.049-.026-.1-.039-.146a1.489,1.489,0,0,1,2.87-.791" transform="translate(-58.859 -31.531)" fill="#ae7461"/><path d="M485.737,401.24l-.8-.354,18.678-42.3h3.266l.13.146,37.041,41.563-.654.584-36.911-41.417h-2.3Z" transform="translate(-59.597 -44.069)" fill="#263238"/><rect width="0.878" height="37.185" transform="matrix(0.795, -0.607, 0.607, 0.795, 456.609, 329.008)" fill="#263238"/><rect width="0.877" height="37.651" transform="translate(455.222 328.974) rotate(-31.943)" fill="#263238"/><rect width="0.878" height="35.456" transform="translate(454.474 329.958) rotate(-26.841)" fill="#263238"/><rect width="0.877" height="35.979" transform="translate(452.73 329.919) rotate(-21.193)" fill="#263238"/><rect width="0.877" height="34.635" transform="translate(450.719 330.42) rotate(-17.578)" fill="#263238"/><rect width="0.877" height="33.763" transform="matrix(0.978, -0.209, 0.209, 0.978, 448.889, 330.379)" fill="#263238"/><rect width="0.878" height="33.763" transform="translate(446.881 329.81) rotate(-6.498)" fill="#263238"/><rect width="0.877" height="33.549" transform="matrix(1, -0.014, 0.014, 1, 445.059, 329.766)" fill="#263238"/><rect width="31.844" height="0.878" transform="matrix(0.115, -0.993, 0.993, 0.115, 439.684, 361.344)" fill="#263238"/><rect width="31.661" height="0.878" transform="translate(434.34 359.478) rotate(-76.894)" fill="#263238"/><path d="M490.647,404.487l-.831-.282,10.1-29.561.831.282Z" transform="translate(-60.197 -46.042)" fill="#263238"/><path d="M532.9,391.865a50.965,50.965,0,0,1-32.381,4.217,49.089,49.089,0,0,1-9.062-2.743c-.456-.188-.257-.939.206-.749a50.18,50.18,0,0,0,32.088,1.932,48.525,48.525,0,0,0,8.757-3.329c.446-.221.841.449.392.671" transform="translate(-60.366 -48.071)" fill="#263238"/><path d="M520.793,372.872s-6.506,6-21.014.364l5.944-14.151h2.782Z" transform="translate(-61.421 -44.13)" fill="#263238"/><path d="M511.25,376.046a32.411,32.411,0,0,1-11.712-2.463l-.419-.163,6.232-14.835h3.271l12.7,14.256-.317.292c-.185.172-3.267,2.914-9.759,2.914m-10.973-3.119c12.006,4.528,18.32.885,19.8-.173l-11.845-13.292h-2.295Z" transform="translate(-61.34 -44.069)" fill="#263238"/></g><path d="M562.864,359.619l27.993-.506a3.924,3.924,0,0,0,3.852-3.993l-.407-22.485a3.924,3.924,0,0,0-3.993-3.852l-27.993.506a3.924,3.924,0,0,0-3.852,3.993l.407,22.486a3.922,3.922,0,0,0,3.993,3.851" transform="translate(-68.633 -40.406)" fill="#263238"/><path d="M663.9,360.631l2.559-.047a2.642,2.642,0,0,0,2.594-2.69l-.1-5.277a2.643,2.643,0,0,0-2.69-2.6l-2.559.047a2.642,2.642,0,0,0-2.594,2.69l.1,5.278a2.642,2.642,0,0,0,2.69,2.594" transform="translate(-81.249 -43.016)" fill="#263238"/><path d="M580.922,335.878a25.382,25.382,0,0,1-26.6-17.05c-1.8-5.406-2.015-11.255-4.7-16.369a29.81,29.81,0,0,0-10.113-10.791c-5.117-3.379-10.6-6.427-16.584-7.915a.11.11,0,0,0-.058.211c5.679,1.412,10.731,4.251,15.655,7.333A29.9,29.9,0,0,1,549.67,303.03c2.7,5.427,2.723,11.656,4.945,17.241A25.311,25.311,0,0,0,580.922,336.1c.139-.014.14-.234,0-.219" transform="translate(-64.249 -34.872)" fill="#ff725e"/><path d="M590.376,341.087l-55.11-48.524-15.418-13.575c-1.056-.93-2.612.616-1.551,1.551l55.11,48.523,15.418,13.576c1.055.929,2.612-.616,1.551-1.551" transform="translate(-63.653 -34.251)" fill="#e0e0e0"/><path d="M618.541,351.966l39.093,8.5-.4-21.867a7.025,7.025,0,0,0-7.151-6.9l-24.878.45a7.025,7.025,0,0,0-6.9,7.151Z" transform="translate(-75.988 -40.765)" fill="#263238"/><path d="M671.886,377.664s3.562-12.794-8.213-18.185c-7.2-3.3-71.382-16.907-71.382-16.907l-4.246,1.085L583.662,377.2Z" transform="translate(-71.73 -42.101)" fill="#a3314f"/><path d="M597.265,373.247c0-.126,13.994-.067,31.249.132s31.248.463,31.247.589-13.991.067-31.252-.132-31.245-.463-31.243-.589" transform="translate(-73.402 -45.863)" fill="#263238"/><path d="M664.445,381A13.607,13.607,0,1,0,677.8,367.147,13.607,13.607,0,0,0,664.445,381" transform="translate(-81.658 -45.121)" fill="#263238"/><path d="M670.6,381.657a8.209,8.209,0,1,0,8.059-8.356,8.208,8.208,0,0,0-8.059,8.356" transform="translate(-82.414 -45.877)" fill="#455a64"/><path d="M602.345,377.615l23.6-.427a3.867,3.867,0,0,0,3.8-3.936l-.006-.326a3.867,3.867,0,0,0-3.936-3.8l-23.6.427a3.867,3.867,0,0,0-3.8,3.936l.006.326a3.866,3.866,0,0,0,3.936,3.8" transform="translate(-73.542 -45.365)" fill="#263238"/><path d="M565.531,374.978a16.993,16.993,0,1,0,16.683-17.3,16.993,16.993,0,0,0-16.683,17.3" transform="translate(-69.501 -43.957)" fill="#263238"/><path d="M565.53,374.953a1.207,1.207,0,0,1-.015-.275c0-.208,0-.475,0-.81a7.936,7.936,0,0,1,.088-1.316,12.145,12.145,0,0,1,.293-1.777,16.092,16.092,0,0,1,1.765-4.6,17.127,17.127,0,0,1,11.38-8.342,17.218,17.218,0,0,1,9.043.557,16.146,16.146,0,0,1,4.4,2.253,19.178,19.178,0,0,1,1.984,1.62,19.46,19.46,0,0,1,1.726,1.962,17.106,17.106,0,0,1,.369,20.349,15.753,15.753,0,0,1-3.579,3.715,16.134,16.134,0,0,1-4.317,2.411,17.206,17.206,0,0,1-9.018.883,17.121,17.121,0,0,1-11.674-7.926,16.055,16.055,0,0,1-1.93-4.537,11.96,11.96,0,0,1-.357-1.766,7.955,7.955,0,0,1-.135-1.31c-.013-.336-.025-.6-.033-.81a1.2,1.2,0,0,1,0-.275,1.266,1.266,0,0,1,.042.274c.02.206.046.471.078.8a8.454,8.454,0,0,0,.177,1.3,12.509,12.509,0,0,0,.395,1.74,16.248,16.248,0,0,0,1.974,4.45,16.819,16.819,0,0,0,20.324,6.784,15.762,15.762,0,0,0,4.2-2.364,15.359,15.359,0,0,0,3.479-3.628,16.7,16.7,0,0,0-.36-19.82,15.334,15.334,0,0,0-3.608-3.5,15.753,15.753,0,0,0-4.284-2.21,16.867,16.867,0,0,0-20.066,7.514,16.255,16.255,0,0,0-1.812,4.518,12.545,12.545,0,0,0-.332,1.753,8.533,8.533,0,0,0-.131,1.3c-.02.333-.036.6-.048.806a1.287,1.287,0,0,1-.032.275" transform="translate(-69.5 -43.932)" fill="#455a64"/><path d="M573.217,375.8a10.251,10.251,0,1,0,10.064-10.435A10.251,10.251,0,0,0,573.217,375.8" transform="translate(-70.446 -44.902)" fill="#455a64"/><path d="M657.261,339.916l-38.928.7-.042-2.372a5.975,5.975,0,0,1,5.867-6.083l26.977-.489a5.976,5.976,0,0,1,6.083,5.868Z" transform="translate(-75.986 -40.762)" fill="#e0e0e0"/><path d="M576.4,349.92l-17.136.31a.11.11,0,0,0,0,.219l17.136-.31a.11.11,0,0,0,0-.219" transform="translate(-68.719 -43.004)" fill="#455a64"/><path d="M576.437,351.917l-17.136.31a.11.11,0,0,0,0,.219l17.136-.31a.11.11,0,0,0,0-.219" transform="translate(-68.723 -43.249)" fill="#455a64"/><path d="M576.473,353.914l-17.136.31a.11.11,0,0,0,0,.219l17.136-.31a.11.11,0,0,0,0-.219" transform="translate(-68.728 -43.495)" fill="#455a64"/><g clip-path="url(#a)"><path d="M162.045,237.978q-.912,5.055-1.823,10.109-2.18,12.093-4.361,24.187L150.575,301.6q-2.277,12.628-4.553,25.254-1.1,6.122-2.208,12.243c-.01.055-.02.111-.03.167a1.711,1.711,0,0,0,1.076,2.079,1.667,1.667,0,0,0,2.079-1.076q.912-5.055,1.823-10.109,2.181-12.093,4.361-24.187l5.286-29.322q2.277-12.626,4.554-25.254,1.1-6.122,2.207-12.243c.01-.055.02-.111.03-.167a1.711,1.711,0,0,0-1.076-2.079,1.667,1.667,0,0,0-2.079,1.076" transform="translate(-17.666 -29.106)" fill="#ae7461"/><path d="M139.816,354.7c.011-.286,1.641-8.527,1.641-8.527a5.97,5.97,0,0,1,4.886.189l-1.652,8.145,14.01.544s-.756,29.622-21.847,34.435c0,0-14.89-2.739-12.886-22.419l1.98-13.091Z" transform="translate(-15.213 -42.491)" fill="#e0e0e0"/><path d="M147.061,355.8a3.084,3.084,0,0,1-.075.879c-.083.56-.228,1.367-.456,2.355s-.539,2.154-.956,3.429a15.5,15.5,0,0,1-.753,1.99,2.386,2.386,0,0,1-1.9,1.422,2.258,2.258,0,0,1-1.989-1.3,4.171,4.171,0,0,1-.345-2.158,30,30,0,0,1,.539-3.529c.205-.991.4-1.786.545-2.333a3.254,3.254,0,0,1,.27-.839,28.411,28.411,0,0,1-.5,3.23c-.158.991-.352,2.185-.437,3.493a3.829,3.829,0,0,0,.321,1.929,1.83,1.83,0,0,0,1.574,1.051,1.96,1.96,0,0,0,1.522-1.174,16.409,16.409,0,0,0,.749-1.916c.435-1.256.775-2.4,1.042-3.374.531-1.942.775-3.167.845-3.155" transform="translate(-17.276 -43.716)" fill="#263238"/><path d="M159.625,357.588a9.781,9.781,0,0,1-.239,1.525c-.184.975-.465,2.384-.857,4.117a55.4,55.4,0,0,1-4.5,13.129,27.162,27.162,0,0,1-9.108,10.388,18.4,18.4,0,0,1-3.777,1.883,11.37,11.37,0,0,1-1.095.341,1.329,1.329,0,0,1-.392.082,26.937,26.937,0,0,0,5.086-2.575,27.96,27.96,0,0,0,8.88-10.33,60.27,60.27,0,0,0,4.586-12.993c.407-1.667.744-3.044,1-4.079a10.073,10.073,0,0,1,.412-1.488" transform="translate(-17.164 -43.946)" fill="#263238"/></g><g clip-path="url(#a)"><path d="M587.812,79.093c-.014.037-.641-.221-1.826-.484a14.581,14.581,0,0,0-5.092-.2,13.726,13.726,0,0,0-6.863,2.96,14.248,14.248,0,0,0-4.844,7.691c-.007.03-.015.059-.022.086l-.141.549-.211-.521a15.3,15.3,0,0,0-5.8-7,14.8,14.8,0,0,0-7.082-2.361,15.667,15.667,0,0,0-5.062.463c-1.168.308-1.786.58-1.8.545a2.413,2.413,0,0,1,.439-.212,10.962,10.962,0,0,1,1.321-.471A15.122,15.122,0,0,1,563.2,81.888a15.492,15.492,0,0,1,5.958,7.151l-.352.028c.007-.027.015-.057.022-.087a14.453,14.453,0,0,1,4.991-7.873,13.806,13.806,0,0,1,7.043-2.954,14.028,14.028,0,0,1,5.16.315,10.292,10.292,0,0,1,1.343.425,2.586,2.586,0,0,1,.45.2" transform="translate(-67.479 -9.592)" fill="#263238"/><path d="M596.266,47.632c-.011.031-.36-.1-1.011-.235a8.168,8.168,0,0,0-2.786-.081,7.519,7.519,0,0,0-3.734,1.63,7.776,7.776,0,0,0-2.632,4.189l-.011.046-.141.55-.211-.522a8.363,8.363,0,0,0-3.155-3.818,8.133,8.133,0,0,0-3.857-1.305,8.789,8.789,0,0,0-2.771.227c-.643.16-.987.3-1,.268-.005-.011.075-.056.236-.132a5.4,5.4,0,0,1,.724-.274,8.091,8.091,0,0,1,2.826-.35,8.182,8.182,0,0,1,4.026,1.28,8.563,8.563,0,0,1,3.314,3.966l-.353.028.012-.049a8,8,0,0,1,2.778-4.371,7.735,7.735,0,0,1,6.768-1.423,5.1,5.1,0,0,1,.737.249c.163.071.246.113.241.125" transform="translate(-70.66 -5.777)" fill="#263238"/><path d="M556.3,26.078c.022.023-.349.4-.979,1.11a23.954,23.954,0,0,0-2.39,3.226,23.516,23.516,0,0,0-3.549,12.558c0,.054,0,.108,0,.158l-.369.031a20.683,20.683,0,0,0-2.3-6.8,21.468,21.468,0,0,0-6.526-7.293c-.774-.534-1.222-.8-1.205-.832a1.462,1.462,0,0,1,.343.164c.214.125.55.283.942.55a18.961,18.961,0,0,1,3.135,2.5,20.767,20.767,0,0,1,5.975,11.655l-.369.03c0-.051,0-.105,0-.161a23.1,23.1,0,0,1,3.7-12.7,21.174,21.174,0,0,1,2.5-3.183c.322-.353.61-.594.789-.768a1.465,1.465,0,0,1,.3-.245" transform="translate(-66.24 -3.205)" fill="#263238"/></g><path d="M207.61,53.632A15.669,15.669,0,1,1,191.94,37.963,15.669,15.669,0,0,1,207.61,53.632" transform="translate(-21.663 -4.666)" fill="#ff725e"/><path d="M191.938,69.316a15.635,15.635,0,1,1,6.106-1.232,15.6,15.6,0,0,1-6.106,1.232" transform="translate(-21.661 -4.663)" fill="#a3314f"/><path d="M191.569,93.964A63.417,63.417,0,0,1,191.4,87.5a63.438,63.438,0,0,1,.165-6.464,63.91,63.91,0,0,1,.164,6.464,63.888,63.888,0,0,1-.164,6.463" transform="translate(-23.523 -9.959)" fill="#a3314f"/><path d="M191.566,93.977c-.029,0-.085,0-.133-1.909-.032-1.22-.049-2.843-.049-4.571s.018-3.351.049-4.571c.048-1.909.1-1.909.133-1.909s.084,0,.133,1.909c.031,1.222.048,2.844.048,4.571s-.018,3.35-.048,4.571c-.049,1.909-.1,1.909-.133,1.909m0-12.913c-.073.237-.149,2.691-.149,6.434s.076,6.2.149,6.434c.073-.238.148-2.691.148-6.434s-.075-6.2-.148-6.434" transform="translate(-23.52 -9.957)" fill="#ff725e"/><path d="M180.334,76.883c.079.046-1.395,2.745-3.292,6.029s-3.5,5.911-3.577,5.865,1.395-2.744,3.292-6.03,3.5-5.91,3.577-5.864" transform="translate(-21.318 -9.449)" fill="#a3314f"/><path d="M173.466,88.792l-.011,0c-.025-.014-.074-.042.9-1.822.622-1.138,1.469-2.641,2.387-4.23s1.795-3.073,2.47-4.181c.952-1.561,1.084-1.693,1.12-1.693l.009,0c.026.015.074.042-.9,1.822-.622,1.139-1.47,2.642-2.387,4.23-1.627,2.817-3.436,5.834-3.582,5.872l-.006,0m6.85-11.885c-.191.186-1.56,2.4-3.547,5.846s-3.225,5.735-3.29,5.994c.192-.186,1.559-2.405,3.547-5.846s3.225-5.735,3.29-5.994" transform="translate(-21.316 -9.446)" fill="#ff725e"/><path d="M169.676,70.3a35.259,35.259,0,0,1-3.659,3.119,35.158,35.158,0,0,1-3.865,2.862,35.044,35.044,0,0,1,3.66-3.12,35.061,35.061,0,0,1,3.865-2.861" transform="translate(-19.928 -8.64)" fill="#a3314f"/><path d="M162.154,76.3a.021.021,0,0,1-.018-.008c-.017-.022-.052-.067,1.031-.99.692-.589,1.626-1.353,2.631-2.152a39.226,39.226,0,0,1,3.868-2.867h0a.023.023,0,0,1,.017.009.022.022,0,0,1,0,.018,38.179,38.179,0,0,1-3.666,3.123c-1.005.8-1.96,1.537-2.691,2.077a5.3,5.3,0,0,1-1.18.79m7.5-5.984a42.693,42.693,0,0,0-3.836,2.859,41.271,41.271,0,0,0-3.651,3.092A40.784,40.784,0,0,0,166,73.408a42.228,42.228,0,0,0,3.65-3.092" transform="translate(-19.925 -8.638)" fill="#a3314f"/><path d="M209.006,87a9.143,9.143,0,0,1-.413-1.59c-.225-.987-.545-2.346-.945-3.836s-.807-2.826-1.107-3.793a9.277,9.277,0,0,1-.44-1.582,7.243,7.243,0,0,1,.661,1.507c.357.951.8,2.285,1.2,3.783s.688,2.873.855,3.875A7.3,7.3,0,0,1,209.006,87" transform="translate(-25.328 -9.365)" fill="#a3314f"/><path d="M209,87.015c-.053,0-.118-.241-.428-1.6-.211-.919-.538-2.317-.946-3.835-.417-1.551-.831-2.907-1.106-3.792l-.005-.018c-.4-1.288-.479-1.566-.425-1.586.019-.008.048-.016.233.4.125.282.284.678.449,1.117.244.648.725,2,1.205,3.784s.741,3.194.855,3.877a7.93,7.93,0,0,1,.185,1.645.021.021,0,0,1-.014.009h0m-2.9-10.791c0,.114.2.746.441,1.535l.005.018c.275.885.689,2.241,1.108,3.793.408,1.519.734,2.917.945,3.836.179.782.334,1.464.392,1.567a10.122,10.122,0,0,0-.2-1.607c-.113-.682-.376-2.092-.854-3.874s-.96-3.132-1.2-3.78a10.131,10.131,0,0,0-.637-1.488" transform="translate(-25.326 -9.362)" fill="#ff725e"/><path d="M226.266,74.55a54.917,54.917,0,0,1-4.631-3.829,54.993,54.993,0,0,1-4.415-4.078,54.429,54.429,0,0,1,4.632,3.829,54.868,54.868,0,0,1,4.414,4.078" transform="translate(-26.695 -8.19)" fill="#a3314f"/><path d="M226.259,74.566a59.536,59.536,0,0,1-4.637-3.836c-1.208-1.056-2.333-2.062-3.166-2.832-1.305-1.205-1.269-1.246-1.25-1.268a.027.027,0,0,1,.016-.008h0a59.473,59.473,0,0,1,4.638,3.836c1.207,1.056,2.331,2.061,3.165,2.832,1.3,1.205,1.269,1.246,1.249,1.268a.021.021,0,0,1-.016.008Zm-9.02-7.907c.116.2,1.785,1.757,4.4,4.047s4.388,3.735,4.6,3.823c-.116-.2-1.785-1.757-4.4-4.047s-4.389-3.736-4.6-3.823" transform="translate(-26.693 -8.188)" fill="#ff725e"/><path d="M232.664,57.77a12.955,12.955,0,0,1-1.89-.272c-1.16-.193-2.766-.441-4.548-.646s-3.4-.325-4.577-.4a12.916,12.916,0,0,1-1.9-.163,9.5,9.5,0,0,1,1.911-.07c1.181.015,2.813.1,4.6.305s3.4.493,4.554.746a9.479,9.479,0,0,1,1.846.5" transform="translate(-27.006 -6.909)" fill="#a3314f"/><path d="M232.607,57.793c-.14,0-.523-.061-1.465-.218l-.372-.061c-1.588-.265-3.118-.482-4.547-.647s-2.963-.3-4.577-.4l-.373-.024c-1.292-.082-1.545-.1-1.545-.156a.023.023,0,0,1,.007-.015,10.346,10.346,0,0,1,1.921-.071c.815.011,2.5.064,4.607.3s3.761.573,4.555.746a10.483,10.483,0,0,1,1.856.5.021.021,0,0,1,0,.017c0,.014-.022.021-.071.021m-12.83-1.505c.111.035.7.072,1.5.123l.374.024c1.614.1,3.154.237,4.578.4s2.959.382,4.548.647l.373.062c.753.125,1.321.22,1.468.22h.017a13.3,13.3,0,0,0-1.819-.479c-.794-.174-2.44-.5-4.553-.746s-3.79-.294-4.6-.3a13.671,13.671,0,0,0-1.881.054" transform="translate(-27.004 -6.906)" fill="#ff725e"/><path d="M232.362,40.611c.022.089-3.371.991-7.576,2.016s-7.633,1.783-7.655,1.695,3.371-.991,7.576-2.016,7.633-1.783,7.654-1.695" transform="translate(-26.685 -4.99)" fill="#a3314f"/><path d="M217.164,44.34c-.046,0-.049-.01-.051-.017-.007-.029-.02-.082,2.215-.676,1.431-.381,3.34-.864,5.374-1.36s3.951-.945,5.4-1.265c2.259-.5,2.273-.445,2.278-.417s.02.082-2.215.676c-1.431.381-3.339.863-5.373,1.359s-3.95.945-5.4,1.265a19.064,19.064,0,0,1-2.227.435m15.162-3.722c-.31,0-3.212.63-7.616,1.7s-7.27,1.849-7.546,1.991c.31,0,3.213-.629,7.616-1.7s7.27-1.849,7.546-1.991" transform="translate(-26.682 -4.988)" fill="#a3314f"/><path d="M213.254,20.368c.076.05-1.547,2.639-3.624,5.782s-3.824,5.651-3.9,5.6,1.546-2.639,3.625-5.783,3.823-5.65,3.9-5.6" transform="translate(-25.283 -2.503)" fill="#a3314f"/><path d="M205.728,31.765a.018.018,0,0,1-.01,0,.03.03,0,0,1-.009-.014c-.031-.149,1.847-3.1,3.629-5.792,1.005-1.521,1.964-2.941,2.7-4,1.135-1.628,1.2-1.624,1.223-1.607s.069.046-1,1.753c-.686,1.093-1.616,2.531-2.621,4.051s-1.963,2.939-2.7,4c-1.029,1.477-1.174,1.61-1.212,1.61m7.507-11.374c-.2.172-1.692,2.29-3.87,5.583s-3.541,5.5-3.621,5.748c.2-.172,1.692-2.29,3.87-5.583s3.54-5.5,3.621-5.748" transform="translate(-25.281 -2.501)" fill="#ff725e"/><path d="M194.226,16.139a15.075,15.075,0,0,1,.023,2.152c-.019,1.326-.045,3.158-.043,5.182s.032,3.857.055,5.183a15.422,15.422,0,0,1-.018,2.152,12.8,12.8,0,0,1-.215-2.142c-.082-1.327-.149-3.163-.152-5.192s.061-3.865.139-5.192a12.81,12.81,0,0,1,.21-2.143" transform="translate(-23.827 -1.983)" fill="#a3314f"/><path d="M194.238,30.82c-.021,0-.048-.025-.106-.588-.041-.4-.083-.94-.123-1.57-.054-.893-.148-2.755-.151-5.192s.087-4.3.139-5.192c.038-.629.079-1.172.118-1.57.057-.565.085-.588.106-.588h0c.05,0,.067.2.039,2.167-.018,1.252-.045,3.142-.043,5.182,0,1.982.032,3.784.053,5.1l0,.084c.032,1.968.016,2.165-.034,2.167h0m-.015-14.65a18.457,18.457,0,0,0-.192,2.11c-.053.9-.142,2.76-.139,5.19s.1,4.3.151,5.191a18.45,18.45,0,0,0,.2,2.109c.036-.18.016-1.337,0-2.117l0-.084c-.021-1.316-.051-3.117-.053-5.1,0-2.041.026-3.931.044-5.182.011-.781.028-1.938-.008-2.117" transform="translate(-23.824 -1.981)" fill="#a3314f"/><path d="M178.11,33.408c-.078.047-1.729-2.512-3.686-5.716s-3.483-5.842-3.4-5.889,1.728,2.512,3.686,5.717,3.483,5.841,3.4,5.888" transform="translate(-21.017 -2.679)" fill="#a3314f"/><path d="M178.106,33.423c-.036,0-.174-.132-1.151-1.647-.7-1.08-1.6-2.529-2.548-4.078-1.679-2.748-3.444-5.749-3.408-5.9a.019.019,0,0,1,.009-.013c.027-.016.07-.046,1.16,1.643.7,1.081,1.6,2.529,2.55,4.079s1.823,3.016,2.466,4.129c1.005,1.738.96,1.766.933,1.782a.014.014,0,0,1-.01,0m-7.073-11.6c.069.254,1.35,2.5,3.4,5.853s3.461,5.52,3.656,5.7c-.07-.254-1.35-2.5-3.4-5.853s-3.462-5.52-3.656-5.7" transform="translate(-21.015 -2.677)" fill="#a3314f"/><path d="M168.5,42.28a7.822,7.822,0,0,1-1.667-.264c-1.018-.214-2.416-.556-3.941-1.005s-2.884-.922-3.856-1.295a7.786,7.786,0,0,1-1.543-.682,9.469,9.469,0,0,1,1.62.462c.988.316,2.354.75,3.872,1.2s2.9.824,3.9,1.095a9.528,9.528,0,0,1,1.611.491" transform="translate(-19.355 -4.796)" fill="#a3314f"/><path d="M168.443,42.3a3.1,3.1,0,0,1-.4-.046c-.311-.047-.73-.127-1.213-.228-.689-.145-2.116-.467-3.942-1.005s-3.2-1.042-3.857-1.3c-.461-.176-.856-.338-1.143-.466-.427-.191-.418-.218-.41-.237.019-.048.236,0,1.64.452.794.253,2.269.725,3.872,1.2,1.46.43,2.78.79,3.9,1.094,1.423.386,1.635.459,1.624.51,0,.011-.005.023-.069.023m-10.926-3.263a11.165,11.165,0,0,0,1.523.658c.658.253,2.033.756,3.855,1.294s3.251.86,3.939,1a12.14,12.14,0,0,0,1.613.275h.023c-.114-.069-.928-.29-1.588-.469-1.123-.3-2.443-.664-3.9-1.095-1.6-.473-3.08-.946-3.873-1.2-.617-.2-1.452-.463-1.588-.467" transform="translate(-19.353 -4.794)" fill="#a3314f"/><path d="M164.675,56.458a38.783,38.783,0,0,1-5,.646,38.683,38.683,0,0,1-5.032.318,38.753,38.753,0,0,1,5-.646,38.49,38.49,0,0,1,5.032-.318" transform="translate(-19.005 -6.935)" fill="#a3314f"/><path d="M154.927,57.464a.83.83,0,0,1-.293-.025.025.025,0,0,1,0-.034,42.021,42.021,0,0,1,5.01-.646,41.747,41.747,0,0,1,5.04-.32.023.023,0,0,1,0,.034,42.025,42.025,0,0,1-5.009.646c-1.926.186-3.993.346-4.748.346m-.261-.046a46.055,46.055,0,0,0,5.007-.332,45.273,45.273,0,0,0,4.977-.628,46.069,46.069,0,0,0-5.006.332,45.271,45.271,0,0,0-4.978.628" transform="translate(-19.003 -6.933)" fill="#ff725e"/></svg>