<svg xmlns="http://www.w3.org/2000/svg" xmlns:xlink="http://www.w3.org/1999/xlink" width="259.375" height="194.278" viewBox="0 0 259.375 194.278">
  <defs>
    <clipPath id="clip-path">
      <rect id="Rectángulo_294847" data-name="Rectángulo 294847" width="259.375" height="194.278" fill="none"/>
    </clipPath>
  </defs>
  <g id="Grupo_236288" data-name="Grupo 236288" clip-path="url(#clip-path)">
    <path id="Trazado_259599" data-name="Trazado 259599" d="M243.88,164.044l0,.007,24.4-4.172,30.989,9.168,13.236-4.884c1.843.457,3.493.915,4.986,1.377h0s47.8,7.637,42.039,49.935l-26.71.64a20.769,20.769,0,0,1-1.333,3.11l-9.565,31.623H243.64l-.728-25.8-23.757,15.289A4.651,4.651,0,0,1,212,236.855c-1.006-10.98-2.22-30.3-2.237-30.8-1.252-35.147,34.113-42.007,34.113-42.007" transform="translate(-209.735 -76.716)" fill="#a3314f"/>
    <path id="Trazado_259600" data-name="Trazado 259600" d="M257.281,264.638a.521.521,0,0,0,.5-.391l4.759-18.543a.52.52,0,1,0-1.008-.259l-4.76,18.543a.522.522,0,0,0,.375.633.531.531,0,0,0,.13.016" transform="translate(-136.743 -117.586)" fill="#121936"/>
    <path id="Trazado_259601" data-name="Trazado 259601" d="M405.386,259.7a.514.514,0,0,0,.316-.108L420.3,248.368a7.206,7.206,0,0,0,3.182-5.292l1.5-14.737a.52.52,0,0,0-1.035-.106l-1.5,14.737a6.191,6.191,0,0,1-2.751,4.551L405.068,258.77a.52.52,0,0,0,.317.933" transform="translate(-376.205 -109.291)" fill="#121936"/>
    <path id="Trazado_259602" data-name="Trazado 259602" d="M287.481,56.731h0l7.213-.251a8.641,8.641,0,0,1,8.082,4.937l-1.4-20.475s7.215,4.179,16.686-1.293c0,0,10.892-3.613,14.3,4.81.008.084.02.167.026.252l2.1,30.437c.767,11.134-6.839,20.846-17.292,22.591l-2.435,12.086a16.724,16.724,0,0,1-19.743,12.9l-.376-.075c-9.062-1.826-16.8-8.675-15.008-17.593l7.125-29.586-1.67.058a9.426,9.426,0,0,1-9.719-9.065l-.024-.689a8.657,8.657,0,0,1,8.307-8.906Z" transform="translate(-218.392 -18.656)" fill="#ffaa89"/>
    <path id="Trazado_259603" data-name="Trazado 259603" d="M330.1,141.438s-18.28-2.174-20.242-9.137h0s-2.469,9.714,18.544,18.5Z" transform="translate(-231.452 -61.999)" fill="#ff6a48"/>
    <path id="Trazado_259604" data-name="Trazado 259604" d="M358.716,114.991a15.2,15.2,0,0,0-1.382-5.767l7.938-.276Z" transform="translate(-291.769 -52.278)" fill="#121936"/>
    <path id="Trazado_259605" data-name="Trazado 259605" d="M281.542,16.686S276.6,8.058,289.825,1.829s18.1,5.459,18.1,5.459,1.578-10.707,17.588-5.52,1.8,25.029,1.8,25.029c-.106-.35-.226-.677-.354-.992-3.411-8.424-14.3-4.81-14.3-4.81-9.471,5.472-16.686,1.293-16.686,1.293l1.24,18.18c.537,3.634,1.253,8.444,1.765,11.884a3.468,3.468,0,0,0,4.729,2.7l11.457-4.615a3.465,3.465,0,0,1,1.725-.225l9.053,1.124a3.471,3.471,0,0,1,3.033,3.173l.681,8.678a16.3,16.3,0,0,1-16.609,17.566l-5.053-.113a3.468,3.468,0,0,1-1.012-.174l-1.27-.073a18.565,18.565,0,0,1-15.88-26.115,3.473,3.473,0,0,0,.645-2.15l-.525-13.262a3.408,3.408,0,0,1,.117-1.03c-.258-.015-.518-.021-.782-.012l-7.212.251-3.826.133a8.565,8.565,0,0,0-5.587,2.345c-2.29-5.75-4.291-11.422-4.875-14.945-1.578-9.531,13.755-8.922,13.755-8.922" transform="translate(-212.986 0)" fill="#121936"/>
    <path id="Trazado_259606" data-name="Trazado 259606" d="M368.665,91.236a.517.517,0,0,0,.284-.084l3.016-1.967a.52.52,0,0,0,.1-.783l-3.224-3.588a.52.52,0,0,0-.775.7l2.819,3.136L368.38,90.28a.52.52,0,0,0,.285.956" transform="translate(-304.214 -40.614)" fill="#ff6a48"/>
    <path id="Trazado_259607" data-name="Trazado 259607" d="M285.671,77.777a1.96,1.96,0,1,1-2.325-1.507,1.96,1.96,0,0,1,2.325,1.507" transform="translate(-172.919 -36.576)" fill="#121936"/>
    <path id="Trazado_259608" data-name="Trazado 259608" d="M312.841,78.2a1.96,1.96,0,1,1-1.941-1.978,1.96,1.96,0,0,1,1.941,1.978" transform="translate(-214.156 -36.576)" fill="#121936"/>
    <path id="Trazado_259609" data-name="Trazado 259609" d="M309.665,83.632a2.791,2.791,0,0,1,3.456.015" transform="translate(-214.822 -39.84)" fill="#ffa386"/>
    <path id="Trazado_259610" data-name="Trazado 259610" d="M312.64,83.69a.52.52,0,0,0,.318-.932,3.29,3.29,0,0,0-4.1,0,.52.52,0,0,0,.659.8,2.269,2.269,0,0,1,2.809.023.515.515,0,0,0,.317.109" transform="translate(-214.342 -39.363)" fill="#ff6a48"/>
    <path id="Trazado_259611" data-name="Trazado 259611" d="M284.818,84.462a.52.52,0,0,0,.353-.9,2.994,2.994,0,0,0-3.913-.255.52.52,0,0,0,.637.822,1.95,1.95,0,0,1,2.569.2.519.519,0,0,0,.353.138" transform="translate(-172.16 -39.68)" fill="#ff6a48"/>
    <path id="Trazado_259612" data-name="Trazado 259612" d="M276.562,78.162c3.625,0,6.573-3.376,6.573-7.527s-2.948-7.527-6.573-7.527-6.573,3.376-6.573,7.527,2.948,7.527,6.573,7.527m0-14.013c3.05,0,5.532,2.91,5.532,6.486s-2.482,6.486-5.532,6.486-5.532-2.91-5.532-6.486,2.482-6.486,5.532-6.486" transform="translate(-164.198 -30.282)" fill="#fff"/>
    <path id="Trazado_259613" data-name="Trazado 259613" d="M288.854,71.352v6.806h3.537a1.646,1.646,0,0,1,1.646,1.646v.744a3.223,3.223,0,0,1-3.223,3.222h-3.222" transform="translate(-184.257 -34.237)" fill="#ffaa89"/>
    <path id="Trazado_259614" data-name="Trazado 259614" d="M287.112,83.811h3.222a3.747,3.747,0,0,0,3.743-3.743v-.744a2.168,2.168,0,0,0-2.165-2.165h-3.017V70.872a.52.52,0,1,0-1.04,0V78.2h4.058a1.127,1.127,0,0,1,1.125,1.125v.744a2.706,2.706,0,0,1-2.7,2.7h-3.222a.52.52,0,1,0,0,1.04" transform="translate(-183.777 -33.757)" fill="#ff6a48"/>
    <path id="Trazado_259615" data-name="Trazado 259615" d="M307.049,77.251c3.624,0,6.573-3.376,6.573-7.527s-2.948-7.527-6.573-7.527-6.573,3.376-6.573,7.527,2.949,7.527,6.573,7.527m0-14.013c3.05,0,5.532,2.91,5.532,6.486s-2.482,6.486-5.532,6.486-5.533-2.91-5.533-6.486,2.482-6.486,5.533-6.486" transform="translate(-210.544 -29.844)" fill="#fff"/>
    <path id="Trazado_259616" data-name="Trazado 259616" d="M307.686,58.9a5.018,5.018,0,0,0,2.052-.378c.706-.229,1.422-.442,2.05-.605s1.358-.327,2.086-.471a4.989,4.989,0,0,0,1.972-.67c.48-.369.53-1.08-.319-1.718a5.756,5.756,0,0,0-4.679-.532,5.585,5.585,0,0,0-3.774,2.732c-.4.964.005,1.556.611,1.642" transform="translate(-216.461 -26.048)" fill="#121936"/>
    <path id="Trazado_259617" data-name="Trazado 259617" d="M283.251,56.018a3.458,3.458,0,0,1-1.634.007c-.575-.085-1.155-.154-1.661-.194s-1.091-.063-1.673-.07a3.452,3.452,0,0,1-1.61-.264c-.419-.244-.551-.86.019-1.559a4.227,4.227,0,0,1,3.541-1.236,4.144,4.144,0,0,1,3.273,1.776c.439.779.2,1.365-.255,1.54" transform="translate(-168.089 -25.281)" fill="#121936"/>
    <path id="Trazado_259618" data-name="Trazado 259618" d="M295.844,75.5h2.68a.52.52,0,0,0,0-1.04h-2.68a.52.52,0,0,0,0,1.04" transform="translate(-193.287 -35.727)" fill="#fff"/>
    <path id="Trazado_259619" data-name="Trazado 259619" d="M340.2,73.614a.52.52,0,0,0,.048-1.038l-15.925-1.5a.52.52,0,0,0-.1,1.036l15.925,1.5.049,0" transform="translate(-249.742 -34.102)" fill="#fff"/>
    <path id="Trazado_259620" data-name="Trazado 259620" d="M299.646,110.267h.06l6.245-.08a.52.52,0,0,0-.007-1.04h-.006l-6.245.08a3.785,3.785,0,0,1-3.706-2.9l-1.013.237a4.827,4.827,0,0,0,4.671,3.7" transform="translate(-200.525 -51.02)" fill="#ff6a48"/>
    <path id="Trazado_259621" data-name="Trazado 259621" d="M303.376,156.76l8,6.922-1.194,16.358a1.009,1.009,0,0,1-1.678.68l-14.718-13.114Z" transform="translate(-204.821 -75.219)" fill="#fff"/>
    <path id="Trazado_259622" data-name="Trazado 259622" d="M338.448,148.43l26.171,15.1-10.508,17.646a1.539,1.539,0,0,1-2.317.388l-25.459-21.558Z" transform="translate(-274.992 -71.222)" fill="#fff"/>
    <path id="Trazado_259623" data-name="Trazado 259623" d="M325.07,189.277l-6.923,14.08-15-8.933,9.6-16.125Z" transform="translate(-223.381 -85.554)" fill="#121936"/>
    <path id="Trazado_259624" data-name="Trazado 259624" d="M.048,39.884l16.2.113,21.145,0-.049-7.841a16.593,16.593,0,0,1,.267-3.083c2.823-15.5,25.515-15.591,28.5-.122a16.619,16.619,0,0,1,.3,3.153v9.429H66.4l-.038,7.029c-.041,7.429,4.754,13.782,10.976,15.162a9.928,9.928,0,0,1-1.5.071c-1.142.031-2.05,0-2.05,0l-60.4.079C5.947,63.824-.046,56.968,0,48.561Z" transform="translate(182.019 -8.348)" fill="#121936"/>
    <path id="Trazado_259625" data-name="Trazado 259625" d="M48.958,39.667a22.4,22.4,0,0,1,14.6-21,16.474,16.474,0,0,1,6.756-1.49l50.213.058,0-.007h27.372c.366,0,.728.016,1.088.04h.933V17.3c-.07.008-.138.02-.208.03a16.538,16.538,0,0,0-14.31,15.4h.009V188.8a13.794,13.794,0,0,1-13.868,13.72H48.986V139.553h-.028Z" transform="translate(83.994 -8.243)" fill="#fff"/>
    <path id="Trazado_259626" data-name="Trazado 259626" d="M105.148,178.1h58.915a.52.52,0,0,0,0-1.04H105.148a.52.52,0,0,0,0,1.04" transform="translate(40.368 -84.962)" fill="#121936"/>
    <path id="Trazado_259627" data-name="Trazado 259627" d="M136.561,162.1H161.38a.52.52,0,0,0,0-1.04H136.561a.52.52,0,1,0,0,1.04" transform="translate(26.711 -77.284)" fill="#121936"/>
    <path id="Trazado_259628" data-name="Trazado 259628" d="M105.148,201.59h58.915a.52.52,0,1,0,0-1.04H105.148a.52.52,0,1,0,0,1.04" transform="translate(40.368 -96.231)" fill="#121936"/>
    <path id="Trazado_259629" data-name="Trazado 259629" d="M105.148,225.075h58.915a.52.52,0,0,0,0-1.04H105.148a.52.52,0,0,0,0,1.04" transform="translate(40.368 -107.5)" fill="#121936"/>
    <path id="Trazado_259630" data-name="Trazado 259630" d="M105.148,247.055h58.915a.52.52,0,1,0,0-1.04H105.148a.52.52,0,0,0,0,1.04" transform="translate(40.368 -118.047)" fill="#121936"/>
    <path id="Trazado_259631" data-name="Trazado 259631" d="M138.45,51.846h0a2.016,2.016,0,0,1,3.937.624,2.017,2.017,0,0,0,3.653,1.186,2.017,2.017,0,0,1,3.552,1.81,2.017,2.017,0,0,0,3.107,2.258,2.017,2.017,0,0,1,2.819,2.818h0a2.017,2.017,0,0,0,2.258,3.107,2.017,2.017,0,0,1,1.81,3.552,2.017,2.017,0,0,0,1.187,3.653,2.016,2.016,0,0,1,.623,3.937,2.017,2.017,0,0,0,0,3.841,2.016,2.016,0,0,1-.623,3.937,2.017,2.017,0,0,0-1.187,3.653,2.016,2.016,0,0,1-1.81,3.551,2.017,2.017,0,0,0-2.258,3.107h0A2.017,2.017,0,0,1,152.7,95.7a2.017,2.017,0,0,0-3.107,2.257,2.017,2.017,0,0,1-3.552,1.81,2.017,2.017,0,0,0-3.653,1.186,2.016,2.016,0,0,1-3.937.624,2.017,2.017,0,0,0-3.84,0,2.017,2.017,0,0,1-3.937-.624,2.016,2.016,0,0,0-3.652-1.186,2.017,2.017,0,0,1-3.552-1.81,2.017,2.017,0,0,0-3.107-2.257,2.017,2.017,0,0,1-2.819-2.818h0a2.016,2.016,0,0,0-2.257-3.107,2.016,2.016,0,0,1-1.81-3.551,2.017,2.017,0,0,0-1.187-3.653,2.017,2.017,0,0,1-.624-3.937,2.017,2.017,0,0,0,0-3.841,2.017,2.017,0,0,1,.624-3.937,2.017,2.017,0,0,0,1.187-3.653,2.017,2.017,0,0,1,1.81-3.552,2.016,2.016,0,0,0,2.257-3.107,2.017,2.017,0,0,1,2.819-2.818,2.017,2.017,0,0,0,3.107-2.258,2.017,2.017,0,0,1,3.552-1.81,2.016,2.016,0,0,0,3.652-1.186,2.017,2.017,0,0,1,3.937-.624,2.017,2.017,0,0,0,3.84,0" transform="translate(39.224 -24.205)" fill="#ffd066"/>
    <path id="Trazado_259632" data-name="Trazado 259632" d="M139.3,110.618h18.544a3.941,3.941,0,0,0,3.937-3.937V92.021a3.941,3.941,0,0,0-3.937-3.937H139.3a3.942,3.942,0,0,0-3.937,3.937v14.661a3.942,3.942,0,0,0,3.937,3.937m18.544-20.973a2.379,2.379,0,0,1,2.376,2.376v14.661a2.379,2.379,0,0,1-2.376,2.376H139.3a2.379,2.379,0,0,1-2.377-2.376V92.021a2.379,2.379,0,0,1,2.377-2.376Z" transform="translate(27.178 -42.266)" fill="#121936"/>
    <path id="Trazado_259633" data-name="Trazado 259633" d="M143.1,80.235a.78.78,0,0,0,.78-.78v-4.26c0-2.845,2.624-5.159,5.849-5.159h4.366c3.225,0,5.849,2.314,5.849,5.159v4.26a.78.78,0,1,0,1.56,0v-4.26c0-3.706-3.324-6.72-7.41-6.72h-4.366c-4.085,0-7.41,3.014-7.41,6.72v4.26a.78.78,0,0,0,.78.78" transform="translate(23.844 -32.857)" fill="#121936"/>
    <path id="Trazado_259634" data-name="Trazado 259634" d="M152.263,101.315a4.573,4.573,0,0,1,9.124-.167,4.253,4.253,0,0,1-1.739,3.58.92.92,0,0,0-.383.734v1.191a.948.948,0,0,1-.971.924H155.36a.948.948,0,0,1-.971-.924v-1.19a.921.921,0,0,0-.381-.734,4.261,4.261,0,0,1-1.745-3.413" transform="translate(18.784 -46.531)" fill="#121936"/>
    <path id="Trazado_259635" data-name="Trazado 259635" d="M159.178,119.616a.966.966,0,1,0,.966-.966.967.967,0,0,0-.966.966" transform="translate(15.465 -56.933)" fill="#121936"/>
    <path id="Trazado_259636" data-name="Trazado 259636" d="M160.025,120.592a1.1,1.1,0,1,0-1.1-1.1,1.1,1.1,0,0,0,1.1,1.1m0-1.933a.836.836,0,1,1-.836.836.837.837,0,0,1,.836-.836" transform="translate(15.586 -56.812)" fill="#ffd066"/>
    <path id="Trazado_259637" data-name="Trazado 259637" d="M157.946,118.65h2.878a.352.352,0,0,0,.352-.352v-.1a.351.351,0,0,0-.352-.352h-2.878a.352.352,0,0,0-.352.352v.1a.352.352,0,0,0,.352.352" transform="translate(16.226 -56.546)" fill="#121936"/>
    <path id="Trazado_259638" data-name="Trazado 259638" d="M157.826,118.66H160.7a.482.482,0,0,0,.482-.482v-.1a.482.482,0,0,0-.482-.482h-2.878a.482.482,0,0,0-.482.482v.1a.482.482,0,0,0,.482.482m2.878-.8a.222.222,0,0,1,.222.222v.1a.222.222,0,0,1-.222.222h-2.878a.222.222,0,0,1-.222-.222v-.1a.222.222,0,0,1,.222-.222Z" transform="translate(16.345 -56.426)" fill="#ffd066"/>
    <path id="Trazado_259639" data-name="Trazado 259639" d="M158.322,120.1h2.527a.307.307,0,0,0,.307-.307V119.7a.307.307,0,0,0-.307-.307h-2.527a.307.307,0,0,0-.307.307v.089a.308.308,0,0,0,.307.307" transform="translate(16.024 -57.289)" fill="#121936"/>
    <path id="Trazado_259640" data-name="Trazado 259640" d="M158.2,120.1h2.527a.437.437,0,0,0,.437-.436v-.089a.438.438,0,0,0-.437-.437H158.2a.438.438,0,0,0-.437.437v.089a.437.437,0,0,0,.437.436m2.527-.7a.178.178,0,0,1,.177.177v.089a.177.177,0,0,1-.177.176H158.2a.177.177,0,0,1-.177-.176v-.089a.178.178,0,0,1,.177-.177Z" transform="translate(16.144 -57.168)" fill="#ffd066"/>
    <path id="Trazado_259641" data-name="Trazado 259641" d="M155.576,104.159a.194.194,0,0,0,.188-.144,3.074,3.074,0,0,0-1.095-3.265.2.2,0,0,0-.223.32,2.635,2.635,0,0,1,.943,2.842.2.2,0,0,0,.136.24.2.2,0,0,0,.051.007" transform="translate(23.197 -48.327)" fill="#ffd066"/>
    <path id="Trazado_259642" data-name="Trazado 259642" d="M103.149,61.05a.518.518,0,0,0,.324-.113l4.909-3.909a.52.52,0,0,0-.648-.814l-4.909,3.909a.52.52,0,0,0,.325.927" transform="translate(97.414 -26.919)" fill="#121936"/>
    <path id="Trazado_259643" data-name="Trazado 259643" d="M98.032,99.111a.52.52,0,0,0,.119-1.027l-6.109-1.433a.52.52,0,1,0-.238,1.013L97.913,99.1a.52.52,0,0,0,.119.014" transform="translate(113.279 -46.37)" fill="#121936"/>
    <path id="Trazado_259644" data-name="Trazado 259644" d="M93.693,79.885a.518.518,0,0,0,.139-.019l6.048-1.671a.52.52,0,1,0-.278-1l-6.048,1.671a.52.52,0,0,0,.138,1.022" transform="translate(110.647 -37.031)" fill="#121936"/>
    <path id="Trazado_259645" data-name="Trazado 259645" d="M221.85,99.075a.52.52,0,0,0,.042-1.039l-6.254-.507a.52.52,0,1,0-.084,1.037l6.254.507.043,0" transform="translate(-74.87 -46.797)" fill="#121936"/>
    <path id="Trazado_259646" data-name="Trazado 259646" d="M220.13,79.885a.52.52,0,0,0,.138-1.022l-6.048-1.671a.52.52,0,1,0-.278,1l6.048,1.671a.515.515,0,0,0,.139.019" transform="translate(-72.362 -37.031)" fill="#121936"/>
    <path id="Trazado_259647" data-name="Trazado 259647" d="M212.544,116.81a.516.516,0,0,0,.239-.059l5.568-2.893a.52.52,0,1,0-.48-.923l-5.568,2.893a.52.52,0,0,0,.24.982" transform="translate(-69.544 -54.162)" fill="#121936"/>
    <path id="Trazado_259648" data-name="Trazado 259648" d="M181.653,59.393a7.368,7.368,0,0,0,7.356,7.377,7.355,7.355,0,1,0-7.356-7.377m13.123.046a5.754,5.754,0,0,1-5.763,5.812,5.836,5.836,0,1,1,5.763-5.812m-8.223-1.514h0a.981.981,0,0,0,1.3.217,1.677,1.677,0,0,1,.922-.328,1.575,1.575,0,0,1,0,3.137,1.928,1.928,0,0,1-.959-.313.938.938,0,0,0-1.17.166l-.023.026a.942.942,0,0,0,.151,1.431,4.023,4.023,0,0,0,2.131.657,3.438,3.438,0,0,0,3.613-3.5,3.483,3.483,0,0,0-3.7-3.482,4.115,4.115,0,0,0-2.055.594.937.937,0,0,0-.207,1.4" transform="translate(-31.414 -24.98)" fill="#121936"/>
    <path id="Trazado_259649" data-name="Trazado 259649" d="M231.5,282.41V305.4a16.475,16.475,0,0,1-16.474,16.475h-3.059a19.8,19.8,0,0,1-19.8-19.8,13.934,13.934,0,0,0-13.935-13.934h-5.73a11.828,11.828,0,0,0-3.75.609v-.609h-.135V279.5a11.15,11.15,0,0,1,11.151-11.15h65.162v.016A14.063,14.063,0,0,0,231.5,282.41" transform="translate(-73.269 -128.762)" fill="#f4f2ed"/>
    <line id="Línea_1170" data-name="Línea 1170" transform="translate(6.651 194.278)" fill="none" stroke="#faf8f3" stroke-linecap="round" stroke-linejoin="round" stroke-width="0"/>
    <path id="Trazado_259650" data-name="Trazado 259650" d="M327.474,326.427l.12-8.876A11.151,11.151,0,0,1,338.745,306.4h65.162v.609a11.853,11.853,0,0,0-8.1,11.241v5.6a17.45,17.45,0,0,1-17.45,17.45H315.071a15.371,15.371,0,0,0,12.4-14.874" transform="translate(-308.42 -147.022)" fill="#faf8f3"/>
    <path id="Trazado_259651" data-name="Trazado 259651" d="M77.063,347.232a12.469,12.469,0,0,1-.279,2.621,14.437,14.437,0,0,0,.244-2.734Z" transform="translate(142.371 -166.561)" fill="#121936"/>
    <line id="Línea_1171" data-name="Línea 1171" transform="translate(69.935 194.278)" fill="none" stroke="#121936" stroke-linecap="round" stroke-linejoin="round" stroke-width="0"/>
    <path id="Trazado_259652" data-name="Trazado 259652" d="M94.771,305.59v-5.6a11.852,11.852,0,0,1,11.851-11.851h5.73a13.934,13.934,0,0,1,13.934,13.934,19.8,19.8,0,0,0,19.8,19.8h3.058A16.474,16.474,0,0,0,165.615,305.4V282.41a14.063,14.063,0,0,1,13.435-14.049c.209-.009.418-.016.629-.016a17.19,17.19,0,0,1,17.19,17.19v18.818a17.516,17.516,0,0,0,17.516,17.516,12.438,12.438,0,0,0,12.157-9.814,13.462,13.462,0,0,1-13.531,10.985H77.321a17.451,17.451,0,0,0,17.45-17.45" transform="translate(-7.386 -128.762)" fill="#121936"/>
    <path id="Trazado_259653" data-name="Trazado 259653" d="M50.142,209.873c2.464-5.279,8.1-1.4,11.772.468,1.663,1.016,3.2,1.923,4.635,2.76a17.147,17.147,0,0,1-.136-5.982,2.362,2.362,0,0,1,.972-1.659,1.52,1.52,0,0,1,1.4.028,3.859,3.859,0,0,1,1.075.915c2.969,3.277,9.631,14.515,9.631,14.515a30.24,30.24,0,0,1,2.507,8.713c1.146,8.683-6.756,16.62-15.076,14.9a6.419,6.419,0,0,1-2.574-1.043L50.354,233.444c-2.675-1.705-2.968-5.966-.481-6.008-2.379-.708-4.676-2.382-3.312-5.353.573-1.717,1.9-1.97,3.318-1.749-2.155-.7-4.094-1.83-3.14-4.37.66-2.88,2.993-2.974,5.173-2.456-1.408-.661-2.479-1.74-1.771-3.636" transform="translate(153.263 -98.512)" fill="#ffa386"/>
    <path id="Trazado_259654" data-name="Trazado 259654" d="M71.6,223.024a.52.52,0,0,0,.262-.97L64.3,217.649a.52.52,0,0,0-.523.9l7.561,4.4a.517.517,0,0,0,.261.071" transform="translate(154.22 -104.402)" fill="#ff6a48"/>
    <path id="Trazado_259655" data-name="Trazado 259655" d="M99.269,224.014a.52.52,0,0,0,.269-.965,62.45,62.45,0,0,0-6.176-3.388.52.52,0,0,0-.274,1A61.258,61.258,0,0,1,99,223.94a.521.521,0,0,0,.268.074" transform="translate(111.363 -105.393)" fill="#ff6a48"/>
    <path id="Trazado_259656" data-name="Trazado 259656" d="M103.386,237.173a.52.52,0,0,0,.261-.97l-4.757-2.755a.52.52,0,1,0-.521.9l4.757,2.755a.513.513,0,0,0,.26.07" transform="translate(104.436 -111.983)" fill="#ff6a48"/>
    <path id="Trazado_259657" data-name="Trazado 259657" d="M103.947,250.228a.52.52,0,0,0,.251-.976l-2.6-1.427a.52.52,0,0,0-.5.911l2.6,1.427a.515.515,0,0,0,.25.064" transform="translate(102.459 -118.884)" fill="#ff6a48"/>
    <path id="Trazado_259658" data-name="Trazado 259658" d="M281.953,158.426l-3.19,2.736a2,2,0,0,0-.15,2.816l2.865,3.341a2,2,0,0,0,2.806.28l3.19-2.736a2,2,0,0,0,.151-2.816l-2.865-3.34a2,2,0,0,0-2.806-.28" transform="translate(-173.418 -75.801)" fill="#ff6a48"/>
    <rect id="Rectángulo_294846" data-name="Rectángulo 294846" width="45.443" height="8.098" transform="matrix(-0.651, -0.759, 0.759, -0.651, 136.095, 124.228)" fill="#ffd066"/>
    <path id="Trazado_259659" data-name="Trazado 259659" d="M224.7,228.775l-6.033,5.175c-.026.022-.12.1.022.089l9.484,4.89-3.387-10.118c-.013-.038-.059-.058-.085-.035" transform="translate(-82.519 -109.77)" fill="#ffaa89"/>
    <path id="Trazado_259660" data-name="Trazado 259660" d="M220.817,241.331l-2.16,1.852c-.009.008-.043.036.008.032l3.394,1.75-1.212-3.621a.021.021,0,0,0-.03-.013" transform="translate(-76.412 -115.798)" fill="#233863"/>
    <path id="Trazado_259661" data-name="Trazado 259661" d="M281.871,179.689a.26.26,0,0,0,.2-.429l-4.255-4.961a.26.26,0,1,0-.395.339l4.255,4.961a.261.261,0,0,0,.2.091" transform="translate(-167.027 -83.591)" fill="#fff"/>
    <path id="Trazado_259662" data-name="Trazado 259662" d="M269.789,185.01a.26.26,0,0,0,.2-.429l-12.269-14.306a.26.26,0,0,0-.4.339l12.269,14.3a.261.261,0,0,0,.2.091" transform="translate(-144.492 -81.661)" fill="#fff"/>
    <path id="Trazado_259663" data-name="Trazado 259663" d="M250.908,231.591l52.49-34.716,12.167-9.534a22.913,22.913,0,0,1,11.8-4.758l13.941-1.427a10.377,10.377,0,0,1,5.807,1.1l6.618,3.406a2.974,2.974,0,0,1,1.606,2.844l-.053.776.508.242a3.988,3.988,0,0,1,2.274,3.613l-.008,2.738.456,1.07a4.117,4.117,0,0,1-.714,4.354l-10.274,11.529a1.621,1.621,0,0,1-2.378.045,4.628,4.628,0,0,1-.269-6.113l3.178-3.946-10.645,6.3a12.835,12.835,0,0,1-5.755,1.766l-6.563.4-6.787,7.747-40.71,49.115a28.474,28.474,0,0,1-47.623-9.29l-3.723-8.151Z" transform="translate(-217.151 -86.899)" fill="#ffaa89"/>
    <path id="Trazado_259664" data-name="Trazado 259664" d="M240.853,195a.52.52,0,0,0,.158-1.016l-7.909-2.524a.521.521,0,0,0-.316.992l7.909,2.524a.522.522,0,0,0,.158.024" transform="translate(-102.897 -91.857)" fill="#ff6a48"/>
    <path id="Trazado_259665" data-name="Trazado 259665" d="M237.71,207.083a.52.52,0,0,0,.128-1.024l-9.83-2.5a.52.52,0,1,0-.257,1.008l9.83,2.5a.526.526,0,0,0,.129.016" transform="translate(-97.118 -97.666)" fill="#ff6a48"/>
    <path id="Trazado_259666" data-name="Trazado 259666" d="M242.7,220.832a.52.52,0,0,0,.388-.173l1.981-2.214a.52.52,0,0,0-.776-.694l-1.98,2.214a.52.52,0,0,0,.387.867" transform="translate(-111.794 -104.402)" fill="#ff6a48"/>
    <path id="Trazado_259667" data-name="Trazado 259667" d="M298.4,238.878a.52.52,0,0,0,.02-1.04l-7.751-.3a.52.52,0,0,0-.041,1.039l7.751.3h.021" transform="translate(-190.463 -113.977)" fill="#ff6a48"/>
  </g>
</svg>
