<svg id="Grupo_236332" data-name="Grupo 236332" xmlns="http://www.w3.org/2000/svg" xmlns:xlink="http://www.w3.org/1999/xlink" width="504.864" height="338.759" viewBox="0 0 504.864 338.759">
  <defs>
    <clipPath id="clip-path">
      <rect id="Rectángulo_294869" data-name="Rectángulo 294869" width="504.864" height="338.759" fill="none"/>
    </clipPath>
    <clipPath id="clip-path-4">
      <rect id="Rectángulo_294874" data-name="Rectángulo 294874" width="135.515" height="116.955" fill="none"/>
    </clipPath>
    <clipPath id="clip-path-5">
      <rect id="Rectángulo_294875" data-name="Rectángulo 294875" width="20.009" height="51.834" fill="none"/>
    </clipPath>
    <clipPath id="clip-path-7">
      <rect id="Rectángulo_294877" data-name="Rectángulo 294877" width="25.373" height="50.337" fill="none"/>
    </clipPath>
    <clipPath id="clip-path-9">
      <rect id="Rectángulo_294879" data-name="Rectángulo 294879" width="15.564" height="17.242" fill="none"/>
    </clipPath>
    <clipPath id="clip-path-10">
      <rect id="Rectángulo_294880" data-name="Rectángulo 294880" width="2.282" height="2.333" fill="none"/>
    </clipPath>
    <clipPath id="clip-path-11">
      <rect id="Rectángulo_294882" data-name="Rectángulo 294882" width="11.172" height="20.446" fill="none"/>
    </clipPath>
    <clipPath id="clip-path-12">
      <rect id="Rectángulo_294883" data-name="Rectángulo 294883" width="12.836" height="10.112" fill="none"/>
    </clipPath>
    <clipPath id="clip-path-13">
      <rect id="Rectángulo_294886" data-name="Rectángulo 294886" width="13.537" height="15.728" fill="#a3314f"/>
    </clipPath>
  </defs>
  <g id="Grupo_236333" data-name="Grupo 236333">
    <rect id="Rectángulo_294862" data-name="Rectángulo 294862" width="74.612" height="108.148" transform="translate(28.579 15.758)" fill="#e0e0e0"/>
    <rect id="Rectángulo_294863" data-name="Rectángulo 294863" width="74.613" height="108.148" transform="translate(24.841 15.758)" fill="#f5f5f5"/>
    <rect id="Rectángulo_294864" data-name="Rectángulo 294864" width="56.073" height="84.722" transform="translate(34.111 27.471)" fill="#fff"/>
    <g id="Grupo_236296" data-name="Grupo 236296">
      <g id="Grupo_236295" data-name="Grupo 236295" clip-path="url(#clip-path)">
        <path id="Trazado_260082" data-name="Trazado 260082" d="M98.418,120.036s-.007-.146-.011-.422-.006-.692-.011-1.224c0-1.084-.013-2.672-.023-4.734-.011-4.136-.029-10.163-.05-17.777-.023-15.217-.055-36.767-.093-62.144l.188.19L41.9,33.942H41.9l.2-.207c-.016,32.557-.03,62.574-.042,86.3l-.163-.165,41.139.087L94.4,120l2.984.019c.675.006,1.031.017,1.031.017s-.333.012-1,.017l-2.953.019-11.329.041L41.9,120.2h-.163v-.165c-.011-23.727-.025-53.745-.041-86.3v-.206H41.9l56.514.017h.188v.19c-.038,25.428-.07,47.02-.093,62.268-.021,7.6-.039,13.609-.05,17.735-.01,2.045-.018,3.619-.023,4.7,0,.523-.008.922-.011,1.2s-.011.4-.011.4" transform="translate(-7.515 -5.752)" fill="#e0e0e0"/>
        <path id="Trazado_260083" data-name="Trazado 260083" d="M120.294,19.376a13.084,13.084,0,0,1-1.34,1.968c-.874,1.181-2.114,2.787-3.529,4.523s-2.738,3.275-3.718,4.368a13.128,13.128,0,0,1-1.654,1.707,14.148,14.148,0,0,1,1.435-1.9l3.621-4.44,3.618-4.442a14.194,14.194,0,0,1,1.567-1.787" transform="translate(-19.835 -3.324)" fill="#e0e0e0"/>
        <path id="Trazado_260084" data-name="Trazado 260084" d="M111.241,137.617a70.614,70.614,0,0,0,9.858,12.459" transform="translate(-20.049 -23.611)" fill="#fff"/>
        <path id="Trazado_260085" data-name="Trazado 260085" d="M121.1,150.075a11.294,11.294,0,0,1-1.718-1.58,55.475,55.475,0,0,1-6.993-8.838,11.275,11.275,0,0,1-1.147-2.042,15.883,15.883,0,0,1,1.386,1.878c.829,1.176,1.994,2.785,3.354,4.505s2.657,3.22,3.61,4.3a15.7,15.7,0,0,1,1.508,1.78" transform="translate(-20.049 -23.61)" fill="#e0e0e0"/>
        <path id="Trazado_260086" data-name="Trazado 260086" d="M30.531,149.706l9.851-12.283" transform="translate(-5.503 -23.577)" fill="#fff"/>
        <path id="Trazado_260087" data-name="Trazado 260087" d="M40.382,137.423a75.663,75.663,0,0,1-4.766,6.271,75.7,75.7,0,0,1-5.085,6.012,75.654,75.654,0,0,1,4.767-6.272,75.489,75.489,0,0,1,5.084-6.011" transform="translate(-5.502 -23.577)" fill="#e0e0e0"/>
        <path id="Trazado_260088" data-name="Trazado 260088" d="M30.543,19.376a68.664,68.664,0,0,1,4.782,5.777,69.012,69.012,0,0,1,4.461,6.033A68.245,68.245,0,0,1,35,25.408a68.747,68.747,0,0,1-4.46-6.033" transform="translate(-5.504 -3.324)" fill="#e0e0e0"/>
        <rect id="Rectángulo_294865" data-name="Rectángulo 294865" width="18.925" height="54.302" transform="translate(54.369 45.506)" fill="#e0e0e0"/>
        <path id="Trazado_260089" data-name="Trazado 260089" d="M234.951,0V48.242H166.389l-2.47-47.9Z" transform="translate(-29.544 0)" fill="#e0e0e0"/>
        <rect id="Rectángulo_294866" data-name="Rectángulo 294866" width="68.563" height="47.802" transform="translate(134.374 0.338)" fill="#fff"/>
        <path id="Trazado_260090" data-name="Trazado 260090" d="M232.735,48.471H163.521V.011h69.214Zm-68.563-.658h67.913V.668H164.172Z" transform="translate(-29.472 -0.002)" fill="#e0e0e0"/>
        <rect id="Rectángulo_294867" data-name="Rectángulo 294867" width="53.711" height="35.924" transform="translate(141.801 6.277)" fill="#fff"/>
        <path id="Trazado_260091" data-name="Trazado 260091" d="M226.651,7.544s-.093.006-.265.009l-.764.009-2.95.019L211.6,7.624,172.94,7.7l.155-.157c0,10.976.009,23.137.014,35.92v0l-.169-.171,53.711.035-.135.136c.03-10.932.054-19.9.071-26.138.015-3.12.026-5.557.034-7.228q.01-1.238.015-1.9c0-.431.015-.659.015-.659s.01.21.015.63.008,1.06.015,1.874c.008,1.663.02,4.091.034,7.2.017,6.262.041,15.255.071,26.222v.137h-.135l-53.711.035h-.17v-.176c0-12.783.01-24.944.014-35.92V7.387h.156l38.766.077,11.033.042,2.919.019.746.009c.166,0,.247.009.247.009" transform="translate(-31.139 -1.267)" fill="#e0e0e0"/>
        <path id="Trazado_260092" data-name="Trazado 260092" d="M163.918.245a5.794,5.794,0,0,1,1.179.771c.7.512,1.657,1.239,2.688,2.072s1.939,1.624,2.577,2.214a5.656,5.656,0,0,1,.982,1.016c-.064.073-1.713-1.3-3.772-2.962A37.446,37.446,0,0,1,163.918.245" transform="translate(-29.543 -0.042)" fill="#e0e0e0"/>
        <path id="Trazado_260093" data-name="Trazado 260093" d="M245.922.407a33.265,33.265,0,0,1-3.608,3.1A33.438,33.438,0,0,1,238.5,6.346a33.333,33.333,0,0,1,3.608-3.1A33.319,33.319,0,0,1,245.922.407" transform="translate(-42.985 -0.069)" fill="#e0e0e0"/>
        <path id="Trazado_260094" data-name="Trazado 260094" d="M245.808,56.821l-7.644-6.261" transform="translate(-42.925 -8.674)" fill="#fff"/>
        <path id="Trazado_260095" data-name="Trazado 260095" d="M238.164,50.559a35.8,35.8,0,0,1,3.929,3,36.113,36.113,0,0,1,3.715,3.264,35.84,35.84,0,0,1-3.929-3,35.928,35.928,0,0,1-3.715-3.263" transform="translate(-42.925 -8.674)" fill="#e0e0e0"/>
        <path id="Trazado_260096" data-name="Trazado 260096" d="M163.918,56.893a32.49,32.49,0,0,1,3.57-3.071,32.439,32.439,0,0,1,3.78-2.8,32.756,32.756,0,0,1-3.57,3.072,32.719,32.719,0,0,1-3.78,2.8" transform="translate(-29.543 -8.753)" fill="#e0e0e0"/>
        <rect id="Rectángulo_294868" data-name="Rectángulo 294868" width="33.796" height="12.029" transform="translate(152.705 17.469)" fill="#e0e0e0"/>
        <path id="Trazado_260097" data-name="Trazado 260097" d="M578.645,260.9s-6.16-2.9-10.988,11.685-6.26,22.789-6.26,22.789-1.386,3.112-3.591,1.548-5.627-6.429-8.766-4.986c-3.256,1.5-3.809,5.5-2.326,11.043s4.292,17.8,4.542,18.906c.245,1.089-.139,2.807-1.809,1.984s-11.838-9.313-15.537-4.2,2.943,19.864,3.639,21.49.475,2.4-.26,2.938-3.885-2.64-6.875-4.935-6.855-4.428-8.744-1.295-.914,14.8,12.751,31.934l6.847,7.518,9.945-2.078c21.015-5.758,28.584-14.628,28.875-18.284s-4.076-4.224-7.83-4.14-8.152.788-8.433-.084-.01-1.629,1.5-2.533,15.452-8.9,15.43-15.237-13.184-5.5-15.015-5.821-1.144-1.943-.311-2.68,10.242-9.005,14.661-12.61,6.3-7.174,4.534-10.319c-1.7-3.031-7.3-1.124-9.993-1.166s-2.007-3.383-2.007-3.383,3.609-7.492,8.173-22.161-2.28-15.977-2.28-15.977" transform="translate(-93.892 -44.722)" fill="#ebebeb"/>
        <path id="Trazado_260098" data-name="Trazado 260098" d="M544.116,382.141c3.395-10.76,9.745-29.781,15.114-46.141s10.212-31.165,13.66-41.907c1.716-5.363,3.105-9.708,4.071-12.725.478-1.492.851-2.655,1.109-3.46l.3-.9c.068-.2.112-.3.112-.3s-.022.108-.081.312-.152.518-.266.906l-1.053,3.478c-.918,3.019-2.276,7.377-3.976,12.756-3.394,10.76-8.207,25.584-13.574,41.938s-11.752,35.369-15.2,46.111" transform="translate(-98.069 -47.474)" fill="#e0e0e0"/>
        <path id="Trazado_260099" data-name="Trazado 260099" d="M560.727,306.867a3.355,3.355,0,0,1,.353.647c.211.425.5,1.048.846,1.821.692,1.547,1.594,3.708,2.546,6.111l2.417,6.161.743,1.862a3.288,3.288,0,0,1,.247.7,3.325,3.325,0,0,1-.358-.645c-.21-.426-.5-1.049-.837-1.826-.677-1.554-1.551-3.727-2.5-6.13-.948-2.365-1.8-4.505-2.459-6.141-.3-.737-.551-1.359-.753-1.859a3.32,3.32,0,0,1-.242-.7" transform="translate(-101.062 -52.648)" fill="#e0e0e0"/>
        <path id="Trazado_260100" data-name="Trazado 260100" d="M570.606,325.935c-.036-.08,4.292-2.155,9.665-4.635s9.759-4.426,9.8-4.347-4.292,2.155-9.666,4.636-9.759,4.426-9.8,4.346" transform="translate(-102.843 -54.378)" fill="#e0e0e0"/>
        <path id="Trazado_260101" data-name="Trazado 260101" d="M559.183,356.929a3.387,3.387,0,0,1,.733-.146l2.008-.3c1.694-.253,4.033-.611,6.6-1.1s4.876-1.007,6.544-1.4l1.977-.461a3.321,3.321,0,0,1,.735-.134,3.41,3.41,0,0,1-.7.253c-.458.142-1.126.338-1.954.559-1.658.448-3.965,1.006-6.541,1.493s-4.924.818-6.628,1.013c-.852.094-1.544.163-2.022.2a3.392,3.392,0,0,1-.747.023" transform="translate(-100.784 -60.629)" fill="#e0e0e0"/>
        <path id="Trazado_260102" data-name="Trazado 260102" d="M546.082,340.7a2.948,2.948,0,0,1,.475.506l1.2,1.454c1.006,1.236,2.379,2.958,3.88,4.87s2.848,3.658,3.809,4.929l1.126,1.516a2.949,2.949,0,0,1,.379.583,2.962,2.962,0,0,1-.475-.506l-1.2-1.454c-1.007-1.236-2.38-2.958-3.882-4.871s-2.846-3.657-3.808-4.928q-.667-.9-1.126-1.516a2.959,2.959,0,0,1-.38-.583" transform="translate(-98.423 -58.453)" fill="#e0e0e0"/>
        <path id="Trazado_260103" data-name="Trazado 260103" d="M532.648,365.785a4.793,4.793,0,0,1,.6.654l1.55,1.857c1.3,1.577,3.075,3.769,5.022,6.2s3.7,4.649,4.952,6.262l1.472,1.921a4.921,4.921,0,0,1,.507.731,4.707,4.707,0,0,1-.6-.654L544.6,380.9c-1.3-1.577-3.075-3.769-5.023-6.2s-3.7-4.648-4.951-6.261l-1.472-1.92a4.8,4.8,0,0,1-.507-.732" transform="translate(-96.001 -62.757)" fill="#e0e0e0"/>
        <path id="Trazado_260104" data-name="Trazado 260104" d="M549.586,385.374a5.4,5.4,0,0,1,.924-.209l2.531-.468c2.138-.4,5.087-.959,8.326-1.671s6.157-1.426,8.266-1.961l2.5-.632a5.31,5.31,0,0,1,.926-.2,5.454,5.454,0,0,1-.893.316c-.581.184-1.426.436-2.473.73-2.1.591-5.009,1.345-8.256,2.054s-6.206,1.241-8.355,1.582c-1.076.168-1.946.295-2.55.37a5.4,5.4,0,0,1-.943.086" transform="translate(-99.054 -65.236)" fill="#e0e0e0"/>
      </g>
    </g>
    <g id="Grupo_236298" data-name="Grupo 236298">
      <g id="Grupo_236297" data-name="Grupo 236297" clip-path="url(#clip-path)">
        <path id="Trazado_260105" data-name="Trazado 260105" d="M503.074,403.57c0,.119-112.626.216-251.525.216C112.6,403.787,0,403.69,0,403.57s112.6-.215,251.549-.215c138.9,0,251.525.1,251.525.215" transform="translate(0 -69.202)" fill="#263238"/>
      </g>
    </g>
    <rect id="Rectángulo_294871" data-name="Rectángulo 294871" width="10.183" height="15.891" transform="matrix(0.758, -0.652, 0.652, 0.758, 340.978, 50.884)" fill="#263238"/>
    <g id="Grupo_236306" data-name="Grupo 236306">
      <g id="Grupo_236305" data-name="Grupo 236305" clip-path="url(#clip-path)">
        <path id="Trazado_260106" data-name="Trazado 260106" d="M428.217,51.716,412.188,65.647,400.93,52.418c4.423-6.274,9.709-11.016,16.029-13.93Z" transform="translate(-72.262 -6.603)" fill="#455a64"/>
        <path id="Trazado_260107" data-name="Trazado 260107" d="M415.339,65.616c-.089.078-2.8-2.929-6.065-6.717s-5.833-6.922-5.743-7,2.8,2.929,6.065,6.717,5.831,6.922,5.742,7" transform="translate(-72.73 -8.904)" fill="#263238"/>
        <path id="Trazado_260108" data-name="Trazado 260108" d="M419.074,62.288a17.041,17.041,0,0,1-1.819-2.017c-1.083-1.281-2.557-3.068-4.172-5.053l-4.11-5.1-1.235-1.553c-.294-.374-.443-.557-.445-.577.159-.153,2.893,2.987,6.12,6.958,1.615,1.985,3.052,3.8,4.075,5.133a17,17,0,0,1,1.585,2.21" transform="translate(-73.408 -8.232)" fill="#263238"/>
        <path id="Trazado_260109" data-name="Trazado 260109" d="M424.031,57.972a17.511,17.511,0,0,1-1.83-2.047c-1.089-1.3-2.571-3.11-4.191-5.125l-4.118-5.185-1.226-1.588a4.871,4.871,0,0,1-.429-.6,11.539,11.539,0,0,1,1.888,1.994c1.1,1.287,2.595,3.093,4.216,5.108s3.065,3.857,4.094,5.205a17.329,17.329,0,0,1,1.6,2.238" transform="translate(-74.3 -7.45)" fill="#263238"/>
        <path id="Trazado_260110" data-name="Trazado 260110" d="M428.571,54.113c-.089.077-2.785-2.966-6.02-6.8s-5.785-7-5.7-7.078,2.785,2.966,6.02,6.8,5.784,7,5.695,7.077" transform="translate(-75.131 -6.903)" fill="#263238"/>
        <path id="Trazado_262359" data-name="Trazado 262359" d="M0,0,16.1-.085l-.054,10.321-16.1.085Z" transform="translate(467.902 58.141) rotate(-43.699)" fill="#263238"/>
        <path id="Trazado_260111" data-name="Trazado 260111" d="M590.755,68.931,576.149,53.485,588.632,41.43a40.575,40.575,0,0,1,14.606,15.446Z" transform="translate(-103.842 -7.108)" fill="#455a64"/>
        <path id="Trazado_260112" data-name="Trazado 260112" d="M579.132,56.485c-.082-.085,2.748-2.984,6.32-6.473s6.535-6.249,6.617-6.163-2.747,2.983-6.32,6.473-6.534,6.248-6.616,6.163" transform="translate(-104.379 -7.523)" fill="#263238"/>
        <path id="Trazado_260113" data-name="Trazado 260113" d="M582.528,60.039a17.281,17.281,0,0,1,1.9-1.942c1.208-1.16,2.9-2.741,4.773-4.474l4.826-4.416L595.5,47.88c.355-.316.527-.477.546-.479.16.152-2.8,3.075-6.555,6.54-1.877,1.734-3.6,3.28-4.859,4.382a16.871,16.871,0,0,1-2.1,1.716" transform="translate(-104.991 -8.132)" fill="#263238"/>
        <path id="Trazado_260114" data-name="Trazado 260114" d="M587.048,64.763a17.555,17.555,0,0,1,1.926-1.954c1.226-1.166,2.939-2.757,4.845-4.5l4.908-4.426,1.505-1.321a4.821,4.821,0,0,1,.571-.464,11.565,11.565,0,0,1-1.872,2.01c-1.214,1.181-2.92,2.78-4.827,4.522s-3.651,3.3-4.929,4.4a17.191,17.191,0,0,1-2.128,1.727" transform="translate(-105.806 -8.939)" fill="#263238"/>
        <path id="Trazado_260115" data-name="Trazado 260115" d="M591.279,69.094c-.081-.086,2.785-2.966,6.4-6.431s6.615-6.2,6.7-6.119-2.785,2.966-6.4,6.432-6.614,6.2-6.7,6.118" transform="translate(-106.569 -9.701)" fill="#263238"/>
        <rect id="Rectángulo_294873" data-name="Rectángulo 294873" width="12.151" height="19.162" transform="translate(408.978 18.644)" fill="#263238"/>
        <path id="Trazado_260116" data-name="Trazado 260116" d="M516.165,24.8H491.138V4.142c8.762-2.181,17.129-2.315,25.027,0Z" transform="translate(-88.52 -0.421)" fill="#a3314f"/>
        <path id="Trazado_260117" data-name="Trazado 260117" d="M516.431,4.6a4.736,4.736,0,0,1-.923.462,23.29,23.29,0,0,1-2.636.981,30.557,30.557,0,0,1-4.058.973,34.338,34.338,0,0,1-5.092.437,34.337,34.337,0,0,1-5.1-.389,30.417,30.417,0,0,1-4.068-.933,23.5,23.5,0,0,1-2.645-.955,4.734,4.734,0,0,1-.928-.453c.03-.076,1.381.5,3.654,1.114a34.9,34.9,0,0,0,4.044.833,37.476,37.476,0,0,0,5.037.351,37.619,37.619,0,0,0,5.033-.4,34.789,34.789,0,0,0,4.035-.873c2.267-.638,3.614-1.225,3.644-1.15" transform="translate(-88.492 -0.787)" fill="#263238"/>
        <path id="Trazado_260118" data-name="Trazado 260118" d="M501.177,25.686c-.118,0-.213-3.965-.213-8.855s.1-8.857.213-8.857.213,3.965.213,8.857-.1,8.855-.213,8.855" transform="translate(-90.291 -1.368)" fill="#263238"/>
        <path id="Trazado_260119" data-name="Trazado 260119" d="M506.986,25.814c-.119,0-.215-3.983-.215-8.9s.1-8.9.215-8.9.212,3.982.212,8.9-.1,8.9-.212,8.9" transform="translate(-91.338 -1.376)" fill="#263238"/>
        <path id="Trazado_260120" data-name="Trazado 260120" d="M512.794,25.717c-.118,0-.213-3.983-.213-8.9s.1-8.9.213-8.9.213,3.982.213,8.9-.1,8.9-.213,8.9" transform="translate(-92.385 -1.36)" fill="#263238"/>
        <path id="Trazado_260121" data-name="Trazado 260121" d="M517.631,25.419c-.118,0-.213-4.305-.213-9.615s.1-9.616.213-9.616.213,4.3.213,9.616-.1,9.615-.213,9.615" transform="translate(-93.257 -1.062)" fill="#263238"/>
        <path id="Trazado_260122" data-name="Trazado 260122" d="M495.685,25.271c-.118,0-.213-4.305-.213-9.615s.1-9.616.213-9.616.213,4.3.213,9.616-.1,9.615-.213,9.615" transform="translate(-89.301 -1.036)" fill="#263238"/>
        <path id="Trazado_260123" data-name="Trazado 260123" d="M573.477,127.82c0,49.336-39.577,89.332-88.4,89.332s-88.4-40-88.4-89.332,39.577-89.332,88.4-89.332,88.4,40,88.4,89.332" transform="translate(-71.496 -6.603)" fill="#b55a72"/>
        <path id="Trazado_260124" data-name="Trazado 260124" d="M562.433,129.923c0,41.435-33.238,75.025-74.24,75.025s-74.24-33.59-74.24-75.025S447.191,54.9,488.192,54.9s74.24,33.59,74.24,75.025" transform="translate(-74.609 -9.419)" fill="#fafafa"/>
        <path id="Trazado_260125" data-name="Trazado 260125" d="M562.386,129.887s-.025-.412-.052-1.216c-.047-.8-.018-2-.156-3.566a76.287,76.287,0,0,0-2.115-13.536,74.976,74.976,0,0,0-3.045-9.414A72.773,72.773,0,0,0,551.85,91.6a75.567,75.567,0,0,0-18.837-21.282,73.383,73.383,0,0,0-50.292-15.044,73.276,73.276,0,0,0-9.925,1.4,78.34,78.34,0,0,0-9.9,2.854,74.592,74.592,0,0,0-40.46,35.913c-.912,1.714-1.69,3.5-2.486,5.29-.714,1.823-1.453,3.643-2.042,5.528a73.507,73.507,0,0,0-2.82,11.574,75.447,75.447,0,0,0,0,24.085A73.658,73.658,0,0,0,417.9,153.5c.589,1.885,1.328,3.707,2.041,5.531.8,1.788,1.574,3.577,2.486,5.292A74.6,74.6,0,0,0,462.9,200.244a78.4,78.4,0,0,0,9.9,2.854,74.5,74.5,0,0,0,29.026.34,73.551,73.551,0,0,0,31.194-13.984,75.568,75.568,0,0,0,18.835-21.283,72.72,72.72,0,0,0,5.165-10.554,74.977,74.977,0,0,0,3.045-9.414,76.243,76.243,0,0,0,2.114-13.533c.138-1.563.109-2.763.156-3.566.028-.8.052-1.216.052-1.216s0,.412-.009,1.217c-.034.8.011,2-.114,3.57a73.975,73.975,0,0,1-5.056,23.019,72.7,72.7,0,0,1-5.149,10.6A75.65,75.65,0,0,1,533.2,189.7a73.8,73.8,0,0,1-31.313,14.094,74.857,74.857,0,0,1-29.17-.311,78.8,78.8,0,0,1-9.957-2.861,74.965,74.965,0,0,1-40.705-36.1c-.918-1.724-1.7-3.524-2.5-5.322-.719-1.833-1.462-3.666-2.055-5.562a73.981,73.981,0,0,1-2.836-11.644,75.8,75.8,0,0,1,0-24.223,73.831,73.831,0,0,1,2.837-11.64c.594-1.9,1.336-3.728,2.055-5.56.8-1.8,1.584-3.6,2.5-5.32a74.966,74.966,0,0,1,40.7-36.089,78.6,78.6,0,0,1,9.955-2.861,74.829,74.829,0,0,1,29.167-.312A73.8,73.8,0,0,1,533.2,70.074a75.672,75.672,0,0,1,18.859,21.4,72.625,72.625,0,0,1,5.15,10.6,73.978,73.978,0,0,1,5.058,23.021c.125,1.567.08,2.768.114,3.571.013.805.009,1.217.009,1.217" transform="translate(-74.562 -9.382)" fill="#263238"/>
        <path id="Trazado_260126" data-name="Trazado 260126" d="M580.851,141.989c-2.357.1-4.274.009-4.285-.2s1.89-.49,4.245-.625,4.271-.045,4.283.2-1.889.526-4.243.625" transform="translate(-103.917 -24.208)" fill="#263238"/>
        <path id="Trazado_260127" data-name="Trazado 260127" d="M578.967,162.728c-2.3-.543-4.12-1.149-4.074-1.355s1.95.039,4.255.546,4.127,1.113,4.073,1.355-1.959,0-4.254-.546" transform="translate(-103.615 -27.674)" fill="#263238"/>
        <path id="Trazado_260128" data-name="Trazado 260128" d="M571.6,182.075c-2.067-1.148-3.662-2.228-3.563-2.414s1.868.569,3.952,1.685,3.677,2.2,3.562,2.414-1.886-.538-3.951-1.685" transform="translate(-102.379 -30.819)" fill="#263238"/>
        <path id="Trazado_260129" data-name="Trazado 260129" d="M559.319,198.733c-1.689-1.664-2.94-3.136-2.8-3.288s1.65,1.053,3.363,2.691,2.964,3.109,2.795,3.287-1.675-1.027-3.362-2.69" transform="translate(-100.303 -33.53)" fill="#263238"/>
        <path id="Trazado_260130" data-name="Trazado 260130" d="M543.037,211.5c-1.186-2.06-2-3.817-1.823-3.923s1.311,1.461,2.528,3.5,2.032,3.8,1.822,3.923-1.342-1.442-2.527-3.5" transform="translate(-97.541 -35.613)" fill="#263238"/>
        <path id="Trazado_260131" data-name="Trazado 260131" d="M523.92,219.42c-.592-2.307-.908-4.221-.707-4.276s.871,1.764,1.5,4.062.943,4.21.707,4.274-.907-1.755-1.5-4.06" transform="translate(-94.29 -36.912)" fill="#263238"/>
        <path id="Trazado_260132" data-name="Trazado 260132" d="M503.3,221.909c.038-2.383.237-4.313.445-4.311s.376,1.934.375,4.318-.2,4.312-.445,4.31-.412-1.935-.375-4.317" transform="translate(-90.711 -37.333)" fill="#263238"/>
        <path id="Trazado_260133" data-name="Trazado 260133" d="M482.4,218.823c.671-2.285,1.378-4.089,1.579-4.03s-.152,1.966-.788,4.261-1.343,4.1-1.578,4.03.116-1.977.787-4.26" transform="translate(-86.791 -36.851)" fill="#263238"/>
        <path id="Trazado_260134" data-name="Trazado 260134" d="M463.084,210.334c1.254-2.018,2.415-3.565,2.592-3.454s-.671,1.852-1.895,3.889-2.384,3.583-2.591,3.453.64-1.871,1.894-3.888" transform="translate(-83.117 -35.493)" fill="#263238"/>
        <path id="Trazado_260135" data-name="Trazado 260135" d="M446.791,197.1c1.742-1.607,3.268-2.784,3.41-2.629s-1.136,1.6-2.854,3.237-3.242,2.81-3.409,2.629,1.112-1.63,2.852-3.236" transform="translate(-80.011 -33.362)" fill="#263238"/>
        <path id="Trazado_260136" data-name="Trazado 260136" d="M434.708,180.092c2.1-1.076,3.887-1.8,3.982-1.61s-1.519,1.237-3.607,2.345-3.87,1.828-3.982,1.609,1.5-1.269,3.606-2.344" transform="translate(-77.698 -30.617)" fill="#263238"/>
        <path id="Trazado_260137" data-name="Trazado 260137" d="M427.762,160.535c2.313-.462,4.223-.669,4.264-.464s-1.793.777-4.1,1.275-4.214.7-4.264.463,1.787-.812,4.1-1.274" transform="translate(-76.359 -27.449)" fill="#263238"/>
        <path id="Trazado_260138" data-name="Trazado 260138" d="M426.429,139.721c2.352.176,4.247.489,4.233.7s-1.933.268-4.287.128-4.248-.452-4.232-.7,1.936-.3,4.287-.128" transform="translate(-76.085 -23.954)" fill="#263238"/>
        <path id="Trazado_260139" data-name="Trazado 260139" d="M430.8,119.029c2.217.811,3.959,1.629,3.89,1.827s-1.933-.27-4.163-1.046-3.969-1.594-3.888-1.827,1.944.236,4.161,1.046" transform="translate(-76.895 -20.232)" fill="#263238"/>
        <path id="Trazado_260140" data-name="Trazado 260140" d="M440.6,100.261c1.921,1.383,3.382,2.643,3.262,2.815s-1.79-.784-3.732-2.137-3.4-2.613-3.26-2.815,1.811.755,3.731,2.137" transform="translate(-78.738 -16.83)" fill="#263238"/>
        <path id="Trazado_260141" data-name="Trazado 260141" d="M455.067,84.788c1.486,1.851,2.561,3.459,2.4,3.592s-1.518-1.239-3.032-3.065-2.588-3.435-2.4-3.591,1.546,1.215,3.031,3.064" transform="translate(-81.469 -14.019)" fill="#263238"/>
        <path id="Trazado_260142" data-name="Trazado 260142" d="M473.145,73.747c.939,2.186,1.547,4.027,1.357,4.112s-1.133-1.605-2.106-3.777-1.579-4.01-1.356-4.111,1.167,1.591,2.105,3.775" transform="translate(-84.889 -12.004)" fill="#263238"/>
        <path id="Trazado_260143" data-name="Trazado 260143" d="M493.523,67.986c.322,2.361.416,4.3.21,4.329s-.663-1.854-1.021-4.21-.451-4.293-.209-4.329.7,1.85,1.021,4.209" transform="translate(-88.742 -10.942)" fill="#263238"/>
        <path id="Trazado_260144" data-name="Trazado 260144" d="M514.486,67.879c-.311,2.363-.731,4.256-.938,4.23s-.151-1.966.125-4.333.7-4.26.937-4.229.187,1.971-.124,4.332" transform="translate(-92.537 -10.903)" fill="#263238"/>
        <path id="Trazado_260145" data-name="Trazado 260145" d="M534.458,73.461c-.93,2.19-1.841,3.9-2.033,3.817s.38-1.934,1.277-4.138,1.808-3.911,2.033-3.816-.347,1.948-1.277,4.137" transform="translate(-95.955 -11.893)" fill="#263238"/>
        <path id="Trazado_260146" data-name="Trazado 260146" d="M552.212,84.334c-1.477,1.858-2.807,3.258-2.97,3.127s.878-1.76,2.327-3.641,2.778-3.28,2.969-3.126-.85,1.784-2.326,3.64" transform="translate(-98.989 -13.842)" fill="#263238"/>
        <path id="Trazado_260147" data-name="Trazado 260147" d="M566.484,99.663c-1.914,1.392-3.565,2.383-3.688,2.213s1.312-1.46,3.2-2.881,3.543-2.411,3.687-2.212-1.29,1.49-3.2,2.88" transform="translate(-101.434 -16.6)" fill="#263238"/>
        <path id="Trazado_260148" data-name="Trazado 260148" d="M576.216,118.346c-2.216.819-4.068,1.324-4.141,1.127s1.651-1.048,3.854-1.9,4.055-1.358,4.14-1.127-1.64,1.084-3.852,1.9" transform="translate(-103.107 -19.968)" fill="#263238"/>
        <path id="Trazado_260149" data-name="Trazado 260149" d="M580.666,139c-2.351.189-4.271.172-4.289-.037s1.87-.562,4.219-.785,4.266-.208,4.287.037-1.867.6-4.217.785" transform="translate(-103.883 -23.68)" fill="#263238"/>
        <path id="Trazado_260150" data-name="Trazado 260150" d="M456.88,47.484a1.347,1.347,0,0,1-.253.118l-.754.308c-.658.281-1.659.619-2.9,1.176a85.664,85.664,0,0,0-10.267,5.179c-2.1,1.222-4.324,2.689-6.657,4.341a90.594,90.594,0,0,0-7.106,5.729,84.514,84.514,0,0,0-23.273,34.41c-1.129,3.03-1.969,5.991-2.7,8.772-.676,2.8-1.221,5.424-1.585,7.845a87.748,87.748,0,0,0-1.045,11.548c-.064,1.369-.012,2.434-.031,3.156,0,.342-.007.614-.01.822a1.417,1.417,0,0,1-.018.281,1.343,1.343,0,0,1-.026-.279c-.008-.208-.019-.48-.032-.822-.008-.722-.087-1.789-.049-3.161a81.964,81.964,0,0,1,.913-11.591c.346-2.433.876-5.074,1.54-7.886a90.841,90.841,0,0,1,2.677-8.822,83.857,83.857,0,0,1,23.381-34.571,89.229,89.229,0,0,1,7.161-5.723c2.351-1.646,4.594-3.1,6.711-4.314a79.946,79.946,0,0,1,10.356-5.069c1.252-.534,2.263-.847,2.932-1.1l.769-.268a1.285,1.285,0,0,1,.267-.077" transform="translate(-72.123 -8.146)" fill="#fff"/>
        <path id="Trazado_260151" data-name="Trazado 260151" d="M495.611,41.636a16.982,16.982,0,0,1-2.56.34c-1.583.17-3.768.408-6.176.723s-4.581.649-6.155.893a17.122,17.122,0,0,1-2.561.331,13.858,13.858,0,0,1,2.508-.63c1.563-.322,3.737-.7,6.152-1.021s4.614-.508,6.206-.6a13.958,13.958,0,0,1,2.585-.036" transform="translate(-86.181 -7.137)" fill="#fff"/>
        <g id="Grupo_236301" data-name="Grupo 236301" transform="translate(354.249 87.532)" opacity="0.4">
          <g id="Grupo_236300" data-name="Grupo 236300">
            <g id="Grupo_236299" data-name="Grupo 236299" clip-path="url(#clip-path-4)">
              <path id="Trazado_260152" data-name="Trazado 260152" d="M432.135,183.728s38.472,61.355,98.153,29.93c62.293-32.8,27.882-108,27.882-108s29.313,59.926-31.416,99c-15.125,9.731-31.591,9.74-44.152,8.468-32.1-3.249-50.466-29.4-50.466-29.4" transform="translate(-432.135 -105.66)"/>
            </g>
          </g>
        </g>
        <path id="Trazado_260153" data-name="Trazado 260153" d="M524.947,97.33a259.279,259.279,0,0,1-.988,32.978,41.386,41.386,0,0,1-2.336,11.663c-1.485,3.687-4.11,7.066-7.736,8.623s-8.294.911-10.831-2.135Z" transform="translate(-90.668 -16.699)" fill="#e0e0e0"/>
        <path id="Trazado_260154" data-name="Trazado 260154" d="M502.548,128.809l26.98-45.917-16.285,51.834-8.319,2.517Z" transform="translate(-90.577 -14.222)" fill="#a3314f"/>
        <g id="Grupo_236304" data-name="Grupo 236304" transform="translate(418.943 68.67)" opacity="0.4">
          <g id="Grupo_236303" data-name="Grupo 236303">
            <g id="Grupo_236302" data-name="Grupo 236302" clip-path="url(#clip-path-5)">
              <path id="Trazado_260155" data-name="Trazado 260155" d="M531.061,82.892l-20.009,46.914,3.724,4.92Z" transform="translate(-511.052 -82.892)"/>
            </g>
          </g>
        </g>
        <path id="Trazado_260156" data-name="Trazado 260156" d="M512.221,146.682a8.684,8.684,0,1,1-8.684-8.776,8.73,8.73,0,0,1,8.684,8.776" transform="translate(-89.19 -23.66)" fill="#fafafa"/>
        <path id="Trazado_260157" data-name="Trazado 260157" d="M512.175,146.645a18.979,18.979,0,0,0-.353-2.122,8.753,8.753,0,0,0-3.168-4.731,8.433,8.433,0,0,0-8.053-1.2,8.519,8.519,0,0,0-3.934,2.993,8.608,8.608,0,0,0,0,10.123A8.514,8.514,0,0,0,500.6,154.7a8.432,8.432,0,0,0,8.053-1.2,8.752,8.752,0,0,0,3.168-4.732,18.953,18.953,0,0,0,.353-2.122,6.867,6.867,0,0,1-.191,2.163,8.747,8.747,0,0,1-11.518,6.265,8.3,8.3,0,0,1-2.253-1.214,8.4,8.4,0,0,1-1.885-1.9,9,9,0,0,1,0-10.624,8.387,8.387,0,0,1,1.885-1.9,8.264,8.264,0,0,1,2.252-1.214,8.767,8.767,0,0,1,4.66-.367,8.791,8.791,0,0,1,6.857,6.632,6.867,6.867,0,0,1,.191,2.163" transform="translate(-89.143 -23.624)" fill="#263238"/>
        <path id="Trazado_260158" data-name="Trazado 260158" d="M510.489,147.146a6.463,6.463,0,1,1-6.463-6.531,6.5,6.5,0,0,1,6.463,6.531" transform="translate(-89.678 -24.125)" fill="#455a64"/>
      </g>
    </g>
    <path id="Trazado_260159" data-name="Trazado 260159" d="M421.957,363.588h42.377L444.578,193.333Z" transform="translate(-75.798 -29.901)" fill="#e0e0e0"/>
    <path id="Trazado_260160" data-name="Trazado 260160" d="M159.263,193.334l-27.586,172.26,235.4,3.065,23.294-175.326Z" transform="translate(-22.819 -29.901)" fill="#fafafa"/>
    <path id="Trazado_260161" data-name="Trazado 260161" d="M383.321,283.087H150.057l5.08-31.723h232.4Z" transform="translate(-26.167 -42.724)" fill="#ebebeb"/>
    <path id="Trazado_260162" data-name="Trazado 260162" d="M383.332,283.1H150.027l0-.024,5.083-31.74H387.553l0,.023Zm-233.257-.041H383.3l4.21-31.682H155.149Z" transform="translate(-26.161 -42.719)" fill="#263238"/>
    <path id="Trazado_260163" data-name="Trazado 260163" d="M163.861,193.334,156.3,240.528H388.7l6.271-47.194Z" transform="translate(-27.247 -32.685)" fill="#a3314f"/>
    <g id="Grupo_236311" data-name="Grupo 236311">
      <g id="Grupo_236310" data-name="Grupo 236310" clip-path="url(#clip-path)">
        <path id="Trazado_260164" data-name="Trazado 260164" d="M159.482,193.294l232.957-.195h.221l-.03.22c-6.868,52.286-14.656,111.576-22.881,174.2l-.025.187h-2.859l-234.987-.04h-.2l.032-.2c16.82-105.466,27.547-172.727,27.777-174.167-.227,1.441-10.82,68.723-27.432,174.223l-.172-.2,234.987-.039h2.672l-.212.187c8.241-62.62,16.043-121.908,22.924-174.192l.19.22-232.957-.195" transform="translate(-23.732 -33.129)" fill="#263238"/>
        <path id="Trazado_260165" data-name="Trazado 260165" d="M390.558,251.318c0,.119-52.444.215-117.122.215-64.7,0-117.133-.1-117.133-.215s52.432-.215,117.133-.215c64.678,0,117.122.1,117.122.215" transform="translate(-28.171 -43.081)" fill="#263238"/>
        <path id="Trazado_260166" data-name="Trazado 260166" d="M385.085,290.325c0,.119-52.74.215-117.782.215-65.065,0-117.793-.1-117.793-.215s52.728-.215,117.793-.215c65.043,0,117.782.1,117.782.215" transform="translate(-26.947 -49.773)" fill="#263238"/>
        <path id="Trazado_260167" data-name="Trazado 260167" d="M379.25,326.213c0,.119-52.74.215-117.782.215-65.065,0-117.793-.1-117.793-.215S196.4,326,261.468,326c65.043,0,117.782.1,117.782.215" transform="translate(-25.895 -55.931)" fill="#263238"/>
        <path id="Trazado_260168" data-name="Trazado 260168" d="M373.415,362.1c0,.119-52.74.215-117.782.215-65.065,0-117.793-.1-117.793-.215s52.728-.215,117.793-.215c65.043,0,117.782.1,117.782.215" transform="translate(-24.844 -62.088)" fill="#263238"/>
        <path id="Trazado_260169" data-name="Trazado 260169" d="M172.313,377.749c-.116-.018,4.19-28.328,9.617-63.224s9.923-63.18,10.04-63.162-4.189,28.322-9.618,63.229-9.922,63.175-10.039,63.156" transform="translate(-31.056 -43.126)" fill="#263238"/>
        <path id="Trazado_260170" data-name="Trazado 260170" d="M216.535,377.749c-.116-.018,4.19-28.328,9.617-63.224s9.923-63.18,10.04-63.162-4.189,28.322-9.618,63.229-9.922,63.175-10.039,63.156" transform="translate(-39.027 -43.126)" fill="#263238"/>
        <path id="Trazado_260171" data-name="Trazado 260171" d="M257.628,376.484c-.116-.018,4.146-28.045,9.519-62.591s9.825-62.548,9.941-62.53-4.145,28.039-9.52,62.6-9.824,62.542-9.94,62.523" transform="translate(-46.433 -43.126)" fill="#263238"/>
        <path id="Trazado_260172" data-name="Trazado 260172" d="M298.291,377.485c-.116-.018,4.181-28.269,9.6-63.091s9.9-63.049,10.019-63.03-4.18,28.264-9.6,63.1-9.9,63.042-10.018,63.024" transform="translate(-53.762 -43.126)" fill="#263238"/>
        <path id="Trazado_260173" data-name="Trazado 260173" d="M339.143,377.485c-.116-.018,4.181-28.269,9.6-63.091s9.9-63.049,10.019-63.03-4.179,28.264-9.6,63.1-9.9,63.042-10.018,63.024" transform="translate(-61.125 -43.126)" fill="#263238"/>
        <path id="Trazado_260174" data-name="Trazado 260174" d="M379.962,377.669c-.116-.018,4.187-28.31,9.611-63.183s9.918-63.141,10.034-63.122-4.186,28.3-9.612,63.19-9.917,63.134-10.033,63.116" transform="translate(-68.482 -43.126)" fill="#263238"/>
        <g id="Grupo_236309" data-name="Grupo 236309" transform="translate(283.477 160.159)" opacity="0.2">
          <g id="Grupo_236308" data-name="Grupo 236308">
            <g id="Grupo_236307" data-name="Grupo 236307" clip-path="url(#clip-path-7)">
              <path id="Trazado_260175" data-name="Trazado 260175" d="M352.732,243.665c4.037-1.805,6.556-6.051,7.6-10.384s.877-8.858,1.028-13.316.68-9.069,2.939-12.9c1.335-2.266,3.214-4.152,4.7-6.323s2.581-4.832,2.034-7.41l-25.231.129Z" transform="translate(-345.802 -193.328)"/>
            </g>
          </g>
        </g>
        <path id="Trazado_260176" data-name="Trazado 260176" d="M220.4,293.257c.011.011-.074.114-.244.3l-.76.8c-.665.688-1.644,1.665-2.866,2.86-2.444,2.391-5.879,5.633-9.768,9.1s-7.5,6.513-10.154,8.667c-1.325,1.077-2.406,1.937-3.163,2.518l-.877.663a1.292,1.292,0,0,1-.325.208c-.009-.012.084-.106.271-.276l.827-.725,3.076-2.624c2.6-2.213,6.174-5.288,10.063-8.755s7.348-6.671,9.844-9l2.958-2.76.816-.739a1.319,1.319,0,0,1,.3-.237" transform="translate(-34.649 -50.313)" fill="#263238"/>
        <path id="Trazado_260177" data-name="Trazado 260177" d="M219.048,318.667a8.517,8.517,0,0,1-.98-.977l-2.565-2.762-8.453-9.114-8.539-9.036-2.586-2.74a8.591,8.591,0,0,1-.911-1.044,8.549,8.549,0,0,1,1.029.925c.643.615,1.56,1.518,2.684,2.644,2.248,2.253,5.312,5.406,8.634,8.953s6.265,6.812,8.367,9.2c1.051,1.2,1.893,2.172,2.465,2.856a8.539,8.539,0,0,1,.857,1.089" transform="translate(-35.148 -50.268)" fill="#263238"/>
        <path id="Trazado_260178" data-name="Trazado 260178" d="M234.953,300.793s.08-.218.254-.637a10.074,10.074,0,0,1,.985-1.754,12.552,12.552,0,0,1,6.079-4.581,12.344,12.344,0,0,1,2.568-.645,11.824,11.824,0,0,1,2.918-.077,14.289,14.289,0,0,1,6.229,2.142,16.69,16.69,0,0,1,5.366,5.387,14.128,14.128,0,0,1,2.244,8.225,9.569,9.569,0,0,1-1.4,4.421,11.189,11.189,0,0,1-3.376,3.451,16.187,16.187,0,0,1-9.743,2.557,16.557,16.557,0,0,1-5.249-1.155,12.478,12.478,0,0,1-4.59-3.142,10.606,10.606,0,0,1-1.584-2.408,10.478,10.478,0,0,1-.834-2.807,13.5,13.5,0,0,1,.506-5.9,16.221,16.221,0,0,1,7.589-9.319,13.9,13.9,0,0,1,12.336-.575,12.949,12.949,0,0,1,5.169,4,12.634,12.634,0,0,1,2.442,6.212,12.25,12.25,0,0,1-1.062,6.692,11.322,11.322,0,0,1-1.949,2.846,12.985,12.985,0,0,1-2.709,2.147,16.411,16.411,0,0,1-13.185,1.247,14.942,14.942,0,0,1-5.737-3.344,10.706,10.706,0,0,1-3.195-5.72,9.556,9.556,0,0,1,.863-6.386,7.934,7.934,0,0,1,2.08-2.455,9.72,9.72,0,0,1,2.793-1.488,17.465,17.465,0,0,1,6.1-.815,23.046,23.046,0,0,1,5.95.843,12.594,12.594,0,0,1,5.168,2.8,9.428,9.428,0,0,1,2.777,5.024,11.062,11.062,0,0,1-.321,5.592,11.62,11.62,0,0,1-2.859,4.594,14.03,14.03,0,0,1-9.192,4.046,12.232,12.232,0,0,1-4.755-.7,9.638,9.638,0,0,1-3.835-2.559,10.51,10.51,0,0,1-2.224-3.816,11.317,11.317,0,0,1-.6-4.16,11.017,11.017,0,0,1,2.9-6.989,12.943,12.943,0,0,1,5.516-3.608,12.567,12.567,0,0,1,5.508-.53,14.794,14.794,0,0,1,7.061,2.871,14.985,14.985,0,0,1,1.517,1.31c.315.325.468.5.468.5s-.175-.153-.5-.466a16.712,16.712,0,0,0-1.538-1.272,14.881,14.881,0,0,0-7.03-2.774,12.441,12.441,0,0,0-5.425.558,12.758,12.758,0,0,0-5.4,3.575,10.767,10.767,0,0,0-2.809,6.838,11.048,11.048,0,0,0,.6,4.055,10.226,10.226,0,0,0,2.174,3.7,9.333,9.333,0,0,0,3.722,2.466,11.947,11.947,0,0,0,4.632.669,13.7,13.7,0,0,0,8.957-3.967,11.251,11.251,0,0,0,2.762-4.455,10.7,10.7,0,0,0,.3-5.4,9.043,9.043,0,0,0-2.672-4.817,12.223,12.223,0,0,0-5.014-2.7,22.755,22.755,0,0,0-5.85-.82,17.081,17.081,0,0,0-5.956.8,8.118,8.118,0,0,0-4.643,3.754,9.129,9.129,0,0,0-.816,6.1,10.278,10.278,0,0,0,3.074,5.493,14.537,14.537,0,0,0,5.576,3.244,16,16,0,0,0,12.84-1.211,12.531,12.531,0,0,0,2.615-2.072,10.856,10.856,0,0,0,1.874-2.735,11.816,11.816,0,0,0,1.026-6.456,12.2,12.2,0,0,0-2.356-6,12.522,12.522,0,0,0-5-3.873,13.487,13.487,0,0,0-11.975.549,15.83,15.83,0,0,0-7.409,9.076,13.112,13.112,0,0,0-.5,5.727,10.094,10.094,0,0,0,.8,2.7,10.267,10.267,0,0,0,1.518,2.318,12.12,12.12,0,0,0,4.448,3.054,16.2,16.2,0,0,0,5.132,1.14,15.862,15.862,0,0,0,9.541-2.477,9.954,9.954,0,0,0,4.661-7.617,13.855,13.855,0,0,0-2.173-8.057,16.472,16.472,0,0,0-5.261-5.327,14.1,14.1,0,0,0-6.123-2.142,11.651,11.651,0,0,0-2.873.058,12.2,12.2,0,0,0-2.539.617,12.567,12.567,0,0,0-6.063,4.474,10.848,10.848,0,0,0-1.016,1.721c-.188.412-.294.619-.294.619" transform="translate(-42.299 -50.235)" fill="#0f4c81"/>
        <path id="Trazado_260179" data-name="Trazado 260179" d="M255.65,330.059c.075.091-6.429,5.709-14.528,12.545s-14.728,12.306-14.8,12.214,6.428-5.707,14.53-12.546,14.726-12.3,14.8-12.214" transform="translate(-40.79 -56.627)" fill="#263238"/>
        <path id="Trazado_260180" data-name="Trazado 260180" d="M258.009,354.56a8.039,8.039,0,0,1-1.092-.789l-2.878-2.275c-2.418-1.935-5.742-4.633-9.395-7.632s-6.948-5.736-9.317-7.733l-2.793-2.382a8,8,0,0,1-.987-.919,8.172,8.172,0,0,1,1.093.789l2.878,2.275c2.418,1.936,5.742,4.633,9.4,7.633s6.945,5.734,9.315,7.731l2.793,2.381a8.174,8.174,0,0,1,.988.92" transform="translate(-41.733 -57.103)" fill="#263238"/>
        <path id="Trazado_260181" data-name="Trazado 260181" d="M339.413,330.441c.071.1-6.15,4.908-13.892,10.747s-14.078,10.5-14.148,10.4,6.148-4.906,13.893-10.748,14.077-10.5,14.148-10.4" transform="translate(-56.12 -56.693)" fill="#263238"/>
        <path id="Trazado_260182" data-name="Trazado 260182" d="M342.088,351.143c-.063.1-6.666-4.039-14.747-9.245s-14.583-9.509-14.52-9.609,6.666,4.039,14.749,9.245,14.58,9.508,14.517,9.608" transform="translate(-56.381 -57.01)" fill="#263238"/>
        <path id="Trazado_260183" data-name="Trazado 260183" d="M263.4,397.353c-.084-.083,6.374-6.922,14.424-15.271s14.647-15.055,14.731-14.971-6.373,6.919-14.425,15.272-14.645,15.053-14.73,14.971" transform="translate(-47.473 -62.984)" fill="#0f4c81"/>
        <path id="Trazado_260184" data-name="Trazado 260184" d="M291.11,397.756c-.011.009-.1-.089-.266-.285l-.694-.867-2.528-3.2c-2.145-2.7-5.174-6.366-8.69-10.268s-6.855-7.29-9.313-9.7l-2.922-2.841-.79-.778c-.177-.182-.266-.283-.256-.294a1.33,1.33,0,0,1,.313.229c.232.2.51.434.844.719.73.629,1.762,1.565,3.019,2.743,2.514,2.355,5.892,5.72,9.42,9.629s6.524,7.621,8.611,10.369c1.045,1.374,1.871,2.5,2.424,3.292.249.364.457.665.63.916a1.344,1.344,0,0,1,.2.337" transform="translate(-47.88 -63.397)" fill="#0f4c81"/>
        <path id="Trazado_260185" data-name="Trazado 260185" d="M206.98,360.968s.26,20.35-4.823,32.541l-30.981-5.338s9.332-19.283,6.791-30Z" transform="translate(-30.852 -61.45)" fill="#ebebeb"/>
        <path id="Trazado_260186" data-name="Trazado 260186" d="M206.689,359.671s-3.881,24.96-6.259,32.4l-30.8-6.136s6.334-24.159,6.251-30.881Z" transform="translate(-30.573 -60.915)" fill="#a3314f"/>
        <path id="Trazado_260187" data-name="Trazado 260187" d="M181.077,368.564c-.024.114,4.575,1.19,10.271,2.4s10.334,2.1,10.358,1.987-4.574-1.19-10.272-2.4-10.333-2.1-10.357-1.987" transform="translate(-32.636 -63.232)" fill="#fff"/>
        <path id="Trazado_260188" data-name="Trazado 260188" d="M180.118,374.952c-.024.114,4.575,1.19,10.271,2.4s10.334,2.1,10.358,1.987-4.574-1.19-10.272-2.4-10.333-2.1-10.357-1.987" transform="translate(-32.463 -64.328)" fill="#fff"/>
        <path id="Trazado_260189" data-name="Trazado 260189" d="M185.618,382.179a7.382,7.382,0,0,0,1.691.513c1.055.263,2.519.6,4.141.944s3.1.635,4.168.823a7.378,7.378,0,0,0,1.752.22,7.347,7.347,0,0,0-1.691-.513c-1.055-.263-2.519-.6-4.142-.944s-3.1-.635-4.168-.823a7.326,7.326,0,0,0-1.752-.22" transform="translate(-33.455 -65.566)" fill="#fff"/>
        <path id="Trazado_260190" data-name="Trazado 260190" d="M386.79,292.552s3.174,19.838-.042,32.489l-31.024-.673s6.347-20.2,2.328-30.3Z" transform="translate(-64.114 -50.192)" fill="#ebebeb"/>
        <path id="Trazado_260191" data-name="Trazado 260191" d="M386.343,291.656s-.209,24.947-1.464,32.557l-30.962-1.48s2.719-24.524,1.673-31.078Z" transform="translate(-63.788 -50.039)" fill="#455a64"/>
        <path id="Trazado_260192" data-name="Trazado 260192" d="M361.277,305.015c0,.115,4.66.217,10.406.226s10.408-.075,10.409-.191-4.659-.216-10.408-.226-10.407.076-10.407.191" transform="translate(-65.115 -52.298)" fill="#fff"/>
        <path id="Trazado_260193" data-name="Trazado 260193" d="M361.639,311.383c0,.115,4.66.217,10.406.226s10.408-.075,10.409-.191-4.659-.217-10.408-.227-10.407.076-10.407.191" transform="translate(-65.18 -53.39)" fill="#fff"/>
        <path id="Trazado_260194" data-name="Trazado 260194" d="M368.414,317.259a7.228,7.228,0,0,0,1.736.151c1.073.04,2.555.065,4.192.068s3.12-.018,4.193-.054a7.2,7.2,0,0,0,1.737-.145,7.285,7.285,0,0,0-1.736-.151c-1.073-.039-2.555-.065-4.193-.068s-3.119.018-4.192.054a7.254,7.254,0,0,0-1.737.145" transform="translate(-66.401 -54.397)" fill="#fff"/>
        <path id="Trazado_260195" data-name="Trazado 260195" d="M397.752,213.957c-5.791,0-11.615-3.664-14.68-9.442a28.409,28.409,0,0,1-2.621-18.727c1.7-8.306,7.131-15.074,13.83-17.244,5.7-1.847,15.884-.8,20.684,7.3a24.833,24.833,0,0,1,3.325,13.112,2.46,2.46,0,1,1-4.909-.331,20.019,20.019,0,0,0-2.636-10.229c-3.706-6.256-11.826-6.136-14.962-5.121-5.731,1.857-9.411,8.128-10.515,13.519a23.323,23.323,0,0,0,2.14,15.371c2.42,4.563,7.311,7.4,11.651,6.719a2.485,2.485,0,0,1,.744,4.914,13.4,13.4,0,0,1-2.05.156" transform="translate(-68.468 -28.783)" fill="#263238"/>
        <path id="Trazado_260196" data-name="Trazado 260196" d="M204.028,213.984c-5.79,0-11.615-3.664-14.68-9.442a28.418,28.418,0,0,1-2.622-18.727c1.433-6.99,6.286-15.039,13.9-17.265a17.947,17.947,0,0,1,11.168.577l-1.771,4.638a13.085,13.085,0,0,0-8.031-.441c-5.645,1.651-9.316,7.969-10.449,13.5a23.322,23.322,0,0,0,2.141,15.371c2.421,4.564,7.324,7.4,11.65,6.719l.746,4.914a13.416,13.416,0,0,1-2.051.156" transform="translate(-33.553 -28.81)" fill="#263238"/>
        <path id="Trazado_260197" data-name="Trazado 260197" d="M398.671,193.5l-2.259,12.519H429.7l2.955-12.394Z" transform="translate(-71.447 -33.198)" fill="#a3314f"/>
        <path id="Trazado_260198" data-name="Trazado 260198" d="M215.924,220.029a5.292,5.292,0,1,1-5.292-5.348,5.321,5.321,0,0,1,5.292,5.348" transform="translate(-37.009 -36.832)" fill="#263238"/>
        <path id="Trazado_260199" data-name="Trazado 260199" d="M409.434,220.029a5.292,5.292,0,1,1-5.292-5.348,5.321,5.321,0,0,1,5.292,5.348" transform="translate(-71.887 -36.832)" fill="#263238"/>
      </g>
    </g>
    <path id="Trazado_260200" data-name="Trazado 260200" d="M296.359,96.106l-8.637,32.763-29.811,3.2v5.291L299.8,138.83l7.873-36.752Z" transform="translate(-46.3 -16.274)" fill="#ffbe9d"/>
    <g id="Grupo_236325" data-name="Grupo 236325">
      <g id="Grupo_236324" data-name="Grupo 236324" clip-path="url(#clip-path)">
        <path id="Trazado_260201" data-name="Trazado 260201" d="M305.52,149.133s-46.954-2.26-60.331,8.319-6.943,27.824-6.943,27.824l75.572-.2,6.668-38.708Z" transform="translate(-42.662 -25.112)" fill="#263238"/>
        <path id="Trazado_260202" data-name="Trazado 260202" d="M316.09,177.988a3.885,3.885,0,0,1-.675-.048c-.44-.047-1.091-.114-1.926-.225-1.671-.21-4.083-.557-7.052-1.064A199.836,199.836,0,0,1,283.52,171.3c-4.407-1.317-8.576-2.651-12.431-3.614a54.245,54.245,0,0,0-10.388-1.674,31.043,31.043,0,0,0-7.072.408c-.835.108-1.457.316-1.894.392a4.066,4.066,0,0,1-.666.123,3.944,3.944,0,0,1,.644-.207,17.935,17.935,0,0,1,1.884-.473,29.2,29.2,0,0,1,7.116-.548,52.654,52.654,0,0,1,10.469,1.592c3.877.947,8.058,2.272,12.457,3.586a222.5,222.5,0,0,0,22.849,5.466c2.958.545,5.361.936,7.023,1.2l1.914.3a3.991,3.991,0,0,1,.664.134" transform="translate(-45.251 -28.426)" fill="#455a64"/>
        <path id="Trazado_260203" data-name="Trazado 260203" d="M275.193,166.847a20.287,20.287,0,0,0-8.908-4.718,4.084,4.084,0,0,1,1.507.152,13.556,13.556,0,0,1,6.42,3.4,4.133,4.133,0,0,1,.981,1.166" transform="translate(-47.994 -27.812)" fill="#455a64"/>
        <path id="Trazado_260204" data-name="Trazado 260204" d="M325.952,274.212l.632,19.947-4,15.923a2.046,2.046,0,0,0,1.6,2.515,2,2,0,0,0,1.772-.544c2.987-2.948,13.923-13.851,13.8-15.308-.147-1.687.716-21.086.716-21.086Z" transform="translate(-58.129 -47.046)" fill="#a3314f"/>
        <g id="Grupo_236314" data-name="Grupo 236314" transform="translate(266.051 248.353)" opacity="0.6">
          <g id="Grupo_236313" data-name="Grupo 236313">
            <g id="Grupo_236312" data-name="Grupo 236312" clip-path="url(#clip-path-9)">
              <path id="Trazado_260205" data-name="Trazado 260205" d="M324.545,316.984l15.556-17.2.008.845a3.1,3.1,0,0,1-.7,2c-1.24,1.5-4.755,5.57-13.028,13.807a2.007,2.007,0,0,1-1.832.543" transform="translate(-324.545 -299.786)" fill="#fff"/>
            </g>
          </g>
        </g>
        <g id="Grupo_236317" data-name="Grupo 236317" transform="translate(277.004 241.753)" opacity="0.6">
          <g id="Grupo_236316" data-name="Grupo 236316">
            <g id="Grupo_236315" data-name="Grupo 236315" clip-path="url(#clip-path-10)">
              <path id="Trazado_260206" data-name="Trazado 260206" d="M338.4,292.019a1.245,1.245,0,0,0-.321,1.619,1.17,1.17,0,0,0,1.585.336,1.316,1.316,0,0,0,.33-1.717,1.213,1.213,0,0,0-1.687-.164" transform="translate(-337.906 -291.819)" fill="#fff"/>
            </g>
          </g>
        </g>
        <path id="Trazado_260207" data-name="Trazado 260207" d="M329.07,309.5c-.111.056-.566-.985-1.745-1.536a6.121,6.121,0,0,0-2.278-.419c-.017-.049.231-.206.693-.276a3.121,3.121,0,0,1,1.773.3,3.16,3.16,0,0,1,1.339,1.212c.234.408.268.7.219.719" transform="translate(-58.585 -52.713)" fill="#263238"/>
        <path id="Trazado_260208" data-name="Trazado 260208" d="M327.457,312.923a16.377,16.377,0,0,0-1.757-.842,16.314,16.314,0,0,0-1.931-.234,2.226,2.226,0,0,1,2.051-.188c1.165.333,1.739,1.209,1.636,1.263" transform="translate(-58.354 -53.448)" fill="#263238"/>
        <path id="Trazado_260209" data-name="Trazado 260209" d="M331.888,305.33a20.268,20.268,0,0,0-2.625-1.485,19.935,19.935,0,0,0-2.936-.663,4.441,4.441,0,0,1,3.091.254,4.49,4.49,0,0,1,2.47,1.894" transform="translate(-58.815 -51.989)" fill="#263238"/>
        <path id="Trazado_260210" data-name="Trazado 260210" d="M332.355,298.3c-.052.12-1.147-.331-2.567-.369-1.42-.058-2.542.316-2.586.193a4.975,4.975,0,0,1,5.152.176" transform="translate(-58.973 -51.039)" fill="#263238"/>
        <path id="Trazado_260211" data-name="Trazado 260211" d="M332.281,291.208a6.363,6.363,0,0,0-5.274.233c-.033-.041.18-.294.634-.564a4.37,4.37,0,0,1,3.961-.175c.474.229.708.462.68.506" transform="translate(-58.937 -49.808)" fill="#263238"/>
        <path id="Trazado_260212" data-name="Trazado 260212" d="M329.533,288.683a1.734,1.734,0,0,1-.034-.755,5.282,5.282,0,0,1,.575-1.982,2.315,2.315,0,0,1,.977-1.119.807.807,0,0,1,.918.175,1.347,1.347,0,0,1,.321.9,2.88,2.88,0,0,1-2.482,2.7,3.311,3.311,0,0,1-3.275-1.724,1.172,1.172,0,0,1-.062-.967.8.8,0,0,1,.83-.435,2.824,2.824,0,0,1,1.307.672,5.821,5.821,0,0,1,1.362,1.538,1.775,1.775,0,0,1,.309.687,9.248,9.248,0,0,0-1.855-1.977,2.628,2.628,0,0,0-1.153-.558.426.426,0,0,0-.454.234.808.808,0,0,0,.078.633,2.954,2.954,0,0,0,2.856,1.461,2.5,2.5,0,0,0,2.14-2.259.973.973,0,0,0-.2-.636.438.438,0,0,0-.506-.1,2.1,2.1,0,0,0-.844.932,7.8,7.8,0,0,0-.811,2.588" transform="translate(-58.827 -48.854)" fill="#263238"/>
        <path id="Trazado_260213" data-name="Trazado 260213" d="M334.355,145.321s-20.306,38.793-20.584,45.54,0,69.153,0,69.153H345.2c.835,0,5.529-28.111,4.573-34.576s-4.345-41.25-4.345-41.25h18.082s4.959-5.357,4.778-12.161c-.1-3.749-2.528-11.427-4.941-15.491-1.548-2.607-11.471-16.275-11.471-16.275Z" transform="translate(-56.53 -24.064)" fill="#263238"/>
        <path id="Trazado_260214" data-name="Trazado 260214" d="M332.853,149.535a1.021,1.021,0,0,1-.089.223l-.3.633c-.285.58-.68,1.388-1.183,2.416l-1.9,3.81-1.183,2.378-1.239,2.71-6.129,13.334-3.632,7.867-1.913,4.158a22.917,22.917,0,0,0-1.4,4.459,24.683,24.683,0,0,0-.479,4.661c-.057,1.552-.082,3.083-.111,4.588-.04,3.01-.058,5.913-.051,8.679.008,5.533.066,10.516.122,14.7.062,4.16.112,7.538.148,9.911.013,1.146.024,2.048.031,2.695,0,.288,0,.519,0,.7a.12.12,0,1,1-.043,0c-.011-.182-.025-.413-.041-.7-.027-.647-.064-1.548-.112-2.693-.084-2.339-.188-5.724-.284-9.91s-.184-9.168-.214-14.7c-.018-2.768-.009-5.674.026-8.687.025-1.507.049-3.04.1-4.6a24.929,24.929,0,0,1,.485-4.735,23.3,23.3,0,0,1,1.424-4.541l1.924-4.168c1.267-2.724,2.49-5.353,3.655-7.858l6.212-13.3,1.267-2.7,1.212-2.365,1.961-3.778,1.254-2.38.336-.614a1.021,1.021,0,0,1,.127-.2" transform="translate(-56.387 -25.655)" fill="#455a64"/>
        <path id="Trazado_260215" data-name="Trazado 260215" d="M328.562,163.466a38.671,38.671,0,0,1-1.635-4.846,38.742,38.742,0,0,1-1.4-4.922,25.621,25.621,0,0,1,1.8,4.792,25.673,25.673,0,0,1,1.228,4.976" transform="translate(-58.669 -26.369)" fill="#455a64"/>
        <path id="Trazado_260216" data-name="Trazado 260216" d="M356.781,232.569a1.806,1.806,0,0,1-.091-.44c-.047-.339-.106-.759-.177-1.271-.143-1.167-.337-2.752-.574-4.682-.449-4.015-1.059-9.457-1.732-15.469-.66-6.044-1.221-11.519-1.55-15.49-.161-1.938-.293-3.529-.391-4.7-.034-.516-.062-.939-.084-1.281a1.775,1.775,0,0,1,0-.449,1.811,1.811,0,0,1,.086.441c.044.339.1.76.165,1.272.131,1.169.309,2.755.526,4.688.434,4.017,1.023,9.46,1.674,15.476.625,6.016,1.19,11.461,1.608,15.479.181,1.936.33,3.526.439,4.7.039.516.072.939.1,1.28a1.779,1.779,0,0,1,.006.45" transform="translate(-63.473 -32.389)" fill="#455a64"/>
        <path id="Trazado_260217" data-name="Trazado 260217" d="M348.044,19.511c-.48-3.276,2.328-6.5,5.58-6.9a8.285,8.285,0,0,1,8.009,4.647,12.2,12.2,0,0,1,.242,9.645c-.778,2.094-2.333,4.22-4.542,4.383-2.124.157-3.891-1.535-5.354-3.1" transform="translate(-62.72 -2.156)" fill="#263238"/>
        <path id="Trazado_260218" data-name="Trazado 260218" d="M319.563,36.65c-6.534-14.522,9.008-21.817,17.487-19.4,7.97,2.275,11.368,6.283,12.68,11.669a26.857,26.857,0,0,1-.841,16.357c-1.03,2.531-2.886,5.1-5.576,5.418" transform="translate(-57.315 -2.882)" fill="#263238"/>
        <path id="Trazado_260219" data-name="Trazado 260219" d="M342.463,26.329a2.727,2.727,0,0,1,2.423,2.776l-1.535,36.965c-.058,4.365-6.367,6.832-10.992,6.734-4.67-.1-4.826-2.414-4.893-6.566-.113-6.938-.111-9.543-.113-9.5,0,0-5.9-.99-7.124-8.771-.608-3.87-.416-10.214-.093-15.4.291-4.668,3.351-10.4,7.954-9.9Z" transform="translate(-57.645 -3.882)" fill="#ffbe9d"/>
        <path id="Trazado_260220" data-name="Trazado 260220" d="M323.845,39.769a.993.993,0,0,0,.953,1.007.947.947,0,0,0,1.017-.9.993.993,0,0,0-.951-1.007.949.949,0,0,0-1.019.9" transform="translate(-58.368 -6.668)" fill="#263238"/>
        <path id="Trazado_260221" data-name="Trazado 260221" d="M321.861,38.385c.122.13.871-.429,1.933-.427s1.841.54,1.957.408c.057-.058-.068-.293-.407-.543a2.683,2.683,0,0,0-1.567-.488,2.578,2.578,0,0,0-1.539.5c-.327.254-.437.489-.377.547" transform="translate(-58.008 -6.406)" fill="#263238"/>
        <path id="Trazado_260222" data-name="Trazado 260222" d="M336.517,39.769a.993.993,0,0,0,.952,1.007.947.947,0,0,0,1.018-.9.994.994,0,0,0-.951-1.007.949.949,0,0,0-1.019.9" transform="translate(-60.652 -6.668)" fill="#263238"/>
        <path id="Trazado_260223" data-name="Trazado 260223" d="M334.6,38.627c.123.13.871-.429,1.934-.427s1.841.54,1.957.408c.056-.058-.067-.293-.408-.543a2.683,2.683,0,0,0-1.567-.488,2.579,2.579,0,0,0-1.539.5c-.326.254-.437.489-.377.547" transform="translate(-60.304 -6.447)" fill="#263238"/>
        <path id="Trazado_260224" data-name="Trazado 260224" d="M329.307,46.6a6.956,6.956,0,0,0-1.726-.315c-.271-.028-.529-.083-.574-.27a1.409,1.409,0,0,1,.18-.813q.384-1,.8-2.088a36.1,36.1,0,0,0,1.8-5.462,36.159,36.159,0,0,0-2.233,5.3q-.4,1.1-.769,2.1a1.6,1.6,0,0,0-.14,1.076.684.684,0,0,0,.446.4,1.817,1.817,0,0,0,.461.065,6.815,6.815,0,0,0,1.749,0" transform="translate(-58.865 -6.461)" fill="#263238"/>
        <path id="Trazado_260225" data-name="Trazado 260225" d="M329.006,63.22a19.417,19.417,0,0,0,10.312-2.779s-2.5,5.345-10.208,4.617Z" transform="translate(-59.298 -10.37)" fill="#eb996e"/>
        <path id="Trazado_260226" data-name="Trazado 260226" d="M330.427,51.43a1.9,1.9,0,0,1,1.717-.718,1.739,1.739,0,0,1,1.207.654,1.128,1.128,0,0,1,.084,1.28,1.276,1.276,0,0,1-1.393.356,4.015,4.015,0,0,1-1.358-.819,1.169,1.169,0,0,1-.3-.317.362.362,0,0,1,0-.4" transform="translate(-59.535 -8.698)" fill="#eb996e"/>
        <path id="Trazado_260227" data-name="Trazado 260227" d="M332.971,49.354c-.173-.01-.175,1.156-1.162,1.982s-2.215.7-2.224.862c-.016.073.274.226.793.24a2.849,2.849,0,0,0,1.857-.654,2.533,2.533,0,0,0,.9-1.662c.043-.488-.085-.776-.164-.77" transform="translate(-59.403 -8.467)" fill="#263238"/>
        <path id="Trazado_260228" data-name="Trazado 260228" d="M334.022,36.407c.1.292,1.166.154,2.413.307,1.249.126,2.255.5,2.42.233.074-.125-.1-.4-.507-.682a4.184,4.184,0,0,0-3.682-.411c-.457.186-.688.416-.643.553" transform="translate(-60.201 -6.108)" fill="#263238"/>
        <path id="Trazado_260229" data-name="Trazado 260229" d="M322.335,34.621c.187.244.919-.009,1.8-.022.88-.043,1.626.164,1.8-.091.075-.123-.042-.368-.368-.6a2.584,2.584,0,0,0-2.9.09c-.312.251-.413.5-.331.621" transform="translate(-58.091 -5.749)" fill="#263238"/>
        <path id="Trazado_260230" data-name="Trazado 260230" d="M331.748,19.535a15.512,15.512,0,0,0-7.4,2.319,10.79,10.79,0,0,0-5.281,6.342,2.234,2.234,0,0,0,.062,1.752,1.686,1.686,0,0,0,2.112.461,4.975,4.975,0,0,0,1.717-1.6,3.284,3.284,0,0,0,6.393-.072,2.9,2.9,0,0,0,2.968,2.675A3.813,3.813,0,0,0,335.6,28.8a9.8,9.8,0,0,0,1.354,3.8,3.271,3.271,0,0,0,3.486,1.435,6.962,6.962,0,0,0,.051,3.48c.407,1.1,2.041,19.813,3.14,19.432,1.066-.37,1.055-19.471,1.305-20.582a26.265,26.265,0,0,0,.825-6.522,10.654,10.654,0,0,0-1.982-6.168,10.416,10.416,0,0,0-5.644-3.516,24.7,24.7,0,0,0-6.7-.616" transform="translate(-57.481 -3.351)" fill="#263238"/>
        <path id="Trazado_260231" data-name="Trazado 260231" d="M351.66,56.541c0,.014-.075.051-.235.11a3.543,3.543,0,0,1-.72.173,5.758,5.758,0,0,1-2.7-.278,5.86,5.86,0,0,1-3.167-2.508,8.1,8.1,0,0,1-1.014-4.872c.127-1.777.533-3.4.724-4.894a38.627,38.627,0,0,0,.343-3.993c.036-1.142.022-2.068.007-2.707a4.99,4.99,0,0,1,.009-1,4.089,4.089,0,0,1,.157.988c.065.64.125,1.571.128,2.724a33.061,33.061,0,0,1-.255,4.039c-.174,1.519-.566,3.149-.688,4.87a7.844,7.844,0,0,0,.923,4.635,5.67,5.67,0,0,0,2.932,2.429,6.1,6.1,0,0,0,2.585.4c.624-.047.962-.154.973-.117" transform="translate(-61.963 -6.275)" fill="#263238"/>
        <path id="Trazado_260232" data-name="Trazado 260232" d="M329.674,18.324a3.519,3.519,0,0,1,.4,1.847,6.131,6.131,0,0,1-1.641,4.232,6,6,0,0,1-4.123,1.817,3.437,3.437,0,0,1-1.842-.332c.016-.077.708.128,1.824.028a6.134,6.134,0,0,0,3.833-1.812,6.267,6.267,0,0,0,1.648-3.939c.057-1.13-.172-1.822-.1-1.841" transform="translate(-58.119 -3.144)" fill="#455a64"/>
        <path id="Trazado_260233" data-name="Trazado 260233" d="M331.023,29.383c.042.007-.054.537-.644,1.112a3.915,3.915,0,0,1-2.9,1,6.332,6.332,0,0,1-2.9-1.006c-.662-.418-1.017-.745-.987-.79a4.852,4.852,0,0,1,1.133.524,7.449,7.449,0,0,0,2.777.842,4.02,4.02,0,0,0,2.681-.8c.581-.46.775-.916.841-.881" transform="translate(-58.322 -5.041)" fill="#455a64"/>
        <path id="Trazado_260234" data-name="Trazado 260234" d="M353.414,26.515a7.492,7.492,0,0,1-.145,2.128,10.786,10.786,0,0,1-1.886,4.795,6.374,6.374,0,0,1-4.413,2.538,4.122,4.122,0,0,1-1.559-.156c-.353-.113-.53-.218-.522-.24a8,8,0,0,0,2.049.093,6.442,6.442,0,0,0,4.105-2.5,11.774,11.774,0,0,0,1.929-4.59,18.023,18.023,0,0,1,.442-2.07" transform="translate(-62.161 -4.549)" fill="#455a64"/>
        <path id="Trazado_260235" data-name="Trazado 260235" d="M354.926,31.07a1.878,1.878,0,0,1,.123.656,12.5,12.5,0,0,1,.044,1.814,9.191,9.191,0,0,1-2.053,5.582A6.241,6.241,0,0,1,350.309,41a5.352,5.352,0,0,1-2.7.165,4.378,4.378,0,0,1-1.673-.714c-.348-.256-.494-.45-.48-.465a6.286,6.286,0,0,0,2.205.878,5.3,5.3,0,0,0,2.519-.242,6.073,6.073,0,0,0,2.536-1.787,9.5,9.5,0,0,0,2.073-5.321c.138-1.5.061-2.443.134-2.448" transform="translate(-62.263 -5.331)" fill="#455a64"/>
        <path id="Trazado_260236" data-name="Trazado 260236" d="M221.929,151.881l-14.884,34.386h20.489l14.589-34.658Z" transform="translate(-37.317 -26.011)" fill="#455a64"/>
        <path id="Trazado_260237" data-name="Trazado 260237" d="M211.955,107.3l16.786,33.351h52.923l-2.142-4.358-15.332-.46-12.5-28.12a4.815,4.815,0,0,0-4.393-2.873H213.446a1.691,1.691,0,0,0-1.492,2.459" transform="translate(-38.168 -17.987)" fill="#e0e0e0"/>
        <path id="Trazado_260238" data-name="Trazado 260238" d="M243.436,125.409a2.025,2.025,0,1,1-2.025-2.045,2.035,2.035,0,0,1,2.025,2.045" transform="translate(-43.146 -21.165)" fill="#263238"/>
        <rect id="Rectángulo_294881" data-name="Rectángulo 294881" width="64.696" height="3.189" transform="translate(184.44 122.714)" fill="#455a64"/>
        <path id="Trazado_260239" data-name="Trazado 260239" d="M279.6,150.053l19.678,35.981H308.7l2.043-4.115,1.89-4.337-13.1-25.934Z" transform="translate(-50.394 -25.744)" fill="#455a64"/>
        <path id="Trazado_260240" data-name="Trazado 260240" d="M318.268,75.6a23.167,23.167,0,0,0-13.887,16.987l12.069,6.083Z" transform="translate(-54.86 -12.971)" fill="#a3314f"/>
        <path id="Trazado_260241" data-name="Trazado 260241" d="M319.628,75.242s-8,18.11-7.693,27.994c.106,3.442,2.341,12.4,2.341,12.4l4.152,22.258s31.813-4.353,32.523-4.353-1.063-18.263-1.063-18.263l5.186-35.1s-2.379-4.781-13.1-6.437c-6.445-.995-22.342,1.5-22.342,1.5" transform="translate(-56.22 -12.611)" fill="#a3314f"/>
        <path id="Trazado_260242" data-name="Trazado 260242" d="M316.6,88.288c.073.044-.766,1.387-1.77,3.724a34.334,34.334,0,0,0-1.479,4.208,33.974,33.974,0,0,0-1.21,10.821,34.435,34.435,0,0,0,.511,4.436c.462,2.5.984,4,.9,4.029a5.5,5.5,0,0,1-.4-1.036,12.731,12.731,0,0,1-.383-1.25c-.128-.493-.3-1.05-.411-1.683a30.719,30.719,0,0,1-.608-4.474,31.994,31.994,0,0,1,1.226-10.953,30.674,30.674,0,0,1,1.581-4.223c.25-.592.539-1.1.773-1.548a12.324,12.324,0,0,1,.649-1.132,5.478,5.478,0,0,1,.624-.92" transform="translate(-56.179 -15.147)" fill="#263238"/>
        <path id="Trazado_260243" data-name="Trazado 260243" d="M326.036,73.922l.464-4.956a2.1,2.1,0,0,1,2.047-1.913l15.7-.234a1.88,1.88,0,0,1,1.894,1.748l.4,5.354a13.654,13.654,0,0,1-6.3,6.466c-4.614,2.262-11.788,2.335-11.788,2.335Z" transform="translate(-58.763 -11.464)" fill="#a3314f"/>
        <path id="Trazado_260244" data-name="Trazado 260244" d="M330.89,67.144c.051.046-.183.322-.28.862a9.254,9.254,0,0,0,.031,2.2,12.268,12.268,0,0,1,0,3.213,12.2,12.2,0,0,1-.428-3.184,6.308,6.308,0,0,1,.1-2.31c.2-.6.545-.827.572-.785" transform="translate(-59.507 -11.519)" fill="#263238"/>
        <path id="Trazado_260245" data-name="Trazado 260245" d="M335.537,73.276a11.674,11.674,0,0,1-.391-3.115,14,14,0,0,1-.017-2.238c.081-.6.325-.9.37-.872s-.07.351-.069.9.1,1.324.143,2.189a11.654,11.654,0,0,1-.035,3.14" transform="translate(-60.394 -11.503)" fill="#263238"/>
        <path id="Trazado_260246" data-name="Trazado 260246" d="M341.2,73.14a11.3,11.3,0,0,1-.612-3.03,11.308,11.308,0,0,1-.189-3.088,11.307,11.307,0,0,1,.612,3.03,11.39,11.39,0,0,1,.189,3.088" transform="translate(-61.342 -11.499)" fill="#263238"/>
        <path id="Trazado_260247" data-name="Trazado 260247" d="M346.206,73.435a10.537,10.537,0,0,1-.592-3.336,10.536,10.536,0,0,1,.083-3.389,19.042,19.042,0,0,1,.343,3.356,18.927,18.927,0,0,1,.166,3.369" transform="translate(-62.279 -11.445)" fill="#263238"/>
        <g id="Grupo_236320" data-name="Grupo 236320" transform="translate(286.768 80.931)" opacity="0.3">
          <g id="Grupo_236319" data-name="Grupo 236319">
            <g id="Grupo_236318" data-name="Grupo 236318" clip-path="url(#clip-path-11)">
              <path id="Trazado_260248" data-name="Trazado 260248" d="M350.088,97.692c-.626,5.582-.212,15.184,1.737,20.446l9.164-15.3Z" transform="translate(-349.817 -97.692)"/>
            </g>
          </g>
        </g>
        <path id="Trazado_260249" data-name="Trazado 260249" d="M360.948,80.2l.043.046a23.751,23.751,0,0,1,5.547,9.767l1.685,7.78-18.037,2.821a23.01,23.01,0,0,1-.687-10.192c.864-5.862,11.449-10.222,11.449-10.222" transform="translate(-62.945 -13.759)" fill="#a3314f"/>
        <path id="Trazado_260250" data-name="Trazado 260250" d="M368.292,97.277a1.327,1.327,0,0,1-.356.093l-1.037.191-3.86.637-13.066,2.01-.232.036-.009-.239c-.043-1.1-.072-2.246-.093-3.416-.044-3.064-.039-5.984.174-8.641a14.268,14.268,0,0,1,2.1-6.726,9.933,9.933,0,0,1,3.361-3.333,6.479,6.479,0,0,1,1.165-.549,1.745,1.745,0,0,1,.43-.127c.018.045-.576.23-1.509.819a10.231,10.231,0,0,0-3.191,3.352,14.223,14.223,0,0,0-1.963,6.6c-.189,2.631-.183,5.547-.139,8.6.03,1.166.059,2.313.087,3.407l-.242-.2L363,97.919l3.878-.509,1.048-.118a1.29,1.29,0,0,1,.367-.015" transform="translate(-63.013 -13.247)" fill="#263238"/>
        <path id="Trazado_260251" data-name="Trazado 260251" d="M324.889,86.764a11.911,11.911,0,0,1-2.512-1.963,12.006,12.006,0,0,1-2.23-2.286,11.908,11.908,0,0,1,2.513,1.963,12.017,12.017,0,0,1,2.229,2.286" transform="translate(-57.701 -14.156)" fill="#fafafa"/>
        <path id="Trazado_260252" data-name="Trazado 260252" d="M321.938,99.218a17.558,17.558,0,0,1-4.646,2.912,17.589,17.589,0,0,1,4.646-2.912" transform="translate(-57.187 -17.02)" fill="#fafafa"/>
        <path id="Trazado_260253" data-name="Trazado 260253" d="M335.207,100.6a14.813,14.813,0,0,1,0-3.543,14.805,14.805,0,0,1,.424-3.518,14.865,14.865,0,0,1,0,3.544,14.862,14.862,0,0,1-.424,3.518" transform="translate(-60.4 -16.049)" fill="#fafafa"/>
        <path id="Trazado_260254" data-name="Trazado 260254" d="M346.162,112.6a24.761,24.761,0,0,1-2.282-2.5,24.683,24.683,0,0,1-2.254-2.522,14.132,14.132,0,0,1,4.537,5.018" transform="translate(-61.572 -18.456)" fill="#fafafa"/>
        <path id="Trazado_260255" data-name="Trazado 260255" d="M347.738,89.449a10.923,10.923,0,0,1-2.391,1.882,10.81,10.81,0,0,1-2.629,1.524,21.528,21.528,0,0,1,5.02-3.407" transform="translate(-61.769 -15.345)" fill="#fafafa"/>
        <path id="Trazado_260256" data-name="Trazado 260256" d="M336.865,80.7a12.487,12.487,0,0,1-2.609,1.948,12.4,12.4,0,0,1-2.84,1.585,24.6,24.6,0,0,1,5.449-3.533" transform="translate(-59.732 -13.843)" fill="#fafafa"/>
        <path id="Trazado_260257" data-name="Trazado 260257" d="M347.318,83.065a9.867,9.867,0,0,1-1.244-2.605,9.918,9.918,0,0,1-.847-2.764,9.869,9.869,0,0,1,1.244,2.605,9.92,9.92,0,0,1,.847,2.764" transform="translate(-62.218 -13.33)" fill="#fafafa"/>
        <path id="Trazado_260258" data-name="Trazado 260258" d="M360.409,87.859a6.781,6.781,0,0,1-1.831-1.539,6.848,6.848,0,0,1-1.53-1.844,6.753,6.753,0,0,1,1.831,1.538,6.823,6.823,0,0,1,1.53,1.845" transform="translate(-64.351 -14.492)" fill="#fafafa"/>
        <path id="Trazado_260259" data-name="Trazado 260259" d="M355.58,97.26a7.73,7.73,0,0,1-.353-2.53,7.765,7.765,0,0,1,.074-2.554,7.8,7.8,0,0,1,.353,2.53,7.818,7.818,0,0,1-.074,2.554" transform="translate(-64.017 -15.814)" fill="#fafafa"/>
        <path id="Trazado_260260" data-name="Trazado 260260" d="M365.512,96.106a12.019,12.019,0,0,1-5.632-.87,45.763,45.763,0,0,1,5.632.87" transform="translate(-64.863 -16.334)" fill="#fafafa"/>
        <path id="Trazado_260261" data-name="Trazado 260261" d="M321.307,115.154a13.967,13.967,0,0,1-1.648-3.021,14.037,14.037,0,0,1-1.262-3.205,13.966,13.966,0,0,1,1.648,3.021,14.017,14.017,0,0,1,1.262,3.205" transform="translate(-57.384 -18.688)" fill="#fafafa"/>
        <path id="Trazado_260262" data-name="Trazado 260262" d="M335.786,131.171a11.562,11.562,0,0,1-2-2.411,11.548,11.548,0,0,1-1.65-2.665,22.937,22.937,0,0,1,3.646,5.076" transform="translate(-59.862 -21.633)" fill="#fafafa"/>
        <path id="Trazado_260263" data-name="Trazado 260263" d="M347.549,125.6a21.029,21.029,0,0,1-5.6,2.182,21.058,21.058,0,0,1,5.6-2.182" transform="translate(-61.631 -21.546)" fill="#fafafa"/>
        <path id="Trazado_260264" data-name="Trazado 260264" d="M318.862,137.484a13.568,13.568,0,0,1,1.963-4.376,13.55,13.55,0,0,1-1.963,4.376" transform="translate(-57.466 -22.837)" fill="#fafafa"/>
        <path id="Trazado_260265" data-name="Trazado 260265" d="M309.265,92.292a5.692,5.692,0,0,1-.7-4.378,13.275,13.275,0,0,1,.327,2.193,13.292,13.292,0,0,1,.371,2.185" transform="translate(-55.581 -15.083)" fill="#fafafa"/>
        <path id="Trazado_260266" data-name="Trazado 260266" d="M325.14,127.727a16.69,16.69,0,0,1-4.656-2.614,16.692,16.692,0,0,1,4.656,2.614" transform="translate(-57.762 -21.463)" fill="#fafafa"/>
        <path id="Trazado_260267" data-name="Trazado 260267" d="M334.8,111.6a23.187,23.187,0,0,1-4.641,4.252A23.189,23.189,0,0,1,334.8,111.6" transform="translate(-59.506 -19.146)" fill="#fafafa"/>
        <g id="Grupo_236323" data-name="Grupo 236323" transform="translate(270.446 92.2)" opacity="0.3">
          <g id="Grupo_236322" data-name="Grupo 236322">
            <g id="Grupo_236321" data-name="Grupo 236321" clip-path="url(#clip-path-12)">
              <path id="Trazado_260268" data-name="Trazado 260268" d="M329.907,111.3A14.2,14.2,0,0,0,333.555,119a7.636,7.636,0,0,0,7.889,1.983,1.892,1.892,0,0,0,1.272-1.188,1.565,1.565,0,0,0-1.031-1.638,6.038,6.038,0,0,0-2.055-.29,11.686,11.686,0,0,1-9.555-6.25" transform="translate(-329.907 -111.295)"/>
            </g>
          </g>
        </g>
        <path id="Trazado_260269" data-name="Trazado 260269" d="M340.55,117.8c0,.03-.193.063-.551.1a7.045,7.045,0,0,1-1.523-.034,9.707,9.707,0,0,1-2.206-.524,10.716,10.716,0,0,1-4.527-3.178,9.926,9.926,0,0,1-1.257-1.906,7.241,7.241,0,0,1-.563-1.431c-.093-.351-.13-.548-.1-.556.075-.024.3.744.93,1.84a11.241,11.241,0,0,0,1.289,1.792,11.371,11.371,0,0,0,4.369,3.067,11.015,11.015,0,0,0,2.111.595c1.236.213,2.026.159,2.031.239" transform="translate(-59.444 -18.918)" fill="#263238"/>
        <path id="Trazado_260270" data-name="Trazado 260270" d="M286.933,129.741l11.875-1.442,8.367,5.544,32-7.75.757-22.134,14.207-1.893v26.8a12.219,12.219,0,0,1-12.495,12.026l-46.864-1.311-1.989-4.03-10.055-.3Z" transform="translate(-50.958 -17.511)" fill="#ffbe9d"/>
        <path id="Trazado_260271" data-name="Trazado 260271" d="M338.677,131.069a3.9,3.9,0,0,1-.6.185l-1.742.458-6.42,1.617-21.216,5.2-1.974.478-.078.018-.067-.044-8.359-5.557.115.027-11.882,1.388.079-.046-3.137,4.025c-.354.443-.634.794-.847,1.059a2.579,2.579,0,0,1-.308.352,2.4,2.4,0,0,1,.257-.392l.8-1.1,3.053-4.091.029-.039.049-.007,11.869-1.5.061-.008.053.035,8.375,5.532-.145-.025,1.973-.479,21.242-5.088,6.448-1.5,1.758-.389a3.924,3.924,0,0,1,.619-.111" transform="translate(-50.869 -22.487)" fill="#eb996e"/>
        <path id="Trazado_260272" data-name="Trazado 260272" d="M293.94,139.583a28.487,28.487,0,0,1-4.612.188l-.844,0,.119-.044a21.861,21.861,0,0,1-2.99,2.326,21.776,21.776,0,0,1,2.753-2.608l.051-.044h.068l.844,0a28.368,28.368,0,0,1,4.612.188" transform="translate(-51.477 -23.916)" fill="#eb996e"/>
        <path id="Trazado_260273" data-name="Trazado 260273" d="M357.058,134.683a8.808,8.808,0,0,0-2.332-2.458,8.642,8.642,0,0,0-3.2-1.06,1.952,1.952,0,0,1,1.031-.082,5.392,5.392,0,0,1,2.368.823,5.456,5.456,0,0,1,1.759,1.8,2.038,2.038,0,0,1,.375.976" transform="translate(-63.357 -22.487)" fill="#eb996e"/>
      </g>
    </g>
    <rect id="Rectángulo_294885" data-name="Rectángulo 294885" width="53.108" height="7.297" transform="translate(34.881 290.08)" fill="#263238"/>
    <path id="Trazado_260274" data-name="Trazado 260274" d="M96.068,356.426H42.778v-7.479h53.29Zm-53.107-.181H95.886v-7.115H42.96Z" transform="translate(-7.988 -58.959)" fill="#263238"/>
    <path id="Trazado_260275" data-name="Trazado 260275" d="M48.945,355.045l7.645,37.713H84.874l7.39-35.285Z" transform="translate(-9.139 -60.097)" fill="#263238"/>
    <path id="Trazado_260276" data-name="Trazado 260276" d="M48.945,397.03l4.077,5.606H87.4l4.863-5.606Z" transform="translate(-9.139 -67.937)" fill="#455a64"/>
    <g id="Grupo_236330" data-name="Grupo 236330" transform="translate(9.129 190.656)">
      <g id="Grupo_236334" data-name="Grupo 236334">
        <path id="Trazado_260277" data-name="Trazado 260277" d="M73.014,338.481c-.1,0-.238-17.471-.3-39.018s-.025-39.022.08-39.023.238,17.467.3,39.022.024,39.019-.08,39.019" transform="translate(-22.702 -233.088)" fill="#263238"/>
        <path id="Trazado_260278" data-name="Trazado 260278" d="M86.512,302.639a1.927,1.927,0,0,1-.142.407l-.474,1.13c-.107.249-.221.521-.346.814l-.354.992-.409,1.137c-.142.4-.254.843-.393,1.3a52.964,52.964,0,0,0-1.486,6.5,79.117,79.117,0,0,0-.822,8.131,109.694,109.694,0,0,0,.42,14.854c.171,1.9.343,3.429.469,4.486.054.5.1.9.134,1.22a1.862,1.862,0,0,1,.021.429,1.84,1.84,0,0,1-.1-.418l-.2-1.211c-.172-1.053-.385-2.583-.59-4.479a97.824,97.824,0,0,1-.532-14.9,74.008,74.008,0,0,1,.857-8.171,49.142,49.142,0,0,1,1.573-6.523c.148-.455.269-.894.421-1.3L85,305.908q.2-.527.385-.986c.131-.3.264-.563.378-.805l.54-1.1a1.816,1.816,0,0,1,.211-.373" transform="translate(-24.37 -240.968)" fill="#263238"/>
        <path id="Trazado_260279" data-name="Trazado 260279" d="M84.383,285.264a3.536,3.536,0,0,1-.169.576l-.552,1.625-.407,1.17q-.2.654-.427,1.411c-.311,1.011-.671,2.16-.991,3.452q-.255.967-.534,2.02l-.5,2.209c-.372,1.521-.639,3.173-.982,4.9-.585,3.47-1.1,7.306-1.457,11.352-.335,4.049-.481,7.919-.533,11.439-.011,3.52.034,6.692.179,9.352.046,1.331.132,2.533.2,3.589s.127,1.965.194,2.707c.054.716.1,1.285.13,1.711a3.58,3.58,0,0,1,.02.6,3.494,3.494,0,0,1-.1-.591q-.076-.637-.2-1.705c-.09-.741-.178-1.649-.259-2.706s-.193-2.258-.257-3.591c-.179-2.662-.251-5.84-.26-9.368.033-3.529.168-7.409.505-11.469.356-4.057.884-7.9,1.49-11.382.353-1.729.633-3.384,1.018-4.906q.27-1.145.521-2.21.292-1.053.558-2.02c.338-1.292.717-2.438,1.048-3.446l.458-1.4q.239-.632.438-1.162l.621-1.6a3.548,3.548,0,0,1,.24-.549" transform="translate(-23.598 -237.723)" fill="#263238"/>
        <path id="Trazado_260280" data-name="Trazado 260280" d="M66.635,342.114a.872.872,0,0,1-.03-.2l-.05-.6c-.038-.557-.09-1.331-.157-2.314-.127-2.038-.309-4.939-.532-8.51-.461-7.184-1.128-17.11-2.337-28.025-.618-5.458-1.335-10.641-2.079-15.34-.4-2.345-.756-4.577-1.163-6.653-.373-2.083-.776-4.012-1.147-5.773-.349-1.765-.738-3.346-1.051-4.741s-.606-2.59-.854-3.565l-.551-2.252c-.055-.241-.1-.434-.135-.588a.835.835,0,0,1-.033-.2.87.87,0,0,1,.07.194l.171.579c.15.538.357,1.285.621,2.234.271.97.59,2.161.917,3.554s.741,2.969,1.107,4.733c.387,1.759.806,3.687,1.193,5.77.421,2.076.792,4.309,1.2,6.656.764,4.7,1.492,9.89,2.11,15.354,1.21,10.926,1.835,20.861,2.228,28.051.2,3.6.331,6.506.412,8.518.037.985.065,1.76.085,2.318,0,.247.01.446.013.6a.818.818,0,0,1-.009.207" transform="translate(-19.682 -233.63)" fill="#263238"/>
        <path id="Trazado_260281" data-name="Trazado 260281" d="M68.721,269.764c-.231-2.476-2.732-4.343-5.218-4.368a8.217,8.217,0,0,0-6.323,3.432,19.769,19.769,0,0,0-3.044,6.757,45.913,45.913,0,0,0-1.874,17.982,27.212,27.212,0,0,0,7.484,16.212,3.063,3.063,0,0,0,2.577,1.178,3.1,3.1,0,0,0,1.361-.84,40.239,40.239,0,0,0,13.059-30.6,12.42,12.42,0,0,0-1.636-6.583c-1.269-1.909-4.226-3.935-6.386-3.169" transform="translate(-18.842 -234.013)" fill="#a3314f"/>
        <path id="Trazado_260282" data-name="Trazado 260282" d="M46.625,244.31l-3.5,6.34c-.082.148-.189.314-.358.328-.184.015-.321-.159-.422-.313q-4.628-7.1-9.256-14.206l2.132-1.208Z" transform="translate(-15.308 -228.384)" fill="#a3314f"/>
        <g id="Grupo_236328" data-name="Grupo 236328" transform="translate(17.723 6.866)" opacity="0.2">
          <g id="Grupo_236327" data-name="Grupo 236327">
            <g id="Grupo_236326" data-name="Grupo 236326" clip-path="url(#clip-path-13)">
              <path id="Trazado_260283" data-name="Trazado 260283" d="M46.625,244.31l-3.5,6.34c-.082.148-.189.314-.358.328-.184.015-.321-.159-.422-.313q-4.628-7.1-9.256-14.206l2.132-1.208Z" transform="translate(-33.088 -235.251)" fill="#a3314f"/>
            </g>
          </g>
        </g>
        <path id="Trazado_260284" data-name="Trazado 260284" d="M65.387,254.159,33.813,235.527a1.469,1.469,0,0,1-.769-.775c-.126-.467.224-.918.562-1.265a21.759,21.759,0,0,1,16.873-6.629,19.281,19.281,0,0,1,15.255,9.488c3.047,5.445,3.147,12.646-.347,17.814" transform="translate(-15.295 -226.808)" fill="#a3314f"/>
        <path id="Trazado_260285" data-name="Trazado 260285" d="M39.59,230.191A1.739,1.739,0,0,1,40,230.14c.272-.014.674-.063,1.193-.058a23.79,23.79,0,0,1,4.381.348,25.612,25.612,0,0,1,20.437,18.492,23.756,23.756,0,0,1,.782,4.324c.058.516.049.921.062,1.193a1.7,1.7,0,0,1-.01.416c-.033,0-.073-.569-.2-1.593A26.837,26.837,0,0,0,65.757,249a25.792,25.792,0,0,0-20.226-18.3,26.976,26.976,0,0,0-4.335-.464c-1.031-.023-1.6,0-1.606-.038" transform="translate(-16.522 -227.418)" fill="#263238"/>
        <path id="Trazado_260286" data-name="Trazado 260286" d="M64.954,244.625a7.575,7.575,0,0,1-1.6.725c-1.005.4-2.411.9-3.983,1.4s-3.014.9-4.065,1.153a7.588,7.588,0,0,1-1.722.329,8.584,8.584,0,0,1,1.65-.586l4.022-1.256,4.009-1.295a8.527,8.527,0,0,1,1.686-.473" transform="translate(-19.136 -230.133)" fill="#263238"/>
        <path id="Trazado_260287" data-name="Trazado 260287" d="M61.436,228.205a22.064,22.064,0,0,1,.178,7.059,22.123,22.123,0,0,1-.183-3.527,22.027,22.027,0,0,1,0-3.532" transform="translate(-20.59 -227.069)" fill="#263238"/>
        <path id="Trazado_260288" data-name="Trazado 260288" d="M33.656,236.2a14.17,14.17,0,0,1,2.293-.807c1.435-.442,3.433-1,5.66-1.54s4.262-.947,5.74-1.207a14.129,14.129,0,0,1,2.409-.326,16.961,16.961,0,0,1-2.357.588c-1.462.326-3.482.778-5.7,1.313s-4.225,1.053-5.675,1.429a16.882,16.882,0,0,1-2.367.55" transform="translate(-15.414 -227.835)" fill="#263238"/>
        <path id="Trazado_260289" data-name="Trazado 260289" d="M46.758,263.023c-2.716-2.059-5.587-2.465-8.992-2.33a27.481,27.481,0,0,0-9.841,2.54C22.6,265.564,17.6,269,14.415,273.866s-4.288,11.3-1.907,16.607a2.373,2.373,0,0,0,1.078,1.309,2.58,2.58,0,0,0,1.783-.137c6.055-1.975,12.154-3.97,17.721-7.063s10.636-7.393,13.624-13.019a11.2,11.2,0,0,0,1.434-4.32,5.374,5.374,0,0,0-1.389-4.22" transform="translate(-11.225 -233.131)" fill="#a3314f"/>
        <path id="Trazado_260290" data-name="Trazado 260290" d="M47.293,262.777a2.248,2.248,0,0,1-.436.177l-1.269.436-.919.307c-.333.12-.688.269-1.074.418-.766.31-1.655.62-2.592,1.074l-1.485.676c-.515.238-1.029.53-1.573.808-1.1.539-2.208,1.228-3.391,1.926A53.606,53.606,0,0,0,21.2,280.352c-.843,1.084-1.668,2.1-2.343,3.118-.344.5-.7.977-1,1.457l-.86,1.387c-.57.871-.991,1.714-1.4,2.434-.2.363-.39.7-.551,1.012s-.293.606-.42.872c-.244.494-.442.892-.595,1.2a2.2,2.2,0,0,1-.232.41,2.2,2.2,0,0,1,.162-.441c.137-.319.313-.728.531-1.235l.392-.89c.152-.32.338-.66.526-1.03.389-.733.795-1.588,1.352-2.473q.405-.673.844-1.407c.3-.487.648-.967.989-1.479.668-1.034,1.488-2.061,2.33-3.159A51.849,51.849,0,0,1,34.373,268.3c1.2-.7,2.319-1.378,3.43-1.909.551-.272,1.07-.56,1.592-.792l1.5-.658c.948-.441,1.849-.734,2.625-1.027.39-.14.751-.28,1.088-.39l.932-.276,1.293-.369a2.13,2.13,0,0,1,.457-.1" transform="translate(-11.706 -233.524)" fill="#263238"/>
        <path id="Trazado_260291" data-name="Trazado 260291" d="M25.839,276.9a63.9,63.9,0,0,1-6.605,2.128,63.981,63.981,0,0,1-6.712,1.766,63.5,63.5,0,0,1,6.605-2.128,63.932,63.932,0,0,1,6.712-1.766" transform="translate(-11.467 -236.16)" fill="#263238"/>
        <path id="Trazado_260292" data-name="Trazado 260292" d="M28.524,291.6a10.564,10.564,0,0,1-.146-2.058c-.034-1.272-.04-3.031.014-4.973s.159-3.7.264-4.967a10.507,10.507,0,0,1,.26-2.046,11.9,11.9,0,0,1,.007,2.062c-.043,1.394-.1,3.088-.154,4.962s-.089,3.569-.124,4.963a11.823,11.823,0,0,1-.122,2.058" transform="translate(-14.423 -236.284)" fill="#263238"/>
        <path id="Trazado_260293" data-name="Trazado 260293" d="M43.656,283.333c-.1.007-.436-3.567-.742-7.982s-.468-8-.364-8.009.437,3.566.742,7.983.468,8,.364,8.008" transform="translate(-17.069 -234.377)" fill="#263238"/>
        <path id="Trazado_260294" data-name="Trazado 260294" d="M24.805,266.9a11.76,11.76,0,0,1,2.118-.064c1.305.009,3.108.048,5.1.114s3.791.146,5.094.224a11.806,11.806,0,0,1,2.109.2,11.7,11.7,0,0,1-2.115.064c-1.305-.009-3.109-.047-5.1-.113s-3.793-.147-5.1-.224a11.712,11.712,0,0,1-2.106-.2" transform="translate(-13.761 -234.282)" fill="#263238"/>
        <path id="Trazado_260295" data-name="Trazado 260295" d="M63.152,312.5a1.86,1.86,0,0,1-.046-.432c-.014-.324-.033-.735-.055-1.24-.047-1.078-.059-2.638-.018-4.567s.163-4.224.39-6.765c.246-2.539.6-5.324,1.112-8.224s1.151-5.635,1.8-8.1c.664-2.463,1.337-4.662,1.971-6.483s1.177-3.285,1.593-4.279l.481-1.145a1.849,1.849,0,0,1,.192-.39,1.949,1.949,0,0,1-.121.418l-.413,1.169c-.374,1.009-.884,2.482-1.478,4.312s-1.243,4.027-1.887,6.487c-.625,2.464-1.24,5.193-1.762,8.081s-.873,5.662-1.137,8.19c-.246,2.531-.4,4.817-.469,6.74s-.1,3.48-.1,4.557c-.007.505-.011.916-.015,1.24a1.864,1.864,0,0,1-.031.434" transform="translate(-20.895 -235.036)" fill="#263238"/>
        <path id="Trazado_260296" data-name="Trazado 260296" d="M63.035,295.571a8.616,8.616,0,0,1-1.26,1.383c-.817.814-1.976,1.908-3.3,3.068S55.915,302.19,55,302.893a8.562,8.562,0,0,1-1.535,1.067,9.829,9.829,0,0,1,1.366-1.274l3.395-2.948,3.366-2.979a9.738,9.738,0,0,1,1.443-1.187" transform="translate(-19.113 -239.647)" fill="#263238"/>
        <path id="Trazado_260297" data-name="Trazado 260297" d="M75.473,302.526a14.866,14.866,0,0,1-1.342-1.858l-3.12-4.553-3.186-4.51a14.792,14.792,0,0,1-1.275-1.9,12.785,12.785,0,0,1,1.49,1.743c.875,1.113,2.047,2.68,3.282,4.453s2.3,3.417,3.034,4.624a12.842,12.842,0,0,1,1.117,2" transform="translate(-21.556 -238.552)" fill="#263238"/>
        <path id="Trazado_260298" data-name="Trazado 260298" d="M67.632,274.338c.056.088-3.264,2.323-7.415,4.992S52.655,284.091,52.6,284s3.263-2.323,7.415-4.992,7.562-4.761,7.619-4.673" transform="translate(-18.951 -235.683)" fill="#263238"/>
        <path id="Trazado_260299" data-name="Trazado 260299" d="M80.348,284.57a61.947,61.947,0,0,1-5.021-4.64,61.9,61.9,0,0,1-4.758-4.911,61.768,61.768,0,0,1,5.022,4.641,61.712,61.712,0,0,1,4.757,4.911" transform="translate(-22.306 -235.81)" fill="#263238"/>
        <path id="Trazado_260300" data-name="Trazado 260300" d="M85.489,281.725l2.85-.236a14.108,14.108,0,0,0,5.756-1.762,22.834,22.834,0,0,1,2.682-1.348c3.524-1.414,7.455-1.161,11.247-1.352a46.573,46.573,0,0,0,17.892-4.575,1.744,1.744,0,0,0,.779-.708c.586-1.066-.5-2.016-1.438-2.593-4.8-2.959-9.688-5.955-15.133-7.423s-11.626-1.22-16.271,1.977c-5.454,3.753-7.441,11.462-8.363,18.018" transform="translate(-25.093 -233.168)" fill="#a3314f"/>
        <path id="Trazado_260301" data-name="Trazado 260301" d="M126.772,272.016a2.838,2.838,0,0,1-.483-.225l-1.351-.707c-1.172-.616-2.859-1.526-4.989-2.548a46.648,46.648,0,0,0-7.723-2.977,25.5,25.5,0,0,0-10.01-.811,17.113,17.113,0,0,0-9.125,3.918,20.3,20.3,0,0,0-4.752,6.675,55.825,55.825,0,0,0-2.067,5.2c-.21.6-.379,1.074-.507,1.438a2.678,2.678,0,0,1-.2.494,2.841,2.841,0,0,1,.127-.517c.111-.369.258-.855.44-1.461a47.472,47.472,0,0,1,1.965-5.262,20.191,20.191,0,0,1,4.763-6.823,17.3,17.3,0,0,1,9.306-4.032,25.48,25.48,0,0,1,10.152.85,44.95,44.95,0,0,1,7.747,3.072c2.124,1.057,3.793,2,4.943,2.659l1.318.769a2.815,2.815,0,0,1,.446.292" transform="translate(-25.106 -233.788)" fill="#263238"/>
        <path id="Trazado_260302" data-name="Trazado 260302" d="M124.044,275.789c-.059.087-3.786-2.324-8.325-5.385s-8.172-5.612-8.113-5.7,3.785,2.324,8.325,5.385,8.172,5.612,8.113,5.7" transform="translate(-29.222 -233.884)" fill="#263238"/>
        <path id="Trazado_260303" data-name="Trazado 260303" d="M122.067,264.259a14.016,14.016,0,0,1-5.876.541,17.281,17.281,0,0,1,2.932-.334,17.327,17.327,0,0,1,2.944-.207" transform="translate(-30.826 -233.795)" fill="#263238"/>
        <path id="Trazado_260304" data-name="Trazado 260304" d="M102.228,260.585a19.739,19.739,0,0,1-2.772,4.7,19.768,19.768,0,0,1,2.772-4.7" transform="translate(-27.699 -233.114)" fill="#263238"/>
        <path id="Trazado_260305" data-name="Trazado 260305" d="M104.369,279.192a9.857,9.857,0,0,1-1.794-.973c-1.076-.653-2.532-1.611-4.087-2.74s-2.925-2.2-3.91-2.978a11.105,11.105,0,0,1-1.548-1.327,10.731,10.731,0,0,1,1.709,1.113l3.972,2.886c1.55,1.125,2.974,2.112,4.01,2.821a12.07,12.07,0,0,1,1.648,1.2" transform="translate(-26.5 -235.092)" fill="#263238"/>
        <path id="Trazado_260306" data-name="Trazado 260306" d="M89.116,301.107c-2.718-.718-5.959,1.926-6.519,4.681s.473,5.573,1.683,8.111a41.376,41.376,0,0,0,11.242,14.708,27.793,27.793,0,0,0,17.188,6.328c-1.149-5.337.3-10.914-.337-16.337a21.25,21.25,0,0,0-18.821-18.634c-1.736-.188-3.743-.459-4.436,1.143" transform="translate(-24.523 -240.441)" fill="#a3314f"/>
        <path id="Trazado_260307" data-name="Trazado 260307" d="M114.241,335.229a1.763,1.763,0,0,1-.388-.18,7.106,7.106,0,0,1-1.017-.683,10.6,10.6,0,0,1-2.684-3.59c-.433-.841-.918-1.755-1.392-2.767s-.947-2.1-1.462-3.233a31.212,31.212,0,0,0-1.8-3.455,26.947,26.947,0,0,0-2.473-3.364c-1.861-2.186-3.857-4.078-5.589-5.884a38.57,38.57,0,0,1-4.262-5.113,18.758,18.758,0,0,1-2.081-3.977,11.6,11.6,0,0,1-.363-1.166,1.775,1.775,0,0,1-.087-.417c.036-.01.19.556.586,1.53A20.476,20.476,0,0,0,93.4,306.81a40.406,40.406,0,0,0,4.29,5.021c1.738,1.788,3.747,3.674,5.628,5.882a26.78,26.78,0,0,1,2.5,3.415,30.692,30.692,0,0,1,1.8,3.5l1.43,3.246c.455,1.007.927,1.93,1.344,2.776a11,11,0,0,0,2.541,3.6c.794.685,1.332.939,1.309.975" transform="translate(-26.055 -240.736)" fill="#263238"/>
        <path id="Trazado_260308" data-name="Trazado 260308" d="M102.371,334.767a8.091,8.091,0,0,1,.25-1.83c.212-1.119.562-2.656,1.033-4.331s.977-3.168,1.379-4.233a8.105,8.105,0,0,1,.743-1.691,9.944,9.944,0,0,1-.49,1.777c-.337,1.085-.8,2.583-1.268,4.249s-.857,3.186-1.136,4.286a9.889,9.889,0,0,1-.511,1.772" transform="translate(-28.242 -244.71)" fill="#263238"/>
        <path id="Trazado_260309" data-name="Trazado 260309" d="M116.028,320.753a11.173,11.173,0,0,1-1.915-.44c-1.171-.307-2.789-.725-4.588-1.13s-3.441-.721-4.631-.946a11.3,11.3,0,0,1-1.919-.423,9.251,9.251,0,0,1,1.962.159c1.2.159,2.861.434,4.671.841s3.425.869,4.58,1.243a9.223,9.223,0,0,1,1.84.7" transform="translate(-28.358 -243.798)" fill="#263238"/>
        <path id="Trazado_260310" data-name="Trazado 260310" d="M89.968,322.88a11.076,11.076,0,0,1,.294-2.118c.239-1.3.619-3.082,1.127-5.031s1.05-3.691,1.475-4.941a11.076,11.076,0,0,1,.778-1.991,13,13,0,0,1-.523,2.071c-.359,1.266-.857,3.015-1.364,4.957s-.927,3.709-1.232,4.99a13.033,13.033,0,0,1-.556,2.063" transform="translate(-25.927 -242.118)" fill="#263238"/>
        <path id="Trazado_260311" data-name="Trazado 260311" d="M107.886,307.019c-.011.1-3.4-.171-7.579-.613s-7.55-.886-7.539-.99,3.4.171,7.579.613,7.55.886,7.539.99" transform="translate(-26.452 -241.482)" fill="#263238"/>
        <path id="Trazado_260312" data-name="Trazado 260312" d="M96.066,357.95c0,.1-11.929.19-26.64.19s-26.644-.085-26.644-.19,11.927-.189,26.644-.189,26.64.085,26.64.189" transform="translate(-17.118 -251.26)" fill="#455a64"/>
        <path id="Trazado_260313" data-name="Trazado 260313" d="M89.852,376.826c0,.1-8.038.189-17.95.189s-17.951-.085-17.951-.189,8.035-.189,17.951-.189,17.95.085,17.95.189" transform="translate(-19.204 -254.785)" fill="#455a64"/>
        <path id="Trazado_260314" data-name="Trazado 260314" d="M90.238,379.525c0,.1-8.038.189-17.95.189s-17.951-.085-17.951-.189,8.035-.19,17.951-.19,17.95.085,17.95.19" transform="translate(-19.276 -255.289)" fill="#455a64"/>
        <path id="Trazado_260315" data-name="Trazado 260315" d="M89.955,374.6c0,.1-8.313.189-18.566.189s-18.569-.085-18.569-.189,8.312-.19,18.569-.19,18.566.085,18.566.19" transform="translate(-18.992 -254.37)" fill="#455a64"/>
      </g>
    </g>
  </g>
</svg>
